%FSLAX44Y44*%
%MOMM*%
G71*
G01*
G75*
G04 Layer_Color=16711935*
%ADD10C,1.0000*%
%ADD11R,1.0000X1.0000*%
%ADD12C,0.2540*%
%ADD13C,0.3810*%
%ADD14C,0.2032*%
%ADD15R,0.4000X0.6000*%
%ADD16R,1.5240X1.5240*%
%ADD17C,2.2000*%
%ADD18R,0.6000X0.4000*%
%ADD19C,0.6000*%
%ADD20C,0.3800*%
%ADD21R,1.9000X1.8000*%
%ADD22R,1.9000X1.9000*%
%ADD23R,1.3500X0.4000*%
%ADD24R,0.6000X1.1000*%
%ADD25R,0.8000X1.6000*%
%ADD26R,0.2800X0.8250*%
%ADD27R,0.8250X0.2800*%
%ADD28R,1.6500X1.1500*%
%ADD29R,1.1500X1.6500*%
%ADD30R,0.7620X0.7620*%
%ADD31R,0.7620X0.7620*%
%ADD32R,1.3000X1.1000*%
%ADD33R,1.1000X0.6000*%
%ADD34R,0.9144X0.8128*%
%ADD35R,0.9500X1.4000*%
%ADD36R,1.4000X0.9500*%
%ADD37R,1.4000X1.0000*%
%ADD38R,1.4000X0.7000*%
%ADD39R,0.7000X1.6000*%
%ADD40R,2.0000X2.0000*%
%ADD41R,1.3000X0.5000*%
%ADD42R,1.0000X2.7000*%
%ADD43R,2.4500X2.4500*%
%ADD44R,0.7000X0.2500*%
%ADD45R,0.2500X0.7000*%
%ADD46R,0.8128X0.9144*%
%ADD47R,1.1000X1.0000*%
%ADD48R,1.1000X1.4000*%
%ADD49P,2.1213X4X360.0*%
%ADD50R,1.8000X1.0000*%
%ADD51R,1.0000X2.5000*%
%ADD52R,1.4000X2.2000*%
%ADD53R,3.5100X0.4000*%
%ADD54R,0.4000X1.0000*%
%ADD55R,2.0000X2.0000*%
%ADD56C,1.5000*%
%ADD57C,0.2000*%
%ADD58C,0.1500*%
%ADD59C,0.3000*%
%ADD60C,0.1000*%
%ADD61C,0.2500*%
%ADD62C,0.5000*%
%ADD63C,0.4000*%
%ADD64C,0.3500*%
%ADD65R,6.8000X0.9000*%
%ADD66R,8.7000X0.9000*%
%ADD67R,5.1000X0.9000*%
%ADD68R,2.2250X1.6750*%
%ADD69R,1.6500X1.1500*%
%ADD70R,0.8250X0.2800*%
%ADD71R,0.7620X0.7620*%
%ADD72R,1.4000X1.0000*%
%ADD73R,1.4000X0.7000*%
%ADD74R,1.0000X1.0000*%
%ADD75C,0.5000*%
%ADD76C,2.0000*%
%ADD77C,0.8000*%
%ADD78C,0.4000*%
%ADD79C,0.4500*%
%ADD80C,0.6000*%
%ADD81C,1.0000*%
%ADD82R,8.7000X0.8750*%
%ADD83C,1.0160*%
%ADD84C,5.0160*%
%ADD85C,1.0000*%
%ADD86C,2.8000*%
%ADD87C,1.4000*%
%ADD88C,0.6500*%
%ADD89C,0.1524*%
%ADD90C,0.0500*%
%ADD91C,0.1520*%
%ADD92C,1.2032*%
%ADD93R,2.0000X2.0000*%
%ADD94R,0.6032X0.8032*%
%ADD95R,1.7272X1.7272*%
%ADD96C,2.4032*%
%ADD97R,0.8032X0.6032*%
%ADD98C,0.8032*%
%ADD99C,0.5832*%
%ADD100R,2.1032X2.0032*%
%ADD101R,2.1032X2.1032*%
%ADD102R,1.5532X0.6032*%
%ADD103R,0.8032X1.3032*%
%ADD104R,1.0032X1.8032*%
%ADD105R,0.4832X1.0282*%
%ADD106R,1.0282X0.4832*%
%ADD107R,1.8532X1.3532*%
%ADD108R,1.3532X1.8532*%
%ADD109R,0.9652X0.9652*%
%ADD110R,0.9652X0.9652*%
%ADD111R,1.5032X1.3032*%
%ADD112R,1.3032X0.8032*%
%ADD113R,1.1176X1.0160*%
%ADD114R,1.1532X1.6032*%
%ADD115R,1.6032X1.1532*%
%ADD116R,1.6032X1.2032*%
%ADD117R,1.6032X0.9032*%
%ADD118R,0.9032X1.8032*%
%ADD119R,2.2032X2.2032*%
%ADD120R,1.5032X0.7032*%
%ADD121R,1.2032X2.9032*%
%ADD122R,2.6532X2.6532*%
%ADD123R,0.9032X0.4532*%
%ADD124R,0.4532X0.9032*%
%ADD125R,1.0160X1.1176*%
%ADD126R,1.3032X1.2032*%
%ADD127R,1.3032X1.6032*%
%ADD128P,2.4087X4X360.0*%
%ADD129R,2.0032X1.2032*%
%ADD130R,1.2032X2.7032*%
%ADD131R,1.6032X2.4032*%
%ADD132R,3.7132X0.6032*%
%ADD133R,0.6032X1.2032*%
%ADD134R,2.2032X2.2032*%
%ADD135R,1.8532X1.3532*%
%ADD136R,1.0282X0.4832*%
%ADD137R,0.9652X0.9652*%
%ADD138R,1.6032X1.2032*%
%ADD139R,1.6032X0.9032*%
%ADD140R,1.2032X1.2032*%
%ADD141C,0.7032*%
%ADD142C,2.2032*%
%ADD143C,1.0032*%
%ADD144C,0.6032*%
%ADD145C,0.6532*%
D57*
X1842000Y650000D02*
G03*
X1852000Y660000I0J10000D01*
G01*
Y1150000D02*
G03*
X1842000Y1160000I-10000J0D01*
G01*
X1022000D02*
G03*
X1012000Y1150000I0J-10000D01*
G01*
Y660000D02*
G03*
X1022000Y650000I10000J0D01*
G01*
X996000Y1000500D02*
G03*
X1006000Y990500I10000J0D01*
G01*
Y1133500D02*
G03*
X996000Y1123500I0J-10000D01*
G01*
X1842000Y80000D02*
G03*
X1852000Y90000I0J10000D01*
G01*
Y580000D02*
G03*
X1842000Y590000I-10000J0D01*
G01*
X1022000D02*
G03*
X1012000Y580000I0J-10000D01*
G01*
Y90000D02*
G03*
X1022000Y80000I10000J0D01*
G01*
X996000Y430500D02*
G03*
X1006000Y420500I10000J0D01*
G01*
Y563500D02*
G03*
X996000Y553500I0J-10000D01*
G01*
X90000Y1160000D02*
G03*
X80000Y1150000I0J-10000D01*
G01*
Y660000D02*
G03*
X90000Y650000I10000J0D01*
G01*
X910000D02*
G03*
X920000Y660000I0J10000D01*
G01*
Y1150000D02*
G03*
X910000Y1160000I-10000J0D01*
G01*
X936000Y809500D02*
G03*
X926000Y819500I-10000J0D01*
G01*
Y676500D02*
G03*
X936000Y686500I0J10000D01*
G01*
X926000Y106500D02*
G03*
X936000Y116500I0J10000D01*
G01*
Y239500D02*
G03*
X926000Y249500I-10000J0D01*
G01*
X920000Y580000D02*
G03*
X910000Y590000I-10000J0D01*
G01*
Y80000D02*
G03*
X920000Y90000I0J10000D01*
G01*
X80000D02*
G03*
X90000Y80000I10000J0D01*
G01*
Y590000D02*
G03*
X80000Y580000I0J-10000D01*
G01*
X1822000Y100000D02*
G03*
X1822000Y80000I0J-10000D01*
G01*
Y590000D02*
G03*
X1822000Y570000I0J-10000D01*
G01*
X1042000D02*
G03*
X1042000Y590000I0J10000D01*
G01*
Y80000D02*
G03*
X1042000Y100000I0J10000D01*
G01*
Y650000D02*
G03*
X1042000Y670000I0J10000D01*
G01*
Y1140000D02*
G03*
X1042000Y1160000I0J10000D01*
G01*
X1822000D02*
G03*
X1822000Y1140000I0J-10000D01*
G01*
Y670000D02*
G03*
X1822000Y650000I0J-10000D01*
G01*
X890000Y1160000D02*
G03*
X890000Y1140000I0J-10000D01*
G01*
Y670000D02*
G03*
X890000Y650000I0J-10000D01*
G01*
X110000D02*
G03*
X110000Y670000I0J10000D01*
G01*
Y1140000D02*
G03*
X110000Y1160000I0J10000D01*
G01*
X890000Y590000D02*
G03*
X890000Y570000I0J-10000D01*
G01*
Y100000D02*
G03*
X890000Y80000I0J-10000D01*
G01*
X110000D02*
G03*
X110000Y100000I0J10000D01*
G01*
Y570000D02*
G03*
X110000Y590000I0J10000D01*
G01*
X1852000Y660000D02*
Y1150000D01*
X1012000Y660000D02*
Y990500D01*
X1006000D02*
X1012000D01*
X996000Y1000500D02*
Y1123500D01*
X1006000Y1133500D02*
X1012000D01*
Y1150000D01*
X1852000Y90000D02*
Y580000D01*
X1012000Y90000D02*
Y420500D01*
X1006000D02*
X1012000D01*
X996000Y430500D02*
Y553500D01*
X1006000Y563500D02*
X1012000D01*
Y580000D01*
X80000Y660000D02*
Y1150000D01*
X920000Y819500D02*
Y1150000D01*
Y819500D02*
X926000D01*
X936000Y686500D02*
Y809500D01*
X920000Y676500D02*
X926000D01*
X920000Y660000D02*
Y676500D01*
Y90000D02*
Y106500D01*
X926000D01*
X936000Y116500D02*
Y239500D01*
X920000Y249500D02*
X926000D01*
X920000D02*
Y580000D01*
X80000Y90000D02*
Y580000D01*
X0Y0D02*
X1932000D01*
Y1240000D01*
X0D02*
X1932000D01*
X0Y0D02*
Y1240000D01*
X1822000Y80000D02*
X1842000D01*
X1822000Y590000D02*
X1842000D01*
X1022000D02*
X1042000D01*
X1022000Y80000D02*
X1042000D01*
X1022000Y650000D02*
X1042000D01*
X1022000Y1160000D02*
X1042000D01*
X1822000D02*
X1842000D01*
X1822000Y650000D02*
X1842000D01*
X890000Y1160000D02*
X910000D01*
X890000Y650000D02*
X910000D01*
X90000D02*
X110000D01*
X90000Y1160000D02*
X110000D01*
X890000Y590000D02*
X910000D01*
X890000Y80000D02*
X910000D01*
X90000D02*
X110000D01*
X90000Y590000D02*
X110000D01*
X1324500Y737500D02*
G03*
X1324500Y722500I0J-7500D01*
G01*
Y1097500D02*
G03*
X1324500Y1082500I0J-7500D01*
G01*
X1032000Y1113500D02*
G03*
X1032000Y1128500I0J7500D01*
G01*
Y995500D02*
G03*
X1032000Y1010500I0J7500D01*
G01*
X1820000Y738500D02*
G03*
X1820000Y723500I0J-7500D01*
G01*
Y1076500D02*
G03*
X1820000Y1061500I0J-7500D01*
G01*
X1605825Y810970D02*
G03*
X1607000Y815000I-6325J4030D01*
G01*
X1560000Y722500D02*
G03*
X1567500Y730000I0J7500D01*
G01*
X1567500Y1090000D02*
G03*
X1560000Y1097500I-7500J-0D01*
G01*
X1607000Y985000D02*
G03*
X1605825Y989030I-7500J0D01*
G01*
X1032000Y680000D02*
G03*
X1042000Y670000I10000J0D01*
G01*
Y1140000D02*
G03*
X1032000Y1130000I0J-10000D01*
G01*
X1822000Y670000D02*
G03*
X1832000Y680000I0J10000D01*
G01*
Y1130000D02*
G03*
X1822000Y1140000I-10000J0D01*
G01*
X1607000Y985000D02*
Y815000D01*
X1605825Y989030D02*
X1567500Y1049189D01*
Y1090000D02*
Y1049189D01*
X1560000Y1097500D02*
X1324500D01*
Y1082500D02*
Y737500D01*
X1560000Y722500D02*
X1324500D01*
X1567500Y750811D02*
Y730000D01*
X1605825Y810970D02*
X1567500Y750811D01*
X1032000Y1130000D02*
Y1128500D01*
Y1113500D02*
X1016000D01*
Y1010500D01*
X1032000D02*
X1016000D01*
X1032000Y995500D02*
Y680000D01*
X1822000Y670000D02*
X1042000D01*
X1832000Y723500D02*
Y680000D01*
Y723500D02*
X1820000D01*
X1832000Y738500D02*
X1820000D01*
X1832000Y1061500D02*
Y738500D01*
Y1061500D02*
X1820000D01*
X1832000Y1076500D02*
X1820000D01*
X1832000Y1130000D02*
Y1076500D01*
X1822000Y1140000D02*
X1042000D01*
X1324500Y167500D02*
G03*
X1324500Y152500I0J-7500D01*
G01*
Y527500D02*
G03*
X1324500Y512500I0J-7500D01*
G01*
X1032000Y543500D02*
G03*
X1032000Y558500I0J7500D01*
G01*
Y425500D02*
G03*
X1032000Y440500I0J7500D01*
G01*
X1820000Y168500D02*
G03*
X1820000Y153500I0J-7500D01*
G01*
Y506500D02*
G03*
X1820000Y491500I0J-7500D01*
G01*
X1605825Y240970D02*
G03*
X1607000Y245000I-6325J4030D01*
G01*
X1560000Y152500D02*
G03*
X1567500Y160000I0J7500D01*
G01*
X1567500Y520000D02*
G03*
X1560000Y527500I-7500J-0D01*
G01*
X1607000Y415000D02*
G03*
X1605825Y419030I-7500J0D01*
G01*
X1032000Y110000D02*
G03*
X1042000Y100000I10000J0D01*
G01*
Y570000D02*
G03*
X1032000Y560000I0J-10000D01*
G01*
X1822000Y100000D02*
G03*
X1832000Y110000I0J10000D01*
G01*
Y560000D02*
G03*
X1822000Y570000I-10000J0D01*
G01*
X1607000Y415000D02*
Y245000D01*
X1605825Y419030D02*
X1567500Y479189D01*
Y520000D02*
Y479189D01*
X1560000Y527500D02*
X1324500D01*
Y512500D02*
Y167500D01*
X1560000Y152500D02*
X1324500D01*
X1567500Y180811D02*
Y160000D01*
X1605825Y240970D02*
X1567500Y180811D01*
X1032000Y560000D02*
Y558500D01*
Y543500D02*
X1016000D01*
Y440500D01*
X1032000D02*
X1016000D01*
X1032000Y425500D02*
Y110000D01*
X1822000Y100000D02*
X1042000D01*
X1832000Y153500D02*
Y110000D01*
Y153500D02*
X1820000D01*
X1832000Y168500D02*
X1820000D01*
X1832000Y491500D02*
Y168500D01*
Y491500D02*
X1820000D01*
X1832000Y506500D02*
X1820000D01*
X1832000Y560000D02*
Y506500D01*
X1822000Y570000D02*
X1042000D01*
X607500Y502500D02*
G03*
X607500Y517500I0J7500D01*
G01*
Y142500D02*
G03*
X607500Y157500I0J7500D01*
G01*
X900000Y126500D02*
G03*
X900000Y111500I0J-7500D01*
G01*
Y244500D02*
G03*
X900000Y229500I0J-7500D01*
G01*
X112000Y501500D02*
G03*
X112000Y516500I0J7500D01*
G01*
Y163500D02*
G03*
X112000Y178500I0J7500D01*
G01*
X326175Y429030D02*
G03*
X325000Y425000I6325J-4030D01*
G01*
X372000Y517500D02*
G03*
X364500Y510000I0J-7500D01*
G01*
X364500Y150000D02*
G03*
X372000Y142500I7500J0D01*
G01*
X325000Y255000D02*
G03*
X326175Y250970I7500J0D01*
G01*
X900000Y560000D02*
G03*
X890000Y570000I-10000J0D01*
G01*
Y100000D02*
G03*
X900000Y110000I0J10000D01*
G01*
X110000Y570000D02*
G03*
X100000Y560000I0J-10000D01*
G01*
Y110000D02*
G03*
X110000Y100000I10000J0D01*
G01*
X325000Y255000D02*
Y425000D01*
X326175Y250970D02*
X364500Y190811D01*
Y150000D02*
Y190811D01*
X372000Y142500D02*
X607500D01*
Y157500D02*
Y502500D01*
X372000Y517500D02*
X607500D01*
X364500Y489189D02*
Y510000D01*
X326175Y429030D02*
X364500Y489189D01*
X900000Y110000D02*
Y111500D01*
Y126500D02*
X916000D01*
Y229500D01*
X900000D02*
X916000D01*
X900000Y244500D02*
Y560000D01*
X110000Y570000D02*
X890000D01*
X100000Y516500D02*
Y560000D01*
Y516500D02*
X112000D01*
X100000Y501500D02*
X112000D01*
X100000Y178500D02*
Y501500D01*
Y178500D02*
X112000D01*
X100000Y163500D02*
X112000D01*
X100000Y110000D02*
Y163500D01*
X110000Y100000D02*
X890000D01*
X607500Y1072500D02*
G03*
X607500Y1087500I0J7500D01*
G01*
Y712500D02*
G03*
X607500Y727500I0J7500D01*
G01*
X900000Y696500D02*
G03*
X900000Y681500I0J-7500D01*
G01*
Y814500D02*
G03*
X900000Y799500I0J-7500D01*
G01*
X112000Y1071500D02*
G03*
X112000Y1086500I0J7500D01*
G01*
Y733500D02*
G03*
X112000Y748500I0J7500D01*
G01*
X326175Y999030D02*
G03*
X325000Y995000I6325J-4030D01*
G01*
X372000Y1087500D02*
G03*
X364500Y1080000I0J-7500D01*
G01*
X364500Y720000D02*
G03*
X372000Y712500I7500J0D01*
G01*
X325000Y825000D02*
G03*
X326175Y820970I7500J0D01*
G01*
X900000Y1130000D02*
G03*
X890000Y1140000I-10000J0D01*
G01*
Y670000D02*
G03*
X900000Y680000I0J10000D01*
G01*
X110000Y1140000D02*
G03*
X100000Y1130000I0J-10000D01*
G01*
Y680000D02*
G03*
X110000Y670000I10000J0D01*
G01*
X325000Y825000D02*
Y995000D01*
X326175Y820970D02*
X364500Y760811D01*
Y720000D02*
Y760811D01*
X372000Y712500D02*
X607500D01*
Y727500D02*
Y1072500D01*
X372000Y1087500D02*
X607500D01*
X364500Y1059189D02*
Y1080000D01*
X326175Y999030D02*
X364500Y1059189D01*
X900000Y680000D02*
Y681500D01*
Y696500D02*
X916000D01*
Y799500D01*
X900000D02*
X916000D01*
X900000Y814500D02*
Y1130000D01*
X110000Y1140000D02*
X890000D01*
X100000Y1086500D02*
Y1130000D01*
Y1086500D02*
X112000D01*
X100000Y1071500D02*
X112000D01*
X100000Y748500D02*
Y1071500D01*
Y748500D02*
X112000D01*
X100000Y733500D02*
X112000D01*
X100000Y680000D02*
Y733500D01*
X110000Y670000D02*
X890000D01*
D60*
X1085000Y1087000D02*
G03*
X1075000Y1087000I-5000J0D01*
G01*
Y1037000D02*
G03*
X1085000Y1037000I5000J0D01*
G01*
Y1087000D02*
Y1037000D01*
X1075000Y1087000D02*
Y1037000D01*
X1442000Y900000D02*
X1432000D01*
Y890000D01*
Y900000D02*
X1422000D01*
X1432000Y910000D02*
Y900000D01*
X1085000Y517000D02*
G03*
X1075000Y517000I-5000J0D01*
G01*
Y467000D02*
G03*
X1085000Y467000I5000J0D01*
G01*
Y517000D02*
Y467000D01*
X1075000Y517000D02*
Y467000D01*
X1442000Y330000D02*
X1432000D01*
Y320000D01*
Y330000D02*
X1422000D01*
X1432000Y340000D02*
Y330000D01*
X847000Y153000D02*
G03*
X857000Y153000I5000J0D01*
G01*
Y203000D02*
G03*
X847000Y203000I-5000J0D01*
G01*
Y153000D02*
Y203000D01*
X857000Y153000D02*
Y203000D01*
X490000Y340000D02*
X500000D01*
Y350000D01*
Y340000D02*
X510000D01*
X500000Y330000D02*
Y340000D01*
X847000Y723000D02*
G03*
X857000Y723000I5000J0D01*
G01*
Y773000D02*
G03*
X847000Y773000I-5000J0D01*
G01*
Y723000D02*
Y773000D01*
X857000Y723000D02*
Y773000D01*
X490000Y910000D02*
X500000D01*
Y920000D01*
Y910000D02*
X510000D01*
X500000Y900000D02*
Y910000D01*
D90*
X966000Y0D02*
Y1240000D01*
X0Y1140000D02*
X1932000D01*
X0Y670000D02*
X1932000D01*
X0Y570000D02*
X1932000D01*
X0Y100000D02*
X1932000D01*
M02*
