<?xml version="1.0" encoding="UTF-8" standalone="no"?>
<!-- Created with Inkscape (http://www.inkscape.org/) -->

<svg
   xmlns:dc="http://purl.org/dc/elements/1.1/"
   xmlns:cc="http://creativecommons.org/ns#"
   xmlns:rdf="http://www.w3.org/1999/02/22-rdf-syntax-ns#"
   xmlns:svg="http://www.w3.org/2000/svg"
   xmlns="http://www.w3.org/2000/svg"
   xmlns:sodipodi="http://sodipodi.sourceforge.net/DTD/sodipodi-0.dtd"
   xmlns:inkscape="http://www.inkscape.org/namespaces/inkscape"
   width="449.94421"
   height="347.87518"
   id="svg2"
   version="1.1"
   inkscape:version="0.48.3.1 r9886"
   sodipodi:docname="fill.svg">
  <defs
     id="defs4">
    <marker
       inkscape:stockid="Arrow2Mend"
       orient="auto"
       refY="0"
       refX="0"
       id="Arrow2Mend"
       style="overflow:visible">
      <path
         id="path4723"
         style="fill-rule:evenodd;stroke-width:0.625;stroke-linejoin:round"
         d="M 8.7185878,4.0337352 -2.2072895,0.01601326 8.7185884,-4.0017078 c -1.7454984,2.3720609 -1.7354408,5.6174519 -6e-7,8.035443 z"
         transform="scale(-0.6,-0.6)"
         inkscape:connector-curvature="0" />
    </marker>
    <marker
       inkscape:stockid="Arrow2Lend"
       orient="auto"
       refY="0"
       refX="0"
       id="Arrow2Lend"
       style="overflow:visible">
      <path
         id="path4717"
         style="fill-rule:evenodd;stroke-width:0.625;stroke-linejoin:round"
         d="M 8.7185878,4.0337352 -2.2072895,0.01601326 8.7185884,-4.0017078 c -1.7454984,2.3720609 -1.7354408,5.6174519 -6e-7,8.035443 z"
         transform="matrix(-1.1,0,0,-1.1,-1.1,0)"
         inkscape:connector-curvature="0" />
    </marker>
    <marker
       inkscape:stockid="Arrow1Lend"
       orient="auto"
       refY="0"
       refX="0"
       id="Arrow1Lend"
       style="overflow:visible">
      <path
         id="path4699"
         d="M 0,0 5,-5 -12.5,0 5,5 0,0 z"
         style="fill-rule:evenodd;stroke:#000000;stroke-width:1pt"
         transform="matrix(-0.8,0,0,-0.8,-10,0)"
         inkscape:connector-curvature="0" />
    </marker>
  </defs>
  <sodipodi:namedview
     id="base"
     pagecolor="#ffffff"
     bordercolor="#666666"
     borderopacity="1.0"
     inkscape:pageopacity="0.0"
     inkscape:pageshadow="2"
     inkscape:zoom="1.4"
     inkscape:cx="191.79455"
     inkscape:cy="183.08643"
     inkscape:document-units="px"
     inkscape:current-layer="layer1"
     showgrid="false"
     inkscape:snap-grids="true"
     inkscape:window-width="1366"
     inkscape:window-height="744"
     inkscape:window-x="0"
     inkscape:window-y="24"
     inkscape:window-maximized="1"
     fit-margin-top="0"
     fit-margin-left="0"
     fit-margin-right="0"
     fit-margin-bottom="0" />
  <metadata
     id="metadata7">
    <rdf:RDF>
      <cc:Work
         rdf:about="">
        <dc:format>image/svg+xml</dc:format>
        <dc:type
           rdf:resource="http://purl.org/dc/dcmitype/StillImage" />
        <dc:title />
      </cc:Work>
    </rdf:RDF>
  </metadata>
  <g
     inkscape:label="Layer 1"
     inkscape:groupmode="layer"
     id="layer1"
     transform="translate(39.938618,-675.77322)">
    <rect
       style="fill:#ffffff;stroke:#000000;stroke-width:2.52374363;stroke-miterlimit:4;stroke-opacity:1;stroke-dasharray:none"
       id="rect2985"
       width="46.441776"
       height="46.441776"
       x="18.404728"
       y="921.86273" />
    <rect
       style="fill:#ffffff;stroke:#000000;stroke-width:2.52374363;stroke-miterlimit:4;stroke-opacity:1;stroke-dasharray:none"
       id="rect2985-6"
       width="46.441776"
       height="46.441776"
       x="67.370239"
       y="921.86273" />
    <rect
       style="fill:#ffffff;stroke:#000000;stroke-width:2.52374363;stroke-miterlimit:4;stroke-opacity:1;stroke-dasharray:none"
       id="rect2985-8"
       width="46.441776"
       height="46.441776"
       x="116.33576"
       y="921.86273" />
    <rect
       style="fill:#ffffff;stroke:#000000;stroke-width:2.52374363;stroke-miterlimit:4;stroke-opacity:1;stroke-dasharray:none"
       id="rect2985-5"
       width="46.441776"
       height="46.441776"
       x="165.30128"
       y="921.86273" />
    <rect
       style="fill:#ffffff;stroke:#000000;stroke-width:2.52374363;stroke-miterlimit:4;stroke-opacity:1;stroke-dasharray:none"
       id="rect2985-62"
       width="46.441776"
       height="46.441776"
       x="214.2668"
       y="921.86273" />
    <rect
       style="fill:#ffffff;stroke:#000000;stroke-width:2.52374363;stroke-miterlimit:4;stroke-opacity:1;stroke-dasharray:none"
       id="rect2985-3"
       width="46.441776"
       height="46.441776"
       x="263.23233"
       y="921.86273" />
    <rect
       style="fill:#ffffff;stroke:#000000;stroke-width:2.52374363;stroke-miterlimit:4;stroke-opacity:1;stroke-dasharray:none"
       id="rect2985-53"
       width="46.441776"
       height="46.441776"
       x="312.19785"
       y="921.86273" />
    <rect
       style="fill:#ffffff;stroke:#000000;stroke-width:2.52374363;stroke-miterlimit:4;stroke-opacity:1;stroke-dasharray:none"
       id="rect2985-2"
       width="46.441776"
       height="46.441776"
       x="18.404728"
       y="872.89722" />
    <rect
       style="fill:#ffffff;stroke:#000000;stroke-width:2.52374363;stroke-miterlimit:4;stroke-opacity:1;stroke-dasharray:none"
       id="rect2985-6-8"
       width="46.441776"
       height="46.441776"
       x="67.370255"
       y="872.89722" />
    <rect
       style="fill:#ffffff;stroke:#000000;stroke-width:2.52374363;stroke-miterlimit:4;stroke-opacity:1;stroke-dasharray:none"
       id="rect2985-8-5"
       width="46.441776"
       height="46.441776"
       x="116.33577"
       y="872.89722" />
    <rect
       style="fill:#ffffff;stroke:#000000;stroke-width:2.52374363;stroke-miterlimit:4;stroke-opacity:1;stroke-dasharray:none"
       id="rect2985-5-0"
       width="46.441776"
       height="46.441776"
       x="165.30128"
       y="872.89722" />
    <rect
       style="fill:#ffffff;stroke:#000000;stroke-width:2.52374363;stroke-miterlimit:4;stroke-opacity:1;stroke-dasharray:none"
       id="rect2985-62-2"
       width="46.441776"
       height="46.441776"
       x="214.2668"
       y="872.89722" />
    <rect
       style="fill:#ffffff;stroke:#000000;stroke-width:2.52374363;stroke-miterlimit:4;stroke-opacity:1;stroke-dasharray:none"
       id="rect2985-3-5"
       width="46.441776"
       height="46.441776"
       x="263.23233"
       y="872.89722" />
    <rect
       style="fill:#ffffff;stroke:#000000;stroke-width:2.52374363;stroke-miterlimit:4;stroke-opacity:1;stroke-dasharray:none"
       id="rect2985-53-4"
       width="46.441776"
       height="46.441776"
       x="312.19785"
       y="872.89722" />
    <rect
       style="fill:#ffffff;stroke:#000000;stroke-width:2.52374363;stroke-miterlimit:4;stroke-opacity:1;stroke-dasharray:none"
       id="rect2985-33"
       width="46.441776"
       height="46.441776"
       x="18.404728"
       y="823.9317" />
    <rect
       style="fill:#ffffff;stroke:#000000;stroke-width:2.52374363;stroke-miterlimit:4;stroke-opacity:1;stroke-dasharray:none"
       id="rect2985-6-6"
       width="46.441776"
       height="46.441776"
       x="67.370239"
       y="823.9317" />
    <rect
       style="fill:#ffffff;stroke:#000000;stroke-width:2.52374363;stroke-miterlimit:4;stroke-opacity:1;stroke-dasharray:none"
       id="rect2985-8-9"
       width="46.441776"
       height="46.441776"
       x="116.33576"
       y="823.9317" />
    <rect
       style="fill:#ffffff;stroke:#000000;stroke-width:2.52374363;stroke-miterlimit:4;stroke-opacity:1;stroke-dasharray:none"
       id="rect2985-5-08"
       width="46.441776"
       height="46.441776"
       x="165.30128"
       y="823.9317" />
    <rect
       style="fill:#ffffff;stroke:#000000;stroke-width:2.52374363;stroke-miterlimit:4;stroke-opacity:1;stroke-dasharray:none"
       id="rect2985-62-7"
       width="46.441776"
       height="46.441776"
       x="214.2668"
       y="823.9317" />
    <rect
       style="fill:#ffffff;stroke:#000000;stroke-width:2.52374363;stroke-miterlimit:4;stroke-opacity:1;stroke-dasharray:none"
       id="rect2985-3-7"
       width="46.441776"
       height="46.441776"
       x="263.23233"
       y="823.9317" />
    <rect
       style="fill:#ffffff;stroke:#000000;stroke-width:2.52374363;stroke-miterlimit:4;stroke-opacity:1;stroke-dasharray:none"
       id="rect2985-53-9"
       width="46.441776"
       height="46.441776"
       x="312.19785"
       y="823.9317" />
    <rect
       style="fill:#ffffff;stroke:#000000;stroke-width:2.52374363;stroke-miterlimit:4;stroke-opacity:1;stroke-dasharray:none"
       id="rect2985-68"
       width="46.441776"
       height="46.441776"
       x="18.404728"
       y="774.96619" />
    <rect
       style="fill:#ffffff;stroke:#000000;stroke-width:2.52374363;stroke-miterlimit:4;stroke-opacity:1;stroke-dasharray:none"
       id="rect2985-6-4"
       width="46.441776"
       height="46.441776"
       x="67.370239"
       y="774.96619" />
    <rect
       style="fill:#ffffff;stroke:#000000;stroke-width:2.52374363;stroke-miterlimit:4;stroke-opacity:1;stroke-dasharray:none"
       id="rect2985-8-0"
       width="46.441776"
       height="46.441776"
       x="116.33576"
       y="774.96619" />
    <rect
       style="fill:#ffffff;stroke:#000000;stroke-width:2.52374363;stroke-miterlimit:4;stroke-opacity:1;stroke-dasharray:none"
       id="rect2985-5-8"
       width="46.441776"
       height="46.441776"
       x="165.30128"
       y="774.96619" />
    <rect
       style="fill:#ffffff;stroke:#000000;stroke-width:2.52374363;stroke-miterlimit:4;stroke-opacity:1;stroke-dasharray:none"
       id="rect2985-62-70"
       width="46.441776"
       height="46.441776"
       x="214.2668"
       y="774.96619" />
    <rect
       style="fill:#ffffff;stroke:#000000;stroke-width:2.52374363;stroke-miterlimit:4;stroke-opacity:1;stroke-dasharray:none"
       id="rect2985-3-2"
       width="46.441776"
       height="46.441776"
       x="263.23233"
       y="774.96619" />
    <rect
       style="fill:#ffffff;stroke:#000000;stroke-width:2.52374363;stroke-miterlimit:4;stroke-opacity:1;stroke-dasharray:none"
       id="rect2985-53-8"
       width="46.441776"
       height="46.441776"
       x="312.19785"
       y="774.96619" />
    <rect
       style="fill:#ffffff;stroke:#000000;stroke-width:2.52374363;stroke-miterlimit:4;stroke-opacity:1;stroke-dasharray:none"
       id="rect2985-21"
       width="46.441776"
       height="46.441776"
       x="18.404728"
       y="726.00067" />
    <rect
       style="fill:#ffffff;stroke:#000000;stroke-width:2.52374363;stroke-miterlimit:4;stroke-opacity:1;stroke-dasharray:none"
       id="rect2985-6-0"
       width="46.441776"
       height="46.441776"
       x="67.370239"
       y="726.00067" />
    <rect
       style="fill:#ffffff;stroke:#000000;stroke-width:2.52374363;stroke-miterlimit:4;stroke-opacity:1;stroke-dasharray:none"
       id="rect2985-8-7"
       width="46.441776"
       height="46.441776"
       x="116.33576"
       y="726.00067" />
    <rect
       style="fill:#ffffff;stroke:#000000;stroke-width:2.52374363;stroke-miterlimit:4;stroke-opacity:1;stroke-dasharray:none"
       id="rect2985-5-6"
       width="46.441776"
       height="46.441776"
       x="165.30128"
       y="726.00067" />
    <rect
       style="fill:#ffffff;stroke:#000000;stroke-width:2.52374363;stroke-miterlimit:4;stroke-opacity:1;stroke-dasharray:none"
       id="rect2985-62-6"
       width="46.441776"
       height="46.441776"
       x="214.2668"
       y="726.00067" />
    <rect
       style="fill:#ffffff;stroke:#000000;stroke-width:2.52374363;stroke-miterlimit:4;stroke-opacity:1;stroke-dasharray:none"
       id="rect2985-3-78"
       width="46.441776"
       height="46.441776"
       x="263.23233"
       y="726.00067" />
    <rect
       style="fill:#ffffff;stroke:#000000;stroke-width:2.52374363;stroke-miterlimit:4;stroke-opacity:1;stroke-dasharray:none"
       id="rect2985-53-5"
       width="46.441776"
       height="46.441776"
       x="312.19785"
       y="726.00067" />
    <rect
       style="fill:#ffffff;stroke:#000000;stroke-width:2.52374363;stroke-miterlimit:4;stroke-opacity:1;stroke-dasharray:none"
       id="rect2985-60"
       width="46.441776"
       height="46.441776"
       x="18.404728"
       y="677.0351" />
    <rect
       style="fill:#ffffff;stroke:#000000;stroke-width:2.52374363;stroke-miterlimit:4;stroke-opacity:1;stroke-dasharray:none"
       id="rect2985-6-1"
       width="46.441776"
       height="46.441776"
       x="67.370239"
       y="677.0351" />
    <rect
       style="fill:#ffffff;stroke:#000000;stroke-width:2.52374363;stroke-miterlimit:4;stroke-opacity:1;stroke-dasharray:none"
       id="rect2985-8-50"
       width="46.441776"
       height="46.441776"
       x="116.33576"
       y="677.0351" />
    <rect
       style="fill:#ffffff;stroke:#000000;stroke-width:2.52374363;stroke-miterlimit:4;stroke-opacity:1;stroke-dasharray:none"
       id="rect2985-5-5"
       width="46.441776"
       height="46.441776"
       x="165.30128"
       y="677.0351" />
    <rect
       style="fill:#ffffff;stroke:#000000;stroke-width:2.52374363;stroke-miterlimit:4;stroke-opacity:1;stroke-dasharray:none"
       id="rect2985-62-5"
       width="46.441776"
       height="46.441776"
       x="214.2668"
       y="677.0351" />
    <rect
       style="fill:#ffffff;stroke:#000000;stroke-width:2.52374363;stroke-miterlimit:4;stroke-opacity:1;stroke-dasharray:none"
       id="rect2985-3-9"
       width="46.441776"
       height="46.441776"
       x="263.23233"
       y="677.0351" />
    <rect
       style="fill:#ffffff;stroke:#000000;stroke-width:2.52374363;stroke-miterlimit:4;stroke-opacity:1;stroke-dasharray:none"
       id="rect2985-53-2"
       width="46.441776"
       height="46.441776"
       x="312.19785"
       y="677.0351" />
    <flowRoot
       xml:space="preserve"
       id="flowRoot4137"
       style="font-size:40px;font-style:normal;font-weight:normal;line-height:125%;letter-spacing:0px;word-spacing:0px;fill:#000000;fill-opacity:1;stroke:none;font-family:Sans"
       transform="matrix(0.48965518,0,0,0.48965518,38.128079,826.40972)"><flowRegion
         id="flowRegion4139"><rect
           id="rect4141"
           width="651.42859"
           height="108.57143"
           x="22.857143"
           y="312.36218" /></flowRegion><flowPara
         id="flowPara4143">All pixels in the rectangle have to be traversed.</flowPara></flowRoot>    <flowRoot
       xml:space="preserve"
       id="flowRoot4149"
       style="font-size:40px;font-style:normal;font-weight:normal;line-height:125%;letter-spacing:0px;word-spacing:0px;fill:#000000;fill-opacity:1;stroke:none;font-family:Sans"><flowRegion
         id="flowRegion4151"><rect
           id="rect4153"
           width="88.571426"
           height="40"
           x="802.85712"
           y="366.64789" /></flowRegion><flowPara
         id="flowPara4155" /></flowRoot>    <path
       style="fill:#b3b3b3;stroke:none"
       d="m 51.713074,78.009035 0,-17.065423 1.772615,-0.444897 c 2.439977,-0.612395 6.438442,-4.258377 7.511738,-6.849541 l 0.888962,-2.146144 16.699057,0 16.699057,0 0,21.785714 0,21.785714 -21.785714,0 -21.785715,0 0,-17.065423 z"
       id="path4458"
       inkscape:connector-curvature="0"
       transform="translate(17.142856,675.77322)" />
    <path
       style="fill:#b3b3b3;stroke:none"
       d="m 100.99879,73.288744 0,-21.785714 21.42857,0 21.42857,0 0,21.785714 0,21.785714 -21.42857,0 -21.42857,0 0,-21.785714 z"
       id="path4460"
       inkscape:connector-curvature="0"
       transform="translate(17.142856,675.77322)" />
    <path
       style="fill:#b3b3b3;stroke:none"
       d="m 149.57022,73.288744 0,-21.785714 21.78571,0 21.78572,0 0,21.785714 0,21.785714 -21.78572,0 -21.78571,0 0,-21.785714 z"
       id="path4462"
       inkscape:connector-curvature="0"
       transform="translate(17.142856,675.77322)" />
    <path
       style="fill:#b3b3b3;stroke:none"
       d="m 198.85593,73.288744 0,-21.785714 21.42857,0 21.42857,0 0,21.785714 0,21.785714 -21.42857,0 -21.42857,0 0,-21.785714 z"
       id="path4464"
       inkscape:connector-curvature="0"
       transform="translate(17.142856,675.77322)" />
    <path
       style="fill:#b3b3b3;stroke:none"
       d="m 247.42736,73.288744 0,-21.785714 21.78571,0 21.78572,0 0,21.785714 0,21.785714 -21.78572,0 -21.78571,0 0,-21.785714 z"
       id="path4466"
       inkscape:connector-curvature="0"
       transform="translate(17.142856,675.77322)" />
    <path
       style="fill:#b3b3b3;stroke:none"
       d="m 247.42736,122.57446 0,-21.78572 21.78571,0 21.78572,0 0,21.78572 0,21.78571 -21.78572,0 -21.78571,0 0,-21.78571 z"
       id="path4468"
       inkscape:connector-curvature="0"
       transform="translate(17.142856,675.77322)" />
    <path
       style="fill:#b3b3b3;stroke:none"
       d="m 198.85593,122.57446 0,-21.78572 21.42857,0 21.42857,0 0,21.78572 0,21.78571 -21.42857,0 -21.42857,0 0,-21.78571 z"
       id="path4470"
       inkscape:connector-curvature="0"
       transform="translate(17.142856,675.77322)" />
    <path
       style="fill:#b3b3b3;stroke:none"
       d="m 149.57022,122.57446 0,-21.78572 21.78571,0 21.78572,0 0,21.78572 0,21.78571 -21.78572,0 -21.78571,0 0,-21.78571 z"
       id="path4472"
       inkscape:connector-curvature="0"
       transform="translate(17.142856,675.77322)" />
    <path
       style="fill:#b3b3b3;stroke:none"
       d="m 100.99879,122.57446 0,-21.78572 21.42857,0 21.42857,0 0,21.78572 0,21.78571 -21.42857,0 -21.42857,0 0,-21.78571 z"
       id="path4474"
       inkscape:connector-curvature="0"
       transform="translate(17.142856,675.77322)" />
    <path
       style="fill:#b3b3b3;stroke:none"
       d="m 51.713074,122.57446 0,-21.78572 21.785715,0 21.785714,0 0,21.78572 0,21.78571 -21.785714,0 -21.785715,0 0,-21.78571 z"
       id="path4476"
       inkscape:connector-curvature="0"
       transform="translate(17.142856,675.77322)" />
    <path
       style="fill:#b3b3b3;stroke:none"
       d="m 51.713074,171.50303 0,-21.42857 21.785715,0 21.785714,0 0,21.42857 0,21.42857 -21.785714,0 -21.785715,0 0,-21.42857 z"
       id="path4478"
       inkscape:connector-curvature="0"
       transform="translate(17.142856,675.77322)" />
    <path
       style="fill:#b3b3b3;stroke:none"
       d="m 100.99879,171.50303 0,-21.42857 21.42857,0 21.42857,0 0,21.42857 0,21.42857 -21.42857,0 -21.42857,0 0,-21.42857 z"
       id="path4480"
       inkscape:connector-curvature="0"
       transform="translate(17.142856,675.77322)" />
    <path
       style="fill:#b3b3b3;stroke:none"
       d="m 149.57022,171.50303 0,-21.42857 21.78571,0 21.78572,0 0,21.42857 0,21.42857 -21.78572,0 -21.78571,0 0,-21.42857 z"
       id="path4482"
       inkscape:connector-curvature="0"
       transform="translate(17.142856,675.77322)" />
    <path
       style="fill:#b3b3b3;stroke:none"
       d="m 198.85593,171.50303 0,-21.42857 21.42857,0 21.42857,0 0,21.42857 0,21.42857 -21.42857,0 -21.42857,0 0,-21.42857 z"
       id="path4484"
       inkscape:connector-curvature="0"
       transform="translate(17.142856,675.77322)" />
    <path
       style="fill:#b3b3b3;stroke:none"
       d="m 247.42736,171.50303 0,-21.42857 21.78571,0 21.78572,0 0,21.42857 0,21.42857 -21.78572,0 -21.78571,0 0,-21.42857 z"
       id="path4486"
       inkscape:connector-curvature="0"
       transform="translate(17.142856,675.77322)" />
    <path
       style="fill:#b3b3b3;stroke:none"
       d="m 247.42736,220.4316 0,-21.78571 21.78571,0 21.78572,0 0,16.37317 0,16.37318 -2.38218,0.78619 c -2.94739,0.97273 -5.75965,3.83474 -7.23237,7.36031 l -1.11891,2.67858 -16.41898,0 -16.41899,0 0,-21.78572 z"
       id="path4488"
       inkscape:connector-curvature="0"
       transform="translate(17.142856,675.77322)" />
    <path
       style="fill:#b3b3b3;stroke:none"
       d="m 198.85593,220.4316 0,-21.78571 21.42857,0 21.42857,0 0,21.78571 0,21.78572 -21.42857,0 -21.42857,0 0,-21.78572 z"
       id="path4490"
       inkscape:connector-curvature="0"
       transform="translate(17.142856,675.77322)" />
    <path
       style="fill:#b3b3b3;stroke:none"
       d="m 149.57022,220.4316 0,-21.78571 21.78571,0 21.78572,0 0,21.78571 0,21.78572 -21.78572,0 -21.78571,0 0,-21.78572 z"
       id="path4492"
       inkscape:connector-curvature="0"
       transform="translate(17.142856,675.77322)" />
    <path
       style="fill:#b3b3b3;stroke:none"
       d="m 100.99879,220.4316 0,-21.78571 21.42857,0 21.42857,0 0,21.78571 0,21.78572 -21.42857,0 -21.42857,0 0,-21.78572 z"
       id="path4494"
       inkscape:connector-curvature="0"
       transform="translate(17.142856,675.77322)" />
    <path
       style="fill:#b3b3b3;stroke:none"
       d="m 51.713074,220.4316 0,-21.78571 21.785715,0 21.785714,0 0,21.78571 0,21.78572 -21.785714,0 -21.785715,0 0,-21.78572 z"
       id="path4496"
       inkscape:connector-curvature="0"
       transform="translate(17.142856,675.77322)" />
    <text
       xml:space="preserve"
       style="font-size:40px;font-style:normal;font-weight:normal;line-height:125%;letter-spacing:0px;word-spacing:0px;fill:#000000;fill-opacity:1;stroke:none;font-family:Sans"
       x="-43.57143"
       y="737.93414"
       id="text4498"
       sodipodi:linespacing="125%"><tspan
         sodipodi:role="line"
         id="tspan4500"
         x="-43.57143"
         y="737.93414">p0</tspan></text>
    <text
       xml:space="preserve"
       style="font-size:40px;font-style:normal;font-weight:normal;line-height:125%;letter-spacing:0px;word-spacing:0px;fill:#000000;fill-opacity:1;stroke:none;font-family:Sans"
       x="362.85715"
       y="930.79126"
       id="text4502"
       sodipodi:linespacing="125%"><tspan
         sodipodi:role="line"
         id="tspan4504"
         x="362.85715"
         y="930.79126">p1</tspan></text>
    <path
       style="fill:none;stroke:#ff0000;stroke-width:2.79999995;stroke-linecap:butt;stroke-linejoin:miter;stroke-miterlimit:4;stroke-opacity:1;stroke-dasharray:none;marker-end:url(#Arrow2Mend)"
       d="m 88.571427,748.6484 198.571433,0 -197.857147,49.28572 197.142857,0 -200,50.71428 199.28571,0 -199.115357,47.91874 202.686787,0.71428"
       id="path4690"
       inkscape:connector-curvature="0"
       sodipodi:nodetypes="cccccccc" />
    <path
       sodipodi:type="arc"
       style="fill:#999999;stroke:#000000;stroke-opacity:1;stroke-width:3;stroke-miterlimit:4;stroke-dasharray:none"
       id="path4438"
       sodipodi:cx="47.142857"
       sodipodi:cy="47.875183"
       sodipodi:rx="12.857142"
       sodipodi:ry="12.857142"
       d="m 59.999999,47.875183 c 0,7.100804 -5.756339,12.857143 -12.857142,12.857143 -7.100804,0 -12.857143,-5.756339 -12.857143,-12.857143 0,-7.100804 5.756339,-12.857142 12.857143,-12.857142 7.100803,0 12.857142,5.756338 12.857142,12.857142 z"
       transform="translate(19.107142,675.95179)" />
    <path
       sodipodi:type="arc"
       style="fill:#999999;stroke:#000000;stroke-opacity:1;stroke-width:3;stroke-miterlimit:4;stroke-dasharray:none"
       id="path4438-1"
       sodipodi:cx="47.142857"
       sodipodi:cy="47.875183"
       sodipodi:rx="12.857142"
       sodipodi:ry="12.857142"
       d="m 59.999999,47.875183 c 0,7.100804 -5.756339,12.857143 -12.857142,12.857143 -7.100804,0 -12.857143,-5.756339 -12.857143,-12.857143 0,-7.100804 5.756339,-12.857142 12.857143,-12.857142 7.100803,0 12.857142,5.756338 12.857142,12.857142 z"
       transform="translate(263.57143,872.20179)" />
  </g>
</svg>
