<?xml version="1.0" encoding="UTF-8" standalone="no"?>
<!-- Created with Inkscape (http://www.inkscape.org/) -->

<svg
   xmlns:dc="http://purl.org/dc/elements/1.1/"
   xmlns:cc="http://creativecommons.org/ns#"
   xmlns:rdf="http://www.w3.org/1999/02/22-rdf-syntax-ns#"
   xmlns:svg="http://www.w3.org/2000/svg"
   xmlns="http://www.w3.org/2000/svg"
   xmlns:xlink="http://www.w3.org/1999/xlink"
   version="1.1"
   width="1052.3622"
   height="744.09448"
   id="svg2">
  <defs
     id="defs4">
    <linearGradient
       id="linearGradient2991">
      <stop
         id="stop2993"
         style="stop-color:#ff0000;stop-opacity:1"
         offset="0" />
      <stop
         id="stop2995"
         style="stop-color:#ff0000;stop-opacity:0"
         offset="1" />
    </linearGradient>
    <linearGradient
       x1="4.2857141"
       y1="356.95163"
       x2="310"
       y2="452.66592"
       id="linearGradient2997"
       xlink:href="#linearGradient2991"
       gradientUnits="userSpaceOnUse" />
    <linearGradient
       x1="4.2857141"
       y1="356.95163"
       x2="310"
       y2="452.66592"
       id="linearGradient2997-9"
       xlink:href="#linearGradient2991-6"
       gradientUnits="userSpaceOnUse" />
    <linearGradient
       id="linearGradient2991-6">
      <stop
         id="stop2993-8"
         style="stop-color:#ff0000;stop-opacity:1"
         offset="0" />
      <stop
         id="stop2995-4"
         style="stop-color:#ff0000;stop-opacity:0"
         offset="1" />
    </linearGradient>
    <linearGradient
       x1="4.2857141"
       y1="356.95163"
       x2="310"
       y2="452.66592"
       id="linearGradient3014"
       xlink:href="#linearGradient2991-6"
       gradientUnits="userSpaceOnUse"
       gradientTransform="matrix(2.8630158,0,0,2.8630158,509.21299,-281.85044)" />
  </defs>
  <metadata
     id="metadata7">
    <rdf:RDF>
      <cc:Work
         rdf:about="">
        <dc:format>image/svg+xml</dc:format>
        <dc:type
           rdf:resource="http://purl.org/dc/dcmitype/StillImage" />
        <dc:title></dc:title>
      </cc:Work>
    </rdf:RDF>
  </metadata>
  <g
     transform="translate(0,-308.2677)"
     id="layer1">
    <path
       d="M 251.42858,668.38019 C 114.28571,684.09448 -50,206.95162 110,331.23734 270,455.52305 447.14285,122.66592 261.42857,229.80876 115.91865,313.75679 -4.3882266e-6,-5.9055177 350,91.237339 526.20181,140.14233 497.14286,396.95163 358.57143,425.52306 220,454.09449 383.12894,646.02148 251.42858,668.38019 z"
       transform="translate(0,308.2677)"
       id="path2989"
       style="fill:url(#linearGradient2997);fill-opacity:1;stroke:#000000;stroke-width:1px;stroke-linecap:butt;stroke-linejoin:miter;stroke-opacity:1" />
    <path
       d="M 1229.0569,1631.7326 C 836.41474,1676.7229 366.06216,310.65531 824.14469,666.48729 1282.2272,1022.3193 1789.39,69.344007 1257.687,376.09566 841.08988,616.4402 509.21292,-298.75802 1511.2685,-20.636503 c 504.4685,140.015753 421.2723,875.264843 24.5401,957.065263 -396.7322,81.80054 70.3085,631.29054 -306.7517,695.30384 z"
       id="path2989-0"
       style="fill:url(#linearGradient3014);fill-opacity:1;stroke:#000000;stroke-width:2.86301589px;stroke-linecap:butt;stroke-linejoin:miter;stroke-opacity:1" />
  </g>
</svg>
