%
M48
M72
T01C0.0240
T02C0.0320
T03C0.0400
%
T01
X4112Y5804
X4112Y7304
X6712Y7304
X6712Y5804
X7512Y9804
X10012Y10404
X11312Y12304
X10212Y13004
X9012Y13004
X5912Y12604
X4712Y11504
X3012Y10704
X4712Y14304
X13412Y7804
X14912Y12404
T02
X13512Y11704
T03
X2512Y2504
X3512Y2504
X4512Y2504
X5512Y2504
X6512Y2504
X7512Y2504
X8512Y2504
X9512Y2504
X10512Y2504
X11512Y2504
X12512Y2504
X13512Y2504
X14512Y2504
X15512Y2504
X16512Y2504
X17512Y2504
X18512Y2504
X19512Y2504
X20512Y2504
X21512Y2504
X21512Y3504
X20512Y3504
X19512Y3504
X18512Y3504
X17512Y3504
X16512Y3504
X15512Y3504
X14512Y3504
X13512Y3504
X12512Y3504
X11512Y3504
X10512Y3504
X9512Y3504
X8512Y3504
X7512Y3504
X6512Y3504
X5512Y3504
X4512Y3504
X3512Y3504
X2512Y3504
X9512Y6004
X10512Y6004
X11512Y6004
X17512Y9504
X17512Y15504
X16512Y15504
X15512Y15504
X15512Y16504
X16512Y16504
X17512Y16504
X18512Y16504
X19512Y16504
X20512Y16504
X21512Y16504
X21512Y15504
X20512Y15504
X19512Y15504
X18512Y15504
X11512Y15504
X10512Y15504
X9512Y15504
X8512Y15504
X7512Y15504
X6512Y15504
X6512Y16504
X7512Y16504
X8512Y16504
X9512Y16504
X10512Y16504
X11512Y16504
X5512Y16504
X4512Y16504
X3512Y16504
X2512Y16504
X2512Y15504
X3512Y15504
X4512Y15504
X5512Y15504
M30
