G75*
G70*
%OFA0B0*%
%FSLAX24Y24*%
%IPPOS*%
%LPD*%
%AMOC8*
5,1,8,0,0,1.08239X$1,22.5*
%
%ADD10C,0.0080*%
D10*
X001512Y000504D02*
X001512Y018504D01*
X022512Y018504D01*
X022512Y000504D01*
X001512Y000504D01*
X002051Y001444D02*
X002191Y001444D01*
X002261Y001514D01*
X001981Y001794D01*
X001981Y001514D01*
X002051Y001444D01*
X002261Y001514D02*
X002261Y001794D01*
X002191Y001864D01*
X002051Y001864D01*
X001981Y001794D01*
X002262Y002004D02*
X002012Y002254D01*
X002012Y003754D01*
X002262Y004004D01*
X002762Y004004D01*
X003012Y003754D01*
X003262Y004004D01*
X003762Y004004D01*
X004012Y003754D01*
X004262Y004004D01*
X004762Y004004D01*
X005012Y003754D01*
X005262Y004004D01*
X005762Y004004D01*
X006012Y003754D01*
X006262Y004004D01*
X006762Y004004D01*
X007012Y003754D01*
X007262Y004004D01*
X007762Y004004D01*
X008012Y003754D01*
X008262Y004004D01*
X008762Y004004D01*
X009012Y003754D01*
X009262Y004004D01*
X009762Y004004D01*
X010012Y003754D01*
X010262Y004004D01*
X010762Y004004D01*
X011012Y003754D01*
X011262Y004004D01*
X011762Y004004D01*
X012012Y003754D01*
X012262Y004004D01*
X012762Y004004D01*
X013012Y003754D01*
X013262Y004004D01*
X013762Y004004D01*
X014012Y003754D01*
X014262Y004004D01*
X014762Y004004D01*
X015012Y003754D01*
X015262Y004004D01*
X015762Y004004D01*
X016012Y003754D01*
X016262Y004004D01*
X016762Y004004D01*
X017012Y003754D01*
X017262Y004004D01*
X017762Y004004D01*
X018012Y003754D01*
X018262Y004004D01*
X018762Y004004D01*
X019012Y003754D01*
X019262Y004004D01*
X019762Y004004D01*
X020012Y003754D01*
X020262Y004004D01*
X020762Y004004D01*
X021012Y003754D01*
X021262Y004004D01*
X021762Y004004D01*
X022012Y003754D01*
X022012Y002254D01*
X021762Y002004D01*
X021262Y002004D01*
X021012Y002254D01*
X020762Y002004D01*
X020262Y002004D01*
X020012Y002254D01*
X019762Y002004D01*
X019262Y002004D01*
X019012Y002254D01*
X018762Y002004D01*
X018262Y002004D01*
X018012Y002254D01*
X017762Y002004D01*
X017262Y002004D01*
X017012Y002254D01*
X016762Y002004D01*
X016262Y002004D01*
X016012Y002254D01*
X015762Y002004D01*
X015262Y002004D01*
X015012Y002254D01*
X014762Y002004D01*
X014262Y002004D01*
X014012Y002254D01*
X013762Y002004D01*
X013262Y002004D01*
X013012Y002254D01*
X012762Y002004D01*
X012262Y002004D01*
X012012Y002254D01*
X011762Y002004D01*
X011262Y002004D01*
X011012Y002254D01*
X010762Y002004D01*
X010262Y002004D01*
X010012Y002254D01*
X009762Y002004D01*
X009262Y002004D01*
X009012Y002254D01*
X008762Y002004D01*
X008262Y002004D01*
X008012Y002254D01*
X007762Y002004D01*
X007262Y002004D01*
X007012Y002254D01*
X006762Y002004D01*
X006262Y002004D01*
X006012Y002254D01*
X005762Y002004D01*
X005262Y002004D01*
X005012Y002254D01*
X004762Y002004D01*
X004262Y002004D01*
X004012Y002254D01*
X003762Y002004D01*
X003262Y002004D01*
X003012Y002254D01*
X002762Y002004D01*
X002262Y002004D01*
X002512Y001864D02*
X002722Y001654D01*
X002442Y001654D01*
X002512Y001444D02*
X002512Y001864D01*
X002442Y014444D02*
X002722Y014444D01*
X002442Y014724D01*
X002442Y014794D01*
X002512Y014864D01*
X002652Y014864D01*
X002722Y014794D01*
X002762Y015004D02*
X002262Y015004D01*
X002012Y015254D01*
X002012Y016754D01*
X002262Y017004D01*
X002762Y017004D01*
X003012Y016754D01*
X003262Y017004D01*
X003762Y017004D01*
X004012Y016754D01*
X004262Y017004D01*
X004762Y017004D01*
X005012Y016754D01*
X005262Y017004D01*
X005762Y017004D01*
X006012Y016754D01*
X006262Y017004D01*
X006762Y017004D01*
X007012Y016754D01*
X007262Y017004D01*
X007762Y017004D01*
X008012Y016754D01*
X008262Y017004D01*
X008762Y017004D01*
X009012Y016754D01*
X009262Y017004D01*
X009762Y017004D01*
X010012Y016754D01*
X010262Y017004D01*
X010762Y017004D01*
X011012Y016754D01*
X011262Y017004D01*
X011762Y017004D01*
X012012Y016754D01*
X012012Y015254D01*
X011762Y015004D01*
X011262Y015004D01*
X011012Y015254D01*
X010762Y015004D01*
X010262Y015004D01*
X010012Y015254D01*
X009762Y015004D01*
X009262Y015004D01*
X009012Y015254D01*
X008762Y015004D01*
X008262Y015004D01*
X008012Y015254D01*
X007762Y015004D01*
X007262Y015004D01*
X007012Y015254D01*
X006762Y015004D01*
X006262Y015004D01*
X006012Y015254D01*
X005762Y015004D01*
X005262Y015004D01*
X005012Y015254D01*
X004762Y015004D01*
X004262Y015004D01*
X004012Y015254D01*
X003762Y015004D01*
X003262Y015004D01*
X003012Y015254D01*
X002762Y015004D01*
X002261Y014794D02*
X002261Y014514D01*
X001981Y014794D01*
X001981Y014514D01*
X002051Y014444D01*
X002191Y014444D01*
X002261Y014514D01*
X002261Y014794D02*
X002191Y014864D01*
X002051Y014864D01*
X001981Y014794D01*
X007801Y017194D02*
X007801Y017614D01*
X008011Y017404D01*
X007731Y017404D01*
X008192Y017614D02*
X008332Y017614D01*
X008262Y017614D02*
X008262Y017264D01*
X008332Y017194D01*
X008402Y017194D01*
X008472Y017264D01*
X011392Y017144D02*
X011672Y017144D01*
X011532Y017144D02*
X011532Y017564D01*
X011672Y017424D01*
X015012Y016754D02*
X015012Y015254D01*
X015262Y015004D01*
X015762Y015004D01*
X016012Y015254D01*
X016262Y015004D01*
X016762Y015004D01*
X017012Y015254D01*
X017262Y015004D01*
X017762Y015004D01*
X018012Y015254D01*
X018262Y015004D01*
X018762Y015004D01*
X019012Y015254D01*
X019262Y015004D01*
X019762Y015004D01*
X020012Y015254D01*
X020262Y015004D01*
X020762Y015004D01*
X021012Y015254D01*
X021262Y015004D01*
X021762Y015004D01*
X022012Y015254D01*
X022012Y016754D01*
X021762Y017004D01*
X021262Y017004D01*
X021012Y016754D01*
X020762Y017004D01*
X020262Y017004D01*
X020012Y016754D01*
X019762Y017004D01*
X019262Y017004D01*
X019012Y016754D01*
X018762Y017004D01*
X018262Y017004D01*
X018012Y016754D01*
X017762Y017004D01*
X017262Y017004D01*
X017012Y016754D01*
X016762Y017004D01*
X016262Y017004D01*
X016012Y016754D01*
X015762Y017004D01*
X015262Y017004D01*
X015012Y016754D01*
X015251Y014864D02*
X015461Y014654D01*
X015181Y014654D01*
X015251Y014444D02*
X015251Y014864D01*
X015782Y014864D02*
X015782Y014444D01*
X015922Y014444D02*
X015642Y014444D01*
X015922Y014724D02*
X015782Y014864D01*
X018731Y017194D02*
X019011Y017194D01*
X018731Y017474D01*
X018731Y017544D01*
X018801Y017614D01*
X018941Y017614D01*
X019011Y017544D01*
X019192Y017614D02*
X019332Y017614D01*
X019262Y017614D02*
X019262Y017264D01*
X019332Y017194D01*
X019402Y017194D01*
X019472Y017264D01*
X021392Y017144D02*
X021672Y017144D01*
X021532Y017144D02*
X021532Y017564D01*
X021672Y017424D01*
X021532Y004564D02*
X021532Y004144D01*
X021672Y004144D02*
X021392Y004144D01*
X021672Y004424D02*
X021532Y004564D01*
X019472Y004264D02*
X019402Y004194D01*
X019332Y004194D01*
X019262Y004264D01*
X019262Y004614D01*
X019332Y004614D02*
X019192Y004614D01*
X019011Y004404D02*
X018801Y004404D01*
X018731Y004334D01*
X018731Y004264D01*
X018801Y004194D01*
X018941Y004194D01*
X019011Y004264D01*
X019011Y004404D01*
X018871Y004544D01*
X018731Y004614D01*
M02*
