G75*
G70*
%OFA0B0*%
%FSLAX24Y24*%
%IPPOS*%
%LPD*%
%AMOC8*
5,1,8,0,0,1.08239X$1,22.5*
%
%ADD10R,0.0454X0.0493*%
%ADD11R,0.0611X0.0769*%
%ADD12R,0.0808X0.0611*%
%ADD13R,0.0651X0.0375*%
%ADD14R,0.0493X0.0454*%
%ADD15R,0.0860X0.0320*%
%ADD16C,0.0660*%
%ADD17R,0.0926X0.0847*%
%ADD18C,0.0910*%
D10*
X008077Y005304D03*
X008746Y005304D03*
X014712Y013169D03*
X014712Y013839D03*
D11*
X007974Y011177D03*
X007974Y008953D03*
D12*
X002797Y011827D03*
X002403Y006650D03*
D13*
X003919Y008484D03*
X004077Y008917D03*
X003919Y009350D03*
X003840Y009783D03*
X003919Y010217D03*
X003840Y010650D03*
X003919Y011083D03*
X003919Y011516D03*
D14*
X004677Y013504D03*
X005346Y013504D03*
X010677Y011504D03*
X011346Y011504D03*
X013012Y006339D03*
X013012Y005669D03*
X020012Y005339D03*
X020012Y004669D03*
D15*
X012722Y007254D03*
X012722Y007754D03*
X012722Y008254D03*
X012722Y008754D03*
X012722Y009254D03*
X012722Y009754D03*
X012722Y010254D03*
X012722Y010754D03*
X009302Y010754D03*
X009302Y010254D03*
X009302Y009754D03*
X009302Y009254D03*
X009302Y008754D03*
X009302Y008254D03*
X009302Y007754D03*
X009302Y007254D03*
D16*
X002512Y002504D03*
X003512Y002504D03*
X004512Y002504D03*
X005512Y002504D03*
X006512Y002504D03*
X007512Y002504D03*
X008512Y002504D03*
X009512Y002504D03*
X010512Y002504D03*
X011512Y002504D03*
X012512Y002504D03*
X013512Y002504D03*
X014512Y002504D03*
X015512Y002504D03*
X016512Y002504D03*
X017512Y002504D03*
X018512Y002504D03*
X019512Y002504D03*
X020512Y002504D03*
X021512Y002504D03*
X021512Y003504D03*
X020512Y003504D03*
X019512Y003504D03*
X018512Y003504D03*
X017512Y003504D03*
X016512Y003504D03*
X015512Y003504D03*
X014512Y003504D03*
X013512Y003504D03*
X012512Y003504D03*
X011512Y003504D03*
X010512Y003504D03*
X009512Y003504D03*
X008512Y003504D03*
X007512Y003504D03*
X006512Y003504D03*
X005512Y003504D03*
X004512Y003504D03*
X003512Y003504D03*
X002512Y003504D03*
X009512Y006004D03*
X010512Y006004D03*
X011512Y006004D03*
X011512Y015504D03*
X010512Y015504D03*
X009512Y015504D03*
X008512Y015504D03*
X007512Y015504D03*
X006512Y015504D03*
X006512Y016504D03*
X007512Y016504D03*
X008512Y016504D03*
X009512Y016504D03*
X010512Y016504D03*
X011512Y016504D03*
X015512Y016504D03*
X016512Y016504D03*
X017512Y016504D03*
X018512Y016504D03*
X019512Y016504D03*
X020512Y016504D03*
X021512Y016504D03*
X021512Y015504D03*
X020512Y015504D03*
X019512Y015504D03*
X018512Y015504D03*
X017512Y015504D03*
X016512Y015504D03*
X015512Y015504D03*
X005512Y015504D03*
X004512Y015504D03*
X003512Y015504D03*
X002512Y015504D03*
X002512Y016504D03*
X003512Y016504D03*
X004512Y016504D03*
X005512Y016504D03*
D17*
X013512Y014094D03*
X013512Y012913D03*
D18*
X017512Y009504D03*
M02*
