G75*
G70*
%OFA0B0*%
%FSLAX24Y24*%
%IPPOS*%
%LPD*%
%AMOC8*
5,1,8,0,0,1.08239X$1,22.5*
%
%ADD10C,0.0660*%
%ADD11C,0.0910*%
D10*
X002512Y002504D03*
X003512Y002504D03*
X004512Y002504D03*
X005512Y002504D03*
X006512Y002504D03*
X007512Y002504D03*
X008512Y002504D03*
X009512Y002504D03*
X010512Y002504D03*
X011512Y002504D03*
X012512Y002504D03*
X013512Y002504D03*
X014512Y002504D03*
X015512Y002504D03*
X016512Y002504D03*
X017512Y002504D03*
X018512Y002504D03*
X019512Y002504D03*
X020512Y002504D03*
X021512Y002504D03*
X021512Y003504D03*
X020512Y003504D03*
X019512Y003504D03*
X018512Y003504D03*
X017512Y003504D03*
X016512Y003504D03*
X015512Y003504D03*
X014512Y003504D03*
X013512Y003504D03*
X012512Y003504D03*
X011512Y003504D03*
X010512Y003504D03*
X009512Y003504D03*
X008512Y003504D03*
X007512Y003504D03*
X006512Y003504D03*
X005512Y003504D03*
X004512Y003504D03*
X003512Y003504D03*
X002512Y003504D03*
X009512Y006004D03*
X010512Y006004D03*
X011512Y006004D03*
X011512Y015504D03*
X010512Y015504D03*
X009512Y015504D03*
X008512Y015504D03*
X007512Y015504D03*
X006512Y015504D03*
X006512Y016504D03*
X007512Y016504D03*
X008512Y016504D03*
X009512Y016504D03*
X010512Y016504D03*
X011512Y016504D03*
X015512Y016504D03*
X016512Y016504D03*
X017512Y016504D03*
X018512Y016504D03*
X019512Y016504D03*
X020512Y016504D03*
X021512Y016504D03*
X021512Y015504D03*
X020512Y015504D03*
X019512Y015504D03*
X018512Y015504D03*
X017512Y015504D03*
X016512Y015504D03*
X015512Y015504D03*
X005512Y015504D03*
X004512Y015504D03*
X003512Y015504D03*
X002512Y015504D03*
X002512Y016504D03*
X003512Y016504D03*
X004512Y016504D03*
X005512Y016504D03*
D11*
X017512Y009504D03*
M02*
