<?xml version="1.0" encoding="UTF-8" standalone="no"?>
<!-- Created with Inkscape (http://www.inkscape.org/) -->
<svg
   xmlns:dc="http://purl.org/dc/elements/1.1/"
   xmlns:cc="http://creativecommons.org/ns#"
   xmlns:rdf="http://www.w3.org/1999/02/22-rdf-syntax-ns#"
   xmlns:svg="http://www.w3.org/2000/svg"
   xmlns="http://www.w3.org/2000/svg"
   xmlns:sodipodi="http://sodipodi.sourceforge.net/DTD/sodipodi-0.dtd"
   xmlns:inkscape="http://www.inkscape.org/namespaces/inkscape"
   width="297mm"
   height="210mm"
   id="svg3183"
   sodipodi:version="0.32"
   inkscape:version="0.46"
   sodipodi:docname="spacewirelight.svg"
   inkscape:output_extension="org.inkscape.output.svg.inkscape">
  <defs
     id="defs3185">
    <inkscape:path-effect
       effect="bend_path"
       id="path-effect2434"
       bendpath="M 275.816,267.753 L 567.398,267.753 "
       prop_scale="1" />
    <inkscape:perspective
       sodipodi:type="inkscape:persp3d"
       inkscape:vp_x="0 : 372.04724 : 1"
       inkscape:vp_y="0 : 1000 : 0"
       inkscape:vp_z="1052.3622 : 372.04724 : 1"
       inkscape:persp3d-origin="526.18109 : 248.03149 : 1"
       id="perspective3192" />
  </defs>
  <sodipodi:namedview
     inkscape:document-units="mm"
     pagecolor="#ffffff"
     bordercolor="#666666"
     borderopacity="1.0"
     inkscape:pageopacity="0.0"
     inkscape:pageshadow="2"
     inkscape:zoom="1"
     inkscape:cx="502.75264"
     inkscape:cy="503.46319"
     inkscape:current-layer="layer1"
     id="namedview3187"
     showgrid="true"
     inkscape:window-width="1048"
     inkscape:window-height="812"
     inkscape:window-x="56"
     inkscape:window-y="-12">
    <inkscape:grid
       type="xygrid"
       id="grid3194" />
  </sodipodi:namedview>
  <metadata
     id="metadata3189">
    <rdf:RDF>
      <cc:Work
         rdf:about="">
        <dc:format>image/svg+xml</dc:format>
        <dc:type
           rdf:resource="http://purl.org/dc/dcmitype/StillImage" />
      </cc:Work>
    </rdf:RDF>
  </metadata>
  <g
     inkscape:label="Layer 1"
     inkscape:groupmode="layer"
     id="layer1">
    <path
       style="fill:none;fill-opacity:0.75000000000000000;fill-rule:evenodd;stroke:#000000;stroke-width:5.31496063;stroke-linecap:butt;stroke-linejoin:miter;stroke-opacity:1;stroke-miterlimit:4;stroke-dasharray:none"
       d="M 171,95.094482 C 171.22753,113.61598 171.06911,143.95626 161,164.09448 C 153.16578,179.76292 153.40127,185.09448 170,185.09448 C 188.71109,185.09448 208.27989,192.55046 226,196.09448 C 240.86408,199.0673 242,196.89087 242,180.09448 C 242,169.355 244.03473,155.00767 248,145.09448 C 251.62098,136.04203 251.15807,124.30414 253,115.09448 C 254.32688,108.46007 254.16249,102.32698 248,101.09448 C 237.81794,99.058069 228.49175,98.094482 218,98.094482 C 209.90899,98.094482 203.23342,95.094482 195,95.094482 C 188.66667,95.094482 182.33333,95.094482 176,95.094482 C 174.33333,95.094482 172.66667,95.094482 171,95.094482 z"
       id="path3711" />
    <path
       style="fill:none;fill-opacity:0.75000000000000000;fill-rule:evenodd;stroke:#000000;stroke-width:5.31496063;stroke-linecap:butt;stroke-linejoin:miter;stroke-opacity:1;stroke-miterlimit:4;stroke-dasharray:none"
       d="M 246,149.09448 C 239.66667,149.09448 258.66667,149.09448 265,149.09448 C 275.66667,149.09448 286.33333,149.09448 297,149.09448"
       id="path3713" />
    <path
       style="fill:none;fill-opacity:0.75000000000000000;fill-rule:evenodd;stroke:#000000;stroke-width:5.31496063;stroke-linecap:butt;stroke-linejoin:miter;stroke-opacity:1;stroke-miterlimit:4;stroke-dasharray:none"
       d="M 298,108.09448 C 300.18848,108.09448 300,132.53329 300,138.09448 C 300,143.05727 298.11224,148.64553 297,153.09448 C 295.46467,159.23582 295,164.38576 295,171.09448 C 295,177.18001 295.36435,183.63709 294,189.09448 C 291.05246,200.88466 303.74076,197.09448 312,197.09448 C 330.01858,197.09448 346.95769,208.09448 365,208.09448 C 379.50206,208.09448 396.42022,205.69954 410,209.09448 C 424.02316,212.60027 421,205.99993 421,194.09448 C 421,180.26758 419,166.51192 419,153.09448 C 419,144.14676 418.94878,134.29938 421,126.09448 C 423.57826,115.78145 417.21024,117.09448 409,117.09448 C 392.64705,117.09448 376.38541,115.94084 361,112.09448 C 352.846,110.05598 344.35634,110.09448 336,110.09448 C 330.26279,110.09448 323.9906,109.09448 318,109.09448 C 311.25211,109.09448 304.6311,109.4207 298,108.09448 z"
       id="path3715" />
    <path
       style="fill:none;fill-opacity:0.75000000000000000;fill-rule:evenodd;stroke:#000000;stroke-width:5.31496063;stroke-linecap:butt;stroke-linejoin:miter;stroke-opacity:1;stroke-miterlimit:4;stroke-dasharray:none"
       d="M 168,137.09448 C 163.42775,137.09448 153.2539,135.54526 146,134.09448"
       id="path3717" />
    <path
       style="fill:none;fill-opacity:0.75000000000000000;fill-rule:evenodd;stroke:#000000;stroke-width:5.31496063;stroke-linecap:butt;stroke-linejoin:miter;stroke-opacity:1;stroke-miterlimit:4;stroke-dasharray:none"
       d="M 149,98.094482 C 147.35426,98.094482 146.98231,111.18292 146,116.09448 C 145.0304,120.9425 146,127.15267 146,132.09448 C 146,137.09448 146,142.09448 146,147.09448 C 146,153.54301 144,160.29443 144,167.09448 C 144,176.74278 138.24159,172.09448 130,172.09448 C 121.14966,172.09448 112.68652,169.09448 104,169.09448 C 93.74113,169.09448 82.924949,166.74864 73,165.09448 C 64.325406,163.64872 57.124438,163.09448 48,163.09448 C 35.676932,163.09448 38,158.66196 38,148.09448 C 38,139.70707 39,131.81319 39,123.09448 C 39,116.01974 40.609444,107.04726 42,100.09448 C 42.913087,95.529046 44.137994,89.542508 45,86.094482 C 45.337366,84.745017 69.349086,88.5643 72,89.094482 C 79.875393,90.669561 88.780446,91.094482 97,91.094482 C 104.6952,91.094482 113.60151,92.614784 121,94.094482 C 125.93784,95.082049 130.73641,95.094482 136,95.094482 C 138.86573,95.094482 145.38618,96.648953 149,98.094482 z"
       id="path3719" />
    <path
       style="fill:none;fill-opacity:0.75;fill-rule:evenodd;stroke:#000000;stroke-width:5.31496048;stroke-linecap:butt;stroke-linejoin:miter;stroke-miterlimit:4;stroke-dasharray:none;stroke-opacity:1"
       d="M 764,110.09448 C 764,113.80945 764,124.21105 764,131.09448 C 764,142.74755 762,153.66289 762,165.09448 C 762,174.36164 762.78048,184.1921 761,193.09448 C 759.06215,202.78374 757.44008,213.33417 755,223.09448 C 754.66609,224.43014 770.05554,224.09448 771,224.09448 C 777,224.09448 783,224.09448 789,224.09448 C 798.33333,224.09448 807.66667,224.09448 817,224.09448 C 822.33333,224.09448 827.66667,224.09448 833,224.09448 C 833.06861,224.09448 831.90978,203.45536 835,191.09448 C 837.83591,179.75082 833.62724,163.60342 831,153.09448 C 830.33333,150.42782 829.66667,147.76115 829,145.09448 C 827.49413,139.07102 828,131.33129 828,125.09448 C 828,120.15553 826.20181,113.49811 825,111.09448 C 823.49285,108.08019 803.85193,110.09448 800,110.09448 C 793.66667,110.09448 787.33333,110.09448 781,110.09448 C 775.33333,110.09448 769.66667,110.09448 764,110.09448 z"
       id="path3721" />
    <path
       style="fill:none;fill-opacity:0.75;fill-rule:evenodd;stroke:#000000;stroke-width:3.54330707;stroke-linecap:butt;stroke-linejoin:miter;stroke-miterlimit:4;stroke-dasharray:none;stroke-opacity:1"
       d="M 751,93.094482 C 753.30628,92.842042 760.70456,88.821742 765,83.094482 C 767.6153,79.607422 773.78074,76.204112 778,74.094482 C 783.10728,71.540842 786.81928,69.480022 790,67.094484 C 793.92266,64.152492 798.89057,69.985052 802,73.094484 C 805.93958,77.034062 811.04576,81.378802 816,85.094482 C 820.19842,88.243302 825.31049,89.327352 829,92.094482 C 830.50098,93.220212 831.85466,92.665412 834,93.094482"
       id="path3731" />
    <path
       style="fill:none;fill-opacity:0.75;fill-rule:evenodd;stroke:#000000;stroke-width:5.31496048;stroke-linecap:butt;stroke-linejoin:miter;stroke-miterlimit:4;stroke-dasharray:none;stroke-opacity:1"
       d="M 793,224.09448 C 794.82915,227.33427 792,236.80843 792,243.09448 C 792,247.11576 791.87567,250.59182 791,254.09448"
       id="path3735" />
    <path
       style="fill:none;fill-opacity:0.75;fill-rule:evenodd;stroke:#000000;stroke-width:5.31496048;stroke-linecap:butt;stroke-linejoin:miter;stroke-miterlimit:4;stroke-dasharray:none;stroke-opacity:1"
       d="M 750,258.09448 C 750,258.18262 766.03911,256.09448 770,256.09448 C 775.91769,256.09448 782.70881,255.09448 789,255.09448 C 795.67873,255.09448 801.49024,253.09448 808,253.09448 C 815.77107,253.09448 824.78762,251.09448 833,251.09448 C 837.70574,251.09448 834,269.24917 834,275.09448 C 834,285.09448 834,295.09448 834,305.09448 C 834,316.77563 835,329.14586 835,341.09448 C 835,355.32845 838.93411,356.09448 824,356.09448 C 809.00014,356.09448 794.84346,354.09448 780,354.09448 C 771.78329,354.09448 762.51648,353.21536 755,355.09448 C 749.70683,356.41777 752,342.01351 752,338.09448 C 752,329.87755 754,321.48975 754,313.09448 C 754,305.76115 754,298.42782 754,291.09448 C 754,285.2098 755,278.37309 755,272.09448 C 755,267.48126 751.01347,263.16182 750,258.09448 z"
       id="path3737" />
    <path
       style="fill:none;fill-opacity:0.75000000000000000;fill-rule:evenodd;stroke:#000000;stroke-width:2.83464567;stroke-linecap:butt;stroke-linejoin:miter;stroke-opacity:1;stroke-miterlimit:4;stroke-dasharray:none"
       d="M 57,96.094482 C 57,95.611362 57.675372,108.39299 55,119.09448 C 53.68411,124.35804 54,129.62942 54,135.09448 C 54,138.32573 51.92613,146.38996 51,150.09448 C 50.757464,151.06462 51,152.09448 51,153.09448"
       id="path3739" />
    <path
       style="fill:none;fill-opacity:0.75000000000000000;fill-rule:evenodd;stroke:#000000;stroke-width:2.83464567;stroke-linecap:butt;stroke-linejoin:miter;stroke-opacity:1;stroke-miterlimit:4;stroke-dasharray:none"
       d="M 83,99.094482 C 82.198249,102.30149 83,113.659 83,120.09448 C 83,126.09034 82.431346,134.3691 81,140.09448 C 79.755435,145.07274 80.123225,149.60158 79,154.09448 C 78.885668,154.55181 78.333333,154.76115 78,155.09448"
       id="path3741" />
    <path
       style="fill:none;fill-opacity:0.75000000000000000;fill-rule:evenodd;stroke:#000000;stroke-width:2.83464567;stroke-linecap:butt;stroke-linejoin:miter;stroke-opacity:1;stroke-miterlimit:4;stroke-dasharray:none"
       d="M 118,101.09448 C 117.31608,103.83016 119,117.80047 119,124.09448 C 119,130.09448 119,136.09448 119,142.09448 C 119,147.88759 118,152.36673 118,158.09448 C 118,158.76115 118,159.42782 118,160.09448"
       id="path3743" />
    <path
       style="fill:none;fill-opacity:0.75000000000000000;fill-rule:evenodd;stroke:#000000;stroke-width:2.83464567;stroke-linecap:butt;stroke-linejoin:miter;stroke-opacity:1;stroke-miterlimit:4;stroke-dasharray:none"
       d="M 97,98.094482 C 97.559487,98.234354 98,113.89229 98,118.09448 C 98,123.91784 99,128.34627 99,134.09448 C 99,139.42782 99,144.76115 99,150.09448 C 99,153.76 98.072935,154.94861 97,157.09448"
       id="path3747" />
    <path
       style="fill:none;fill-opacity:0.75000000000000000;fill-rule:evenodd;stroke:#000000;stroke-width:2.83464567;stroke-linecap:butt;stroke-linejoin:miter;stroke-opacity:1;stroke-miterlimit:4;stroke-dasharray:none"
       d="M 311,118.09448 C 311,120.2251 312.45682,136.37856 314,144.09448 C 315.16195,149.90424 314,157.15406 314,163.09448 C 314,168.50301 312,173.39733 312,179.09448 C 312,181.34577 308.59503,185.90442 308,187.09448"
       id="path3749" />
    <path
       style="fill:none;fill-opacity:0.75000000000000000;fill-rule:evenodd;stroke:#000000;stroke-width:2.83464567;stroke-linecap:butt;stroke-linejoin:miter;stroke-opacity:1;stroke-miterlimit:4;stroke-dasharray:none"
       d="M 333,116.09448 C 333,122.29401 336,134.09594 336,143.09448 C 336,151.09448 336,159.09448 336,167.09448 C 336,172.16233 335.1868,177.34728 334,182.09448 C 332.86246,186.64464 330.48019,190.13411 329,193.09448"
       id="path3751" />
    <path
       style="fill:none;fill-opacity:0.75000000000000000;fill-rule:evenodd;stroke:#000000;stroke-width:2.83464567;stroke-linecap:butt;stroke-linejoin:miter;stroke-opacity:1;stroke-miterlimit:4;stroke-dasharray:none"
       d="M 357,120.09448 C 355.60006,125.69422 356.93973,139.85341 359,148.09448 C 360.82642,155.40017 360,164.39551 360,172.09448 C 360,177.76115 360,183.42782 360,189.09448 C 360,193.5293 359,194.67965 359,199.09448"
       id="path3753" />
    <path
       style="fill:none;fill-opacity:0.75000000000000000;fill-rule:evenodd;stroke:#000000;stroke-width:2.83464567;stroke-linecap:butt;stroke-linejoin:miter;stroke-opacity:1;stroke-miterlimit:4;stroke-dasharray:none"
       d="M 381,122.09448 C 381,130.19618 386,146.28457 386,158.09448 C 386,164.91526 385.53871,171.93966 384,178.09448 C 382.84495,182.71467 380.9255,188.39247 380,192.09448 C 379.58446,193.75663 379.13788,197.54296 379,198.09448"
       id="path3755" />
    <path
       style="fill:none;fill-opacity:0.75000000000000000;fill-rule:evenodd;stroke:#000000;stroke-width:2.83464567;stroke-linecap:butt;stroke-linejoin:miter;stroke-opacity:1;stroke-miterlimit:4;stroke-dasharray:none"
       d="M 404,122.09448 C 402.41207,128.44621 405,142.65774 405,152.09448 C 405,158.09448 405,164.09448 405,170.09448 C 405,175.76115 405,181.42782 405,187.09448 C 405,192.48691 406.1914,196.32887 405,201.09448"
       id="path3757" />
    <path
       style="fill:none;fill-opacity:0.75000000000000000;fill-rule:evenodd;stroke:#000000;stroke-width:2.83464567;stroke-linecap:butt;stroke-linejoin:miter;stroke-opacity:1;stroke-miterlimit:4;stroke-dasharray:none"
       d="M 305,132.09448 C 304.924,132.3985 321.35386,134.09448 326,134.09448 C 333.33333,134.09448 340.66667,134.09448 348,134.09448 C 354.33333,134.09448 360.66667,134.09448 367,134.09448 C 372.40251,134.09448 379.86849,135.06818 385,136.09448 C 390.12744,137.11997 396.71873,136.09448 402,136.09448 C 407,136.09448 412,136.09448 417,136.09448"
       id="path3759" />
    <path
       style="fill:none;fill-opacity:0.75000000000000000;fill-rule:evenodd;stroke:#000000;stroke-width:2.83464567;stroke-linecap:butt;stroke-linejoin:miter;stroke-opacity:1;stroke-miterlimit:4;stroke-dasharray:none"
       d="M 301,166.09448 C 307.7482,166.09448 321.65081,168.09448 332,168.09448 C 339.55501,168.09448 348.55507,168.85366 356,170.09448 C 362.01103,171.09632 370.47122,170.22668 375,169.09448 C 379.62447,167.93837 386.2414,169.09448 391,169.09448 C 396.33333,169.09448 401.66667,169.09448 407,169.09448 C 410.33333,169.09448 413.66667,169.09448 417,169.09448"
       id="path3761" />
    <path
       style="fill:none;fill-opacity:0.75000000000000000;fill-rule:evenodd;stroke:#000000;stroke-width:2.83464567;stroke-linecap:butt;stroke-linejoin:miter;stroke-opacity:1;stroke-miterlimit:4;stroke-dasharray:none"
       d="M 44,110.09448 C 47.487841,110.09448 57.455422,110.09448 64,110.09448 C 69.779138,110.09448 74.384888,111.09448 80,111.09448 C 86.522807,111.09448 92.812472,111.85698 99,113.09448 C 104.64015,114.22251 109.67807,113.764 115,115.09448 C 118.90776,116.07142 124.58251,116.24011 128,117.09448 C 132.57625,118.23854 137.59842,116.99409 142,118.09448"
       id="path3763" />
    <path
       style="fill:none;fill-opacity:0.75000000000000000;fill-rule:evenodd;stroke:#000000;stroke-width:2.83464567;stroke-linecap:butt;stroke-linejoin:miter;stroke-opacity:1;stroke-miterlimit:4;stroke-dasharray:none"
       d="M 42,133.09448 C 46.238118,134.15401 60.615858,135.99845 69,138.09448 C 74.972233,139.58754 82.010282,139.89654 88,141.09448 C 93.151331,142.12475 99.71594,141.09448 105,141.09448 C 110.32679,141.09448 116.97201,142.08888 122,143.09448 C 127.15846,144.12617 130.70772,144.09448 136,144.09448 C 137.74178,144.09448 140.1578,144.63393 142,145.09448"
       id="path3765" />
    <path
       style="fill:none;fill-opacity:0.75;fill-rule:evenodd;stroke:#000000;stroke-width:2.83464575;stroke-linecap:butt;stroke-linejoin:miter;stroke-miterlimit:4;stroke-dasharray:none;stroke-opacity:1"
       d="M 769,263.09448 C 776.03167,263.09448 771,277.06281 771,284.09448 C 771,291.1226 772,297.01938 772,304.09448 C 772,309.92505 772.10957,315.54663 771,321.09448 C 770.0304,325.9425 771,332.15267 771,337.09448 C 771,340.76115 771,344.42782 771,348.09448"
       id="path3767" />
    <path
       style="fill:none;fill-opacity:0.75;fill-rule:evenodd;stroke:#000000;stroke-width:2.83464575;stroke-linecap:butt;stroke-linejoin:miter;stroke-miterlimit:4;stroke-dasharray:none;stroke-opacity:1"
       d="M 795,263.09448 C 795,268.64918 798,280.9582 798,290.09448 C 798,297.6247 799,304.83371 799,312.09448 C 799,317.76115 799,323.42782 799,329.09448 C 799,334.09448 799,339.09448 799,344.09448 C 799,345.09448 799,346.09448 799,347.09448"
       id="path3769" />
    <path
       style="fill:none;fill-opacity:0.75;fill-rule:evenodd;stroke:#000000;stroke-width:2.83464575;stroke-linecap:butt;stroke-linejoin:miter;stroke-miterlimit:4;stroke-dasharray:none;stroke-opacity:1"
       d="M 815,259.09448 C 815,262.85255 815.39846,276.68833 817,283.09448 C 818.59385,289.46987 816.75092,296.84911 818,303.09448 C 819.16039,308.89641 818,316.14637 818,322.09448 C 818,327.09448 818,332.09448 818,337.09448 C 818,341.42782 818,345.76115 818,350.09448"
       id="path3771" />
    <path
       style="fill:none;fill-opacity:0.75;fill-rule:evenodd;stroke:#000000;stroke-width:2.83464575;stroke-linecap:butt;stroke-linejoin:miter;stroke-miterlimit:4;stroke-dasharray:none;stroke-opacity:1"
       d="M 759,275.09448 C 759,282.43539 773.80165,274.65481 781,276.09448 C 788.83206,277.66089 797.97574,277.09448 806,277.09448 C 811,277.09448 816,277.09448 821,277.09448 C 823.33333,277.09448 825.66667,277.09448 828,277.09448"
       id="path3773" />
    <path
       style="fill:none;fill-opacity:0.75;fill-rule:evenodd;stroke:#000000;stroke-width:2.83464575;stroke-linecap:butt;stroke-linejoin:miter;stroke-miterlimit:4;stroke-dasharray:none;stroke-opacity:1"
       d="M 758,301.09448 C 763.4233,301.09448 775.31185,300.09448 784,300.09448 C 793,300.09448 802,300.09448 811,300.09448 C 815.60424,300.09448 820.32404,299.09448 826,299.09448 C 827.37437,299.09448 828.66667,298.42782 830,298.09448"
       id="path3775" />
    <path
       style="fill:none;fill-opacity:0.75;fill-rule:evenodd;stroke:#000000;stroke-width:2.83464575;stroke-linecap:butt;stroke-linejoin:miter;stroke-miterlimit:4;stroke-dasharray:none;stroke-opacity:1"
       d="M 754,325.09448 C 759.94633,325.09448 772.89763,325.09448 782,325.09448 C 790.28946,325.09448 798.64552,323.09448 807,323.09448 C 812.60037,323.09448 816.34452,321.09448 822,321.09448 C 824.74874,321.09448 827.33333,319.76115 830,319.09448"
       id="path3777" />
    <path
       style="fill:none;fill-opacity:0.75;fill-rule:evenodd;stroke:#000000;stroke-width:2.83464575;stroke-linecap:butt;stroke-linejoin:miter;stroke-miterlimit:4;stroke-dasharray:none;stroke-opacity:1"
       d="M 752,344.09448 C 756.40131,344.09448 767.31677,343.09448 775,343.09448 C 782.27217,343.09448 791.06955,341.82709 798,340.09448 C 804.29568,338.52056 808.62106,338.68922 815,337.09448 C 820.32099,335.76424 825.65555,336.16337 831,335.09448 C 846,332.09448 826.66667,337.26115 833,334.09448"
       id="path3779" />
    <path
       sodipodi:type="arc"
       style="fill:#000000;fill-opacity:1;stroke:#000000;stroke-width:1.77165353;stroke-miterlimit:4;stroke-dasharray:none;stroke-opacity:1"
       id="path3783"
       sodipodi:cx="686.5"
       sodipodi:cy="87.594482"
       sodipodi:rx="4.5"
       sodipodi:ry="4.5"
       d="M 691,87.594482 A 4.5,4.5 0 1 1 682,87.594482 A 4.5,4.5 0 1 1 691,87.594482 z"
       transform="matrix(1.6957695,0,0,1.183393,-371.77672,-35.564212)" />
    <text
       xml:space="preserve"
       style="font-size:20px;font-style:normal;font-weight:normal;line-height:125%;fill:#000000;fill-opacity:1;stroke:none;stroke-width:1px;stroke-linecap:butt;stroke-linejoin:miter;stroke-opacity:1;font-family:Bitstream Vera Sans Mono"
       x="262"
       y="276.09448"
       id="text2436"
       sodipodi:linespacing="125%"><tspan
         sodipodi:role="line"
         id="tspan2438"
         x="262"
         y="276.09448"
         style="font-size:56px;font-style:normal;font-variant:normal;font-weight:normal;font-stretch:normal;text-align:start;line-height:125%;writing-mode:lr-tb;text-anchor:start;font-family:Liberation Sans;-inkscape-font-specification:Liberation Sans">SpaceWire Light</tspan></text>
    <path
       style="fill:none;fill-opacity:0.75000000000000000;fill-rule:evenodd;stroke:#000000;stroke-width:3.54330709;stroke-linecap:butt;stroke-linejoin:miter;stroke-opacity:1;stroke-miterlimit:4;stroke-dasharray:none"
       d="M 187,185.09448 C 187.54107,188.23159 184.91216,195.44585 184,199.09448 C 183.50075,201.09147 176.18912,207.50899 175,209.09448 C 172.08326,212.98347 167.02426,214.08235 163,216.09448 C 158.1306,218.52918 154.21363,219.79107 149,221.09448 C 144.02809,222.33746 138.81174,222.29742 134,221.09448 C 128.48392,219.71546 139.67307,212.17621 140,212.09448 C 146.36746,210.50262 148.79613,213.27901 150,218.09448 C 151.45262,223.90496 147.0632,227.84167 146,232.09448 C 144.78111,236.97006 145,241.91515 145,247.09448 C 145,251.11727 157.60992,251.61647 160,252.09448 C 166.53182,253.40085 169.65969,249.43479 173,246.09448 C 177.72732,241.36717 177.85268,238.2418 182,234.09448 C 185.87265,230.22183 187.80982,230.39203 193,229.09448 C 197.62885,227.93727 204.87685,229.0637 209,230.09448 C 214.41441,231.44809 214,237.70593 214,243.09448 C 214,245.36079 208.73768,252.14377 208,255.09448 C 206.44281,261.32325 215.82604,261.25969 220,262.09448 C 224.87379,263.06924 229.87758,260.09448 235,260.09448 C 240.03842,260.09448 244.86085,258.09448 250,258.09448 C 255.78171,258.09448 260.87583,257.97031 265,262.09448 C 267.42373,264.51821 267.16844,264.76825 268,268.09448"
       id="path2448" />
    <path
       style="fill:none;fill-opacity:0.75000000000000000;fill-rule:evenodd;stroke:#000000;stroke-width:3.54330709;stroke-linecap:butt;stroke-linejoin:miter;stroke-opacity:1;stroke-miterlimit:4;stroke-dasharray:none"
       d="M 671,274.09448 C 676.62176,273.38597 679.01642,267.06164 682,261.09448 C 684.84082,255.41283 686,249.3806 686,243.09448 C 686,236.16333 684.7888,232.67209 682,227.09448 C 679.11443,221.32333 673.47529,215.56978 669,211.09448 C 664.68962,206.78411 662.71415,202.52278 660,197.09448 C 658.08236,193.2592 659,186.8 659,182.09448 C 659,176.13818 666.73308,175.16121 671,174.09448 C 679.06777,172.07754 686.29351,173.24124 694,177.09448 C 700.77551,180.48224 698.44041,187.73438 693,189.09448 C 686.40191,190.744 684.0883,189.18278 679,184.09448 C 675.1151,180.20958 675.78575,170.9515 677,166.09448 C 679.51813,156.02196 688.00269,149.59314 697,145.09448 C 704.72677,141.2311 714.56292,144.87594 721,148.09448 C 727.41955,151.30426 733.73739,160.78143 735,167.09448 C 736.41086,174.1488 726.54405,171.98049 723,171.09448 C 718.49652,169.96861 718,157.12426 718,153.09448 C 718,147.0571 723.01404,143.34097 728,142.09448 C 733.52734,140.71265 738.79285,142.99091 743,145.09448 C 747.69871,147.44384 750.17082,150.2226 754,153.09448 C 756.87375,155.24979 756.23123,155.15229 760,156.09448"
       id="path2452" />
    <path
       style="fill:none;fill-opacity:0.75;fill-rule:evenodd;stroke:#000000;stroke-width:7.08661413;stroke-linecap:butt;stroke-linejoin:miter;stroke-miterlimit:4;stroke-dasharray:none;stroke-opacity:1"
       d="M 716,69.09448 C 719.92805,70.63228 725.04503,76.13951 730,81.09448 C 733.25209,84.34657 737.45977,86.82437 742,89.09448 C 747.14148,91.66522 752.06114,93.62505 757,96.09448 C 761.10259,98.14578 767.55354,98.98287 772,100.09448 C 776.91103,101.32224 781.98487,101.09146 787,102.09448 C 791.85686,103.06585 798.05298,102.09448 803,102.09448 C 809.66007,102.09448 815.1307,101.56181 821,100.09448 C 824.83946,99.13462 830.18725,97.04767 834,96.09448 C 837.54481,95.20828 841.8414,91.67378 845,90.09448 C 848.29973,88.44462 850.32112,84.77336 853,82.09448 C 856.30282,78.79167 857.69718,77.3973 861,74.09448 C 862.8385,72.25598 863.93509,70.2243 865,68.09448"
       id="path2416" />
  </g>
</svg>
