M48
;DRILL file {PCBnew (2011-05-25)-stable} date Sun 18 Dec 2011 08:58:56 PM CET
;FORMAT={-:-/ absolute / metric / decimal}
FMAT,2
METRIC,TZ
T1C0.521
T2C0.762
T3C0.800
T4C0.813
T5C1.016
T6C1.999
T7C3.048
%
G90
G05
M71
T1
X125.199Y-63.848
X125.199Y-65.928
X125.301Y-68.501
X125.400Y-71.973
X127.000Y-113.401
X136.700Y-71.999
X141.100Y-115.900
X141.501Y-66.799
X147.599Y-69.901
X156.901Y-104.201
X162.542Y-66.741
X169.997Y-71.455
X170.871Y-75.453
X171.143Y-73.106
X171.897Y-95.550
X172.248Y-104.828
X172.347Y-73.063
X172.712Y-60.330
X173.114Y-108.816
X173.446Y-104.851
X175.090Y-105.560
X175.638Y-60.472
X175.801Y-94.607
X176.624Y-116.954
X177.193Y-110.653
X177.655Y-64.689
X180.807Y-87.549
X182.778Y-68.969
X183.340Y-71.991
X184.216Y-61.717
X184.843Y-67.828
X185.227Y-88.900
X185.237Y-82.433
X186.693Y-72.989
X187.968Y-93.696
X188.615Y-85.969
X188.824Y-64.564
X189.514Y-96.642
X190.048Y-90.615
X192.903Y-67.803
X192.966Y-96.385
X193.053Y-78.301
X193.421Y-114.465
X193.459Y-86.543
X193.533Y-92.647
X193.812Y-79.878
X193.853Y-98.544
X193.901Y-76.109
X194.153Y-95.054
X194.163Y-108.402
X195.075Y-116.665
X196.012Y-93.581
X196.959Y-79.769
X197.015Y-89.169
X197.343Y-108.519
X199.634Y-103.472
X200.515Y-110.475
X200.614Y-86.266
X201.120Y-55.080
X202.006Y-71.184
X202.575Y-93.663
X202.651Y-115.339
X202.994Y-96.657
X204.544Y-80.165
X205.674Y-92.230
X207.185Y-82.901
X207.401Y-72.525
X208.237Y-68.809
X209.260Y-65.664
X211.003Y-82.326
X215.951Y-90.383
X216.527Y-103.411
X218.445Y-78.895
X219.334Y-66.294
X221.099Y-90.376
T2
X138.460Y-82.499
X143.540Y-82.499
T3
X127.371Y-56.231
X127.371Y-58.771
X127.371Y-89.233
X127.371Y-91.773
X129.911Y-56.231
X129.911Y-58.771
X129.911Y-89.233
X129.911Y-91.773
X132.451Y-56.231
X132.451Y-58.771
X132.451Y-89.233
X132.451Y-91.773
X134.991Y-56.231
X134.991Y-58.771
X134.991Y-89.233
X134.991Y-91.773
X137.531Y-56.231
X137.531Y-58.771
X137.531Y-89.233
X137.531Y-91.773
X140.071Y-56.231
X140.071Y-58.771
X140.071Y-89.233
X140.071Y-91.773
X142.611Y-56.231
X142.611Y-58.771
X142.611Y-89.233
X142.611Y-91.773
X145.151Y-56.231
X145.151Y-58.771
X145.151Y-89.233
X145.151Y-91.773
X147.691Y-56.231
X147.691Y-58.771
X147.691Y-89.233
X147.691Y-91.773
X150.231Y-56.231
X150.231Y-58.771
X150.231Y-89.233
X150.231Y-91.773
X152.771Y-56.231
X152.771Y-58.771
X152.771Y-89.233
X152.771Y-91.773
X155.311Y-56.231
X155.311Y-58.771
X155.311Y-89.233
X155.311Y-91.773
X157.851Y-56.231
X157.851Y-58.771
X157.851Y-89.233
X157.851Y-91.773
X160.391Y-56.231
X160.391Y-58.771
X160.391Y-89.233
X160.391Y-91.773
X162.931Y-56.231
X162.931Y-58.771
X162.931Y-89.233
X162.931Y-91.773
X165.471Y-56.231
X165.471Y-58.771
X165.471Y-89.233
X165.471Y-91.773
X168.011Y-56.231
X168.011Y-58.771
X168.011Y-89.233
X168.011Y-91.773
X170.551Y-56.231
X170.551Y-58.771
X170.551Y-89.233
X170.551Y-91.773
X173.091Y-56.231
X173.091Y-58.771
X173.091Y-89.233
X173.091Y-91.773
X175.631Y-58.771
X175.631Y-91.773
X214.429Y-68.389
X214.429Y-71.184
X214.429Y-73.851
X214.429Y-76.645
X214.429Y-79.439
X214.429Y-82.233
X214.429Y-84.900
X214.429Y-87.694
X214.429Y-90.488
X214.429Y-93.282
X214.429Y-95.949
X214.429Y-98.743
X214.429Y-101.537
X216.969Y-69.964
X216.969Y-72.504
X216.969Y-75.298
X216.969Y-78.041
X216.969Y-80.785
X216.969Y-83.579
X216.969Y-86.322
X216.969Y-89.065
X216.969Y-91.910
X216.969Y-94.602
X216.969Y-97.346
X216.969Y-100.140
T4
X117.701Y-67.231
X117.701Y-69.771
X119.700Y-67.231
X119.700Y-69.771
X130.190Y-101.689
X130.190Y-109.309
X132.730Y-101.689
X132.730Y-109.309
X135.270Y-101.689
X135.270Y-109.309
X137.810Y-101.689
X137.810Y-109.309
X175.631Y-56.231
X175.631Y-89.233
T5
X108.999Y-86.959
X108.999Y-89.499
X108.999Y-92.039
T6
X115.001Y-62.502
X115.001Y-74.501
X216.969Y-61.405
X216.969Y-108.395
T7
X109.400Y-54.399
X109.400Y-116.601
X224.099Y-54.399
X224.099Y-116.601
T0
M30
