G04 (created by PCBNEW (2011-05-25)-stable) date Sun 18 Dec 2011 08:59:02 PM CET*
G01*
G70*
G90*
%MOIN*%
G04 Gerber Fmt 3.4, Leading zero omitted, Abs format*
%FSLAX34Y34*%
G04 APERTURE LIST*
%ADD10C,0.001000*%
%ADD11C,0.015000*%
%ADD12C,0.008000*%
G04 APERTURE END LIST*
G54D10*
G54D11*
X89961Y-19685D02*
X89961Y-21063D01*
X41339Y-19685D02*
X89961Y-19685D01*
X41339Y-47638D02*
X41339Y-19685D01*
X89961Y-47638D02*
X41339Y-47638D01*
X89961Y-21063D02*
X89961Y-47638D01*
G54D10*
X49189Y-25035D02*
X49393Y-25239D01*
X49393Y-25035D02*
X49189Y-25239D01*
X49189Y-25854D02*
X49393Y-26058D01*
X49393Y-25854D02*
X49189Y-26058D01*
X49229Y-26867D02*
X49433Y-27071D01*
X49433Y-26867D02*
X49229Y-27071D01*
X49268Y-28234D02*
X49472Y-28438D01*
X49472Y-28234D02*
X49268Y-28438D01*
X49898Y-44544D02*
X50102Y-44748D01*
X50102Y-44544D02*
X49898Y-44748D01*
X53717Y-28244D02*
X53921Y-28448D01*
X53921Y-28244D02*
X53717Y-28448D01*
X55449Y-45528D02*
X55653Y-45732D01*
X55653Y-45528D02*
X55449Y-45732D01*
X55607Y-26197D02*
X55811Y-26401D01*
X55811Y-26197D02*
X55607Y-26401D01*
X58008Y-27418D02*
X58212Y-27622D01*
X58212Y-27418D02*
X58008Y-27622D01*
X61670Y-40922D02*
X61874Y-41126D01*
X61874Y-40922D02*
X61670Y-41126D01*
X63891Y-26174D02*
X64095Y-26378D01*
X64095Y-26174D02*
X63891Y-26378D01*
X66826Y-28030D02*
X67030Y-28234D01*
X67030Y-28030D02*
X66826Y-28234D01*
X67170Y-29604D02*
X67374Y-29808D01*
X67374Y-29604D02*
X67170Y-29808D01*
X67277Y-28680D02*
X67481Y-28884D01*
X67481Y-28680D02*
X67277Y-28884D01*
X67574Y-37516D02*
X67778Y-37720D01*
X67778Y-37516D02*
X67574Y-37720D01*
X67712Y-41169D02*
X67916Y-41373D01*
X67916Y-41169D02*
X67712Y-41373D01*
X67751Y-28663D02*
X67955Y-28867D01*
X67955Y-28663D02*
X67751Y-28867D01*
X67895Y-23650D02*
X68099Y-23854D01*
X68099Y-23650D02*
X67895Y-23854D01*
X68053Y-42739D02*
X68257Y-42943D01*
X68257Y-42739D02*
X68053Y-42943D01*
X68184Y-41178D02*
X68388Y-41382D01*
X68388Y-41178D02*
X68184Y-41382D01*
X68831Y-41457D02*
X69035Y-41661D01*
X69035Y-41457D02*
X68831Y-41661D01*
X69047Y-23706D02*
X69251Y-23910D01*
X69251Y-23706D02*
X69047Y-23910D01*
X69111Y-37145D02*
X69315Y-37349D01*
X69315Y-37145D02*
X69111Y-37349D01*
X69435Y-45943D02*
X69639Y-46147D01*
X69639Y-45943D02*
X69435Y-46147D01*
X69659Y-43462D02*
X69863Y-43666D01*
X69863Y-43462D02*
X69659Y-43666D01*
X69841Y-25366D02*
X70045Y-25570D01*
X70045Y-25366D02*
X69841Y-25570D01*
X71082Y-34366D02*
X71286Y-34570D01*
X71286Y-34366D02*
X71082Y-34570D01*
X71858Y-27051D02*
X72062Y-27255D01*
X72062Y-27051D02*
X71858Y-27255D01*
X72079Y-28241D02*
X72283Y-28445D01*
X72283Y-28241D02*
X72079Y-28445D01*
X72424Y-24196D02*
X72628Y-24400D01*
X72628Y-24196D02*
X72424Y-24400D01*
X72671Y-26602D02*
X72875Y-26806D01*
X72875Y-26602D02*
X72671Y-26806D01*
X72822Y-34898D02*
X73026Y-35102D01*
X73026Y-34898D02*
X72822Y-35102D01*
X72826Y-32352D02*
X73030Y-32556D01*
X73030Y-32352D02*
X72826Y-32556D01*
X73399Y-28634D02*
X73603Y-28838D01*
X73603Y-28634D02*
X73399Y-28838D01*
X73901Y-36786D02*
X74105Y-36990D01*
X74105Y-36786D02*
X73901Y-36990D01*
X74156Y-33744D02*
X74360Y-33948D01*
X74360Y-33744D02*
X74156Y-33948D01*
X74238Y-25317D02*
X74442Y-25521D01*
X74442Y-25317D02*
X74238Y-25521D01*
X74510Y-37946D02*
X74714Y-38150D01*
X74714Y-37946D02*
X74510Y-38150D01*
X74720Y-35573D02*
X74924Y-35777D01*
X74924Y-35573D02*
X74720Y-35777D01*
X75844Y-26592D02*
X76048Y-26796D01*
X76048Y-26592D02*
X75844Y-26796D01*
X75869Y-37845D02*
X76073Y-38049D01*
X76073Y-37845D02*
X75869Y-38049D01*
X75903Y-30725D02*
X76107Y-30929D01*
X76107Y-30725D02*
X75903Y-30929D01*
X76048Y-44963D02*
X76252Y-45167D01*
X76252Y-44963D02*
X76048Y-45167D01*
X76063Y-33970D02*
X76267Y-34174D01*
X76267Y-33970D02*
X76063Y-34174D01*
X76092Y-36373D02*
X76296Y-36577D01*
X76296Y-36373D02*
X76092Y-36577D01*
X76202Y-31346D02*
X76406Y-31550D01*
X76406Y-31346D02*
X76202Y-31550D01*
X76218Y-38695D02*
X76422Y-38899D01*
X76422Y-38695D02*
X76218Y-38899D01*
X76237Y-29862D02*
X76441Y-30066D01*
X76441Y-29862D02*
X76237Y-30066D01*
X76336Y-37321D02*
X76540Y-37525D01*
X76540Y-37321D02*
X76336Y-37525D01*
X76340Y-42576D02*
X76544Y-42780D01*
X76544Y-42576D02*
X76340Y-42780D01*
X76699Y-45829D02*
X76903Y-46033D01*
X76903Y-45829D02*
X76699Y-46033D01*
X77068Y-36741D02*
X77272Y-36945D01*
X77272Y-36741D02*
X77068Y-36945D01*
X77441Y-31303D02*
X77645Y-31507D01*
X77645Y-31303D02*
X77441Y-31507D01*
X77463Y-35004D02*
X77667Y-35208D01*
X77667Y-35004D02*
X77463Y-35208D01*
X77592Y-42622D02*
X77796Y-42826D01*
X77796Y-42622D02*
X77592Y-42826D01*
X78494Y-40635D02*
X78698Y-40839D01*
X78698Y-40635D02*
X78494Y-40839D01*
X78841Y-43392D02*
X79045Y-43596D01*
X79045Y-43392D02*
X78841Y-43596D01*
X78880Y-33861D02*
X79084Y-34065D01*
X79084Y-33861D02*
X78880Y-34065D01*
X79079Y-21583D02*
X79283Y-21787D01*
X79283Y-21583D02*
X79079Y-21787D01*
X79428Y-27923D02*
X79632Y-28127D01*
X79632Y-27923D02*
X79428Y-28127D01*
X79652Y-36773D02*
X79856Y-36977D01*
X79856Y-36773D02*
X79652Y-36977D01*
X79682Y-45307D02*
X79886Y-45511D01*
X79886Y-45307D02*
X79682Y-45511D01*
X79817Y-37952D02*
X80021Y-38156D01*
X80021Y-37952D02*
X79817Y-38156D01*
X80427Y-31459D02*
X80631Y-31663D01*
X80631Y-31459D02*
X80427Y-31663D01*
X80872Y-36209D02*
X81076Y-36413D01*
X81076Y-36209D02*
X80872Y-36413D01*
X81467Y-32536D02*
X81671Y-32740D01*
X81671Y-32536D02*
X81467Y-32740D01*
X81552Y-28451D02*
X81756Y-28655D01*
X81756Y-28451D02*
X81552Y-28655D01*
X81881Y-26988D02*
X82085Y-27192D01*
X82085Y-26988D02*
X81881Y-27192D01*
X82284Y-25750D02*
X82488Y-25954D01*
X82488Y-25750D02*
X82284Y-25954D01*
X82970Y-32310D02*
X83174Y-32514D01*
X83174Y-32310D02*
X82970Y-32514D01*
X84918Y-35482D02*
X85122Y-35686D01*
X85122Y-35482D02*
X84918Y-35686D01*
X85145Y-40611D02*
X85349Y-40815D01*
X85349Y-40611D02*
X85145Y-40815D01*
X85900Y-30959D02*
X86104Y-31163D01*
X86104Y-30959D02*
X85900Y-31163D01*
X86250Y-25998D02*
X86454Y-26202D01*
X86454Y-25998D02*
X86250Y-26202D01*
X86945Y-35479D02*
X87149Y-35683D01*
X87149Y-35479D02*
X86945Y-35683D01*
X54662Y-32480D02*
X54659Y-32509D01*
X54650Y-32537D01*
X54636Y-32563D01*
X54618Y-32585D01*
X54595Y-32604D01*
X54570Y-32618D01*
X54542Y-32626D01*
X54513Y-32629D01*
X54484Y-32627D01*
X54456Y-32619D01*
X54430Y-32605D01*
X54408Y-32587D01*
X54389Y-32564D01*
X54375Y-32539D01*
X54366Y-32511D01*
X54363Y-32482D01*
X54365Y-32453D01*
X54373Y-32425D01*
X54386Y-32399D01*
X54405Y-32376D01*
X54427Y-32357D01*
X54452Y-32343D01*
X54480Y-32334D01*
X54509Y-32331D01*
X54538Y-32333D01*
X54566Y-32341D01*
X54592Y-32354D01*
X54615Y-32372D01*
X54634Y-32394D01*
X54649Y-32419D01*
X54658Y-32447D01*
X54661Y-32476D01*
X54662Y-32480D01*
X56662Y-32480D02*
X56659Y-32509D01*
X56650Y-32537D01*
X56636Y-32563D01*
X56618Y-32585D01*
X56595Y-32604D01*
X56570Y-32618D01*
X56542Y-32626D01*
X56513Y-32629D01*
X56484Y-32627D01*
X56456Y-32619D01*
X56430Y-32605D01*
X56408Y-32587D01*
X56389Y-32564D01*
X56375Y-32539D01*
X56366Y-32511D01*
X56363Y-32482D01*
X56365Y-32453D01*
X56373Y-32425D01*
X56386Y-32399D01*
X56405Y-32376D01*
X56427Y-32357D01*
X56452Y-32343D01*
X56480Y-32334D01*
X56509Y-32331D01*
X56538Y-32333D01*
X56566Y-32341D01*
X56592Y-32354D01*
X56615Y-32372D01*
X56634Y-32394D01*
X56649Y-32419D01*
X56658Y-32447D01*
X56661Y-32476D01*
X56662Y-32480D01*
X50146Y-21981D02*
X50146Y-22295D01*
X50303Y-22138D02*
X49989Y-22138D01*
X50146Y-22981D02*
X50146Y-23295D01*
X50303Y-23138D02*
X49989Y-23138D01*
X50146Y-34974D02*
X50146Y-35288D01*
X50303Y-35131D02*
X49989Y-35131D01*
X50146Y-35974D02*
X50146Y-36288D01*
X50303Y-36131D02*
X49989Y-36131D01*
X51146Y-21981D02*
X51146Y-22295D01*
X51303Y-22138D02*
X50989Y-22138D01*
X51146Y-22981D02*
X51146Y-23295D01*
X51303Y-23138D02*
X50989Y-23138D01*
X51146Y-34974D02*
X51146Y-35288D01*
X51303Y-35131D02*
X50989Y-35131D01*
X51146Y-35974D02*
X51146Y-36288D01*
X51303Y-36131D02*
X50989Y-36131D01*
X52146Y-21981D02*
X52146Y-22295D01*
X52303Y-22138D02*
X51989Y-22138D01*
X52146Y-22981D02*
X52146Y-23295D01*
X52303Y-23138D02*
X51989Y-23138D01*
X52146Y-34974D02*
X52146Y-35288D01*
X52303Y-35131D02*
X51989Y-35131D01*
X52146Y-35974D02*
X52146Y-36288D01*
X52303Y-36131D02*
X51989Y-36131D01*
X53146Y-21981D02*
X53146Y-22295D01*
X53303Y-22138D02*
X52989Y-22138D01*
X53146Y-22981D02*
X53146Y-23295D01*
X53303Y-23138D02*
X52989Y-23138D01*
X53146Y-34974D02*
X53146Y-35288D01*
X53303Y-35131D02*
X52989Y-35131D01*
X53146Y-35974D02*
X53146Y-36288D01*
X53303Y-36131D02*
X52989Y-36131D01*
X54146Y-21981D02*
X54146Y-22295D01*
X54303Y-22138D02*
X53989Y-22138D01*
X54146Y-22981D02*
X54146Y-23295D01*
X54303Y-23138D02*
X53989Y-23138D01*
X54146Y-34974D02*
X54146Y-35288D01*
X54303Y-35131D02*
X53989Y-35131D01*
X54146Y-35974D02*
X54146Y-36288D01*
X54303Y-36131D02*
X53989Y-36131D01*
X55146Y-21981D02*
X55146Y-22295D01*
X55303Y-22138D02*
X54989Y-22138D01*
X55146Y-22981D02*
X55146Y-23295D01*
X55303Y-23138D02*
X54989Y-23138D01*
X55146Y-34974D02*
X55146Y-35288D01*
X55303Y-35131D02*
X54989Y-35131D01*
X55146Y-35974D02*
X55146Y-36288D01*
X55303Y-36131D02*
X54989Y-36131D01*
X56146Y-21981D02*
X56146Y-22295D01*
X56303Y-22138D02*
X55989Y-22138D01*
X56146Y-22981D02*
X56146Y-23295D01*
X56303Y-23138D02*
X55989Y-23138D01*
X56146Y-34974D02*
X56146Y-35288D01*
X56303Y-35131D02*
X55989Y-35131D01*
X56146Y-35974D02*
X56146Y-36288D01*
X56303Y-36131D02*
X55989Y-36131D01*
X57146Y-21981D02*
X57146Y-22295D01*
X57303Y-22138D02*
X56989Y-22138D01*
X57146Y-22981D02*
X57146Y-23295D01*
X57303Y-23138D02*
X56989Y-23138D01*
X57146Y-34974D02*
X57146Y-35288D01*
X57303Y-35131D02*
X56989Y-35131D01*
X57146Y-35974D02*
X57146Y-36288D01*
X57303Y-36131D02*
X56989Y-36131D01*
X58146Y-21981D02*
X58146Y-22295D01*
X58303Y-22138D02*
X57989Y-22138D01*
X58146Y-22981D02*
X58146Y-23295D01*
X58303Y-23138D02*
X57989Y-23138D01*
X58146Y-34974D02*
X58146Y-35288D01*
X58303Y-35131D02*
X57989Y-35131D01*
X58146Y-35974D02*
X58146Y-36288D01*
X58303Y-36131D02*
X57989Y-36131D01*
X59146Y-21981D02*
X59146Y-22295D01*
X59303Y-22138D02*
X58989Y-22138D01*
X59146Y-22981D02*
X59146Y-23295D01*
X59303Y-23138D02*
X58989Y-23138D01*
X59146Y-34974D02*
X59146Y-35288D01*
X59303Y-35131D02*
X58989Y-35131D01*
X59146Y-35974D02*
X59146Y-36288D01*
X59303Y-36131D02*
X58989Y-36131D01*
X60146Y-21981D02*
X60146Y-22295D01*
X60303Y-22138D02*
X59989Y-22138D01*
X60146Y-22981D02*
X60146Y-23295D01*
X60303Y-23138D02*
X59989Y-23138D01*
X60146Y-34974D02*
X60146Y-35288D01*
X60303Y-35131D02*
X59989Y-35131D01*
X60146Y-35974D02*
X60146Y-36288D01*
X60303Y-36131D02*
X59989Y-36131D01*
X61146Y-21981D02*
X61146Y-22295D01*
X61303Y-22138D02*
X60989Y-22138D01*
X61146Y-22981D02*
X61146Y-23295D01*
X61303Y-23138D02*
X60989Y-23138D01*
X61146Y-34974D02*
X61146Y-35288D01*
X61303Y-35131D02*
X60989Y-35131D01*
X61146Y-35974D02*
X61146Y-36288D01*
X61303Y-36131D02*
X60989Y-36131D01*
X62146Y-21981D02*
X62146Y-22295D01*
X62303Y-22138D02*
X61989Y-22138D01*
X62146Y-22981D02*
X62146Y-23295D01*
X62303Y-23138D02*
X61989Y-23138D01*
X62146Y-34974D02*
X62146Y-35288D01*
X62303Y-35131D02*
X61989Y-35131D01*
X62146Y-35974D02*
X62146Y-36288D01*
X62303Y-36131D02*
X61989Y-36131D01*
X63146Y-21981D02*
X63146Y-22295D01*
X63303Y-22138D02*
X62989Y-22138D01*
X63146Y-22981D02*
X63146Y-23295D01*
X63303Y-23138D02*
X62989Y-23138D01*
X63146Y-34974D02*
X63146Y-35288D01*
X63303Y-35131D02*
X62989Y-35131D01*
X63146Y-35974D02*
X63146Y-36288D01*
X63303Y-36131D02*
X62989Y-36131D01*
X64146Y-21981D02*
X64146Y-22295D01*
X64303Y-22138D02*
X63989Y-22138D01*
X64146Y-22981D02*
X64146Y-23295D01*
X64303Y-23138D02*
X63989Y-23138D01*
X64146Y-34974D02*
X64146Y-35288D01*
X64303Y-35131D02*
X63989Y-35131D01*
X64146Y-35974D02*
X64146Y-36288D01*
X64303Y-36131D02*
X63989Y-36131D01*
X65146Y-21981D02*
X65146Y-22295D01*
X65303Y-22138D02*
X64989Y-22138D01*
X65146Y-22981D02*
X65146Y-23295D01*
X65303Y-23138D02*
X64989Y-23138D01*
X65146Y-34974D02*
X65146Y-35288D01*
X65303Y-35131D02*
X64989Y-35131D01*
X65146Y-35974D02*
X65146Y-36288D01*
X65303Y-36131D02*
X64989Y-36131D01*
X66146Y-21981D02*
X66146Y-22295D01*
X66303Y-22138D02*
X65989Y-22138D01*
X66146Y-22981D02*
X66146Y-23295D01*
X66303Y-23138D02*
X65989Y-23138D01*
X66146Y-34974D02*
X66146Y-35288D01*
X66303Y-35131D02*
X65989Y-35131D01*
X66146Y-35974D02*
X66146Y-36288D01*
X66303Y-36131D02*
X65989Y-36131D01*
X67146Y-21981D02*
X67146Y-22295D01*
X67303Y-22138D02*
X66989Y-22138D01*
X67146Y-22981D02*
X67146Y-23295D01*
X67303Y-23138D02*
X66989Y-23138D01*
X67146Y-34974D02*
X67146Y-35288D01*
X67303Y-35131D02*
X66989Y-35131D01*
X67146Y-35974D02*
X67146Y-36288D01*
X67303Y-36131D02*
X66989Y-36131D01*
X68146Y-21981D02*
X68146Y-22295D01*
X68303Y-22138D02*
X67989Y-22138D01*
X68146Y-22981D02*
X68146Y-23295D01*
X68303Y-23138D02*
X67989Y-23138D01*
X68146Y-34974D02*
X68146Y-35288D01*
X68303Y-35131D02*
X67989Y-35131D01*
X68146Y-35974D02*
X68146Y-36288D01*
X68303Y-36131D02*
X67989Y-36131D01*
X69146Y-22981D02*
X69146Y-23295D01*
X69303Y-23138D02*
X68989Y-23138D01*
X69146Y-35974D02*
X69146Y-36288D01*
X69303Y-36131D02*
X68989Y-36131D01*
X84421Y-26768D02*
X84421Y-27082D01*
X84578Y-26925D02*
X84264Y-26925D01*
X84421Y-27868D02*
X84421Y-28182D01*
X84578Y-28025D02*
X84264Y-28025D01*
X84421Y-28918D02*
X84421Y-29232D01*
X84578Y-29075D02*
X84264Y-29075D01*
X84421Y-30018D02*
X84421Y-30332D01*
X84578Y-30175D02*
X84264Y-30175D01*
X84421Y-31118D02*
X84421Y-31432D01*
X84578Y-31275D02*
X84264Y-31275D01*
X84421Y-32218D02*
X84421Y-32532D01*
X84578Y-32375D02*
X84264Y-32375D01*
X84421Y-33268D02*
X84421Y-33582D01*
X84578Y-33425D02*
X84264Y-33425D01*
X84421Y-34368D02*
X84421Y-34682D01*
X84578Y-34525D02*
X84264Y-34525D01*
X84421Y-35468D02*
X84421Y-35782D01*
X84578Y-35625D02*
X84264Y-35625D01*
X84421Y-36568D02*
X84421Y-36882D01*
X84578Y-36725D02*
X84264Y-36725D01*
X84421Y-37618D02*
X84421Y-37932D01*
X84578Y-37775D02*
X84264Y-37775D01*
X84421Y-38718D02*
X84421Y-39032D01*
X84578Y-38875D02*
X84264Y-38875D01*
X84421Y-39818D02*
X84421Y-40132D01*
X84578Y-39975D02*
X84264Y-39975D01*
X85421Y-27388D02*
X85421Y-27702D01*
X85578Y-27545D02*
X85264Y-27545D01*
X85421Y-28388D02*
X85421Y-28702D01*
X85578Y-28545D02*
X85264Y-28545D01*
X85421Y-29488D02*
X85421Y-29802D01*
X85578Y-29645D02*
X85264Y-29645D01*
X85421Y-30568D02*
X85421Y-30882D01*
X85578Y-30725D02*
X85264Y-30725D01*
X85421Y-31648D02*
X85421Y-31962D01*
X85578Y-31805D02*
X85264Y-31805D01*
X85421Y-32748D02*
X85421Y-33062D01*
X85578Y-32905D02*
X85264Y-32905D01*
X85421Y-33828D02*
X85421Y-34142D01*
X85578Y-33985D02*
X85264Y-33985D01*
X85421Y-34908D02*
X85421Y-35222D01*
X85578Y-35065D02*
X85264Y-35065D01*
X85421Y-36028D02*
X85421Y-36342D01*
X85578Y-36185D02*
X85264Y-36185D01*
X85421Y-37088D02*
X85421Y-37402D01*
X85578Y-37245D02*
X85264Y-37245D01*
X85421Y-38168D02*
X85421Y-38482D01*
X85578Y-38325D02*
X85264Y-38325D01*
X85421Y-39268D02*
X85421Y-39582D01*
X85578Y-39425D02*
X85264Y-39425D01*
X46499Y-26469D02*
X46495Y-26500D01*
X46486Y-26529D01*
X46472Y-26557D01*
X46452Y-26581D01*
X46428Y-26601D01*
X46401Y-26616D01*
X46371Y-26625D01*
X46340Y-26628D01*
X46310Y-26626D01*
X46280Y-26617D01*
X46252Y-26602D01*
X46228Y-26583D01*
X46207Y-26559D01*
X46192Y-26532D01*
X46183Y-26502D01*
X46180Y-26471D01*
X46182Y-26441D01*
X46191Y-26411D01*
X46205Y-26383D01*
X46224Y-26358D01*
X46248Y-26338D01*
X46275Y-26323D01*
X46305Y-26313D01*
X46336Y-26310D01*
X46366Y-26312D01*
X46396Y-26320D01*
X46424Y-26334D01*
X46449Y-26354D01*
X46469Y-26377D01*
X46485Y-26404D01*
X46495Y-26434D01*
X46498Y-26465D01*
X46499Y-26469D01*
X46179Y-26309D02*
X46499Y-26629D01*
X46499Y-26309D02*
X46179Y-26629D01*
X46499Y-27469D02*
X46495Y-27500D01*
X46486Y-27529D01*
X46472Y-27557D01*
X46452Y-27581D01*
X46428Y-27601D01*
X46401Y-27616D01*
X46371Y-27625D01*
X46340Y-27628D01*
X46310Y-27626D01*
X46280Y-27617D01*
X46252Y-27602D01*
X46228Y-27583D01*
X46207Y-27559D01*
X46192Y-27532D01*
X46183Y-27502D01*
X46180Y-27471D01*
X46182Y-27441D01*
X46191Y-27411D01*
X46205Y-27383D01*
X46224Y-27358D01*
X46248Y-27338D01*
X46275Y-27323D01*
X46305Y-27313D01*
X46336Y-27310D01*
X46366Y-27312D01*
X46396Y-27320D01*
X46424Y-27334D01*
X46449Y-27354D01*
X46469Y-27377D01*
X46485Y-27404D01*
X46495Y-27434D01*
X46498Y-27465D01*
X46499Y-27469D01*
X46179Y-27309D02*
X46499Y-27629D01*
X46499Y-27309D02*
X46179Y-27629D01*
X47286Y-26469D02*
X47282Y-26500D01*
X47273Y-26529D01*
X47259Y-26557D01*
X47239Y-26581D01*
X47215Y-26601D01*
X47188Y-26616D01*
X47158Y-26625D01*
X47127Y-26628D01*
X47097Y-26626D01*
X47067Y-26617D01*
X47039Y-26602D01*
X47015Y-26583D01*
X46994Y-26559D01*
X46979Y-26532D01*
X46970Y-26502D01*
X46967Y-26471D01*
X46969Y-26441D01*
X46978Y-26411D01*
X46992Y-26383D01*
X47011Y-26358D01*
X47035Y-26338D01*
X47062Y-26323D01*
X47092Y-26313D01*
X47123Y-26310D01*
X47153Y-26312D01*
X47183Y-26320D01*
X47211Y-26334D01*
X47236Y-26354D01*
X47256Y-26377D01*
X47272Y-26404D01*
X47282Y-26434D01*
X47285Y-26465D01*
X47286Y-26469D01*
X46966Y-26309D02*
X47286Y-26629D01*
X47286Y-26309D02*
X46966Y-26629D01*
X47286Y-27469D02*
X47282Y-27500D01*
X47273Y-27529D01*
X47259Y-27557D01*
X47239Y-27581D01*
X47215Y-27601D01*
X47188Y-27616D01*
X47158Y-27625D01*
X47127Y-27628D01*
X47097Y-27626D01*
X47067Y-27617D01*
X47039Y-27602D01*
X47015Y-27583D01*
X46994Y-27559D01*
X46979Y-27532D01*
X46970Y-27502D01*
X46967Y-27471D01*
X46969Y-27441D01*
X46978Y-27411D01*
X46992Y-27383D01*
X47011Y-27358D01*
X47035Y-27338D01*
X47062Y-27323D01*
X47092Y-27313D01*
X47123Y-27310D01*
X47153Y-27312D01*
X47183Y-27320D01*
X47211Y-27334D01*
X47236Y-27354D01*
X47256Y-27377D01*
X47272Y-27404D01*
X47282Y-27434D01*
X47285Y-27465D01*
X47286Y-27469D01*
X46966Y-27309D02*
X47286Y-27629D01*
X47286Y-27309D02*
X46966Y-27629D01*
X51416Y-40035D02*
X51412Y-40066D01*
X51403Y-40095D01*
X51389Y-40123D01*
X51369Y-40147D01*
X51345Y-40167D01*
X51318Y-40182D01*
X51288Y-40191D01*
X51257Y-40194D01*
X51227Y-40192D01*
X51197Y-40183D01*
X51169Y-40168D01*
X51145Y-40149D01*
X51124Y-40125D01*
X51109Y-40098D01*
X51100Y-40068D01*
X51097Y-40037D01*
X51099Y-40007D01*
X51108Y-39977D01*
X51122Y-39949D01*
X51141Y-39924D01*
X51165Y-39904D01*
X51192Y-39889D01*
X51222Y-39879D01*
X51253Y-39876D01*
X51283Y-39878D01*
X51313Y-39886D01*
X51341Y-39900D01*
X51366Y-39920D01*
X51386Y-39943D01*
X51402Y-39970D01*
X51412Y-40000D01*
X51415Y-40031D01*
X51416Y-40035D01*
X51096Y-39875D02*
X51416Y-40195D01*
X51416Y-39875D02*
X51096Y-40195D01*
X51416Y-43035D02*
X51412Y-43066D01*
X51403Y-43095D01*
X51389Y-43123D01*
X51369Y-43147D01*
X51345Y-43167D01*
X51318Y-43182D01*
X51288Y-43191D01*
X51257Y-43194D01*
X51227Y-43192D01*
X51197Y-43183D01*
X51169Y-43168D01*
X51145Y-43149D01*
X51124Y-43125D01*
X51109Y-43098D01*
X51100Y-43068D01*
X51097Y-43037D01*
X51099Y-43007D01*
X51108Y-42977D01*
X51122Y-42949D01*
X51141Y-42924D01*
X51165Y-42904D01*
X51192Y-42889D01*
X51222Y-42879D01*
X51253Y-42876D01*
X51283Y-42878D01*
X51313Y-42886D01*
X51341Y-42900D01*
X51366Y-42920D01*
X51386Y-42943D01*
X51402Y-42970D01*
X51412Y-43000D01*
X51415Y-43031D01*
X51416Y-43035D01*
X51096Y-42875D02*
X51416Y-43195D01*
X51416Y-42875D02*
X51096Y-43195D01*
X52416Y-40035D02*
X52412Y-40066D01*
X52403Y-40095D01*
X52389Y-40123D01*
X52369Y-40147D01*
X52345Y-40167D01*
X52318Y-40182D01*
X52288Y-40191D01*
X52257Y-40194D01*
X52227Y-40192D01*
X52197Y-40183D01*
X52169Y-40168D01*
X52145Y-40149D01*
X52124Y-40125D01*
X52109Y-40098D01*
X52100Y-40068D01*
X52097Y-40037D01*
X52099Y-40007D01*
X52108Y-39977D01*
X52122Y-39949D01*
X52141Y-39924D01*
X52165Y-39904D01*
X52192Y-39889D01*
X52222Y-39879D01*
X52253Y-39876D01*
X52283Y-39878D01*
X52313Y-39886D01*
X52341Y-39900D01*
X52366Y-39920D01*
X52386Y-39943D01*
X52402Y-39970D01*
X52412Y-40000D01*
X52415Y-40031D01*
X52416Y-40035D01*
X52096Y-39875D02*
X52416Y-40195D01*
X52416Y-39875D02*
X52096Y-40195D01*
X52416Y-43035D02*
X52412Y-43066D01*
X52403Y-43095D01*
X52389Y-43123D01*
X52369Y-43147D01*
X52345Y-43167D01*
X52318Y-43182D01*
X52288Y-43191D01*
X52257Y-43194D01*
X52227Y-43192D01*
X52197Y-43183D01*
X52169Y-43168D01*
X52145Y-43149D01*
X52124Y-43125D01*
X52109Y-43098D01*
X52100Y-43068D01*
X52097Y-43037D01*
X52099Y-43007D01*
X52108Y-42977D01*
X52122Y-42949D01*
X52141Y-42924D01*
X52165Y-42904D01*
X52192Y-42889D01*
X52222Y-42879D01*
X52253Y-42876D01*
X52283Y-42878D01*
X52313Y-42886D01*
X52341Y-42900D01*
X52366Y-42920D01*
X52386Y-42943D01*
X52402Y-42970D01*
X52412Y-43000D01*
X52415Y-43031D01*
X52416Y-43035D01*
X52096Y-42875D02*
X52416Y-43195D01*
X52416Y-42875D02*
X52096Y-43195D01*
X53416Y-40035D02*
X53412Y-40066D01*
X53403Y-40095D01*
X53389Y-40123D01*
X53369Y-40147D01*
X53345Y-40167D01*
X53318Y-40182D01*
X53288Y-40191D01*
X53257Y-40194D01*
X53227Y-40192D01*
X53197Y-40183D01*
X53169Y-40168D01*
X53145Y-40149D01*
X53124Y-40125D01*
X53109Y-40098D01*
X53100Y-40068D01*
X53097Y-40037D01*
X53099Y-40007D01*
X53108Y-39977D01*
X53122Y-39949D01*
X53141Y-39924D01*
X53165Y-39904D01*
X53192Y-39889D01*
X53222Y-39879D01*
X53253Y-39876D01*
X53283Y-39878D01*
X53313Y-39886D01*
X53341Y-39900D01*
X53366Y-39920D01*
X53386Y-39943D01*
X53402Y-39970D01*
X53412Y-40000D01*
X53415Y-40031D01*
X53416Y-40035D01*
X53096Y-39875D02*
X53416Y-40195D01*
X53416Y-39875D02*
X53096Y-40195D01*
X53416Y-43035D02*
X53412Y-43066D01*
X53403Y-43095D01*
X53389Y-43123D01*
X53369Y-43147D01*
X53345Y-43167D01*
X53318Y-43182D01*
X53288Y-43191D01*
X53257Y-43194D01*
X53227Y-43192D01*
X53197Y-43183D01*
X53169Y-43168D01*
X53145Y-43149D01*
X53124Y-43125D01*
X53109Y-43098D01*
X53100Y-43068D01*
X53097Y-43037D01*
X53099Y-43007D01*
X53108Y-42977D01*
X53122Y-42949D01*
X53141Y-42924D01*
X53165Y-42904D01*
X53192Y-42889D01*
X53222Y-42879D01*
X53253Y-42876D01*
X53283Y-42878D01*
X53313Y-42886D01*
X53341Y-42900D01*
X53366Y-42920D01*
X53386Y-42943D01*
X53402Y-42970D01*
X53412Y-43000D01*
X53415Y-43031D01*
X53416Y-43035D01*
X53096Y-42875D02*
X53416Y-43195D01*
X53416Y-42875D02*
X53096Y-43195D01*
X54416Y-40035D02*
X54412Y-40066D01*
X54403Y-40095D01*
X54389Y-40123D01*
X54369Y-40147D01*
X54345Y-40167D01*
X54318Y-40182D01*
X54288Y-40191D01*
X54257Y-40194D01*
X54227Y-40192D01*
X54197Y-40183D01*
X54169Y-40168D01*
X54145Y-40149D01*
X54124Y-40125D01*
X54109Y-40098D01*
X54100Y-40068D01*
X54097Y-40037D01*
X54099Y-40007D01*
X54108Y-39977D01*
X54122Y-39949D01*
X54141Y-39924D01*
X54165Y-39904D01*
X54192Y-39889D01*
X54222Y-39879D01*
X54253Y-39876D01*
X54283Y-39878D01*
X54313Y-39886D01*
X54341Y-39900D01*
X54366Y-39920D01*
X54386Y-39943D01*
X54402Y-39970D01*
X54412Y-40000D01*
X54415Y-40031D01*
X54416Y-40035D01*
X54096Y-39875D02*
X54416Y-40195D01*
X54416Y-39875D02*
X54096Y-40195D01*
X54416Y-43035D02*
X54412Y-43066D01*
X54403Y-43095D01*
X54389Y-43123D01*
X54369Y-43147D01*
X54345Y-43167D01*
X54318Y-43182D01*
X54288Y-43191D01*
X54257Y-43194D01*
X54227Y-43192D01*
X54197Y-43183D01*
X54169Y-43168D01*
X54145Y-43149D01*
X54124Y-43125D01*
X54109Y-43098D01*
X54100Y-43068D01*
X54097Y-43037D01*
X54099Y-43007D01*
X54108Y-42977D01*
X54122Y-42949D01*
X54141Y-42924D01*
X54165Y-42904D01*
X54192Y-42889D01*
X54222Y-42879D01*
X54253Y-42876D01*
X54283Y-42878D01*
X54313Y-42886D01*
X54341Y-42900D01*
X54366Y-42920D01*
X54386Y-42943D01*
X54402Y-42970D01*
X54412Y-43000D01*
X54415Y-43031D01*
X54416Y-43035D01*
X54096Y-42875D02*
X54416Y-43195D01*
X54416Y-42875D02*
X54096Y-43195D01*
X69306Y-22138D02*
X69302Y-22169D01*
X69293Y-22198D01*
X69279Y-22226D01*
X69259Y-22250D01*
X69235Y-22270D01*
X69208Y-22285D01*
X69178Y-22294D01*
X69147Y-22297D01*
X69117Y-22295D01*
X69087Y-22286D01*
X69059Y-22271D01*
X69035Y-22252D01*
X69014Y-22228D01*
X68999Y-22201D01*
X68990Y-22171D01*
X68987Y-22140D01*
X68989Y-22110D01*
X68998Y-22080D01*
X69012Y-22052D01*
X69031Y-22027D01*
X69055Y-22007D01*
X69082Y-21992D01*
X69112Y-21982D01*
X69143Y-21979D01*
X69173Y-21981D01*
X69203Y-21989D01*
X69231Y-22003D01*
X69256Y-22023D01*
X69276Y-22046D01*
X69292Y-22073D01*
X69302Y-22103D01*
X69305Y-22134D01*
X69306Y-22138D01*
X68986Y-21978D02*
X69306Y-22298D01*
X69306Y-21978D02*
X68986Y-22298D01*
X69306Y-35131D02*
X69302Y-35162D01*
X69293Y-35191D01*
X69279Y-35219D01*
X69259Y-35243D01*
X69235Y-35263D01*
X69208Y-35278D01*
X69178Y-35287D01*
X69147Y-35290D01*
X69117Y-35288D01*
X69087Y-35279D01*
X69059Y-35264D01*
X69035Y-35245D01*
X69014Y-35221D01*
X68999Y-35194D01*
X68990Y-35164D01*
X68987Y-35133D01*
X68989Y-35103D01*
X68998Y-35073D01*
X69012Y-35045D01*
X69031Y-35020D01*
X69055Y-35000D01*
X69082Y-34985D01*
X69112Y-34975D01*
X69143Y-34972D01*
X69173Y-34974D01*
X69203Y-34982D01*
X69231Y-34996D01*
X69256Y-35016D01*
X69276Y-35039D01*
X69292Y-35066D01*
X69302Y-35096D01*
X69305Y-35127D01*
X69306Y-35131D01*
X68986Y-34971D02*
X69306Y-35291D01*
X69306Y-34971D02*
X68986Y-35291D01*
X43113Y-34236D02*
X43109Y-34274D01*
X43097Y-34312D01*
X43079Y-34346D01*
X43054Y-34376D01*
X43024Y-34401D01*
X42990Y-34420D01*
X42953Y-34431D01*
X42914Y-34435D01*
X42876Y-34432D01*
X42839Y-34421D01*
X42804Y-34403D01*
X42774Y-34378D01*
X42748Y-34348D01*
X42730Y-34314D01*
X42718Y-34277D01*
X42714Y-34238D01*
X42717Y-34200D01*
X42728Y-34163D01*
X42745Y-34128D01*
X42770Y-34098D01*
X42799Y-34072D01*
X42833Y-34053D01*
X42871Y-34041D01*
X42909Y-34037D01*
X42947Y-34040D01*
X42985Y-34050D01*
X43020Y-34068D01*
X43050Y-34092D01*
X43076Y-34121D01*
X43095Y-34155D01*
X43108Y-34192D01*
X43112Y-34231D01*
X43113Y-34236D01*
X42713Y-34236D02*
X43113Y-34236D01*
X43113Y-35236D02*
X43109Y-35274D01*
X43097Y-35312D01*
X43079Y-35346D01*
X43054Y-35376D01*
X43024Y-35401D01*
X42990Y-35420D01*
X42953Y-35431D01*
X42914Y-35435D01*
X42876Y-35432D01*
X42839Y-35421D01*
X42804Y-35403D01*
X42774Y-35378D01*
X42748Y-35348D01*
X42730Y-35314D01*
X42718Y-35277D01*
X42714Y-35238D01*
X42717Y-35200D01*
X42728Y-35163D01*
X42745Y-35128D01*
X42770Y-35098D01*
X42799Y-35072D01*
X42833Y-35053D01*
X42871Y-35041D01*
X42909Y-35037D01*
X42947Y-35040D01*
X42985Y-35050D01*
X43020Y-35068D01*
X43050Y-35092D01*
X43076Y-35121D01*
X43095Y-35155D01*
X43108Y-35192D01*
X43112Y-35231D01*
X43113Y-35236D01*
X42713Y-35236D02*
X43113Y-35236D01*
X43113Y-36236D02*
X43109Y-36274D01*
X43097Y-36312D01*
X43079Y-36346D01*
X43054Y-36376D01*
X43024Y-36401D01*
X42990Y-36420D01*
X42953Y-36431D01*
X42914Y-36435D01*
X42876Y-36432D01*
X42839Y-36421D01*
X42804Y-36403D01*
X42774Y-36378D01*
X42748Y-36348D01*
X42730Y-36314D01*
X42718Y-36277D01*
X42714Y-36238D01*
X42717Y-36200D01*
X42728Y-36163D01*
X42745Y-36128D01*
X42770Y-36098D01*
X42799Y-36072D01*
X42833Y-36053D01*
X42871Y-36041D01*
X42909Y-36037D01*
X42947Y-36040D01*
X42985Y-36050D01*
X43020Y-36068D01*
X43050Y-36092D01*
X43076Y-36121D01*
X43095Y-36155D01*
X43108Y-36192D01*
X43112Y-36231D01*
X43113Y-36236D01*
X42713Y-36236D02*
X43113Y-36236D01*
X45669Y-24607D02*
X45661Y-24683D01*
X45639Y-24756D01*
X45603Y-24824D01*
X45554Y-24883D01*
X45495Y-24932D01*
X45428Y-24969D01*
X45355Y-24991D01*
X45278Y-24999D01*
X45203Y-24993D01*
X45129Y-24971D01*
X45061Y-24935D01*
X45002Y-24887D01*
X44952Y-24829D01*
X44915Y-24761D01*
X44892Y-24688D01*
X44884Y-24612D01*
X44890Y-24537D01*
X44911Y-24463D01*
X44946Y-24395D01*
X44994Y-24334D01*
X45052Y-24285D01*
X45119Y-24247D01*
X45192Y-24224D01*
X45268Y-24215D01*
X45344Y-24220D01*
X45418Y-24241D01*
X45486Y-24276D01*
X45547Y-24323D01*
X45597Y-24381D01*
X45635Y-24448D01*
X45659Y-24520D01*
X45668Y-24597D01*
X45669Y-24607D01*
X45276Y-24214D02*
X45276Y-25000D01*
X45669Y-29331D02*
X45661Y-29407D01*
X45639Y-29480D01*
X45603Y-29548D01*
X45554Y-29607D01*
X45495Y-29656D01*
X45428Y-29693D01*
X45355Y-29715D01*
X45278Y-29723D01*
X45203Y-29717D01*
X45129Y-29695D01*
X45061Y-29659D01*
X45002Y-29611D01*
X44952Y-29553D01*
X44915Y-29485D01*
X44892Y-29412D01*
X44884Y-29336D01*
X44890Y-29261D01*
X44911Y-29187D01*
X44946Y-29119D01*
X44994Y-29058D01*
X45052Y-29009D01*
X45119Y-28971D01*
X45192Y-28948D01*
X45268Y-28939D01*
X45344Y-28944D01*
X45418Y-28965D01*
X45486Y-29000D01*
X45547Y-29047D01*
X45597Y-29105D01*
X45635Y-29172D01*
X45659Y-29244D01*
X45668Y-29321D01*
X45669Y-29331D01*
X45276Y-28938D02*
X45276Y-29724D01*
X85814Y-24175D02*
X85806Y-24251D01*
X85784Y-24324D01*
X85748Y-24392D01*
X85699Y-24451D01*
X85640Y-24500D01*
X85573Y-24537D01*
X85500Y-24559D01*
X85423Y-24567D01*
X85348Y-24561D01*
X85274Y-24539D01*
X85206Y-24503D01*
X85147Y-24455D01*
X85097Y-24397D01*
X85060Y-24329D01*
X85037Y-24256D01*
X85029Y-24180D01*
X85035Y-24105D01*
X85056Y-24031D01*
X85091Y-23963D01*
X85139Y-23902D01*
X85197Y-23853D01*
X85264Y-23815D01*
X85337Y-23792D01*
X85413Y-23783D01*
X85489Y-23788D01*
X85563Y-23809D01*
X85631Y-23844D01*
X85692Y-23891D01*
X85742Y-23949D01*
X85780Y-24016D01*
X85804Y-24088D01*
X85813Y-24165D01*
X85814Y-24175D01*
X85421Y-23782D02*
X85421Y-24568D01*
X85814Y-42675D02*
X85806Y-42751D01*
X85784Y-42824D01*
X85748Y-42892D01*
X85699Y-42951D01*
X85640Y-43000D01*
X85573Y-43037D01*
X85500Y-43059D01*
X85423Y-43067D01*
X85348Y-43061D01*
X85274Y-43039D01*
X85206Y-43003D01*
X85147Y-42955D01*
X85097Y-42897D01*
X85060Y-42829D01*
X85037Y-42756D01*
X85029Y-42680D01*
X85035Y-42605D01*
X85056Y-42531D01*
X85091Y-42463D01*
X85139Y-42402D01*
X85197Y-42353D01*
X85264Y-42315D01*
X85337Y-42292D01*
X85413Y-42283D01*
X85489Y-42288D01*
X85563Y-42309D01*
X85631Y-42344D01*
X85692Y-42391D01*
X85742Y-42449D01*
X85780Y-42516D01*
X85804Y-42588D01*
X85813Y-42665D01*
X85814Y-42675D01*
X85421Y-42282D02*
X85421Y-43068D01*
X43495Y-21841D02*
X43495Y-20993D01*
X42647Y-20993D01*
X42647Y-21841D01*
X43495Y-21841D01*
X43495Y-46330D02*
X43495Y-45482D01*
X42647Y-45482D01*
X42647Y-46330D01*
X43495Y-46330D01*
X88652Y-21841D02*
X88652Y-20993D01*
X87804Y-20993D01*
X87804Y-21841D01*
X88652Y-21841D01*
X88652Y-46330D02*
X88652Y-45482D01*
X87804Y-45482D01*
X87804Y-46330D01*
X88652Y-46330D01*
G54D12*
X41212Y-48918D02*
X41212Y-48118D01*
X41403Y-48118D01*
X41517Y-48156D01*
X41593Y-48232D01*
X41632Y-48308D01*
X41670Y-48461D01*
X41670Y-48575D01*
X41632Y-48727D01*
X41593Y-48804D01*
X41517Y-48880D01*
X41403Y-48918D01*
X41212Y-48918D01*
X42012Y-48918D02*
X42012Y-48384D01*
X42012Y-48537D02*
X42051Y-48461D01*
X42089Y-48423D01*
X42165Y-48384D01*
X42241Y-48384D01*
X42507Y-48918D02*
X42507Y-48384D01*
X42507Y-48118D02*
X42469Y-48156D01*
X42507Y-48194D01*
X42546Y-48156D01*
X42507Y-48118D01*
X42507Y-48194D01*
X43003Y-48918D02*
X42927Y-48880D01*
X42888Y-48804D01*
X42888Y-48118D01*
X43422Y-48918D02*
X43346Y-48880D01*
X43307Y-48804D01*
X43307Y-48118D01*
X44336Y-48918D02*
X44336Y-48118D01*
X44603Y-48689D01*
X44870Y-48118D01*
X44870Y-48918D01*
X45593Y-48918D02*
X45593Y-48499D01*
X45555Y-48423D01*
X45479Y-48384D01*
X45327Y-48384D01*
X45250Y-48423D01*
X45593Y-48880D02*
X45517Y-48918D01*
X45327Y-48918D01*
X45250Y-48880D01*
X45212Y-48804D01*
X45212Y-48727D01*
X45250Y-48651D01*
X45327Y-48613D01*
X45517Y-48613D01*
X45593Y-48575D01*
X45974Y-48384D02*
X45974Y-49184D01*
X45974Y-48423D02*
X46051Y-48384D01*
X46203Y-48384D01*
X46279Y-48423D01*
X46317Y-48461D01*
X46355Y-48537D01*
X46355Y-48765D01*
X46317Y-48842D01*
X46279Y-48880D01*
X46203Y-48918D01*
X46051Y-48918D01*
X45974Y-48880D01*
X46698Y-48842D02*
X46737Y-48880D01*
X46698Y-48918D01*
X46660Y-48880D01*
X46698Y-48842D01*
X46698Y-48918D01*
X46698Y-48423D02*
X46737Y-48461D01*
X46698Y-48499D01*
X46660Y-48461D01*
X46698Y-48423D01*
X46698Y-48499D01*
X40617Y-50172D02*
X40821Y-50376D01*
X40821Y-50172D02*
X40617Y-50376D01*
X41365Y-49798D02*
X41441Y-49798D01*
X41517Y-49836D01*
X41555Y-49874D01*
X41593Y-49950D01*
X41632Y-50103D01*
X41632Y-50293D01*
X41593Y-50445D01*
X41555Y-50522D01*
X41517Y-50560D01*
X41441Y-50598D01*
X41365Y-50598D01*
X41289Y-50560D01*
X41251Y-50522D01*
X41212Y-50445D01*
X41174Y-50293D01*
X41174Y-50103D01*
X41212Y-49950D01*
X41251Y-49874D01*
X41289Y-49836D01*
X41365Y-49798D01*
X41974Y-50522D02*
X42013Y-50560D01*
X41974Y-50598D01*
X41936Y-50560D01*
X41974Y-50522D01*
X41974Y-50598D01*
X42736Y-49798D02*
X42355Y-49798D01*
X42317Y-50179D01*
X42355Y-50141D01*
X42432Y-50103D01*
X42622Y-50103D01*
X42698Y-50141D01*
X42736Y-50179D01*
X42775Y-50255D01*
X42775Y-50445D01*
X42736Y-50522D01*
X42698Y-50560D01*
X42622Y-50598D01*
X42432Y-50598D01*
X42355Y-50560D01*
X42317Y-50522D01*
X43079Y-49874D02*
X43117Y-49836D01*
X43194Y-49798D01*
X43384Y-49798D01*
X43460Y-49836D01*
X43498Y-49874D01*
X43537Y-49950D01*
X43537Y-50026D01*
X43498Y-50141D01*
X43041Y-50598D01*
X43537Y-50598D01*
X43879Y-50598D02*
X43879Y-50064D01*
X43879Y-50141D02*
X43918Y-50103D01*
X43994Y-50064D01*
X44108Y-50064D01*
X44184Y-50103D01*
X44222Y-50179D01*
X44222Y-50598D01*
X44222Y-50179D02*
X44260Y-50103D01*
X44337Y-50064D01*
X44451Y-50064D01*
X44527Y-50103D01*
X44565Y-50179D01*
X44565Y-50598D01*
X44946Y-50598D02*
X44946Y-50064D01*
X44946Y-50141D02*
X44985Y-50103D01*
X45061Y-50064D01*
X45175Y-50064D01*
X45251Y-50103D01*
X45289Y-50179D01*
X45289Y-50598D01*
X45289Y-50179D02*
X45327Y-50103D01*
X45404Y-50064D01*
X45518Y-50064D01*
X45594Y-50103D01*
X45632Y-50179D01*
X45632Y-50598D01*
X47195Y-49760D02*
X46509Y-50788D01*
X48224Y-49798D02*
X48300Y-49798D01*
X48376Y-49836D01*
X48414Y-49874D01*
X48452Y-49950D01*
X48491Y-50103D01*
X48491Y-50293D01*
X48452Y-50445D01*
X48414Y-50522D01*
X48376Y-50560D01*
X48300Y-50598D01*
X48224Y-50598D01*
X48148Y-50560D01*
X48110Y-50522D01*
X48071Y-50445D01*
X48033Y-50293D01*
X48033Y-50103D01*
X48071Y-49950D01*
X48110Y-49874D01*
X48148Y-49836D01*
X48224Y-49798D01*
X48833Y-50522D02*
X48872Y-50560D01*
X48833Y-50598D01*
X48795Y-50560D01*
X48833Y-50522D01*
X48833Y-50598D01*
X49367Y-49798D02*
X49443Y-49798D01*
X49519Y-49836D01*
X49557Y-49874D01*
X49595Y-49950D01*
X49634Y-50103D01*
X49634Y-50293D01*
X49595Y-50445D01*
X49557Y-50522D01*
X49519Y-50560D01*
X49443Y-50598D01*
X49367Y-50598D01*
X49291Y-50560D01*
X49253Y-50522D01*
X49214Y-50445D01*
X49176Y-50293D01*
X49176Y-50103D01*
X49214Y-49950D01*
X49253Y-49874D01*
X49291Y-49836D01*
X49367Y-49798D01*
X49938Y-49874D02*
X49976Y-49836D01*
X50053Y-49798D01*
X50243Y-49798D01*
X50319Y-49836D01*
X50357Y-49874D01*
X50396Y-49950D01*
X50396Y-50026D01*
X50357Y-50141D01*
X49900Y-50598D01*
X50396Y-50598D01*
X51158Y-50598D02*
X50700Y-50598D01*
X50929Y-50598D02*
X50929Y-49798D01*
X50853Y-49912D01*
X50777Y-49988D01*
X50700Y-50026D01*
X51462Y-49798D02*
X51462Y-49950D01*
X51767Y-49798D02*
X51767Y-49950D01*
X52949Y-50903D02*
X52911Y-50864D01*
X52835Y-50750D01*
X52797Y-50674D01*
X52759Y-50560D01*
X52720Y-50369D01*
X52720Y-50217D01*
X52759Y-50026D01*
X52797Y-49912D01*
X52835Y-49836D01*
X52911Y-49722D01*
X52949Y-49684D01*
X53177Y-49798D02*
X53711Y-49798D01*
X53368Y-50598D01*
X54396Y-49798D02*
X54015Y-49798D01*
X53977Y-50179D01*
X54015Y-50141D01*
X54092Y-50103D01*
X54282Y-50103D01*
X54358Y-50141D01*
X54396Y-50179D01*
X54435Y-50255D01*
X54435Y-50445D01*
X54396Y-50522D01*
X54358Y-50560D01*
X54282Y-50598D01*
X54092Y-50598D01*
X54015Y-50560D01*
X53977Y-50522D01*
X55387Y-50598D02*
X55387Y-49798D01*
X55730Y-50598D02*
X55730Y-50179D01*
X55692Y-50103D01*
X55616Y-50064D01*
X55502Y-50064D01*
X55426Y-50103D01*
X55387Y-50141D01*
X56226Y-50598D02*
X56150Y-50560D01*
X56111Y-50522D01*
X56073Y-50445D01*
X56073Y-50217D01*
X56111Y-50141D01*
X56150Y-50103D01*
X56226Y-50064D01*
X56340Y-50064D01*
X56416Y-50103D01*
X56454Y-50141D01*
X56492Y-50217D01*
X56492Y-50445D01*
X56454Y-50522D01*
X56416Y-50560D01*
X56340Y-50598D01*
X56226Y-50598D01*
X56950Y-50598D02*
X56874Y-50560D01*
X56835Y-50484D01*
X56835Y-49798D01*
X57559Y-50560D02*
X57483Y-50598D01*
X57331Y-50598D01*
X57254Y-50560D01*
X57216Y-50484D01*
X57216Y-50179D01*
X57254Y-50103D01*
X57331Y-50064D01*
X57483Y-50064D01*
X57559Y-50103D01*
X57597Y-50179D01*
X57597Y-50255D01*
X57216Y-50331D01*
X57902Y-50560D02*
X57979Y-50598D01*
X58131Y-50598D01*
X58207Y-50560D01*
X58245Y-50484D01*
X58245Y-50445D01*
X58207Y-50369D01*
X58131Y-50331D01*
X58017Y-50331D01*
X57940Y-50293D01*
X57902Y-50217D01*
X57902Y-50179D01*
X57940Y-50103D01*
X58017Y-50064D01*
X58131Y-50064D01*
X58207Y-50103D01*
X58512Y-50903D02*
X58550Y-50864D01*
X58627Y-50750D01*
X58665Y-50674D01*
X58703Y-50560D01*
X58741Y-50369D01*
X58741Y-50217D01*
X58703Y-50026D01*
X58665Y-49912D01*
X58627Y-49836D01*
X58550Y-49722D01*
X58512Y-49684D01*
G54D10*
X40822Y-51329D02*
X40819Y-51358D01*
X40810Y-51386D01*
X40796Y-51412D01*
X40778Y-51434D01*
X40755Y-51453D01*
X40730Y-51467D01*
X40702Y-51475D01*
X40673Y-51478D01*
X40644Y-51476D01*
X40616Y-51468D01*
X40590Y-51454D01*
X40568Y-51436D01*
X40549Y-51413D01*
X40535Y-51388D01*
X40526Y-51360D01*
X40523Y-51331D01*
X40525Y-51302D01*
X40533Y-51274D01*
X40546Y-51248D01*
X40565Y-51225D01*
X40587Y-51206D01*
X40612Y-51192D01*
X40640Y-51183D01*
X40669Y-51180D01*
X40698Y-51182D01*
X40726Y-51190D01*
X40752Y-51203D01*
X40775Y-51221D01*
X40794Y-51243D01*
X40809Y-51268D01*
X40818Y-51296D01*
X40821Y-51325D01*
X40822Y-51329D01*
G54D12*
X41365Y-50853D02*
X41441Y-50853D01*
X41517Y-50891D01*
X41555Y-50929D01*
X41593Y-51005D01*
X41632Y-51158D01*
X41632Y-51348D01*
X41593Y-51500D01*
X41555Y-51577D01*
X41517Y-51615D01*
X41441Y-51653D01*
X41365Y-51653D01*
X41289Y-51615D01*
X41251Y-51577D01*
X41212Y-51500D01*
X41174Y-51348D01*
X41174Y-51158D01*
X41212Y-51005D01*
X41251Y-50929D01*
X41289Y-50891D01*
X41365Y-50853D01*
X41974Y-51577D02*
X42013Y-51615D01*
X41974Y-51653D01*
X41936Y-51615D01*
X41974Y-51577D01*
X41974Y-51653D01*
X42279Y-50853D02*
X42813Y-50853D01*
X42470Y-51653D01*
X43460Y-50853D02*
X43308Y-50853D01*
X43232Y-50891D01*
X43194Y-50929D01*
X43117Y-51043D01*
X43079Y-51196D01*
X43079Y-51500D01*
X43117Y-51577D01*
X43156Y-51615D01*
X43232Y-51653D01*
X43384Y-51653D01*
X43460Y-51615D01*
X43498Y-51577D01*
X43537Y-51500D01*
X43537Y-51310D01*
X43498Y-51234D01*
X43460Y-51196D01*
X43384Y-51158D01*
X43232Y-51158D01*
X43156Y-51196D01*
X43117Y-51234D01*
X43079Y-51310D01*
X43879Y-51653D02*
X43879Y-51119D01*
X43879Y-51196D02*
X43918Y-51158D01*
X43994Y-51119D01*
X44108Y-51119D01*
X44184Y-51158D01*
X44222Y-51234D01*
X44222Y-51653D01*
X44222Y-51234D02*
X44260Y-51158D01*
X44337Y-51119D01*
X44451Y-51119D01*
X44527Y-51158D01*
X44565Y-51234D01*
X44565Y-51653D01*
X44946Y-51653D02*
X44946Y-51119D01*
X44946Y-51196D02*
X44985Y-51158D01*
X45061Y-51119D01*
X45175Y-51119D01*
X45251Y-51158D01*
X45289Y-51234D01*
X45289Y-51653D01*
X45289Y-51234D02*
X45327Y-51158D01*
X45404Y-51119D01*
X45518Y-51119D01*
X45594Y-51158D01*
X45632Y-51234D01*
X45632Y-51653D01*
X47195Y-50815D02*
X46509Y-51843D01*
X48224Y-50853D02*
X48300Y-50853D01*
X48376Y-50891D01*
X48414Y-50929D01*
X48452Y-51005D01*
X48491Y-51158D01*
X48491Y-51348D01*
X48452Y-51500D01*
X48414Y-51577D01*
X48376Y-51615D01*
X48300Y-51653D01*
X48224Y-51653D01*
X48148Y-51615D01*
X48110Y-51577D01*
X48071Y-51500D01*
X48033Y-51348D01*
X48033Y-51158D01*
X48071Y-51005D01*
X48110Y-50929D01*
X48148Y-50891D01*
X48224Y-50853D01*
X48833Y-51577D02*
X48872Y-51615D01*
X48833Y-51653D01*
X48795Y-51615D01*
X48833Y-51577D01*
X48833Y-51653D01*
X49367Y-50853D02*
X49443Y-50853D01*
X49519Y-50891D01*
X49557Y-50929D01*
X49595Y-51005D01*
X49634Y-51158D01*
X49634Y-51348D01*
X49595Y-51500D01*
X49557Y-51577D01*
X49519Y-51615D01*
X49443Y-51653D01*
X49367Y-51653D01*
X49291Y-51615D01*
X49253Y-51577D01*
X49214Y-51500D01*
X49176Y-51348D01*
X49176Y-51158D01*
X49214Y-51005D01*
X49253Y-50929D01*
X49291Y-50891D01*
X49367Y-50853D01*
X49900Y-50853D02*
X50396Y-50853D01*
X50129Y-51158D01*
X50243Y-51158D01*
X50319Y-51196D01*
X50357Y-51234D01*
X50396Y-51310D01*
X50396Y-51500D01*
X50357Y-51577D01*
X50319Y-51615D01*
X50243Y-51653D01*
X50015Y-51653D01*
X49938Y-51615D01*
X49900Y-51577D01*
X50891Y-50853D02*
X50967Y-50853D01*
X51043Y-50891D01*
X51081Y-50929D01*
X51119Y-51005D01*
X51158Y-51158D01*
X51158Y-51348D01*
X51119Y-51500D01*
X51081Y-51577D01*
X51043Y-51615D01*
X50967Y-51653D01*
X50891Y-51653D01*
X50815Y-51615D01*
X50777Y-51577D01*
X50738Y-51500D01*
X50700Y-51348D01*
X50700Y-51158D01*
X50738Y-51005D01*
X50777Y-50929D01*
X50815Y-50891D01*
X50891Y-50853D01*
X51462Y-50853D02*
X51462Y-51005D01*
X51767Y-50853D02*
X51767Y-51005D01*
X52949Y-51958D02*
X52911Y-51919D01*
X52835Y-51805D01*
X52797Y-51729D01*
X52759Y-51615D01*
X52720Y-51424D01*
X52720Y-51272D01*
X52759Y-51081D01*
X52797Y-50967D01*
X52835Y-50891D01*
X52911Y-50777D01*
X52949Y-50739D01*
X53215Y-50929D02*
X53253Y-50891D01*
X53330Y-50853D01*
X53520Y-50853D01*
X53596Y-50891D01*
X53634Y-50929D01*
X53673Y-51005D01*
X53673Y-51081D01*
X53634Y-51196D01*
X53177Y-51653D01*
X53673Y-51653D01*
X54625Y-51653D02*
X54625Y-50853D01*
X54968Y-51653D02*
X54968Y-51234D01*
X54930Y-51158D01*
X54854Y-51119D01*
X54740Y-51119D01*
X54664Y-51158D01*
X54625Y-51196D01*
X55464Y-51653D02*
X55388Y-51615D01*
X55349Y-51577D01*
X55311Y-51500D01*
X55311Y-51272D01*
X55349Y-51196D01*
X55388Y-51158D01*
X55464Y-51119D01*
X55578Y-51119D01*
X55654Y-51158D01*
X55692Y-51196D01*
X55730Y-51272D01*
X55730Y-51500D01*
X55692Y-51577D01*
X55654Y-51615D01*
X55578Y-51653D01*
X55464Y-51653D01*
X56188Y-51653D02*
X56112Y-51615D01*
X56073Y-51539D01*
X56073Y-50853D01*
X56797Y-51615D02*
X56721Y-51653D01*
X56569Y-51653D01*
X56492Y-51615D01*
X56454Y-51539D01*
X56454Y-51234D01*
X56492Y-51158D01*
X56569Y-51119D01*
X56721Y-51119D01*
X56797Y-51158D01*
X56835Y-51234D01*
X56835Y-51310D01*
X56454Y-51386D01*
X57140Y-51615D02*
X57217Y-51653D01*
X57369Y-51653D01*
X57445Y-51615D01*
X57483Y-51539D01*
X57483Y-51500D01*
X57445Y-51424D01*
X57369Y-51386D01*
X57255Y-51386D01*
X57178Y-51348D01*
X57140Y-51272D01*
X57140Y-51234D01*
X57178Y-51158D01*
X57255Y-51119D01*
X57369Y-51119D01*
X57445Y-51158D01*
X57750Y-51958D02*
X57788Y-51919D01*
X57865Y-51805D01*
X57903Y-51729D01*
X57941Y-51615D01*
X57979Y-51424D01*
X57979Y-51272D01*
X57941Y-51081D01*
X57903Y-50967D01*
X57865Y-50891D01*
X57788Y-50777D01*
X57750Y-50739D01*
X40664Y-52227D02*
X40664Y-52541D01*
X40821Y-52384D02*
X40507Y-52384D01*
X41365Y-51908D02*
X41441Y-51908D01*
X41517Y-51946D01*
X41555Y-51984D01*
X41593Y-52060D01*
X41632Y-52213D01*
X41632Y-52403D01*
X41593Y-52555D01*
X41555Y-52632D01*
X41517Y-52670D01*
X41441Y-52708D01*
X41365Y-52708D01*
X41289Y-52670D01*
X41251Y-52632D01*
X41212Y-52555D01*
X41174Y-52403D01*
X41174Y-52213D01*
X41212Y-52060D01*
X41251Y-51984D01*
X41289Y-51946D01*
X41365Y-51908D01*
X41974Y-52632D02*
X42013Y-52670D01*
X41974Y-52708D01*
X41936Y-52670D01*
X41974Y-52632D01*
X41974Y-52708D01*
X42470Y-52251D02*
X42394Y-52213D01*
X42355Y-52174D01*
X42317Y-52098D01*
X42317Y-52060D01*
X42355Y-51984D01*
X42394Y-51946D01*
X42470Y-51908D01*
X42622Y-51908D01*
X42698Y-51946D01*
X42736Y-51984D01*
X42775Y-52060D01*
X42775Y-52098D01*
X42736Y-52174D01*
X42698Y-52213D01*
X42622Y-52251D01*
X42470Y-52251D01*
X42394Y-52289D01*
X42355Y-52327D01*
X42317Y-52403D01*
X42317Y-52555D01*
X42355Y-52632D01*
X42394Y-52670D01*
X42470Y-52708D01*
X42622Y-52708D01*
X42698Y-52670D01*
X42736Y-52632D01*
X42775Y-52555D01*
X42775Y-52403D01*
X42736Y-52327D01*
X42698Y-52289D01*
X42622Y-52251D01*
X43270Y-51908D02*
X43346Y-51908D01*
X43422Y-51946D01*
X43460Y-51984D01*
X43498Y-52060D01*
X43537Y-52213D01*
X43537Y-52403D01*
X43498Y-52555D01*
X43460Y-52632D01*
X43422Y-52670D01*
X43346Y-52708D01*
X43270Y-52708D01*
X43194Y-52670D01*
X43156Y-52632D01*
X43117Y-52555D01*
X43079Y-52403D01*
X43079Y-52213D01*
X43117Y-52060D01*
X43156Y-51984D01*
X43194Y-51946D01*
X43270Y-51908D01*
X43879Y-52708D02*
X43879Y-52174D01*
X43879Y-52251D02*
X43918Y-52213D01*
X43994Y-52174D01*
X44108Y-52174D01*
X44184Y-52213D01*
X44222Y-52289D01*
X44222Y-52708D01*
X44222Y-52289D02*
X44260Y-52213D01*
X44337Y-52174D01*
X44451Y-52174D01*
X44527Y-52213D01*
X44565Y-52289D01*
X44565Y-52708D01*
X44946Y-52708D02*
X44946Y-52174D01*
X44946Y-52251D02*
X44985Y-52213D01*
X45061Y-52174D01*
X45175Y-52174D01*
X45251Y-52213D01*
X45289Y-52289D01*
X45289Y-52708D01*
X45289Y-52289D02*
X45327Y-52213D01*
X45404Y-52174D01*
X45518Y-52174D01*
X45594Y-52213D01*
X45632Y-52289D01*
X45632Y-52708D01*
X47195Y-51870D02*
X46509Y-52898D01*
X48224Y-51908D02*
X48300Y-51908D01*
X48376Y-51946D01*
X48414Y-51984D01*
X48452Y-52060D01*
X48491Y-52213D01*
X48491Y-52403D01*
X48452Y-52555D01*
X48414Y-52632D01*
X48376Y-52670D01*
X48300Y-52708D01*
X48224Y-52708D01*
X48148Y-52670D01*
X48110Y-52632D01*
X48071Y-52555D01*
X48033Y-52403D01*
X48033Y-52213D01*
X48071Y-52060D01*
X48110Y-51984D01*
X48148Y-51946D01*
X48224Y-51908D01*
X48833Y-52632D02*
X48872Y-52670D01*
X48833Y-52708D01*
X48795Y-52670D01*
X48833Y-52632D01*
X48833Y-52708D01*
X49367Y-51908D02*
X49443Y-51908D01*
X49519Y-51946D01*
X49557Y-51984D01*
X49595Y-52060D01*
X49634Y-52213D01*
X49634Y-52403D01*
X49595Y-52555D01*
X49557Y-52632D01*
X49519Y-52670D01*
X49443Y-52708D01*
X49367Y-52708D01*
X49291Y-52670D01*
X49253Y-52632D01*
X49214Y-52555D01*
X49176Y-52403D01*
X49176Y-52213D01*
X49214Y-52060D01*
X49253Y-51984D01*
X49291Y-51946D01*
X49367Y-51908D01*
X49900Y-51908D02*
X50396Y-51908D01*
X50129Y-52213D01*
X50243Y-52213D01*
X50319Y-52251D01*
X50357Y-52289D01*
X50396Y-52365D01*
X50396Y-52555D01*
X50357Y-52632D01*
X50319Y-52670D01*
X50243Y-52708D01*
X50015Y-52708D01*
X49938Y-52670D01*
X49900Y-52632D01*
X50700Y-51984D02*
X50738Y-51946D01*
X50815Y-51908D01*
X51005Y-51908D01*
X51081Y-51946D01*
X51119Y-51984D01*
X51158Y-52060D01*
X51158Y-52136D01*
X51119Y-52251D01*
X50662Y-52708D01*
X51158Y-52708D01*
X51462Y-51908D02*
X51462Y-52060D01*
X51767Y-51908D02*
X51767Y-52060D01*
X52949Y-53013D02*
X52911Y-52974D01*
X52835Y-52860D01*
X52797Y-52784D01*
X52759Y-52670D01*
X52720Y-52479D01*
X52720Y-52327D01*
X52759Y-52136D01*
X52797Y-52022D01*
X52835Y-51946D01*
X52911Y-51832D01*
X52949Y-51794D01*
X53673Y-52708D02*
X53215Y-52708D01*
X53444Y-52708D02*
X53444Y-51908D01*
X53368Y-52022D01*
X53292Y-52098D01*
X53215Y-52136D01*
X54168Y-51908D02*
X54244Y-51908D01*
X54320Y-51946D01*
X54358Y-51984D01*
X54396Y-52060D01*
X54435Y-52213D01*
X54435Y-52403D01*
X54396Y-52555D01*
X54358Y-52632D01*
X54320Y-52670D01*
X54244Y-52708D01*
X54168Y-52708D01*
X54092Y-52670D01*
X54054Y-52632D01*
X54015Y-52555D01*
X53977Y-52403D01*
X53977Y-52213D01*
X54015Y-52060D01*
X54054Y-51984D01*
X54092Y-51946D01*
X54168Y-51908D01*
X54701Y-51908D02*
X55197Y-51908D01*
X54930Y-52213D01*
X55044Y-52213D01*
X55120Y-52251D01*
X55158Y-52289D01*
X55197Y-52365D01*
X55197Y-52555D01*
X55158Y-52632D01*
X55120Y-52670D01*
X55044Y-52708D01*
X54816Y-52708D01*
X54739Y-52670D01*
X54701Y-52632D01*
X56149Y-52708D02*
X56149Y-51908D01*
X56492Y-52708D02*
X56492Y-52289D01*
X56454Y-52213D01*
X56378Y-52174D01*
X56264Y-52174D01*
X56188Y-52213D01*
X56149Y-52251D01*
X56988Y-52708D02*
X56912Y-52670D01*
X56873Y-52632D01*
X56835Y-52555D01*
X56835Y-52327D01*
X56873Y-52251D01*
X56912Y-52213D01*
X56988Y-52174D01*
X57102Y-52174D01*
X57178Y-52213D01*
X57216Y-52251D01*
X57254Y-52327D01*
X57254Y-52555D01*
X57216Y-52632D01*
X57178Y-52670D01*
X57102Y-52708D01*
X56988Y-52708D01*
X57712Y-52708D02*
X57636Y-52670D01*
X57597Y-52594D01*
X57597Y-51908D01*
X58321Y-52670D02*
X58245Y-52708D01*
X58093Y-52708D01*
X58016Y-52670D01*
X57978Y-52594D01*
X57978Y-52289D01*
X58016Y-52213D01*
X58093Y-52174D01*
X58245Y-52174D01*
X58321Y-52213D01*
X58359Y-52289D01*
X58359Y-52365D01*
X57978Y-52441D01*
X58664Y-52670D02*
X58741Y-52708D01*
X58893Y-52708D01*
X58969Y-52670D01*
X59007Y-52594D01*
X59007Y-52555D01*
X58969Y-52479D01*
X58893Y-52441D01*
X58779Y-52441D01*
X58702Y-52403D01*
X58664Y-52327D01*
X58664Y-52289D01*
X58702Y-52213D01*
X58779Y-52174D01*
X58893Y-52174D01*
X58969Y-52213D01*
X59274Y-53013D02*
X59312Y-52974D01*
X59389Y-52860D01*
X59427Y-52784D01*
X59465Y-52670D01*
X59503Y-52479D01*
X59503Y-52327D01*
X59465Y-52136D01*
X59427Y-52022D01*
X59389Y-51946D01*
X59312Y-51832D01*
X59274Y-51794D01*
G54D10*
X40822Y-53439D02*
X40818Y-53470D01*
X40809Y-53499D01*
X40795Y-53527D01*
X40775Y-53551D01*
X40751Y-53571D01*
X40724Y-53586D01*
X40694Y-53595D01*
X40663Y-53598D01*
X40633Y-53596D01*
X40603Y-53587D01*
X40575Y-53572D01*
X40551Y-53553D01*
X40530Y-53529D01*
X40515Y-53502D01*
X40506Y-53472D01*
X40503Y-53441D01*
X40505Y-53411D01*
X40514Y-53381D01*
X40528Y-53353D01*
X40547Y-53328D01*
X40571Y-53308D01*
X40598Y-53293D01*
X40628Y-53283D01*
X40659Y-53280D01*
X40689Y-53282D01*
X40719Y-53290D01*
X40747Y-53304D01*
X40772Y-53324D01*
X40792Y-53347D01*
X40808Y-53374D01*
X40818Y-53404D01*
X40821Y-53435D01*
X40822Y-53439D01*
X40502Y-53279D02*
X40822Y-53599D01*
X40822Y-53279D02*
X40502Y-53599D01*
G54D12*
X41365Y-52963D02*
X41441Y-52963D01*
X41517Y-53001D01*
X41555Y-53039D01*
X41593Y-53115D01*
X41632Y-53268D01*
X41632Y-53458D01*
X41593Y-53610D01*
X41555Y-53687D01*
X41517Y-53725D01*
X41441Y-53763D01*
X41365Y-53763D01*
X41289Y-53725D01*
X41251Y-53687D01*
X41212Y-53610D01*
X41174Y-53458D01*
X41174Y-53268D01*
X41212Y-53115D01*
X41251Y-53039D01*
X41289Y-53001D01*
X41365Y-52963D01*
X41974Y-53687D02*
X42013Y-53725D01*
X41974Y-53763D01*
X41936Y-53725D01*
X41974Y-53687D01*
X41974Y-53763D01*
X42470Y-53306D02*
X42394Y-53268D01*
X42355Y-53229D01*
X42317Y-53153D01*
X42317Y-53115D01*
X42355Y-53039D01*
X42394Y-53001D01*
X42470Y-52963D01*
X42622Y-52963D01*
X42698Y-53001D01*
X42736Y-53039D01*
X42775Y-53115D01*
X42775Y-53153D01*
X42736Y-53229D01*
X42698Y-53268D01*
X42622Y-53306D01*
X42470Y-53306D01*
X42394Y-53344D01*
X42355Y-53382D01*
X42317Y-53458D01*
X42317Y-53610D01*
X42355Y-53687D01*
X42394Y-53725D01*
X42470Y-53763D01*
X42622Y-53763D01*
X42698Y-53725D01*
X42736Y-53687D01*
X42775Y-53610D01*
X42775Y-53458D01*
X42736Y-53382D01*
X42698Y-53344D01*
X42622Y-53306D01*
X43537Y-53763D02*
X43079Y-53763D01*
X43308Y-53763D02*
X43308Y-52963D01*
X43232Y-53077D01*
X43156Y-53153D01*
X43079Y-53191D01*
X43879Y-53763D02*
X43879Y-53229D01*
X43879Y-53306D02*
X43918Y-53268D01*
X43994Y-53229D01*
X44108Y-53229D01*
X44184Y-53268D01*
X44222Y-53344D01*
X44222Y-53763D01*
X44222Y-53344D02*
X44260Y-53268D01*
X44337Y-53229D01*
X44451Y-53229D01*
X44527Y-53268D01*
X44565Y-53344D01*
X44565Y-53763D01*
X44946Y-53763D02*
X44946Y-53229D01*
X44946Y-53306D02*
X44985Y-53268D01*
X45061Y-53229D01*
X45175Y-53229D01*
X45251Y-53268D01*
X45289Y-53344D01*
X45289Y-53763D01*
X45289Y-53344D02*
X45327Y-53268D01*
X45404Y-53229D01*
X45518Y-53229D01*
X45594Y-53268D01*
X45632Y-53344D01*
X45632Y-53763D01*
X47195Y-52925D02*
X46509Y-53953D01*
X48224Y-52963D02*
X48300Y-52963D01*
X48376Y-53001D01*
X48414Y-53039D01*
X48452Y-53115D01*
X48491Y-53268D01*
X48491Y-53458D01*
X48452Y-53610D01*
X48414Y-53687D01*
X48376Y-53725D01*
X48300Y-53763D01*
X48224Y-53763D01*
X48148Y-53725D01*
X48110Y-53687D01*
X48071Y-53610D01*
X48033Y-53458D01*
X48033Y-53268D01*
X48071Y-53115D01*
X48110Y-53039D01*
X48148Y-53001D01*
X48224Y-52963D01*
X48833Y-53687D02*
X48872Y-53725D01*
X48833Y-53763D01*
X48795Y-53725D01*
X48833Y-53687D01*
X48833Y-53763D01*
X49367Y-52963D02*
X49443Y-52963D01*
X49519Y-53001D01*
X49557Y-53039D01*
X49595Y-53115D01*
X49634Y-53268D01*
X49634Y-53458D01*
X49595Y-53610D01*
X49557Y-53687D01*
X49519Y-53725D01*
X49443Y-53763D01*
X49367Y-53763D01*
X49291Y-53725D01*
X49253Y-53687D01*
X49214Y-53610D01*
X49176Y-53458D01*
X49176Y-53268D01*
X49214Y-53115D01*
X49253Y-53039D01*
X49291Y-53001D01*
X49367Y-52963D01*
X49900Y-52963D02*
X50396Y-52963D01*
X50129Y-53268D01*
X50243Y-53268D01*
X50319Y-53306D01*
X50357Y-53344D01*
X50396Y-53420D01*
X50396Y-53610D01*
X50357Y-53687D01*
X50319Y-53725D01*
X50243Y-53763D01*
X50015Y-53763D01*
X49938Y-53725D01*
X49900Y-53687D01*
X50700Y-53039D02*
X50738Y-53001D01*
X50815Y-52963D01*
X51005Y-52963D01*
X51081Y-53001D01*
X51119Y-53039D01*
X51158Y-53115D01*
X51158Y-53191D01*
X51119Y-53306D01*
X50662Y-53763D01*
X51158Y-53763D01*
X51462Y-52963D02*
X51462Y-53115D01*
X51767Y-52963D02*
X51767Y-53115D01*
X52949Y-54068D02*
X52911Y-54029D01*
X52835Y-53915D01*
X52797Y-53839D01*
X52759Y-53725D01*
X52720Y-53534D01*
X52720Y-53382D01*
X52759Y-53191D01*
X52797Y-53077D01*
X52835Y-53001D01*
X52911Y-52887D01*
X52949Y-52849D01*
X53673Y-53763D02*
X53215Y-53763D01*
X53444Y-53763D02*
X53444Y-52963D01*
X53368Y-53077D01*
X53292Y-53153D01*
X53215Y-53191D01*
X54358Y-53229D02*
X54358Y-53763D01*
X54168Y-52925D02*
X53977Y-53496D01*
X54473Y-53496D01*
X55387Y-53763D02*
X55387Y-52963D01*
X55730Y-53763D02*
X55730Y-53344D01*
X55692Y-53268D01*
X55616Y-53229D01*
X55502Y-53229D01*
X55426Y-53268D01*
X55387Y-53306D01*
X56226Y-53763D02*
X56150Y-53725D01*
X56111Y-53687D01*
X56073Y-53610D01*
X56073Y-53382D01*
X56111Y-53306D01*
X56150Y-53268D01*
X56226Y-53229D01*
X56340Y-53229D01*
X56416Y-53268D01*
X56454Y-53306D01*
X56492Y-53382D01*
X56492Y-53610D01*
X56454Y-53687D01*
X56416Y-53725D01*
X56340Y-53763D01*
X56226Y-53763D01*
X56950Y-53763D02*
X56874Y-53725D01*
X56835Y-53649D01*
X56835Y-52963D01*
X57559Y-53725D02*
X57483Y-53763D01*
X57331Y-53763D01*
X57254Y-53725D01*
X57216Y-53649D01*
X57216Y-53344D01*
X57254Y-53268D01*
X57331Y-53229D01*
X57483Y-53229D01*
X57559Y-53268D01*
X57597Y-53344D01*
X57597Y-53420D01*
X57216Y-53496D01*
X57902Y-53725D02*
X57979Y-53763D01*
X58131Y-53763D01*
X58207Y-53725D01*
X58245Y-53649D01*
X58245Y-53610D01*
X58207Y-53534D01*
X58131Y-53496D01*
X58017Y-53496D01*
X57940Y-53458D01*
X57902Y-53382D01*
X57902Y-53344D01*
X57940Y-53268D01*
X58017Y-53229D01*
X58131Y-53229D01*
X58207Y-53268D01*
X58512Y-54068D02*
X58550Y-54029D01*
X58627Y-53915D01*
X58665Y-53839D01*
X58703Y-53725D01*
X58741Y-53534D01*
X58741Y-53382D01*
X58703Y-53191D01*
X58665Y-53077D01*
X58627Y-53001D01*
X58550Y-52887D01*
X58512Y-52849D01*
G54D10*
X40822Y-54494D02*
X40818Y-54532D01*
X40806Y-54570D01*
X40788Y-54604D01*
X40763Y-54634D01*
X40733Y-54659D01*
X40699Y-54678D01*
X40662Y-54689D01*
X40623Y-54693D01*
X40585Y-54690D01*
X40548Y-54679D01*
X40513Y-54661D01*
X40483Y-54636D01*
X40457Y-54606D01*
X40439Y-54572D01*
X40427Y-54535D01*
X40423Y-54496D01*
X40426Y-54458D01*
X40437Y-54421D01*
X40454Y-54386D01*
X40479Y-54356D01*
X40508Y-54330D01*
X40542Y-54311D01*
X40580Y-54299D01*
X40618Y-54295D01*
X40656Y-54298D01*
X40694Y-54308D01*
X40729Y-54326D01*
X40759Y-54350D01*
X40785Y-54379D01*
X40804Y-54413D01*
X40817Y-54450D01*
X40821Y-54489D01*
X40822Y-54494D01*
X40422Y-54494D02*
X40822Y-54494D01*
G54D12*
X41632Y-54818D02*
X41174Y-54818D01*
X41403Y-54818D02*
X41403Y-54018D01*
X41327Y-54132D01*
X41251Y-54208D01*
X41174Y-54246D01*
X41974Y-54742D02*
X42013Y-54780D01*
X41974Y-54818D01*
X41936Y-54780D01*
X41974Y-54742D01*
X41974Y-54818D01*
X42508Y-54018D02*
X42584Y-54018D01*
X42660Y-54056D01*
X42698Y-54094D01*
X42736Y-54170D01*
X42775Y-54323D01*
X42775Y-54513D01*
X42736Y-54665D01*
X42698Y-54742D01*
X42660Y-54780D01*
X42584Y-54818D01*
X42508Y-54818D01*
X42432Y-54780D01*
X42394Y-54742D01*
X42355Y-54665D01*
X42317Y-54513D01*
X42317Y-54323D01*
X42355Y-54170D01*
X42394Y-54094D01*
X42432Y-54056D01*
X42508Y-54018D01*
X43079Y-54094D02*
X43117Y-54056D01*
X43194Y-54018D01*
X43384Y-54018D01*
X43460Y-54056D01*
X43498Y-54094D01*
X43537Y-54170D01*
X43537Y-54246D01*
X43498Y-54361D01*
X43041Y-54818D01*
X43537Y-54818D01*
X43879Y-54818D02*
X43879Y-54284D01*
X43879Y-54361D02*
X43918Y-54323D01*
X43994Y-54284D01*
X44108Y-54284D01*
X44184Y-54323D01*
X44222Y-54399D01*
X44222Y-54818D01*
X44222Y-54399D02*
X44260Y-54323D01*
X44337Y-54284D01*
X44451Y-54284D01*
X44527Y-54323D01*
X44565Y-54399D01*
X44565Y-54818D01*
X44946Y-54818D02*
X44946Y-54284D01*
X44946Y-54361D02*
X44985Y-54323D01*
X45061Y-54284D01*
X45175Y-54284D01*
X45251Y-54323D01*
X45289Y-54399D01*
X45289Y-54818D01*
X45289Y-54399D02*
X45327Y-54323D01*
X45404Y-54284D01*
X45518Y-54284D01*
X45594Y-54323D01*
X45632Y-54399D01*
X45632Y-54818D01*
X47195Y-53980D02*
X46509Y-55008D01*
X48224Y-54018D02*
X48300Y-54018D01*
X48376Y-54056D01*
X48414Y-54094D01*
X48452Y-54170D01*
X48491Y-54323D01*
X48491Y-54513D01*
X48452Y-54665D01*
X48414Y-54742D01*
X48376Y-54780D01*
X48300Y-54818D01*
X48224Y-54818D01*
X48148Y-54780D01*
X48110Y-54742D01*
X48071Y-54665D01*
X48033Y-54513D01*
X48033Y-54323D01*
X48071Y-54170D01*
X48110Y-54094D01*
X48148Y-54056D01*
X48224Y-54018D01*
X48833Y-54742D02*
X48872Y-54780D01*
X48833Y-54818D01*
X48795Y-54780D01*
X48833Y-54742D01*
X48833Y-54818D01*
X49367Y-54018D02*
X49443Y-54018D01*
X49519Y-54056D01*
X49557Y-54094D01*
X49595Y-54170D01*
X49634Y-54323D01*
X49634Y-54513D01*
X49595Y-54665D01*
X49557Y-54742D01*
X49519Y-54780D01*
X49443Y-54818D01*
X49367Y-54818D01*
X49291Y-54780D01*
X49253Y-54742D01*
X49214Y-54665D01*
X49176Y-54513D01*
X49176Y-54323D01*
X49214Y-54170D01*
X49253Y-54094D01*
X49291Y-54056D01*
X49367Y-54018D01*
X50319Y-54284D02*
X50319Y-54818D01*
X50129Y-53980D02*
X49938Y-54551D01*
X50434Y-54551D01*
X50891Y-54018D02*
X50967Y-54018D01*
X51043Y-54056D01*
X51081Y-54094D01*
X51119Y-54170D01*
X51158Y-54323D01*
X51158Y-54513D01*
X51119Y-54665D01*
X51081Y-54742D01*
X51043Y-54780D01*
X50967Y-54818D01*
X50891Y-54818D01*
X50815Y-54780D01*
X50777Y-54742D01*
X50738Y-54665D01*
X50700Y-54513D01*
X50700Y-54323D01*
X50738Y-54170D01*
X50777Y-54094D01*
X50815Y-54056D01*
X50891Y-54018D01*
X51462Y-54018D02*
X51462Y-54170D01*
X51767Y-54018D02*
X51767Y-54170D01*
X52949Y-55123D02*
X52911Y-55084D01*
X52835Y-54970D01*
X52797Y-54894D01*
X52759Y-54780D01*
X52720Y-54589D01*
X52720Y-54437D01*
X52759Y-54246D01*
X52797Y-54132D01*
X52835Y-54056D01*
X52911Y-53942D01*
X52949Y-53904D01*
X53177Y-54018D02*
X53673Y-54018D01*
X53406Y-54323D01*
X53520Y-54323D01*
X53596Y-54361D01*
X53634Y-54399D01*
X53673Y-54475D01*
X53673Y-54665D01*
X53634Y-54742D01*
X53596Y-54780D01*
X53520Y-54818D01*
X53292Y-54818D01*
X53215Y-54780D01*
X53177Y-54742D01*
X54625Y-54818D02*
X54625Y-54018D01*
X54968Y-54818D02*
X54968Y-54399D01*
X54930Y-54323D01*
X54854Y-54284D01*
X54740Y-54284D01*
X54664Y-54323D01*
X54625Y-54361D01*
X55464Y-54818D02*
X55388Y-54780D01*
X55349Y-54742D01*
X55311Y-54665D01*
X55311Y-54437D01*
X55349Y-54361D01*
X55388Y-54323D01*
X55464Y-54284D01*
X55578Y-54284D01*
X55654Y-54323D01*
X55692Y-54361D01*
X55730Y-54437D01*
X55730Y-54665D01*
X55692Y-54742D01*
X55654Y-54780D01*
X55578Y-54818D01*
X55464Y-54818D01*
X56188Y-54818D02*
X56112Y-54780D01*
X56073Y-54704D01*
X56073Y-54018D01*
X56797Y-54780D02*
X56721Y-54818D01*
X56569Y-54818D01*
X56492Y-54780D01*
X56454Y-54704D01*
X56454Y-54399D01*
X56492Y-54323D01*
X56569Y-54284D01*
X56721Y-54284D01*
X56797Y-54323D01*
X56835Y-54399D01*
X56835Y-54475D01*
X56454Y-54551D01*
X57140Y-54780D02*
X57217Y-54818D01*
X57369Y-54818D01*
X57445Y-54780D01*
X57483Y-54704D01*
X57483Y-54665D01*
X57445Y-54589D01*
X57369Y-54551D01*
X57255Y-54551D01*
X57178Y-54513D01*
X57140Y-54437D01*
X57140Y-54399D01*
X57178Y-54323D01*
X57255Y-54284D01*
X57369Y-54284D01*
X57445Y-54323D01*
X57750Y-55123D02*
X57788Y-55084D01*
X57865Y-54970D01*
X57903Y-54894D01*
X57941Y-54780D01*
X57979Y-54589D01*
X57979Y-54437D01*
X57941Y-54246D01*
X57903Y-54132D01*
X57865Y-54056D01*
X57788Y-53942D01*
X57750Y-53904D01*
G54D10*
X40821Y-55549D02*
X40813Y-55625D01*
X40791Y-55698D01*
X40755Y-55766D01*
X40706Y-55825D01*
X40647Y-55874D01*
X40580Y-55911D01*
X40507Y-55933D01*
X40430Y-55941D01*
X40355Y-55935D01*
X40281Y-55913D01*
X40213Y-55877D01*
X40154Y-55829D01*
X40104Y-55771D01*
X40067Y-55703D01*
X40044Y-55630D01*
X40036Y-55554D01*
X40042Y-55479D01*
X40063Y-55405D01*
X40098Y-55337D01*
X40146Y-55276D01*
X40204Y-55227D01*
X40271Y-55189D01*
X40344Y-55166D01*
X40420Y-55157D01*
X40496Y-55162D01*
X40570Y-55183D01*
X40638Y-55218D01*
X40699Y-55265D01*
X40749Y-55323D01*
X40787Y-55390D01*
X40811Y-55462D01*
X40820Y-55539D01*
X40821Y-55549D01*
X40428Y-55156D02*
X40428Y-55942D01*
G54D12*
X41174Y-55149D02*
X41212Y-55111D01*
X41289Y-55073D01*
X41479Y-55073D01*
X41555Y-55111D01*
X41593Y-55149D01*
X41632Y-55225D01*
X41632Y-55301D01*
X41593Y-55416D01*
X41136Y-55873D01*
X41632Y-55873D01*
X41974Y-55797D02*
X42013Y-55835D01*
X41974Y-55873D01*
X41936Y-55835D01*
X41974Y-55797D01*
X41974Y-55873D01*
X42508Y-55073D02*
X42584Y-55073D01*
X42660Y-55111D01*
X42698Y-55149D01*
X42736Y-55225D01*
X42775Y-55378D01*
X42775Y-55568D01*
X42736Y-55720D01*
X42698Y-55797D01*
X42660Y-55835D01*
X42584Y-55873D01*
X42508Y-55873D01*
X42432Y-55835D01*
X42394Y-55797D01*
X42355Y-55720D01*
X42317Y-55568D01*
X42317Y-55378D01*
X42355Y-55225D01*
X42394Y-55149D01*
X42432Y-55111D01*
X42508Y-55073D01*
X43270Y-55073D02*
X43346Y-55073D01*
X43422Y-55111D01*
X43460Y-55149D01*
X43498Y-55225D01*
X43537Y-55378D01*
X43537Y-55568D01*
X43498Y-55720D01*
X43460Y-55797D01*
X43422Y-55835D01*
X43346Y-55873D01*
X43270Y-55873D01*
X43194Y-55835D01*
X43156Y-55797D01*
X43117Y-55720D01*
X43079Y-55568D01*
X43079Y-55378D01*
X43117Y-55225D01*
X43156Y-55149D01*
X43194Y-55111D01*
X43270Y-55073D01*
X43879Y-55873D02*
X43879Y-55339D01*
X43879Y-55416D02*
X43918Y-55378D01*
X43994Y-55339D01*
X44108Y-55339D01*
X44184Y-55378D01*
X44222Y-55454D01*
X44222Y-55873D01*
X44222Y-55454D02*
X44260Y-55378D01*
X44337Y-55339D01*
X44451Y-55339D01*
X44527Y-55378D01*
X44565Y-55454D01*
X44565Y-55873D01*
X44946Y-55873D02*
X44946Y-55339D01*
X44946Y-55416D02*
X44985Y-55378D01*
X45061Y-55339D01*
X45175Y-55339D01*
X45251Y-55378D01*
X45289Y-55454D01*
X45289Y-55873D01*
X45289Y-55454D02*
X45327Y-55378D01*
X45404Y-55339D01*
X45518Y-55339D01*
X45594Y-55378D01*
X45632Y-55454D01*
X45632Y-55873D01*
X47195Y-55035D02*
X46509Y-56063D01*
X48224Y-55073D02*
X48300Y-55073D01*
X48376Y-55111D01*
X48414Y-55149D01*
X48452Y-55225D01*
X48491Y-55378D01*
X48491Y-55568D01*
X48452Y-55720D01*
X48414Y-55797D01*
X48376Y-55835D01*
X48300Y-55873D01*
X48224Y-55873D01*
X48148Y-55835D01*
X48110Y-55797D01*
X48071Y-55720D01*
X48033Y-55568D01*
X48033Y-55378D01*
X48071Y-55225D01*
X48110Y-55149D01*
X48148Y-55111D01*
X48224Y-55073D01*
X48833Y-55797D02*
X48872Y-55835D01*
X48833Y-55873D01*
X48795Y-55835D01*
X48833Y-55797D01*
X48833Y-55873D01*
X49367Y-55073D02*
X49443Y-55073D01*
X49519Y-55111D01*
X49557Y-55149D01*
X49595Y-55225D01*
X49634Y-55378D01*
X49634Y-55568D01*
X49595Y-55720D01*
X49557Y-55797D01*
X49519Y-55835D01*
X49443Y-55873D01*
X49367Y-55873D01*
X49291Y-55835D01*
X49253Y-55797D01*
X49214Y-55720D01*
X49176Y-55568D01*
X49176Y-55378D01*
X49214Y-55225D01*
X49253Y-55149D01*
X49291Y-55111D01*
X49367Y-55073D01*
X49900Y-55073D02*
X50434Y-55073D01*
X50091Y-55873D01*
X50777Y-55873D02*
X50929Y-55873D01*
X51005Y-55835D01*
X51043Y-55797D01*
X51119Y-55682D01*
X51158Y-55530D01*
X51158Y-55225D01*
X51119Y-55149D01*
X51081Y-55111D01*
X51005Y-55073D01*
X50853Y-55073D01*
X50777Y-55111D01*
X50738Y-55149D01*
X50700Y-55225D01*
X50700Y-55416D01*
X50738Y-55492D01*
X50777Y-55530D01*
X50853Y-55568D01*
X51005Y-55568D01*
X51081Y-55530D01*
X51119Y-55492D01*
X51158Y-55416D01*
X51462Y-55073D02*
X51462Y-55225D01*
X51767Y-55073D02*
X51767Y-55225D01*
X52949Y-56178D02*
X52911Y-56139D01*
X52835Y-56025D01*
X52797Y-55949D01*
X52759Y-55835D01*
X52720Y-55644D01*
X52720Y-55492D01*
X52759Y-55301D01*
X52797Y-55187D01*
X52835Y-55111D01*
X52911Y-54997D01*
X52949Y-54959D01*
X53596Y-55339D02*
X53596Y-55873D01*
X53406Y-55035D02*
X53215Y-55606D01*
X53711Y-55606D01*
X54625Y-55873D02*
X54625Y-55073D01*
X54968Y-55873D02*
X54968Y-55454D01*
X54930Y-55378D01*
X54854Y-55339D01*
X54740Y-55339D01*
X54664Y-55378D01*
X54625Y-55416D01*
X55464Y-55873D02*
X55388Y-55835D01*
X55349Y-55797D01*
X55311Y-55720D01*
X55311Y-55492D01*
X55349Y-55416D01*
X55388Y-55378D01*
X55464Y-55339D01*
X55578Y-55339D01*
X55654Y-55378D01*
X55692Y-55416D01*
X55730Y-55492D01*
X55730Y-55720D01*
X55692Y-55797D01*
X55654Y-55835D01*
X55578Y-55873D01*
X55464Y-55873D01*
X56188Y-55873D02*
X56112Y-55835D01*
X56073Y-55759D01*
X56073Y-55073D01*
X56797Y-55835D02*
X56721Y-55873D01*
X56569Y-55873D01*
X56492Y-55835D01*
X56454Y-55759D01*
X56454Y-55454D01*
X56492Y-55378D01*
X56569Y-55339D01*
X56721Y-55339D01*
X56797Y-55378D01*
X56835Y-55454D01*
X56835Y-55530D01*
X56454Y-55606D01*
X57140Y-55835D02*
X57217Y-55873D01*
X57369Y-55873D01*
X57445Y-55835D01*
X57483Y-55759D01*
X57483Y-55720D01*
X57445Y-55644D01*
X57369Y-55606D01*
X57255Y-55606D01*
X57178Y-55568D01*
X57140Y-55492D01*
X57140Y-55454D01*
X57178Y-55378D01*
X57255Y-55339D01*
X57369Y-55339D01*
X57445Y-55378D01*
X57750Y-56178D02*
X57788Y-56139D01*
X57865Y-56025D01*
X57903Y-55949D01*
X57941Y-55835D01*
X57979Y-55644D01*
X57979Y-55492D01*
X57941Y-55301D01*
X57903Y-55187D01*
X57865Y-55111D01*
X57788Y-54997D01*
X57750Y-54959D01*
G54D10*
X40646Y-57040D02*
X40646Y-56192D01*
X39798Y-56192D01*
X39798Y-57040D01*
X40646Y-57040D01*
G54D12*
X41136Y-56140D02*
X41632Y-56140D01*
X41365Y-56445D01*
X41479Y-56445D01*
X41555Y-56483D01*
X41593Y-56521D01*
X41632Y-56597D01*
X41632Y-56787D01*
X41593Y-56864D01*
X41555Y-56902D01*
X41479Y-56940D01*
X41251Y-56940D01*
X41174Y-56902D01*
X41136Y-56864D01*
X41974Y-56864D02*
X42013Y-56902D01*
X41974Y-56940D01*
X41936Y-56902D01*
X41974Y-56864D01*
X41974Y-56940D01*
X42508Y-56140D02*
X42584Y-56140D01*
X42660Y-56178D01*
X42698Y-56216D01*
X42736Y-56292D01*
X42775Y-56445D01*
X42775Y-56635D01*
X42736Y-56787D01*
X42698Y-56864D01*
X42660Y-56902D01*
X42584Y-56940D01*
X42508Y-56940D01*
X42432Y-56902D01*
X42394Y-56864D01*
X42355Y-56787D01*
X42317Y-56635D01*
X42317Y-56445D01*
X42355Y-56292D01*
X42394Y-56216D01*
X42432Y-56178D01*
X42508Y-56140D01*
X43498Y-56140D02*
X43117Y-56140D01*
X43079Y-56521D01*
X43117Y-56483D01*
X43194Y-56445D01*
X43384Y-56445D01*
X43460Y-56483D01*
X43498Y-56521D01*
X43537Y-56597D01*
X43537Y-56787D01*
X43498Y-56864D01*
X43460Y-56902D01*
X43384Y-56940D01*
X43194Y-56940D01*
X43117Y-56902D01*
X43079Y-56864D01*
X43879Y-56940D02*
X43879Y-56406D01*
X43879Y-56483D02*
X43918Y-56445D01*
X43994Y-56406D01*
X44108Y-56406D01*
X44184Y-56445D01*
X44222Y-56521D01*
X44222Y-56940D01*
X44222Y-56521D02*
X44260Y-56445D01*
X44337Y-56406D01*
X44451Y-56406D01*
X44527Y-56445D01*
X44565Y-56521D01*
X44565Y-56940D01*
X44946Y-56940D02*
X44946Y-56406D01*
X44946Y-56483D02*
X44985Y-56445D01*
X45061Y-56406D01*
X45175Y-56406D01*
X45251Y-56445D01*
X45289Y-56521D01*
X45289Y-56940D01*
X45289Y-56521D02*
X45327Y-56445D01*
X45404Y-56406D01*
X45518Y-56406D01*
X45594Y-56445D01*
X45632Y-56521D01*
X45632Y-56940D01*
X47195Y-56102D02*
X46509Y-57130D01*
X48224Y-56140D02*
X48300Y-56140D01*
X48376Y-56178D01*
X48414Y-56216D01*
X48452Y-56292D01*
X48491Y-56445D01*
X48491Y-56635D01*
X48452Y-56787D01*
X48414Y-56864D01*
X48376Y-56902D01*
X48300Y-56940D01*
X48224Y-56940D01*
X48148Y-56902D01*
X48110Y-56864D01*
X48071Y-56787D01*
X48033Y-56635D01*
X48033Y-56445D01*
X48071Y-56292D01*
X48110Y-56216D01*
X48148Y-56178D01*
X48224Y-56140D01*
X48833Y-56864D02*
X48872Y-56902D01*
X48833Y-56940D01*
X48795Y-56902D01*
X48833Y-56864D01*
X48833Y-56940D01*
X49634Y-56940D02*
X49176Y-56940D01*
X49405Y-56940D02*
X49405Y-56140D01*
X49329Y-56254D01*
X49253Y-56330D01*
X49176Y-56368D01*
X49938Y-56216D02*
X49976Y-56178D01*
X50053Y-56140D01*
X50243Y-56140D01*
X50319Y-56178D01*
X50357Y-56216D01*
X50396Y-56292D01*
X50396Y-56368D01*
X50357Y-56483D01*
X49900Y-56940D01*
X50396Y-56940D01*
X50891Y-56140D02*
X50967Y-56140D01*
X51043Y-56178D01*
X51081Y-56216D01*
X51119Y-56292D01*
X51158Y-56445D01*
X51158Y-56635D01*
X51119Y-56787D01*
X51081Y-56864D01*
X51043Y-56902D01*
X50967Y-56940D01*
X50891Y-56940D01*
X50815Y-56902D01*
X50777Y-56864D01*
X50738Y-56787D01*
X50700Y-56635D01*
X50700Y-56445D01*
X50738Y-56292D01*
X50777Y-56216D01*
X50815Y-56178D01*
X50891Y-56140D01*
X51462Y-56140D02*
X51462Y-56292D01*
X51767Y-56140D02*
X51767Y-56292D01*
X52949Y-57245D02*
X52911Y-57206D01*
X52835Y-57092D01*
X52797Y-57016D01*
X52759Y-56902D01*
X52720Y-56711D01*
X52720Y-56559D01*
X52759Y-56368D01*
X52797Y-56254D01*
X52835Y-56178D01*
X52911Y-56064D01*
X52949Y-56026D01*
X53596Y-56406D02*
X53596Y-56940D01*
X53406Y-56102D02*
X53215Y-56673D01*
X53711Y-56673D01*
X54625Y-56940D02*
X54625Y-56140D01*
X54968Y-56940D02*
X54968Y-56521D01*
X54930Y-56445D01*
X54854Y-56406D01*
X54740Y-56406D01*
X54664Y-56445D01*
X54625Y-56483D01*
X55464Y-56940D02*
X55388Y-56902D01*
X55349Y-56864D01*
X55311Y-56787D01*
X55311Y-56559D01*
X55349Y-56483D01*
X55388Y-56445D01*
X55464Y-56406D01*
X55578Y-56406D01*
X55654Y-56445D01*
X55692Y-56483D01*
X55730Y-56559D01*
X55730Y-56787D01*
X55692Y-56864D01*
X55654Y-56902D01*
X55578Y-56940D01*
X55464Y-56940D01*
X56188Y-56940D02*
X56112Y-56902D01*
X56073Y-56826D01*
X56073Y-56140D01*
X56797Y-56902D02*
X56721Y-56940D01*
X56569Y-56940D01*
X56492Y-56902D01*
X56454Y-56826D01*
X56454Y-56521D01*
X56492Y-56445D01*
X56569Y-56406D01*
X56721Y-56406D01*
X56797Y-56445D01*
X56835Y-56521D01*
X56835Y-56597D01*
X56454Y-56673D01*
X57140Y-56902D02*
X57217Y-56940D01*
X57369Y-56940D01*
X57445Y-56902D01*
X57483Y-56826D01*
X57483Y-56787D01*
X57445Y-56711D01*
X57369Y-56673D01*
X57255Y-56673D01*
X57178Y-56635D01*
X57140Y-56559D01*
X57140Y-56521D01*
X57178Y-56445D01*
X57255Y-56406D01*
X57369Y-56406D01*
X57445Y-56445D01*
X57750Y-57245D02*
X57788Y-57206D01*
X57865Y-57092D01*
X57903Y-57016D01*
X57941Y-56902D01*
X57979Y-56711D01*
X57979Y-56559D01*
X57941Y-56368D01*
X57903Y-56254D01*
X57865Y-56178D01*
X57788Y-56064D01*
X57750Y-56026D01*
M02*
