G04 (created by PCBNEW-RS274X (2011-05-25)-stable) date Sun 18 Dec 2011 08:59:16 PM CET*
G01*
G70*
G90*
%MOIN*%
G04 Gerber Fmt 3.4, Leading zero omitted, Abs format*
%FSLAX34Y34*%
G04 APERTURE LIST*
%ADD10C,0.006000*%
%ADD11R,0.118100X0.177200*%
%ADD12C,0.063000*%
%ADD13C,0.157500*%
%ADD14R,0.086600X0.070900*%
%ADD15C,0.070900*%
%ADD16R,0.063000X0.060000*%
%ADD17R,0.060000X0.080000*%
%ADD18R,0.080000X0.060000*%
%ADD19R,0.036000X0.036000*%
%ADD20R,0.050000X0.016000*%
%ADD21C,0.078700*%
%ADD22C,0.082700*%
%ADD23C,0.061000*%
%ADD24C,0.196900*%
%ADD25R,0.177200X0.118100*%
%ADD26R,0.472400X0.236200*%
%ADD27C,0.315000*%
%ADD28C,0.035400*%
%ADD29C,0.035000*%
%ADD30C,0.011800*%
%ADD31C,0.010000*%
G04 APERTURE END LIST*
G54D10*
G54D11*
X46850Y-42717D03*
X46850Y-39567D03*
G54D12*
X54256Y-40035D03*
X53256Y-40035D03*
X52256Y-40035D03*
X51256Y-40035D03*
X51256Y-43035D03*
X52256Y-43035D03*
X53256Y-43035D03*
X54256Y-43035D03*
G54D13*
X85421Y-42675D03*
X85421Y-24175D03*
G54D12*
X84421Y-26925D03*
X84421Y-28025D03*
X84421Y-29075D03*
X84421Y-30175D03*
X84421Y-31275D03*
X84421Y-32375D03*
X84421Y-33425D03*
X84421Y-34525D03*
X84421Y-35625D03*
X84421Y-36725D03*
X84421Y-37775D03*
X84421Y-38875D03*
X84421Y-39975D03*
X85421Y-27545D03*
X85421Y-28545D03*
X85421Y-29645D03*
X85421Y-30725D03*
X85421Y-31805D03*
X85421Y-32905D03*
X85421Y-33985D03*
X85421Y-35065D03*
X85421Y-36185D03*
X85421Y-37245D03*
X85421Y-38325D03*
X85421Y-39425D03*
G54D14*
X62992Y-38974D03*
X62992Y-40554D03*
G54D15*
X54512Y-32480D03*
X56512Y-32480D03*
G54D16*
X69146Y-35131D03*
G54D12*
X69146Y-36131D03*
X64146Y-35131D03*
X68146Y-36131D03*
X63146Y-35131D03*
X67146Y-36131D03*
X62146Y-35131D03*
X66146Y-36131D03*
X61146Y-35131D03*
X65146Y-36131D03*
X60146Y-35131D03*
X64146Y-36131D03*
X59146Y-35131D03*
X63146Y-36131D03*
X58146Y-35131D03*
X62146Y-36131D03*
X57146Y-35131D03*
X61146Y-36131D03*
X56146Y-35131D03*
X60146Y-36131D03*
X55146Y-35131D03*
X59146Y-36131D03*
X54146Y-35131D03*
X58146Y-36131D03*
X57146Y-36131D03*
X53146Y-35131D03*
X56146Y-36131D03*
X54146Y-36131D03*
X53146Y-36131D03*
X52146Y-36131D03*
X51146Y-36131D03*
X52146Y-35131D03*
X51146Y-35131D03*
X68146Y-35131D03*
X67146Y-35131D03*
X66146Y-35131D03*
X65146Y-35131D03*
X50146Y-35131D03*
X50146Y-36131D03*
X55146Y-36131D03*
G54D16*
X69146Y-22138D03*
G54D12*
X69146Y-23138D03*
X64146Y-22138D03*
X68146Y-23138D03*
X63146Y-22138D03*
X67146Y-23138D03*
X62146Y-22138D03*
X66146Y-23138D03*
X61146Y-22138D03*
X65146Y-23138D03*
X60146Y-22138D03*
X64146Y-23138D03*
X59146Y-22138D03*
X63146Y-23138D03*
X58146Y-22138D03*
X62146Y-23138D03*
X57146Y-22138D03*
X61146Y-23138D03*
X56146Y-22138D03*
X60146Y-23138D03*
X55146Y-22138D03*
X59146Y-23138D03*
X54146Y-22138D03*
X58146Y-23138D03*
X57146Y-23138D03*
X53146Y-22138D03*
X56146Y-23138D03*
X54146Y-23138D03*
X53146Y-23138D03*
X52146Y-23138D03*
X51146Y-23138D03*
X52146Y-22138D03*
X51146Y-22138D03*
X68146Y-22138D03*
X67146Y-22138D03*
X66146Y-22138D03*
X65146Y-22138D03*
X50146Y-22138D03*
X50146Y-23138D03*
X55146Y-23138D03*
G54D17*
X79903Y-26086D03*
X81203Y-26086D03*
X75347Y-27265D03*
X74047Y-27265D03*
X81203Y-27228D03*
X79903Y-27228D03*
X75440Y-31466D03*
X74140Y-31466D03*
X74140Y-30246D03*
X75440Y-30246D03*
X76935Y-30324D03*
X78235Y-30324D03*
X74047Y-26124D03*
X75347Y-26124D03*
X77014Y-26125D03*
X78314Y-26125D03*
X78314Y-27306D03*
X77014Y-27306D03*
X79806Y-22136D03*
X81106Y-22136D03*
X81180Y-39939D03*
X79880Y-39939D03*
X79919Y-38758D03*
X81219Y-38758D03*
X78421Y-39978D03*
X77121Y-39978D03*
X77082Y-38797D03*
X78382Y-38797D03*
X81106Y-23318D03*
X79806Y-23318D03*
X74246Y-38758D03*
X75546Y-38758D03*
X75678Y-44346D03*
X74378Y-44346D03*
X74378Y-43244D03*
X75678Y-43244D03*
X78235Y-31466D03*
X76935Y-31466D03*
X77044Y-43204D03*
X78344Y-43204D03*
X81145Y-35606D03*
X79845Y-35606D03*
X79845Y-34464D03*
X81145Y-34464D03*
X81127Y-44346D03*
X79827Y-44346D03*
X79827Y-43204D03*
X81127Y-43204D03*
X78309Y-35685D03*
X77009Y-35685D03*
X77009Y-34543D03*
X78309Y-34543D03*
X53484Y-45669D03*
X54784Y-45669D03*
G54D18*
X52165Y-45729D03*
X52165Y-44429D03*
G54D17*
X74172Y-34544D03*
X75472Y-34544D03*
G54D18*
X50984Y-45729D03*
X50984Y-44429D03*
X50591Y-25137D03*
X50591Y-26437D03*
G54D17*
X53209Y-25000D03*
X51909Y-25000D03*
X53209Y-26378D03*
X51909Y-26378D03*
X59902Y-30709D03*
X58602Y-30709D03*
X59902Y-31890D03*
X58602Y-31890D03*
X75472Y-35725D03*
X74172Y-35725D03*
X79865Y-30285D03*
X81165Y-30285D03*
X81165Y-31466D03*
X79865Y-31466D03*
X78344Y-44346D03*
X77044Y-44346D03*
X75546Y-39860D03*
X74246Y-39860D03*
X53484Y-44488D03*
X54784Y-44488D03*
X53209Y-27756D03*
X51909Y-27756D03*
X52106Y-38583D03*
X53406Y-38583D03*
X53209Y-28937D03*
X51909Y-28937D03*
X51122Y-31496D03*
X52422Y-31496D03*
G54D18*
X82283Y-21988D03*
X82283Y-23288D03*
G54D17*
X51122Y-32874D03*
X52422Y-32874D03*
G54D18*
X58661Y-29587D03*
X58661Y-28287D03*
G54D19*
X80866Y-46045D03*
X80166Y-46045D03*
X80516Y-45245D03*
X78009Y-37423D03*
X77309Y-37423D03*
X77659Y-36623D03*
X75246Y-41559D03*
X74546Y-41559D03*
X74896Y-40759D03*
X78044Y-46045D03*
X77344Y-46045D03*
X77694Y-45245D03*
X80943Y-28967D03*
X80243Y-28967D03*
X80593Y-28167D03*
X78014Y-29005D03*
X77314Y-29005D03*
X77664Y-28205D03*
X80845Y-37266D03*
X80145Y-37266D03*
X80495Y-36466D03*
X75379Y-46045D03*
X74679Y-46045D03*
X75029Y-45245D03*
X75172Y-37503D03*
X74472Y-37503D03*
X74822Y-36703D03*
X80904Y-33204D03*
X80204Y-33204D03*
X80554Y-32404D03*
X80766Y-25056D03*
X80066Y-25056D03*
X80416Y-24256D03*
X78121Y-41717D03*
X77421Y-41717D03*
X77771Y-40917D03*
X80841Y-41717D03*
X80141Y-41717D03*
X80491Y-40917D03*
X75140Y-33205D03*
X74440Y-33205D03*
X74790Y-32405D03*
X75047Y-28925D03*
X74347Y-28925D03*
X74697Y-28125D03*
X77935Y-33165D03*
X77235Y-33165D03*
X77585Y-32365D03*
G54D20*
X57306Y-30390D03*
X57306Y-30140D03*
X57306Y-29880D03*
X57306Y-29620D03*
X57306Y-29370D03*
X57306Y-29110D03*
X57306Y-28850D03*
X57306Y-28600D03*
X57306Y-28340D03*
X57306Y-28090D03*
X57306Y-27830D03*
X57306Y-27570D03*
X57306Y-27320D03*
X57306Y-27060D03*
X54506Y-27060D03*
X54506Y-27320D03*
X54506Y-27560D03*
X54506Y-27830D03*
X54506Y-28090D03*
X54506Y-28340D03*
X54506Y-28600D03*
X54506Y-28850D03*
X54506Y-29110D03*
X54506Y-29370D03*
X54506Y-29620D03*
X54506Y-29880D03*
X54506Y-30140D03*
X54506Y-30390D03*
X60127Y-26960D03*
X60127Y-26705D03*
X60127Y-26445D03*
X60127Y-26190D03*
X58377Y-26190D03*
X58377Y-26445D03*
X58377Y-26705D03*
X58377Y-26960D03*
G54D21*
X42913Y-34236D03*
G54D22*
X42913Y-35236D03*
X42913Y-36236D03*
G54D23*
X47126Y-27469D03*
X47126Y-26469D03*
X46339Y-26469D03*
X46339Y-27469D03*
G54D24*
X45276Y-29331D03*
X45276Y-24607D03*
G54D17*
X58602Y-33268D03*
X59902Y-33268D03*
G54D18*
X73000Y-34350D03*
X73000Y-35650D03*
X73250Y-43100D03*
X73250Y-44400D03*
X72750Y-26100D03*
X72750Y-27400D03*
X73000Y-30100D03*
X73000Y-31400D03*
X73000Y-38600D03*
X73000Y-39900D03*
G54D11*
X66732Y-39764D03*
X66732Y-42914D03*
G54D25*
X77362Y-22835D03*
X74212Y-22835D03*
G54D11*
X46850Y-33071D03*
X46850Y-36221D03*
G54D26*
X58661Y-42993D03*
X58661Y-39685D03*
G54D27*
X43071Y-21417D03*
X43071Y-45906D03*
X88228Y-21417D03*
X88228Y-45906D03*
G54D28*
X79784Y-45409D03*
X85247Y-40713D03*
X68933Y-41559D03*
X67814Y-41271D03*
X76438Y-37423D03*
X78982Y-33963D03*
X71960Y-27153D03*
X72181Y-28343D03*
X69537Y-46045D03*
X83072Y-32412D03*
X69149Y-23808D03*
X76150Y-45065D03*
X69761Y-43564D03*
G54D29*
X85020Y-35584D03*
G54D28*
X79181Y-21685D03*
X87047Y-35581D03*
X68286Y-41280D03*
X67997Y-23752D03*
X78596Y-40737D03*
X79754Y-36875D03*
X80974Y-36311D03*
X76801Y-45931D03*
X78943Y-43494D03*
X55551Y-45630D03*
X61772Y-41024D03*
X77694Y-42724D03*
X74258Y-33846D03*
X76320Y-38797D03*
X77565Y-35106D03*
X79919Y-38054D03*
X76442Y-42678D03*
X74612Y-38048D03*
X72928Y-32454D03*
X76005Y-30827D03*
X72773Y-26704D03*
X72526Y-24298D03*
X79530Y-28025D03*
X76339Y-29964D03*
X76304Y-31448D03*
X67676Y-37618D03*
X67853Y-28765D03*
X73501Y-28736D03*
X80529Y-31561D03*
X67379Y-28782D03*
X75946Y-26694D03*
X66928Y-28132D03*
X74340Y-25419D03*
X67272Y-29706D03*
X71184Y-34468D03*
X86352Y-26100D03*
X81983Y-27090D03*
X63993Y-26276D03*
X69943Y-25468D03*
X77543Y-31405D03*
X76165Y-34072D03*
X77170Y-36843D03*
X72924Y-35000D03*
X74003Y-36888D03*
X49291Y-25956D03*
X49291Y-25137D03*
X58110Y-27520D03*
X55709Y-26299D03*
X49370Y-28336D03*
X53819Y-28346D03*
X49331Y-26969D03*
X76194Y-36475D03*
X75971Y-37947D03*
X74822Y-35675D03*
X81569Y-32638D03*
X81654Y-28553D03*
X69213Y-37247D03*
X86002Y-31061D03*
X82386Y-25852D03*
X68155Y-42841D03*
X50000Y-44646D03*
G54D30*
X80166Y-46045D02*
X80166Y-45685D01*
X80060Y-45685D02*
X79784Y-45409D01*
X80166Y-45685D02*
X80060Y-45685D01*
X84421Y-37775D02*
X84921Y-38275D01*
X85030Y-40492D02*
X85030Y-40496D01*
X84921Y-40383D02*
X85030Y-40492D01*
X84921Y-38275D02*
X84921Y-40383D01*
X80647Y-44754D02*
X80647Y-44346D01*
X80516Y-44885D02*
X80647Y-44754D01*
X80516Y-45245D02*
X80516Y-44885D01*
X81127Y-44346D02*
X80647Y-44346D01*
X81127Y-43204D02*
X81127Y-43775D01*
X81127Y-43775D02*
X81127Y-44346D01*
X84902Y-40368D02*
X85030Y-40496D01*
X85030Y-40496D02*
X85247Y-40713D01*
X86774Y-42240D02*
X85247Y-40713D01*
X86774Y-43204D02*
X86774Y-42240D01*
X86203Y-43775D02*
X86774Y-43204D01*
X81127Y-43775D02*
X86203Y-43775D01*
X74546Y-41559D02*
X68933Y-41559D01*
X74896Y-40621D02*
X68438Y-40621D01*
X68438Y-40621D02*
X67814Y-41245D01*
X67814Y-41245D02*
X67814Y-41271D01*
X75066Y-40229D02*
X75066Y-39860D01*
X74896Y-40399D02*
X75066Y-40229D01*
X75546Y-39860D02*
X75365Y-39860D01*
X75365Y-39860D02*
X75066Y-39860D01*
X75546Y-39679D02*
X75546Y-38758D01*
X75365Y-39860D02*
X75546Y-39679D01*
X74896Y-40598D02*
X74896Y-40399D01*
X76692Y-40598D02*
X74896Y-40598D01*
X77378Y-41284D02*
X76692Y-40598D01*
X78755Y-41284D02*
X77378Y-41284D01*
X79052Y-40987D02*
X78755Y-41284D01*
X79052Y-39739D02*
X79052Y-40987D01*
X79433Y-39358D02*
X79052Y-39739D01*
X80367Y-39358D02*
X79433Y-39358D01*
X80730Y-38995D02*
X80367Y-39358D01*
X80730Y-38186D02*
X80730Y-38995D01*
X80763Y-38153D02*
X80730Y-38186D01*
X81128Y-38153D02*
X80763Y-38153D01*
X83683Y-35598D02*
X81128Y-38153D01*
X83683Y-33113D02*
X83683Y-35598D01*
X84421Y-32375D02*
X83683Y-33113D01*
X74896Y-40759D02*
X74896Y-40621D01*
X74896Y-40621D02*
X74896Y-40598D01*
X77309Y-37423D02*
X76438Y-37423D01*
X77829Y-36093D02*
X77829Y-35685D01*
X77659Y-36263D02*
X77829Y-36093D01*
X77659Y-36623D02*
X77659Y-36263D01*
X78309Y-35685D02*
X77829Y-35685D01*
X78309Y-35685D02*
X78309Y-34543D01*
X78309Y-34543D02*
X78309Y-33963D01*
X78309Y-33963D02*
X78982Y-33963D01*
X71960Y-28122D02*
X72181Y-28343D01*
X71960Y-27153D02*
X71960Y-28122D01*
X74679Y-46045D02*
X69537Y-46045D01*
X68642Y-22913D02*
X68642Y-22700D01*
X62146Y-22138D02*
X62646Y-22638D01*
X62815Y-22638D02*
X64045Y-22638D01*
X68580Y-22638D02*
X64045Y-22638D01*
X68594Y-22652D02*
X68580Y-22638D01*
X62815Y-22638D02*
X62646Y-22638D01*
X68642Y-23629D02*
X68642Y-22913D01*
X84421Y-35402D02*
X84421Y-35625D01*
X84902Y-31966D02*
X84921Y-31985D01*
X68821Y-23808D02*
X69149Y-23808D01*
X68654Y-23641D02*
X68821Y-23808D01*
X84761Y-31825D02*
X84902Y-31966D01*
X83659Y-31825D02*
X84761Y-31825D01*
X83072Y-32412D02*
X83659Y-31825D01*
X84921Y-31985D02*
X84921Y-34902D01*
X84921Y-34902D02*
X84421Y-35402D01*
X68654Y-23641D02*
X68642Y-23629D01*
X68642Y-22700D02*
X68594Y-22652D01*
X75029Y-45065D02*
X76150Y-45065D01*
X75198Y-44716D02*
X75198Y-44346D01*
X75029Y-44885D02*
X75198Y-44716D01*
X75678Y-44346D02*
X75198Y-44346D01*
X75678Y-43244D02*
X75678Y-44346D01*
X75029Y-45245D02*
X75029Y-45065D01*
X75029Y-45065D02*
X75029Y-44885D01*
X80141Y-41717D02*
X79781Y-41717D01*
X79182Y-42316D02*
X79781Y-41717D01*
X74321Y-42316D02*
X79182Y-42316D01*
X73831Y-42806D02*
X74321Y-42316D01*
X73831Y-43548D02*
X73831Y-42806D01*
X73798Y-43581D02*
X73831Y-43548D01*
X69778Y-43581D02*
X73798Y-43581D01*
X69761Y-43564D02*
X69778Y-43581D01*
X85020Y-35584D02*
X87047Y-35581D01*
X63146Y-22138D02*
X63729Y-21555D01*
X63729Y-21555D02*
X79051Y-21555D01*
X79051Y-21555D02*
X79181Y-21685D01*
X80700Y-40348D02*
X80700Y-39939D01*
X80491Y-40557D02*
X80700Y-40348D01*
X80491Y-40917D02*
X80491Y-40557D01*
X81180Y-39939D02*
X80700Y-39939D01*
X81201Y-39338D02*
X81180Y-39359D01*
X81219Y-39338D02*
X81201Y-39338D01*
X81180Y-39939D02*
X81180Y-39359D01*
X81219Y-38758D02*
X81219Y-39048D01*
X81219Y-39048D02*
X81219Y-39338D01*
X83936Y-35010D02*
X84421Y-34525D01*
X83936Y-36331D02*
X83936Y-35010D01*
X81219Y-39048D02*
X83936Y-36331D01*
X77421Y-41717D02*
X77061Y-41717D01*
X68439Y-41127D02*
X68286Y-41280D01*
X76471Y-41127D02*
X68439Y-41127D01*
X77061Y-41717D02*
X76471Y-41127D01*
X60817Y-22638D02*
X60646Y-22638D01*
X61594Y-22638D02*
X60817Y-22638D01*
X61646Y-22690D02*
X61613Y-22657D01*
X61646Y-23586D02*
X61646Y-22690D01*
X61812Y-23752D02*
X61646Y-23586D01*
X67997Y-23752D02*
X61812Y-23752D01*
X61613Y-22657D02*
X61594Y-22638D01*
X60646Y-22638D02*
X60146Y-22138D01*
X77941Y-40387D02*
X77941Y-39978D01*
X77771Y-40557D02*
X77941Y-40387D01*
X78421Y-39978D02*
X77941Y-39978D01*
X78403Y-39398D02*
X78421Y-39398D01*
X78382Y-39377D02*
X78403Y-39398D01*
X78382Y-38797D02*
X78382Y-39377D01*
X78421Y-39978D02*
X78421Y-39398D01*
X77771Y-40917D02*
X77771Y-40737D01*
X77771Y-40737D02*
X77771Y-40557D01*
X77771Y-40737D02*
X78596Y-40737D01*
X80145Y-37266D02*
X79785Y-37266D01*
X79785Y-36906D02*
X79754Y-36875D01*
X79785Y-37266D02*
X79785Y-36906D01*
X80665Y-35936D02*
X80665Y-35606D01*
X80495Y-36106D02*
X80665Y-35936D01*
X81145Y-35606D02*
X80665Y-35606D01*
X81145Y-34464D02*
X81145Y-35606D01*
X80495Y-36466D02*
X80495Y-36286D01*
X80495Y-36286D02*
X80495Y-36106D01*
X80949Y-36286D02*
X80974Y-36311D01*
X80495Y-36286D02*
X80949Y-36286D01*
X76915Y-46045D02*
X76801Y-45931D01*
X77344Y-46045D02*
X76915Y-46045D01*
X77864Y-44715D02*
X77864Y-44346D01*
X77694Y-44885D02*
X77864Y-44715D01*
X77694Y-45245D02*
X77694Y-44885D01*
X78344Y-44346D02*
X78104Y-44346D01*
X78104Y-44346D02*
X77864Y-44346D01*
X78104Y-44024D02*
X78344Y-43784D01*
X78104Y-44346D02*
X78104Y-44024D01*
X78344Y-43204D02*
X78344Y-43494D01*
X78344Y-43494D02*
X78344Y-43784D01*
X78344Y-43494D02*
X78943Y-43494D01*
X55512Y-45669D02*
X55551Y-45630D01*
X61772Y-41024D02*
X62242Y-40554D01*
X62992Y-40554D02*
X62242Y-40554D01*
X55512Y-45669D02*
X54784Y-45669D01*
X79127Y-22136D02*
X79806Y-22136D01*
X78428Y-22835D02*
X79127Y-22136D01*
X63248Y-39764D02*
X62992Y-40020D01*
X66732Y-39764D02*
X63248Y-39764D01*
X62992Y-40554D02*
X62992Y-40020D01*
X74246Y-38758D02*
X73766Y-38758D01*
X73580Y-30166D02*
X73660Y-30246D01*
X73580Y-30100D02*
X73580Y-30166D01*
X74140Y-30246D02*
X73660Y-30246D01*
X73543Y-26100D02*
X73567Y-26124D01*
X72750Y-26100D02*
X73543Y-26100D01*
X66732Y-39764D02*
X66732Y-40830D01*
X74172Y-34544D02*
X73692Y-34544D01*
X82283Y-21988D02*
X82283Y-22468D01*
X79903Y-26086D02*
X80383Y-26086D01*
X73000Y-34350D02*
X73290Y-34350D01*
X77082Y-38797D02*
X76602Y-38797D01*
X73692Y-34350D02*
X73692Y-34544D01*
X73290Y-34350D02*
X73692Y-34350D01*
X73754Y-34350D02*
X74258Y-33846D01*
X73692Y-34350D02*
X73754Y-34350D01*
X79919Y-38054D02*
X79919Y-38758D01*
X77009Y-34543D02*
X77489Y-34543D01*
X76602Y-38797D02*
X76320Y-38797D01*
X79827Y-43204D02*
X79347Y-43204D01*
X77044Y-43204D02*
X77524Y-43204D01*
X79845Y-34464D02*
X80325Y-34464D01*
X74378Y-43244D02*
X74858Y-43244D01*
X76427Y-42663D02*
X76442Y-42678D01*
X74959Y-42663D02*
X76427Y-42663D01*
X74858Y-42764D02*
X74959Y-42663D01*
X74858Y-43244D02*
X74858Y-42764D01*
X77524Y-42724D02*
X77524Y-43204D01*
X77478Y-42678D02*
X76442Y-42678D01*
X77524Y-42724D02*
X77478Y-42678D01*
X80158Y-37815D02*
X79919Y-38054D01*
X81093Y-37815D02*
X80158Y-37815D01*
X81625Y-37283D02*
X81093Y-37815D01*
X81625Y-33917D02*
X81625Y-37283D01*
X81592Y-33884D02*
X81625Y-33917D01*
X80494Y-33884D02*
X81592Y-33884D01*
X80325Y-34053D02*
X80494Y-33884D01*
X80325Y-34464D02*
X80325Y-34053D01*
X73608Y-38600D02*
X73000Y-38600D01*
X73766Y-38758D02*
X73608Y-38600D01*
X74246Y-38758D02*
X74246Y-38178D01*
X74482Y-38178D02*
X74246Y-38178D01*
X74612Y-38048D02*
X74482Y-38178D01*
X77694Y-42724D02*
X77524Y-42724D01*
X78766Y-42623D02*
X79347Y-43204D01*
X77795Y-42623D02*
X78766Y-42623D01*
X77694Y-42724D02*
X77795Y-42623D01*
X79806Y-22136D02*
X80226Y-22136D01*
X82034Y-22717D02*
X82283Y-22468D01*
X80651Y-22717D02*
X82034Y-22717D01*
X80226Y-22292D02*
X80651Y-22717D01*
X80226Y-22136D02*
X80226Y-22292D01*
X80383Y-25606D02*
X80383Y-26086D01*
X77014Y-26125D02*
X77494Y-26125D01*
X73807Y-26124D02*
X73567Y-26124D01*
X77494Y-26125D02*
X77494Y-25645D01*
X80321Y-25544D02*
X80383Y-25606D01*
X77595Y-25544D02*
X80321Y-25544D01*
X77494Y-25645D02*
X77595Y-25544D01*
X79865Y-30285D02*
X80247Y-30285D01*
X76935Y-30324D02*
X76455Y-30324D01*
X74140Y-30246D02*
X74620Y-30246D01*
X73000Y-30100D02*
X73290Y-30100D01*
X73290Y-30100D02*
X73580Y-30100D01*
X77489Y-35030D02*
X77565Y-35106D01*
X77489Y-34543D02*
X77489Y-35030D01*
X73807Y-26124D02*
X74047Y-26124D01*
X77318Y-25469D02*
X77494Y-25645D01*
X74792Y-25469D02*
X77318Y-25469D01*
X74527Y-25734D02*
X74792Y-25469D01*
X74527Y-26124D02*
X74527Y-25734D01*
X74047Y-26124D02*
X74527Y-26124D01*
X72419Y-31945D02*
X72928Y-32454D01*
X72419Y-30971D02*
X72419Y-31945D01*
X73290Y-30100D02*
X72419Y-30971D01*
X72750Y-26100D02*
X72750Y-26580D01*
X72750Y-26681D02*
X72773Y-26704D01*
X72750Y-26580D02*
X72750Y-26681D01*
X74721Y-30827D02*
X76005Y-30827D01*
X74620Y-30726D02*
X74721Y-30827D01*
X74620Y-30246D02*
X74620Y-30726D01*
X76005Y-30774D02*
X76005Y-30827D01*
X76455Y-30324D02*
X76005Y-30774D01*
X77362Y-22835D02*
X77895Y-22835D01*
X77895Y-22835D02*
X78428Y-22835D01*
X72526Y-22712D02*
X72526Y-24298D01*
X73174Y-22064D02*
X72526Y-22712D01*
X77124Y-22064D02*
X73174Y-22064D01*
X77895Y-22835D02*
X77124Y-22064D01*
X80247Y-29566D02*
X80247Y-30285D01*
X80417Y-29396D02*
X80247Y-29566D01*
X81512Y-29396D02*
X80417Y-29396D01*
X82724Y-28184D02*
X81512Y-29396D01*
X82724Y-26691D02*
X82724Y-28184D01*
X82031Y-25998D02*
X82724Y-26691D01*
X82031Y-25952D02*
X82031Y-25998D01*
X81518Y-25439D02*
X82031Y-25952D01*
X80550Y-25439D02*
X81518Y-25439D01*
X80383Y-25606D02*
X80550Y-25439D01*
X67202Y-41300D02*
X66732Y-40830D01*
X67284Y-41300D02*
X67202Y-41300D01*
X69984Y-38600D02*
X67284Y-41300D01*
X73000Y-38600D02*
X69984Y-38600D01*
X69084Y-43100D02*
X73250Y-43100D01*
X67284Y-41300D02*
X69084Y-43100D01*
X80066Y-25056D02*
X79706Y-25056D01*
X61064Y-25056D02*
X59146Y-23138D01*
X79706Y-25056D02*
X61064Y-25056D01*
X80626Y-23686D02*
X80626Y-23318D01*
X80416Y-23896D02*
X80626Y-23686D01*
X81106Y-23318D02*
X80626Y-23318D01*
X80416Y-24256D02*
X80416Y-24076D01*
X80416Y-24076D02*
X80416Y-23896D01*
X84421Y-26925D02*
X83941Y-26925D01*
X81106Y-22136D02*
X81586Y-22136D01*
X84421Y-26925D02*
X84421Y-26445D01*
X81586Y-22136D02*
X81586Y-21656D01*
X84901Y-26445D02*
X84421Y-26445D01*
X86517Y-24829D02*
X84901Y-26445D01*
X86517Y-23939D02*
X86517Y-24829D01*
X84085Y-21507D02*
X86517Y-23939D01*
X81735Y-21507D02*
X84085Y-21507D01*
X81586Y-21656D02*
X81735Y-21507D01*
X59968Y-21316D02*
X59146Y-22138D01*
X81246Y-21316D02*
X59968Y-21316D01*
X81586Y-21656D02*
X81246Y-21316D01*
X81112Y-24076D02*
X80416Y-24076D01*
X83941Y-26905D02*
X81112Y-24076D01*
X83941Y-26925D02*
X83941Y-26905D01*
X77314Y-29005D02*
X76954Y-29005D01*
X60035Y-25027D02*
X58146Y-23138D01*
X60601Y-25027D02*
X60035Y-25027D01*
X64933Y-29359D02*
X60601Y-25027D01*
X76600Y-29359D02*
X64933Y-29359D01*
X76954Y-29005D02*
X76600Y-29359D01*
X77834Y-27675D02*
X77834Y-27306D01*
X77664Y-27845D02*
X77834Y-27675D01*
X78314Y-27306D02*
X78074Y-27306D01*
X78074Y-27306D02*
X77834Y-27306D01*
X78314Y-27066D02*
X78314Y-26125D01*
X78074Y-27306D02*
X78314Y-27066D01*
X77664Y-28205D02*
X77664Y-28025D01*
X77664Y-28025D02*
X77664Y-27845D01*
X77664Y-28025D02*
X79530Y-28025D01*
X74440Y-33205D02*
X74080Y-33205D01*
X59264Y-25256D02*
X57146Y-23138D01*
X60380Y-25256D02*
X59264Y-25256D01*
X68329Y-33205D02*
X60380Y-25256D01*
X74080Y-33205D02*
X68329Y-33205D01*
X74960Y-31875D02*
X74960Y-31466D01*
X74790Y-32045D02*
X74960Y-31875D01*
X74790Y-32405D02*
X74790Y-32045D01*
X75316Y-31466D02*
X74960Y-31466D01*
X75316Y-31466D02*
X75440Y-31466D01*
X76202Y-29964D02*
X75920Y-30246D01*
X76339Y-29964D02*
X76202Y-29964D01*
X75440Y-31466D02*
X75920Y-31466D01*
X75440Y-30246D02*
X75920Y-30246D01*
X76286Y-31466D02*
X76304Y-31448D01*
X75920Y-31466D02*
X76286Y-31466D01*
X80204Y-33204D02*
X79844Y-33204D01*
X79484Y-33564D02*
X79844Y-33204D01*
X77018Y-33564D02*
X79484Y-33564D01*
X76520Y-34062D02*
X77018Y-33564D01*
X76520Y-34219D02*
X76520Y-34062D01*
X76155Y-34584D02*
X76520Y-34219D01*
X76155Y-36013D02*
X76155Y-34584D01*
X75830Y-36338D02*
X76155Y-36013D01*
X74050Y-36338D02*
X75830Y-36338D01*
X72770Y-37618D02*
X74050Y-36338D01*
X67676Y-37618D02*
X72770Y-37618D01*
X80685Y-31913D02*
X80685Y-31466D01*
X80554Y-32044D02*
X80685Y-31913D01*
X80554Y-32404D02*
X80554Y-32044D01*
X81165Y-31466D02*
X80925Y-31466D01*
X80925Y-31466D02*
X80685Y-31466D01*
X81165Y-31226D02*
X81165Y-30285D01*
X80925Y-31466D02*
X81165Y-31226D01*
X84311Y-30285D02*
X84421Y-30175D01*
X81165Y-30285D02*
X84311Y-30285D01*
X80590Y-31561D02*
X80685Y-31466D01*
X80529Y-31561D02*
X80590Y-31561D01*
X67882Y-28736D02*
X67853Y-28765D01*
X73501Y-28736D02*
X67882Y-28736D01*
X73987Y-28925D02*
X74347Y-28925D01*
X67717Y-29120D02*
X67379Y-28782D01*
X73792Y-29120D02*
X67717Y-29120D01*
X73987Y-28925D02*
X73792Y-29120D01*
X74867Y-27595D02*
X74867Y-27265D01*
X74697Y-27765D02*
X74867Y-27595D01*
X74697Y-28125D02*
X74697Y-27765D01*
X75347Y-27265D02*
X74867Y-27265D01*
X75347Y-26124D02*
X75347Y-26694D01*
X75347Y-26694D02*
X75347Y-27265D01*
X75347Y-26694D02*
X75946Y-26694D01*
X67781Y-28132D02*
X66928Y-28132D01*
X70494Y-25419D02*
X67781Y-28132D01*
X74340Y-25419D02*
X70494Y-25419D01*
X80243Y-28967D02*
X79883Y-28967D01*
X67379Y-29599D02*
X67272Y-29706D01*
X79251Y-29599D02*
X67379Y-29599D01*
X79883Y-28967D02*
X79251Y-29599D01*
X65809Y-34468D02*
X65146Y-35131D01*
X65809Y-34468D02*
X71184Y-34468D01*
X80723Y-27677D02*
X80723Y-27228D01*
X80593Y-27807D02*
X80723Y-27677D01*
X80593Y-28167D02*
X80593Y-27807D01*
X80963Y-27228D02*
X80723Y-27228D01*
X81203Y-26988D02*
X81203Y-26086D01*
X80963Y-27228D02*
X81203Y-26988D01*
X81083Y-27228D02*
X80963Y-27228D01*
X81083Y-27228D02*
X81203Y-27228D01*
X81821Y-27090D02*
X81683Y-27228D01*
X81983Y-27090D02*
X81821Y-27090D01*
X81203Y-27228D02*
X81683Y-27228D01*
X86352Y-27614D02*
X86352Y-26100D01*
X85421Y-28545D02*
X86352Y-27614D01*
X64892Y-36877D02*
X64146Y-36131D01*
X72766Y-36877D02*
X64892Y-36877D01*
X73592Y-36051D02*
X72766Y-36877D01*
X73592Y-35257D02*
X73592Y-36051D01*
X73724Y-35125D02*
X73592Y-35257D01*
X74628Y-35125D02*
X73724Y-35125D01*
X74661Y-35092D02*
X74628Y-35125D01*
X74661Y-34325D02*
X74661Y-35092D01*
X75821Y-33165D02*
X74661Y-34325D01*
X77235Y-33165D02*
X75821Y-33165D01*
X77755Y-31835D02*
X77755Y-31466D01*
X77585Y-32005D02*
X77755Y-31835D01*
X77585Y-32365D02*
X77585Y-32005D01*
X78235Y-31466D02*
X77995Y-31466D01*
X77995Y-31466D02*
X77755Y-31466D01*
X78235Y-31226D02*
X78235Y-30875D01*
X77995Y-31466D02*
X78235Y-31226D01*
X78235Y-30875D02*
X78235Y-30324D01*
X64801Y-25468D02*
X69943Y-25468D01*
X63993Y-26276D02*
X64801Y-25468D01*
X77694Y-31405D02*
X77543Y-31405D01*
X77755Y-31466D02*
X77694Y-31405D01*
X80453Y-30875D02*
X78235Y-30875D01*
X80486Y-30842D02*
X80453Y-30875D01*
X80486Y-30003D02*
X80486Y-30842D01*
X80844Y-29645D02*
X80486Y-30003D01*
X85421Y-29645D02*
X80844Y-29645D01*
X64989Y-37974D02*
X63146Y-36131D01*
X73641Y-37974D02*
X64989Y-37974D01*
X74112Y-37503D02*
X73641Y-37974D01*
X74472Y-37503D02*
X74112Y-37503D01*
X74822Y-36703D02*
X75182Y-36703D01*
X75472Y-35725D02*
X75472Y-34544D01*
X75322Y-36843D02*
X75182Y-36703D01*
X77170Y-36843D02*
X75322Y-36843D01*
X75472Y-34544D02*
X75472Y-33964D01*
X77311Y-36984D02*
X77170Y-36843D01*
X78349Y-36984D02*
X77311Y-36984D01*
X79338Y-35995D02*
X78349Y-36984D01*
X79338Y-33916D02*
X79338Y-35995D01*
X79371Y-33883D02*
X79338Y-33916D01*
X80104Y-33883D02*
X79371Y-33883D01*
X80343Y-33644D02*
X80104Y-33883D01*
X81332Y-33644D02*
X80343Y-33644D01*
X84251Y-30725D02*
X81332Y-33644D01*
X85421Y-30725D02*
X84251Y-30725D01*
X72534Y-35000D02*
X72924Y-35000D01*
X71646Y-34112D02*
X72534Y-35000D01*
X64165Y-34112D02*
X71646Y-34112D01*
X63146Y-35131D02*
X64165Y-34112D01*
X76057Y-33964D02*
X76165Y-34072D01*
X75472Y-33964D02*
X76057Y-33964D01*
X74188Y-36703D02*
X74822Y-36703D01*
X74003Y-36888D02*
X74188Y-36703D01*
X54118Y-32874D02*
X52422Y-32874D01*
X54512Y-32480D02*
X54118Y-32874D01*
X55300Y-33268D02*
X54512Y-32480D01*
X58602Y-33268D02*
X55300Y-33268D01*
X51952Y-30991D02*
X51952Y-32874D01*
X52803Y-30140D02*
X51952Y-30991D01*
X54506Y-30140D02*
X52803Y-30140D01*
X52422Y-32874D02*
X51952Y-32874D01*
X51429Y-25989D02*
X51429Y-26378D01*
X51396Y-25956D02*
X51429Y-25989D01*
X49291Y-25956D02*
X51396Y-25956D01*
X51909Y-26378D02*
X51429Y-26378D01*
X49291Y-25137D02*
X50591Y-25137D01*
X51308Y-25000D02*
X51171Y-25137D01*
X51909Y-25000D02*
X51308Y-25000D01*
X50591Y-25137D02*
X51171Y-25137D01*
X62146Y-32473D02*
X62146Y-35131D01*
X60382Y-30709D02*
X62146Y-32473D01*
X59902Y-30709D02*
X60382Y-30709D01*
X59902Y-31890D02*
X60382Y-31890D01*
X61146Y-32654D02*
X61146Y-35131D01*
X60382Y-31890D02*
X61146Y-32654D01*
X54506Y-27560D02*
X54881Y-27560D01*
X58110Y-27520D02*
X57957Y-27520D01*
X55394Y-26614D02*
X55709Y-26299D01*
X55394Y-27047D02*
X55394Y-26614D01*
X54881Y-27560D02*
X55394Y-27047D01*
X57957Y-27520D02*
X57953Y-27520D01*
X57953Y-27520D02*
X57957Y-27520D01*
X53209Y-27756D02*
X53405Y-27560D01*
X53405Y-27560D02*
X54506Y-27560D01*
X52729Y-27276D02*
X52729Y-27756D01*
X52412Y-26959D02*
X52729Y-27276D01*
X51113Y-26959D02*
X52412Y-26959D01*
X50591Y-26437D02*
X51113Y-26959D01*
X52969Y-27756D02*
X52729Y-27756D01*
X58191Y-29117D02*
X58661Y-29117D01*
X58661Y-29118D02*
X58661Y-29117D01*
X58661Y-29120D02*
X58661Y-29118D01*
X58661Y-29124D02*
X58661Y-29120D01*
X58661Y-29131D02*
X58661Y-29124D01*
X58661Y-29146D02*
X58661Y-29131D01*
X58661Y-29175D02*
X58661Y-29146D01*
X58661Y-29234D02*
X58661Y-29175D01*
X58661Y-29352D02*
X58661Y-29234D01*
X58661Y-29587D02*
X58661Y-29352D01*
X57957Y-27520D02*
X57957Y-28883D01*
X57957Y-28883D02*
X58191Y-29117D01*
X57957Y-26960D02*
X57957Y-27520D01*
X58377Y-26960D02*
X57957Y-26960D01*
X59040Y-30057D02*
X58661Y-30057D01*
X59073Y-30090D02*
X59040Y-30057D01*
X59073Y-31247D02*
X59073Y-30090D01*
X59040Y-31280D02*
X59073Y-31247D01*
X58232Y-31280D02*
X59040Y-31280D01*
X57726Y-30774D02*
X58232Y-31280D01*
X57726Y-29658D02*
X57726Y-30774D01*
X57688Y-29620D02*
X57726Y-29658D01*
X57306Y-29620D02*
X57688Y-29620D01*
X58661Y-29587D02*
X58661Y-30057D01*
X52969Y-27756D02*
X53209Y-27756D01*
X54500Y-28346D02*
X54506Y-28340D01*
X53819Y-28346D02*
X54500Y-28346D01*
X48852Y-43949D02*
X52165Y-43949D01*
X47620Y-42717D02*
X48852Y-43949D01*
X46850Y-42717D02*
X47620Y-42717D01*
X52729Y-28457D02*
X52729Y-28937D01*
X52608Y-28336D02*
X52729Y-28457D01*
X49370Y-28336D02*
X52608Y-28336D01*
X53209Y-28937D02*
X52729Y-28937D01*
X52165Y-44429D02*
X52165Y-44189D01*
X52165Y-44189D02*
X52165Y-43949D01*
X52256Y-44098D02*
X52256Y-43035D01*
X52165Y-44189D02*
X52256Y-44098D01*
X50650Y-34390D02*
X50650Y-34394D01*
X45819Y-33426D02*
X49712Y-33426D01*
X49712Y-33426D02*
X50650Y-34390D01*
X50650Y-35583D02*
X50698Y-35631D01*
X50650Y-34394D02*
X50650Y-35583D01*
X43723Y-33426D02*
X42913Y-34236D01*
X45819Y-33426D02*
X43723Y-33426D01*
X46080Y-33165D02*
X45819Y-33426D01*
X46080Y-33071D02*
X46080Y-33165D01*
X46850Y-33071D02*
X46080Y-33071D01*
X69146Y-35131D02*
X68666Y-35131D01*
X67646Y-35631D02*
X68146Y-35131D01*
X50698Y-35631D02*
X67646Y-35631D01*
X50665Y-35598D02*
X50698Y-35631D01*
X68146Y-35131D02*
X68666Y-35131D01*
X55615Y-27830D02*
X55630Y-27845D01*
X55630Y-27845D02*
X55630Y-28850D01*
X45500Y-40000D02*
X45933Y-39567D01*
X45500Y-43373D02*
X45500Y-40000D01*
X47856Y-45729D02*
X46079Y-43952D01*
X50984Y-45729D02*
X47856Y-45729D01*
X46079Y-43952D02*
X45500Y-43373D01*
X46260Y-39567D02*
X46850Y-39567D01*
X45933Y-39567D02*
X46260Y-39567D01*
X54506Y-27830D02*
X54506Y-27830D01*
X54506Y-27830D02*
X54506Y-27830D01*
X81244Y-32963D02*
X81569Y-32638D01*
X80904Y-32963D02*
X81244Y-32963D01*
X80943Y-28606D02*
X81076Y-28606D01*
X81076Y-28606D02*
X81654Y-28553D01*
X85421Y-32905D02*
X86002Y-32324D01*
X86002Y-32324D02*
X86002Y-31061D01*
X43458Y-36221D02*
X43443Y-36236D01*
X46850Y-36221D02*
X43458Y-36221D01*
X42913Y-36236D02*
X43443Y-36236D01*
X74212Y-22835D02*
X74212Y-23606D01*
X79806Y-23318D02*
X79326Y-23318D01*
X68509Y-43920D02*
X73250Y-43920D01*
X67503Y-42914D02*
X68509Y-43920D01*
X66732Y-42914D02*
X67503Y-42914D01*
X50298Y-39567D02*
X50766Y-40035D01*
X46850Y-39567D02*
X50298Y-39567D01*
X51256Y-40035D02*
X50766Y-40035D01*
X51909Y-27756D02*
X51429Y-27756D01*
X59697Y-26445D02*
X59697Y-26705D01*
X60127Y-26705D02*
X59912Y-26705D01*
X58661Y-28287D02*
X59241Y-28287D01*
X54076Y-29050D02*
X54076Y-28850D01*
X54136Y-29110D02*
X54076Y-29050D01*
X77935Y-33165D02*
X78295Y-33165D01*
X75047Y-28925D02*
X75407Y-28925D01*
X75246Y-41559D02*
X75606Y-41559D01*
X74212Y-23606D02*
X79038Y-23606D01*
X79038Y-23606D02*
X79326Y-23318D01*
X76935Y-32804D02*
X76935Y-31466D01*
X77574Y-32804D02*
X77935Y-33165D01*
X76935Y-32804D02*
X77574Y-32804D01*
X75172Y-37503D02*
X75532Y-37503D01*
X75379Y-46045D02*
X75739Y-46045D01*
X80110Y-36451D02*
X79845Y-36186D01*
X80110Y-36734D02*
X80110Y-36451D01*
X80281Y-36905D02*
X80110Y-36734D01*
X80484Y-36905D02*
X80281Y-36905D01*
X80845Y-37266D02*
X80484Y-36905D01*
X77014Y-27306D02*
X77014Y-27886D01*
X77014Y-28644D02*
X77014Y-27886D01*
X77653Y-28644D02*
X78014Y-29005D01*
X77014Y-28644D02*
X77653Y-28644D01*
X78014Y-29005D02*
X78374Y-29005D01*
X77044Y-44346D02*
X77044Y-44926D01*
X77761Y-42077D02*
X78121Y-41717D01*
X76124Y-42077D02*
X77761Y-42077D01*
X75606Y-41559D02*
X76124Y-42077D01*
X78121Y-41717D02*
X78481Y-41717D01*
X79845Y-35606D02*
X79845Y-35928D01*
X79845Y-35928D02*
X79845Y-36186D01*
X78369Y-37404D02*
X79845Y-35928D01*
X78369Y-37423D02*
X78369Y-37404D01*
X78009Y-37423D02*
X78369Y-37423D01*
X78764Y-46405D02*
X78404Y-46045D01*
X80506Y-46405D02*
X78764Y-46405D01*
X80866Y-46045D02*
X80506Y-46405D01*
X78044Y-46045D02*
X78404Y-46045D01*
X73726Y-39900D02*
X73766Y-39860D01*
X73000Y-39900D02*
X73726Y-39900D01*
X73594Y-31400D02*
X73660Y-31466D01*
X73000Y-31400D02*
X73594Y-31400D01*
X74140Y-31466D02*
X73660Y-31466D01*
X73432Y-27400D02*
X73567Y-27265D01*
X72750Y-27400D02*
X73432Y-27400D01*
X74047Y-27265D02*
X73567Y-27265D01*
X73250Y-44400D02*
X73250Y-44160D01*
X73250Y-44160D02*
X73250Y-43920D01*
X73712Y-44160D02*
X73898Y-44346D01*
X73250Y-44160D02*
X73712Y-44160D01*
X74378Y-44346D02*
X73898Y-44346D01*
X69627Y-35650D02*
X69146Y-36131D01*
X73000Y-35650D02*
X69627Y-35650D01*
X84534Y-23288D02*
X85421Y-24175D01*
X82283Y-23288D02*
X84534Y-23288D01*
X51122Y-32874D02*
X51122Y-31496D01*
X52389Y-29531D02*
X52738Y-29880D01*
X52389Y-28937D02*
X52389Y-29531D01*
X51909Y-28937D02*
X52389Y-28937D01*
X53256Y-39313D02*
X53256Y-40035D01*
X53406Y-39163D02*
X53256Y-39313D01*
X53406Y-38583D02*
X53406Y-39163D01*
X50642Y-26969D02*
X51429Y-27756D01*
X49331Y-26969D02*
X50642Y-26969D01*
X74246Y-39860D02*
X74006Y-39860D01*
X74006Y-39860D02*
X73766Y-39860D01*
X78009Y-45685D02*
X78009Y-45684D01*
X78044Y-45685D02*
X78009Y-45685D01*
X78009Y-45684D02*
X79347Y-44346D01*
X78044Y-46045D02*
X78044Y-45685D01*
X79865Y-31466D02*
X79865Y-32046D01*
X79865Y-32046D02*
X79865Y-32843D01*
X78617Y-32843D02*
X79865Y-32843D01*
X78295Y-33165D02*
X78617Y-32843D01*
X76529Y-36140D02*
X76194Y-36475D01*
X76529Y-35685D02*
X76529Y-36140D01*
X75532Y-37503D02*
X75532Y-37947D01*
X74099Y-39860D02*
X74006Y-39860D01*
X75064Y-38895D02*
X74099Y-39860D01*
X75064Y-38210D02*
X75064Y-38895D01*
X75327Y-37947D02*
X75064Y-38210D01*
X75532Y-37947D02*
X75327Y-37947D01*
X77009Y-35685D02*
X76529Y-35685D01*
X75532Y-37947D02*
X75971Y-37947D01*
X75739Y-45684D02*
X75739Y-46045D01*
X74378Y-45394D02*
X74378Y-44346D01*
X74668Y-45684D02*
X74378Y-45394D01*
X75739Y-45684D02*
X74668Y-45684D01*
X75971Y-37947D02*
X77485Y-37947D01*
X77485Y-37947D02*
X78009Y-37423D01*
X77540Y-39398D02*
X77121Y-39398D01*
X77573Y-39365D02*
X77540Y-39398D01*
X77573Y-38035D02*
X77573Y-39365D01*
X77485Y-37947D02*
X77573Y-38035D01*
X77121Y-39978D02*
X77121Y-39398D01*
X75140Y-33205D02*
X75140Y-32804D01*
X76935Y-32804D02*
X75140Y-32804D01*
X74140Y-32482D02*
X74140Y-31466D01*
X74462Y-32804D02*
X74140Y-32482D01*
X75140Y-32804D02*
X74462Y-32804D01*
X79827Y-44346D02*
X79587Y-44346D01*
X79587Y-44346D02*
X79347Y-44346D01*
X80502Y-42416D02*
X80841Y-42077D01*
X80502Y-43582D02*
X80502Y-42416D01*
X79738Y-44346D02*
X80502Y-43582D01*
X79587Y-44346D02*
X79738Y-44346D01*
X80841Y-41717D02*
X80841Y-42077D01*
X74702Y-35675D02*
X74652Y-35725D01*
X74822Y-35675D02*
X74702Y-35675D01*
X74172Y-35725D02*
X74652Y-35725D01*
X79880Y-39939D02*
X79880Y-40519D01*
X79880Y-40519D02*
X79880Y-41356D01*
X79020Y-41356D02*
X79880Y-41356D01*
X78659Y-41717D02*
X79020Y-41356D01*
X78481Y-41717D02*
X78659Y-41717D01*
X80480Y-41356D02*
X80841Y-41717D01*
X79880Y-41356D02*
X80480Y-41356D01*
X79903Y-27228D02*
X79903Y-27808D01*
X79903Y-28606D02*
X79903Y-27808D01*
X78773Y-28606D02*
X78374Y-29005D01*
X79903Y-28606D02*
X78773Y-28606D01*
X80904Y-32963D02*
X80904Y-33204D01*
X80784Y-32843D02*
X80904Y-32963D01*
X79865Y-32843D02*
X80784Y-32843D01*
X75688Y-28644D02*
X77014Y-28644D01*
X75407Y-28925D02*
X75688Y-28644D01*
X80943Y-28606D02*
X80943Y-28967D01*
X79903Y-28606D02*
X80943Y-28606D01*
X75847Y-45576D02*
X75739Y-45684D01*
X77044Y-45576D02*
X75847Y-45576D01*
X77152Y-45684D02*
X77044Y-45576D01*
X78009Y-45684D02*
X77152Y-45684D01*
X77044Y-45576D02*
X77044Y-44926D01*
X74066Y-27764D02*
X73567Y-27265D01*
X74066Y-28192D02*
X74066Y-27764D01*
X74372Y-28498D02*
X74066Y-28192D01*
X74980Y-28498D02*
X74372Y-28498D01*
X75407Y-28925D02*
X74980Y-28498D01*
X68146Y-36131D02*
X69146Y-36131D01*
X74172Y-35848D02*
X74172Y-35725D01*
X72773Y-37247D02*
X74172Y-35848D01*
X69213Y-37247D02*
X72773Y-37247D01*
X51122Y-31496D02*
X51504Y-31496D01*
X51504Y-31114D02*
X51504Y-31496D01*
X52738Y-29880D02*
X51504Y-31114D01*
X46850Y-39567D02*
X46465Y-39567D01*
X46465Y-39567D02*
X46079Y-39567D01*
X46850Y-39182D02*
X46850Y-36221D01*
X46465Y-39567D02*
X46850Y-39182D01*
X83802Y-38256D02*
X84421Y-38875D01*
X83802Y-37388D02*
X83802Y-38256D01*
X83945Y-37245D02*
X83802Y-37388D01*
X85421Y-37245D02*
X83945Y-37245D01*
X84421Y-39975D02*
X84421Y-41717D01*
X80841Y-41717D02*
X84421Y-41717D01*
X84463Y-41717D02*
X85421Y-42675D01*
X84421Y-41717D02*
X84463Y-41717D01*
X45670Y-28937D02*
X51909Y-28937D01*
X45276Y-29331D02*
X45670Y-28937D01*
X80127Y-24695D02*
X79038Y-23606D01*
X80405Y-24695D02*
X80127Y-24695D01*
X80766Y-25056D02*
X80405Y-24695D01*
X81590Y-25056D02*
X80766Y-25056D01*
X82386Y-25852D02*
X81590Y-25056D01*
X54506Y-29110D02*
X54321Y-29110D01*
X54321Y-29110D02*
X54181Y-29110D01*
X54181Y-29110D02*
X54136Y-29110D01*
X59697Y-26960D02*
X59241Y-26960D01*
X59241Y-28287D02*
X59241Y-26960D01*
X67540Y-42841D02*
X68155Y-42841D01*
X67540Y-42877D02*
X67540Y-42841D01*
X67503Y-42914D02*
X67540Y-42877D01*
X53256Y-40998D02*
X53256Y-40035D01*
X53889Y-41631D02*
X53256Y-40998D01*
X67194Y-41631D02*
X53889Y-41631D01*
X67540Y-41977D02*
X67194Y-41631D01*
X67540Y-42841D02*
X67540Y-41977D01*
X54506Y-29620D02*
X54086Y-29620D01*
X54086Y-29205D02*
X54086Y-29620D01*
X54181Y-29110D02*
X54086Y-29205D01*
X54506Y-28600D02*
X54086Y-28600D01*
X54119Y-28850D02*
X54076Y-28850D01*
X54291Y-28850D02*
X54119Y-28850D01*
X54086Y-28817D02*
X54086Y-28600D01*
X54119Y-28850D02*
X54086Y-28817D01*
X54086Y-29880D02*
X54086Y-29620D01*
X52738Y-29880D02*
X54086Y-29880D01*
X54086Y-29880D02*
X54506Y-29880D01*
X54086Y-28600D02*
X54076Y-28600D01*
X54399Y-28850D02*
X54291Y-28850D01*
X54399Y-28850D02*
X54506Y-28850D01*
X54506Y-28850D02*
X55630Y-28850D01*
X55630Y-28850D02*
X57306Y-28850D01*
X60127Y-26960D02*
X59707Y-26960D01*
X59707Y-26960D02*
X59697Y-26960D01*
X60127Y-26960D02*
X59707Y-26960D01*
X59745Y-26705D02*
X59697Y-26705D01*
X59912Y-26705D02*
X59745Y-26705D01*
X59707Y-26743D02*
X59707Y-26960D01*
X59745Y-26705D02*
X59707Y-26743D01*
X60127Y-26190D02*
X59707Y-26190D01*
X59740Y-26445D02*
X59697Y-26445D01*
X59707Y-26412D02*
X59740Y-26445D01*
X59707Y-26190D02*
X59707Y-26412D01*
X59740Y-26445D02*
X60127Y-26445D01*
X59241Y-26469D02*
X59241Y-26960D01*
X58702Y-25930D02*
X59241Y-26469D01*
X57744Y-25930D02*
X58702Y-25930D01*
X57744Y-26024D02*
X57744Y-25930D01*
X57609Y-26159D02*
X57744Y-26024D01*
X57324Y-26159D02*
X57609Y-26159D01*
X57305Y-26140D02*
X57324Y-26159D01*
X55615Y-27830D02*
X57305Y-26140D01*
X54506Y-27830D02*
X55615Y-27830D01*
X60146Y-34092D02*
X60146Y-35131D01*
X59902Y-33848D02*
X60146Y-34092D01*
X59902Y-33268D02*
X59902Y-33848D01*
X57306Y-29370D02*
X57726Y-29370D01*
X58602Y-30709D02*
X58132Y-30709D01*
X57794Y-29370D02*
X57726Y-29370D01*
X57955Y-29531D02*
X57794Y-29370D01*
X57955Y-30532D02*
X57955Y-29531D01*
X58132Y-30709D02*
X57955Y-30532D01*
X57697Y-31890D02*
X58602Y-31890D01*
X57306Y-31499D02*
X57697Y-31890D01*
X57306Y-30390D02*
X57306Y-31499D01*
X57901Y-26190D02*
X58377Y-26190D01*
X57703Y-26388D02*
X57901Y-26190D01*
X57382Y-26388D02*
X57703Y-26388D01*
X57306Y-26464D02*
X57382Y-26388D01*
X57306Y-27060D02*
X57306Y-26464D01*
X54506Y-27060D02*
X54055Y-26609D01*
X54055Y-25846D02*
X53209Y-25000D01*
X54055Y-26609D02*
X54055Y-25846D01*
X54506Y-27060D02*
X54258Y-27060D01*
X54506Y-27320D02*
X54151Y-27320D01*
X54151Y-27320D02*
X53209Y-26378D01*
X57306Y-27320D02*
X57726Y-27320D01*
X57969Y-26445D02*
X58377Y-26445D01*
X57797Y-26617D02*
X57969Y-26445D01*
X57726Y-26617D02*
X57797Y-26617D01*
X57726Y-27320D02*
X57726Y-26617D01*
X54506Y-30390D02*
X54086Y-30390D01*
X54086Y-30390D02*
X54086Y-31496D01*
X55528Y-31496D02*
X54086Y-31496D01*
X56512Y-32480D02*
X55528Y-31496D01*
X54086Y-31496D02*
X52422Y-31496D01*
X51027Y-45036D02*
X50390Y-45036D01*
X50390Y-45036D02*
X50000Y-44646D01*
X51260Y-45036D02*
X50984Y-44760D01*
X50984Y-44760D02*
X50984Y-44429D01*
X51027Y-45036D02*
X51030Y-45039D01*
X53004Y-45669D02*
X53004Y-45547D01*
X53004Y-45547D02*
X52493Y-45036D01*
X51260Y-45036D02*
X51027Y-45036D01*
X52493Y-45036D02*
X51260Y-45036D01*
X53484Y-45669D02*
X53004Y-45669D01*
X51260Y-45039D02*
X51260Y-45036D01*
X51030Y-45039D02*
X51260Y-45039D01*
X52256Y-39313D02*
X52256Y-40035D01*
X52106Y-39163D02*
X52256Y-39313D01*
X52106Y-38583D02*
X52106Y-39163D01*
X53766Y-42690D02*
X53766Y-43035D01*
X53480Y-42404D02*
X53766Y-42690D01*
X52789Y-42404D02*
X53480Y-42404D01*
X52756Y-42437D02*
X52789Y-42404D01*
X52756Y-44822D02*
X52756Y-42437D01*
X53003Y-45069D02*
X52756Y-44822D01*
X54203Y-45069D02*
X53003Y-45069D01*
X54304Y-44968D02*
X54203Y-45069D01*
X54304Y-44488D02*
X54304Y-44968D01*
X54784Y-44488D02*
X54304Y-44488D01*
X54256Y-43035D02*
X53766Y-43035D01*
X55202Y-46303D02*
X55206Y-46299D01*
X56063Y-44745D02*
X56063Y-45866D01*
X56063Y-45866D02*
X55630Y-46299D01*
X55275Y-43957D02*
X55215Y-43897D01*
X55275Y-43957D02*
X56063Y-44745D01*
X55206Y-46299D02*
X55630Y-46299D01*
X58661Y-42993D02*
X56119Y-42993D01*
X56119Y-42993D02*
X55215Y-43897D01*
X53484Y-44488D02*
X53964Y-44488D01*
X53256Y-43035D02*
X53256Y-43665D01*
X53621Y-43665D02*
X53256Y-43665D01*
X53964Y-44008D02*
X53621Y-43665D01*
X53964Y-44008D02*
X53964Y-44488D01*
X54075Y-43897D02*
X53964Y-44008D01*
X55215Y-43897D02*
X54075Y-43897D01*
X52165Y-45729D02*
X52165Y-46209D01*
X55202Y-46303D02*
X55197Y-46299D01*
X52259Y-46303D02*
X55202Y-46303D01*
X52165Y-46209D02*
X52259Y-46303D01*
X55096Y-39685D02*
X54746Y-40035D01*
X58661Y-39685D02*
X55096Y-39685D01*
X54256Y-40035D02*
X54746Y-40035D01*
X61914Y-38974D02*
X61203Y-39685D01*
X62992Y-38974D02*
X61914Y-38974D01*
X58661Y-39685D02*
X61203Y-39685D01*
G54D10*
G36*
X53327Y-40035D02*
X53256Y-40106D01*
X53185Y-40035D01*
X53256Y-39964D01*
X53327Y-40035D01*
X53327Y-40035D01*
G37*
G54D31*
X53327Y-40035D02*
X53256Y-40106D01*
X53185Y-40035D01*
X53256Y-39964D01*
X53327Y-40035D01*
G54D10*
G36*
X68217Y-36131D02*
X68146Y-36202D01*
X68075Y-36131D01*
X68146Y-36060D01*
X68217Y-36131D01*
X68217Y-36131D01*
G37*
G54D31*
X68217Y-36131D02*
X68146Y-36202D01*
X68075Y-36131D01*
X68146Y-36060D01*
X68217Y-36131D01*
G54D10*
G36*
X69217Y-36131D02*
X69146Y-36202D01*
X69075Y-36131D01*
X69146Y-36060D01*
X69217Y-36131D01*
X69217Y-36131D01*
G37*
G54D31*
X69217Y-36131D02*
X69146Y-36202D01*
X69075Y-36131D01*
X69146Y-36060D01*
X69217Y-36131D01*
G54D10*
G36*
X73050Y-31450D02*
X72950Y-31450D01*
X72950Y-31350D01*
X73050Y-31350D01*
X73050Y-31450D01*
X73050Y-31450D01*
G37*
G54D31*
X73050Y-31450D02*
X72950Y-31450D01*
X72950Y-31350D01*
X73050Y-31350D01*
X73050Y-31450D01*
G54D10*
G36*
X73050Y-35700D02*
X72950Y-35700D01*
X72900Y-35700D01*
X72412Y-35700D01*
X72350Y-35762D01*
X72351Y-35999D01*
X72389Y-36091D01*
X72459Y-36161D01*
X72550Y-36199D01*
X72649Y-36199D01*
X72731Y-36199D01*
X72557Y-36374D01*
X69646Y-36374D01*
X69704Y-36214D01*
X69693Y-35994D01*
X69630Y-35841D01*
X69629Y-35840D01*
X69712Y-35807D01*
X69836Y-35682D01*
X69904Y-35519D01*
X69904Y-35343D01*
X69904Y-34971D01*
X70809Y-34971D01*
X70832Y-34994D01*
X71060Y-35089D01*
X71307Y-35089D01*
X71535Y-34995D01*
X71676Y-34853D01*
X72176Y-35353D01*
X72178Y-35356D01*
X72299Y-35437D01*
X72340Y-35464D01*
X72342Y-35465D01*
X72350Y-35466D01*
X72350Y-35538D01*
X72412Y-35600D01*
X72749Y-35600D01*
X72800Y-35621D01*
X73047Y-35621D01*
X73050Y-35619D01*
X73050Y-35700D01*
X73050Y-35700D01*
G37*
G54D31*
X73050Y-35700D02*
X72950Y-35700D01*
X72900Y-35700D01*
X72412Y-35700D01*
X72350Y-35762D01*
X72351Y-35999D01*
X72389Y-36091D01*
X72459Y-36161D01*
X72550Y-36199D01*
X72649Y-36199D01*
X72731Y-36199D01*
X72557Y-36374D01*
X69646Y-36374D01*
X69704Y-36214D01*
X69693Y-35994D01*
X69630Y-35841D01*
X69629Y-35840D01*
X69712Y-35807D01*
X69836Y-35682D01*
X69904Y-35519D01*
X69904Y-35343D01*
X69904Y-34971D01*
X70809Y-34971D01*
X70832Y-34994D01*
X71060Y-35089D01*
X71307Y-35089D01*
X71535Y-34995D01*
X71676Y-34853D01*
X72176Y-35353D01*
X72178Y-35356D01*
X72299Y-35437D01*
X72340Y-35464D01*
X72342Y-35465D01*
X72350Y-35466D01*
X72350Y-35538D01*
X72412Y-35600D01*
X72749Y-35600D01*
X72800Y-35621D01*
X73047Y-35621D01*
X73050Y-35619D01*
X73050Y-35700D01*
G54D10*
G36*
X74097Y-27801D02*
X74074Y-27857D01*
X74074Y-28033D01*
X74074Y-28304D01*
X73997Y-28335D01*
X73997Y-27853D01*
X73997Y-27315D01*
X73559Y-27315D01*
X73497Y-27377D01*
X73498Y-27616D01*
X73498Y-27715D01*
X73536Y-27806D01*
X73606Y-27876D01*
X73698Y-27914D01*
X73935Y-27915D01*
X73997Y-27853D01*
X73997Y-28335D01*
X73984Y-28341D01*
X73853Y-28210D01*
X73625Y-28115D01*
X73400Y-28115D01*
X73400Y-27512D01*
X73338Y-27450D01*
X72800Y-27450D01*
X72800Y-27888D01*
X72862Y-27950D01*
X73101Y-27949D01*
X73200Y-27949D01*
X73291Y-27911D01*
X73361Y-27841D01*
X73399Y-27749D01*
X73400Y-27512D01*
X73400Y-28115D01*
X73378Y-28115D01*
X73150Y-28209D01*
X73126Y-28233D01*
X72802Y-28233D01*
X72802Y-28220D01*
X72708Y-27992D01*
X72652Y-27936D01*
X72700Y-27888D01*
X72700Y-27500D01*
X72700Y-27450D01*
X72700Y-27350D01*
X72800Y-27350D01*
X72850Y-27350D01*
X73338Y-27350D01*
X73400Y-27288D01*
X73399Y-27051D01*
X73361Y-26959D01*
X73345Y-26943D01*
X73394Y-26828D01*
X73394Y-26797D01*
X73496Y-26899D01*
X73498Y-26899D01*
X73498Y-26914D01*
X73497Y-27153D01*
X73559Y-27215D01*
X73947Y-27215D01*
X73997Y-27215D01*
X74097Y-27215D01*
X74097Y-27315D01*
X74097Y-27365D01*
X74097Y-27801D01*
X74097Y-27801D01*
G37*
G54D31*
X74097Y-27801D02*
X74074Y-27857D01*
X74074Y-28033D01*
X74074Y-28304D01*
X73997Y-28335D01*
X73997Y-27853D01*
X73997Y-27315D01*
X73559Y-27315D01*
X73497Y-27377D01*
X73498Y-27616D01*
X73498Y-27715D01*
X73536Y-27806D01*
X73606Y-27876D01*
X73698Y-27914D01*
X73935Y-27915D01*
X73997Y-27853D01*
X73997Y-28335D01*
X73984Y-28341D01*
X73853Y-28210D01*
X73625Y-28115D01*
X73400Y-28115D01*
X73400Y-27512D01*
X73338Y-27450D01*
X72800Y-27450D01*
X72800Y-27888D01*
X72862Y-27950D01*
X73101Y-27949D01*
X73200Y-27949D01*
X73291Y-27911D01*
X73361Y-27841D01*
X73399Y-27749D01*
X73400Y-27512D01*
X73400Y-28115D01*
X73378Y-28115D01*
X73150Y-28209D01*
X73126Y-28233D01*
X72802Y-28233D01*
X72802Y-28220D01*
X72708Y-27992D01*
X72652Y-27936D01*
X72700Y-27888D01*
X72700Y-27500D01*
X72700Y-27450D01*
X72700Y-27350D01*
X72800Y-27350D01*
X72850Y-27350D01*
X73338Y-27350D01*
X73400Y-27288D01*
X73399Y-27051D01*
X73361Y-26959D01*
X73345Y-26943D01*
X73394Y-26828D01*
X73394Y-26797D01*
X73496Y-26899D01*
X73498Y-26899D01*
X73498Y-26914D01*
X73497Y-27153D01*
X73559Y-27215D01*
X73947Y-27215D01*
X73997Y-27215D01*
X74097Y-27215D01*
X74097Y-27315D01*
X74097Y-27365D01*
X74097Y-27801D01*
G54D10*
G36*
X74198Y-32062D02*
X74167Y-32137D01*
X74167Y-32313D01*
X74167Y-32584D01*
X74009Y-32649D01*
X73956Y-32702D01*
X73497Y-32702D01*
X73549Y-32578D01*
X73549Y-32331D01*
X73455Y-32103D01*
X73301Y-31949D01*
X73351Y-31949D01*
X73450Y-31949D01*
X73541Y-31911D01*
X73591Y-31861D01*
X73591Y-31916D01*
X73629Y-32007D01*
X73699Y-32077D01*
X73791Y-32115D01*
X74028Y-32116D01*
X74090Y-32054D01*
X74090Y-31566D01*
X74090Y-31516D01*
X74090Y-31416D01*
X74190Y-31416D01*
X74190Y-31516D01*
X74190Y-31566D01*
X74190Y-32054D01*
X74198Y-32062D01*
X74198Y-32062D01*
G37*
G54D31*
X74198Y-32062D02*
X74167Y-32137D01*
X74167Y-32313D01*
X74167Y-32584D01*
X74009Y-32649D01*
X73956Y-32702D01*
X73497Y-32702D01*
X73549Y-32578D01*
X73549Y-32331D01*
X73455Y-32103D01*
X73301Y-31949D01*
X73351Y-31949D01*
X73450Y-31949D01*
X73541Y-31911D01*
X73591Y-31861D01*
X73591Y-31916D01*
X73629Y-32007D01*
X73699Y-32077D01*
X73791Y-32115D01*
X74028Y-32116D01*
X74090Y-32054D01*
X74090Y-31566D01*
X74090Y-31516D01*
X74090Y-31416D01*
X74190Y-31416D01*
X74190Y-31516D01*
X74190Y-31566D01*
X74190Y-32054D01*
X74198Y-32062D01*
G54D10*
G36*
X74296Y-39910D02*
X74196Y-39910D01*
X74146Y-39910D01*
X73758Y-39910D01*
X73696Y-39972D01*
X73696Y-40118D01*
X73649Y-40118D01*
X73650Y-40012D01*
X73650Y-39788D01*
X73649Y-39551D01*
X73611Y-39459D01*
X73541Y-39389D01*
X73450Y-39351D01*
X73351Y-39351D01*
X73112Y-39350D01*
X73050Y-39412D01*
X73050Y-39850D01*
X73588Y-39850D01*
X73650Y-39788D01*
X73650Y-40012D01*
X73588Y-39950D01*
X73100Y-39950D01*
X73050Y-39950D01*
X72950Y-39950D01*
X72950Y-39850D01*
X72950Y-39412D01*
X72888Y-39350D01*
X72649Y-39351D01*
X72550Y-39351D01*
X72459Y-39389D01*
X72389Y-39459D01*
X72351Y-39551D01*
X72350Y-39788D01*
X72412Y-39850D01*
X72950Y-39850D01*
X72950Y-39950D01*
X72900Y-39950D01*
X72412Y-39950D01*
X72350Y-40012D01*
X72350Y-40118D01*
X69177Y-40118D01*
X70192Y-39103D01*
X72204Y-39103D01*
X72224Y-39151D01*
X72349Y-39275D01*
X72512Y-39343D01*
X72688Y-39343D01*
X73488Y-39343D01*
X73534Y-39323D01*
X73570Y-39409D01*
X73695Y-39533D01*
X73696Y-39533D01*
X73696Y-39748D01*
X73758Y-39810D01*
X74146Y-39810D01*
X74196Y-39810D01*
X74296Y-39810D01*
X74296Y-39910D01*
X74296Y-39910D01*
G37*
G54D31*
X74296Y-39910D02*
X74196Y-39910D01*
X74146Y-39910D01*
X73758Y-39910D01*
X73696Y-39972D01*
X73696Y-40118D01*
X73649Y-40118D01*
X73650Y-40012D01*
X73650Y-39788D01*
X73649Y-39551D01*
X73611Y-39459D01*
X73541Y-39389D01*
X73450Y-39351D01*
X73351Y-39351D01*
X73112Y-39350D01*
X73050Y-39412D01*
X73050Y-39850D01*
X73588Y-39850D01*
X73650Y-39788D01*
X73650Y-40012D01*
X73588Y-39950D01*
X73100Y-39950D01*
X73050Y-39950D01*
X72950Y-39950D01*
X72950Y-39850D01*
X72950Y-39412D01*
X72888Y-39350D01*
X72649Y-39351D01*
X72550Y-39351D01*
X72459Y-39389D01*
X72389Y-39459D01*
X72351Y-39551D01*
X72350Y-39788D01*
X72412Y-39850D01*
X72950Y-39850D01*
X72950Y-39950D01*
X72900Y-39950D01*
X72412Y-39950D01*
X72350Y-40012D01*
X72350Y-40118D01*
X69177Y-40118D01*
X70192Y-39103D01*
X72204Y-39103D01*
X72224Y-39151D01*
X72349Y-39275D01*
X72512Y-39343D01*
X72688Y-39343D01*
X73488Y-39343D01*
X73534Y-39323D01*
X73570Y-39409D01*
X73695Y-39533D01*
X73696Y-39533D01*
X73696Y-39748D01*
X73758Y-39810D01*
X74146Y-39810D01*
X74196Y-39810D01*
X74296Y-39810D01*
X74296Y-39910D01*
G54D10*
G36*
X74729Y-35835D02*
X74720Y-35835D01*
X74660Y-35775D01*
X74272Y-35775D01*
X74222Y-35775D01*
X74122Y-35775D01*
X74122Y-35675D01*
X74222Y-35675D01*
X74272Y-35675D01*
X74660Y-35675D01*
X74722Y-35613D01*
X74721Y-35609D01*
X74729Y-35608D01*
X74729Y-35835D01*
X74729Y-35835D01*
G37*
G54D31*
X74729Y-35835D02*
X74720Y-35835D01*
X74660Y-35775D01*
X74272Y-35775D01*
X74222Y-35775D01*
X74122Y-35775D01*
X74122Y-35675D01*
X74222Y-35675D01*
X74272Y-35675D01*
X74660Y-35675D01*
X74722Y-35613D01*
X74721Y-35609D01*
X74729Y-35608D01*
X74729Y-35835D01*
G54D10*
G36*
X76508Y-38044D02*
X76407Y-38146D01*
X76394Y-38176D01*
X76250Y-38176D01*
X76222Y-38107D01*
X76097Y-37983D01*
X75934Y-37915D01*
X75758Y-37915D01*
X75442Y-37915D01*
X75493Y-37894D01*
X75563Y-37824D01*
X75601Y-37733D01*
X75601Y-37634D01*
X75602Y-37615D01*
X75540Y-37553D01*
X75272Y-37553D01*
X75222Y-37553D01*
X75122Y-37553D01*
X75122Y-37453D01*
X75222Y-37453D01*
X75272Y-37453D01*
X75540Y-37453D01*
X75602Y-37391D01*
X75601Y-37372D01*
X75601Y-37346D01*
X75817Y-37346D01*
X75817Y-37546D01*
X75911Y-37774D01*
X76086Y-37949D01*
X76314Y-38044D01*
X76508Y-38044D01*
X76508Y-38044D01*
G37*
G54D31*
X76508Y-38044D02*
X76407Y-38146D01*
X76394Y-38176D01*
X76250Y-38176D01*
X76222Y-38107D01*
X76097Y-37983D01*
X75934Y-37915D01*
X75758Y-37915D01*
X75442Y-37915D01*
X75493Y-37894D01*
X75563Y-37824D01*
X75601Y-37733D01*
X75601Y-37634D01*
X75602Y-37615D01*
X75540Y-37553D01*
X75272Y-37553D01*
X75222Y-37553D01*
X75122Y-37553D01*
X75122Y-37453D01*
X75222Y-37453D01*
X75272Y-37453D01*
X75540Y-37453D01*
X75602Y-37391D01*
X75601Y-37372D01*
X75601Y-37346D01*
X75817Y-37346D01*
X75817Y-37546D01*
X75911Y-37774D01*
X76086Y-37949D01*
X76314Y-38044D01*
X76508Y-38044D01*
G54D10*
G36*
X77059Y-35735D02*
X76959Y-35735D01*
X76959Y-35635D01*
X77059Y-35635D01*
X77059Y-35735D01*
X77059Y-35735D01*
G37*
G54D31*
X77059Y-35735D02*
X76959Y-35735D01*
X76959Y-35635D01*
X77059Y-35635D01*
X77059Y-35735D01*
G54D10*
G36*
X77064Y-27881D02*
X77041Y-27937D01*
X77041Y-28113D01*
X77041Y-28384D01*
X76964Y-28415D01*
X76964Y-27894D01*
X76964Y-27356D01*
X76526Y-27356D01*
X76464Y-27418D01*
X76465Y-27657D01*
X76465Y-27756D01*
X76503Y-27847D01*
X76573Y-27917D01*
X76665Y-27955D01*
X76902Y-27956D01*
X76964Y-27894D01*
X76964Y-28415D01*
X76883Y-28449D01*
X76800Y-28532D01*
X76762Y-28540D01*
X76598Y-28649D01*
X76596Y-28651D01*
X76391Y-28856D01*
X75477Y-28856D01*
X75477Y-28825D01*
X75465Y-28825D01*
X75477Y-28813D01*
X75476Y-28794D01*
X75476Y-28695D01*
X75438Y-28604D01*
X75368Y-28534D01*
X75276Y-28496D01*
X75320Y-28393D01*
X75320Y-28217D01*
X75320Y-28108D01*
X75735Y-28108D01*
X75898Y-28041D01*
X76022Y-27916D01*
X76090Y-27753D01*
X76090Y-27577D01*
X76090Y-27306D01*
X76297Y-27221D01*
X76464Y-27053D01*
X76464Y-27194D01*
X76526Y-27256D01*
X76914Y-27256D01*
X76964Y-27256D01*
X77064Y-27256D01*
X77064Y-27356D01*
X77064Y-27406D01*
X77064Y-27881D01*
X77064Y-27881D01*
G37*
G54D31*
X77064Y-27881D02*
X77041Y-27937D01*
X77041Y-28113D01*
X77041Y-28384D01*
X76964Y-28415D01*
X76964Y-27894D01*
X76964Y-27356D01*
X76526Y-27356D01*
X76464Y-27418D01*
X76465Y-27657D01*
X76465Y-27756D01*
X76503Y-27847D01*
X76573Y-27917D01*
X76665Y-27955D01*
X76902Y-27956D01*
X76964Y-27894D01*
X76964Y-28415D01*
X76883Y-28449D01*
X76800Y-28532D01*
X76762Y-28540D01*
X76598Y-28649D01*
X76596Y-28651D01*
X76391Y-28856D01*
X75477Y-28856D01*
X75477Y-28825D01*
X75465Y-28825D01*
X75477Y-28813D01*
X75476Y-28794D01*
X75476Y-28695D01*
X75438Y-28604D01*
X75368Y-28534D01*
X75276Y-28496D01*
X75320Y-28393D01*
X75320Y-28217D01*
X75320Y-28108D01*
X75735Y-28108D01*
X75898Y-28041D01*
X76022Y-27916D01*
X76090Y-27753D01*
X76090Y-27577D01*
X76090Y-27306D01*
X76297Y-27221D01*
X76464Y-27053D01*
X76464Y-27194D01*
X76526Y-27256D01*
X76914Y-27256D01*
X76964Y-27256D01*
X77064Y-27256D01*
X77064Y-27356D01*
X77064Y-27406D01*
X77064Y-27881D01*
G54D10*
G36*
X77094Y-44921D02*
X77071Y-44977D01*
X77071Y-45153D01*
X77071Y-45370D01*
X76925Y-45310D01*
X76720Y-45310D01*
X76771Y-45189D01*
X76771Y-44995D01*
X76932Y-44996D01*
X76994Y-44934D01*
X76994Y-44396D01*
X76556Y-44396D01*
X76494Y-44458D01*
X76494Y-44535D01*
X76421Y-44505D01*
X76421Y-43907D01*
X76493Y-43979D01*
X76495Y-43979D01*
X76495Y-43995D01*
X76494Y-44234D01*
X76556Y-44296D01*
X76944Y-44296D01*
X76994Y-44296D01*
X77094Y-44296D01*
X77094Y-44396D01*
X77094Y-44446D01*
X77094Y-44921D01*
X77094Y-44921D01*
G37*
G54D31*
X77094Y-44921D02*
X77071Y-44977D01*
X77071Y-45153D01*
X77071Y-45370D01*
X76925Y-45310D01*
X76720Y-45310D01*
X76771Y-45189D01*
X76771Y-44995D01*
X76932Y-44996D01*
X76994Y-44934D01*
X76994Y-44396D01*
X76556Y-44396D01*
X76494Y-44458D01*
X76494Y-44535D01*
X76421Y-44505D01*
X76421Y-43907D01*
X76493Y-43979D01*
X76495Y-43979D01*
X76495Y-43995D01*
X76494Y-44234D01*
X76556Y-44296D01*
X76944Y-44296D01*
X76994Y-44296D01*
X77094Y-44296D01*
X77094Y-44396D01*
X77094Y-44446D01*
X77094Y-44921D01*
G54D10*
G36*
X77171Y-40028D02*
X77071Y-40028D01*
X77021Y-40028D01*
X76633Y-40028D01*
X76571Y-40090D01*
X76571Y-40095D01*
X76289Y-40095D01*
X76289Y-39418D01*
X76393Y-39418D01*
X76406Y-39448D01*
X76531Y-39572D01*
X76572Y-39589D01*
X76572Y-39627D01*
X76571Y-39866D01*
X76633Y-39928D01*
X77021Y-39928D01*
X77071Y-39928D01*
X77171Y-39928D01*
X77171Y-40028D01*
X77171Y-40028D01*
G37*
G54D31*
X77171Y-40028D02*
X77071Y-40028D01*
X77021Y-40028D01*
X76633Y-40028D01*
X76571Y-40090D01*
X76571Y-40095D01*
X76289Y-40095D01*
X76289Y-39418D01*
X76393Y-39418D01*
X76406Y-39448D01*
X76531Y-39572D01*
X76572Y-39589D01*
X76572Y-39627D01*
X76571Y-39866D01*
X76633Y-39928D01*
X77021Y-39928D01*
X77071Y-39928D01*
X77171Y-39928D01*
X77171Y-40028D01*
G54D10*
G36*
X79492Y-28646D02*
X79042Y-29096D01*
X78423Y-29096D01*
X78382Y-29055D01*
X78114Y-29055D01*
X78064Y-29055D01*
X77964Y-29055D01*
X77964Y-28955D01*
X78064Y-28955D01*
X78114Y-28955D01*
X78382Y-28955D01*
X78444Y-28893D01*
X78443Y-28874D01*
X78443Y-28775D01*
X78405Y-28684D01*
X78335Y-28614D01*
X78243Y-28576D01*
X78264Y-28528D01*
X79155Y-28528D01*
X79178Y-28551D01*
X79406Y-28646D01*
X79492Y-28646D01*
X79492Y-28646D01*
G37*
G54D31*
X79492Y-28646D02*
X79042Y-29096D01*
X78423Y-29096D01*
X78382Y-29055D01*
X78114Y-29055D01*
X78064Y-29055D01*
X77964Y-29055D01*
X77964Y-28955D01*
X78064Y-28955D01*
X78114Y-28955D01*
X78382Y-28955D01*
X78444Y-28893D01*
X78443Y-28874D01*
X78443Y-28775D01*
X78405Y-28684D01*
X78335Y-28614D01*
X78243Y-28576D01*
X78264Y-28528D01*
X79155Y-28528D01*
X79178Y-28551D01*
X79406Y-28646D01*
X79492Y-28646D01*
G54D10*
G36*
X79856Y-23368D02*
X79756Y-23368D01*
X79706Y-23368D01*
X79318Y-23368D01*
X79256Y-23430D01*
X79257Y-23669D01*
X79257Y-23768D01*
X79295Y-23859D01*
X79365Y-23929D01*
X79457Y-23967D01*
X79694Y-23968D01*
X79706Y-23956D01*
X79706Y-23968D01*
X79756Y-23968D01*
X79801Y-23968D01*
X79793Y-23988D01*
X79793Y-24164D01*
X79793Y-24435D01*
X79756Y-24450D01*
X79635Y-24500D01*
X79582Y-24553D01*
X75348Y-24553D01*
X75348Y-22947D01*
X75286Y-22885D01*
X74262Y-22885D01*
X74262Y-23613D01*
X74324Y-23675D01*
X75147Y-23674D01*
X75239Y-23636D01*
X75309Y-23566D01*
X75347Y-23475D01*
X75347Y-23376D01*
X75348Y-22947D01*
X75348Y-24553D01*
X74162Y-24553D01*
X73092Y-24553D01*
X73147Y-24422D01*
X73147Y-24175D01*
X73053Y-23947D01*
X73029Y-23923D01*
X73029Y-22920D01*
X73076Y-22873D01*
X73076Y-22935D01*
X73088Y-22935D01*
X73076Y-22947D01*
X73077Y-23376D01*
X73077Y-23475D01*
X73115Y-23566D01*
X73185Y-23636D01*
X73277Y-23674D01*
X74100Y-23675D01*
X74162Y-23613D01*
X74162Y-22935D01*
X74162Y-22885D01*
X74162Y-22785D01*
X74262Y-22785D01*
X74312Y-22785D01*
X75286Y-22785D01*
X75348Y-22723D01*
X75347Y-22567D01*
X76033Y-22567D01*
X76033Y-23513D01*
X76100Y-23676D01*
X76225Y-23800D01*
X76388Y-23868D01*
X76564Y-23868D01*
X78336Y-23868D01*
X78499Y-23801D01*
X78623Y-23676D01*
X78691Y-23513D01*
X78691Y-23337D01*
X78691Y-23253D01*
X78691Y-23252D01*
X78784Y-23191D01*
X79158Y-22815D01*
X79255Y-22911D01*
X79257Y-22911D01*
X79257Y-22967D01*
X79256Y-23206D01*
X79318Y-23268D01*
X79706Y-23268D01*
X79756Y-23268D01*
X79856Y-23268D01*
X79856Y-23368D01*
X79856Y-23368D01*
G37*
G54D31*
X79856Y-23368D02*
X79756Y-23368D01*
X79706Y-23368D01*
X79318Y-23368D01*
X79256Y-23430D01*
X79257Y-23669D01*
X79257Y-23768D01*
X79295Y-23859D01*
X79365Y-23929D01*
X79457Y-23967D01*
X79694Y-23968D01*
X79706Y-23956D01*
X79706Y-23968D01*
X79756Y-23968D01*
X79801Y-23968D01*
X79793Y-23988D01*
X79793Y-24164D01*
X79793Y-24435D01*
X79756Y-24450D01*
X79635Y-24500D01*
X79582Y-24553D01*
X75348Y-24553D01*
X75348Y-22947D01*
X75286Y-22885D01*
X74262Y-22885D01*
X74262Y-23613D01*
X74324Y-23675D01*
X75147Y-23674D01*
X75239Y-23636D01*
X75309Y-23566D01*
X75347Y-23475D01*
X75347Y-23376D01*
X75348Y-22947D01*
X75348Y-24553D01*
X74162Y-24553D01*
X73092Y-24553D01*
X73147Y-24422D01*
X73147Y-24175D01*
X73053Y-23947D01*
X73029Y-23923D01*
X73029Y-22920D01*
X73076Y-22873D01*
X73076Y-22935D01*
X73088Y-22935D01*
X73076Y-22947D01*
X73077Y-23376D01*
X73077Y-23475D01*
X73115Y-23566D01*
X73185Y-23636D01*
X73277Y-23674D01*
X74100Y-23675D01*
X74162Y-23613D01*
X74162Y-22935D01*
X74162Y-22885D01*
X74162Y-22785D01*
X74262Y-22785D01*
X74312Y-22785D01*
X75286Y-22785D01*
X75348Y-22723D01*
X75347Y-22567D01*
X76033Y-22567D01*
X76033Y-23513D01*
X76100Y-23676D01*
X76225Y-23800D01*
X76388Y-23868D01*
X76564Y-23868D01*
X78336Y-23868D01*
X78499Y-23801D01*
X78623Y-23676D01*
X78691Y-23513D01*
X78691Y-23337D01*
X78691Y-23253D01*
X78691Y-23252D01*
X78784Y-23191D01*
X79158Y-22815D01*
X79255Y-22911D01*
X79257Y-22911D01*
X79257Y-22967D01*
X79256Y-23206D01*
X79318Y-23268D01*
X79706Y-23268D01*
X79756Y-23268D01*
X79856Y-23268D01*
X79856Y-23368D01*
G54D10*
G36*
X79895Y-35656D02*
X79841Y-35656D01*
X79841Y-35556D01*
X79895Y-35556D01*
X79895Y-35656D01*
X79895Y-35656D01*
G37*
G54D31*
X79895Y-35656D02*
X79841Y-35656D01*
X79841Y-35556D01*
X79895Y-35556D01*
X79895Y-35656D01*
G54D10*
G36*
X79930Y-40500D02*
X79868Y-40649D01*
X79868Y-40825D01*
X79868Y-41096D01*
X79710Y-41161D01*
X79627Y-41244D01*
X79589Y-41252D01*
X79425Y-41361D01*
X78973Y-41813D01*
X78551Y-41813D01*
X78551Y-41787D01*
X78755Y-41787D01*
X78947Y-41749D01*
X78948Y-41749D01*
X79111Y-41640D01*
X79408Y-41343D01*
X79517Y-41180D01*
X79517Y-41179D01*
X79555Y-40987D01*
X79555Y-40588D01*
X79768Y-40589D01*
X79830Y-40527D01*
X79830Y-40039D01*
X79830Y-39989D01*
X79830Y-39889D01*
X79930Y-39889D01*
X79930Y-39989D01*
X79930Y-40039D01*
X79930Y-40500D01*
X79930Y-40500D01*
G37*
G54D31*
X79930Y-40500D02*
X79868Y-40649D01*
X79868Y-40825D01*
X79868Y-41096D01*
X79710Y-41161D01*
X79627Y-41244D01*
X79589Y-41252D01*
X79425Y-41361D01*
X78973Y-41813D01*
X78551Y-41813D01*
X78551Y-41787D01*
X78755Y-41787D01*
X78947Y-41749D01*
X78948Y-41749D01*
X79111Y-41640D01*
X79408Y-41343D01*
X79517Y-41180D01*
X79517Y-41179D01*
X79555Y-40987D01*
X79555Y-40588D01*
X79768Y-40589D01*
X79830Y-40527D01*
X79830Y-40039D01*
X79830Y-39989D01*
X79830Y-39889D01*
X79930Y-39889D01*
X79930Y-39989D01*
X79930Y-40039D01*
X79930Y-40500D01*
G54D10*
G36*
X79950Y-32089D02*
X79931Y-32136D01*
X79931Y-32312D01*
X79931Y-32583D01*
X79815Y-32630D01*
X79815Y-32054D01*
X79815Y-31516D01*
X79377Y-31516D01*
X79315Y-31578D01*
X79316Y-31817D01*
X79316Y-31916D01*
X79354Y-32007D01*
X79424Y-32077D01*
X79516Y-32115D01*
X79753Y-32116D01*
X79815Y-32054D01*
X79815Y-32630D01*
X79773Y-32648D01*
X79690Y-32731D01*
X79652Y-32739D01*
X79488Y-32848D01*
X79275Y-33061D01*
X78357Y-33061D01*
X78365Y-33053D01*
X78364Y-33034D01*
X78364Y-32935D01*
X78326Y-32844D01*
X78256Y-32774D01*
X78164Y-32736D01*
X78208Y-32633D01*
X78208Y-32457D01*
X78208Y-32309D01*
X78623Y-32309D01*
X78786Y-32242D01*
X78910Y-32117D01*
X78978Y-31954D01*
X78978Y-31778D01*
X78978Y-31378D01*
X79339Y-31378D01*
X79377Y-31416D01*
X79765Y-31416D01*
X79815Y-31416D01*
X79915Y-31416D01*
X79908Y-31437D01*
X79908Y-31684D01*
X79915Y-31700D01*
X79915Y-32054D01*
X79950Y-32089D01*
X79950Y-32089D01*
G37*
G54D31*
X79950Y-32089D02*
X79931Y-32136D01*
X79931Y-32312D01*
X79931Y-32583D01*
X79815Y-32630D01*
X79815Y-32054D01*
X79815Y-31516D01*
X79377Y-31516D01*
X79315Y-31578D01*
X79316Y-31817D01*
X79316Y-31916D01*
X79354Y-32007D01*
X79424Y-32077D01*
X79516Y-32115D01*
X79753Y-32116D01*
X79815Y-32054D01*
X79815Y-32630D01*
X79773Y-32648D01*
X79690Y-32731D01*
X79652Y-32739D01*
X79488Y-32848D01*
X79275Y-33061D01*
X78357Y-33061D01*
X78365Y-33053D01*
X78364Y-33034D01*
X78364Y-32935D01*
X78326Y-32844D01*
X78256Y-32774D01*
X78164Y-32736D01*
X78208Y-32633D01*
X78208Y-32457D01*
X78208Y-32309D01*
X78623Y-32309D01*
X78786Y-32242D01*
X78910Y-32117D01*
X78978Y-31954D01*
X78978Y-31778D01*
X78978Y-31378D01*
X79339Y-31378D01*
X79377Y-31416D01*
X79765Y-31416D01*
X79815Y-31416D01*
X79915Y-31416D01*
X79908Y-31437D01*
X79908Y-31684D01*
X79915Y-31700D01*
X79915Y-32054D01*
X79950Y-32089D01*
G54D10*
G36*
X79953Y-27278D02*
X79853Y-27278D01*
X79803Y-27278D01*
X79415Y-27278D01*
X79353Y-27340D01*
X79353Y-27426D01*
X79179Y-27498D01*
X79155Y-27522D01*
X79057Y-27522D01*
X79057Y-26818D01*
X79014Y-26714D01*
X79057Y-26613D01*
X79057Y-26437D01*
X79057Y-26047D01*
X79160Y-26047D01*
X79160Y-26574D01*
X79227Y-26737D01*
X79352Y-26861D01*
X79354Y-26861D01*
X79354Y-26877D01*
X79353Y-27116D01*
X79415Y-27178D01*
X79803Y-27178D01*
X79853Y-27178D01*
X79953Y-27178D01*
X79953Y-27278D01*
X79953Y-27278D01*
G37*
G54D31*
X79953Y-27278D02*
X79853Y-27278D01*
X79803Y-27278D01*
X79415Y-27278D01*
X79353Y-27340D01*
X79353Y-27426D01*
X79179Y-27498D01*
X79155Y-27522D01*
X79057Y-27522D01*
X79057Y-26818D01*
X79014Y-26714D01*
X79057Y-26613D01*
X79057Y-26437D01*
X79057Y-26047D01*
X79160Y-26047D01*
X79160Y-26574D01*
X79227Y-26737D01*
X79352Y-26861D01*
X79354Y-26861D01*
X79354Y-26877D01*
X79353Y-27116D01*
X79415Y-27178D01*
X79803Y-27178D01*
X79853Y-27178D01*
X79953Y-27178D01*
X79953Y-27278D01*
G54D10*
G36*
X80895Y-37301D02*
X80884Y-37312D01*
X80795Y-37312D01*
X80795Y-37216D01*
X80895Y-37216D01*
X80895Y-37301D01*
X80895Y-37301D01*
G37*
G54D31*
X80895Y-37301D02*
X80884Y-37312D01*
X80795Y-37312D01*
X80795Y-37216D01*
X80895Y-37216D01*
X80895Y-37301D01*
G54D10*
G36*
X83476Y-30788D02*
X81320Y-32943D01*
X81295Y-32883D01*
X81225Y-32813D01*
X81133Y-32775D01*
X81177Y-32672D01*
X81177Y-32496D01*
X81177Y-32309D01*
X81553Y-32309D01*
X81716Y-32242D01*
X81840Y-32117D01*
X81908Y-31954D01*
X81908Y-31778D01*
X81908Y-30978D01*
X81865Y-30874D01*
X81901Y-30788D01*
X83476Y-30788D01*
X83476Y-30788D01*
G37*
G54D31*
X83476Y-30788D02*
X81320Y-32943D01*
X81295Y-32883D01*
X81225Y-32813D01*
X81133Y-32775D01*
X81177Y-32672D01*
X81177Y-32496D01*
X81177Y-32309D01*
X81553Y-32309D01*
X81716Y-32242D01*
X81840Y-32117D01*
X81908Y-31954D01*
X81908Y-31778D01*
X81908Y-30978D01*
X81865Y-30874D01*
X81901Y-30788D01*
X83476Y-30788D01*
G54D10*
G36*
X85492Y-24175D02*
X85421Y-24246D01*
X85350Y-24316D01*
X85350Y-24175D01*
X84698Y-23522D01*
X84555Y-23607D01*
X84403Y-23982D01*
X84407Y-24386D01*
X84555Y-24743D01*
X84698Y-24828D01*
X85350Y-24175D01*
X85350Y-24316D01*
X84768Y-24898D01*
X84853Y-25041D01*
X85228Y-25193D01*
X85443Y-25190D01*
X84692Y-25942D01*
X84421Y-25942D01*
X84229Y-25980D01*
X84065Y-26089D01*
X83973Y-26226D01*
X82933Y-25185D01*
X82933Y-23400D01*
X82871Y-23338D01*
X82333Y-23338D01*
X82333Y-23776D01*
X82395Y-23838D01*
X82634Y-23837D01*
X82733Y-23837D01*
X82824Y-23799D01*
X82894Y-23729D01*
X82932Y-23637D01*
X82933Y-23400D01*
X82933Y-25185D01*
X81749Y-24001D01*
X81781Y-23969D01*
X81836Y-23837D01*
X81932Y-23837D01*
X82171Y-23838D01*
X82233Y-23776D01*
X82233Y-23388D01*
X82233Y-23338D01*
X82233Y-23238D01*
X82333Y-23238D01*
X82383Y-23238D01*
X82871Y-23238D01*
X82933Y-23176D01*
X82932Y-22939D01*
X82894Y-22847D01*
X82824Y-22777D01*
X82733Y-22739D01*
X82695Y-22739D01*
X82700Y-22731D01*
X82771Y-22731D01*
X82934Y-22664D01*
X83058Y-22539D01*
X83126Y-22376D01*
X83126Y-22200D01*
X83126Y-22010D01*
X83876Y-22010D01*
X85081Y-23214D01*
X84853Y-23309D01*
X84768Y-23452D01*
X85386Y-24069D01*
X85421Y-24104D01*
X85492Y-24175D01*
X85492Y-24175D01*
G37*
G54D31*
X85492Y-24175D02*
X85421Y-24246D01*
X85350Y-24316D01*
X85350Y-24175D01*
X84698Y-23522D01*
X84555Y-23607D01*
X84403Y-23982D01*
X84407Y-24386D01*
X84555Y-24743D01*
X84698Y-24828D01*
X85350Y-24175D01*
X85350Y-24316D01*
X84768Y-24898D01*
X84853Y-25041D01*
X85228Y-25193D01*
X85443Y-25190D01*
X84692Y-25942D01*
X84421Y-25942D01*
X84229Y-25980D01*
X84065Y-26089D01*
X83973Y-26226D01*
X82933Y-25185D01*
X82933Y-23400D01*
X82871Y-23338D01*
X82333Y-23338D01*
X82333Y-23776D01*
X82395Y-23838D01*
X82634Y-23837D01*
X82733Y-23837D01*
X82824Y-23799D01*
X82894Y-23729D01*
X82932Y-23637D01*
X82933Y-23400D01*
X82933Y-25185D01*
X81749Y-24001D01*
X81781Y-23969D01*
X81836Y-23837D01*
X81932Y-23837D01*
X82171Y-23838D01*
X82233Y-23776D01*
X82233Y-23388D01*
X82233Y-23338D01*
X82233Y-23238D01*
X82333Y-23238D01*
X82383Y-23238D01*
X82871Y-23238D01*
X82933Y-23176D01*
X82932Y-22939D01*
X82894Y-22847D01*
X82824Y-22777D01*
X82733Y-22739D01*
X82695Y-22739D01*
X82700Y-22731D01*
X82771Y-22731D01*
X82934Y-22664D01*
X83058Y-22539D01*
X83126Y-22376D01*
X83126Y-22200D01*
X83126Y-22010D01*
X83876Y-22010D01*
X85081Y-23214D01*
X84853Y-23309D01*
X84768Y-23452D01*
X85386Y-24069D01*
X85421Y-24104D01*
X85492Y-24175D01*
G54D10*
G36*
X85492Y-42675D02*
X85421Y-42746D01*
X85350Y-42675D01*
X85315Y-42640D01*
X84698Y-42022D01*
X84555Y-42107D01*
X84403Y-42482D01*
X84407Y-42886D01*
X84555Y-43243D01*
X84603Y-43272D01*
X81870Y-43272D01*
X81870Y-42716D01*
X81803Y-42553D01*
X81678Y-42429D01*
X81515Y-42361D01*
X81339Y-42361D01*
X81271Y-42361D01*
X81271Y-41829D01*
X81209Y-41767D01*
X80891Y-41767D01*
X80891Y-42085D01*
X80953Y-42147D01*
X81070Y-42146D01*
X81162Y-42108D01*
X81232Y-42038D01*
X81270Y-41947D01*
X81270Y-41848D01*
X81271Y-41829D01*
X81271Y-42361D01*
X80739Y-42361D01*
X80576Y-42428D01*
X80477Y-42527D01*
X80378Y-42429D01*
X80215Y-42361D01*
X80039Y-42361D01*
X79849Y-42361D01*
X79870Y-42339D01*
X79873Y-42340D01*
X80049Y-42340D01*
X80409Y-42340D01*
X80572Y-42273D01*
X80696Y-42148D01*
X80696Y-42146D01*
X80729Y-42147D01*
X80791Y-42085D01*
X80791Y-41817D01*
X80791Y-41767D01*
X80791Y-41667D01*
X80891Y-41667D01*
X80941Y-41667D01*
X81209Y-41667D01*
X81271Y-41605D01*
X81270Y-41586D01*
X81270Y-41487D01*
X81232Y-41396D01*
X81162Y-41326D01*
X81070Y-41288D01*
X81114Y-41185D01*
X81114Y-41009D01*
X81114Y-40782D01*
X81568Y-40782D01*
X81731Y-40715D01*
X81855Y-40590D01*
X81923Y-40427D01*
X81923Y-40251D01*
X81923Y-39451D01*
X81899Y-39394D01*
X81962Y-39246D01*
X81962Y-39070D01*
X81962Y-39016D01*
X83801Y-37177D01*
X83874Y-37250D01*
X83779Y-37345D01*
X83663Y-37624D01*
X83663Y-37925D01*
X83778Y-38204D01*
X83991Y-38417D01*
X84108Y-38466D01*
X84103Y-38486D01*
X84386Y-38769D01*
X84418Y-38801D01*
X84418Y-38949D01*
X84386Y-38981D01*
X84350Y-39017D01*
X84350Y-38875D01*
X84032Y-38557D01*
X83937Y-38585D01*
X83863Y-38792D01*
X83874Y-39012D01*
X83937Y-39165D01*
X84032Y-39193D01*
X84350Y-38875D01*
X84350Y-39017D01*
X84103Y-39264D01*
X84131Y-39359D01*
X84319Y-39426D01*
X84284Y-39428D01*
X84131Y-39491D01*
X84103Y-39586D01*
X84386Y-39869D01*
X84418Y-39901D01*
X84418Y-40049D01*
X84386Y-40081D01*
X84350Y-40117D01*
X84350Y-39975D01*
X84032Y-39657D01*
X83937Y-39685D01*
X83863Y-39892D01*
X83874Y-40112D01*
X83937Y-40265D01*
X84032Y-40293D01*
X84350Y-39975D01*
X84350Y-40117D01*
X84103Y-40364D01*
X84131Y-40459D01*
X84338Y-40533D01*
X84430Y-40528D01*
X84437Y-40561D01*
X84546Y-40724D01*
X84626Y-40804D01*
X84626Y-40836D01*
X84720Y-41064D01*
X84895Y-41239D01*
X85123Y-41334D01*
X85156Y-41334D01*
X85480Y-41658D01*
X85210Y-41661D01*
X84853Y-41809D01*
X84768Y-41952D01*
X85386Y-42569D01*
X85421Y-42604D01*
X85492Y-42675D01*
X85492Y-42675D01*
G37*
G54D31*
X85492Y-42675D02*
X85421Y-42746D01*
X85350Y-42675D01*
X85315Y-42640D01*
X84698Y-42022D01*
X84555Y-42107D01*
X84403Y-42482D01*
X84407Y-42886D01*
X84555Y-43243D01*
X84603Y-43272D01*
X81870Y-43272D01*
X81870Y-42716D01*
X81803Y-42553D01*
X81678Y-42429D01*
X81515Y-42361D01*
X81339Y-42361D01*
X81271Y-42361D01*
X81271Y-41829D01*
X81209Y-41767D01*
X80891Y-41767D01*
X80891Y-42085D01*
X80953Y-42147D01*
X81070Y-42146D01*
X81162Y-42108D01*
X81232Y-42038D01*
X81270Y-41947D01*
X81270Y-41848D01*
X81271Y-41829D01*
X81271Y-42361D01*
X80739Y-42361D01*
X80576Y-42428D01*
X80477Y-42527D01*
X80378Y-42429D01*
X80215Y-42361D01*
X80039Y-42361D01*
X79849Y-42361D01*
X79870Y-42339D01*
X79873Y-42340D01*
X80049Y-42340D01*
X80409Y-42340D01*
X80572Y-42273D01*
X80696Y-42148D01*
X80696Y-42146D01*
X80729Y-42147D01*
X80791Y-42085D01*
X80791Y-41817D01*
X80791Y-41767D01*
X80791Y-41667D01*
X80891Y-41667D01*
X80941Y-41667D01*
X81209Y-41667D01*
X81271Y-41605D01*
X81270Y-41586D01*
X81270Y-41487D01*
X81232Y-41396D01*
X81162Y-41326D01*
X81070Y-41288D01*
X81114Y-41185D01*
X81114Y-41009D01*
X81114Y-40782D01*
X81568Y-40782D01*
X81731Y-40715D01*
X81855Y-40590D01*
X81923Y-40427D01*
X81923Y-40251D01*
X81923Y-39451D01*
X81899Y-39394D01*
X81962Y-39246D01*
X81962Y-39070D01*
X81962Y-39016D01*
X83801Y-37177D01*
X83874Y-37250D01*
X83779Y-37345D01*
X83663Y-37624D01*
X83663Y-37925D01*
X83778Y-38204D01*
X83991Y-38417D01*
X84108Y-38466D01*
X84103Y-38486D01*
X84386Y-38769D01*
X84418Y-38801D01*
X84418Y-38949D01*
X84386Y-38981D01*
X84350Y-39017D01*
X84350Y-38875D01*
X84032Y-38557D01*
X83937Y-38585D01*
X83863Y-38792D01*
X83874Y-39012D01*
X83937Y-39165D01*
X84032Y-39193D01*
X84350Y-38875D01*
X84350Y-39017D01*
X84103Y-39264D01*
X84131Y-39359D01*
X84319Y-39426D01*
X84284Y-39428D01*
X84131Y-39491D01*
X84103Y-39586D01*
X84386Y-39869D01*
X84418Y-39901D01*
X84418Y-40049D01*
X84386Y-40081D01*
X84350Y-40117D01*
X84350Y-39975D01*
X84032Y-39657D01*
X83937Y-39685D01*
X83863Y-39892D01*
X83874Y-40112D01*
X83937Y-40265D01*
X84032Y-40293D01*
X84350Y-39975D01*
X84350Y-40117D01*
X84103Y-40364D01*
X84131Y-40459D01*
X84338Y-40533D01*
X84430Y-40528D01*
X84437Y-40561D01*
X84546Y-40724D01*
X84626Y-40804D01*
X84626Y-40836D01*
X84720Y-41064D01*
X84895Y-41239D01*
X85123Y-41334D01*
X85156Y-41334D01*
X85480Y-41658D01*
X85210Y-41661D01*
X84853Y-41809D01*
X84768Y-41952D01*
X85386Y-42569D01*
X85421Y-42604D01*
X85492Y-42675D01*
G54D10*
G36*
X89442Y-44551D02*
X89439Y-44554D01*
X89407Y-44585D01*
X89260Y-44401D01*
X88605Y-44121D01*
X87893Y-44113D01*
X87668Y-44202D01*
X87668Y-35705D01*
X87668Y-35458D01*
X87574Y-35230D01*
X87399Y-35055D01*
X87171Y-34960D01*
X86924Y-34960D01*
X86696Y-35054D01*
X86672Y-35077D01*
X85979Y-35078D01*
X85979Y-34068D01*
X85979Y-32988D01*
X85968Y-32768D01*
X85905Y-32615D01*
X85810Y-32587D01*
X85492Y-32905D01*
X85810Y-33223D01*
X85905Y-33195D01*
X85979Y-32988D01*
X85979Y-34068D01*
X85968Y-33848D01*
X85905Y-33695D01*
X85810Y-33667D01*
X85492Y-33985D01*
X85810Y-34303D01*
X85905Y-34275D01*
X85979Y-34068D01*
X85979Y-35078D01*
X85975Y-35079D01*
X85968Y-34928D01*
X85905Y-34775D01*
X85810Y-34747D01*
X85527Y-35030D01*
X85492Y-35065D01*
X85477Y-35080D01*
X85392Y-35080D01*
X85389Y-35077D01*
X85401Y-35013D01*
X85421Y-34994D01*
X85456Y-34959D01*
X85739Y-34676D01*
X85711Y-34581D01*
X85565Y-34528D01*
X85711Y-34469D01*
X85739Y-34374D01*
X85456Y-34091D01*
X85424Y-34059D01*
X85424Y-33911D01*
X85456Y-33879D01*
X85739Y-33596D01*
X85711Y-33501D01*
X85565Y-33448D01*
X85711Y-33389D01*
X85739Y-33294D01*
X85456Y-33011D01*
X85424Y-32979D01*
X85424Y-32831D01*
X85456Y-32799D01*
X85739Y-32516D01*
X85733Y-32496D01*
X85850Y-32448D01*
X86063Y-32235D01*
X86179Y-31956D01*
X86179Y-31655D01*
X86064Y-31376D01*
X85953Y-31265D01*
X86063Y-31155D01*
X86179Y-30876D01*
X86179Y-30575D01*
X86064Y-30296D01*
X85953Y-30185D01*
X86063Y-30075D01*
X86179Y-29796D01*
X86179Y-29495D01*
X86064Y-29216D01*
X85943Y-29095D01*
X86063Y-28975D01*
X86179Y-28696D01*
X86179Y-28498D01*
X86705Y-27971D01*
X86707Y-27970D01*
X86708Y-27970D01*
X86816Y-27807D01*
X86817Y-27806D01*
X86855Y-27614D01*
X86855Y-26475D01*
X86878Y-26452D01*
X86973Y-26224D01*
X86973Y-25977D01*
X86879Y-25749D01*
X86704Y-25574D01*
X86548Y-25509D01*
X86870Y-25186D01*
X86872Y-25185D01*
X86873Y-25185D01*
X86981Y-25022D01*
X86982Y-25021D01*
X87020Y-24829D01*
X87020Y-23939D01*
X86982Y-23747D01*
X86981Y-23746D01*
X86873Y-23583D01*
X86870Y-23581D01*
X84441Y-21151D01*
X84278Y-21042D01*
X84085Y-21004D01*
X81735Y-21004D01*
X81734Y-21004D01*
X81686Y-21013D01*
X81660Y-21018D01*
X81602Y-20960D01*
X81439Y-20851D01*
X81246Y-20813D01*
X59968Y-20813D01*
X59776Y-20851D01*
X59612Y-20960D01*
X59610Y-20962D01*
X59192Y-21380D01*
X58996Y-21380D01*
X58717Y-21495D01*
X58646Y-21566D01*
X58576Y-21496D01*
X58297Y-21380D01*
X57996Y-21380D01*
X57717Y-21495D01*
X57646Y-21566D01*
X57576Y-21496D01*
X57297Y-21380D01*
X56996Y-21380D01*
X56717Y-21495D01*
X56646Y-21566D01*
X56576Y-21496D01*
X56297Y-21380D01*
X55996Y-21380D01*
X55717Y-21495D01*
X55646Y-21566D01*
X55576Y-21496D01*
X55297Y-21380D01*
X54996Y-21380D01*
X54717Y-21495D01*
X54646Y-21566D01*
X54576Y-21496D01*
X54297Y-21380D01*
X53996Y-21380D01*
X53717Y-21495D01*
X53646Y-21566D01*
X53576Y-21496D01*
X53297Y-21380D01*
X52996Y-21380D01*
X52717Y-21495D01*
X52646Y-21566D01*
X52576Y-21496D01*
X52297Y-21380D01*
X51996Y-21380D01*
X51717Y-21495D01*
X51646Y-21566D01*
X51576Y-21496D01*
X51297Y-21380D01*
X50996Y-21380D01*
X50717Y-21495D01*
X50646Y-21566D01*
X50576Y-21496D01*
X50297Y-21380D01*
X49996Y-21380D01*
X49717Y-21495D01*
X49504Y-21708D01*
X49388Y-21987D01*
X49388Y-22288D01*
X49503Y-22567D01*
X49574Y-22638D01*
X49504Y-22708D01*
X49388Y-22987D01*
X49388Y-23288D01*
X49503Y-23567D01*
X49716Y-23780D01*
X49995Y-23896D01*
X50296Y-23896D01*
X50575Y-23781D01*
X50646Y-23710D01*
X50716Y-23780D01*
X50995Y-23896D01*
X51296Y-23896D01*
X51575Y-23781D01*
X51646Y-23710D01*
X51716Y-23780D01*
X51995Y-23896D01*
X52296Y-23896D01*
X52575Y-23781D01*
X52646Y-23710D01*
X52716Y-23780D01*
X52995Y-23896D01*
X53296Y-23896D01*
X53575Y-23781D01*
X53646Y-23710D01*
X53716Y-23780D01*
X53995Y-23896D01*
X54296Y-23896D01*
X54575Y-23781D01*
X54646Y-23710D01*
X54716Y-23780D01*
X54995Y-23896D01*
X55296Y-23896D01*
X55575Y-23781D01*
X55646Y-23710D01*
X55716Y-23780D01*
X55995Y-23896D01*
X56296Y-23896D01*
X56575Y-23781D01*
X56646Y-23710D01*
X56716Y-23780D01*
X56995Y-23896D01*
X57192Y-23896D01*
X58906Y-25609D01*
X58908Y-25612D01*
X59071Y-25720D01*
X59072Y-25721D01*
X59264Y-25759D01*
X60171Y-25759D01*
X60272Y-25860D01*
X60239Y-25860D01*
X60177Y-25922D01*
X60177Y-26090D01*
X60177Y-26150D01*
X60177Y-26177D01*
X60177Y-26230D01*
X60177Y-26290D01*
X60177Y-26405D01*
X60177Y-26437D01*
X60177Y-26458D01*
X60177Y-26485D01*
X60177Y-26665D01*
X60177Y-26692D01*
X60177Y-26713D01*
X60177Y-26745D01*
X60177Y-26920D01*
X60177Y-26973D01*
X60204Y-27000D01*
X60177Y-27000D01*
X60177Y-27228D01*
X60239Y-27290D01*
X60328Y-27289D01*
X60427Y-27289D01*
X60518Y-27251D01*
X60588Y-27181D01*
X60626Y-27089D01*
X60627Y-27062D01*
X60565Y-27000D01*
X60508Y-27000D01*
X60518Y-26996D01*
X60588Y-26926D01*
X60608Y-26876D01*
X60627Y-26858D01*
X60626Y-26834D01*
X60626Y-26832D01*
X60626Y-26831D01*
X60627Y-26807D01*
X60608Y-26788D01*
X60588Y-26739D01*
X60551Y-26702D01*
X60588Y-26666D01*
X60604Y-26625D01*
X60627Y-26603D01*
X60626Y-26576D01*
X60625Y-26575D01*
X60626Y-26574D01*
X60627Y-26547D01*
X60604Y-26524D01*
X60588Y-26484D01*
X60551Y-26447D01*
X60588Y-26411D01*
X60608Y-26361D01*
X60627Y-26343D01*
X60626Y-26319D01*
X60626Y-26317D01*
X60626Y-26316D01*
X60627Y-26292D01*
X60625Y-26290D01*
X60627Y-26290D01*
X60627Y-26214D01*
X67971Y-33558D01*
X67973Y-33561D01*
X68045Y-33609D01*
X64165Y-33609D01*
X63972Y-33647D01*
X63809Y-33756D01*
X63192Y-34373D01*
X62996Y-34373D01*
X62717Y-34488D01*
X62649Y-34556D01*
X62649Y-32473D01*
X62611Y-32281D01*
X62610Y-32279D01*
X62583Y-32238D01*
X62502Y-32117D01*
X62499Y-32115D01*
X60738Y-30353D01*
X60645Y-30291D01*
X60645Y-30290D01*
X60645Y-30221D01*
X60578Y-30058D01*
X60453Y-29934D01*
X60290Y-29866D01*
X60114Y-29866D01*
X60077Y-29866D01*
X60077Y-27228D01*
X60077Y-27000D01*
X60050Y-27000D01*
X60077Y-26973D01*
X60077Y-26920D01*
X60077Y-26745D01*
X60077Y-26713D01*
X60077Y-26692D01*
X60077Y-26665D01*
X60077Y-26485D01*
X60077Y-26458D01*
X60077Y-26437D01*
X60077Y-26405D01*
X60077Y-26230D01*
X60077Y-26177D01*
X60050Y-26150D01*
X60077Y-26150D01*
X60077Y-25922D01*
X60015Y-25860D01*
X59926Y-25861D01*
X59827Y-25861D01*
X59736Y-25899D01*
X59666Y-25969D01*
X59628Y-26061D01*
X59627Y-26088D01*
X59689Y-26150D01*
X59745Y-26150D01*
X59736Y-26154D01*
X59666Y-26224D01*
X59645Y-26273D01*
X59627Y-26292D01*
X59627Y-26317D01*
X59627Y-26343D01*
X59645Y-26361D01*
X59666Y-26411D01*
X59702Y-26447D01*
X59666Y-26484D01*
X59649Y-26524D01*
X59627Y-26547D01*
X59628Y-26574D01*
X59628Y-26575D01*
X59628Y-26576D01*
X59627Y-26603D01*
X59649Y-26625D01*
X59666Y-26666D01*
X59702Y-26702D01*
X59666Y-26739D01*
X59645Y-26788D01*
X59627Y-26807D01*
X59627Y-26832D01*
X59627Y-26858D01*
X59645Y-26876D01*
X59666Y-26926D01*
X59736Y-26996D01*
X59745Y-27000D01*
X59689Y-27000D01*
X59627Y-27062D01*
X59628Y-27089D01*
X59666Y-27181D01*
X59736Y-27251D01*
X59827Y-27289D01*
X59926Y-27289D01*
X60015Y-27290D01*
X60077Y-27228D01*
X60077Y-29866D01*
X59516Y-29866D01*
X59510Y-29855D01*
X59504Y-29846D01*
X59504Y-29799D01*
X59504Y-29199D01*
X59437Y-29036D01*
X59312Y-28912D01*
X59149Y-28844D01*
X59072Y-28844D01*
X59066Y-28836D01*
X59111Y-28836D01*
X59202Y-28798D01*
X59272Y-28728D01*
X59310Y-28636D01*
X59311Y-28399D01*
X59249Y-28337D01*
X58761Y-28337D01*
X58711Y-28337D01*
X58611Y-28337D01*
X58611Y-28237D01*
X58711Y-28237D01*
X58761Y-28237D01*
X59249Y-28237D01*
X59311Y-28175D01*
X59310Y-27938D01*
X59272Y-27846D01*
X59202Y-27776D01*
X59111Y-27738D01*
X59012Y-27738D01*
X58773Y-27737D01*
X58761Y-27749D01*
X58761Y-27737D01*
X58692Y-27737D01*
X58731Y-27644D01*
X58731Y-27476D01*
X58878Y-27416D01*
X59002Y-27291D01*
X59070Y-27128D01*
X59070Y-26952D01*
X59070Y-26873D01*
X59070Y-26792D01*
X59070Y-26697D01*
X59070Y-26613D01*
X59070Y-26537D01*
X59070Y-26437D01*
X59070Y-26358D01*
X59070Y-26277D01*
X59070Y-26182D01*
X59070Y-26022D01*
X59003Y-25859D01*
X58878Y-25735D01*
X58715Y-25667D01*
X58539Y-25667D01*
X58039Y-25667D01*
X57990Y-25687D01*
X57901Y-25687D01*
X57708Y-25725D01*
X57545Y-25834D01*
X57494Y-25885D01*
X57382Y-25885D01*
X57190Y-25923D01*
X57026Y-26032D01*
X57024Y-26034D01*
X56950Y-26108D01*
X56841Y-26271D01*
X56803Y-26464D01*
X56803Y-26606D01*
X56681Y-26729D01*
X56613Y-26892D01*
X56613Y-27068D01*
X56613Y-27152D01*
X56613Y-27228D01*
X56613Y-27328D01*
X56613Y-27402D01*
X56613Y-27488D01*
X56613Y-27578D01*
X56613Y-27662D01*
X56613Y-27738D01*
X56613Y-27838D01*
X56613Y-27922D01*
X56613Y-27998D01*
X56613Y-28098D01*
X56613Y-28172D01*
X56613Y-28258D01*
X56613Y-28348D01*
X56613Y-28432D01*
X56613Y-28508D01*
X56613Y-28608D01*
X56613Y-28768D01*
X56649Y-28855D01*
X56613Y-28942D01*
X56613Y-29118D01*
X56613Y-29202D01*
X56613Y-29278D01*
X56613Y-29378D01*
X56613Y-29452D01*
X56613Y-29538D01*
X56613Y-29628D01*
X56613Y-29712D01*
X56613Y-29788D01*
X56613Y-29888D01*
X56613Y-29972D01*
X56613Y-30048D01*
X56613Y-30148D01*
X56613Y-30222D01*
X56613Y-30308D01*
X56613Y-30398D01*
X56613Y-30558D01*
X56680Y-30721D01*
X56803Y-30843D01*
X56803Y-31499D01*
X56841Y-31692D01*
X56897Y-31775D01*
X56671Y-31682D01*
X56425Y-31682D01*
X55884Y-31140D01*
X55721Y-31031D01*
X55528Y-30993D01*
X54589Y-30993D01*
X54589Y-30913D01*
X54844Y-30913D01*
X55007Y-30846D01*
X55131Y-30721D01*
X55199Y-30558D01*
X55199Y-30382D01*
X55199Y-30308D01*
X55199Y-30222D01*
X55199Y-30132D01*
X55199Y-29972D01*
X55132Y-29809D01*
X55077Y-29754D01*
X55131Y-29701D01*
X55199Y-29538D01*
X55199Y-29362D01*
X55199Y-29202D01*
X55132Y-29039D01*
X55007Y-28915D01*
X54971Y-28900D01*
X54967Y-28889D01*
X54933Y-28855D01*
X54967Y-28821D01*
X54971Y-28810D01*
X55007Y-28796D01*
X55131Y-28671D01*
X55199Y-28508D01*
X55199Y-28332D01*
X55199Y-28258D01*
X55199Y-28172D01*
X55199Y-28082D01*
X55199Y-27941D01*
X55237Y-27916D01*
X55747Y-27404D01*
X55749Y-27403D01*
X55750Y-27403D01*
X55858Y-27240D01*
X55859Y-27239D01*
X55897Y-27047D01*
X55897Y-26893D01*
X56060Y-26826D01*
X56235Y-26651D01*
X56330Y-26423D01*
X56330Y-26176D01*
X56236Y-25948D01*
X56061Y-25773D01*
X55833Y-25678D01*
X55586Y-25678D01*
X55358Y-25772D01*
X55183Y-25947D01*
X55088Y-26175D01*
X55088Y-26208D01*
X55038Y-26258D01*
X54929Y-26421D01*
X54901Y-26560D01*
X54844Y-26537D01*
X54694Y-26537D01*
X54558Y-26400D01*
X54558Y-25846D01*
X54520Y-25654D01*
X54519Y-25653D01*
X54411Y-25490D01*
X54408Y-25488D01*
X53952Y-25031D01*
X53952Y-24512D01*
X53885Y-24349D01*
X53760Y-24225D01*
X53597Y-24157D01*
X53421Y-24157D01*
X52821Y-24157D01*
X52658Y-24224D01*
X52559Y-24323D01*
X52460Y-24225D01*
X52297Y-24157D01*
X52121Y-24157D01*
X51521Y-24157D01*
X51358Y-24224D01*
X51234Y-24349D01*
X51195Y-24442D01*
X51079Y-24394D01*
X50903Y-24394D01*
X50103Y-24394D01*
X49940Y-24461D01*
X49816Y-24586D01*
X49795Y-24634D01*
X49666Y-24634D01*
X49643Y-24611D01*
X49415Y-24516D01*
X49168Y-24516D01*
X48940Y-24610D01*
X48765Y-24785D01*
X48670Y-25013D01*
X48670Y-25260D01*
X48764Y-25488D01*
X48822Y-25546D01*
X48765Y-25604D01*
X48670Y-25832D01*
X48670Y-26079D01*
X48764Y-26307D01*
X48939Y-26482D01*
X49167Y-26577D01*
X49414Y-26577D01*
X49642Y-26483D01*
X49666Y-26459D01*
X49748Y-26459D01*
X49748Y-26825D01*
X49815Y-26988D01*
X49940Y-27112D01*
X50103Y-27180D01*
X50279Y-27180D01*
X50622Y-27180D01*
X50757Y-27315D01*
X50920Y-27423D01*
X50921Y-27424D01*
X51113Y-27462D01*
X51359Y-27462D01*
X51359Y-27644D01*
X51421Y-27706D01*
X51809Y-27706D01*
X51859Y-27706D01*
X51959Y-27706D01*
X51959Y-27806D01*
X51859Y-27806D01*
X51809Y-27806D01*
X51421Y-27806D01*
X51394Y-27833D01*
X49745Y-27833D01*
X49722Y-27810D01*
X49494Y-27715D01*
X49247Y-27715D01*
X49019Y-27809D01*
X48844Y-27984D01*
X48749Y-28212D01*
X48749Y-28459D01*
X48843Y-28687D01*
X49018Y-28862D01*
X49246Y-28957D01*
X49493Y-28957D01*
X49721Y-28863D01*
X49745Y-28839D01*
X51373Y-28839D01*
X51421Y-28887D01*
X51809Y-28887D01*
X51859Y-28887D01*
X51959Y-28887D01*
X51959Y-28987D01*
X51959Y-29037D01*
X51959Y-29525D01*
X52021Y-29587D01*
X52258Y-29586D01*
X52350Y-29548D01*
X52420Y-29478D01*
X52458Y-29387D01*
X52458Y-29349D01*
X52466Y-29354D01*
X52466Y-29425D01*
X52533Y-29588D01*
X52619Y-29673D01*
X52611Y-29675D01*
X52447Y-29784D01*
X52445Y-29786D01*
X51859Y-30372D01*
X51859Y-29525D01*
X51859Y-28987D01*
X51421Y-28987D01*
X51359Y-29049D01*
X51360Y-29288D01*
X51360Y-29387D01*
X51398Y-29478D01*
X51468Y-29548D01*
X51560Y-29586D01*
X51797Y-29587D01*
X51859Y-29525D01*
X51859Y-30372D01*
X51596Y-30635D01*
X51487Y-30798D01*
X51476Y-30849D01*
X51471Y-30847D01*
X51234Y-30846D01*
X51172Y-30908D01*
X51172Y-31396D01*
X51172Y-31446D01*
X51172Y-31546D01*
X51172Y-31596D01*
X51172Y-32084D01*
X51234Y-32146D01*
X51449Y-32145D01*
X51449Y-32224D01*
X51234Y-32224D01*
X51172Y-32286D01*
X51172Y-32774D01*
X51172Y-32824D01*
X51172Y-32924D01*
X51172Y-32974D01*
X51172Y-33462D01*
X51234Y-33524D01*
X51471Y-33523D01*
X51563Y-33485D01*
X51633Y-33415D01*
X51671Y-33324D01*
X51671Y-33279D01*
X51679Y-33285D01*
X51679Y-33362D01*
X51746Y-33525D01*
X51871Y-33649D01*
X52034Y-33717D01*
X52210Y-33717D01*
X52810Y-33717D01*
X52973Y-33650D01*
X53097Y-33525D01*
X53158Y-33377D01*
X54118Y-33377D01*
X54310Y-33339D01*
X54311Y-33339D01*
X54401Y-33278D01*
X54402Y-33278D01*
X54598Y-33278D01*
X54942Y-33621D01*
X54944Y-33624D01*
X55107Y-33732D01*
X55108Y-33733D01*
X55300Y-33771D01*
X57865Y-33771D01*
X57926Y-33919D01*
X58051Y-34043D01*
X58214Y-34111D01*
X58390Y-34111D01*
X58990Y-34111D01*
X59153Y-34044D01*
X59251Y-33944D01*
X59351Y-34043D01*
X59472Y-34093D01*
X59546Y-34204D01*
X59643Y-34301D01*
X59643Y-34556D01*
X59576Y-34489D01*
X59297Y-34373D01*
X58996Y-34373D01*
X58717Y-34488D01*
X58646Y-34559D01*
X58576Y-34489D01*
X58297Y-34373D01*
X57996Y-34373D01*
X57717Y-34488D01*
X57646Y-34559D01*
X57576Y-34489D01*
X57297Y-34373D01*
X56996Y-34373D01*
X56717Y-34488D01*
X56646Y-34559D01*
X56576Y-34489D01*
X56297Y-34373D01*
X55996Y-34373D01*
X55717Y-34488D01*
X55646Y-34559D01*
X55576Y-34489D01*
X55297Y-34373D01*
X54996Y-34373D01*
X54717Y-34488D01*
X54646Y-34559D01*
X54576Y-34489D01*
X54297Y-34373D01*
X53996Y-34373D01*
X53717Y-34488D01*
X53646Y-34559D01*
X53576Y-34489D01*
X53297Y-34373D01*
X52996Y-34373D01*
X52717Y-34488D01*
X52646Y-34559D01*
X52576Y-34489D01*
X52297Y-34373D01*
X51996Y-34373D01*
X51717Y-34488D01*
X51646Y-34559D01*
X51576Y-34489D01*
X51297Y-34373D01*
X51149Y-34373D01*
X51143Y-34344D01*
X51130Y-34275D01*
X51117Y-34204D01*
X51115Y-34202D01*
X51115Y-34198D01*
X51072Y-34133D01*
X51072Y-33462D01*
X51072Y-32924D01*
X51072Y-32824D01*
X51072Y-32286D01*
X51072Y-32084D01*
X51072Y-31546D01*
X51072Y-31446D01*
X51072Y-30908D01*
X51010Y-30846D01*
X50773Y-30847D01*
X50681Y-30885D01*
X50611Y-30955D01*
X50573Y-31046D01*
X50573Y-31145D01*
X50572Y-31384D01*
X50634Y-31446D01*
X51072Y-31446D01*
X51072Y-31546D01*
X50634Y-31546D01*
X50572Y-31608D01*
X50573Y-31847D01*
X50573Y-31946D01*
X50611Y-32037D01*
X50681Y-32107D01*
X50773Y-32145D01*
X51010Y-32146D01*
X51072Y-32084D01*
X51072Y-32286D01*
X51010Y-32224D01*
X50773Y-32225D01*
X50681Y-32263D01*
X50611Y-32333D01*
X50573Y-32424D01*
X50573Y-32523D01*
X50572Y-32762D01*
X50634Y-32824D01*
X51072Y-32824D01*
X51072Y-32924D01*
X50634Y-32924D01*
X50572Y-32986D01*
X50573Y-33225D01*
X50573Y-33324D01*
X50611Y-33415D01*
X50681Y-33485D01*
X50773Y-33523D01*
X51010Y-33524D01*
X51072Y-33462D01*
X51072Y-34133D01*
X51010Y-34041D01*
X51010Y-34040D01*
X51009Y-34039D01*
X51006Y-34034D01*
X51000Y-34030D01*
X50073Y-33075D01*
X50069Y-33072D01*
X50068Y-33070D01*
X50005Y-33028D01*
X49912Y-32964D01*
X49906Y-32962D01*
X49904Y-32961D01*
X49814Y-32943D01*
X49719Y-32923D01*
X49715Y-32923D01*
X49712Y-32923D01*
X47883Y-32923D01*
X47883Y-32097D01*
X47874Y-32075D01*
X47874Y-27619D01*
X47874Y-27321D01*
X47760Y-27046D01*
X47683Y-26969D01*
X47760Y-26893D01*
X47874Y-26619D01*
X47874Y-26321D01*
X47760Y-26046D01*
X47550Y-25835D01*
X47276Y-25721D01*
X46978Y-25721D01*
X46733Y-25822D01*
X46489Y-25721D01*
X46485Y-25721D01*
X46485Y-24846D01*
X46485Y-24365D01*
X46302Y-23923D01*
X46139Y-23815D01*
X46068Y-23886D01*
X46068Y-23744D01*
X45960Y-23581D01*
X45515Y-23398D01*
X45034Y-23398D01*
X44864Y-23468D01*
X44592Y-23581D01*
X44484Y-23744D01*
X45276Y-24536D01*
X46068Y-23744D01*
X46068Y-23886D01*
X45347Y-24607D01*
X46139Y-25399D01*
X46302Y-25291D01*
X46485Y-24846D01*
X46485Y-25721D01*
X46191Y-25721D01*
X46068Y-25771D01*
X46068Y-25470D01*
X45276Y-24678D01*
X45205Y-24749D01*
X45205Y-24607D01*
X44413Y-23815D01*
X44282Y-23901D01*
X44250Y-23923D01*
X44067Y-24368D01*
X44067Y-24849D01*
X44250Y-25291D01*
X44413Y-25399D01*
X45205Y-24607D01*
X45205Y-24749D01*
X44484Y-25470D01*
X44592Y-25633D01*
X45037Y-25816D01*
X45518Y-25816D01*
X45960Y-25633D01*
X46068Y-25470D01*
X46068Y-25771D01*
X45916Y-25835D01*
X45705Y-26045D01*
X45591Y-26319D01*
X45591Y-26617D01*
X45705Y-26892D01*
X45911Y-27098D01*
X45869Y-27141D01*
X45901Y-27173D01*
X45863Y-27185D01*
X45791Y-27389D01*
X45802Y-27605D01*
X45863Y-27753D01*
X45957Y-27780D01*
X46233Y-27504D01*
X46268Y-27469D01*
X46339Y-27398D01*
X46378Y-27437D01*
X46378Y-27501D01*
X46339Y-27540D01*
X46304Y-27575D01*
X46268Y-27611D01*
X46028Y-27851D01*
X46055Y-27945D01*
X46259Y-28017D01*
X46475Y-28006D01*
X46567Y-27967D01*
X46702Y-28103D01*
X46976Y-28217D01*
X47274Y-28217D01*
X47549Y-28103D01*
X47760Y-27893D01*
X47874Y-27619D01*
X47874Y-32075D01*
X47816Y-31934D01*
X47691Y-31810D01*
X47528Y-31742D01*
X47352Y-31742D01*
X46485Y-31742D01*
X46485Y-29570D01*
X46485Y-29089D01*
X46302Y-28647D01*
X46139Y-28539D01*
X46068Y-28610D01*
X46068Y-28468D01*
X45960Y-28305D01*
X45515Y-28122D01*
X45034Y-28122D01*
X44592Y-28305D01*
X44484Y-28468D01*
X45276Y-29260D01*
X46068Y-28468D01*
X46068Y-28610D01*
X45347Y-29331D01*
X46139Y-30123D01*
X46302Y-30015D01*
X46485Y-29570D01*
X46485Y-31742D01*
X46172Y-31742D01*
X46068Y-31784D01*
X46068Y-30194D01*
X45276Y-29402D01*
X45205Y-29473D01*
X45205Y-29331D01*
X44413Y-28539D01*
X44250Y-28647D01*
X44067Y-29092D01*
X44067Y-29573D01*
X44250Y-30015D01*
X44413Y-30123D01*
X45205Y-29331D01*
X45205Y-29473D01*
X44484Y-30194D01*
X44592Y-30357D01*
X45037Y-30540D01*
X45518Y-30540D01*
X45960Y-30357D01*
X46068Y-30194D01*
X46068Y-31784D01*
X46009Y-31809D01*
X45885Y-31934D01*
X45817Y-32097D01*
X45817Y-32273D01*
X45817Y-32653D01*
X45724Y-32715D01*
X45615Y-32879D01*
X45606Y-32923D01*
X43723Y-32923D01*
X43531Y-32961D01*
X43367Y-33070D01*
X43365Y-33072D01*
X43038Y-33399D01*
X42747Y-33399D01*
X42439Y-33526D01*
X42204Y-33762D01*
X42076Y-34069D01*
X42076Y-34402D01*
X42203Y-34710D01*
X42215Y-34722D01*
X42188Y-34751D01*
X42057Y-35065D01*
X42057Y-35406D01*
X42187Y-35721D01*
X42353Y-35886D01*
X42349Y-35888D01*
X42259Y-36131D01*
X42268Y-36389D01*
X42349Y-36584D01*
X42455Y-36623D01*
X42807Y-36271D01*
X42842Y-36236D01*
X42913Y-36165D01*
X42984Y-36236D01*
X43019Y-36271D01*
X43371Y-36623D01*
X43477Y-36584D01*
X43567Y-36341D01*
X43558Y-36083D01*
X43477Y-35888D01*
X43473Y-35886D01*
X43638Y-35721D01*
X43769Y-35407D01*
X43769Y-35066D01*
X43639Y-34751D01*
X43609Y-34722D01*
X43622Y-34710D01*
X43750Y-34403D01*
X43750Y-34110D01*
X43931Y-33929D01*
X45817Y-33929D01*
X45817Y-34045D01*
X45884Y-34208D01*
X46009Y-34332D01*
X46172Y-34400D01*
X46348Y-34400D01*
X47528Y-34400D01*
X47691Y-34333D01*
X47815Y-34208D01*
X47883Y-34045D01*
X47883Y-33929D01*
X49498Y-33929D01*
X49949Y-34392D01*
X49717Y-34488D01*
X49504Y-34701D01*
X49388Y-34980D01*
X49388Y-35281D01*
X49503Y-35560D01*
X49574Y-35631D01*
X49504Y-35701D01*
X49388Y-35980D01*
X49388Y-36281D01*
X49503Y-36560D01*
X49716Y-36773D01*
X49995Y-36889D01*
X50296Y-36889D01*
X50575Y-36774D01*
X50646Y-36703D01*
X50716Y-36773D01*
X50995Y-36889D01*
X51296Y-36889D01*
X51575Y-36774D01*
X51646Y-36703D01*
X51716Y-36773D01*
X51995Y-36889D01*
X52296Y-36889D01*
X52575Y-36774D01*
X52646Y-36703D01*
X52716Y-36773D01*
X52995Y-36889D01*
X53296Y-36889D01*
X53575Y-36774D01*
X53646Y-36703D01*
X53716Y-36773D01*
X53995Y-36889D01*
X54296Y-36889D01*
X54575Y-36774D01*
X54646Y-36703D01*
X54716Y-36773D01*
X54995Y-36889D01*
X55296Y-36889D01*
X55575Y-36774D01*
X55646Y-36703D01*
X55716Y-36773D01*
X55995Y-36889D01*
X56296Y-36889D01*
X56575Y-36774D01*
X56646Y-36703D01*
X56716Y-36773D01*
X56995Y-36889D01*
X57296Y-36889D01*
X57575Y-36774D01*
X57646Y-36703D01*
X57716Y-36773D01*
X57995Y-36889D01*
X58296Y-36889D01*
X58575Y-36774D01*
X58646Y-36703D01*
X58716Y-36773D01*
X58995Y-36889D01*
X59296Y-36889D01*
X59575Y-36774D01*
X59646Y-36703D01*
X59716Y-36773D01*
X59995Y-36889D01*
X60296Y-36889D01*
X60575Y-36774D01*
X60646Y-36703D01*
X60716Y-36773D01*
X60995Y-36889D01*
X61296Y-36889D01*
X61575Y-36774D01*
X61646Y-36703D01*
X61716Y-36773D01*
X61995Y-36889D01*
X62296Y-36889D01*
X62575Y-36774D01*
X62646Y-36703D01*
X62716Y-36773D01*
X62995Y-36889D01*
X63192Y-36889D01*
X64631Y-38327D01*
X64633Y-38330D01*
X64796Y-38438D01*
X64797Y-38439D01*
X64989Y-38477D01*
X65951Y-38477D01*
X65891Y-38502D01*
X65767Y-38627D01*
X65699Y-38790D01*
X65699Y-38966D01*
X65699Y-39261D01*
X63868Y-39261D01*
X63868Y-39240D01*
X63868Y-38532D01*
X63801Y-38369D01*
X63676Y-38245D01*
X63513Y-38177D01*
X63337Y-38177D01*
X62471Y-38177D01*
X62308Y-38244D01*
X62184Y-38369D01*
X62141Y-38471D01*
X61914Y-38471D01*
X61722Y-38509D01*
X61558Y-38618D01*
X61556Y-38620D01*
X61466Y-38710D01*
X61466Y-38416D01*
X61399Y-38253D01*
X61274Y-38129D01*
X61111Y-38061D01*
X60935Y-38061D01*
X56211Y-38061D01*
X56048Y-38128D01*
X55924Y-38253D01*
X55856Y-38416D01*
X55856Y-38592D01*
X55856Y-39182D01*
X55096Y-39182D01*
X55095Y-39182D01*
X55047Y-39191D01*
X54904Y-39220D01*
X54902Y-39220D01*
X54902Y-39221D01*
X54861Y-39248D01*
X54740Y-39329D01*
X54738Y-39331D01*
X54679Y-39390D01*
X54407Y-39277D01*
X54106Y-39277D01*
X53956Y-39338D01*
X53956Y-38695D01*
X53956Y-38471D01*
X53955Y-38232D01*
X53955Y-38133D01*
X53917Y-38042D01*
X53847Y-37972D01*
X53755Y-37934D01*
X53518Y-37933D01*
X53456Y-37995D01*
X53456Y-38533D01*
X53894Y-38533D01*
X53956Y-38471D01*
X53956Y-38695D01*
X53894Y-38633D01*
X53456Y-38633D01*
X53456Y-39171D01*
X53518Y-39233D01*
X53755Y-39232D01*
X53847Y-39194D01*
X53917Y-39124D01*
X53955Y-39033D01*
X53955Y-38934D01*
X53956Y-38695D01*
X53956Y-39338D01*
X53827Y-39392D01*
X53626Y-39592D01*
X53592Y-39558D01*
X53558Y-39591D01*
X53546Y-39551D01*
X53356Y-39483D01*
X53356Y-39171D01*
X53356Y-38633D01*
X53356Y-38533D01*
X53356Y-37995D01*
X53294Y-37933D01*
X53057Y-37934D01*
X52965Y-37972D01*
X52895Y-38042D01*
X52857Y-38133D01*
X52857Y-38232D01*
X52856Y-38471D01*
X52918Y-38533D01*
X53356Y-38533D01*
X53356Y-38633D01*
X52918Y-38633D01*
X52856Y-38695D01*
X52857Y-38934D01*
X52857Y-39033D01*
X52895Y-39124D01*
X52965Y-39194D01*
X53057Y-39232D01*
X53294Y-39233D01*
X53356Y-39171D01*
X53356Y-39483D01*
X53339Y-39477D01*
X53119Y-39488D01*
X52966Y-39551D01*
X52953Y-39591D01*
X52920Y-39558D01*
X52885Y-39592D01*
X52759Y-39466D01*
X52759Y-39313D01*
X52749Y-39265D01*
X52781Y-39234D01*
X52849Y-39071D01*
X52849Y-38895D01*
X52849Y-38095D01*
X52782Y-37932D01*
X52657Y-37808D01*
X52494Y-37740D01*
X52318Y-37740D01*
X51718Y-37740D01*
X51555Y-37807D01*
X51431Y-37932D01*
X51363Y-38095D01*
X51363Y-38271D01*
X51363Y-39071D01*
X51430Y-39234D01*
X51555Y-39358D01*
X51676Y-39408D01*
X51729Y-39489D01*
X51626Y-39592D01*
X51592Y-39558D01*
X51558Y-39591D01*
X51546Y-39551D01*
X51339Y-39477D01*
X51119Y-39488D01*
X50966Y-39551D01*
X50938Y-39646D01*
X51221Y-39929D01*
X51256Y-39964D01*
X51327Y-40035D01*
X51256Y-40106D01*
X51221Y-40141D01*
X51185Y-40177D01*
X51185Y-40035D01*
X50867Y-39717D01*
X50772Y-39745D01*
X50698Y-39952D01*
X50709Y-40172D01*
X50772Y-40325D01*
X50867Y-40353D01*
X51185Y-40035D01*
X51185Y-40177D01*
X50938Y-40424D01*
X50966Y-40519D01*
X51173Y-40593D01*
X51393Y-40582D01*
X51546Y-40519D01*
X51558Y-40478D01*
X51574Y-40494D01*
X51592Y-40512D01*
X51626Y-40477D01*
X51826Y-40677D01*
X52105Y-40793D01*
X52406Y-40793D01*
X52685Y-40678D01*
X52885Y-40477D01*
X52920Y-40512D01*
X52953Y-40478D01*
X52966Y-40519D01*
X53173Y-40593D01*
X53393Y-40582D01*
X53546Y-40519D01*
X53558Y-40478D01*
X53574Y-40494D01*
X53592Y-40512D01*
X53626Y-40477D01*
X53826Y-40677D01*
X54105Y-40793D01*
X54406Y-40793D01*
X54685Y-40678D01*
X54844Y-40518D01*
X54938Y-40500D01*
X54939Y-40500D01*
X55102Y-40391D01*
X55304Y-40188D01*
X55856Y-40188D01*
X55856Y-40954D01*
X55923Y-41117D01*
X56048Y-41241D01*
X56211Y-41309D01*
X56387Y-41309D01*
X61111Y-41309D01*
X61202Y-41271D01*
X61245Y-41375D01*
X61420Y-41550D01*
X61648Y-41645D01*
X61895Y-41645D01*
X62123Y-41551D01*
X62298Y-41376D01*
X62332Y-41293D01*
X62471Y-41351D01*
X62647Y-41351D01*
X63513Y-41351D01*
X63676Y-41284D01*
X63800Y-41159D01*
X63868Y-40996D01*
X63868Y-40820D01*
X63868Y-40267D01*
X65699Y-40267D01*
X65699Y-40738D01*
X65766Y-40901D01*
X65891Y-41025D01*
X66054Y-41093D01*
X66230Y-41093D01*
X66313Y-41093D01*
X66314Y-41093D01*
X66376Y-41186D01*
X66844Y-41653D01*
X66846Y-41656D01*
X66967Y-41737D01*
X67008Y-41764D01*
X67010Y-41765D01*
X67043Y-41771D01*
X67050Y-41778D01*
X66844Y-41778D01*
X66782Y-41840D01*
X66782Y-42864D01*
X67510Y-42864D01*
X67572Y-42802D01*
X67571Y-42299D01*
X68726Y-43453D01*
X68728Y-43456D01*
X68891Y-43564D01*
X68892Y-43565D01*
X69084Y-43603D01*
X69140Y-43603D01*
X69140Y-43687D01*
X69234Y-43915D01*
X69409Y-44090D01*
X69637Y-44185D01*
X69884Y-44185D01*
X70112Y-44091D01*
X70119Y-44084D01*
X72600Y-44084D01*
X72600Y-44288D01*
X72662Y-44350D01*
X73150Y-44350D01*
X73200Y-44350D01*
X73300Y-44350D01*
X73300Y-44450D01*
X73300Y-44500D01*
X73300Y-44888D01*
X73362Y-44950D01*
X73601Y-44949D01*
X73700Y-44949D01*
X73791Y-44911D01*
X73851Y-44850D01*
X73867Y-44887D01*
X73937Y-44957D01*
X74029Y-44995D01*
X74266Y-44996D01*
X74328Y-44934D01*
X74328Y-44446D01*
X74328Y-44396D01*
X74328Y-44296D01*
X74428Y-44296D01*
X74428Y-44396D01*
X74428Y-44446D01*
X74428Y-44924D01*
X74406Y-44977D01*
X74406Y-45153D01*
X74406Y-45424D01*
X74328Y-45456D01*
X74248Y-45489D01*
X74195Y-45542D01*
X73200Y-45542D01*
X73200Y-44888D01*
X73200Y-44450D01*
X72662Y-44450D01*
X72600Y-44512D01*
X72601Y-44749D01*
X72639Y-44841D01*
X72709Y-44911D01*
X72800Y-44949D01*
X72899Y-44949D01*
X73138Y-44950D01*
X73200Y-44888D01*
X73200Y-45542D01*
X69912Y-45542D01*
X69889Y-45519D01*
X69661Y-45424D01*
X69414Y-45424D01*
X69186Y-45518D01*
X69011Y-45693D01*
X68916Y-45921D01*
X68916Y-46168D01*
X69010Y-46396D01*
X69185Y-46571D01*
X69413Y-46666D01*
X69660Y-46666D01*
X69888Y-46572D01*
X69912Y-46548D01*
X74195Y-46548D01*
X74248Y-46600D01*
X74411Y-46668D01*
X74587Y-46668D01*
X74947Y-46668D01*
X75110Y-46601D01*
X75234Y-46476D01*
X75234Y-46474D01*
X75267Y-46475D01*
X75329Y-46413D01*
X75329Y-46145D01*
X75329Y-46095D01*
X75329Y-45995D01*
X75429Y-45995D01*
X75479Y-45995D01*
X75747Y-45995D01*
X75809Y-45933D01*
X75808Y-45914D01*
X75808Y-45815D01*
X75770Y-45724D01*
X75700Y-45654D01*
X75608Y-45616D01*
X75629Y-45568D01*
X75775Y-45568D01*
X75798Y-45591D01*
X76026Y-45686D01*
X76230Y-45686D01*
X76180Y-45807D01*
X76180Y-46054D01*
X76274Y-46282D01*
X76449Y-46457D01*
X76677Y-46552D01*
X76864Y-46552D01*
X76913Y-46600D01*
X77076Y-46668D01*
X77252Y-46668D01*
X77612Y-46668D01*
X77775Y-46601D01*
X77899Y-46476D01*
X77899Y-46474D01*
X77932Y-46475D01*
X77994Y-46413D01*
X77994Y-46145D01*
X77994Y-46095D01*
X77994Y-45995D01*
X78094Y-45995D01*
X78144Y-45995D01*
X78412Y-45995D01*
X78474Y-45933D01*
X78473Y-45914D01*
X78473Y-45815D01*
X78435Y-45724D01*
X78365Y-45654D01*
X78273Y-45616D01*
X78317Y-45513D01*
X78317Y-45337D01*
X78317Y-45189D01*
X78732Y-45189D01*
X78895Y-45122D01*
X79019Y-44997D01*
X79087Y-44834D01*
X79087Y-44658D01*
X79087Y-44106D01*
X79277Y-44027D01*
X79277Y-44234D01*
X79339Y-44296D01*
X79727Y-44296D01*
X79777Y-44296D01*
X79877Y-44296D01*
X79877Y-44396D01*
X79777Y-44396D01*
X79727Y-44396D01*
X79339Y-44396D01*
X79277Y-44458D01*
X79278Y-44697D01*
X79278Y-44796D01*
X79316Y-44887D01*
X79372Y-44943D01*
X79258Y-45057D01*
X79163Y-45285D01*
X79163Y-45532D01*
X79257Y-45760D01*
X79432Y-45935D01*
X79543Y-45981D01*
X79543Y-46313D01*
X79610Y-46476D01*
X79735Y-46600D01*
X79898Y-46668D01*
X80074Y-46668D01*
X80434Y-46668D01*
X80597Y-46601D01*
X80721Y-46476D01*
X80721Y-46474D01*
X80754Y-46475D01*
X80816Y-46413D01*
X80816Y-46145D01*
X80816Y-46095D01*
X80816Y-45995D01*
X80916Y-45995D01*
X80966Y-45995D01*
X81234Y-45995D01*
X81296Y-45933D01*
X81295Y-45914D01*
X81295Y-45815D01*
X81257Y-45724D01*
X81187Y-45654D01*
X81095Y-45616D01*
X81139Y-45513D01*
X81139Y-45337D01*
X81139Y-45189D01*
X81515Y-45189D01*
X81678Y-45122D01*
X81802Y-44997D01*
X81870Y-44834D01*
X81870Y-44658D01*
X81870Y-44278D01*
X86203Y-44278D01*
X86395Y-44240D01*
X86396Y-44240D01*
X86559Y-44131D01*
X87127Y-43561D01*
X87129Y-43560D01*
X87130Y-43560D01*
X87238Y-43397D01*
X87239Y-43396D01*
X87277Y-43204D01*
X87277Y-42240D01*
X87239Y-42048D01*
X87238Y-42047D01*
X87130Y-41884D01*
X87127Y-41882D01*
X85979Y-40733D01*
X85979Y-39508D01*
X85979Y-38408D01*
X85979Y-37328D01*
X85968Y-37108D01*
X85905Y-36955D01*
X85810Y-36927D01*
X85492Y-37245D01*
X85810Y-37563D01*
X85905Y-37535D01*
X85979Y-37328D01*
X85979Y-38408D01*
X85968Y-38188D01*
X85905Y-38035D01*
X85810Y-38007D01*
X85492Y-38325D01*
X85810Y-38643D01*
X85905Y-38615D01*
X85979Y-38408D01*
X85979Y-39508D01*
X85968Y-39288D01*
X85905Y-39135D01*
X85810Y-39107D01*
X85492Y-39425D01*
X85810Y-39743D01*
X85905Y-39715D01*
X85979Y-39508D01*
X85979Y-40733D01*
X85868Y-40622D01*
X85868Y-40590D01*
X85774Y-40362D01*
X85599Y-40187D01*
X85424Y-40114D01*
X85424Y-39978D01*
X85558Y-39972D01*
X85711Y-39909D01*
X85739Y-39814D01*
X85456Y-39531D01*
X85424Y-39499D01*
X85424Y-39351D01*
X85456Y-39319D01*
X85739Y-39036D01*
X85711Y-38941D01*
X85522Y-38873D01*
X85558Y-38872D01*
X85711Y-38809D01*
X85739Y-38714D01*
X85456Y-38431D01*
X85424Y-38399D01*
X85424Y-38275D01*
X85419Y-38255D01*
X85421Y-38254D01*
X85456Y-38219D01*
X85739Y-37936D01*
X85711Y-37841D01*
X85565Y-37788D01*
X85711Y-37729D01*
X85739Y-37634D01*
X85456Y-37351D01*
X85421Y-37316D01*
X85350Y-37245D01*
X85421Y-37174D01*
X85456Y-37139D01*
X85739Y-36856D01*
X85711Y-36761D01*
X85591Y-36718D01*
X85711Y-36669D01*
X85739Y-36574D01*
X85456Y-36291D01*
X85421Y-36256D01*
X85350Y-36185D01*
X85421Y-36114D01*
X85492Y-36185D01*
X85527Y-36220D01*
X85810Y-36503D01*
X85905Y-36475D01*
X85979Y-36268D01*
X85969Y-36085D01*
X86671Y-36083D01*
X86695Y-36107D01*
X86923Y-36202D01*
X87170Y-36202D01*
X87398Y-36108D01*
X87573Y-35933D01*
X87668Y-35705D01*
X87668Y-44202D01*
X87232Y-44377D01*
X87196Y-44401D01*
X87017Y-44625D01*
X88193Y-45800D01*
X88228Y-45835D01*
X88299Y-45906D01*
X88228Y-45977D01*
X88157Y-45906D01*
X88122Y-45871D01*
X86947Y-44695D01*
X86723Y-44874D01*
X86443Y-45529D01*
X86435Y-46241D01*
X86699Y-46902D01*
X86723Y-46938D01*
X86907Y-47085D01*
X86874Y-47119D01*
X81296Y-47119D01*
X81296Y-46157D01*
X81234Y-46095D01*
X80916Y-46095D01*
X80916Y-46413D01*
X80978Y-46475D01*
X81095Y-46474D01*
X81187Y-46436D01*
X81257Y-46366D01*
X81295Y-46275D01*
X81295Y-46176D01*
X81296Y-46157D01*
X81296Y-47119D01*
X78474Y-47119D01*
X78474Y-46157D01*
X78412Y-46095D01*
X78094Y-46095D01*
X78094Y-46413D01*
X78156Y-46475D01*
X78273Y-46474D01*
X78365Y-46436D01*
X78435Y-46366D01*
X78473Y-46275D01*
X78473Y-46176D01*
X78474Y-46157D01*
X78474Y-47119D01*
X75809Y-47119D01*
X75809Y-46157D01*
X75747Y-46095D01*
X75429Y-46095D01*
X75429Y-46413D01*
X75491Y-46475D01*
X75608Y-46474D01*
X75700Y-46436D01*
X75770Y-46366D01*
X75808Y-46275D01*
X75808Y-46176D01*
X75809Y-46157D01*
X75809Y-47119D01*
X67572Y-47119D01*
X67572Y-43026D01*
X67510Y-42964D01*
X66782Y-42964D01*
X66782Y-43988D01*
X66844Y-44050D01*
X67273Y-44049D01*
X67372Y-44049D01*
X67463Y-44011D01*
X67533Y-43941D01*
X67571Y-43849D01*
X67572Y-43026D01*
X67572Y-47119D01*
X66682Y-47119D01*
X66682Y-43988D01*
X66682Y-42964D01*
X66682Y-42864D01*
X66682Y-41840D01*
X66620Y-41778D01*
X66191Y-41779D01*
X66092Y-41779D01*
X66001Y-41817D01*
X65931Y-41887D01*
X65893Y-41979D01*
X65892Y-42802D01*
X65954Y-42864D01*
X66682Y-42864D01*
X66682Y-42964D01*
X65954Y-42964D01*
X65892Y-43026D01*
X65893Y-43849D01*
X65931Y-43941D01*
X66001Y-44011D01*
X66092Y-44049D01*
X66191Y-44049D01*
X66620Y-44050D01*
X66682Y-43988D01*
X66682Y-47119D01*
X61466Y-47119D01*
X61466Y-44262D01*
X61466Y-44086D01*
X61466Y-41724D01*
X61399Y-41561D01*
X61274Y-41437D01*
X61111Y-41369D01*
X60935Y-41369D01*
X56211Y-41369D01*
X56048Y-41436D01*
X55924Y-41561D01*
X55856Y-41724D01*
X55856Y-41900D01*
X55856Y-42575D01*
X55763Y-42637D01*
X55761Y-42639D01*
X55006Y-43394D01*
X54927Y-43394D01*
X55014Y-43186D01*
X55014Y-42885D01*
X54899Y-42606D01*
X54686Y-42393D01*
X54407Y-42277D01*
X54106Y-42277D01*
X54076Y-42289D01*
X53836Y-42048D01*
X53673Y-41939D01*
X53574Y-41919D01*
X53480Y-41901D01*
X52789Y-41901D01*
X52597Y-41939D01*
X52595Y-41939D01*
X52595Y-41940D01*
X52554Y-41967D01*
X52433Y-42048D01*
X52431Y-42050D01*
X52400Y-42081D01*
X52291Y-42244D01*
X52284Y-42277D01*
X52106Y-42277D01*
X51827Y-42392D01*
X51756Y-42463D01*
X51686Y-42393D01*
X51574Y-42346D01*
X51407Y-42277D01*
X51106Y-42277D01*
X50827Y-42392D01*
X50614Y-42605D01*
X50498Y-42884D01*
X50498Y-43185D01*
X50605Y-43446D01*
X49060Y-43446D01*
X47976Y-42361D01*
X47883Y-42299D01*
X47883Y-42298D01*
X47883Y-41743D01*
X47816Y-41580D01*
X47691Y-41456D01*
X47690Y-41455D01*
X47690Y-39679D01*
X47690Y-39455D01*
X47690Y-36333D01*
X47690Y-36109D01*
X47689Y-35286D01*
X47651Y-35194D01*
X47581Y-35124D01*
X47490Y-35086D01*
X47391Y-35086D01*
X46962Y-35085D01*
X46900Y-35147D01*
X46900Y-36171D01*
X47628Y-36171D01*
X47690Y-36109D01*
X47690Y-36333D01*
X47628Y-36271D01*
X46900Y-36271D01*
X46900Y-37295D01*
X46962Y-37357D01*
X47391Y-37356D01*
X47490Y-37356D01*
X47581Y-37318D01*
X47651Y-37248D01*
X47689Y-37156D01*
X47690Y-36333D01*
X47690Y-39455D01*
X47689Y-38632D01*
X47651Y-38540D01*
X47581Y-38470D01*
X47490Y-38432D01*
X47391Y-38432D01*
X46962Y-38431D01*
X46900Y-38493D01*
X46900Y-39517D01*
X47628Y-39517D01*
X47690Y-39455D01*
X47690Y-39679D01*
X47628Y-39617D01*
X46900Y-39617D01*
X46900Y-40641D01*
X46962Y-40703D01*
X47391Y-40702D01*
X47490Y-40702D01*
X47581Y-40664D01*
X47651Y-40594D01*
X47689Y-40502D01*
X47690Y-39679D01*
X47690Y-41455D01*
X47528Y-41388D01*
X47352Y-41388D01*
X46800Y-41388D01*
X46800Y-40641D01*
X46800Y-39617D01*
X46800Y-39517D01*
X46800Y-38493D01*
X46800Y-37295D01*
X46800Y-36271D01*
X46800Y-36171D01*
X46800Y-35147D01*
X46738Y-35085D01*
X46309Y-35086D01*
X46210Y-35086D01*
X46119Y-35124D01*
X46049Y-35194D01*
X46011Y-35286D01*
X46010Y-36109D01*
X46072Y-36171D01*
X46800Y-36171D01*
X46800Y-36271D01*
X46072Y-36271D01*
X46010Y-36333D01*
X46011Y-37156D01*
X46049Y-37248D01*
X46119Y-37318D01*
X46210Y-37356D01*
X46309Y-37356D01*
X46738Y-37357D01*
X46800Y-37295D01*
X46800Y-38493D01*
X46738Y-38431D01*
X46309Y-38432D01*
X46210Y-38432D01*
X46119Y-38470D01*
X46049Y-38540D01*
X46011Y-38632D01*
X46010Y-39455D01*
X46072Y-39517D01*
X46800Y-39517D01*
X46800Y-39617D01*
X46072Y-39617D01*
X46010Y-39679D01*
X46011Y-40502D01*
X46049Y-40594D01*
X46119Y-40664D01*
X46210Y-40702D01*
X46309Y-40702D01*
X46738Y-40703D01*
X46800Y-40641D01*
X46800Y-41388D01*
X46172Y-41388D01*
X46009Y-41455D01*
X45885Y-41580D01*
X45817Y-41743D01*
X45817Y-41919D01*
X45817Y-43691D01*
X45884Y-43854D01*
X46009Y-43978D01*
X46172Y-44046D01*
X46348Y-44046D01*
X47528Y-44046D01*
X47691Y-43979D01*
X47815Y-43854D01*
X47882Y-43691D01*
X47883Y-43691D01*
X48494Y-44302D01*
X48496Y-44305D01*
X48659Y-44413D01*
X48660Y-44414D01*
X48852Y-44452D01*
X49408Y-44452D01*
X49379Y-44522D01*
X49379Y-44769D01*
X49473Y-44997D01*
X49648Y-45172D01*
X49876Y-45267D01*
X49909Y-45267D01*
X50032Y-45389D01*
X50034Y-45392D01*
X50197Y-45500D01*
X50198Y-45501D01*
X50334Y-45527D01*
X50334Y-45617D01*
X50396Y-45679D01*
X50884Y-45679D01*
X50934Y-45679D01*
X51034Y-45679D01*
X51034Y-45779D01*
X51034Y-45829D01*
X51034Y-46217D01*
X51096Y-46279D01*
X51335Y-46278D01*
X51388Y-46278D01*
X51389Y-46280D01*
X51514Y-46404D01*
X51677Y-46472D01*
X51746Y-46472D01*
X51747Y-46472D01*
X51809Y-46565D01*
X51901Y-46656D01*
X51903Y-46659D01*
X52024Y-46740D01*
X52065Y-46767D01*
X52067Y-46768D01*
X52210Y-46796D01*
X52258Y-46806D01*
X52258Y-46805D01*
X52259Y-46806D01*
X55202Y-46806D01*
X55222Y-46802D01*
X55245Y-46802D01*
X55257Y-46803D01*
X55260Y-46802D01*
X55630Y-46802D01*
X55822Y-46764D01*
X55823Y-46764D01*
X55986Y-46655D01*
X56416Y-46223D01*
X56418Y-46222D01*
X56419Y-46222D01*
X56527Y-46059D01*
X56528Y-46058D01*
X56566Y-45866D01*
X56566Y-44745D01*
X56540Y-44617D01*
X61111Y-44617D01*
X61274Y-44550D01*
X61398Y-44425D01*
X61466Y-44262D01*
X61466Y-47119D01*
X50934Y-47119D01*
X50934Y-46217D01*
X50934Y-45779D01*
X50396Y-45779D01*
X50334Y-45841D01*
X50335Y-46078D01*
X50373Y-46170D01*
X50443Y-46240D01*
X50534Y-46278D01*
X50633Y-46278D01*
X50872Y-46279D01*
X50934Y-46217D01*
X50934Y-47119D01*
X44864Y-47119D01*
X44425Y-47119D01*
X44391Y-47085D01*
X44576Y-46938D01*
X44856Y-46283D01*
X44864Y-45571D01*
X44600Y-44910D01*
X44576Y-44874D01*
X44352Y-44695D01*
X44282Y-44765D01*
X43142Y-45906D01*
X43071Y-45977D01*
X43000Y-45906D01*
X43071Y-45835D01*
X43106Y-45800D01*
X44282Y-44625D01*
X44103Y-44401D01*
X43448Y-44121D01*
X43300Y-44119D01*
X43300Y-36694D01*
X42913Y-36307D01*
X42526Y-36694D01*
X42565Y-36800D01*
X42808Y-36890D01*
X43066Y-36881D01*
X43261Y-36800D01*
X43300Y-36694D01*
X43300Y-44119D01*
X42736Y-44113D01*
X42075Y-44377D01*
X42039Y-44401D01*
X41891Y-44585D01*
X41858Y-44552D01*
X41858Y-22771D01*
X41891Y-22737D01*
X42039Y-22922D01*
X42694Y-23202D01*
X43406Y-23210D01*
X44067Y-22946D01*
X44103Y-22922D01*
X44282Y-22698D01*
X43106Y-21523D01*
X43071Y-21488D01*
X43000Y-21417D01*
X43071Y-21346D01*
X43142Y-21417D01*
X43177Y-21452D01*
X44352Y-22628D01*
X44576Y-22449D01*
X44856Y-21794D01*
X44864Y-21082D01*
X44600Y-20421D01*
X44576Y-20385D01*
X44391Y-20237D01*
X44425Y-20204D01*
X86874Y-20204D01*
X86907Y-20237D01*
X86723Y-20385D01*
X86443Y-21040D01*
X86435Y-21752D01*
X86699Y-22413D01*
X86723Y-22449D01*
X86947Y-22628D01*
X88122Y-21452D01*
X88157Y-21417D01*
X88228Y-21346D01*
X88299Y-21417D01*
X88228Y-21488D01*
X88157Y-21558D01*
X87017Y-22698D01*
X87196Y-22922D01*
X87851Y-23202D01*
X88563Y-23210D01*
X89224Y-22946D01*
X89260Y-22922D01*
X89407Y-22737D01*
X89439Y-22769D01*
X89442Y-22772D01*
X89442Y-44551D01*
X89442Y-44551D01*
G37*
G54D31*
X89442Y-44551D02*
X89439Y-44554D01*
X89407Y-44585D01*
X89260Y-44401D01*
X88605Y-44121D01*
X87893Y-44113D01*
X87668Y-44202D01*
X87668Y-35705D01*
X87668Y-35458D01*
X87574Y-35230D01*
X87399Y-35055D01*
X87171Y-34960D01*
X86924Y-34960D01*
X86696Y-35054D01*
X86672Y-35077D01*
X85979Y-35078D01*
X85979Y-34068D01*
X85979Y-32988D01*
X85968Y-32768D01*
X85905Y-32615D01*
X85810Y-32587D01*
X85492Y-32905D01*
X85810Y-33223D01*
X85905Y-33195D01*
X85979Y-32988D01*
X85979Y-34068D01*
X85968Y-33848D01*
X85905Y-33695D01*
X85810Y-33667D01*
X85492Y-33985D01*
X85810Y-34303D01*
X85905Y-34275D01*
X85979Y-34068D01*
X85979Y-35078D01*
X85975Y-35079D01*
X85968Y-34928D01*
X85905Y-34775D01*
X85810Y-34747D01*
X85527Y-35030D01*
X85492Y-35065D01*
X85477Y-35080D01*
X85392Y-35080D01*
X85389Y-35077D01*
X85401Y-35013D01*
X85421Y-34994D01*
X85456Y-34959D01*
X85739Y-34676D01*
X85711Y-34581D01*
X85565Y-34528D01*
X85711Y-34469D01*
X85739Y-34374D01*
X85456Y-34091D01*
X85424Y-34059D01*
X85424Y-33911D01*
X85456Y-33879D01*
X85739Y-33596D01*
X85711Y-33501D01*
X85565Y-33448D01*
X85711Y-33389D01*
X85739Y-33294D01*
X85456Y-33011D01*
X85424Y-32979D01*
X85424Y-32831D01*
X85456Y-32799D01*
X85739Y-32516D01*
X85733Y-32496D01*
X85850Y-32448D01*
X86063Y-32235D01*
X86179Y-31956D01*
X86179Y-31655D01*
X86064Y-31376D01*
X85953Y-31265D01*
X86063Y-31155D01*
X86179Y-30876D01*
X86179Y-30575D01*
X86064Y-30296D01*
X85953Y-30185D01*
X86063Y-30075D01*
X86179Y-29796D01*
X86179Y-29495D01*
X86064Y-29216D01*
X85943Y-29095D01*
X86063Y-28975D01*
X86179Y-28696D01*
X86179Y-28498D01*
X86705Y-27971D01*
X86707Y-27970D01*
X86708Y-27970D01*
X86816Y-27807D01*
X86817Y-27806D01*
X86855Y-27614D01*
X86855Y-26475D01*
X86878Y-26452D01*
X86973Y-26224D01*
X86973Y-25977D01*
X86879Y-25749D01*
X86704Y-25574D01*
X86548Y-25509D01*
X86870Y-25186D01*
X86872Y-25185D01*
X86873Y-25185D01*
X86981Y-25022D01*
X86982Y-25021D01*
X87020Y-24829D01*
X87020Y-23939D01*
X86982Y-23747D01*
X86981Y-23746D01*
X86873Y-23583D01*
X86870Y-23581D01*
X84441Y-21151D01*
X84278Y-21042D01*
X84085Y-21004D01*
X81735Y-21004D01*
X81734Y-21004D01*
X81686Y-21013D01*
X81660Y-21018D01*
X81602Y-20960D01*
X81439Y-20851D01*
X81246Y-20813D01*
X59968Y-20813D01*
X59776Y-20851D01*
X59612Y-20960D01*
X59610Y-20962D01*
X59192Y-21380D01*
X58996Y-21380D01*
X58717Y-21495D01*
X58646Y-21566D01*
X58576Y-21496D01*
X58297Y-21380D01*
X57996Y-21380D01*
X57717Y-21495D01*
X57646Y-21566D01*
X57576Y-21496D01*
X57297Y-21380D01*
X56996Y-21380D01*
X56717Y-21495D01*
X56646Y-21566D01*
X56576Y-21496D01*
X56297Y-21380D01*
X55996Y-21380D01*
X55717Y-21495D01*
X55646Y-21566D01*
X55576Y-21496D01*
X55297Y-21380D01*
X54996Y-21380D01*
X54717Y-21495D01*
X54646Y-21566D01*
X54576Y-21496D01*
X54297Y-21380D01*
X53996Y-21380D01*
X53717Y-21495D01*
X53646Y-21566D01*
X53576Y-21496D01*
X53297Y-21380D01*
X52996Y-21380D01*
X52717Y-21495D01*
X52646Y-21566D01*
X52576Y-21496D01*
X52297Y-21380D01*
X51996Y-21380D01*
X51717Y-21495D01*
X51646Y-21566D01*
X51576Y-21496D01*
X51297Y-21380D01*
X50996Y-21380D01*
X50717Y-21495D01*
X50646Y-21566D01*
X50576Y-21496D01*
X50297Y-21380D01*
X49996Y-21380D01*
X49717Y-21495D01*
X49504Y-21708D01*
X49388Y-21987D01*
X49388Y-22288D01*
X49503Y-22567D01*
X49574Y-22638D01*
X49504Y-22708D01*
X49388Y-22987D01*
X49388Y-23288D01*
X49503Y-23567D01*
X49716Y-23780D01*
X49995Y-23896D01*
X50296Y-23896D01*
X50575Y-23781D01*
X50646Y-23710D01*
X50716Y-23780D01*
X50995Y-23896D01*
X51296Y-23896D01*
X51575Y-23781D01*
X51646Y-23710D01*
X51716Y-23780D01*
X51995Y-23896D01*
X52296Y-23896D01*
X52575Y-23781D01*
X52646Y-23710D01*
X52716Y-23780D01*
X52995Y-23896D01*
X53296Y-23896D01*
X53575Y-23781D01*
X53646Y-23710D01*
X53716Y-23780D01*
X53995Y-23896D01*
X54296Y-23896D01*
X54575Y-23781D01*
X54646Y-23710D01*
X54716Y-23780D01*
X54995Y-23896D01*
X55296Y-23896D01*
X55575Y-23781D01*
X55646Y-23710D01*
X55716Y-23780D01*
X55995Y-23896D01*
X56296Y-23896D01*
X56575Y-23781D01*
X56646Y-23710D01*
X56716Y-23780D01*
X56995Y-23896D01*
X57192Y-23896D01*
X58906Y-25609D01*
X58908Y-25612D01*
X59071Y-25720D01*
X59072Y-25721D01*
X59264Y-25759D01*
X60171Y-25759D01*
X60272Y-25860D01*
X60239Y-25860D01*
X60177Y-25922D01*
X60177Y-26090D01*
X60177Y-26150D01*
X60177Y-26177D01*
X60177Y-26230D01*
X60177Y-26290D01*
X60177Y-26405D01*
X60177Y-26437D01*
X60177Y-26458D01*
X60177Y-26485D01*
X60177Y-26665D01*
X60177Y-26692D01*
X60177Y-26713D01*
X60177Y-26745D01*
X60177Y-26920D01*
X60177Y-26973D01*
X60204Y-27000D01*
X60177Y-27000D01*
X60177Y-27228D01*
X60239Y-27290D01*
X60328Y-27289D01*
X60427Y-27289D01*
X60518Y-27251D01*
X60588Y-27181D01*
X60626Y-27089D01*
X60627Y-27062D01*
X60565Y-27000D01*
X60508Y-27000D01*
X60518Y-26996D01*
X60588Y-26926D01*
X60608Y-26876D01*
X60627Y-26858D01*
X60626Y-26834D01*
X60626Y-26832D01*
X60626Y-26831D01*
X60627Y-26807D01*
X60608Y-26788D01*
X60588Y-26739D01*
X60551Y-26702D01*
X60588Y-26666D01*
X60604Y-26625D01*
X60627Y-26603D01*
X60626Y-26576D01*
X60625Y-26575D01*
X60626Y-26574D01*
X60627Y-26547D01*
X60604Y-26524D01*
X60588Y-26484D01*
X60551Y-26447D01*
X60588Y-26411D01*
X60608Y-26361D01*
X60627Y-26343D01*
X60626Y-26319D01*
X60626Y-26317D01*
X60626Y-26316D01*
X60627Y-26292D01*
X60625Y-26290D01*
X60627Y-26290D01*
X60627Y-26214D01*
X67971Y-33558D01*
X67973Y-33561D01*
X68045Y-33609D01*
X64165Y-33609D01*
X63972Y-33647D01*
X63809Y-33756D01*
X63192Y-34373D01*
X62996Y-34373D01*
X62717Y-34488D01*
X62649Y-34556D01*
X62649Y-32473D01*
X62611Y-32281D01*
X62610Y-32279D01*
X62583Y-32238D01*
X62502Y-32117D01*
X62499Y-32115D01*
X60738Y-30353D01*
X60645Y-30291D01*
X60645Y-30290D01*
X60645Y-30221D01*
X60578Y-30058D01*
X60453Y-29934D01*
X60290Y-29866D01*
X60114Y-29866D01*
X60077Y-29866D01*
X60077Y-27228D01*
X60077Y-27000D01*
X60050Y-27000D01*
X60077Y-26973D01*
X60077Y-26920D01*
X60077Y-26745D01*
X60077Y-26713D01*
X60077Y-26692D01*
X60077Y-26665D01*
X60077Y-26485D01*
X60077Y-26458D01*
X60077Y-26437D01*
X60077Y-26405D01*
X60077Y-26230D01*
X60077Y-26177D01*
X60050Y-26150D01*
X60077Y-26150D01*
X60077Y-25922D01*
X60015Y-25860D01*
X59926Y-25861D01*
X59827Y-25861D01*
X59736Y-25899D01*
X59666Y-25969D01*
X59628Y-26061D01*
X59627Y-26088D01*
X59689Y-26150D01*
X59745Y-26150D01*
X59736Y-26154D01*
X59666Y-26224D01*
X59645Y-26273D01*
X59627Y-26292D01*
X59627Y-26317D01*
X59627Y-26343D01*
X59645Y-26361D01*
X59666Y-26411D01*
X59702Y-26447D01*
X59666Y-26484D01*
X59649Y-26524D01*
X59627Y-26547D01*
X59628Y-26574D01*
X59628Y-26575D01*
X59628Y-26576D01*
X59627Y-26603D01*
X59649Y-26625D01*
X59666Y-26666D01*
X59702Y-26702D01*
X59666Y-26739D01*
X59645Y-26788D01*
X59627Y-26807D01*
X59627Y-26832D01*
X59627Y-26858D01*
X59645Y-26876D01*
X59666Y-26926D01*
X59736Y-26996D01*
X59745Y-27000D01*
X59689Y-27000D01*
X59627Y-27062D01*
X59628Y-27089D01*
X59666Y-27181D01*
X59736Y-27251D01*
X59827Y-27289D01*
X59926Y-27289D01*
X60015Y-27290D01*
X60077Y-27228D01*
X60077Y-29866D01*
X59516Y-29866D01*
X59510Y-29855D01*
X59504Y-29846D01*
X59504Y-29799D01*
X59504Y-29199D01*
X59437Y-29036D01*
X59312Y-28912D01*
X59149Y-28844D01*
X59072Y-28844D01*
X59066Y-28836D01*
X59111Y-28836D01*
X59202Y-28798D01*
X59272Y-28728D01*
X59310Y-28636D01*
X59311Y-28399D01*
X59249Y-28337D01*
X58761Y-28337D01*
X58711Y-28337D01*
X58611Y-28337D01*
X58611Y-28237D01*
X58711Y-28237D01*
X58761Y-28237D01*
X59249Y-28237D01*
X59311Y-28175D01*
X59310Y-27938D01*
X59272Y-27846D01*
X59202Y-27776D01*
X59111Y-27738D01*
X59012Y-27738D01*
X58773Y-27737D01*
X58761Y-27749D01*
X58761Y-27737D01*
X58692Y-27737D01*
X58731Y-27644D01*
X58731Y-27476D01*
X58878Y-27416D01*
X59002Y-27291D01*
X59070Y-27128D01*
X59070Y-26952D01*
X59070Y-26873D01*
X59070Y-26792D01*
X59070Y-26697D01*
X59070Y-26613D01*
X59070Y-26537D01*
X59070Y-26437D01*
X59070Y-26358D01*
X59070Y-26277D01*
X59070Y-26182D01*
X59070Y-26022D01*
X59003Y-25859D01*
X58878Y-25735D01*
X58715Y-25667D01*
X58539Y-25667D01*
X58039Y-25667D01*
X57990Y-25687D01*
X57901Y-25687D01*
X57708Y-25725D01*
X57545Y-25834D01*
X57494Y-25885D01*
X57382Y-25885D01*
X57190Y-25923D01*
X57026Y-26032D01*
X57024Y-26034D01*
X56950Y-26108D01*
X56841Y-26271D01*
X56803Y-26464D01*
X56803Y-26606D01*
X56681Y-26729D01*
X56613Y-26892D01*
X56613Y-27068D01*
X56613Y-27152D01*
X56613Y-27228D01*
X56613Y-27328D01*
X56613Y-27402D01*
X56613Y-27488D01*
X56613Y-27578D01*
X56613Y-27662D01*
X56613Y-27738D01*
X56613Y-27838D01*
X56613Y-27922D01*
X56613Y-27998D01*
X56613Y-28098D01*
X56613Y-28172D01*
X56613Y-28258D01*
X56613Y-28348D01*
X56613Y-28432D01*
X56613Y-28508D01*
X56613Y-28608D01*
X56613Y-28768D01*
X56649Y-28855D01*
X56613Y-28942D01*
X56613Y-29118D01*
X56613Y-29202D01*
X56613Y-29278D01*
X56613Y-29378D01*
X56613Y-29452D01*
X56613Y-29538D01*
X56613Y-29628D01*
X56613Y-29712D01*
X56613Y-29788D01*
X56613Y-29888D01*
X56613Y-29972D01*
X56613Y-30048D01*
X56613Y-30148D01*
X56613Y-30222D01*
X56613Y-30308D01*
X56613Y-30398D01*
X56613Y-30558D01*
X56680Y-30721D01*
X56803Y-30843D01*
X56803Y-31499D01*
X56841Y-31692D01*
X56897Y-31775D01*
X56671Y-31682D01*
X56425Y-31682D01*
X55884Y-31140D01*
X55721Y-31031D01*
X55528Y-30993D01*
X54589Y-30993D01*
X54589Y-30913D01*
X54844Y-30913D01*
X55007Y-30846D01*
X55131Y-30721D01*
X55199Y-30558D01*
X55199Y-30382D01*
X55199Y-30308D01*
X55199Y-30222D01*
X55199Y-30132D01*
X55199Y-29972D01*
X55132Y-29809D01*
X55077Y-29754D01*
X55131Y-29701D01*
X55199Y-29538D01*
X55199Y-29362D01*
X55199Y-29202D01*
X55132Y-29039D01*
X55007Y-28915D01*
X54971Y-28900D01*
X54967Y-28889D01*
X54933Y-28855D01*
X54967Y-28821D01*
X54971Y-28810D01*
X55007Y-28796D01*
X55131Y-28671D01*
X55199Y-28508D01*
X55199Y-28332D01*
X55199Y-28258D01*
X55199Y-28172D01*
X55199Y-28082D01*
X55199Y-27941D01*
X55237Y-27916D01*
X55747Y-27404D01*
X55749Y-27403D01*
X55750Y-27403D01*
X55858Y-27240D01*
X55859Y-27239D01*
X55897Y-27047D01*
X55897Y-26893D01*
X56060Y-26826D01*
X56235Y-26651D01*
X56330Y-26423D01*
X56330Y-26176D01*
X56236Y-25948D01*
X56061Y-25773D01*
X55833Y-25678D01*
X55586Y-25678D01*
X55358Y-25772D01*
X55183Y-25947D01*
X55088Y-26175D01*
X55088Y-26208D01*
X55038Y-26258D01*
X54929Y-26421D01*
X54901Y-26560D01*
X54844Y-26537D01*
X54694Y-26537D01*
X54558Y-26400D01*
X54558Y-25846D01*
X54520Y-25654D01*
X54519Y-25653D01*
X54411Y-25490D01*
X54408Y-25488D01*
X53952Y-25031D01*
X53952Y-24512D01*
X53885Y-24349D01*
X53760Y-24225D01*
X53597Y-24157D01*
X53421Y-24157D01*
X52821Y-24157D01*
X52658Y-24224D01*
X52559Y-24323D01*
X52460Y-24225D01*
X52297Y-24157D01*
X52121Y-24157D01*
X51521Y-24157D01*
X51358Y-24224D01*
X51234Y-24349D01*
X51195Y-24442D01*
X51079Y-24394D01*
X50903Y-24394D01*
X50103Y-24394D01*
X49940Y-24461D01*
X49816Y-24586D01*
X49795Y-24634D01*
X49666Y-24634D01*
X49643Y-24611D01*
X49415Y-24516D01*
X49168Y-24516D01*
X48940Y-24610D01*
X48765Y-24785D01*
X48670Y-25013D01*
X48670Y-25260D01*
X48764Y-25488D01*
X48822Y-25546D01*
X48765Y-25604D01*
X48670Y-25832D01*
X48670Y-26079D01*
X48764Y-26307D01*
X48939Y-26482D01*
X49167Y-26577D01*
X49414Y-26577D01*
X49642Y-26483D01*
X49666Y-26459D01*
X49748Y-26459D01*
X49748Y-26825D01*
X49815Y-26988D01*
X49940Y-27112D01*
X50103Y-27180D01*
X50279Y-27180D01*
X50622Y-27180D01*
X50757Y-27315D01*
X50920Y-27423D01*
X50921Y-27424D01*
X51113Y-27462D01*
X51359Y-27462D01*
X51359Y-27644D01*
X51421Y-27706D01*
X51809Y-27706D01*
X51859Y-27706D01*
X51959Y-27706D01*
X51959Y-27806D01*
X51859Y-27806D01*
X51809Y-27806D01*
X51421Y-27806D01*
X51394Y-27833D01*
X49745Y-27833D01*
X49722Y-27810D01*
X49494Y-27715D01*
X49247Y-27715D01*
X49019Y-27809D01*
X48844Y-27984D01*
X48749Y-28212D01*
X48749Y-28459D01*
X48843Y-28687D01*
X49018Y-28862D01*
X49246Y-28957D01*
X49493Y-28957D01*
X49721Y-28863D01*
X49745Y-28839D01*
X51373Y-28839D01*
X51421Y-28887D01*
X51809Y-28887D01*
X51859Y-28887D01*
X51959Y-28887D01*
X51959Y-28987D01*
X51959Y-29037D01*
X51959Y-29525D01*
X52021Y-29587D01*
X52258Y-29586D01*
X52350Y-29548D01*
X52420Y-29478D01*
X52458Y-29387D01*
X52458Y-29349D01*
X52466Y-29354D01*
X52466Y-29425D01*
X52533Y-29588D01*
X52619Y-29673D01*
X52611Y-29675D01*
X52447Y-29784D01*
X52445Y-29786D01*
X51859Y-30372D01*
X51859Y-29525D01*
X51859Y-28987D01*
X51421Y-28987D01*
X51359Y-29049D01*
X51360Y-29288D01*
X51360Y-29387D01*
X51398Y-29478D01*
X51468Y-29548D01*
X51560Y-29586D01*
X51797Y-29587D01*
X51859Y-29525D01*
X51859Y-30372D01*
X51596Y-30635D01*
X51487Y-30798D01*
X51476Y-30849D01*
X51471Y-30847D01*
X51234Y-30846D01*
X51172Y-30908D01*
X51172Y-31396D01*
X51172Y-31446D01*
X51172Y-31546D01*
X51172Y-31596D01*
X51172Y-32084D01*
X51234Y-32146D01*
X51449Y-32145D01*
X51449Y-32224D01*
X51234Y-32224D01*
X51172Y-32286D01*
X51172Y-32774D01*
X51172Y-32824D01*
X51172Y-32924D01*
X51172Y-32974D01*
X51172Y-33462D01*
X51234Y-33524D01*
X51471Y-33523D01*
X51563Y-33485D01*
X51633Y-33415D01*
X51671Y-33324D01*
X51671Y-33279D01*
X51679Y-33285D01*
X51679Y-33362D01*
X51746Y-33525D01*
X51871Y-33649D01*
X52034Y-33717D01*
X52210Y-33717D01*
X52810Y-33717D01*
X52973Y-33650D01*
X53097Y-33525D01*
X53158Y-33377D01*
X54118Y-33377D01*
X54310Y-33339D01*
X54311Y-33339D01*
X54401Y-33278D01*
X54402Y-33278D01*
X54598Y-33278D01*
X54942Y-33621D01*
X54944Y-33624D01*
X55107Y-33732D01*
X55108Y-33733D01*
X55300Y-33771D01*
X57865Y-33771D01*
X57926Y-33919D01*
X58051Y-34043D01*
X58214Y-34111D01*
X58390Y-34111D01*
X58990Y-34111D01*
X59153Y-34044D01*
X59251Y-33944D01*
X59351Y-34043D01*
X59472Y-34093D01*
X59546Y-34204D01*
X59643Y-34301D01*
X59643Y-34556D01*
X59576Y-34489D01*
X59297Y-34373D01*
X58996Y-34373D01*
X58717Y-34488D01*
X58646Y-34559D01*
X58576Y-34489D01*
X58297Y-34373D01*
X57996Y-34373D01*
X57717Y-34488D01*
X57646Y-34559D01*
X57576Y-34489D01*
X57297Y-34373D01*
X56996Y-34373D01*
X56717Y-34488D01*
X56646Y-34559D01*
X56576Y-34489D01*
X56297Y-34373D01*
X55996Y-34373D01*
X55717Y-34488D01*
X55646Y-34559D01*
X55576Y-34489D01*
X55297Y-34373D01*
X54996Y-34373D01*
X54717Y-34488D01*
X54646Y-34559D01*
X54576Y-34489D01*
X54297Y-34373D01*
X53996Y-34373D01*
X53717Y-34488D01*
X53646Y-34559D01*
X53576Y-34489D01*
X53297Y-34373D01*
X52996Y-34373D01*
X52717Y-34488D01*
X52646Y-34559D01*
X52576Y-34489D01*
X52297Y-34373D01*
X51996Y-34373D01*
X51717Y-34488D01*
X51646Y-34559D01*
X51576Y-34489D01*
X51297Y-34373D01*
X51149Y-34373D01*
X51143Y-34344D01*
X51130Y-34275D01*
X51117Y-34204D01*
X51115Y-34202D01*
X51115Y-34198D01*
X51072Y-34133D01*
X51072Y-33462D01*
X51072Y-32924D01*
X51072Y-32824D01*
X51072Y-32286D01*
X51072Y-32084D01*
X51072Y-31546D01*
X51072Y-31446D01*
X51072Y-30908D01*
X51010Y-30846D01*
X50773Y-30847D01*
X50681Y-30885D01*
X50611Y-30955D01*
X50573Y-31046D01*
X50573Y-31145D01*
X50572Y-31384D01*
X50634Y-31446D01*
X51072Y-31446D01*
X51072Y-31546D01*
X50634Y-31546D01*
X50572Y-31608D01*
X50573Y-31847D01*
X50573Y-31946D01*
X50611Y-32037D01*
X50681Y-32107D01*
X50773Y-32145D01*
X51010Y-32146D01*
X51072Y-32084D01*
X51072Y-32286D01*
X51010Y-32224D01*
X50773Y-32225D01*
X50681Y-32263D01*
X50611Y-32333D01*
X50573Y-32424D01*
X50573Y-32523D01*
X50572Y-32762D01*
X50634Y-32824D01*
X51072Y-32824D01*
X51072Y-32924D01*
X50634Y-32924D01*
X50572Y-32986D01*
X50573Y-33225D01*
X50573Y-33324D01*
X50611Y-33415D01*
X50681Y-33485D01*
X50773Y-33523D01*
X51010Y-33524D01*
X51072Y-33462D01*
X51072Y-34133D01*
X51010Y-34041D01*
X51010Y-34040D01*
X51009Y-34039D01*
X51006Y-34034D01*
X51000Y-34030D01*
X50073Y-33075D01*
X50069Y-33072D01*
X50068Y-33070D01*
X50005Y-33028D01*
X49912Y-32964D01*
X49906Y-32962D01*
X49904Y-32961D01*
X49814Y-32943D01*
X49719Y-32923D01*
X49715Y-32923D01*
X49712Y-32923D01*
X47883Y-32923D01*
X47883Y-32097D01*
X47874Y-32075D01*
X47874Y-27619D01*
X47874Y-27321D01*
X47760Y-27046D01*
X47683Y-26969D01*
X47760Y-26893D01*
X47874Y-26619D01*
X47874Y-26321D01*
X47760Y-26046D01*
X47550Y-25835D01*
X47276Y-25721D01*
X46978Y-25721D01*
X46733Y-25822D01*
X46489Y-25721D01*
X46485Y-25721D01*
X46485Y-24846D01*
X46485Y-24365D01*
X46302Y-23923D01*
X46139Y-23815D01*
X46068Y-23886D01*
X46068Y-23744D01*
X45960Y-23581D01*
X45515Y-23398D01*
X45034Y-23398D01*
X44864Y-23468D01*
X44592Y-23581D01*
X44484Y-23744D01*
X45276Y-24536D01*
X46068Y-23744D01*
X46068Y-23886D01*
X45347Y-24607D01*
X46139Y-25399D01*
X46302Y-25291D01*
X46485Y-24846D01*
X46485Y-25721D01*
X46191Y-25721D01*
X46068Y-25771D01*
X46068Y-25470D01*
X45276Y-24678D01*
X45205Y-24749D01*
X45205Y-24607D01*
X44413Y-23815D01*
X44282Y-23901D01*
X44250Y-23923D01*
X44067Y-24368D01*
X44067Y-24849D01*
X44250Y-25291D01*
X44413Y-25399D01*
X45205Y-24607D01*
X45205Y-24749D01*
X44484Y-25470D01*
X44592Y-25633D01*
X45037Y-25816D01*
X45518Y-25816D01*
X45960Y-25633D01*
X46068Y-25470D01*
X46068Y-25771D01*
X45916Y-25835D01*
X45705Y-26045D01*
X45591Y-26319D01*
X45591Y-26617D01*
X45705Y-26892D01*
X45911Y-27098D01*
X45869Y-27141D01*
X45901Y-27173D01*
X45863Y-27185D01*
X45791Y-27389D01*
X45802Y-27605D01*
X45863Y-27753D01*
X45957Y-27780D01*
X46233Y-27504D01*
X46268Y-27469D01*
X46339Y-27398D01*
X46378Y-27437D01*
X46378Y-27501D01*
X46339Y-27540D01*
X46304Y-27575D01*
X46268Y-27611D01*
X46028Y-27851D01*
X46055Y-27945D01*
X46259Y-28017D01*
X46475Y-28006D01*
X46567Y-27967D01*
X46702Y-28103D01*
X46976Y-28217D01*
X47274Y-28217D01*
X47549Y-28103D01*
X47760Y-27893D01*
X47874Y-27619D01*
X47874Y-32075D01*
X47816Y-31934D01*
X47691Y-31810D01*
X47528Y-31742D01*
X47352Y-31742D01*
X46485Y-31742D01*
X46485Y-29570D01*
X46485Y-29089D01*
X46302Y-28647D01*
X46139Y-28539D01*
X46068Y-28610D01*
X46068Y-28468D01*
X45960Y-28305D01*
X45515Y-28122D01*
X45034Y-28122D01*
X44592Y-28305D01*
X44484Y-28468D01*
X45276Y-29260D01*
X46068Y-28468D01*
X46068Y-28610D01*
X45347Y-29331D01*
X46139Y-30123D01*
X46302Y-30015D01*
X46485Y-29570D01*
X46485Y-31742D01*
X46172Y-31742D01*
X46068Y-31784D01*
X46068Y-30194D01*
X45276Y-29402D01*
X45205Y-29473D01*
X45205Y-29331D01*
X44413Y-28539D01*
X44250Y-28647D01*
X44067Y-29092D01*
X44067Y-29573D01*
X44250Y-30015D01*
X44413Y-30123D01*
X45205Y-29331D01*
X45205Y-29473D01*
X44484Y-30194D01*
X44592Y-30357D01*
X45037Y-30540D01*
X45518Y-30540D01*
X45960Y-30357D01*
X46068Y-30194D01*
X46068Y-31784D01*
X46009Y-31809D01*
X45885Y-31934D01*
X45817Y-32097D01*
X45817Y-32273D01*
X45817Y-32653D01*
X45724Y-32715D01*
X45615Y-32879D01*
X45606Y-32923D01*
X43723Y-32923D01*
X43531Y-32961D01*
X43367Y-33070D01*
X43365Y-33072D01*
X43038Y-33399D01*
X42747Y-33399D01*
X42439Y-33526D01*
X42204Y-33762D01*
X42076Y-34069D01*
X42076Y-34402D01*
X42203Y-34710D01*
X42215Y-34722D01*
X42188Y-34751D01*
X42057Y-35065D01*
X42057Y-35406D01*
X42187Y-35721D01*
X42353Y-35886D01*
X42349Y-35888D01*
X42259Y-36131D01*
X42268Y-36389D01*
X42349Y-36584D01*
X42455Y-36623D01*
X42807Y-36271D01*
X42842Y-36236D01*
X42913Y-36165D01*
X42984Y-36236D01*
X43019Y-36271D01*
X43371Y-36623D01*
X43477Y-36584D01*
X43567Y-36341D01*
X43558Y-36083D01*
X43477Y-35888D01*
X43473Y-35886D01*
X43638Y-35721D01*
X43769Y-35407D01*
X43769Y-35066D01*
X43639Y-34751D01*
X43609Y-34722D01*
X43622Y-34710D01*
X43750Y-34403D01*
X43750Y-34110D01*
X43931Y-33929D01*
X45817Y-33929D01*
X45817Y-34045D01*
X45884Y-34208D01*
X46009Y-34332D01*
X46172Y-34400D01*
X46348Y-34400D01*
X47528Y-34400D01*
X47691Y-34333D01*
X47815Y-34208D01*
X47883Y-34045D01*
X47883Y-33929D01*
X49498Y-33929D01*
X49949Y-34392D01*
X49717Y-34488D01*
X49504Y-34701D01*
X49388Y-34980D01*
X49388Y-35281D01*
X49503Y-35560D01*
X49574Y-35631D01*
X49504Y-35701D01*
X49388Y-35980D01*
X49388Y-36281D01*
X49503Y-36560D01*
X49716Y-36773D01*
X49995Y-36889D01*
X50296Y-36889D01*
X50575Y-36774D01*
X50646Y-36703D01*
X50716Y-36773D01*
X50995Y-36889D01*
X51296Y-36889D01*
X51575Y-36774D01*
X51646Y-36703D01*
X51716Y-36773D01*
X51995Y-36889D01*
X52296Y-36889D01*
X52575Y-36774D01*
X52646Y-36703D01*
X52716Y-36773D01*
X52995Y-36889D01*
X53296Y-36889D01*
X53575Y-36774D01*
X53646Y-36703D01*
X53716Y-36773D01*
X53995Y-36889D01*
X54296Y-36889D01*
X54575Y-36774D01*
X54646Y-36703D01*
X54716Y-36773D01*
X54995Y-36889D01*
X55296Y-36889D01*
X55575Y-36774D01*
X55646Y-36703D01*
X55716Y-36773D01*
X55995Y-36889D01*
X56296Y-36889D01*
X56575Y-36774D01*
X56646Y-36703D01*
X56716Y-36773D01*
X56995Y-36889D01*
X57296Y-36889D01*
X57575Y-36774D01*
X57646Y-36703D01*
X57716Y-36773D01*
X57995Y-36889D01*
X58296Y-36889D01*
X58575Y-36774D01*
X58646Y-36703D01*
X58716Y-36773D01*
X58995Y-36889D01*
X59296Y-36889D01*
X59575Y-36774D01*
X59646Y-36703D01*
X59716Y-36773D01*
X59995Y-36889D01*
X60296Y-36889D01*
X60575Y-36774D01*
X60646Y-36703D01*
X60716Y-36773D01*
X60995Y-36889D01*
X61296Y-36889D01*
X61575Y-36774D01*
X61646Y-36703D01*
X61716Y-36773D01*
X61995Y-36889D01*
X62296Y-36889D01*
X62575Y-36774D01*
X62646Y-36703D01*
X62716Y-36773D01*
X62995Y-36889D01*
X63192Y-36889D01*
X64631Y-38327D01*
X64633Y-38330D01*
X64796Y-38438D01*
X64797Y-38439D01*
X64989Y-38477D01*
X65951Y-38477D01*
X65891Y-38502D01*
X65767Y-38627D01*
X65699Y-38790D01*
X65699Y-38966D01*
X65699Y-39261D01*
X63868Y-39261D01*
X63868Y-39240D01*
X63868Y-38532D01*
X63801Y-38369D01*
X63676Y-38245D01*
X63513Y-38177D01*
X63337Y-38177D01*
X62471Y-38177D01*
X62308Y-38244D01*
X62184Y-38369D01*
X62141Y-38471D01*
X61914Y-38471D01*
X61722Y-38509D01*
X61558Y-38618D01*
X61556Y-38620D01*
X61466Y-38710D01*
X61466Y-38416D01*
X61399Y-38253D01*
X61274Y-38129D01*
X61111Y-38061D01*
X60935Y-38061D01*
X56211Y-38061D01*
X56048Y-38128D01*
X55924Y-38253D01*
X55856Y-38416D01*
X55856Y-38592D01*
X55856Y-39182D01*
X55096Y-39182D01*
X55095Y-39182D01*
X55047Y-39191D01*
X54904Y-39220D01*
X54902Y-39220D01*
X54902Y-39221D01*
X54861Y-39248D01*
X54740Y-39329D01*
X54738Y-39331D01*
X54679Y-39390D01*
X54407Y-39277D01*
X54106Y-39277D01*
X53956Y-39338D01*
X53956Y-38695D01*
X53956Y-38471D01*
X53955Y-38232D01*
X53955Y-38133D01*
X53917Y-38042D01*
X53847Y-37972D01*
X53755Y-37934D01*
X53518Y-37933D01*
X53456Y-37995D01*
X53456Y-38533D01*
X53894Y-38533D01*
X53956Y-38471D01*
X53956Y-38695D01*
X53894Y-38633D01*
X53456Y-38633D01*
X53456Y-39171D01*
X53518Y-39233D01*
X53755Y-39232D01*
X53847Y-39194D01*
X53917Y-39124D01*
X53955Y-39033D01*
X53955Y-38934D01*
X53956Y-38695D01*
X53956Y-39338D01*
X53827Y-39392D01*
X53626Y-39592D01*
X53592Y-39558D01*
X53558Y-39591D01*
X53546Y-39551D01*
X53356Y-39483D01*
X53356Y-39171D01*
X53356Y-38633D01*
X53356Y-38533D01*
X53356Y-37995D01*
X53294Y-37933D01*
X53057Y-37934D01*
X52965Y-37972D01*
X52895Y-38042D01*
X52857Y-38133D01*
X52857Y-38232D01*
X52856Y-38471D01*
X52918Y-38533D01*
X53356Y-38533D01*
X53356Y-38633D01*
X52918Y-38633D01*
X52856Y-38695D01*
X52857Y-38934D01*
X52857Y-39033D01*
X52895Y-39124D01*
X52965Y-39194D01*
X53057Y-39232D01*
X53294Y-39233D01*
X53356Y-39171D01*
X53356Y-39483D01*
X53339Y-39477D01*
X53119Y-39488D01*
X52966Y-39551D01*
X52953Y-39591D01*
X52920Y-39558D01*
X52885Y-39592D01*
X52759Y-39466D01*
X52759Y-39313D01*
X52749Y-39265D01*
X52781Y-39234D01*
X52849Y-39071D01*
X52849Y-38895D01*
X52849Y-38095D01*
X52782Y-37932D01*
X52657Y-37808D01*
X52494Y-37740D01*
X52318Y-37740D01*
X51718Y-37740D01*
X51555Y-37807D01*
X51431Y-37932D01*
X51363Y-38095D01*
X51363Y-38271D01*
X51363Y-39071D01*
X51430Y-39234D01*
X51555Y-39358D01*
X51676Y-39408D01*
X51729Y-39489D01*
X51626Y-39592D01*
X51592Y-39558D01*
X51558Y-39591D01*
X51546Y-39551D01*
X51339Y-39477D01*
X51119Y-39488D01*
X50966Y-39551D01*
X50938Y-39646D01*
X51221Y-39929D01*
X51256Y-39964D01*
X51327Y-40035D01*
X51256Y-40106D01*
X51221Y-40141D01*
X51185Y-40177D01*
X51185Y-40035D01*
X50867Y-39717D01*
X50772Y-39745D01*
X50698Y-39952D01*
X50709Y-40172D01*
X50772Y-40325D01*
X50867Y-40353D01*
X51185Y-40035D01*
X51185Y-40177D01*
X50938Y-40424D01*
X50966Y-40519D01*
X51173Y-40593D01*
X51393Y-40582D01*
X51546Y-40519D01*
X51558Y-40478D01*
X51574Y-40494D01*
X51592Y-40512D01*
X51626Y-40477D01*
X51826Y-40677D01*
X52105Y-40793D01*
X52406Y-40793D01*
X52685Y-40678D01*
X52885Y-40477D01*
X52920Y-40512D01*
X52953Y-40478D01*
X52966Y-40519D01*
X53173Y-40593D01*
X53393Y-40582D01*
X53546Y-40519D01*
X53558Y-40478D01*
X53574Y-40494D01*
X53592Y-40512D01*
X53626Y-40477D01*
X53826Y-40677D01*
X54105Y-40793D01*
X54406Y-40793D01*
X54685Y-40678D01*
X54844Y-40518D01*
X54938Y-40500D01*
X54939Y-40500D01*
X55102Y-40391D01*
X55304Y-40188D01*
X55856Y-40188D01*
X55856Y-40954D01*
X55923Y-41117D01*
X56048Y-41241D01*
X56211Y-41309D01*
X56387Y-41309D01*
X61111Y-41309D01*
X61202Y-41271D01*
X61245Y-41375D01*
X61420Y-41550D01*
X61648Y-41645D01*
X61895Y-41645D01*
X62123Y-41551D01*
X62298Y-41376D01*
X62332Y-41293D01*
X62471Y-41351D01*
X62647Y-41351D01*
X63513Y-41351D01*
X63676Y-41284D01*
X63800Y-41159D01*
X63868Y-40996D01*
X63868Y-40820D01*
X63868Y-40267D01*
X65699Y-40267D01*
X65699Y-40738D01*
X65766Y-40901D01*
X65891Y-41025D01*
X66054Y-41093D01*
X66230Y-41093D01*
X66313Y-41093D01*
X66314Y-41093D01*
X66376Y-41186D01*
X66844Y-41653D01*
X66846Y-41656D01*
X66967Y-41737D01*
X67008Y-41764D01*
X67010Y-41765D01*
X67043Y-41771D01*
X67050Y-41778D01*
X66844Y-41778D01*
X66782Y-41840D01*
X66782Y-42864D01*
X67510Y-42864D01*
X67572Y-42802D01*
X67571Y-42299D01*
X68726Y-43453D01*
X68728Y-43456D01*
X68891Y-43564D01*
X68892Y-43565D01*
X69084Y-43603D01*
X69140Y-43603D01*
X69140Y-43687D01*
X69234Y-43915D01*
X69409Y-44090D01*
X69637Y-44185D01*
X69884Y-44185D01*
X70112Y-44091D01*
X70119Y-44084D01*
X72600Y-44084D01*
X72600Y-44288D01*
X72662Y-44350D01*
X73150Y-44350D01*
X73200Y-44350D01*
X73300Y-44350D01*
X73300Y-44450D01*
X73300Y-44500D01*
X73300Y-44888D01*
X73362Y-44950D01*
X73601Y-44949D01*
X73700Y-44949D01*
X73791Y-44911D01*
X73851Y-44850D01*
X73867Y-44887D01*
X73937Y-44957D01*
X74029Y-44995D01*
X74266Y-44996D01*
X74328Y-44934D01*
X74328Y-44446D01*
X74328Y-44396D01*
X74328Y-44296D01*
X74428Y-44296D01*
X74428Y-44396D01*
X74428Y-44446D01*
X74428Y-44924D01*
X74406Y-44977D01*
X74406Y-45153D01*
X74406Y-45424D01*
X74328Y-45456D01*
X74248Y-45489D01*
X74195Y-45542D01*
X73200Y-45542D01*
X73200Y-44888D01*
X73200Y-44450D01*
X72662Y-44450D01*
X72600Y-44512D01*
X72601Y-44749D01*
X72639Y-44841D01*
X72709Y-44911D01*
X72800Y-44949D01*
X72899Y-44949D01*
X73138Y-44950D01*
X73200Y-44888D01*
X73200Y-45542D01*
X69912Y-45542D01*
X69889Y-45519D01*
X69661Y-45424D01*
X69414Y-45424D01*
X69186Y-45518D01*
X69011Y-45693D01*
X68916Y-45921D01*
X68916Y-46168D01*
X69010Y-46396D01*
X69185Y-46571D01*
X69413Y-46666D01*
X69660Y-46666D01*
X69888Y-46572D01*
X69912Y-46548D01*
X74195Y-46548D01*
X74248Y-46600D01*
X74411Y-46668D01*
X74587Y-46668D01*
X74947Y-46668D01*
X75110Y-46601D01*
X75234Y-46476D01*
X75234Y-46474D01*
X75267Y-46475D01*
X75329Y-46413D01*
X75329Y-46145D01*
X75329Y-46095D01*
X75329Y-45995D01*
X75429Y-45995D01*
X75479Y-45995D01*
X75747Y-45995D01*
X75809Y-45933D01*
X75808Y-45914D01*
X75808Y-45815D01*
X75770Y-45724D01*
X75700Y-45654D01*
X75608Y-45616D01*
X75629Y-45568D01*
X75775Y-45568D01*
X75798Y-45591D01*
X76026Y-45686D01*
X76230Y-45686D01*
X76180Y-45807D01*
X76180Y-46054D01*
X76274Y-46282D01*
X76449Y-46457D01*
X76677Y-46552D01*
X76864Y-46552D01*
X76913Y-46600D01*
X77076Y-46668D01*
X77252Y-46668D01*
X77612Y-46668D01*
X77775Y-46601D01*
X77899Y-46476D01*
X77899Y-46474D01*
X77932Y-46475D01*
X77994Y-46413D01*
X77994Y-46145D01*
X77994Y-46095D01*
X77994Y-45995D01*
X78094Y-45995D01*
X78144Y-45995D01*
X78412Y-45995D01*
X78474Y-45933D01*
X78473Y-45914D01*
X78473Y-45815D01*
X78435Y-45724D01*
X78365Y-45654D01*
X78273Y-45616D01*
X78317Y-45513D01*
X78317Y-45337D01*
X78317Y-45189D01*
X78732Y-45189D01*
X78895Y-45122D01*
X79019Y-44997D01*
X79087Y-44834D01*
X79087Y-44658D01*
X79087Y-44106D01*
X79277Y-44027D01*
X79277Y-44234D01*
X79339Y-44296D01*
X79727Y-44296D01*
X79777Y-44296D01*
X79877Y-44296D01*
X79877Y-44396D01*
X79777Y-44396D01*
X79727Y-44396D01*
X79339Y-44396D01*
X79277Y-44458D01*
X79278Y-44697D01*
X79278Y-44796D01*
X79316Y-44887D01*
X79372Y-44943D01*
X79258Y-45057D01*
X79163Y-45285D01*
X79163Y-45532D01*
X79257Y-45760D01*
X79432Y-45935D01*
X79543Y-45981D01*
X79543Y-46313D01*
X79610Y-46476D01*
X79735Y-46600D01*
X79898Y-46668D01*
X80074Y-46668D01*
X80434Y-46668D01*
X80597Y-46601D01*
X80721Y-46476D01*
X80721Y-46474D01*
X80754Y-46475D01*
X80816Y-46413D01*
X80816Y-46145D01*
X80816Y-46095D01*
X80816Y-45995D01*
X80916Y-45995D01*
X80966Y-45995D01*
X81234Y-45995D01*
X81296Y-45933D01*
X81295Y-45914D01*
X81295Y-45815D01*
X81257Y-45724D01*
X81187Y-45654D01*
X81095Y-45616D01*
X81139Y-45513D01*
X81139Y-45337D01*
X81139Y-45189D01*
X81515Y-45189D01*
X81678Y-45122D01*
X81802Y-44997D01*
X81870Y-44834D01*
X81870Y-44658D01*
X81870Y-44278D01*
X86203Y-44278D01*
X86395Y-44240D01*
X86396Y-44240D01*
X86559Y-44131D01*
X87127Y-43561D01*
X87129Y-43560D01*
X87130Y-43560D01*
X87238Y-43397D01*
X87239Y-43396D01*
X87277Y-43204D01*
X87277Y-42240D01*
X87239Y-42048D01*
X87238Y-42047D01*
X87130Y-41884D01*
X87127Y-41882D01*
X85979Y-40733D01*
X85979Y-39508D01*
X85979Y-38408D01*
X85979Y-37328D01*
X85968Y-37108D01*
X85905Y-36955D01*
X85810Y-36927D01*
X85492Y-37245D01*
X85810Y-37563D01*
X85905Y-37535D01*
X85979Y-37328D01*
X85979Y-38408D01*
X85968Y-38188D01*
X85905Y-38035D01*
X85810Y-38007D01*
X85492Y-38325D01*
X85810Y-38643D01*
X85905Y-38615D01*
X85979Y-38408D01*
X85979Y-39508D01*
X85968Y-39288D01*
X85905Y-39135D01*
X85810Y-39107D01*
X85492Y-39425D01*
X85810Y-39743D01*
X85905Y-39715D01*
X85979Y-39508D01*
X85979Y-40733D01*
X85868Y-40622D01*
X85868Y-40590D01*
X85774Y-40362D01*
X85599Y-40187D01*
X85424Y-40114D01*
X85424Y-39978D01*
X85558Y-39972D01*
X85711Y-39909D01*
X85739Y-39814D01*
X85456Y-39531D01*
X85424Y-39499D01*
X85424Y-39351D01*
X85456Y-39319D01*
X85739Y-39036D01*
X85711Y-38941D01*
X85522Y-38873D01*
X85558Y-38872D01*
X85711Y-38809D01*
X85739Y-38714D01*
X85456Y-38431D01*
X85424Y-38399D01*
X85424Y-38275D01*
X85419Y-38255D01*
X85421Y-38254D01*
X85456Y-38219D01*
X85739Y-37936D01*
X85711Y-37841D01*
X85565Y-37788D01*
X85711Y-37729D01*
X85739Y-37634D01*
X85456Y-37351D01*
X85421Y-37316D01*
X85350Y-37245D01*
X85421Y-37174D01*
X85456Y-37139D01*
X85739Y-36856D01*
X85711Y-36761D01*
X85591Y-36718D01*
X85711Y-36669D01*
X85739Y-36574D01*
X85456Y-36291D01*
X85421Y-36256D01*
X85350Y-36185D01*
X85421Y-36114D01*
X85492Y-36185D01*
X85527Y-36220D01*
X85810Y-36503D01*
X85905Y-36475D01*
X85979Y-36268D01*
X85969Y-36085D01*
X86671Y-36083D01*
X86695Y-36107D01*
X86923Y-36202D01*
X87170Y-36202D01*
X87398Y-36108D01*
X87573Y-35933D01*
X87668Y-35705D01*
X87668Y-44202D01*
X87232Y-44377D01*
X87196Y-44401D01*
X87017Y-44625D01*
X88193Y-45800D01*
X88228Y-45835D01*
X88299Y-45906D01*
X88228Y-45977D01*
X88157Y-45906D01*
X88122Y-45871D01*
X86947Y-44695D01*
X86723Y-44874D01*
X86443Y-45529D01*
X86435Y-46241D01*
X86699Y-46902D01*
X86723Y-46938D01*
X86907Y-47085D01*
X86874Y-47119D01*
X81296Y-47119D01*
X81296Y-46157D01*
X81234Y-46095D01*
X80916Y-46095D01*
X80916Y-46413D01*
X80978Y-46475D01*
X81095Y-46474D01*
X81187Y-46436D01*
X81257Y-46366D01*
X81295Y-46275D01*
X81295Y-46176D01*
X81296Y-46157D01*
X81296Y-47119D01*
X78474Y-47119D01*
X78474Y-46157D01*
X78412Y-46095D01*
X78094Y-46095D01*
X78094Y-46413D01*
X78156Y-46475D01*
X78273Y-46474D01*
X78365Y-46436D01*
X78435Y-46366D01*
X78473Y-46275D01*
X78473Y-46176D01*
X78474Y-46157D01*
X78474Y-47119D01*
X75809Y-47119D01*
X75809Y-46157D01*
X75747Y-46095D01*
X75429Y-46095D01*
X75429Y-46413D01*
X75491Y-46475D01*
X75608Y-46474D01*
X75700Y-46436D01*
X75770Y-46366D01*
X75808Y-46275D01*
X75808Y-46176D01*
X75809Y-46157D01*
X75809Y-47119D01*
X67572Y-47119D01*
X67572Y-43026D01*
X67510Y-42964D01*
X66782Y-42964D01*
X66782Y-43988D01*
X66844Y-44050D01*
X67273Y-44049D01*
X67372Y-44049D01*
X67463Y-44011D01*
X67533Y-43941D01*
X67571Y-43849D01*
X67572Y-43026D01*
X67572Y-47119D01*
X66682Y-47119D01*
X66682Y-43988D01*
X66682Y-42964D01*
X66682Y-42864D01*
X66682Y-41840D01*
X66620Y-41778D01*
X66191Y-41779D01*
X66092Y-41779D01*
X66001Y-41817D01*
X65931Y-41887D01*
X65893Y-41979D01*
X65892Y-42802D01*
X65954Y-42864D01*
X66682Y-42864D01*
X66682Y-42964D01*
X65954Y-42964D01*
X65892Y-43026D01*
X65893Y-43849D01*
X65931Y-43941D01*
X66001Y-44011D01*
X66092Y-44049D01*
X66191Y-44049D01*
X66620Y-44050D01*
X66682Y-43988D01*
X66682Y-47119D01*
X61466Y-47119D01*
X61466Y-44262D01*
X61466Y-44086D01*
X61466Y-41724D01*
X61399Y-41561D01*
X61274Y-41437D01*
X61111Y-41369D01*
X60935Y-41369D01*
X56211Y-41369D01*
X56048Y-41436D01*
X55924Y-41561D01*
X55856Y-41724D01*
X55856Y-41900D01*
X55856Y-42575D01*
X55763Y-42637D01*
X55761Y-42639D01*
X55006Y-43394D01*
X54927Y-43394D01*
X55014Y-43186D01*
X55014Y-42885D01*
X54899Y-42606D01*
X54686Y-42393D01*
X54407Y-42277D01*
X54106Y-42277D01*
X54076Y-42289D01*
X53836Y-42048D01*
X53673Y-41939D01*
X53574Y-41919D01*
X53480Y-41901D01*
X52789Y-41901D01*
X52597Y-41939D01*
X52595Y-41939D01*
X52595Y-41940D01*
X52554Y-41967D01*
X52433Y-42048D01*
X52431Y-42050D01*
X52400Y-42081D01*
X52291Y-42244D01*
X52284Y-42277D01*
X52106Y-42277D01*
X51827Y-42392D01*
X51756Y-42463D01*
X51686Y-42393D01*
X51574Y-42346D01*
X51407Y-42277D01*
X51106Y-42277D01*
X50827Y-42392D01*
X50614Y-42605D01*
X50498Y-42884D01*
X50498Y-43185D01*
X50605Y-43446D01*
X49060Y-43446D01*
X47976Y-42361D01*
X47883Y-42299D01*
X47883Y-42298D01*
X47883Y-41743D01*
X47816Y-41580D01*
X47691Y-41456D01*
X47690Y-41455D01*
X47690Y-39679D01*
X47690Y-39455D01*
X47690Y-36333D01*
X47690Y-36109D01*
X47689Y-35286D01*
X47651Y-35194D01*
X47581Y-35124D01*
X47490Y-35086D01*
X47391Y-35086D01*
X46962Y-35085D01*
X46900Y-35147D01*
X46900Y-36171D01*
X47628Y-36171D01*
X47690Y-36109D01*
X47690Y-36333D01*
X47628Y-36271D01*
X46900Y-36271D01*
X46900Y-37295D01*
X46962Y-37357D01*
X47391Y-37356D01*
X47490Y-37356D01*
X47581Y-37318D01*
X47651Y-37248D01*
X47689Y-37156D01*
X47690Y-36333D01*
X47690Y-39455D01*
X47689Y-38632D01*
X47651Y-38540D01*
X47581Y-38470D01*
X47490Y-38432D01*
X47391Y-38432D01*
X46962Y-38431D01*
X46900Y-38493D01*
X46900Y-39517D01*
X47628Y-39517D01*
X47690Y-39455D01*
X47690Y-39679D01*
X47628Y-39617D01*
X46900Y-39617D01*
X46900Y-40641D01*
X46962Y-40703D01*
X47391Y-40702D01*
X47490Y-40702D01*
X47581Y-40664D01*
X47651Y-40594D01*
X47689Y-40502D01*
X47690Y-39679D01*
X47690Y-41455D01*
X47528Y-41388D01*
X47352Y-41388D01*
X46800Y-41388D01*
X46800Y-40641D01*
X46800Y-39617D01*
X46800Y-39517D01*
X46800Y-38493D01*
X46800Y-37295D01*
X46800Y-36271D01*
X46800Y-36171D01*
X46800Y-35147D01*
X46738Y-35085D01*
X46309Y-35086D01*
X46210Y-35086D01*
X46119Y-35124D01*
X46049Y-35194D01*
X46011Y-35286D01*
X46010Y-36109D01*
X46072Y-36171D01*
X46800Y-36171D01*
X46800Y-36271D01*
X46072Y-36271D01*
X46010Y-36333D01*
X46011Y-37156D01*
X46049Y-37248D01*
X46119Y-37318D01*
X46210Y-37356D01*
X46309Y-37356D01*
X46738Y-37357D01*
X46800Y-37295D01*
X46800Y-38493D01*
X46738Y-38431D01*
X46309Y-38432D01*
X46210Y-38432D01*
X46119Y-38470D01*
X46049Y-38540D01*
X46011Y-38632D01*
X46010Y-39455D01*
X46072Y-39517D01*
X46800Y-39517D01*
X46800Y-39617D01*
X46072Y-39617D01*
X46010Y-39679D01*
X46011Y-40502D01*
X46049Y-40594D01*
X46119Y-40664D01*
X46210Y-40702D01*
X46309Y-40702D01*
X46738Y-40703D01*
X46800Y-40641D01*
X46800Y-41388D01*
X46172Y-41388D01*
X46009Y-41455D01*
X45885Y-41580D01*
X45817Y-41743D01*
X45817Y-41919D01*
X45817Y-43691D01*
X45884Y-43854D01*
X46009Y-43978D01*
X46172Y-44046D01*
X46348Y-44046D01*
X47528Y-44046D01*
X47691Y-43979D01*
X47815Y-43854D01*
X47882Y-43691D01*
X47883Y-43691D01*
X48494Y-44302D01*
X48496Y-44305D01*
X48659Y-44413D01*
X48660Y-44414D01*
X48852Y-44452D01*
X49408Y-44452D01*
X49379Y-44522D01*
X49379Y-44769D01*
X49473Y-44997D01*
X49648Y-45172D01*
X49876Y-45267D01*
X49909Y-45267D01*
X50032Y-45389D01*
X50034Y-45392D01*
X50197Y-45500D01*
X50198Y-45501D01*
X50334Y-45527D01*
X50334Y-45617D01*
X50396Y-45679D01*
X50884Y-45679D01*
X50934Y-45679D01*
X51034Y-45679D01*
X51034Y-45779D01*
X51034Y-45829D01*
X51034Y-46217D01*
X51096Y-46279D01*
X51335Y-46278D01*
X51388Y-46278D01*
X51389Y-46280D01*
X51514Y-46404D01*
X51677Y-46472D01*
X51746Y-46472D01*
X51747Y-46472D01*
X51809Y-46565D01*
X51901Y-46656D01*
X51903Y-46659D01*
X52024Y-46740D01*
X52065Y-46767D01*
X52067Y-46768D01*
X52210Y-46796D01*
X52258Y-46806D01*
X52258Y-46805D01*
X52259Y-46806D01*
X55202Y-46806D01*
X55222Y-46802D01*
X55245Y-46802D01*
X55257Y-46803D01*
X55260Y-46802D01*
X55630Y-46802D01*
X55822Y-46764D01*
X55823Y-46764D01*
X55986Y-46655D01*
X56416Y-46223D01*
X56418Y-46222D01*
X56419Y-46222D01*
X56527Y-46059D01*
X56528Y-46058D01*
X56566Y-45866D01*
X56566Y-44745D01*
X56540Y-44617D01*
X61111Y-44617D01*
X61274Y-44550D01*
X61398Y-44425D01*
X61466Y-44262D01*
X61466Y-47119D01*
X50934Y-47119D01*
X50934Y-46217D01*
X50934Y-45779D01*
X50396Y-45779D01*
X50334Y-45841D01*
X50335Y-46078D01*
X50373Y-46170D01*
X50443Y-46240D01*
X50534Y-46278D01*
X50633Y-46278D01*
X50872Y-46279D01*
X50934Y-46217D01*
X50934Y-47119D01*
X44864Y-47119D01*
X44425Y-47119D01*
X44391Y-47085D01*
X44576Y-46938D01*
X44856Y-46283D01*
X44864Y-45571D01*
X44600Y-44910D01*
X44576Y-44874D01*
X44352Y-44695D01*
X44282Y-44765D01*
X43142Y-45906D01*
X43071Y-45977D01*
X43000Y-45906D01*
X43071Y-45835D01*
X43106Y-45800D01*
X44282Y-44625D01*
X44103Y-44401D01*
X43448Y-44121D01*
X43300Y-44119D01*
X43300Y-36694D01*
X42913Y-36307D01*
X42526Y-36694D01*
X42565Y-36800D01*
X42808Y-36890D01*
X43066Y-36881D01*
X43261Y-36800D01*
X43300Y-36694D01*
X43300Y-44119D01*
X42736Y-44113D01*
X42075Y-44377D01*
X42039Y-44401D01*
X41891Y-44585D01*
X41858Y-44552D01*
X41858Y-22771D01*
X41891Y-22737D01*
X42039Y-22922D01*
X42694Y-23202D01*
X43406Y-23210D01*
X44067Y-22946D01*
X44103Y-22922D01*
X44282Y-22698D01*
X43106Y-21523D01*
X43071Y-21488D01*
X43000Y-21417D01*
X43071Y-21346D01*
X43142Y-21417D01*
X43177Y-21452D01*
X44352Y-22628D01*
X44576Y-22449D01*
X44856Y-21794D01*
X44864Y-21082D01*
X44600Y-20421D01*
X44576Y-20385D01*
X44391Y-20237D01*
X44425Y-20204D01*
X86874Y-20204D01*
X86907Y-20237D01*
X86723Y-20385D01*
X86443Y-21040D01*
X86435Y-21752D01*
X86699Y-22413D01*
X86723Y-22449D01*
X86947Y-22628D01*
X88122Y-21452D01*
X88157Y-21417D01*
X88228Y-21346D01*
X88299Y-21417D01*
X88228Y-21488D01*
X88157Y-21558D01*
X87017Y-22698D01*
X87196Y-22922D01*
X87851Y-23202D01*
X88563Y-23210D01*
X89224Y-22946D01*
X89260Y-22922D01*
X89407Y-22737D01*
X89439Y-22769D01*
X89442Y-22772D01*
X89442Y-44551D01*
M02*
