G04 (created by PCBNEW-RS274X (2011-05-25)-stable) date Sun 18 Dec 2011 08:59:16 PM CET*
G01*
G70*
G90*
%MOIN*%
G04 Gerber Fmt 3.4, Leading zero omitted, Abs format*
%FSLAX34Y34*%
G04 APERTURE LIST*
%ADD10C,0.006000*%
%ADD11C,0.015000*%
%ADD12C,0.012000*%
%ADD13C,0.005000*%
%ADD14C,0.012500*%
%ADD15C,0.011300*%
%ADD16C,0.010000*%
%ADD17C,0.003500*%
%ADD18C,0.008000*%
%ADD19C,0.007500*%
G04 APERTURE END LIST*
G54D10*
G54D11*
X44881Y-41142D02*
X44881Y-42717D01*
X44881Y-42717D02*
X45433Y-43268D01*
X45433Y-43268D02*
X48267Y-43268D01*
X48267Y-43268D02*
X48819Y-42717D01*
X48819Y-42717D02*
X48819Y-39016D01*
X48819Y-39016D02*
X44881Y-39016D01*
X44881Y-39016D02*
X44881Y-41142D01*
X54756Y-42035D02*
X54256Y-42035D01*
X54256Y-42035D02*
X54256Y-41035D01*
X54256Y-41035D02*
X54756Y-41035D01*
X54756Y-42535D02*
X50756Y-42535D01*
X50756Y-42535D02*
X50756Y-40535D01*
X50756Y-40535D02*
X54756Y-40535D01*
X54756Y-40535D02*
X54756Y-42535D01*
G54D12*
X89421Y-43925D02*
X83921Y-43925D01*
X87421Y-40925D02*
X83921Y-40925D01*
X89421Y-41675D02*
X87421Y-41675D01*
X89421Y-25175D02*
X87421Y-25175D01*
X87421Y-25925D02*
X83921Y-25925D01*
X83921Y-22925D02*
X89421Y-22925D01*
X87421Y-43925D02*
X87421Y-40925D01*
X87421Y-22925D02*
X87421Y-25925D01*
X88171Y-41425D02*
X89421Y-41425D01*
X88171Y-25425D02*
X89421Y-25425D01*
X92171Y-41425D02*
X89921Y-41425D01*
X92171Y-25425D02*
X89921Y-25425D01*
X89421Y-43925D02*
X89921Y-43925D01*
X89921Y-43925D02*
X89921Y-22925D01*
X89921Y-22925D02*
X89421Y-22925D01*
X89421Y-22925D02*
X89421Y-43925D01*
X83921Y-40925D02*
X83921Y-43925D01*
X88171Y-25425D02*
X88171Y-41425D01*
X92171Y-25425D02*
X92171Y-41425D01*
X83921Y-22925D02*
X83921Y-25925D01*
G54D13*
X62992Y-39464D02*
X62992Y-39384D01*
X63742Y-38864D02*
X63742Y-40664D01*
X63742Y-40664D02*
X63492Y-40664D01*
X62242Y-40024D02*
X63742Y-40024D01*
X62242Y-40154D02*
X63742Y-40154D01*
X62492Y-38864D02*
X62242Y-38864D01*
X62242Y-38864D02*
X62242Y-40664D01*
X62242Y-40664D02*
X62492Y-40664D01*
X63492Y-38864D02*
X63742Y-38864D01*
X62992Y-39714D02*
X63179Y-39464D01*
X63179Y-39464D02*
X62992Y-39464D01*
X62992Y-39464D02*
X62805Y-39464D01*
X62805Y-39464D02*
X62992Y-39714D01*
X62992Y-39714D02*
X63117Y-39714D01*
X63117Y-39714D02*
X63179Y-39652D01*
X62992Y-39714D02*
X62867Y-39714D01*
X62867Y-39714D02*
X62805Y-39776D01*
X62992Y-39714D02*
X62992Y-40151D01*
G54D14*
X54262Y-33480D02*
X56762Y-33480D01*
X54262Y-31480D02*
X56762Y-31480D01*
X57762Y-32480D02*
X57758Y-32393D01*
X57746Y-32307D01*
X57727Y-32222D01*
X57701Y-32138D01*
X57668Y-32058D01*
X57628Y-31981D01*
X57581Y-31907D01*
X57528Y-31838D01*
X57469Y-31773D01*
X57404Y-31714D01*
X57335Y-31661D01*
X57262Y-31614D01*
X57184Y-31574D01*
X57104Y-31541D01*
X57020Y-31515D01*
X56935Y-31496D01*
X56849Y-31484D01*
X56762Y-31480D01*
X56762Y-33480D02*
X56849Y-33476D01*
X56935Y-33464D01*
X57020Y-33445D01*
X57104Y-33419D01*
X57184Y-33386D01*
X57262Y-33346D01*
X57335Y-33299D01*
X57404Y-33246D01*
X57469Y-33187D01*
X57528Y-33122D01*
X57581Y-33053D01*
X57628Y-32979D01*
X57668Y-32902D01*
X57701Y-32822D01*
X57727Y-32738D01*
X57746Y-32653D01*
X57758Y-32567D01*
X57762Y-32480D01*
X54262Y-31480D02*
X54175Y-31484D01*
X54089Y-31496D01*
X54004Y-31515D01*
X53920Y-31541D01*
X53840Y-31574D01*
X53763Y-31614D01*
X53689Y-31661D01*
X53620Y-31714D01*
X53555Y-31773D01*
X53496Y-31838D01*
X53443Y-31907D01*
X53396Y-31981D01*
X53356Y-32058D01*
X53323Y-32138D01*
X53297Y-32222D01*
X53278Y-32307D01*
X53266Y-32393D01*
X53262Y-32480D01*
X53262Y-32480D02*
X53266Y-32567D01*
X53278Y-32653D01*
X53297Y-32738D01*
X53323Y-32822D01*
X53356Y-32902D01*
X53396Y-32979D01*
X53443Y-33053D01*
X53496Y-33122D01*
X53555Y-33187D01*
X53620Y-33246D01*
X53689Y-33299D01*
X53763Y-33346D01*
X53840Y-33386D01*
X53920Y-33419D01*
X54004Y-33445D01*
X54089Y-33464D01*
X54175Y-33476D01*
X54262Y-33480D01*
G54D12*
X49646Y-34631D02*
X69646Y-34631D01*
X49646Y-36631D02*
X69646Y-36631D01*
X49646Y-36631D02*
X49646Y-34631D01*
X69646Y-36631D02*
X69646Y-34631D01*
X49646Y-21638D02*
X69646Y-21638D01*
X49646Y-23638D02*
X69646Y-23638D01*
X49646Y-23638D02*
X49646Y-21638D01*
X69646Y-23638D02*
X69646Y-21638D01*
G54D13*
X79553Y-25636D02*
X79553Y-26536D01*
X79553Y-26536D02*
X80203Y-26536D01*
X80903Y-25636D02*
X81553Y-25636D01*
X81553Y-25636D02*
X81553Y-26536D01*
X81553Y-26536D02*
X80903Y-26536D01*
X80203Y-25636D02*
X79553Y-25636D01*
X75697Y-27715D02*
X75697Y-26815D01*
X75697Y-26815D02*
X75047Y-26815D01*
X74347Y-27715D02*
X73697Y-27715D01*
X73697Y-27715D02*
X73697Y-26815D01*
X73697Y-26815D02*
X74347Y-26815D01*
X75047Y-27715D02*
X75697Y-27715D01*
X81553Y-27678D02*
X81553Y-26778D01*
X81553Y-26778D02*
X80903Y-26778D01*
X80203Y-27678D02*
X79553Y-27678D01*
X79553Y-27678D02*
X79553Y-26778D01*
X79553Y-26778D02*
X80203Y-26778D01*
X80903Y-27678D02*
X81553Y-27678D01*
X75790Y-31916D02*
X75790Y-31016D01*
X75790Y-31016D02*
X75140Y-31016D01*
X74440Y-31916D02*
X73790Y-31916D01*
X73790Y-31916D02*
X73790Y-31016D01*
X73790Y-31016D02*
X74440Y-31016D01*
X75140Y-31916D02*
X75790Y-31916D01*
X73790Y-29796D02*
X73790Y-30696D01*
X73790Y-30696D02*
X74440Y-30696D01*
X75140Y-29796D02*
X75790Y-29796D01*
X75790Y-29796D02*
X75790Y-30696D01*
X75790Y-30696D02*
X75140Y-30696D01*
X74440Y-29796D02*
X73790Y-29796D01*
X76585Y-29874D02*
X76585Y-30774D01*
X76585Y-30774D02*
X77235Y-30774D01*
X77935Y-29874D02*
X78585Y-29874D01*
X78585Y-29874D02*
X78585Y-30774D01*
X78585Y-30774D02*
X77935Y-30774D01*
X77235Y-29874D02*
X76585Y-29874D01*
X73697Y-25674D02*
X73697Y-26574D01*
X73697Y-26574D02*
X74347Y-26574D01*
X75047Y-25674D02*
X75697Y-25674D01*
X75697Y-25674D02*
X75697Y-26574D01*
X75697Y-26574D02*
X75047Y-26574D01*
X74347Y-25674D02*
X73697Y-25674D01*
X76664Y-25675D02*
X76664Y-26575D01*
X76664Y-26575D02*
X77314Y-26575D01*
X78014Y-25675D02*
X78664Y-25675D01*
X78664Y-25675D02*
X78664Y-26575D01*
X78664Y-26575D02*
X78014Y-26575D01*
X77314Y-25675D02*
X76664Y-25675D01*
X78664Y-27756D02*
X78664Y-26856D01*
X78664Y-26856D02*
X78014Y-26856D01*
X77314Y-27756D02*
X76664Y-27756D01*
X76664Y-27756D02*
X76664Y-26856D01*
X76664Y-26856D02*
X77314Y-26856D01*
X78014Y-27756D02*
X78664Y-27756D01*
X79456Y-21686D02*
X79456Y-22586D01*
X79456Y-22586D02*
X80106Y-22586D01*
X80806Y-21686D02*
X81456Y-21686D01*
X81456Y-21686D02*
X81456Y-22586D01*
X81456Y-22586D02*
X80806Y-22586D01*
X80106Y-21686D02*
X79456Y-21686D01*
X81530Y-40389D02*
X81530Y-39489D01*
X81530Y-39489D02*
X80880Y-39489D01*
X80180Y-40389D02*
X79530Y-40389D01*
X79530Y-40389D02*
X79530Y-39489D01*
X79530Y-39489D02*
X80180Y-39489D01*
X80880Y-40389D02*
X81530Y-40389D01*
X79569Y-38308D02*
X79569Y-39208D01*
X79569Y-39208D02*
X80219Y-39208D01*
X80919Y-38308D02*
X81569Y-38308D01*
X81569Y-38308D02*
X81569Y-39208D01*
X81569Y-39208D02*
X80919Y-39208D01*
X80219Y-38308D02*
X79569Y-38308D01*
X78771Y-40428D02*
X78771Y-39528D01*
X78771Y-39528D02*
X78121Y-39528D01*
X77421Y-40428D02*
X76771Y-40428D01*
X76771Y-40428D02*
X76771Y-39528D01*
X76771Y-39528D02*
X77421Y-39528D01*
X78121Y-40428D02*
X78771Y-40428D01*
X76732Y-38347D02*
X76732Y-39247D01*
X76732Y-39247D02*
X77382Y-39247D01*
X78082Y-38347D02*
X78732Y-38347D01*
X78732Y-38347D02*
X78732Y-39247D01*
X78732Y-39247D02*
X78082Y-39247D01*
X77382Y-38347D02*
X76732Y-38347D01*
X81456Y-23768D02*
X81456Y-22868D01*
X81456Y-22868D02*
X80806Y-22868D01*
X80106Y-23768D02*
X79456Y-23768D01*
X79456Y-23768D02*
X79456Y-22868D01*
X79456Y-22868D02*
X80106Y-22868D01*
X80806Y-23768D02*
X81456Y-23768D01*
X73896Y-38308D02*
X73896Y-39208D01*
X73896Y-39208D02*
X74546Y-39208D01*
X75246Y-38308D02*
X75896Y-38308D01*
X75896Y-38308D02*
X75896Y-39208D01*
X75896Y-39208D02*
X75246Y-39208D01*
X74546Y-38308D02*
X73896Y-38308D01*
X76028Y-44796D02*
X76028Y-43896D01*
X76028Y-43896D02*
X75378Y-43896D01*
X74678Y-44796D02*
X74028Y-44796D01*
X74028Y-44796D02*
X74028Y-43896D01*
X74028Y-43896D02*
X74678Y-43896D01*
X75378Y-44796D02*
X76028Y-44796D01*
X74028Y-42794D02*
X74028Y-43694D01*
X74028Y-43694D02*
X74678Y-43694D01*
X75378Y-42794D02*
X76028Y-42794D01*
X76028Y-42794D02*
X76028Y-43694D01*
X76028Y-43694D02*
X75378Y-43694D01*
X74678Y-42794D02*
X74028Y-42794D01*
X78585Y-31916D02*
X78585Y-31016D01*
X78585Y-31016D02*
X77935Y-31016D01*
X77235Y-31916D02*
X76585Y-31916D01*
X76585Y-31916D02*
X76585Y-31016D01*
X76585Y-31016D02*
X77235Y-31016D01*
X77935Y-31916D02*
X78585Y-31916D01*
X76694Y-42754D02*
X76694Y-43654D01*
X76694Y-43654D02*
X77344Y-43654D01*
X78044Y-42754D02*
X78694Y-42754D01*
X78694Y-42754D02*
X78694Y-43654D01*
X78694Y-43654D02*
X78044Y-43654D01*
X77344Y-42754D02*
X76694Y-42754D01*
X81495Y-36056D02*
X81495Y-35156D01*
X81495Y-35156D02*
X80845Y-35156D01*
X80145Y-36056D02*
X79495Y-36056D01*
X79495Y-36056D02*
X79495Y-35156D01*
X79495Y-35156D02*
X80145Y-35156D01*
X80845Y-36056D02*
X81495Y-36056D01*
X79495Y-34014D02*
X79495Y-34914D01*
X79495Y-34914D02*
X80145Y-34914D01*
X80845Y-34014D02*
X81495Y-34014D01*
X81495Y-34014D02*
X81495Y-34914D01*
X81495Y-34914D02*
X80845Y-34914D01*
X80145Y-34014D02*
X79495Y-34014D01*
X81477Y-44796D02*
X81477Y-43896D01*
X81477Y-43896D02*
X80827Y-43896D01*
X80127Y-44796D02*
X79477Y-44796D01*
X79477Y-44796D02*
X79477Y-43896D01*
X79477Y-43896D02*
X80127Y-43896D01*
X80827Y-44796D02*
X81477Y-44796D01*
X79477Y-42754D02*
X79477Y-43654D01*
X79477Y-43654D02*
X80127Y-43654D01*
X80827Y-42754D02*
X81477Y-42754D01*
X81477Y-42754D02*
X81477Y-43654D01*
X81477Y-43654D02*
X80827Y-43654D01*
X80127Y-42754D02*
X79477Y-42754D01*
X78659Y-36135D02*
X78659Y-35235D01*
X78659Y-35235D02*
X78009Y-35235D01*
X77309Y-36135D02*
X76659Y-36135D01*
X76659Y-36135D02*
X76659Y-35235D01*
X76659Y-35235D02*
X77309Y-35235D01*
X78009Y-36135D02*
X78659Y-36135D01*
X76659Y-34093D02*
X76659Y-34993D01*
X76659Y-34993D02*
X77309Y-34993D01*
X78009Y-34093D02*
X78659Y-34093D01*
X78659Y-34093D02*
X78659Y-34993D01*
X78659Y-34993D02*
X78009Y-34993D01*
X77309Y-34093D02*
X76659Y-34093D01*
X53134Y-45219D02*
X53134Y-46119D01*
X53134Y-46119D02*
X53784Y-46119D01*
X54484Y-45219D02*
X55134Y-45219D01*
X55134Y-45219D02*
X55134Y-46119D01*
X55134Y-46119D02*
X54484Y-46119D01*
X53784Y-45219D02*
X53134Y-45219D01*
X51715Y-46079D02*
X52615Y-46079D01*
X52615Y-46079D02*
X52615Y-45429D01*
X51715Y-44729D02*
X51715Y-44079D01*
X51715Y-44079D02*
X52615Y-44079D01*
X52615Y-44079D02*
X52615Y-44729D01*
X51715Y-45429D02*
X51715Y-46079D01*
X73822Y-34094D02*
X73822Y-34994D01*
X73822Y-34994D02*
X74472Y-34994D01*
X75172Y-34094D02*
X75822Y-34094D01*
X75822Y-34094D02*
X75822Y-34994D01*
X75822Y-34994D02*
X75172Y-34994D01*
X74472Y-34094D02*
X73822Y-34094D01*
X50534Y-46079D02*
X51434Y-46079D01*
X51434Y-46079D02*
X51434Y-45429D01*
X50534Y-44729D02*
X50534Y-44079D01*
X50534Y-44079D02*
X51434Y-44079D01*
X51434Y-44079D02*
X51434Y-44729D01*
X50534Y-45429D02*
X50534Y-46079D01*
X51041Y-24787D02*
X50141Y-24787D01*
X50141Y-24787D02*
X50141Y-25437D01*
X51041Y-26137D02*
X51041Y-26787D01*
X51041Y-26787D02*
X50141Y-26787D01*
X50141Y-26787D02*
X50141Y-26137D01*
X51041Y-25437D02*
X51041Y-24787D01*
X53559Y-25450D02*
X53559Y-24550D01*
X53559Y-24550D02*
X52909Y-24550D01*
X52209Y-25450D02*
X51559Y-25450D01*
X51559Y-25450D02*
X51559Y-24550D01*
X51559Y-24550D02*
X52209Y-24550D01*
X52909Y-25450D02*
X53559Y-25450D01*
X53559Y-26828D02*
X53559Y-25928D01*
X53559Y-25928D02*
X52909Y-25928D01*
X52209Y-26828D02*
X51559Y-26828D01*
X51559Y-26828D02*
X51559Y-25928D01*
X51559Y-25928D02*
X52209Y-25928D01*
X52909Y-26828D02*
X53559Y-26828D01*
X60252Y-31159D02*
X60252Y-30259D01*
X60252Y-30259D02*
X59602Y-30259D01*
X58902Y-31159D02*
X58252Y-31159D01*
X58252Y-31159D02*
X58252Y-30259D01*
X58252Y-30259D02*
X58902Y-30259D01*
X59602Y-31159D02*
X60252Y-31159D01*
X60252Y-32340D02*
X60252Y-31440D01*
X60252Y-31440D02*
X59602Y-31440D01*
X58902Y-32340D02*
X58252Y-32340D01*
X58252Y-32340D02*
X58252Y-31440D01*
X58252Y-31440D02*
X58902Y-31440D01*
X59602Y-32340D02*
X60252Y-32340D01*
X75822Y-36175D02*
X75822Y-35275D01*
X75822Y-35275D02*
X75172Y-35275D01*
X74472Y-36175D02*
X73822Y-36175D01*
X73822Y-36175D02*
X73822Y-35275D01*
X73822Y-35275D02*
X74472Y-35275D01*
X75172Y-36175D02*
X75822Y-36175D01*
X79515Y-29835D02*
X79515Y-30735D01*
X79515Y-30735D02*
X80165Y-30735D01*
X80865Y-29835D02*
X81515Y-29835D01*
X81515Y-29835D02*
X81515Y-30735D01*
X81515Y-30735D02*
X80865Y-30735D01*
X80165Y-29835D02*
X79515Y-29835D01*
X81515Y-31916D02*
X81515Y-31016D01*
X81515Y-31016D02*
X80865Y-31016D01*
X80165Y-31916D02*
X79515Y-31916D01*
X79515Y-31916D02*
X79515Y-31016D01*
X79515Y-31016D02*
X80165Y-31016D01*
X80865Y-31916D02*
X81515Y-31916D01*
X78694Y-44796D02*
X78694Y-43896D01*
X78694Y-43896D02*
X78044Y-43896D01*
X77344Y-44796D02*
X76694Y-44796D01*
X76694Y-44796D02*
X76694Y-43896D01*
X76694Y-43896D02*
X77344Y-43896D01*
X78044Y-44796D02*
X78694Y-44796D01*
X75896Y-40310D02*
X75896Y-39410D01*
X75896Y-39410D02*
X75246Y-39410D01*
X74546Y-40310D02*
X73896Y-40310D01*
X73896Y-40310D02*
X73896Y-39410D01*
X73896Y-39410D02*
X74546Y-39410D01*
X75246Y-40310D02*
X75896Y-40310D01*
X53134Y-44038D02*
X53134Y-44938D01*
X53134Y-44938D02*
X53784Y-44938D01*
X54484Y-44038D02*
X55134Y-44038D01*
X55134Y-44038D02*
X55134Y-44938D01*
X55134Y-44938D02*
X54484Y-44938D01*
X53784Y-44038D02*
X53134Y-44038D01*
X53559Y-28206D02*
X53559Y-27306D01*
X53559Y-27306D02*
X52909Y-27306D01*
X52209Y-28206D02*
X51559Y-28206D01*
X51559Y-28206D02*
X51559Y-27306D01*
X51559Y-27306D02*
X52209Y-27306D01*
X52909Y-28206D02*
X53559Y-28206D01*
X51756Y-38133D02*
X51756Y-39033D01*
X51756Y-39033D02*
X52406Y-39033D01*
X53106Y-38133D02*
X53756Y-38133D01*
X53756Y-38133D02*
X53756Y-39033D01*
X53756Y-39033D02*
X53106Y-39033D01*
X52406Y-38133D02*
X51756Y-38133D01*
X53559Y-29387D02*
X53559Y-28487D01*
X53559Y-28487D02*
X52909Y-28487D01*
X52209Y-29387D02*
X51559Y-29387D01*
X51559Y-29387D02*
X51559Y-28487D01*
X51559Y-28487D02*
X52209Y-28487D01*
X52909Y-29387D02*
X53559Y-29387D01*
X50772Y-31046D02*
X50772Y-31946D01*
X50772Y-31946D02*
X51422Y-31946D01*
X52122Y-31046D02*
X52772Y-31046D01*
X52772Y-31046D02*
X52772Y-31946D01*
X52772Y-31946D02*
X52122Y-31946D01*
X51422Y-31046D02*
X50772Y-31046D01*
X82733Y-21638D02*
X81833Y-21638D01*
X81833Y-21638D02*
X81833Y-22288D01*
X82733Y-22988D02*
X82733Y-23638D01*
X82733Y-23638D02*
X81833Y-23638D01*
X81833Y-23638D02*
X81833Y-22988D01*
X82733Y-22288D02*
X82733Y-21638D01*
X50772Y-32424D02*
X50772Y-33324D01*
X50772Y-33324D02*
X51422Y-33324D01*
X52122Y-32424D02*
X52772Y-32424D01*
X52772Y-32424D02*
X52772Y-33324D01*
X52772Y-33324D02*
X52122Y-33324D01*
X51422Y-32424D02*
X50772Y-32424D01*
X58211Y-29937D02*
X59111Y-29937D01*
X59111Y-29937D02*
X59111Y-29287D01*
X58211Y-28587D02*
X58211Y-27937D01*
X58211Y-27937D02*
X59111Y-27937D01*
X59111Y-27937D02*
X59111Y-28587D01*
X58211Y-29287D02*
X58211Y-29937D01*
X81116Y-45795D02*
X79916Y-45795D01*
X79916Y-45795D02*
X79916Y-45495D01*
X79916Y-45495D02*
X81116Y-45495D01*
X81116Y-45495D02*
X81116Y-45795D01*
X78259Y-37173D02*
X77059Y-37173D01*
X77059Y-37173D02*
X77059Y-36873D01*
X77059Y-36873D02*
X78259Y-36873D01*
X78259Y-36873D02*
X78259Y-37173D01*
X75496Y-41309D02*
X74296Y-41309D01*
X74296Y-41309D02*
X74296Y-41009D01*
X74296Y-41009D02*
X75496Y-41009D01*
X75496Y-41009D02*
X75496Y-41309D01*
X78294Y-45795D02*
X77094Y-45795D01*
X77094Y-45795D02*
X77094Y-45495D01*
X77094Y-45495D02*
X78294Y-45495D01*
X78294Y-45495D02*
X78294Y-45795D01*
X81193Y-28717D02*
X79993Y-28717D01*
X79993Y-28717D02*
X79993Y-28417D01*
X79993Y-28417D02*
X81193Y-28417D01*
X81193Y-28417D02*
X81193Y-28717D01*
X78264Y-28755D02*
X77064Y-28755D01*
X77064Y-28755D02*
X77064Y-28455D01*
X77064Y-28455D02*
X78264Y-28455D01*
X78264Y-28455D02*
X78264Y-28755D01*
X81095Y-37016D02*
X79895Y-37016D01*
X79895Y-37016D02*
X79895Y-36716D01*
X79895Y-36716D02*
X81095Y-36716D01*
X81095Y-36716D02*
X81095Y-37016D01*
X75629Y-45795D02*
X74429Y-45795D01*
X74429Y-45795D02*
X74429Y-45495D01*
X74429Y-45495D02*
X75629Y-45495D01*
X75629Y-45495D02*
X75629Y-45795D01*
X75422Y-37253D02*
X74222Y-37253D01*
X74222Y-37253D02*
X74222Y-36953D01*
X74222Y-36953D02*
X75422Y-36953D01*
X75422Y-36953D02*
X75422Y-37253D01*
X81154Y-32954D02*
X79954Y-32954D01*
X79954Y-32954D02*
X79954Y-32654D01*
X79954Y-32654D02*
X81154Y-32654D01*
X81154Y-32654D02*
X81154Y-32954D01*
X81016Y-24806D02*
X79816Y-24806D01*
X79816Y-24806D02*
X79816Y-24506D01*
X79816Y-24506D02*
X81016Y-24506D01*
X81016Y-24506D02*
X81016Y-24806D01*
X78371Y-41467D02*
X77171Y-41467D01*
X77171Y-41467D02*
X77171Y-41167D01*
X77171Y-41167D02*
X78371Y-41167D01*
X78371Y-41167D02*
X78371Y-41467D01*
X81091Y-41467D02*
X79891Y-41467D01*
X79891Y-41467D02*
X79891Y-41167D01*
X79891Y-41167D02*
X81091Y-41167D01*
X81091Y-41167D02*
X81091Y-41467D01*
X75390Y-32955D02*
X74190Y-32955D01*
X74190Y-32955D02*
X74190Y-32655D01*
X74190Y-32655D02*
X75390Y-32655D01*
X75390Y-32655D02*
X75390Y-32955D01*
X75297Y-28675D02*
X74097Y-28675D01*
X74097Y-28675D02*
X74097Y-28375D01*
X74097Y-28375D02*
X75297Y-28375D01*
X75297Y-28375D02*
X75297Y-28675D01*
X78185Y-32915D02*
X76985Y-32915D01*
X76985Y-32915D02*
X76985Y-32615D01*
X76985Y-32615D02*
X78185Y-32615D01*
X78185Y-32615D02*
X78185Y-32915D01*
X56897Y-30540D02*
X56894Y-30567D01*
X56886Y-30593D01*
X56873Y-30618D01*
X56856Y-30639D01*
X56834Y-30656D01*
X56810Y-30669D01*
X56784Y-30678D01*
X56756Y-30680D01*
X56730Y-30678D01*
X56704Y-30670D01*
X56679Y-30657D01*
X56658Y-30640D01*
X56640Y-30619D01*
X56627Y-30595D01*
X56619Y-30569D01*
X56616Y-30541D01*
X56618Y-30515D01*
X56625Y-30489D01*
X56638Y-30464D01*
X56655Y-30443D01*
X56676Y-30425D01*
X56700Y-30411D01*
X56726Y-30403D01*
X56754Y-30400D01*
X56780Y-30402D01*
X56806Y-30409D01*
X56831Y-30421D01*
X56853Y-30438D01*
X56871Y-30459D01*
X56884Y-30483D01*
X56893Y-30509D01*
X56896Y-30537D01*
X56897Y-30540D01*
X55656Y-30740D02*
X55656Y-30440D01*
X55656Y-30440D02*
X56156Y-30440D01*
X56156Y-30440D02*
X56156Y-30740D01*
X56956Y-26690D02*
X56956Y-30740D01*
X54856Y-30740D02*
X54856Y-26690D01*
X54856Y-30740D02*
X56956Y-30740D01*
X54856Y-26690D02*
X56956Y-26690D01*
G54D10*
X59752Y-26975D02*
X59750Y-26994D01*
X59744Y-27013D01*
X59735Y-27030D01*
X59722Y-27045D01*
X59707Y-27057D01*
X59690Y-27067D01*
X59672Y-27072D01*
X59652Y-27074D01*
X59634Y-27073D01*
X59615Y-27067D01*
X59598Y-27058D01*
X59583Y-27046D01*
X59570Y-27031D01*
X59561Y-27014D01*
X59555Y-26995D01*
X59553Y-26976D01*
X59554Y-26957D01*
X59560Y-26939D01*
X59568Y-26921D01*
X59581Y-26906D01*
X59595Y-26893D01*
X59612Y-26884D01*
X59631Y-26878D01*
X59650Y-26876D01*
X59669Y-26877D01*
X59688Y-26882D01*
X59705Y-26891D01*
X59720Y-26903D01*
X59733Y-26918D01*
X59743Y-26935D01*
X59749Y-26953D01*
X59751Y-26973D01*
X59752Y-26975D01*
X59852Y-25975D02*
X59852Y-27175D01*
X59852Y-27175D02*
X58652Y-27175D01*
X58652Y-27175D02*
X58652Y-25975D01*
X58652Y-25975D02*
X59852Y-25975D01*
G54D11*
X43663Y-33236D02*
X43913Y-33236D01*
X43913Y-33236D02*
X43913Y-37236D01*
X43913Y-37236D02*
X43663Y-37236D01*
X42163Y-33236D02*
X43663Y-33236D01*
X43663Y-33236D02*
X43663Y-37236D01*
X43663Y-37236D02*
X42163Y-37236D01*
X42163Y-37236D02*
X42163Y-33236D01*
G54D13*
X41226Y-24569D02*
X41226Y-29369D01*
X41226Y-29369D02*
X47926Y-29369D01*
X47926Y-29369D02*
X47926Y-24569D01*
X47926Y-24569D02*
X41226Y-24569D01*
X58252Y-32818D02*
X58252Y-33718D01*
X58252Y-33718D02*
X58902Y-33718D01*
X59602Y-32818D02*
X60252Y-32818D01*
X60252Y-32818D02*
X60252Y-33718D01*
X60252Y-33718D02*
X59602Y-33718D01*
X58902Y-32818D02*
X58252Y-32818D01*
X73450Y-34000D02*
X72550Y-34000D01*
X72550Y-34000D02*
X72550Y-34650D01*
X73450Y-35350D02*
X73450Y-36000D01*
X73450Y-36000D02*
X72550Y-36000D01*
X72550Y-36000D02*
X72550Y-35350D01*
X73450Y-34650D02*
X73450Y-34000D01*
X73700Y-42750D02*
X72800Y-42750D01*
X72800Y-42750D02*
X72800Y-43400D01*
X73700Y-44100D02*
X73700Y-44750D01*
X73700Y-44750D02*
X72800Y-44750D01*
X72800Y-44750D02*
X72800Y-44100D01*
X73700Y-43400D02*
X73700Y-42750D01*
X73200Y-25750D02*
X72300Y-25750D01*
X72300Y-25750D02*
X72300Y-26400D01*
X73200Y-27100D02*
X73200Y-27750D01*
X73200Y-27750D02*
X72300Y-27750D01*
X72300Y-27750D02*
X72300Y-27100D01*
X73200Y-26400D02*
X73200Y-25750D01*
X73450Y-29750D02*
X72550Y-29750D01*
X72550Y-29750D02*
X72550Y-30400D01*
X73450Y-31100D02*
X73450Y-31750D01*
X73450Y-31750D02*
X72550Y-31750D01*
X72550Y-31750D02*
X72550Y-31100D01*
X73450Y-30400D02*
X73450Y-29750D01*
X73450Y-38250D02*
X72550Y-38250D01*
X72550Y-38250D02*
X72550Y-38900D01*
X73450Y-39600D02*
X73450Y-40250D01*
X73450Y-40250D02*
X72550Y-40250D01*
X72550Y-40250D02*
X72550Y-39600D01*
X73450Y-38900D02*
X73450Y-38250D01*
G54D11*
X68701Y-41339D02*
X68701Y-39764D01*
X68701Y-39764D02*
X68149Y-39213D01*
X68149Y-39213D02*
X65315Y-39213D01*
X65315Y-39213D02*
X64763Y-39764D01*
X64763Y-39764D02*
X64763Y-43465D01*
X64763Y-43465D02*
X68701Y-43465D01*
X68701Y-43465D02*
X68701Y-41339D01*
X75787Y-24804D02*
X77362Y-24804D01*
X77362Y-24804D02*
X77913Y-24252D01*
X77913Y-24252D02*
X77913Y-21418D01*
X77913Y-21418D02*
X77362Y-20866D01*
X77362Y-20866D02*
X73661Y-20866D01*
X73661Y-20866D02*
X73661Y-24804D01*
X73661Y-24804D02*
X75787Y-24804D01*
X48819Y-34646D02*
X48819Y-33071D01*
X48819Y-33071D02*
X48267Y-32520D01*
X48267Y-32520D02*
X45433Y-32520D01*
X45433Y-32520D02*
X44881Y-33071D01*
X44881Y-33071D02*
X44881Y-36772D01*
X44881Y-36772D02*
X48819Y-36772D01*
X48819Y-36772D02*
X48819Y-34646D01*
X56299Y-41339D02*
X56299Y-38977D01*
X56299Y-38977D02*
X61023Y-38977D01*
X61023Y-38977D02*
X61023Y-43701D01*
X61023Y-43701D02*
X56299Y-43701D01*
X56299Y-43701D02*
X56299Y-41339D01*
X43971Y-21417D02*
X43953Y-21591D01*
X43903Y-21759D01*
X43820Y-21915D01*
X43709Y-22051D01*
X43574Y-22163D01*
X43419Y-22246D01*
X43251Y-22298D01*
X43077Y-22316D01*
X42903Y-22301D01*
X42734Y-22251D01*
X42579Y-22170D01*
X42442Y-22060D01*
X42329Y-21925D01*
X42244Y-21771D01*
X42191Y-21604D01*
X42172Y-21429D01*
X42186Y-21255D01*
X42235Y-21086D01*
X42315Y-20930D01*
X42424Y-20792D01*
X42558Y-20678D01*
X42711Y-20593D01*
X42878Y-20538D01*
X43053Y-20518D01*
X43227Y-20531D01*
X43396Y-20578D01*
X43553Y-20658D01*
X43691Y-20766D01*
X43806Y-20899D01*
X43893Y-21051D01*
X43948Y-21218D01*
X43970Y-21392D01*
X43971Y-21417D01*
X43971Y-45906D02*
X43953Y-46080D01*
X43903Y-46248D01*
X43820Y-46404D01*
X43709Y-46540D01*
X43574Y-46652D01*
X43419Y-46735D01*
X43251Y-46787D01*
X43077Y-46805D01*
X42903Y-46790D01*
X42734Y-46740D01*
X42579Y-46659D01*
X42442Y-46549D01*
X42329Y-46414D01*
X42244Y-46260D01*
X42191Y-46093D01*
X42172Y-45918D01*
X42186Y-45744D01*
X42235Y-45575D01*
X42315Y-45419D01*
X42424Y-45281D01*
X42558Y-45167D01*
X42711Y-45082D01*
X42878Y-45027D01*
X43053Y-45007D01*
X43227Y-45020D01*
X43396Y-45067D01*
X43553Y-45147D01*
X43691Y-45255D01*
X43806Y-45388D01*
X43893Y-45540D01*
X43948Y-45707D01*
X43970Y-45881D01*
X43971Y-45906D01*
X89128Y-21417D02*
X89110Y-21591D01*
X89060Y-21759D01*
X88977Y-21915D01*
X88866Y-22051D01*
X88731Y-22163D01*
X88576Y-22246D01*
X88408Y-22298D01*
X88234Y-22316D01*
X88060Y-22301D01*
X87891Y-22251D01*
X87736Y-22170D01*
X87599Y-22060D01*
X87486Y-21925D01*
X87401Y-21771D01*
X87348Y-21604D01*
X87329Y-21429D01*
X87343Y-21255D01*
X87392Y-21086D01*
X87472Y-20930D01*
X87581Y-20792D01*
X87715Y-20678D01*
X87868Y-20593D01*
X88035Y-20538D01*
X88210Y-20518D01*
X88384Y-20531D01*
X88553Y-20578D01*
X88710Y-20658D01*
X88848Y-20766D01*
X88963Y-20899D01*
X89050Y-21051D01*
X89105Y-21218D01*
X89127Y-21392D01*
X89128Y-21417D01*
X89128Y-45906D02*
X89110Y-46080D01*
X89060Y-46248D01*
X88977Y-46404D01*
X88866Y-46540D01*
X88731Y-46652D01*
X88576Y-46735D01*
X88408Y-46787D01*
X88234Y-46805D01*
X88060Y-46790D01*
X87891Y-46740D01*
X87736Y-46659D01*
X87599Y-46549D01*
X87486Y-46414D01*
X87401Y-46260D01*
X87348Y-46093D01*
X87329Y-45918D01*
X87343Y-45744D01*
X87392Y-45575D01*
X87472Y-45419D01*
X87581Y-45281D01*
X87715Y-45167D01*
X87868Y-45082D01*
X88035Y-45027D01*
X88210Y-45007D01*
X88384Y-45020D01*
X88553Y-45067D01*
X88710Y-45147D01*
X88848Y-45255D01*
X88963Y-45388D01*
X89050Y-45540D01*
X89105Y-45707D01*
X89127Y-45881D01*
X89128Y-45906D01*
G54D13*
X45588Y-41208D02*
X45612Y-41227D01*
X45635Y-41284D01*
X45635Y-41322D01*
X45612Y-41380D01*
X45564Y-41418D01*
X45516Y-41437D01*
X45421Y-41456D01*
X45350Y-41456D01*
X45254Y-41437D01*
X45207Y-41418D01*
X45159Y-41380D01*
X45135Y-41322D01*
X45135Y-41284D01*
X45159Y-41227D01*
X45183Y-41208D01*
X45135Y-40865D02*
X45135Y-40942D01*
X45159Y-40980D01*
X45183Y-40999D01*
X45254Y-41037D01*
X45350Y-41056D01*
X45540Y-41056D01*
X45588Y-41037D01*
X45612Y-41018D01*
X45635Y-40980D01*
X45635Y-40903D01*
X45612Y-40865D01*
X45588Y-40846D01*
X45540Y-40827D01*
X45421Y-40827D01*
X45373Y-40846D01*
X45350Y-40865D01*
X45326Y-40903D01*
X45326Y-40980D01*
X45350Y-41018D01*
X45373Y-41037D01*
X45421Y-41056D01*
G54D10*
X48429Y-41510D02*
X48429Y-41739D01*
X48429Y-41625D02*
X48029Y-41625D01*
X48086Y-41663D01*
X48124Y-41701D01*
X48143Y-41739D01*
X48029Y-41263D02*
X48029Y-41224D01*
X48048Y-41186D01*
X48067Y-41167D01*
X48105Y-41148D01*
X48181Y-41129D01*
X48277Y-41129D01*
X48353Y-41148D01*
X48391Y-41167D01*
X48410Y-41186D01*
X48429Y-41224D01*
X48429Y-41263D01*
X48410Y-41301D01*
X48391Y-41320D01*
X48353Y-41339D01*
X48277Y-41358D01*
X48181Y-41358D01*
X48105Y-41339D01*
X48067Y-41320D01*
X48048Y-41301D01*
X48029Y-41263D01*
X48029Y-40882D02*
X48029Y-40843D01*
X48048Y-40805D01*
X48067Y-40786D01*
X48105Y-40767D01*
X48181Y-40748D01*
X48277Y-40748D01*
X48353Y-40767D01*
X48391Y-40786D01*
X48410Y-40805D01*
X48429Y-40843D01*
X48429Y-40882D01*
X48410Y-40920D01*
X48391Y-40939D01*
X48353Y-40958D01*
X48277Y-40977D01*
X48181Y-40977D01*
X48105Y-40958D01*
X48067Y-40939D01*
X48048Y-40920D01*
X48029Y-40882D01*
X48162Y-40405D02*
X48429Y-40405D01*
X48162Y-40577D02*
X48372Y-40577D01*
X48410Y-40558D01*
X48429Y-40520D01*
X48429Y-40462D01*
X48410Y-40424D01*
X48391Y-40405D01*
G54D15*
X54839Y-41878D02*
X55406Y-41878D01*
X55473Y-41856D01*
X55506Y-41835D01*
X55539Y-41792D01*
X55539Y-41706D01*
X55506Y-41664D01*
X55473Y-41642D01*
X55406Y-41621D01*
X54839Y-41621D01*
X54839Y-41450D02*
X54839Y-41171D01*
X55106Y-41321D01*
X55106Y-41257D01*
X55139Y-41214D01*
X55173Y-41193D01*
X55239Y-41171D01*
X55406Y-41171D01*
X55473Y-41193D01*
X55506Y-41214D01*
X55539Y-41257D01*
X55539Y-41385D01*
X55506Y-41428D01*
X55473Y-41450D01*
G54D16*
X50261Y-41818D02*
X50261Y-41118D01*
X50395Y-41618D01*
X50528Y-41118D01*
X50528Y-41818D01*
X50947Y-41752D02*
X50928Y-41785D01*
X50871Y-41818D01*
X50833Y-41818D01*
X50775Y-41785D01*
X50737Y-41718D01*
X50718Y-41652D01*
X50699Y-41518D01*
X50699Y-41418D01*
X50718Y-41285D01*
X50737Y-41218D01*
X50775Y-41152D01*
X50833Y-41118D01*
X50871Y-41118D01*
X50928Y-41152D01*
X50947Y-41185D01*
X51080Y-41118D02*
X51328Y-41118D01*
X51194Y-41385D01*
X51252Y-41385D01*
X51290Y-41418D01*
X51309Y-41452D01*
X51328Y-41518D01*
X51328Y-41685D01*
X51309Y-41752D01*
X51290Y-41785D01*
X51252Y-41818D01*
X51137Y-41818D01*
X51099Y-41785D01*
X51080Y-41752D01*
X51671Y-41352D02*
X51671Y-41818D01*
X51575Y-41085D02*
X51480Y-41585D01*
X51728Y-41585D01*
X51956Y-41118D02*
X51995Y-41118D01*
X52033Y-41152D01*
X52052Y-41185D01*
X52071Y-41252D01*
X52090Y-41385D01*
X52090Y-41552D01*
X52071Y-41685D01*
X52052Y-41752D01*
X52033Y-41785D01*
X51995Y-41818D01*
X51956Y-41818D01*
X51918Y-41785D01*
X51899Y-41752D01*
X51880Y-41685D01*
X51861Y-41552D01*
X51861Y-41385D01*
X51880Y-41252D01*
X51899Y-41185D01*
X51918Y-41152D01*
X51956Y-41118D01*
X52433Y-41118D02*
X52356Y-41118D01*
X52318Y-41152D01*
X52299Y-41185D01*
X52261Y-41285D01*
X52242Y-41418D01*
X52242Y-41685D01*
X52261Y-41752D01*
X52280Y-41785D01*
X52318Y-41818D01*
X52395Y-41818D01*
X52433Y-41785D01*
X52452Y-41752D01*
X52471Y-41685D01*
X52471Y-41518D01*
X52452Y-41452D01*
X52433Y-41418D01*
X52395Y-41385D01*
X52318Y-41385D01*
X52280Y-41418D01*
X52261Y-41452D01*
X52242Y-41518D01*
X52604Y-41118D02*
X52852Y-41118D01*
X52718Y-41385D01*
X52776Y-41385D01*
X52814Y-41418D01*
X52833Y-41452D01*
X52852Y-41518D01*
X52852Y-41685D01*
X52833Y-41752D01*
X52814Y-41785D01*
X52776Y-41818D01*
X52661Y-41818D01*
X52623Y-41785D01*
X52604Y-41752D01*
X52928Y-41885D02*
X53233Y-41885D01*
X53309Y-41785D02*
X53366Y-41818D01*
X53462Y-41818D01*
X53500Y-41785D01*
X53519Y-41752D01*
X53538Y-41685D01*
X53538Y-41618D01*
X53519Y-41552D01*
X53500Y-41518D01*
X53462Y-41485D01*
X53385Y-41452D01*
X53347Y-41418D01*
X53328Y-41385D01*
X53309Y-41318D01*
X53309Y-41252D01*
X53328Y-41185D01*
X53347Y-41152D01*
X53385Y-41118D01*
X53481Y-41118D01*
X53538Y-41152D01*
X53709Y-41818D02*
X53709Y-41118D01*
X53899Y-41818D02*
X53899Y-41118D01*
X54033Y-41618D01*
X54166Y-41118D01*
X54166Y-41818D01*
X54356Y-41818D02*
X54356Y-41118D01*
X54509Y-41118D01*
X54547Y-41152D01*
X54566Y-41185D01*
X54585Y-41252D01*
X54585Y-41352D01*
X54566Y-41418D01*
X54547Y-41452D01*
X54509Y-41485D01*
X54356Y-41485D01*
X54947Y-41818D02*
X54756Y-41818D01*
X54756Y-41118D01*
X55080Y-41452D02*
X55214Y-41452D01*
X55271Y-41818D02*
X55080Y-41818D01*
X55080Y-41118D01*
X55271Y-41118D01*
G54D12*
X90564Y-33625D02*
X90992Y-33625D01*
X91078Y-33653D01*
X91135Y-33710D01*
X91164Y-33796D01*
X91164Y-33853D01*
X90621Y-33368D02*
X90592Y-33339D01*
X90564Y-33282D01*
X90564Y-33139D01*
X90592Y-33082D01*
X90621Y-33053D01*
X90678Y-33025D01*
X90735Y-33025D01*
X90821Y-33053D01*
X91164Y-33396D01*
X91164Y-33025D01*
X87664Y-34453D02*
X87064Y-34453D01*
X87064Y-34310D01*
X87092Y-34225D01*
X87150Y-34167D01*
X87207Y-34139D01*
X87321Y-34110D01*
X87407Y-34110D01*
X87521Y-34139D01*
X87578Y-34167D01*
X87635Y-34225D01*
X87664Y-34310D01*
X87664Y-34453D01*
X87350Y-33653D02*
X87378Y-33567D01*
X87407Y-33539D01*
X87464Y-33510D01*
X87550Y-33510D01*
X87607Y-33539D01*
X87635Y-33567D01*
X87664Y-33625D01*
X87664Y-33853D01*
X87064Y-33853D01*
X87064Y-33653D01*
X87092Y-33596D01*
X87121Y-33567D01*
X87178Y-33539D01*
X87235Y-33539D01*
X87292Y-33567D01*
X87321Y-33596D01*
X87350Y-33653D01*
X87350Y-33853D01*
X87121Y-33282D02*
X87092Y-33253D01*
X87064Y-33196D01*
X87064Y-33053D01*
X87092Y-32996D01*
X87121Y-32967D01*
X87178Y-32939D01*
X87235Y-32939D01*
X87321Y-32967D01*
X87664Y-33310D01*
X87664Y-32939D01*
X87064Y-32396D02*
X87064Y-32682D01*
X87350Y-32711D01*
X87321Y-32682D01*
X87292Y-32625D01*
X87292Y-32482D01*
X87321Y-32425D01*
X87350Y-32396D01*
X87407Y-32368D01*
X87550Y-32368D01*
X87607Y-32396D01*
X87635Y-32425D01*
X87664Y-32482D01*
X87664Y-32625D01*
X87635Y-32682D01*
X87607Y-32711D01*
G54D17*
X64394Y-40233D02*
X63894Y-40233D01*
X63894Y-40114D01*
X63918Y-40042D01*
X63966Y-39995D01*
X64013Y-39971D01*
X64109Y-39947D01*
X64180Y-39947D01*
X64275Y-39971D01*
X64323Y-39995D01*
X64371Y-40042D01*
X64394Y-40114D01*
X64394Y-40233D01*
X64394Y-39471D02*
X64394Y-39757D01*
X64394Y-39614D02*
X63894Y-39614D01*
X63966Y-39662D01*
X64013Y-39709D01*
X64037Y-39757D01*
X62021Y-40721D02*
X62044Y-40649D01*
X62044Y-40530D01*
X62021Y-40483D01*
X61997Y-40459D01*
X61949Y-40435D01*
X61902Y-40435D01*
X61854Y-40459D01*
X61830Y-40483D01*
X61806Y-40530D01*
X61782Y-40626D01*
X61759Y-40673D01*
X61735Y-40697D01*
X61687Y-40721D01*
X61640Y-40721D01*
X61592Y-40697D01*
X61568Y-40673D01*
X61544Y-40626D01*
X61544Y-40506D01*
X61568Y-40435D01*
X62021Y-40245D02*
X62044Y-40173D01*
X62044Y-40054D01*
X62021Y-40007D01*
X61997Y-39983D01*
X61949Y-39959D01*
X61902Y-39959D01*
X61854Y-39983D01*
X61830Y-40007D01*
X61806Y-40054D01*
X61782Y-40150D01*
X61759Y-40197D01*
X61735Y-40221D01*
X61687Y-40245D01*
X61640Y-40245D01*
X61592Y-40221D01*
X61568Y-40197D01*
X61544Y-40150D01*
X61544Y-40030D01*
X61568Y-39959D01*
X62044Y-39483D02*
X62044Y-39769D01*
X62044Y-39626D02*
X61544Y-39626D01*
X61616Y-39674D01*
X61663Y-39721D01*
X61687Y-39769D01*
X61544Y-39055D02*
X61544Y-39150D01*
X61568Y-39198D01*
X61592Y-39221D01*
X61663Y-39269D01*
X61759Y-39293D01*
X61949Y-39293D01*
X61997Y-39269D01*
X62021Y-39245D01*
X62044Y-39198D01*
X62044Y-39102D01*
X62021Y-39055D01*
X61997Y-39031D01*
X61949Y-39007D01*
X61830Y-39007D01*
X61782Y-39031D01*
X61759Y-39055D01*
X61735Y-39102D01*
X61735Y-39198D01*
X61759Y-39245D01*
X61782Y-39269D01*
X61830Y-39293D01*
G54D12*
X55027Y-30623D02*
X55427Y-31223D01*
X55427Y-30623D02*
X55027Y-31223D01*
X55969Y-31223D02*
X55626Y-31223D01*
X55798Y-31223D02*
X55798Y-30623D01*
X55741Y-30709D01*
X55683Y-30766D01*
X55626Y-30794D01*
X54498Y-34223D02*
X54155Y-34223D01*
X54327Y-34223D02*
X54327Y-33623D01*
X54270Y-33709D01*
X54212Y-33766D01*
X54155Y-33794D01*
X54726Y-33680D02*
X54755Y-33651D01*
X54812Y-33623D01*
X54955Y-33623D01*
X55012Y-33651D01*
X55041Y-33680D01*
X55069Y-33737D01*
X55069Y-33794D01*
X55041Y-33880D01*
X54698Y-34223D01*
X55069Y-34223D01*
X55326Y-34223D02*
X55326Y-33623D01*
X55526Y-34051D01*
X55726Y-33623D01*
X55726Y-34223D01*
X56012Y-34223D02*
X56012Y-33623D01*
X56012Y-33909D02*
X56355Y-33909D01*
X56355Y-34223D02*
X56355Y-33623D01*
X56584Y-33823D02*
X56898Y-33823D01*
X56584Y-34223D01*
X56898Y-34223D01*
G54D16*
X59351Y-37293D02*
X59351Y-36893D01*
X59504Y-36893D01*
X59542Y-36912D01*
X59561Y-36931D01*
X59580Y-36969D01*
X59580Y-37026D01*
X59561Y-37064D01*
X59542Y-37083D01*
X59504Y-37102D01*
X59351Y-37102D01*
X59732Y-36931D02*
X59751Y-36912D01*
X59789Y-36893D01*
X59885Y-36893D01*
X59923Y-36912D01*
X59942Y-36931D01*
X59961Y-36969D01*
X59961Y-37007D01*
X59942Y-37064D01*
X59713Y-37293D01*
X59961Y-37293D01*
G54D18*
X58227Y-34255D02*
X58208Y-34274D01*
X58151Y-34293D01*
X58113Y-34293D01*
X58055Y-34274D01*
X58017Y-34236D01*
X57998Y-34198D01*
X57979Y-34121D01*
X57979Y-34064D01*
X57998Y-33988D01*
X58017Y-33950D01*
X58055Y-33912D01*
X58113Y-33893D01*
X58151Y-33893D01*
X58208Y-33912D01*
X58227Y-33931D01*
X58474Y-33893D02*
X58551Y-33893D01*
X58589Y-33912D01*
X58627Y-33950D01*
X58646Y-34026D01*
X58646Y-34160D01*
X58627Y-34236D01*
X58589Y-34274D01*
X58551Y-34293D01*
X58474Y-34293D01*
X58436Y-34274D01*
X58398Y-34236D01*
X58379Y-34160D01*
X58379Y-34026D01*
X58398Y-33950D01*
X58436Y-33912D01*
X58474Y-33893D01*
X58817Y-34293D02*
X58817Y-33893D01*
X59046Y-34293D01*
X59046Y-33893D01*
X59236Y-34293D02*
X59236Y-33893D01*
X59465Y-34293D01*
X59465Y-33893D01*
X59560Y-34331D02*
X59865Y-34331D01*
X59941Y-33931D02*
X59960Y-33912D01*
X59998Y-33893D01*
X60094Y-33893D01*
X60132Y-33912D01*
X60151Y-33931D01*
X60170Y-33969D01*
X60170Y-34007D01*
X60151Y-34064D01*
X59922Y-34293D01*
X60170Y-34293D01*
X60417Y-33893D02*
X60456Y-33893D01*
X60494Y-33912D01*
X60513Y-33931D01*
X60532Y-33969D01*
X60551Y-34045D01*
X60551Y-34141D01*
X60532Y-34217D01*
X60513Y-34255D01*
X60494Y-34274D01*
X60456Y-34293D01*
X60417Y-34293D01*
X60379Y-34274D01*
X60360Y-34255D01*
X60341Y-34217D01*
X60322Y-34141D01*
X60322Y-34045D01*
X60341Y-33969D01*
X60360Y-33931D01*
X60379Y-33912D01*
X60417Y-33893D01*
X60684Y-33893D02*
X60951Y-34293D01*
X60951Y-33893D02*
X60684Y-34293D01*
X61084Y-33931D02*
X61103Y-33912D01*
X61141Y-33893D01*
X61237Y-33893D01*
X61275Y-33912D01*
X61294Y-33931D01*
X61313Y-33969D01*
X61313Y-34007D01*
X61294Y-34064D01*
X61065Y-34293D01*
X61313Y-34293D01*
G54D16*
X59351Y-24300D02*
X59351Y-23900D01*
X59504Y-23900D01*
X59542Y-23919D01*
X59561Y-23938D01*
X59580Y-23976D01*
X59580Y-24033D01*
X59561Y-24071D01*
X59542Y-24090D01*
X59504Y-24109D01*
X59351Y-24109D01*
X59961Y-24300D02*
X59732Y-24300D01*
X59846Y-24300D02*
X59846Y-23900D01*
X59808Y-23957D01*
X59770Y-23995D01*
X59732Y-24014D01*
G54D18*
X58227Y-21262D02*
X58208Y-21281D01*
X58151Y-21300D01*
X58113Y-21300D01*
X58055Y-21281D01*
X58017Y-21243D01*
X57998Y-21205D01*
X57979Y-21128D01*
X57979Y-21071D01*
X57998Y-20995D01*
X58017Y-20957D01*
X58055Y-20919D01*
X58113Y-20900D01*
X58151Y-20900D01*
X58208Y-20919D01*
X58227Y-20938D01*
X58474Y-20900D02*
X58551Y-20900D01*
X58589Y-20919D01*
X58627Y-20957D01*
X58646Y-21033D01*
X58646Y-21167D01*
X58627Y-21243D01*
X58589Y-21281D01*
X58551Y-21300D01*
X58474Y-21300D01*
X58436Y-21281D01*
X58398Y-21243D01*
X58379Y-21167D01*
X58379Y-21033D01*
X58398Y-20957D01*
X58436Y-20919D01*
X58474Y-20900D01*
X58817Y-21300D02*
X58817Y-20900D01*
X59046Y-21300D01*
X59046Y-20900D01*
X59236Y-21300D02*
X59236Y-20900D01*
X59465Y-21300D01*
X59465Y-20900D01*
X59560Y-21338D02*
X59865Y-21338D01*
X59941Y-20938D02*
X59960Y-20919D01*
X59998Y-20900D01*
X60094Y-20900D01*
X60132Y-20919D01*
X60151Y-20938D01*
X60170Y-20976D01*
X60170Y-21014D01*
X60151Y-21071D01*
X59922Y-21300D01*
X60170Y-21300D01*
X60417Y-20900D02*
X60456Y-20900D01*
X60494Y-20919D01*
X60513Y-20938D01*
X60532Y-20976D01*
X60551Y-21052D01*
X60551Y-21148D01*
X60532Y-21224D01*
X60513Y-21262D01*
X60494Y-21281D01*
X60456Y-21300D01*
X60417Y-21300D01*
X60379Y-21281D01*
X60360Y-21262D01*
X60341Y-21224D01*
X60322Y-21148D01*
X60322Y-21052D01*
X60341Y-20976D01*
X60360Y-20938D01*
X60379Y-20919D01*
X60417Y-20900D01*
X60684Y-20900D02*
X60951Y-21300D01*
X60951Y-20900D02*
X60684Y-21300D01*
X61084Y-20938D02*
X61103Y-20919D01*
X61141Y-20900D01*
X61237Y-20900D01*
X61275Y-20919D01*
X61294Y-20938D01*
X61313Y-20976D01*
X61313Y-21014D01*
X61294Y-21071D01*
X61065Y-21300D01*
X61313Y-21300D01*
G54D13*
X80360Y-26207D02*
X80260Y-26065D01*
X80188Y-26207D02*
X80188Y-25907D01*
X80303Y-25907D01*
X80331Y-25922D01*
X80346Y-25936D01*
X80360Y-25965D01*
X80360Y-26007D01*
X80346Y-26036D01*
X80331Y-26050D01*
X80303Y-26065D01*
X80188Y-26065D01*
X80460Y-25907D02*
X80646Y-25907D01*
X80546Y-26022D01*
X80588Y-26022D01*
X80617Y-26036D01*
X80631Y-26050D01*
X80646Y-26079D01*
X80646Y-26150D01*
X80631Y-26179D01*
X80617Y-26193D01*
X80588Y-26207D01*
X80503Y-26207D01*
X80474Y-26193D01*
X80460Y-26179D01*
X80903Y-26007D02*
X80903Y-26207D01*
X80832Y-25893D02*
X80760Y-26107D01*
X80946Y-26107D01*
X74504Y-27386D02*
X74404Y-27244D01*
X74332Y-27386D02*
X74332Y-27086D01*
X74447Y-27086D01*
X74475Y-27101D01*
X74490Y-27115D01*
X74504Y-27144D01*
X74504Y-27186D01*
X74490Y-27215D01*
X74475Y-27229D01*
X74447Y-27244D01*
X74332Y-27244D01*
X74604Y-27086D02*
X74790Y-27086D01*
X74690Y-27201D01*
X74732Y-27201D01*
X74761Y-27215D01*
X74775Y-27229D01*
X74790Y-27258D01*
X74790Y-27329D01*
X74775Y-27358D01*
X74761Y-27372D01*
X74732Y-27386D01*
X74647Y-27386D01*
X74618Y-27372D01*
X74604Y-27358D01*
X74890Y-27086D02*
X75076Y-27086D01*
X74976Y-27201D01*
X75018Y-27201D01*
X75047Y-27215D01*
X75061Y-27229D01*
X75076Y-27258D01*
X75076Y-27329D01*
X75061Y-27358D01*
X75047Y-27372D01*
X75018Y-27386D01*
X74933Y-27386D01*
X74904Y-27372D01*
X74890Y-27358D01*
X80360Y-27349D02*
X80260Y-27207D01*
X80188Y-27349D02*
X80188Y-27049D01*
X80303Y-27049D01*
X80331Y-27064D01*
X80346Y-27078D01*
X80360Y-27107D01*
X80360Y-27149D01*
X80346Y-27178D01*
X80331Y-27192D01*
X80303Y-27207D01*
X80188Y-27207D01*
X80460Y-27049D02*
X80646Y-27049D01*
X80546Y-27164D01*
X80588Y-27164D01*
X80617Y-27178D01*
X80631Y-27192D01*
X80646Y-27221D01*
X80646Y-27292D01*
X80631Y-27321D01*
X80617Y-27335D01*
X80588Y-27349D01*
X80503Y-27349D01*
X80474Y-27335D01*
X80460Y-27321D01*
X80917Y-27049D02*
X80774Y-27049D01*
X80760Y-27192D01*
X80774Y-27178D01*
X80803Y-27164D01*
X80874Y-27164D01*
X80903Y-27178D01*
X80917Y-27192D01*
X80932Y-27221D01*
X80932Y-27292D01*
X80917Y-27321D01*
X80903Y-27335D01*
X80874Y-27349D01*
X80803Y-27349D01*
X80774Y-27335D01*
X80760Y-27321D01*
X74597Y-31587D02*
X74497Y-31445D01*
X74425Y-31587D02*
X74425Y-31287D01*
X74540Y-31287D01*
X74568Y-31302D01*
X74583Y-31316D01*
X74597Y-31345D01*
X74597Y-31387D01*
X74583Y-31416D01*
X74568Y-31430D01*
X74540Y-31445D01*
X74425Y-31445D01*
X74697Y-31287D02*
X74883Y-31287D01*
X74783Y-31402D01*
X74825Y-31402D01*
X74854Y-31416D01*
X74868Y-31430D01*
X74883Y-31459D01*
X74883Y-31530D01*
X74868Y-31559D01*
X74854Y-31573D01*
X74825Y-31587D01*
X74740Y-31587D01*
X74711Y-31573D01*
X74697Y-31559D01*
X75169Y-31587D02*
X74997Y-31587D01*
X75083Y-31587D02*
X75083Y-31287D01*
X75054Y-31330D01*
X75026Y-31359D01*
X74997Y-31373D01*
X74597Y-30367D02*
X74497Y-30225D01*
X74425Y-30367D02*
X74425Y-30067D01*
X74540Y-30067D01*
X74568Y-30082D01*
X74583Y-30096D01*
X74597Y-30125D01*
X74597Y-30167D01*
X74583Y-30196D01*
X74568Y-30210D01*
X74540Y-30225D01*
X74425Y-30225D01*
X74697Y-30067D02*
X74883Y-30067D01*
X74783Y-30182D01*
X74825Y-30182D01*
X74854Y-30196D01*
X74868Y-30210D01*
X74883Y-30239D01*
X74883Y-30310D01*
X74868Y-30339D01*
X74854Y-30353D01*
X74825Y-30367D01*
X74740Y-30367D01*
X74711Y-30353D01*
X74697Y-30339D01*
X75069Y-30067D02*
X75097Y-30067D01*
X75126Y-30082D01*
X75140Y-30096D01*
X75154Y-30125D01*
X75169Y-30182D01*
X75169Y-30253D01*
X75154Y-30310D01*
X75140Y-30339D01*
X75126Y-30353D01*
X75097Y-30367D01*
X75069Y-30367D01*
X75040Y-30353D01*
X75026Y-30339D01*
X75011Y-30310D01*
X74997Y-30253D01*
X74997Y-30182D01*
X75011Y-30125D01*
X75026Y-30096D01*
X75040Y-30082D01*
X75069Y-30067D01*
X77392Y-30445D02*
X77292Y-30303D01*
X77220Y-30445D02*
X77220Y-30145D01*
X77335Y-30145D01*
X77363Y-30160D01*
X77378Y-30174D01*
X77392Y-30203D01*
X77392Y-30245D01*
X77378Y-30274D01*
X77363Y-30288D01*
X77335Y-30303D01*
X77220Y-30303D01*
X77492Y-30145D02*
X77678Y-30145D01*
X77578Y-30260D01*
X77620Y-30260D01*
X77649Y-30274D01*
X77663Y-30288D01*
X77678Y-30317D01*
X77678Y-30388D01*
X77663Y-30417D01*
X77649Y-30431D01*
X77620Y-30445D01*
X77535Y-30445D01*
X77506Y-30431D01*
X77492Y-30417D01*
X77935Y-30145D02*
X77878Y-30145D01*
X77849Y-30160D01*
X77835Y-30174D01*
X77806Y-30217D01*
X77792Y-30274D01*
X77792Y-30388D01*
X77806Y-30417D01*
X77821Y-30431D01*
X77849Y-30445D01*
X77906Y-30445D01*
X77935Y-30431D01*
X77949Y-30417D01*
X77964Y-30388D01*
X77964Y-30317D01*
X77949Y-30288D01*
X77935Y-30274D01*
X77906Y-30260D01*
X77849Y-30260D01*
X77821Y-30274D01*
X77806Y-30288D01*
X77792Y-30317D01*
X74504Y-26245D02*
X74404Y-26103D01*
X74332Y-26245D02*
X74332Y-25945D01*
X74447Y-25945D01*
X74475Y-25960D01*
X74490Y-25974D01*
X74504Y-26003D01*
X74504Y-26045D01*
X74490Y-26074D01*
X74475Y-26088D01*
X74447Y-26103D01*
X74332Y-26103D01*
X74604Y-25945D02*
X74790Y-25945D01*
X74690Y-26060D01*
X74732Y-26060D01*
X74761Y-26074D01*
X74775Y-26088D01*
X74790Y-26117D01*
X74790Y-26188D01*
X74775Y-26217D01*
X74761Y-26231D01*
X74732Y-26245D01*
X74647Y-26245D01*
X74618Y-26231D01*
X74604Y-26217D01*
X74904Y-25974D02*
X74918Y-25960D01*
X74947Y-25945D01*
X75018Y-25945D01*
X75047Y-25960D01*
X75061Y-25974D01*
X75076Y-26003D01*
X75076Y-26031D01*
X75061Y-26074D01*
X74890Y-26245D01*
X75076Y-26245D01*
X77471Y-26246D02*
X77371Y-26104D01*
X77299Y-26246D02*
X77299Y-25946D01*
X77414Y-25946D01*
X77442Y-25961D01*
X77457Y-25975D01*
X77471Y-26004D01*
X77471Y-26046D01*
X77457Y-26075D01*
X77442Y-26089D01*
X77414Y-26104D01*
X77299Y-26104D01*
X77585Y-25975D02*
X77599Y-25961D01*
X77628Y-25946D01*
X77699Y-25946D01*
X77728Y-25961D01*
X77742Y-25975D01*
X77757Y-26004D01*
X77757Y-26032D01*
X77742Y-26075D01*
X77571Y-26246D01*
X77757Y-26246D01*
X77928Y-26075D02*
X77900Y-26061D01*
X77885Y-26046D01*
X77871Y-26018D01*
X77871Y-26004D01*
X77885Y-25975D01*
X77900Y-25961D01*
X77928Y-25946D01*
X77985Y-25946D01*
X78014Y-25961D01*
X78028Y-25975D01*
X78043Y-26004D01*
X78043Y-26018D01*
X78028Y-26046D01*
X78014Y-26061D01*
X77985Y-26075D01*
X77928Y-26075D01*
X77900Y-26089D01*
X77885Y-26104D01*
X77871Y-26132D01*
X77871Y-26189D01*
X77885Y-26218D01*
X77900Y-26232D01*
X77928Y-26246D01*
X77985Y-26246D01*
X78014Y-26232D01*
X78028Y-26218D01*
X78043Y-26189D01*
X78043Y-26132D01*
X78028Y-26104D01*
X78014Y-26089D01*
X77985Y-26075D01*
X77471Y-27427D02*
X77371Y-27285D01*
X77299Y-27427D02*
X77299Y-27127D01*
X77414Y-27127D01*
X77442Y-27142D01*
X77457Y-27156D01*
X77471Y-27185D01*
X77471Y-27227D01*
X77457Y-27256D01*
X77442Y-27270D01*
X77414Y-27285D01*
X77299Y-27285D01*
X77585Y-27156D02*
X77599Y-27142D01*
X77628Y-27127D01*
X77699Y-27127D01*
X77728Y-27142D01*
X77742Y-27156D01*
X77757Y-27185D01*
X77757Y-27213D01*
X77742Y-27256D01*
X77571Y-27427D01*
X77757Y-27427D01*
X77900Y-27427D02*
X77957Y-27427D01*
X77985Y-27413D01*
X78000Y-27399D01*
X78028Y-27356D01*
X78043Y-27299D01*
X78043Y-27185D01*
X78028Y-27156D01*
X78014Y-27142D01*
X77985Y-27127D01*
X77928Y-27127D01*
X77900Y-27142D01*
X77885Y-27156D01*
X77871Y-27185D01*
X77871Y-27256D01*
X77885Y-27285D01*
X77900Y-27299D01*
X77928Y-27313D01*
X77985Y-27313D01*
X78014Y-27299D01*
X78028Y-27285D01*
X78043Y-27256D01*
X80263Y-22257D02*
X80163Y-22115D01*
X80091Y-22257D02*
X80091Y-21957D01*
X80206Y-21957D01*
X80234Y-21972D01*
X80249Y-21986D01*
X80263Y-22015D01*
X80263Y-22057D01*
X80249Y-22086D01*
X80234Y-22100D01*
X80206Y-22115D01*
X80091Y-22115D01*
X80377Y-21986D02*
X80391Y-21972D01*
X80420Y-21957D01*
X80491Y-21957D01*
X80520Y-21972D01*
X80534Y-21986D01*
X80549Y-22015D01*
X80549Y-22043D01*
X80534Y-22086D01*
X80363Y-22257D01*
X80549Y-22257D01*
X80806Y-21957D02*
X80749Y-21957D01*
X80720Y-21972D01*
X80706Y-21986D01*
X80677Y-22029D01*
X80663Y-22086D01*
X80663Y-22200D01*
X80677Y-22229D01*
X80692Y-22243D01*
X80720Y-22257D01*
X80777Y-22257D01*
X80806Y-22243D01*
X80820Y-22229D01*
X80835Y-22200D01*
X80835Y-22129D01*
X80820Y-22100D01*
X80806Y-22086D01*
X80777Y-22072D01*
X80720Y-22072D01*
X80692Y-22086D01*
X80677Y-22100D01*
X80663Y-22129D01*
X80337Y-40060D02*
X80237Y-39918D01*
X80165Y-40060D02*
X80165Y-39760D01*
X80280Y-39760D01*
X80308Y-39775D01*
X80323Y-39789D01*
X80337Y-39818D01*
X80337Y-39860D01*
X80323Y-39889D01*
X80308Y-39903D01*
X80280Y-39918D01*
X80165Y-39918D01*
X80451Y-39789D02*
X80465Y-39775D01*
X80494Y-39760D01*
X80565Y-39760D01*
X80594Y-39775D01*
X80608Y-39789D01*
X80623Y-39818D01*
X80623Y-39846D01*
X80608Y-39889D01*
X80437Y-40060D01*
X80623Y-40060D01*
X80894Y-39760D02*
X80751Y-39760D01*
X80737Y-39903D01*
X80751Y-39889D01*
X80780Y-39875D01*
X80851Y-39875D01*
X80880Y-39889D01*
X80894Y-39903D01*
X80909Y-39932D01*
X80909Y-40003D01*
X80894Y-40032D01*
X80880Y-40046D01*
X80851Y-40060D01*
X80780Y-40060D01*
X80751Y-40046D01*
X80737Y-40032D01*
X80376Y-38879D02*
X80276Y-38737D01*
X80204Y-38879D02*
X80204Y-38579D01*
X80319Y-38579D01*
X80347Y-38594D01*
X80362Y-38608D01*
X80376Y-38637D01*
X80376Y-38679D01*
X80362Y-38708D01*
X80347Y-38722D01*
X80319Y-38737D01*
X80204Y-38737D01*
X80490Y-38608D02*
X80504Y-38594D01*
X80533Y-38579D01*
X80604Y-38579D01*
X80633Y-38594D01*
X80647Y-38608D01*
X80662Y-38637D01*
X80662Y-38665D01*
X80647Y-38708D01*
X80476Y-38879D01*
X80662Y-38879D01*
X80919Y-38679D02*
X80919Y-38879D01*
X80848Y-38565D02*
X80776Y-38779D01*
X80962Y-38779D01*
X77578Y-40099D02*
X77478Y-39957D01*
X77406Y-40099D02*
X77406Y-39799D01*
X77521Y-39799D01*
X77549Y-39814D01*
X77564Y-39828D01*
X77578Y-39857D01*
X77578Y-39899D01*
X77564Y-39928D01*
X77549Y-39942D01*
X77521Y-39957D01*
X77406Y-39957D01*
X77692Y-39828D02*
X77706Y-39814D01*
X77735Y-39799D01*
X77806Y-39799D01*
X77835Y-39814D01*
X77849Y-39828D01*
X77864Y-39857D01*
X77864Y-39885D01*
X77849Y-39928D01*
X77678Y-40099D01*
X77864Y-40099D01*
X77964Y-39799D02*
X78150Y-39799D01*
X78050Y-39914D01*
X78092Y-39914D01*
X78121Y-39928D01*
X78135Y-39942D01*
X78150Y-39971D01*
X78150Y-40042D01*
X78135Y-40071D01*
X78121Y-40085D01*
X78092Y-40099D01*
X78007Y-40099D01*
X77978Y-40085D01*
X77964Y-40071D01*
X77539Y-38918D02*
X77439Y-38776D01*
X77367Y-38918D02*
X77367Y-38618D01*
X77482Y-38618D01*
X77510Y-38633D01*
X77525Y-38647D01*
X77539Y-38676D01*
X77539Y-38718D01*
X77525Y-38747D01*
X77510Y-38761D01*
X77482Y-38776D01*
X77367Y-38776D01*
X77653Y-38647D02*
X77667Y-38633D01*
X77696Y-38618D01*
X77767Y-38618D01*
X77796Y-38633D01*
X77810Y-38647D01*
X77825Y-38676D01*
X77825Y-38704D01*
X77810Y-38747D01*
X77639Y-38918D01*
X77825Y-38918D01*
X77939Y-38647D02*
X77953Y-38633D01*
X77982Y-38618D01*
X78053Y-38618D01*
X78082Y-38633D01*
X78096Y-38647D01*
X78111Y-38676D01*
X78111Y-38704D01*
X78096Y-38747D01*
X77925Y-38918D01*
X78111Y-38918D01*
X80263Y-23439D02*
X80163Y-23297D01*
X80091Y-23439D02*
X80091Y-23139D01*
X80206Y-23139D01*
X80234Y-23154D01*
X80249Y-23168D01*
X80263Y-23197D01*
X80263Y-23239D01*
X80249Y-23268D01*
X80234Y-23282D01*
X80206Y-23297D01*
X80091Y-23297D01*
X80377Y-23168D02*
X80391Y-23154D01*
X80420Y-23139D01*
X80491Y-23139D01*
X80520Y-23154D01*
X80534Y-23168D01*
X80549Y-23197D01*
X80549Y-23225D01*
X80534Y-23268D01*
X80363Y-23439D01*
X80549Y-23439D01*
X80649Y-23139D02*
X80849Y-23139D01*
X80720Y-23439D01*
X74703Y-38879D02*
X74603Y-38737D01*
X74531Y-38879D02*
X74531Y-38579D01*
X74646Y-38579D01*
X74674Y-38594D01*
X74689Y-38608D01*
X74703Y-38637D01*
X74703Y-38679D01*
X74689Y-38708D01*
X74674Y-38722D01*
X74646Y-38737D01*
X74531Y-38737D01*
X74817Y-38608D02*
X74831Y-38594D01*
X74860Y-38579D01*
X74931Y-38579D01*
X74960Y-38594D01*
X74974Y-38608D01*
X74989Y-38637D01*
X74989Y-38665D01*
X74974Y-38708D01*
X74803Y-38879D01*
X74989Y-38879D01*
X75175Y-38579D02*
X75203Y-38579D01*
X75232Y-38594D01*
X75246Y-38608D01*
X75260Y-38637D01*
X75275Y-38694D01*
X75275Y-38765D01*
X75260Y-38822D01*
X75246Y-38851D01*
X75232Y-38865D01*
X75203Y-38879D01*
X75175Y-38879D01*
X75146Y-38865D01*
X75132Y-38851D01*
X75117Y-38822D01*
X75103Y-38765D01*
X75103Y-38694D01*
X75117Y-38637D01*
X75132Y-38608D01*
X75146Y-38594D01*
X75175Y-38579D01*
X74835Y-44467D02*
X74735Y-44325D01*
X74663Y-44467D02*
X74663Y-44167D01*
X74778Y-44167D01*
X74806Y-44182D01*
X74821Y-44196D01*
X74835Y-44225D01*
X74835Y-44267D01*
X74821Y-44296D01*
X74806Y-44310D01*
X74778Y-44325D01*
X74663Y-44325D01*
X75121Y-44467D02*
X74949Y-44467D01*
X75035Y-44467D02*
X75035Y-44167D01*
X75006Y-44210D01*
X74978Y-44239D01*
X74949Y-44253D01*
X75264Y-44467D02*
X75321Y-44467D01*
X75349Y-44453D01*
X75364Y-44439D01*
X75392Y-44396D01*
X75407Y-44339D01*
X75407Y-44225D01*
X75392Y-44196D01*
X75378Y-44182D01*
X75349Y-44167D01*
X75292Y-44167D01*
X75264Y-44182D01*
X75249Y-44196D01*
X75235Y-44225D01*
X75235Y-44296D01*
X75249Y-44325D01*
X75264Y-44339D01*
X75292Y-44353D01*
X75349Y-44353D01*
X75378Y-44339D01*
X75392Y-44325D01*
X75407Y-44296D01*
X74835Y-43365D02*
X74735Y-43223D01*
X74663Y-43365D02*
X74663Y-43065D01*
X74778Y-43065D01*
X74806Y-43080D01*
X74821Y-43094D01*
X74835Y-43123D01*
X74835Y-43165D01*
X74821Y-43194D01*
X74806Y-43208D01*
X74778Y-43223D01*
X74663Y-43223D01*
X75121Y-43365D02*
X74949Y-43365D01*
X75035Y-43365D02*
X75035Y-43065D01*
X75006Y-43108D01*
X74978Y-43137D01*
X74949Y-43151D01*
X75292Y-43194D02*
X75264Y-43180D01*
X75249Y-43165D01*
X75235Y-43137D01*
X75235Y-43123D01*
X75249Y-43094D01*
X75264Y-43080D01*
X75292Y-43065D01*
X75349Y-43065D01*
X75378Y-43080D01*
X75392Y-43094D01*
X75407Y-43123D01*
X75407Y-43137D01*
X75392Y-43165D01*
X75378Y-43180D01*
X75349Y-43194D01*
X75292Y-43194D01*
X75264Y-43208D01*
X75249Y-43223D01*
X75235Y-43251D01*
X75235Y-43308D01*
X75249Y-43337D01*
X75264Y-43351D01*
X75292Y-43365D01*
X75349Y-43365D01*
X75378Y-43351D01*
X75392Y-43337D01*
X75407Y-43308D01*
X75407Y-43251D01*
X75392Y-43223D01*
X75378Y-43208D01*
X75349Y-43194D01*
X77392Y-31587D02*
X77292Y-31445D01*
X77220Y-31587D02*
X77220Y-31287D01*
X77335Y-31287D01*
X77363Y-31302D01*
X77378Y-31316D01*
X77392Y-31345D01*
X77392Y-31387D01*
X77378Y-31416D01*
X77363Y-31430D01*
X77335Y-31445D01*
X77220Y-31445D01*
X77492Y-31287D02*
X77678Y-31287D01*
X77578Y-31402D01*
X77620Y-31402D01*
X77649Y-31416D01*
X77663Y-31430D01*
X77678Y-31459D01*
X77678Y-31530D01*
X77663Y-31559D01*
X77649Y-31573D01*
X77620Y-31587D01*
X77535Y-31587D01*
X77506Y-31573D01*
X77492Y-31559D01*
X77778Y-31287D02*
X77978Y-31287D01*
X77849Y-31587D01*
X77501Y-43325D02*
X77401Y-43183D01*
X77329Y-43325D02*
X77329Y-43025D01*
X77444Y-43025D01*
X77472Y-43040D01*
X77487Y-43054D01*
X77501Y-43083D01*
X77501Y-43125D01*
X77487Y-43154D01*
X77472Y-43168D01*
X77444Y-43183D01*
X77329Y-43183D01*
X77787Y-43325D02*
X77615Y-43325D01*
X77701Y-43325D02*
X77701Y-43025D01*
X77672Y-43068D01*
X77644Y-43097D01*
X77615Y-43111D01*
X78044Y-43025D02*
X77987Y-43025D01*
X77958Y-43040D01*
X77944Y-43054D01*
X77915Y-43097D01*
X77901Y-43154D01*
X77901Y-43268D01*
X77915Y-43297D01*
X77930Y-43311D01*
X77958Y-43325D01*
X78015Y-43325D01*
X78044Y-43311D01*
X78058Y-43297D01*
X78073Y-43268D01*
X78073Y-43197D01*
X78058Y-43168D01*
X78044Y-43154D01*
X78015Y-43140D01*
X77958Y-43140D01*
X77930Y-43154D01*
X77915Y-43168D01*
X77901Y-43197D01*
X80302Y-35727D02*
X80202Y-35585D01*
X80130Y-35727D02*
X80130Y-35427D01*
X80245Y-35427D01*
X80273Y-35442D01*
X80288Y-35456D01*
X80302Y-35485D01*
X80302Y-35527D01*
X80288Y-35556D01*
X80273Y-35570D01*
X80245Y-35585D01*
X80130Y-35585D01*
X80588Y-35727D02*
X80416Y-35727D01*
X80502Y-35727D02*
X80502Y-35427D01*
X80473Y-35470D01*
X80445Y-35499D01*
X80416Y-35513D01*
X80859Y-35427D02*
X80716Y-35427D01*
X80702Y-35570D01*
X80716Y-35556D01*
X80745Y-35542D01*
X80816Y-35542D01*
X80845Y-35556D01*
X80859Y-35570D01*
X80874Y-35599D01*
X80874Y-35670D01*
X80859Y-35699D01*
X80845Y-35713D01*
X80816Y-35727D01*
X80745Y-35727D01*
X80716Y-35713D01*
X80702Y-35699D01*
X80302Y-34585D02*
X80202Y-34443D01*
X80130Y-34585D02*
X80130Y-34285D01*
X80245Y-34285D01*
X80273Y-34300D01*
X80288Y-34314D01*
X80302Y-34343D01*
X80302Y-34385D01*
X80288Y-34414D01*
X80273Y-34428D01*
X80245Y-34443D01*
X80130Y-34443D01*
X80588Y-34585D02*
X80416Y-34585D01*
X80502Y-34585D02*
X80502Y-34285D01*
X80473Y-34328D01*
X80445Y-34357D01*
X80416Y-34371D01*
X80845Y-34385D02*
X80845Y-34585D01*
X80774Y-34271D02*
X80702Y-34485D01*
X80888Y-34485D01*
X80284Y-44467D02*
X80184Y-44325D01*
X80112Y-44467D02*
X80112Y-44167D01*
X80227Y-44167D01*
X80255Y-44182D01*
X80270Y-44196D01*
X80284Y-44225D01*
X80284Y-44267D01*
X80270Y-44296D01*
X80255Y-44310D01*
X80227Y-44325D01*
X80112Y-44325D01*
X80570Y-44467D02*
X80398Y-44467D01*
X80484Y-44467D02*
X80484Y-44167D01*
X80455Y-44210D01*
X80427Y-44239D01*
X80398Y-44253D01*
X80670Y-44167D02*
X80856Y-44167D01*
X80756Y-44282D01*
X80798Y-44282D01*
X80827Y-44296D01*
X80841Y-44310D01*
X80856Y-44339D01*
X80856Y-44410D01*
X80841Y-44439D01*
X80827Y-44453D01*
X80798Y-44467D01*
X80713Y-44467D01*
X80684Y-44453D01*
X80670Y-44439D01*
X80284Y-43325D02*
X80184Y-43183D01*
X80112Y-43325D02*
X80112Y-43025D01*
X80227Y-43025D01*
X80255Y-43040D01*
X80270Y-43054D01*
X80284Y-43083D01*
X80284Y-43125D01*
X80270Y-43154D01*
X80255Y-43168D01*
X80227Y-43183D01*
X80112Y-43183D01*
X80570Y-43325D02*
X80398Y-43325D01*
X80484Y-43325D02*
X80484Y-43025D01*
X80455Y-43068D01*
X80427Y-43097D01*
X80398Y-43111D01*
X80684Y-43054D02*
X80698Y-43040D01*
X80727Y-43025D01*
X80798Y-43025D01*
X80827Y-43040D01*
X80841Y-43054D01*
X80856Y-43083D01*
X80856Y-43111D01*
X80841Y-43154D01*
X80670Y-43325D01*
X80856Y-43325D01*
X77466Y-35806D02*
X77366Y-35664D01*
X77294Y-35806D02*
X77294Y-35506D01*
X77409Y-35506D01*
X77437Y-35521D01*
X77452Y-35535D01*
X77466Y-35564D01*
X77466Y-35606D01*
X77452Y-35635D01*
X77437Y-35649D01*
X77409Y-35664D01*
X77294Y-35664D01*
X77752Y-35806D02*
X77580Y-35806D01*
X77666Y-35806D02*
X77666Y-35506D01*
X77637Y-35549D01*
X77609Y-35578D01*
X77580Y-35592D01*
X78038Y-35806D02*
X77866Y-35806D01*
X77952Y-35806D02*
X77952Y-35506D01*
X77923Y-35549D01*
X77895Y-35578D01*
X77866Y-35592D01*
X77466Y-34664D02*
X77366Y-34522D01*
X77294Y-34664D02*
X77294Y-34364D01*
X77409Y-34364D01*
X77437Y-34379D01*
X77452Y-34393D01*
X77466Y-34422D01*
X77466Y-34464D01*
X77452Y-34493D01*
X77437Y-34507D01*
X77409Y-34522D01*
X77294Y-34522D01*
X77752Y-34664D02*
X77580Y-34664D01*
X77666Y-34664D02*
X77666Y-34364D01*
X77637Y-34407D01*
X77609Y-34436D01*
X77580Y-34450D01*
X77938Y-34364D02*
X77966Y-34364D01*
X77995Y-34379D01*
X78009Y-34393D01*
X78023Y-34422D01*
X78038Y-34479D01*
X78038Y-34550D01*
X78023Y-34607D01*
X78009Y-34636D01*
X77995Y-34650D01*
X77966Y-34664D01*
X77938Y-34664D01*
X77909Y-34650D01*
X77895Y-34636D01*
X77880Y-34607D01*
X77866Y-34550D01*
X77866Y-34479D01*
X77880Y-34422D01*
X77895Y-34393D01*
X77909Y-34379D01*
X77938Y-34364D01*
X54084Y-45790D02*
X53984Y-45648D01*
X53912Y-45790D02*
X53912Y-45490D01*
X54027Y-45490D01*
X54055Y-45505D01*
X54070Y-45519D01*
X54084Y-45548D01*
X54084Y-45590D01*
X54070Y-45619D01*
X54055Y-45633D01*
X54027Y-45648D01*
X53912Y-45648D01*
X54227Y-45790D02*
X54284Y-45790D01*
X54312Y-45776D01*
X54327Y-45762D01*
X54355Y-45719D01*
X54370Y-45662D01*
X54370Y-45548D01*
X54355Y-45519D01*
X54341Y-45505D01*
X54312Y-45490D01*
X54255Y-45490D01*
X54227Y-45505D01*
X54212Y-45519D01*
X54198Y-45548D01*
X54198Y-45619D01*
X54212Y-45648D01*
X54227Y-45662D01*
X54255Y-45676D01*
X54312Y-45676D01*
X54341Y-45662D01*
X54355Y-45648D01*
X54370Y-45619D01*
X52286Y-45129D02*
X52144Y-45229D01*
X52286Y-45301D02*
X51986Y-45301D01*
X51986Y-45186D01*
X52001Y-45158D01*
X52015Y-45143D01*
X52044Y-45129D01*
X52086Y-45129D01*
X52115Y-45143D01*
X52129Y-45158D01*
X52144Y-45186D01*
X52144Y-45301D01*
X52115Y-44958D02*
X52101Y-44986D01*
X52086Y-45001D01*
X52058Y-45015D01*
X52044Y-45015D01*
X52015Y-45001D01*
X52001Y-44986D01*
X51986Y-44958D01*
X51986Y-44901D01*
X52001Y-44872D01*
X52015Y-44858D01*
X52044Y-44843D01*
X52058Y-44843D01*
X52086Y-44858D01*
X52101Y-44872D01*
X52115Y-44901D01*
X52115Y-44958D01*
X52129Y-44986D01*
X52144Y-45001D01*
X52172Y-45015D01*
X52229Y-45015D01*
X52258Y-45001D01*
X52272Y-44986D01*
X52286Y-44958D01*
X52286Y-44901D01*
X52272Y-44872D01*
X52258Y-44858D01*
X52229Y-44843D01*
X52172Y-44843D01*
X52144Y-44858D01*
X52129Y-44872D01*
X52115Y-44901D01*
X74629Y-34665D02*
X74529Y-34523D01*
X74457Y-34665D02*
X74457Y-34365D01*
X74572Y-34365D01*
X74600Y-34380D01*
X74615Y-34394D01*
X74629Y-34423D01*
X74629Y-34465D01*
X74615Y-34494D01*
X74600Y-34508D01*
X74572Y-34523D01*
X74457Y-34523D01*
X74729Y-34365D02*
X74915Y-34365D01*
X74815Y-34480D01*
X74857Y-34480D01*
X74886Y-34494D01*
X74900Y-34508D01*
X74915Y-34537D01*
X74915Y-34608D01*
X74900Y-34637D01*
X74886Y-34651D01*
X74857Y-34665D01*
X74772Y-34665D01*
X74743Y-34651D01*
X74729Y-34637D01*
X75086Y-34494D02*
X75058Y-34480D01*
X75043Y-34465D01*
X75029Y-34437D01*
X75029Y-34423D01*
X75043Y-34394D01*
X75058Y-34380D01*
X75086Y-34365D01*
X75143Y-34365D01*
X75172Y-34380D01*
X75186Y-34394D01*
X75201Y-34423D01*
X75201Y-34437D01*
X75186Y-34465D01*
X75172Y-34480D01*
X75143Y-34494D01*
X75086Y-34494D01*
X75058Y-34508D01*
X75043Y-34523D01*
X75029Y-34551D01*
X75029Y-34608D01*
X75043Y-34637D01*
X75058Y-34651D01*
X75086Y-34665D01*
X75143Y-34665D01*
X75172Y-34651D01*
X75186Y-34637D01*
X75201Y-34608D01*
X75201Y-34551D01*
X75186Y-34523D01*
X75172Y-34508D01*
X75143Y-34494D01*
X51105Y-45129D02*
X50963Y-45229D01*
X51105Y-45301D02*
X50805Y-45301D01*
X50805Y-45186D01*
X50820Y-45158D01*
X50834Y-45143D01*
X50863Y-45129D01*
X50905Y-45129D01*
X50934Y-45143D01*
X50948Y-45158D01*
X50963Y-45186D01*
X50963Y-45301D01*
X50805Y-44872D02*
X50805Y-44929D01*
X50820Y-44958D01*
X50834Y-44972D01*
X50877Y-45001D01*
X50934Y-45015D01*
X51048Y-45015D01*
X51077Y-45001D01*
X51091Y-44986D01*
X51105Y-44958D01*
X51105Y-44901D01*
X51091Y-44872D01*
X51077Y-44858D01*
X51048Y-44843D01*
X50977Y-44843D01*
X50948Y-44858D01*
X50934Y-44872D01*
X50920Y-44901D01*
X50920Y-44958D01*
X50934Y-44986D01*
X50948Y-45001D01*
X50977Y-45015D01*
X50712Y-25837D02*
X50570Y-25937D01*
X50712Y-26009D02*
X50412Y-26009D01*
X50412Y-25894D01*
X50427Y-25866D01*
X50441Y-25851D01*
X50470Y-25837D01*
X50512Y-25837D01*
X50541Y-25851D01*
X50555Y-25866D01*
X50570Y-25894D01*
X50570Y-26009D01*
X50412Y-25566D02*
X50412Y-25709D01*
X50555Y-25723D01*
X50541Y-25709D01*
X50527Y-25680D01*
X50527Y-25609D01*
X50541Y-25580D01*
X50555Y-25566D01*
X50584Y-25551D01*
X50655Y-25551D01*
X50684Y-25566D01*
X50698Y-25580D01*
X50712Y-25609D01*
X50712Y-25680D01*
X50698Y-25709D01*
X50684Y-25723D01*
X52509Y-25121D02*
X52409Y-24979D01*
X52337Y-25121D02*
X52337Y-24821D01*
X52452Y-24821D01*
X52480Y-24836D01*
X52495Y-24850D01*
X52509Y-24879D01*
X52509Y-24921D01*
X52495Y-24950D01*
X52480Y-24964D01*
X52452Y-24979D01*
X52337Y-24979D01*
X52766Y-24921D02*
X52766Y-25121D01*
X52695Y-24807D02*
X52623Y-25021D01*
X52809Y-25021D01*
X52509Y-26499D02*
X52409Y-26357D01*
X52337Y-26499D02*
X52337Y-26199D01*
X52452Y-26199D01*
X52480Y-26214D01*
X52495Y-26228D01*
X52509Y-26257D01*
X52509Y-26299D01*
X52495Y-26328D01*
X52480Y-26342D01*
X52452Y-26357D01*
X52337Y-26357D01*
X52609Y-26199D02*
X52795Y-26199D01*
X52695Y-26314D01*
X52737Y-26314D01*
X52766Y-26328D01*
X52780Y-26342D01*
X52795Y-26371D01*
X52795Y-26442D01*
X52780Y-26471D01*
X52766Y-26485D01*
X52737Y-26499D01*
X52652Y-26499D01*
X52623Y-26485D01*
X52609Y-26471D01*
X59202Y-30830D02*
X59102Y-30688D01*
X59030Y-30830D02*
X59030Y-30530D01*
X59145Y-30530D01*
X59173Y-30545D01*
X59188Y-30559D01*
X59202Y-30588D01*
X59202Y-30630D01*
X59188Y-30659D01*
X59173Y-30673D01*
X59145Y-30688D01*
X59030Y-30688D01*
X59316Y-30559D02*
X59330Y-30545D01*
X59359Y-30530D01*
X59430Y-30530D01*
X59459Y-30545D01*
X59473Y-30559D01*
X59488Y-30588D01*
X59488Y-30616D01*
X59473Y-30659D01*
X59302Y-30830D01*
X59488Y-30830D01*
X59202Y-32011D02*
X59102Y-31869D01*
X59030Y-32011D02*
X59030Y-31711D01*
X59145Y-31711D01*
X59173Y-31726D01*
X59188Y-31740D01*
X59202Y-31769D01*
X59202Y-31811D01*
X59188Y-31840D01*
X59173Y-31854D01*
X59145Y-31869D01*
X59030Y-31869D01*
X59488Y-32011D02*
X59316Y-32011D01*
X59402Y-32011D02*
X59402Y-31711D01*
X59373Y-31754D01*
X59345Y-31783D01*
X59316Y-31797D01*
X74629Y-35846D02*
X74529Y-35704D01*
X74457Y-35846D02*
X74457Y-35546D01*
X74572Y-35546D01*
X74600Y-35561D01*
X74615Y-35575D01*
X74629Y-35604D01*
X74629Y-35646D01*
X74615Y-35675D01*
X74600Y-35689D01*
X74572Y-35704D01*
X74457Y-35704D01*
X74729Y-35546D02*
X74915Y-35546D01*
X74815Y-35661D01*
X74857Y-35661D01*
X74886Y-35675D01*
X74900Y-35689D01*
X74915Y-35718D01*
X74915Y-35789D01*
X74900Y-35818D01*
X74886Y-35832D01*
X74857Y-35846D01*
X74772Y-35846D01*
X74743Y-35832D01*
X74729Y-35818D01*
X75058Y-35846D02*
X75115Y-35846D01*
X75143Y-35832D01*
X75158Y-35818D01*
X75186Y-35775D01*
X75201Y-35718D01*
X75201Y-35604D01*
X75186Y-35575D01*
X75172Y-35561D01*
X75143Y-35546D01*
X75086Y-35546D01*
X75058Y-35561D01*
X75043Y-35575D01*
X75029Y-35604D01*
X75029Y-35675D01*
X75043Y-35704D01*
X75058Y-35718D01*
X75086Y-35732D01*
X75143Y-35732D01*
X75172Y-35718D01*
X75186Y-35704D01*
X75201Y-35675D01*
X80322Y-30406D02*
X80222Y-30264D01*
X80150Y-30406D02*
X80150Y-30106D01*
X80265Y-30106D01*
X80293Y-30121D01*
X80308Y-30135D01*
X80322Y-30164D01*
X80322Y-30206D01*
X80308Y-30235D01*
X80293Y-30249D01*
X80265Y-30264D01*
X80150Y-30264D01*
X80579Y-30206D02*
X80579Y-30406D01*
X80508Y-30092D02*
X80436Y-30306D01*
X80622Y-30306D01*
X80794Y-30106D02*
X80822Y-30106D01*
X80851Y-30121D01*
X80865Y-30135D01*
X80879Y-30164D01*
X80894Y-30221D01*
X80894Y-30292D01*
X80879Y-30349D01*
X80865Y-30378D01*
X80851Y-30392D01*
X80822Y-30406D01*
X80794Y-30406D01*
X80765Y-30392D01*
X80751Y-30378D01*
X80736Y-30349D01*
X80722Y-30292D01*
X80722Y-30221D01*
X80736Y-30164D01*
X80751Y-30135D01*
X80765Y-30121D01*
X80794Y-30106D01*
X80322Y-31587D02*
X80222Y-31445D01*
X80150Y-31587D02*
X80150Y-31287D01*
X80265Y-31287D01*
X80293Y-31302D01*
X80308Y-31316D01*
X80322Y-31345D01*
X80322Y-31387D01*
X80308Y-31416D01*
X80293Y-31430D01*
X80265Y-31445D01*
X80150Y-31445D01*
X80579Y-31387D02*
X80579Y-31587D01*
X80508Y-31273D02*
X80436Y-31487D01*
X80622Y-31487D01*
X80894Y-31587D02*
X80722Y-31587D01*
X80808Y-31587D02*
X80808Y-31287D01*
X80779Y-31330D01*
X80751Y-31359D01*
X80722Y-31373D01*
X77501Y-44467D02*
X77401Y-44325D01*
X77329Y-44467D02*
X77329Y-44167D01*
X77444Y-44167D01*
X77472Y-44182D01*
X77487Y-44196D01*
X77501Y-44225D01*
X77501Y-44267D01*
X77487Y-44296D01*
X77472Y-44310D01*
X77444Y-44325D01*
X77329Y-44325D01*
X77787Y-44467D02*
X77615Y-44467D01*
X77701Y-44467D02*
X77701Y-44167D01*
X77672Y-44210D01*
X77644Y-44239D01*
X77615Y-44253D01*
X77887Y-44167D02*
X78087Y-44167D01*
X77958Y-44467D01*
X74703Y-39981D02*
X74603Y-39839D01*
X74531Y-39981D02*
X74531Y-39681D01*
X74646Y-39681D01*
X74674Y-39696D01*
X74689Y-39710D01*
X74703Y-39739D01*
X74703Y-39781D01*
X74689Y-39810D01*
X74674Y-39824D01*
X74646Y-39839D01*
X74531Y-39839D01*
X74817Y-39710D02*
X74831Y-39696D01*
X74860Y-39681D01*
X74931Y-39681D01*
X74960Y-39696D01*
X74974Y-39710D01*
X74989Y-39739D01*
X74989Y-39767D01*
X74974Y-39810D01*
X74803Y-39981D01*
X74989Y-39981D01*
X75275Y-39981D02*
X75103Y-39981D01*
X75189Y-39981D02*
X75189Y-39681D01*
X75160Y-39724D01*
X75132Y-39753D01*
X75103Y-39767D01*
X54084Y-44609D02*
X53984Y-44467D01*
X53912Y-44609D02*
X53912Y-44309D01*
X54027Y-44309D01*
X54055Y-44324D01*
X54070Y-44338D01*
X54084Y-44367D01*
X54084Y-44409D01*
X54070Y-44438D01*
X54055Y-44452D01*
X54027Y-44467D01*
X53912Y-44467D01*
X54184Y-44309D02*
X54384Y-44309D01*
X54255Y-44609D01*
X52509Y-27849D02*
X52495Y-27863D01*
X52452Y-27877D01*
X52423Y-27877D01*
X52380Y-27863D01*
X52352Y-27835D01*
X52337Y-27806D01*
X52323Y-27749D01*
X52323Y-27706D01*
X52337Y-27649D01*
X52352Y-27620D01*
X52380Y-27592D01*
X52423Y-27577D01*
X52452Y-27577D01*
X52495Y-27592D01*
X52509Y-27606D01*
X52766Y-27677D02*
X52766Y-27877D01*
X52695Y-27563D02*
X52623Y-27777D01*
X52809Y-27777D01*
X52706Y-38676D02*
X52692Y-38690D01*
X52649Y-38704D01*
X52620Y-38704D01*
X52577Y-38690D01*
X52549Y-38662D01*
X52534Y-38633D01*
X52520Y-38576D01*
X52520Y-38533D01*
X52534Y-38476D01*
X52549Y-38447D01*
X52577Y-38419D01*
X52620Y-38404D01*
X52649Y-38404D01*
X52692Y-38419D01*
X52706Y-38433D01*
X52806Y-38404D02*
X53006Y-38404D01*
X52877Y-38704D01*
X52509Y-29030D02*
X52495Y-29044D01*
X52452Y-29058D01*
X52423Y-29058D01*
X52380Y-29044D01*
X52352Y-29016D01*
X52337Y-28987D01*
X52323Y-28930D01*
X52323Y-28887D01*
X52337Y-28830D01*
X52352Y-28801D01*
X52380Y-28773D01*
X52423Y-28758D01*
X52452Y-28758D01*
X52495Y-28773D01*
X52509Y-28787D01*
X52780Y-28758D02*
X52637Y-28758D01*
X52623Y-28901D01*
X52637Y-28887D01*
X52666Y-28873D01*
X52737Y-28873D01*
X52766Y-28887D01*
X52780Y-28901D01*
X52795Y-28930D01*
X52795Y-29001D01*
X52780Y-29030D01*
X52766Y-29044D01*
X52737Y-29058D01*
X52666Y-29058D01*
X52637Y-29044D01*
X52623Y-29030D01*
X51722Y-31589D02*
X51708Y-31603D01*
X51665Y-31617D01*
X51636Y-31617D01*
X51593Y-31603D01*
X51565Y-31575D01*
X51550Y-31546D01*
X51536Y-31489D01*
X51536Y-31446D01*
X51550Y-31389D01*
X51565Y-31360D01*
X51593Y-31332D01*
X51636Y-31317D01*
X51665Y-31317D01*
X51708Y-31332D01*
X51722Y-31346D01*
X51836Y-31346D02*
X51850Y-31332D01*
X51879Y-31317D01*
X51950Y-31317D01*
X51979Y-31332D01*
X51993Y-31346D01*
X52008Y-31375D01*
X52008Y-31403D01*
X51993Y-31446D01*
X51822Y-31617D01*
X52008Y-31617D01*
X82376Y-22831D02*
X82390Y-22845D01*
X82404Y-22888D01*
X82404Y-22917D01*
X82390Y-22960D01*
X82362Y-22988D01*
X82333Y-23003D01*
X82276Y-23017D01*
X82233Y-23017D01*
X82176Y-23003D01*
X82147Y-22988D01*
X82119Y-22960D01*
X82104Y-22917D01*
X82104Y-22888D01*
X82119Y-22845D01*
X82133Y-22831D01*
X82404Y-22545D02*
X82404Y-22717D01*
X82404Y-22631D02*
X82104Y-22631D01*
X82147Y-22660D01*
X82176Y-22688D01*
X82190Y-22717D01*
X82104Y-22359D02*
X82104Y-22331D01*
X82119Y-22302D01*
X82133Y-22288D01*
X82162Y-22274D01*
X82219Y-22259D01*
X82290Y-22259D01*
X82347Y-22274D01*
X82376Y-22288D01*
X82390Y-22302D01*
X82404Y-22331D01*
X82404Y-22359D01*
X82390Y-22388D01*
X82376Y-22402D01*
X82347Y-22417D01*
X82290Y-22431D01*
X82219Y-22431D01*
X82162Y-22417D01*
X82133Y-22402D01*
X82119Y-22388D01*
X82104Y-22359D01*
X51722Y-32967D02*
X51708Y-32981D01*
X51665Y-32995D01*
X51636Y-32995D01*
X51593Y-32981D01*
X51565Y-32953D01*
X51550Y-32924D01*
X51536Y-32867D01*
X51536Y-32824D01*
X51550Y-32767D01*
X51565Y-32738D01*
X51593Y-32710D01*
X51636Y-32695D01*
X51665Y-32695D01*
X51708Y-32710D01*
X51722Y-32724D01*
X51822Y-32695D02*
X52008Y-32695D01*
X51908Y-32810D01*
X51950Y-32810D01*
X51979Y-32824D01*
X51993Y-32838D01*
X52008Y-32867D01*
X52008Y-32938D01*
X51993Y-32967D01*
X51979Y-32981D01*
X51950Y-32995D01*
X51865Y-32995D01*
X51836Y-32981D01*
X51822Y-32967D01*
X58754Y-28987D02*
X58768Y-29001D01*
X58782Y-29044D01*
X58782Y-29073D01*
X58768Y-29116D01*
X58740Y-29144D01*
X58711Y-29159D01*
X58654Y-29173D01*
X58611Y-29173D01*
X58554Y-29159D01*
X58525Y-29144D01*
X58497Y-29116D01*
X58482Y-29073D01*
X58482Y-29044D01*
X58497Y-29001D01*
X58511Y-28987D01*
X58782Y-28701D02*
X58782Y-28873D01*
X58782Y-28787D02*
X58482Y-28787D01*
X58525Y-28816D01*
X58554Y-28844D01*
X58568Y-28873D01*
G54D19*
X80487Y-46645D02*
X80459Y-46631D01*
X80430Y-46602D01*
X80387Y-46559D01*
X80359Y-46545D01*
X80330Y-46545D01*
X80345Y-46616D02*
X80316Y-46602D01*
X80287Y-46574D01*
X80273Y-46516D01*
X80273Y-46416D01*
X80287Y-46359D01*
X80316Y-46331D01*
X80345Y-46316D01*
X80402Y-46316D01*
X80430Y-46331D01*
X80459Y-46359D01*
X80473Y-46416D01*
X80473Y-46516D01*
X80459Y-46574D01*
X80430Y-46602D01*
X80402Y-46616D01*
X80345Y-46616D01*
X80587Y-46345D02*
X80601Y-46331D01*
X80630Y-46316D01*
X80701Y-46316D01*
X80730Y-46331D01*
X80744Y-46345D01*
X80759Y-46374D01*
X80759Y-46402D01*
X80744Y-46445D01*
X80573Y-46616D01*
X80759Y-46616D01*
X79844Y-45766D02*
X79844Y-45466D01*
X79944Y-45681D01*
X80044Y-45466D01*
X80044Y-45766D01*
X80245Y-45466D02*
X80302Y-45466D01*
X80330Y-45481D01*
X80359Y-45509D01*
X80373Y-45566D01*
X80373Y-45666D01*
X80359Y-45724D01*
X80330Y-45752D01*
X80302Y-45766D01*
X80245Y-45766D01*
X80216Y-45752D01*
X80187Y-45724D01*
X80173Y-45666D01*
X80173Y-45566D01*
X80187Y-45509D01*
X80216Y-45481D01*
X80245Y-45466D01*
X80487Y-45752D02*
X80530Y-45766D01*
X80601Y-45766D01*
X80630Y-45752D01*
X80644Y-45738D01*
X80659Y-45709D01*
X80659Y-45681D01*
X80644Y-45652D01*
X80630Y-45638D01*
X80601Y-45624D01*
X80544Y-45609D01*
X80516Y-45595D01*
X80501Y-45581D01*
X80487Y-45552D01*
X80487Y-45524D01*
X80501Y-45495D01*
X80516Y-45481D01*
X80544Y-45466D01*
X80616Y-45466D01*
X80659Y-45481D01*
X80716Y-45795D02*
X80945Y-45795D01*
X81016Y-45766D02*
X81016Y-45466D01*
X81188Y-45766D01*
X81188Y-45466D01*
X77630Y-38023D02*
X77602Y-38009D01*
X77573Y-37980D01*
X77530Y-37937D01*
X77502Y-37923D01*
X77473Y-37923D01*
X77488Y-37994D02*
X77459Y-37980D01*
X77430Y-37952D01*
X77416Y-37894D01*
X77416Y-37794D01*
X77430Y-37737D01*
X77459Y-37709D01*
X77488Y-37694D01*
X77545Y-37694D01*
X77573Y-37709D01*
X77602Y-37737D01*
X77616Y-37794D01*
X77616Y-37894D01*
X77602Y-37952D01*
X77573Y-37980D01*
X77545Y-37994D01*
X77488Y-37994D01*
X77902Y-37994D02*
X77730Y-37994D01*
X77816Y-37994D02*
X77816Y-37694D01*
X77787Y-37737D01*
X77759Y-37766D01*
X77730Y-37780D01*
X76987Y-37144D02*
X76987Y-36844D01*
X77087Y-37059D01*
X77187Y-36844D01*
X77187Y-37144D01*
X77388Y-36844D02*
X77445Y-36844D01*
X77473Y-36859D01*
X77502Y-36887D01*
X77516Y-36944D01*
X77516Y-37044D01*
X77502Y-37102D01*
X77473Y-37130D01*
X77445Y-37144D01*
X77388Y-37144D01*
X77359Y-37130D01*
X77330Y-37102D01*
X77316Y-37044D01*
X77316Y-36944D01*
X77330Y-36887D01*
X77359Y-36859D01*
X77388Y-36844D01*
X77630Y-37130D02*
X77673Y-37144D01*
X77744Y-37144D01*
X77773Y-37130D01*
X77787Y-37116D01*
X77802Y-37087D01*
X77802Y-37059D01*
X77787Y-37030D01*
X77773Y-37016D01*
X77744Y-37002D01*
X77687Y-36987D01*
X77659Y-36973D01*
X77644Y-36959D01*
X77630Y-36930D01*
X77630Y-36902D01*
X77644Y-36873D01*
X77659Y-36859D01*
X77687Y-36844D01*
X77759Y-36844D01*
X77802Y-36859D01*
X77859Y-37173D02*
X78088Y-37173D01*
X78159Y-37144D02*
X78159Y-36844D01*
X78331Y-37144D01*
X78331Y-36844D01*
X74867Y-42159D02*
X74839Y-42145D01*
X74810Y-42116D01*
X74767Y-42073D01*
X74739Y-42059D01*
X74710Y-42059D01*
X74725Y-42130D02*
X74696Y-42116D01*
X74667Y-42088D01*
X74653Y-42030D01*
X74653Y-41930D01*
X74667Y-41873D01*
X74696Y-41845D01*
X74725Y-41830D01*
X74782Y-41830D01*
X74810Y-41845D01*
X74839Y-41873D01*
X74853Y-41930D01*
X74853Y-42030D01*
X74839Y-42088D01*
X74810Y-42116D01*
X74782Y-42130D01*
X74725Y-42130D01*
X75110Y-41830D02*
X75053Y-41830D01*
X75024Y-41845D01*
X75010Y-41859D01*
X74981Y-41902D01*
X74967Y-41959D01*
X74967Y-42073D01*
X74981Y-42102D01*
X74996Y-42116D01*
X75024Y-42130D01*
X75081Y-42130D01*
X75110Y-42116D01*
X75124Y-42102D01*
X75139Y-42073D01*
X75139Y-42002D01*
X75124Y-41973D01*
X75110Y-41959D01*
X75081Y-41945D01*
X75024Y-41945D01*
X74996Y-41959D01*
X74981Y-41973D01*
X74967Y-42002D01*
X74224Y-41280D02*
X74224Y-40980D01*
X74324Y-41195D01*
X74424Y-40980D01*
X74424Y-41280D01*
X74625Y-40980D02*
X74682Y-40980D01*
X74710Y-40995D01*
X74739Y-41023D01*
X74753Y-41080D01*
X74753Y-41180D01*
X74739Y-41238D01*
X74710Y-41266D01*
X74682Y-41280D01*
X74625Y-41280D01*
X74596Y-41266D01*
X74567Y-41238D01*
X74553Y-41180D01*
X74553Y-41080D01*
X74567Y-41023D01*
X74596Y-40995D01*
X74625Y-40980D01*
X74867Y-41266D02*
X74910Y-41280D01*
X74981Y-41280D01*
X75010Y-41266D01*
X75024Y-41252D01*
X75039Y-41223D01*
X75039Y-41195D01*
X75024Y-41166D01*
X75010Y-41152D01*
X74981Y-41138D01*
X74924Y-41123D01*
X74896Y-41109D01*
X74881Y-41095D01*
X74867Y-41066D01*
X74867Y-41038D01*
X74881Y-41009D01*
X74896Y-40995D01*
X74924Y-40980D01*
X74996Y-40980D01*
X75039Y-40995D01*
X75096Y-41309D02*
X75325Y-41309D01*
X75396Y-41280D02*
X75396Y-40980D01*
X75568Y-41280D01*
X75568Y-40980D01*
X77665Y-46645D02*
X77637Y-46631D01*
X77608Y-46602D01*
X77565Y-46559D01*
X77537Y-46545D01*
X77508Y-46545D01*
X77523Y-46616D02*
X77494Y-46602D01*
X77465Y-46574D01*
X77451Y-46516D01*
X77451Y-46416D01*
X77465Y-46359D01*
X77494Y-46331D01*
X77523Y-46316D01*
X77580Y-46316D01*
X77608Y-46331D01*
X77637Y-46359D01*
X77651Y-46416D01*
X77651Y-46516D01*
X77637Y-46574D01*
X77608Y-46602D01*
X77580Y-46616D01*
X77523Y-46616D01*
X77908Y-46416D02*
X77908Y-46616D01*
X77837Y-46302D02*
X77765Y-46516D01*
X77951Y-46516D01*
X77022Y-45766D02*
X77022Y-45466D01*
X77122Y-45681D01*
X77222Y-45466D01*
X77222Y-45766D01*
X77423Y-45466D02*
X77480Y-45466D01*
X77508Y-45481D01*
X77537Y-45509D01*
X77551Y-45566D01*
X77551Y-45666D01*
X77537Y-45724D01*
X77508Y-45752D01*
X77480Y-45766D01*
X77423Y-45766D01*
X77394Y-45752D01*
X77365Y-45724D01*
X77351Y-45666D01*
X77351Y-45566D01*
X77365Y-45509D01*
X77394Y-45481D01*
X77423Y-45466D01*
X77665Y-45752D02*
X77708Y-45766D01*
X77779Y-45766D01*
X77808Y-45752D01*
X77822Y-45738D01*
X77837Y-45709D01*
X77837Y-45681D01*
X77822Y-45652D01*
X77808Y-45638D01*
X77779Y-45624D01*
X77722Y-45609D01*
X77694Y-45595D01*
X77679Y-45581D01*
X77665Y-45552D01*
X77665Y-45524D01*
X77679Y-45495D01*
X77694Y-45481D01*
X77722Y-45466D01*
X77794Y-45466D01*
X77837Y-45481D01*
X77894Y-45795D02*
X78123Y-45795D01*
X78194Y-45766D02*
X78194Y-45466D01*
X78366Y-45766D01*
X78366Y-45466D01*
X80421Y-29567D02*
X80393Y-29553D01*
X80364Y-29524D01*
X80321Y-29481D01*
X80293Y-29467D01*
X80264Y-29467D01*
X80279Y-29538D02*
X80250Y-29524D01*
X80221Y-29496D01*
X80207Y-29438D01*
X80207Y-29338D01*
X80221Y-29281D01*
X80250Y-29253D01*
X80279Y-29238D01*
X80336Y-29238D01*
X80364Y-29253D01*
X80393Y-29281D01*
X80407Y-29338D01*
X80407Y-29438D01*
X80393Y-29496D01*
X80364Y-29524D01*
X80336Y-29538D01*
X80279Y-29538D01*
X80693Y-29538D02*
X80521Y-29538D01*
X80607Y-29538D02*
X80607Y-29238D01*
X80578Y-29281D01*
X80550Y-29310D01*
X80521Y-29324D01*
X80793Y-29238D02*
X80979Y-29238D01*
X80879Y-29353D01*
X80921Y-29353D01*
X80950Y-29367D01*
X80964Y-29381D01*
X80979Y-29410D01*
X80979Y-29481D01*
X80964Y-29510D01*
X80950Y-29524D01*
X80921Y-29538D01*
X80836Y-29538D01*
X80807Y-29524D01*
X80793Y-29510D01*
X79921Y-28688D02*
X79921Y-28388D01*
X80021Y-28603D01*
X80121Y-28388D01*
X80121Y-28688D01*
X80322Y-28388D02*
X80379Y-28388D01*
X80407Y-28403D01*
X80436Y-28431D01*
X80450Y-28488D01*
X80450Y-28588D01*
X80436Y-28646D01*
X80407Y-28674D01*
X80379Y-28688D01*
X80322Y-28688D01*
X80293Y-28674D01*
X80264Y-28646D01*
X80250Y-28588D01*
X80250Y-28488D01*
X80264Y-28431D01*
X80293Y-28403D01*
X80322Y-28388D01*
X80564Y-28674D02*
X80607Y-28688D01*
X80678Y-28688D01*
X80707Y-28674D01*
X80721Y-28660D01*
X80736Y-28631D01*
X80736Y-28603D01*
X80721Y-28574D01*
X80707Y-28560D01*
X80678Y-28546D01*
X80621Y-28531D01*
X80593Y-28517D01*
X80578Y-28503D01*
X80564Y-28474D01*
X80564Y-28446D01*
X80578Y-28417D01*
X80593Y-28403D01*
X80621Y-28388D01*
X80693Y-28388D01*
X80736Y-28403D01*
X80793Y-28717D02*
X81022Y-28717D01*
X81093Y-28688D02*
X81093Y-28388D01*
X81265Y-28688D01*
X81265Y-28388D01*
X77492Y-29605D02*
X77464Y-29591D01*
X77435Y-29562D01*
X77392Y-29519D01*
X77364Y-29505D01*
X77335Y-29505D01*
X77350Y-29576D02*
X77321Y-29562D01*
X77292Y-29534D01*
X77278Y-29476D01*
X77278Y-29376D01*
X77292Y-29319D01*
X77321Y-29291D01*
X77350Y-29276D01*
X77407Y-29276D01*
X77435Y-29291D01*
X77464Y-29319D01*
X77478Y-29376D01*
X77478Y-29476D01*
X77464Y-29534D01*
X77435Y-29562D01*
X77407Y-29576D01*
X77350Y-29576D01*
X77764Y-29576D02*
X77592Y-29576D01*
X77678Y-29576D02*
X77678Y-29276D01*
X77649Y-29319D01*
X77621Y-29348D01*
X77592Y-29362D01*
X77950Y-29276D02*
X77978Y-29276D01*
X78007Y-29291D01*
X78021Y-29305D01*
X78035Y-29334D01*
X78050Y-29391D01*
X78050Y-29462D01*
X78035Y-29519D01*
X78021Y-29548D01*
X78007Y-29562D01*
X77978Y-29576D01*
X77950Y-29576D01*
X77921Y-29562D01*
X77907Y-29548D01*
X77892Y-29519D01*
X77878Y-29462D01*
X77878Y-29391D01*
X77892Y-29334D01*
X77907Y-29305D01*
X77921Y-29291D01*
X77950Y-29276D01*
X76992Y-28726D02*
X76992Y-28426D01*
X77092Y-28641D01*
X77192Y-28426D01*
X77192Y-28726D01*
X77393Y-28426D02*
X77450Y-28426D01*
X77478Y-28441D01*
X77507Y-28469D01*
X77521Y-28526D01*
X77521Y-28626D01*
X77507Y-28684D01*
X77478Y-28712D01*
X77450Y-28726D01*
X77393Y-28726D01*
X77364Y-28712D01*
X77335Y-28684D01*
X77321Y-28626D01*
X77321Y-28526D01*
X77335Y-28469D01*
X77364Y-28441D01*
X77393Y-28426D01*
X77635Y-28712D02*
X77678Y-28726D01*
X77749Y-28726D01*
X77778Y-28712D01*
X77792Y-28698D01*
X77807Y-28669D01*
X77807Y-28641D01*
X77792Y-28612D01*
X77778Y-28598D01*
X77749Y-28584D01*
X77692Y-28569D01*
X77664Y-28555D01*
X77649Y-28541D01*
X77635Y-28512D01*
X77635Y-28484D01*
X77649Y-28455D01*
X77664Y-28441D01*
X77692Y-28426D01*
X77764Y-28426D01*
X77807Y-28441D01*
X77864Y-28755D02*
X78093Y-28755D01*
X78164Y-28726D02*
X78164Y-28426D01*
X78336Y-28726D01*
X78336Y-28426D01*
X80466Y-37866D02*
X80438Y-37852D01*
X80409Y-37823D01*
X80366Y-37780D01*
X80338Y-37766D01*
X80309Y-37766D01*
X80324Y-37837D02*
X80295Y-37823D01*
X80266Y-37795D01*
X80252Y-37737D01*
X80252Y-37637D01*
X80266Y-37580D01*
X80295Y-37552D01*
X80324Y-37537D01*
X80381Y-37537D01*
X80409Y-37552D01*
X80438Y-37580D01*
X80452Y-37637D01*
X80452Y-37737D01*
X80438Y-37795D01*
X80409Y-37823D01*
X80381Y-37837D01*
X80324Y-37837D01*
X80552Y-37537D02*
X80738Y-37537D01*
X80638Y-37652D01*
X80680Y-37652D01*
X80709Y-37666D01*
X80723Y-37680D01*
X80738Y-37709D01*
X80738Y-37780D01*
X80723Y-37809D01*
X80709Y-37823D01*
X80680Y-37837D01*
X80595Y-37837D01*
X80566Y-37823D01*
X80552Y-37809D01*
X79823Y-36987D02*
X79823Y-36687D01*
X79923Y-36902D01*
X80023Y-36687D01*
X80023Y-36987D01*
X80224Y-36687D02*
X80281Y-36687D01*
X80309Y-36702D01*
X80338Y-36730D01*
X80352Y-36787D01*
X80352Y-36887D01*
X80338Y-36945D01*
X80309Y-36973D01*
X80281Y-36987D01*
X80224Y-36987D01*
X80195Y-36973D01*
X80166Y-36945D01*
X80152Y-36887D01*
X80152Y-36787D01*
X80166Y-36730D01*
X80195Y-36702D01*
X80224Y-36687D01*
X80466Y-36973D02*
X80509Y-36987D01*
X80580Y-36987D01*
X80609Y-36973D01*
X80623Y-36959D01*
X80638Y-36930D01*
X80638Y-36902D01*
X80623Y-36873D01*
X80609Y-36859D01*
X80580Y-36845D01*
X80523Y-36830D01*
X80495Y-36816D01*
X80480Y-36802D01*
X80466Y-36773D01*
X80466Y-36745D01*
X80480Y-36716D01*
X80495Y-36702D01*
X80523Y-36687D01*
X80595Y-36687D01*
X80638Y-36702D01*
X80695Y-37016D02*
X80924Y-37016D01*
X80995Y-36987D02*
X80995Y-36687D01*
X81167Y-36987D01*
X81167Y-36687D01*
X75000Y-46645D02*
X74972Y-46631D01*
X74943Y-46602D01*
X74900Y-46559D01*
X74872Y-46545D01*
X74843Y-46545D01*
X74858Y-46616D02*
X74829Y-46602D01*
X74800Y-46574D01*
X74786Y-46516D01*
X74786Y-46416D01*
X74800Y-46359D01*
X74829Y-46331D01*
X74858Y-46316D01*
X74915Y-46316D01*
X74943Y-46331D01*
X74972Y-46359D01*
X74986Y-46416D01*
X74986Y-46516D01*
X74972Y-46574D01*
X74943Y-46602D01*
X74915Y-46616D01*
X74858Y-46616D01*
X75257Y-46316D02*
X75114Y-46316D01*
X75100Y-46459D01*
X75114Y-46445D01*
X75143Y-46431D01*
X75214Y-46431D01*
X75243Y-46445D01*
X75257Y-46459D01*
X75272Y-46488D01*
X75272Y-46559D01*
X75257Y-46588D01*
X75243Y-46602D01*
X75214Y-46616D01*
X75143Y-46616D01*
X75114Y-46602D01*
X75100Y-46588D01*
X74357Y-45766D02*
X74357Y-45466D01*
X74457Y-45681D01*
X74557Y-45466D01*
X74557Y-45766D01*
X74758Y-45466D02*
X74815Y-45466D01*
X74843Y-45481D01*
X74872Y-45509D01*
X74886Y-45566D01*
X74886Y-45666D01*
X74872Y-45724D01*
X74843Y-45752D01*
X74815Y-45766D01*
X74758Y-45766D01*
X74729Y-45752D01*
X74700Y-45724D01*
X74686Y-45666D01*
X74686Y-45566D01*
X74700Y-45509D01*
X74729Y-45481D01*
X74758Y-45466D01*
X75000Y-45752D02*
X75043Y-45766D01*
X75114Y-45766D01*
X75143Y-45752D01*
X75157Y-45738D01*
X75172Y-45709D01*
X75172Y-45681D01*
X75157Y-45652D01*
X75143Y-45638D01*
X75114Y-45624D01*
X75057Y-45609D01*
X75029Y-45595D01*
X75014Y-45581D01*
X75000Y-45552D01*
X75000Y-45524D01*
X75014Y-45495D01*
X75029Y-45481D01*
X75057Y-45466D01*
X75129Y-45466D01*
X75172Y-45481D01*
X75229Y-45795D02*
X75458Y-45795D01*
X75529Y-45766D02*
X75529Y-45466D01*
X75701Y-45766D01*
X75701Y-45466D01*
X74650Y-38103D02*
X74622Y-38089D01*
X74593Y-38060D01*
X74550Y-38017D01*
X74522Y-38003D01*
X74493Y-38003D01*
X74508Y-38074D02*
X74479Y-38060D01*
X74450Y-38032D01*
X74436Y-37974D01*
X74436Y-37874D01*
X74450Y-37817D01*
X74479Y-37789D01*
X74508Y-37774D01*
X74565Y-37774D01*
X74593Y-37789D01*
X74622Y-37817D01*
X74636Y-37874D01*
X74636Y-37974D01*
X74622Y-38032D01*
X74593Y-38060D01*
X74565Y-38074D01*
X74508Y-38074D01*
X74922Y-38074D02*
X74750Y-38074D01*
X74836Y-38074D02*
X74836Y-37774D01*
X74807Y-37817D01*
X74779Y-37846D01*
X74750Y-37860D01*
X75193Y-37774D02*
X75050Y-37774D01*
X75036Y-37917D01*
X75050Y-37903D01*
X75079Y-37889D01*
X75150Y-37889D01*
X75179Y-37903D01*
X75193Y-37917D01*
X75208Y-37946D01*
X75208Y-38017D01*
X75193Y-38046D01*
X75179Y-38060D01*
X75150Y-38074D01*
X75079Y-38074D01*
X75050Y-38060D01*
X75036Y-38046D01*
X74150Y-37224D02*
X74150Y-36924D01*
X74250Y-37139D01*
X74350Y-36924D01*
X74350Y-37224D01*
X74551Y-36924D02*
X74608Y-36924D01*
X74636Y-36939D01*
X74665Y-36967D01*
X74679Y-37024D01*
X74679Y-37124D01*
X74665Y-37182D01*
X74636Y-37210D01*
X74608Y-37224D01*
X74551Y-37224D01*
X74522Y-37210D01*
X74493Y-37182D01*
X74479Y-37124D01*
X74479Y-37024D01*
X74493Y-36967D01*
X74522Y-36939D01*
X74551Y-36924D01*
X74793Y-37210D02*
X74836Y-37224D01*
X74907Y-37224D01*
X74936Y-37210D01*
X74950Y-37196D01*
X74965Y-37167D01*
X74965Y-37139D01*
X74950Y-37110D01*
X74936Y-37096D01*
X74907Y-37082D01*
X74850Y-37067D01*
X74822Y-37053D01*
X74807Y-37039D01*
X74793Y-37010D01*
X74793Y-36982D01*
X74807Y-36953D01*
X74822Y-36939D01*
X74850Y-36924D01*
X74922Y-36924D01*
X74965Y-36939D01*
X75022Y-37253D02*
X75251Y-37253D01*
X75322Y-37224D02*
X75322Y-36924D01*
X75494Y-37224D01*
X75494Y-36924D01*
X80382Y-33804D02*
X80354Y-33790D01*
X80325Y-33761D01*
X80282Y-33718D01*
X80254Y-33704D01*
X80225Y-33704D01*
X80240Y-33775D02*
X80211Y-33761D01*
X80182Y-33733D01*
X80168Y-33675D01*
X80168Y-33575D01*
X80182Y-33518D01*
X80211Y-33490D01*
X80240Y-33475D01*
X80297Y-33475D01*
X80325Y-33490D01*
X80354Y-33518D01*
X80368Y-33575D01*
X80368Y-33675D01*
X80354Y-33733D01*
X80325Y-33761D01*
X80297Y-33775D01*
X80240Y-33775D01*
X80654Y-33775D02*
X80482Y-33775D01*
X80568Y-33775D02*
X80568Y-33475D01*
X80539Y-33518D01*
X80511Y-33547D01*
X80482Y-33561D01*
X80911Y-33475D02*
X80854Y-33475D01*
X80825Y-33490D01*
X80811Y-33504D01*
X80782Y-33547D01*
X80768Y-33604D01*
X80768Y-33718D01*
X80782Y-33747D01*
X80797Y-33761D01*
X80825Y-33775D01*
X80882Y-33775D01*
X80911Y-33761D01*
X80925Y-33747D01*
X80940Y-33718D01*
X80940Y-33647D01*
X80925Y-33618D01*
X80911Y-33604D01*
X80882Y-33590D01*
X80825Y-33590D01*
X80797Y-33604D01*
X80782Y-33618D01*
X80768Y-33647D01*
X79882Y-32925D02*
X79882Y-32625D01*
X79982Y-32840D01*
X80082Y-32625D01*
X80082Y-32925D01*
X80283Y-32625D02*
X80340Y-32625D01*
X80368Y-32640D01*
X80397Y-32668D01*
X80411Y-32725D01*
X80411Y-32825D01*
X80397Y-32883D01*
X80368Y-32911D01*
X80340Y-32925D01*
X80283Y-32925D01*
X80254Y-32911D01*
X80225Y-32883D01*
X80211Y-32825D01*
X80211Y-32725D01*
X80225Y-32668D01*
X80254Y-32640D01*
X80283Y-32625D01*
X80525Y-32911D02*
X80568Y-32925D01*
X80639Y-32925D01*
X80668Y-32911D01*
X80682Y-32897D01*
X80697Y-32868D01*
X80697Y-32840D01*
X80682Y-32811D01*
X80668Y-32797D01*
X80639Y-32783D01*
X80582Y-32768D01*
X80554Y-32754D01*
X80539Y-32740D01*
X80525Y-32711D01*
X80525Y-32683D01*
X80539Y-32654D01*
X80554Y-32640D01*
X80582Y-32625D01*
X80654Y-32625D01*
X80697Y-32640D01*
X80754Y-32954D02*
X80983Y-32954D01*
X81054Y-32925D02*
X81054Y-32625D01*
X81226Y-32925D01*
X81226Y-32625D01*
X80387Y-25656D02*
X80359Y-25642D01*
X80330Y-25613D01*
X80287Y-25570D01*
X80259Y-25556D01*
X80230Y-25556D01*
X80245Y-25627D02*
X80216Y-25613D01*
X80187Y-25585D01*
X80173Y-25527D01*
X80173Y-25427D01*
X80187Y-25370D01*
X80216Y-25342D01*
X80245Y-25327D01*
X80302Y-25327D01*
X80330Y-25342D01*
X80359Y-25370D01*
X80373Y-25427D01*
X80373Y-25527D01*
X80359Y-25585D01*
X80330Y-25613D01*
X80302Y-25627D01*
X80245Y-25627D01*
X80516Y-25627D02*
X80573Y-25627D01*
X80601Y-25613D01*
X80616Y-25599D01*
X80644Y-25556D01*
X80659Y-25499D01*
X80659Y-25385D01*
X80644Y-25356D01*
X80630Y-25342D01*
X80601Y-25327D01*
X80544Y-25327D01*
X80516Y-25342D01*
X80501Y-25356D01*
X80487Y-25385D01*
X80487Y-25456D01*
X80501Y-25485D01*
X80516Y-25499D01*
X80544Y-25513D01*
X80601Y-25513D01*
X80630Y-25499D01*
X80644Y-25485D01*
X80659Y-25456D01*
X79744Y-24777D02*
X79744Y-24477D01*
X79844Y-24692D01*
X79944Y-24477D01*
X79944Y-24777D01*
X80145Y-24477D02*
X80202Y-24477D01*
X80230Y-24492D01*
X80259Y-24520D01*
X80273Y-24577D01*
X80273Y-24677D01*
X80259Y-24735D01*
X80230Y-24763D01*
X80202Y-24777D01*
X80145Y-24777D01*
X80116Y-24763D01*
X80087Y-24735D01*
X80073Y-24677D01*
X80073Y-24577D01*
X80087Y-24520D01*
X80116Y-24492D01*
X80145Y-24477D01*
X80387Y-24763D02*
X80430Y-24777D01*
X80501Y-24777D01*
X80530Y-24763D01*
X80544Y-24749D01*
X80559Y-24720D01*
X80559Y-24692D01*
X80544Y-24663D01*
X80530Y-24649D01*
X80501Y-24635D01*
X80444Y-24620D01*
X80416Y-24606D01*
X80401Y-24592D01*
X80387Y-24563D01*
X80387Y-24535D01*
X80401Y-24506D01*
X80416Y-24492D01*
X80444Y-24477D01*
X80516Y-24477D01*
X80559Y-24492D01*
X80616Y-24806D02*
X80845Y-24806D01*
X80916Y-24777D02*
X80916Y-24477D01*
X81088Y-24777D01*
X81088Y-24477D01*
X77742Y-42317D02*
X77714Y-42303D01*
X77685Y-42274D01*
X77642Y-42231D01*
X77614Y-42217D01*
X77585Y-42217D01*
X77600Y-42288D02*
X77571Y-42274D01*
X77542Y-42246D01*
X77528Y-42188D01*
X77528Y-42088D01*
X77542Y-42031D01*
X77571Y-42003D01*
X77600Y-41988D01*
X77657Y-41988D01*
X77685Y-42003D01*
X77714Y-42031D01*
X77728Y-42088D01*
X77728Y-42188D01*
X77714Y-42246D01*
X77685Y-42274D01*
X77657Y-42288D01*
X77600Y-42288D01*
X77828Y-41988D02*
X78028Y-41988D01*
X77899Y-42288D01*
X77099Y-41438D02*
X77099Y-41138D01*
X77199Y-41353D01*
X77299Y-41138D01*
X77299Y-41438D01*
X77500Y-41138D02*
X77557Y-41138D01*
X77585Y-41153D01*
X77614Y-41181D01*
X77628Y-41238D01*
X77628Y-41338D01*
X77614Y-41396D01*
X77585Y-41424D01*
X77557Y-41438D01*
X77500Y-41438D01*
X77471Y-41424D01*
X77442Y-41396D01*
X77428Y-41338D01*
X77428Y-41238D01*
X77442Y-41181D01*
X77471Y-41153D01*
X77500Y-41138D01*
X77742Y-41424D02*
X77785Y-41438D01*
X77856Y-41438D01*
X77885Y-41424D01*
X77899Y-41410D01*
X77914Y-41381D01*
X77914Y-41353D01*
X77899Y-41324D01*
X77885Y-41310D01*
X77856Y-41296D01*
X77799Y-41281D01*
X77771Y-41267D01*
X77756Y-41253D01*
X77742Y-41224D01*
X77742Y-41196D01*
X77756Y-41167D01*
X77771Y-41153D01*
X77799Y-41138D01*
X77871Y-41138D01*
X77914Y-41153D01*
X77971Y-41467D02*
X78200Y-41467D01*
X78271Y-41438D02*
X78271Y-41138D01*
X78443Y-41438D01*
X78443Y-41138D01*
X80462Y-42317D02*
X80434Y-42303D01*
X80405Y-42274D01*
X80362Y-42231D01*
X80334Y-42217D01*
X80305Y-42217D01*
X80320Y-42288D02*
X80291Y-42274D01*
X80262Y-42246D01*
X80248Y-42188D01*
X80248Y-42088D01*
X80262Y-42031D01*
X80291Y-42003D01*
X80320Y-41988D01*
X80377Y-41988D01*
X80405Y-42003D01*
X80434Y-42031D01*
X80448Y-42088D01*
X80448Y-42188D01*
X80434Y-42246D01*
X80405Y-42274D01*
X80377Y-42288D01*
X80320Y-42288D01*
X80619Y-42117D02*
X80591Y-42103D01*
X80576Y-42088D01*
X80562Y-42060D01*
X80562Y-42046D01*
X80576Y-42017D01*
X80591Y-42003D01*
X80619Y-41988D01*
X80676Y-41988D01*
X80705Y-42003D01*
X80719Y-42017D01*
X80734Y-42046D01*
X80734Y-42060D01*
X80719Y-42088D01*
X80705Y-42103D01*
X80676Y-42117D01*
X80619Y-42117D01*
X80591Y-42131D01*
X80576Y-42146D01*
X80562Y-42174D01*
X80562Y-42231D01*
X80576Y-42260D01*
X80591Y-42274D01*
X80619Y-42288D01*
X80676Y-42288D01*
X80705Y-42274D01*
X80719Y-42260D01*
X80734Y-42231D01*
X80734Y-42174D01*
X80719Y-42146D01*
X80705Y-42131D01*
X80676Y-42117D01*
X79819Y-41438D02*
X79819Y-41138D01*
X79919Y-41353D01*
X80019Y-41138D01*
X80019Y-41438D01*
X80220Y-41138D02*
X80277Y-41138D01*
X80305Y-41153D01*
X80334Y-41181D01*
X80348Y-41238D01*
X80348Y-41338D01*
X80334Y-41396D01*
X80305Y-41424D01*
X80277Y-41438D01*
X80220Y-41438D01*
X80191Y-41424D01*
X80162Y-41396D01*
X80148Y-41338D01*
X80148Y-41238D01*
X80162Y-41181D01*
X80191Y-41153D01*
X80220Y-41138D01*
X80462Y-41424D02*
X80505Y-41438D01*
X80576Y-41438D01*
X80605Y-41424D01*
X80619Y-41410D01*
X80634Y-41381D01*
X80634Y-41353D01*
X80619Y-41324D01*
X80605Y-41310D01*
X80576Y-41296D01*
X80519Y-41281D01*
X80491Y-41267D01*
X80476Y-41253D01*
X80462Y-41224D01*
X80462Y-41196D01*
X80476Y-41167D01*
X80491Y-41153D01*
X80519Y-41138D01*
X80591Y-41138D01*
X80634Y-41153D01*
X80691Y-41467D02*
X80920Y-41467D01*
X80991Y-41438D02*
X80991Y-41138D01*
X81163Y-41438D01*
X81163Y-41138D01*
X74618Y-33805D02*
X74590Y-33791D01*
X74561Y-33762D01*
X74518Y-33719D01*
X74490Y-33705D01*
X74461Y-33705D01*
X74476Y-33776D02*
X74447Y-33762D01*
X74418Y-33734D01*
X74404Y-33676D01*
X74404Y-33576D01*
X74418Y-33519D01*
X74447Y-33491D01*
X74476Y-33476D01*
X74533Y-33476D01*
X74561Y-33491D01*
X74590Y-33519D01*
X74604Y-33576D01*
X74604Y-33676D01*
X74590Y-33734D01*
X74561Y-33762D01*
X74533Y-33776D01*
X74476Y-33776D01*
X74890Y-33776D02*
X74718Y-33776D01*
X74804Y-33776D02*
X74804Y-33476D01*
X74775Y-33519D01*
X74747Y-33548D01*
X74718Y-33562D01*
X75176Y-33776D02*
X75004Y-33776D01*
X75090Y-33776D02*
X75090Y-33476D01*
X75061Y-33519D01*
X75033Y-33548D01*
X75004Y-33562D01*
X74118Y-32926D02*
X74118Y-32626D01*
X74218Y-32841D01*
X74318Y-32626D01*
X74318Y-32926D01*
X74519Y-32626D02*
X74576Y-32626D01*
X74604Y-32641D01*
X74633Y-32669D01*
X74647Y-32726D01*
X74647Y-32826D01*
X74633Y-32884D01*
X74604Y-32912D01*
X74576Y-32926D01*
X74519Y-32926D01*
X74490Y-32912D01*
X74461Y-32884D01*
X74447Y-32826D01*
X74447Y-32726D01*
X74461Y-32669D01*
X74490Y-32641D01*
X74519Y-32626D01*
X74761Y-32912D02*
X74804Y-32926D01*
X74875Y-32926D01*
X74904Y-32912D01*
X74918Y-32898D01*
X74933Y-32869D01*
X74933Y-32841D01*
X74918Y-32812D01*
X74904Y-32798D01*
X74875Y-32784D01*
X74818Y-32769D01*
X74790Y-32755D01*
X74775Y-32741D01*
X74761Y-32712D01*
X74761Y-32684D01*
X74775Y-32655D01*
X74790Y-32641D01*
X74818Y-32626D01*
X74890Y-32626D01*
X74933Y-32641D01*
X74990Y-32955D02*
X75219Y-32955D01*
X75290Y-32926D02*
X75290Y-32626D01*
X75462Y-32926D01*
X75462Y-32626D01*
X74525Y-29525D02*
X74497Y-29511D01*
X74468Y-29482D01*
X74425Y-29439D01*
X74397Y-29425D01*
X74368Y-29425D01*
X74383Y-29496D02*
X74354Y-29482D01*
X74325Y-29454D01*
X74311Y-29396D01*
X74311Y-29296D01*
X74325Y-29239D01*
X74354Y-29211D01*
X74383Y-29196D01*
X74440Y-29196D01*
X74468Y-29211D01*
X74497Y-29239D01*
X74511Y-29296D01*
X74511Y-29396D01*
X74497Y-29454D01*
X74468Y-29482D01*
X74440Y-29496D01*
X74383Y-29496D01*
X74797Y-29496D02*
X74625Y-29496D01*
X74711Y-29496D02*
X74711Y-29196D01*
X74682Y-29239D01*
X74654Y-29268D01*
X74625Y-29282D01*
X74911Y-29225D02*
X74925Y-29211D01*
X74954Y-29196D01*
X75025Y-29196D01*
X75054Y-29211D01*
X75068Y-29225D01*
X75083Y-29254D01*
X75083Y-29282D01*
X75068Y-29325D01*
X74897Y-29496D01*
X75083Y-29496D01*
X74025Y-28646D02*
X74025Y-28346D01*
X74125Y-28561D01*
X74225Y-28346D01*
X74225Y-28646D01*
X74426Y-28346D02*
X74483Y-28346D01*
X74511Y-28361D01*
X74540Y-28389D01*
X74554Y-28446D01*
X74554Y-28546D01*
X74540Y-28604D01*
X74511Y-28632D01*
X74483Y-28646D01*
X74426Y-28646D01*
X74397Y-28632D01*
X74368Y-28604D01*
X74354Y-28546D01*
X74354Y-28446D01*
X74368Y-28389D01*
X74397Y-28361D01*
X74426Y-28346D01*
X74668Y-28632D02*
X74711Y-28646D01*
X74782Y-28646D01*
X74811Y-28632D01*
X74825Y-28618D01*
X74840Y-28589D01*
X74840Y-28561D01*
X74825Y-28532D01*
X74811Y-28518D01*
X74782Y-28504D01*
X74725Y-28489D01*
X74697Y-28475D01*
X74682Y-28461D01*
X74668Y-28432D01*
X74668Y-28404D01*
X74682Y-28375D01*
X74697Y-28361D01*
X74725Y-28346D01*
X74797Y-28346D01*
X74840Y-28361D01*
X74897Y-28675D02*
X75126Y-28675D01*
X75197Y-28646D02*
X75197Y-28346D01*
X75369Y-28646D01*
X75369Y-28346D01*
X77413Y-33765D02*
X77385Y-33751D01*
X77356Y-33722D01*
X77313Y-33679D01*
X77285Y-33665D01*
X77256Y-33665D01*
X77271Y-33736D02*
X77242Y-33722D01*
X77213Y-33694D01*
X77199Y-33636D01*
X77199Y-33536D01*
X77213Y-33479D01*
X77242Y-33451D01*
X77271Y-33436D01*
X77328Y-33436D01*
X77356Y-33451D01*
X77385Y-33479D01*
X77399Y-33536D01*
X77399Y-33636D01*
X77385Y-33694D01*
X77356Y-33722D01*
X77328Y-33736D01*
X77271Y-33736D01*
X77685Y-33736D02*
X77513Y-33736D01*
X77599Y-33736D02*
X77599Y-33436D01*
X77570Y-33479D01*
X77542Y-33508D01*
X77513Y-33522D01*
X77942Y-33536D02*
X77942Y-33736D01*
X77871Y-33422D02*
X77799Y-33636D01*
X77985Y-33636D01*
X76913Y-32886D02*
X76913Y-32586D01*
X77013Y-32801D01*
X77113Y-32586D01*
X77113Y-32886D01*
X77314Y-32586D02*
X77371Y-32586D01*
X77399Y-32601D01*
X77428Y-32629D01*
X77442Y-32686D01*
X77442Y-32786D01*
X77428Y-32844D01*
X77399Y-32872D01*
X77371Y-32886D01*
X77314Y-32886D01*
X77285Y-32872D01*
X77256Y-32844D01*
X77242Y-32786D01*
X77242Y-32686D01*
X77256Y-32629D01*
X77285Y-32601D01*
X77314Y-32586D01*
X77556Y-32872D02*
X77599Y-32886D01*
X77670Y-32886D01*
X77699Y-32872D01*
X77713Y-32858D01*
X77728Y-32829D01*
X77728Y-32801D01*
X77713Y-32772D01*
X77699Y-32758D01*
X77670Y-32744D01*
X77613Y-32729D01*
X77585Y-32715D01*
X77570Y-32701D01*
X77556Y-32672D01*
X77556Y-32644D01*
X77570Y-32615D01*
X77585Y-32601D01*
X77613Y-32586D01*
X77685Y-32586D01*
X77728Y-32601D01*
X77785Y-32915D02*
X78014Y-32915D01*
X78085Y-32886D02*
X78085Y-32586D01*
X78257Y-32886D01*
X78257Y-32586D01*
G54D13*
X55127Y-28919D02*
X55370Y-28919D01*
X55399Y-28904D01*
X55413Y-28890D01*
X55427Y-28861D01*
X55427Y-28804D01*
X55413Y-28776D01*
X55399Y-28761D01*
X55370Y-28747D01*
X55127Y-28747D01*
X55156Y-28619D02*
X55142Y-28605D01*
X55127Y-28576D01*
X55127Y-28505D01*
X55142Y-28476D01*
X55156Y-28462D01*
X55185Y-28447D01*
X55213Y-28447D01*
X55256Y-28462D01*
X55427Y-28633D01*
X55427Y-28447D01*
X56477Y-29998D02*
X56177Y-29998D01*
X56177Y-29883D01*
X56192Y-29855D01*
X56206Y-29840D01*
X56235Y-29826D01*
X56277Y-29826D01*
X56306Y-29840D01*
X56320Y-29855D01*
X56335Y-29883D01*
X56335Y-29998D01*
X56477Y-29555D02*
X56477Y-29698D01*
X56177Y-29698D01*
X56363Y-29455D02*
X56363Y-29226D01*
X56206Y-29098D02*
X56192Y-29084D01*
X56177Y-29055D01*
X56177Y-28984D01*
X56192Y-28955D01*
X56206Y-28941D01*
X56235Y-28926D01*
X56263Y-28926D01*
X56306Y-28941D01*
X56477Y-29112D01*
X56477Y-28926D01*
X56177Y-28826D02*
X56177Y-28640D01*
X56292Y-28740D01*
X56292Y-28698D01*
X56306Y-28669D01*
X56320Y-28655D01*
X56349Y-28640D01*
X56420Y-28640D01*
X56449Y-28655D01*
X56463Y-28669D01*
X56477Y-28698D01*
X56477Y-28783D01*
X56463Y-28812D01*
X56449Y-28826D01*
X56177Y-28454D02*
X56177Y-28426D01*
X56192Y-28397D01*
X56206Y-28383D01*
X56235Y-28369D01*
X56292Y-28354D01*
X56363Y-28354D01*
X56420Y-28369D01*
X56449Y-28383D01*
X56463Y-28397D01*
X56477Y-28426D01*
X56477Y-28454D01*
X56463Y-28483D01*
X56449Y-28497D01*
X56420Y-28512D01*
X56363Y-28526D01*
X56292Y-28526D01*
X56235Y-28512D01*
X56206Y-28497D01*
X56192Y-28483D01*
X56177Y-28454D01*
X56177Y-28254D02*
X56177Y-28068D01*
X56292Y-28168D01*
X56292Y-28126D01*
X56306Y-28097D01*
X56320Y-28083D01*
X56349Y-28068D01*
X56420Y-28068D01*
X56449Y-28083D01*
X56463Y-28097D01*
X56477Y-28126D01*
X56477Y-28211D01*
X56463Y-28240D01*
X56449Y-28254D01*
X56477Y-27940D02*
X56177Y-27940D01*
X56320Y-27940D02*
X56320Y-27768D01*
X56477Y-27768D02*
X56177Y-27768D01*
X56177Y-27654D02*
X56477Y-27454D01*
X56177Y-27454D02*
X56477Y-27654D01*
G54D10*
X59214Y-26880D02*
X59538Y-26880D01*
X59576Y-26861D01*
X59595Y-26842D01*
X59614Y-26804D01*
X59614Y-26727D01*
X59595Y-26689D01*
X59576Y-26670D01*
X59538Y-26651D01*
X59214Y-26651D01*
X59614Y-26251D02*
X59614Y-26480D01*
X59614Y-26366D02*
X59214Y-26366D01*
X59271Y-26404D01*
X59309Y-26442D01*
X59328Y-26480D01*
G54D18*
X41306Y-35541D02*
X41792Y-35541D01*
X41849Y-35522D01*
X41877Y-35503D01*
X41906Y-35465D01*
X41906Y-35388D01*
X41877Y-35350D01*
X41849Y-35331D01*
X41792Y-35312D01*
X41306Y-35312D01*
X41506Y-34950D02*
X41906Y-34950D01*
X41277Y-35046D02*
X41706Y-35141D01*
X41706Y-34893D01*
X41573Y-32979D02*
X41382Y-32979D01*
X41382Y-32379D01*
X41706Y-32979D02*
X41706Y-32379D01*
X41840Y-32807D01*
X41973Y-32379D01*
X41973Y-32979D01*
X42373Y-32979D02*
X42144Y-32979D01*
X42258Y-32979D02*
X42258Y-32379D01*
X42220Y-32465D01*
X42182Y-32522D01*
X42144Y-32550D01*
X42620Y-32379D02*
X42659Y-32379D01*
X42697Y-32407D01*
X42716Y-32436D01*
X42735Y-32493D01*
X42754Y-32607D01*
X42754Y-32750D01*
X42735Y-32865D01*
X42716Y-32922D01*
X42697Y-32950D01*
X42659Y-32979D01*
X42620Y-32979D01*
X42582Y-32950D01*
X42563Y-32922D01*
X42544Y-32865D01*
X42525Y-32750D01*
X42525Y-32607D01*
X42544Y-32493D01*
X42563Y-32436D01*
X42582Y-32407D01*
X42620Y-32379D01*
X42982Y-32636D02*
X42944Y-32607D01*
X42925Y-32579D01*
X42906Y-32522D01*
X42906Y-32493D01*
X42925Y-32436D01*
X42944Y-32407D01*
X42982Y-32379D01*
X43059Y-32379D01*
X43097Y-32407D01*
X43116Y-32436D01*
X43135Y-32493D01*
X43135Y-32522D01*
X43116Y-32579D01*
X43097Y-32607D01*
X43059Y-32636D01*
X42982Y-32636D01*
X42944Y-32665D01*
X42925Y-32693D01*
X42906Y-32750D01*
X42906Y-32865D01*
X42925Y-32922D01*
X42944Y-32950D01*
X42982Y-32979D01*
X43059Y-32979D01*
X43097Y-32950D01*
X43116Y-32922D01*
X43135Y-32865D01*
X43135Y-32750D01*
X43116Y-32693D01*
X43097Y-32665D01*
X43059Y-32636D01*
X43478Y-32579D02*
X43478Y-32979D01*
X43382Y-32350D02*
X43287Y-32779D01*
X43535Y-32779D01*
X43687Y-32750D02*
X43992Y-32750D01*
X44144Y-32379D02*
X44392Y-32379D01*
X44258Y-32607D01*
X44316Y-32607D01*
X44354Y-32636D01*
X44373Y-32665D01*
X44392Y-32722D01*
X44392Y-32865D01*
X44373Y-32922D01*
X44354Y-32950D01*
X44316Y-32979D01*
X44201Y-32979D01*
X44163Y-32950D01*
X44144Y-32922D01*
X44563Y-32922D02*
X44582Y-32950D01*
X44563Y-32979D01*
X44544Y-32950D01*
X44563Y-32922D01*
X44563Y-32979D01*
X44715Y-32379D02*
X44963Y-32379D01*
X44829Y-32607D01*
X44887Y-32607D01*
X44925Y-32636D01*
X44944Y-32665D01*
X44963Y-32722D01*
X44963Y-32865D01*
X44944Y-32922D01*
X44925Y-32950D01*
X44887Y-32979D01*
X44772Y-32979D01*
X44734Y-32950D01*
X44715Y-32922D01*
G54D12*
X42419Y-27169D02*
X42847Y-27169D01*
X42933Y-27197D01*
X42990Y-27254D01*
X43019Y-27340D01*
X43019Y-27397D01*
X43019Y-26569D02*
X43019Y-26912D01*
X43019Y-26740D02*
X42419Y-26740D01*
X42505Y-26797D01*
X42562Y-26855D01*
X42590Y-26912D01*
X44919Y-27726D02*
X45405Y-27726D01*
X45462Y-27698D01*
X45490Y-27669D01*
X45519Y-27612D01*
X45519Y-27498D01*
X45490Y-27440D01*
X45462Y-27412D01*
X45405Y-27383D01*
X44919Y-27383D01*
X45490Y-27126D02*
X45519Y-27040D01*
X45519Y-26897D01*
X45490Y-26840D01*
X45462Y-26811D01*
X45405Y-26783D01*
X45347Y-26783D01*
X45290Y-26811D01*
X45262Y-26840D01*
X45233Y-26897D01*
X45205Y-27011D01*
X45176Y-27069D01*
X45147Y-27097D01*
X45090Y-27126D01*
X45033Y-27126D01*
X44976Y-27097D01*
X44947Y-27069D01*
X44919Y-27011D01*
X44919Y-26869D01*
X44947Y-26783D01*
X45205Y-26326D02*
X45233Y-26240D01*
X45262Y-26212D01*
X45319Y-26183D01*
X45405Y-26183D01*
X45462Y-26212D01*
X45490Y-26240D01*
X45519Y-26298D01*
X45519Y-26526D01*
X44919Y-26526D01*
X44919Y-26326D01*
X44947Y-26269D01*
X44976Y-26240D01*
X45033Y-26212D01*
X45090Y-26212D01*
X45147Y-26240D01*
X45176Y-26269D01*
X45205Y-26326D01*
X45205Y-26526D01*
G54D13*
X59059Y-33389D02*
X58959Y-33247D01*
X58887Y-33389D02*
X58887Y-33089D01*
X59002Y-33089D01*
X59030Y-33104D01*
X59045Y-33118D01*
X59059Y-33147D01*
X59059Y-33189D01*
X59045Y-33218D01*
X59030Y-33232D01*
X59002Y-33247D01*
X58887Y-33247D01*
X59316Y-33189D02*
X59316Y-33389D01*
X59245Y-33075D02*
X59173Y-33289D01*
X59359Y-33289D01*
X59459Y-33118D02*
X59473Y-33104D01*
X59502Y-33089D01*
X59573Y-33089D01*
X59602Y-33104D01*
X59616Y-33118D01*
X59631Y-33147D01*
X59631Y-33175D01*
X59616Y-33218D01*
X59445Y-33389D01*
X59631Y-33389D01*
X73093Y-35193D02*
X73107Y-35207D01*
X73121Y-35250D01*
X73121Y-35279D01*
X73107Y-35322D01*
X73079Y-35350D01*
X73050Y-35365D01*
X72993Y-35379D01*
X72950Y-35379D01*
X72893Y-35365D01*
X72864Y-35350D01*
X72836Y-35322D01*
X72821Y-35279D01*
X72821Y-35250D01*
X72836Y-35207D01*
X72850Y-35193D01*
X73121Y-34907D02*
X73121Y-35079D01*
X73121Y-34993D02*
X72821Y-34993D01*
X72864Y-35022D01*
X72893Y-35050D01*
X72907Y-35079D01*
X72821Y-34636D02*
X72821Y-34779D01*
X72964Y-34793D01*
X72950Y-34779D01*
X72936Y-34750D01*
X72936Y-34679D01*
X72950Y-34650D01*
X72964Y-34636D01*
X72993Y-34621D01*
X73064Y-34621D01*
X73093Y-34636D01*
X73107Y-34650D01*
X73121Y-34679D01*
X73121Y-34750D01*
X73107Y-34779D01*
X73093Y-34793D01*
X73343Y-43943D02*
X73357Y-43957D01*
X73371Y-44000D01*
X73371Y-44029D01*
X73357Y-44072D01*
X73329Y-44100D01*
X73300Y-44115D01*
X73243Y-44129D01*
X73200Y-44129D01*
X73143Y-44115D01*
X73114Y-44100D01*
X73086Y-44072D01*
X73071Y-44029D01*
X73071Y-44000D01*
X73086Y-43957D01*
X73100Y-43943D01*
X73371Y-43657D02*
X73371Y-43829D01*
X73371Y-43743D02*
X73071Y-43743D01*
X73114Y-43772D01*
X73143Y-43800D01*
X73157Y-43829D01*
X73171Y-43400D02*
X73371Y-43400D01*
X73057Y-43471D02*
X73271Y-43543D01*
X73271Y-43357D01*
X72843Y-26943D02*
X72857Y-26957D01*
X72871Y-27000D01*
X72871Y-27029D01*
X72857Y-27072D01*
X72829Y-27100D01*
X72800Y-27115D01*
X72743Y-27129D01*
X72700Y-27129D01*
X72643Y-27115D01*
X72614Y-27100D01*
X72586Y-27072D01*
X72571Y-27029D01*
X72571Y-27000D01*
X72586Y-26957D01*
X72600Y-26943D01*
X72871Y-26657D02*
X72871Y-26829D01*
X72871Y-26743D02*
X72571Y-26743D01*
X72614Y-26772D01*
X72643Y-26800D01*
X72657Y-26829D01*
X72571Y-26557D02*
X72571Y-26371D01*
X72686Y-26471D01*
X72686Y-26429D01*
X72700Y-26400D01*
X72714Y-26386D01*
X72743Y-26371D01*
X72814Y-26371D01*
X72843Y-26386D01*
X72857Y-26400D01*
X72871Y-26429D01*
X72871Y-26514D01*
X72857Y-26543D01*
X72843Y-26557D01*
X73093Y-30943D02*
X73107Y-30957D01*
X73121Y-31000D01*
X73121Y-31029D01*
X73107Y-31072D01*
X73079Y-31100D01*
X73050Y-31115D01*
X72993Y-31129D01*
X72950Y-31129D01*
X72893Y-31115D01*
X72864Y-31100D01*
X72836Y-31072D01*
X72821Y-31029D01*
X72821Y-31000D01*
X72836Y-30957D01*
X72850Y-30943D01*
X73121Y-30657D02*
X73121Y-30829D01*
X73121Y-30743D02*
X72821Y-30743D01*
X72864Y-30772D01*
X72893Y-30800D01*
X72907Y-30829D01*
X72850Y-30543D02*
X72836Y-30529D01*
X72821Y-30500D01*
X72821Y-30429D01*
X72836Y-30400D01*
X72850Y-30386D01*
X72879Y-30371D01*
X72907Y-30371D01*
X72950Y-30386D01*
X73121Y-30557D01*
X73121Y-30371D01*
X73093Y-39443D02*
X73107Y-39457D01*
X73121Y-39500D01*
X73121Y-39529D01*
X73107Y-39572D01*
X73079Y-39600D01*
X73050Y-39615D01*
X72993Y-39629D01*
X72950Y-39629D01*
X72893Y-39615D01*
X72864Y-39600D01*
X72836Y-39572D01*
X72821Y-39529D01*
X72821Y-39500D01*
X72836Y-39457D01*
X72850Y-39443D01*
X73121Y-39157D02*
X73121Y-39329D01*
X73121Y-39243D02*
X72821Y-39243D01*
X72864Y-39272D01*
X72893Y-39300D01*
X72907Y-39329D01*
X72821Y-38900D02*
X72821Y-38957D01*
X72836Y-38986D01*
X72850Y-39000D01*
X72893Y-39029D01*
X72950Y-39043D01*
X73064Y-39043D01*
X73093Y-39029D01*
X73107Y-39014D01*
X73121Y-38986D01*
X73121Y-38929D01*
X73107Y-38900D01*
X73093Y-38886D01*
X73064Y-38871D01*
X72993Y-38871D01*
X72964Y-38886D01*
X72950Y-38900D01*
X72936Y-38929D01*
X72936Y-38986D01*
X72950Y-39014D01*
X72964Y-39029D01*
X72993Y-39043D01*
X68304Y-41405D02*
X68328Y-41424D01*
X68351Y-41481D01*
X68351Y-41519D01*
X68328Y-41577D01*
X68280Y-41615D01*
X68232Y-41634D01*
X68137Y-41653D01*
X68066Y-41653D01*
X67970Y-41634D01*
X67923Y-41615D01*
X67875Y-41577D01*
X67851Y-41519D01*
X67851Y-41481D01*
X67875Y-41424D01*
X67899Y-41405D01*
X68066Y-41177D02*
X68042Y-41215D01*
X68018Y-41234D01*
X67970Y-41253D01*
X67947Y-41253D01*
X67899Y-41234D01*
X67875Y-41215D01*
X67851Y-41177D01*
X67851Y-41100D01*
X67875Y-41062D01*
X67899Y-41043D01*
X67947Y-41024D01*
X67970Y-41024D01*
X68018Y-41043D01*
X68042Y-41062D01*
X68066Y-41100D01*
X68066Y-41177D01*
X68089Y-41215D01*
X68113Y-41234D01*
X68161Y-41253D01*
X68256Y-41253D01*
X68304Y-41234D01*
X68328Y-41215D01*
X68351Y-41177D01*
X68351Y-41100D01*
X68328Y-41062D01*
X68304Y-41043D01*
X68256Y-41024D01*
X68161Y-41024D01*
X68113Y-41043D01*
X68089Y-41062D01*
X68066Y-41100D01*
G54D10*
X65477Y-41865D02*
X65477Y-42094D01*
X65477Y-41980D02*
X65077Y-41980D01*
X65134Y-42018D01*
X65172Y-42056D01*
X65191Y-42094D01*
X65077Y-41618D02*
X65077Y-41579D01*
X65096Y-41541D01*
X65115Y-41522D01*
X65153Y-41503D01*
X65229Y-41484D01*
X65325Y-41484D01*
X65401Y-41503D01*
X65439Y-41522D01*
X65458Y-41541D01*
X65477Y-41579D01*
X65477Y-41618D01*
X65458Y-41656D01*
X65439Y-41675D01*
X65401Y-41694D01*
X65325Y-41713D01*
X65229Y-41713D01*
X65153Y-41694D01*
X65115Y-41675D01*
X65096Y-41656D01*
X65077Y-41618D01*
X65077Y-41237D02*
X65077Y-41198D01*
X65096Y-41160D01*
X65115Y-41141D01*
X65153Y-41122D01*
X65229Y-41103D01*
X65325Y-41103D01*
X65401Y-41122D01*
X65439Y-41141D01*
X65458Y-41160D01*
X65477Y-41198D01*
X65477Y-41237D01*
X65458Y-41275D01*
X65439Y-41294D01*
X65401Y-41313D01*
X65325Y-41332D01*
X65229Y-41332D01*
X65153Y-41313D01*
X65115Y-41294D01*
X65096Y-41275D01*
X65077Y-41237D01*
X65210Y-40760D02*
X65477Y-40760D01*
X65210Y-40932D02*
X65420Y-40932D01*
X65458Y-40913D01*
X65477Y-40875D01*
X65477Y-40817D01*
X65458Y-40779D01*
X65439Y-40760D01*
G54D13*
X75721Y-24407D02*
X75702Y-24431D01*
X75645Y-24454D01*
X75607Y-24454D01*
X75549Y-24431D01*
X75511Y-24383D01*
X75492Y-24335D01*
X75473Y-24240D01*
X75473Y-24169D01*
X75492Y-24073D01*
X75511Y-24026D01*
X75549Y-23978D01*
X75607Y-23954D01*
X75645Y-23954D01*
X75702Y-23978D01*
X75721Y-24002D01*
X75911Y-24454D02*
X75987Y-24454D01*
X76026Y-24431D01*
X76045Y-24407D01*
X76083Y-24335D01*
X76102Y-24240D01*
X76102Y-24050D01*
X76083Y-24002D01*
X76064Y-23978D01*
X76026Y-23954D01*
X75949Y-23954D01*
X75911Y-23978D01*
X75892Y-24002D01*
X75873Y-24050D01*
X75873Y-24169D01*
X75892Y-24216D01*
X75911Y-24240D01*
X75949Y-24264D01*
X76026Y-24264D01*
X76064Y-24240D01*
X76083Y-24216D01*
X76102Y-24169D01*
G54D10*
X75261Y-21580D02*
X75032Y-21580D01*
X75146Y-21580D02*
X75146Y-21180D01*
X75108Y-21237D01*
X75070Y-21275D01*
X75032Y-21294D01*
X75508Y-21180D02*
X75547Y-21180D01*
X75585Y-21199D01*
X75604Y-21218D01*
X75623Y-21256D01*
X75642Y-21332D01*
X75642Y-21428D01*
X75623Y-21504D01*
X75604Y-21542D01*
X75585Y-21561D01*
X75547Y-21580D01*
X75508Y-21580D01*
X75470Y-21561D01*
X75451Y-21542D01*
X75432Y-21504D01*
X75413Y-21428D01*
X75413Y-21332D01*
X75432Y-21256D01*
X75451Y-21218D01*
X75470Y-21199D01*
X75508Y-21180D01*
X75889Y-21180D02*
X75928Y-21180D01*
X75966Y-21199D01*
X75985Y-21218D01*
X76004Y-21256D01*
X76023Y-21332D01*
X76023Y-21428D01*
X76004Y-21504D01*
X75985Y-21542D01*
X75966Y-21561D01*
X75928Y-21580D01*
X75889Y-21580D01*
X75851Y-21561D01*
X75832Y-21542D01*
X75813Y-21504D01*
X75794Y-21428D01*
X75794Y-21332D01*
X75813Y-21256D01*
X75832Y-21218D01*
X75851Y-21199D01*
X75889Y-21180D01*
X76366Y-21313D02*
X76366Y-21580D01*
X76194Y-21313D02*
X76194Y-21523D01*
X76213Y-21561D01*
X76251Y-21580D01*
X76309Y-21580D01*
X76347Y-21561D01*
X76366Y-21542D01*
G54D13*
X48422Y-34903D02*
X48446Y-34922D01*
X48469Y-34979D01*
X48469Y-35017D01*
X48446Y-35075D01*
X48398Y-35113D01*
X48350Y-35132D01*
X48255Y-35151D01*
X48184Y-35151D01*
X48088Y-35132D01*
X48041Y-35113D01*
X47993Y-35075D01*
X47969Y-35017D01*
X47969Y-34979D01*
X47993Y-34922D01*
X48017Y-34903D01*
X48469Y-34522D02*
X48469Y-34751D01*
X48469Y-34637D02*
X47969Y-34637D01*
X48041Y-34675D01*
X48088Y-34713D01*
X48112Y-34751D01*
X48469Y-34141D02*
X48469Y-34370D01*
X48469Y-34256D02*
X47969Y-34256D01*
X48041Y-34294D01*
X48088Y-34332D01*
X48112Y-34370D01*
G54D10*
X45595Y-35172D02*
X45595Y-35401D01*
X45595Y-35287D02*
X45195Y-35287D01*
X45252Y-35325D01*
X45290Y-35363D01*
X45309Y-35401D01*
X45195Y-34925D02*
X45195Y-34886D01*
X45214Y-34848D01*
X45233Y-34829D01*
X45271Y-34810D01*
X45347Y-34791D01*
X45443Y-34791D01*
X45519Y-34810D01*
X45557Y-34829D01*
X45576Y-34848D01*
X45595Y-34886D01*
X45595Y-34925D01*
X45576Y-34963D01*
X45557Y-34982D01*
X45519Y-35001D01*
X45443Y-35020D01*
X45347Y-35020D01*
X45271Y-35001D01*
X45233Y-34982D01*
X45214Y-34963D01*
X45195Y-34925D01*
X45195Y-34544D02*
X45195Y-34505D01*
X45214Y-34467D01*
X45233Y-34448D01*
X45271Y-34429D01*
X45347Y-34410D01*
X45443Y-34410D01*
X45519Y-34429D01*
X45557Y-34448D01*
X45576Y-34467D01*
X45595Y-34505D01*
X45595Y-34544D01*
X45576Y-34582D01*
X45557Y-34601D01*
X45519Y-34620D01*
X45443Y-34639D01*
X45347Y-34639D01*
X45271Y-34620D01*
X45233Y-34601D01*
X45214Y-34582D01*
X45195Y-34544D01*
X45328Y-34067D02*
X45595Y-34067D01*
X45328Y-34239D02*
X45538Y-34239D01*
X45576Y-34220D01*
X45595Y-34182D01*
X45595Y-34124D01*
X45576Y-34086D01*
X45557Y-34067D01*
G54D13*
X57813Y-41405D02*
X57813Y-41596D01*
X57313Y-41596D01*
X57813Y-41062D02*
X57813Y-41291D01*
X57813Y-41177D02*
X57313Y-41177D01*
X57385Y-41215D01*
X57432Y-41253D01*
X57456Y-41291D01*
G54D10*
X59123Y-41605D02*
X59123Y-41834D01*
X59123Y-41720D02*
X58723Y-41720D01*
X58780Y-41758D01*
X58818Y-41796D01*
X58837Y-41834D01*
X58723Y-41358D02*
X58723Y-41319D01*
X58742Y-41281D01*
X58761Y-41262D01*
X58799Y-41243D01*
X58875Y-41224D01*
X58971Y-41224D01*
X59047Y-41243D01*
X59085Y-41262D01*
X59104Y-41281D01*
X59123Y-41319D01*
X59123Y-41358D01*
X59104Y-41396D01*
X59085Y-41415D01*
X59047Y-41434D01*
X58971Y-41453D01*
X58875Y-41453D01*
X58799Y-41434D01*
X58761Y-41415D01*
X58742Y-41396D01*
X58723Y-41358D01*
X58723Y-40977D02*
X58723Y-40938D01*
X58742Y-40900D01*
X58761Y-40881D01*
X58799Y-40862D01*
X58875Y-40843D01*
X58971Y-40843D01*
X59047Y-40862D01*
X59085Y-40881D01*
X59104Y-40900D01*
X59123Y-40938D01*
X59123Y-40977D01*
X59104Y-41015D01*
X59085Y-41034D01*
X59047Y-41053D01*
X58971Y-41072D01*
X58875Y-41072D01*
X58799Y-41053D01*
X58761Y-41034D01*
X58742Y-41015D01*
X58723Y-40977D01*
G54D16*
X42681Y-20379D02*
X42452Y-20379D01*
X42566Y-20379D02*
X42566Y-19979D01*
X42528Y-20036D01*
X42490Y-20074D01*
X42452Y-20093D01*
X42852Y-20379D02*
X42852Y-19979D01*
X43005Y-19979D01*
X43043Y-19998D01*
X43062Y-20017D01*
X43081Y-20055D01*
X43081Y-20112D01*
X43062Y-20150D01*
X43043Y-20169D01*
X43005Y-20188D01*
X42852Y-20188D01*
X43252Y-20379D02*
X43252Y-19979D01*
X43442Y-20379D02*
X43442Y-19979D01*
X43671Y-20379D01*
X43671Y-19979D01*
X42681Y-44868D02*
X42452Y-44868D01*
X42566Y-44868D02*
X42566Y-44468D01*
X42528Y-44525D01*
X42490Y-44563D01*
X42452Y-44582D01*
X42852Y-44868D02*
X42852Y-44468D01*
X43005Y-44468D01*
X43043Y-44487D01*
X43062Y-44506D01*
X43081Y-44544D01*
X43081Y-44601D01*
X43062Y-44639D01*
X43043Y-44658D01*
X43005Y-44677D01*
X42852Y-44677D01*
X43252Y-44868D02*
X43252Y-44468D01*
X43442Y-44868D02*
X43442Y-44468D01*
X43671Y-44868D01*
X43671Y-44468D01*
X87838Y-20379D02*
X87609Y-20379D01*
X87723Y-20379D02*
X87723Y-19979D01*
X87685Y-20036D01*
X87647Y-20074D01*
X87609Y-20093D01*
X88009Y-20379D02*
X88009Y-19979D01*
X88162Y-19979D01*
X88200Y-19998D01*
X88219Y-20017D01*
X88238Y-20055D01*
X88238Y-20112D01*
X88219Y-20150D01*
X88200Y-20169D01*
X88162Y-20188D01*
X88009Y-20188D01*
X88409Y-20379D02*
X88409Y-19979D01*
X88599Y-20379D02*
X88599Y-19979D01*
X88828Y-20379D01*
X88828Y-19979D01*
X87838Y-44868D02*
X87609Y-44868D01*
X87723Y-44868D02*
X87723Y-44468D01*
X87685Y-44525D01*
X87647Y-44563D01*
X87609Y-44582D01*
X88009Y-44868D02*
X88009Y-44468D01*
X88162Y-44468D01*
X88200Y-44487D01*
X88219Y-44506D01*
X88238Y-44544D01*
X88238Y-44601D01*
X88219Y-44639D01*
X88200Y-44658D01*
X88162Y-44677D01*
X88009Y-44677D01*
X88409Y-44868D02*
X88409Y-44468D01*
X88599Y-44868D02*
X88599Y-44468D01*
X88828Y-44868D01*
X88828Y-44468D01*
M02*
