G04 (created by PCBNEW-RS274X (2011-05-25)-stable) date Sun 18 Dec 2011 08:59:16 PM CET*
G01*
G70*
G90*
%MOIN*%
G04 Gerber Fmt 3.4, Leading zero omitted, Abs format*
%FSLAX34Y34*%
G04 APERTURE LIST*
%ADD10C,0.006000*%
%ADD11C,0.063000*%
%ADD12C,0.157500*%
%ADD13C,0.070900*%
%ADD14R,0.063000X0.060000*%
%ADD15C,0.078700*%
%ADD16C,0.082700*%
%ADD17C,0.061000*%
%ADD18C,0.196900*%
%ADD19C,0.315000*%
%ADD20C,0.035400*%
%ADD21C,0.035000*%
%ADD22C,0.011800*%
%ADD23C,0.010000*%
G04 APERTURE END LIST*
G54D10*
G54D11*
X54256Y-40035D03*
X53256Y-40035D03*
X52256Y-40035D03*
X51256Y-40035D03*
X51256Y-43035D03*
X52256Y-43035D03*
X53256Y-43035D03*
X54256Y-43035D03*
G54D12*
X85421Y-42675D03*
X85421Y-24175D03*
G54D11*
X84421Y-26925D03*
X84421Y-28025D03*
X84421Y-29075D03*
X84421Y-30175D03*
X84421Y-31275D03*
X84421Y-32375D03*
X84421Y-33425D03*
X84421Y-34525D03*
X84421Y-35625D03*
X84421Y-36725D03*
X84421Y-37775D03*
X84421Y-38875D03*
X84421Y-39975D03*
X85421Y-27545D03*
X85421Y-28545D03*
X85421Y-29645D03*
X85421Y-30725D03*
X85421Y-31805D03*
X85421Y-32905D03*
X85421Y-33985D03*
X85421Y-35065D03*
X85421Y-36185D03*
X85421Y-37245D03*
X85421Y-38325D03*
X85421Y-39425D03*
G54D13*
X54512Y-32480D03*
X56512Y-32480D03*
G54D14*
X69146Y-35131D03*
G54D11*
X69146Y-36131D03*
X64146Y-35131D03*
X68146Y-36131D03*
X63146Y-35131D03*
X67146Y-36131D03*
X62146Y-35131D03*
X66146Y-36131D03*
X61146Y-35131D03*
X65146Y-36131D03*
X60146Y-35131D03*
X64146Y-36131D03*
X59146Y-35131D03*
X63146Y-36131D03*
X58146Y-35131D03*
X62146Y-36131D03*
X57146Y-35131D03*
X61146Y-36131D03*
X56146Y-35131D03*
X60146Y-36131D03*
X55146Y-35131D03*
X59146Y-36131D03*
X54146Y-35131D03*
X58146Y-36131D03*
X57146Y-36131D03*
X53146Y-35131D03*
X56146Y-36131D03*
X54146Y-36131D03*
X53146Y-36131D03*
X52146Y-36131D03*
X51146Y-36131D03*
X52146Y-35131D03*
X51146Y-35131D03*
X68146Y-35131D03*
X67146Y-35131D03*
X66146Y-35131D03*
X65146Y-35131D03*
X50146Y-35131D03*
X50146Y-36131D03*
X55146Y-36131D03*
G54D14*
X69146Y-22138D03*
G54D11*
X69146Y-23138D03*
X64146Y-22138D03*
X68146Y-23138D03*
X63146Y-22138D03*
X67146Y-23138D03*
X62146Y-22138D03*
X66146Y-23138D03*
X61146Y-22138D03*
X65146Y-23138D03*
X60146Y-22138D03*
X64146Y-23138D03*
X59146Y-22138D03*
X63146Y-23138D03*
X58146Y-22138D03*
X62146Y-23138D03*
X57146Y-22138D03*
X61146Y-23138D03*
X56146Y-22138D03*
X60146Y-23138D03*
X55146Y-22138D03*
X59146Y-23138D03*
X54146Y-22138D03*
X58146Y-23138D03*
X57146Y-23138D03*
X53146Y-22138D03*
X56146Y-23138D03*
X54146Y-23138D03*
X53146Y-23138D03*
X52146Y-23138D03*
X51146Y-23138D03*
X52146Y-22138D03*
X51146Y-22138D03*
X68146Y-22138D03*
X67146Y-22138D03*
X66146Y-22138D03*
X65146Y-22138D03*
X50146Y-22138D03*
X50146Y-23138D03*
X55146Y-23138D03*
G54D15*
X42913Y-34236D03*
G54D16*
X42913Y-35236D03*
X42913Y-36236D03*
G54D17*
X47126Y-27469D03*
X47126Y-26469D03*
X46339Y-26469D03*
X46339Y-27469D03*
G54D18*
X45276Y-29331D03*
X45276Y-24607D03*
G54D19*
X43071Y-21417D03*
X43071Y-45906D03*
X88228Y-21417D03*
X88228Y-45906D03*
G54D20*
X79784Y-45409D03*
X85247Y-40713D03*
X68933Y-41559D03*
X67814Y-41271D03*
X76438Y-37423D03*
X78982Y-33963D03*
X71960Y-27153D03*
X72181Y-28343D03*
X69537Y-46045D03*
X83072Y-32412D03*
X69149Y-23808D03*
X76150Y-45065D03*
X69761Y-43564D03*
G54D21*
X85020Y-35584D03*
G54D20*
X79181Y-21685D03*
X87047Y-35581D03*
X68286Y-41280D03*
X67997Y-23752D03*
X78596Y-40737D03*
X79754Y-36875D03*
X80974Y-36311D03*
X76801Y-45931D03*
X78943Y-43494D03*
X55551Y-45630D03*
X61772Y-41024D03*
X77694Y-42724D03*
X74258Y-33846D03*
X76320Y-38797D03*
X77565Y-35106D03*
X79919Y-38054D03*
X76442Y-42678D03*
X74612Y-38048D03*
X72928Y-32454D03*
X76005Y-30827D03*
X72773Y-26704D03*
X72526Y-24298D03*
X79530Y-28025D03*
X76339Y-29964D03*
X76304Y-31448D03*
X67676Y-37618D03*
X67853Y-28765D03*
X73501Y-28736D03*
X80529Y-31561D03*
X67379Y-28782D03*
X75946Y-26694D03*
X66928Y-28132D03*
X74340Y-25419D03*
X67272Y-29706D03*
X71184Y-34468D03*
X86352Y-26100D03*
X81983Y-27090D03*
X63993Y-26276D03*
X69943Y-25468D03*
X77543Y-31405D03*
X76165Y-34072D03*
X77170Y-36843D03*
X72924Y-35000D03*
X74003Y-36888D03*
X49291Y-25956D03*
X49291Y-25137D03*
X58110Y-27520D03*
X55709Y-26299D03*
X49370Y-28336D03*
X53819Y-28346D03*
X49331Y-26969D03*
X76194Y-36475D03*
X75971Y-37947D03*
X74822Y-35675D03*
X81569Y-32638D03*
X81654Y-28553D03*
X69213Y-37247D03*
X86002Y-31061D03*
X82386Y-25852D03*
X68155Y-42841D03*
X50000Y-44646D03*
G54D22*
X80290Y-44903D02*
X79784Y-45409D01*
X80290Y-36619D02*
X80290Y-44903D01*
X79480Y-35809D02*
X80290Y-36619D01*
X79143Y-35809D02*
X79480Y-35809D01*
X76811Y-33477D02*
X79143Y-35809D01*
X75465Y-33477D02*
X76811Y-33477D01*
X67146Y-25158D02*
X75465Y-33477D01*
X67146Y-23138D02*
X67146Y-25158D01*
X85901Y-31461D02*
X86132Y-31692D01*
X67146Y-22138D02*
X67639Y-21645D01*
X67639Y-21645D02*
X69620Y-21645D01*
X69620Y-21645D02*
X69717Y-21742D01*
X69717Y-21742D02*
X69717Y-25193D01*
X69717Y-25193D02*
X69588Y-25322D01*
X69588Y-25322D02*
X69588Y-25622D01*
X69588Y-25622D02*
X71713Y-27747D01*
X71713Y-27747D02*
X72671Y-27747D01*
X72671Y-27747D02*
X73146Y-28222D01*
X73146Y-28222D02*
X73146Y-29473D01*
X73146Y-29473D02*
X75955Y-32282D01*
X75955Y-32282D02*
X77474Y-32282D01*
X77474Y-32282D02*
X78189Y-32997D01*
X78189Y-32997D02*
X81986Y-32997D01*
X81986Y-32997D02*
X84248Y-30735D01*
X84248Y-30735D02*
X84583Y-30735D01*
X84583Y-30735D02*
X85153Y-31305D01*
X85153Y-31305D02*
X85745Y-31305D01*
X85745Y-31305D02*
X85901Y-31461D01*
X85901Y-40059D02*
X85247Y-40713D01*
X86132Y-39828D02*
X85901Y-40059D01*
X86132Y-31692D02*
X86132Y-39828D01*
X68933Y-41423D02*
X68933Y-41559D01*
X64653Y-37143D02*
X68933Y-41423D01*
X64653Y-26434D02*
X64653Y-37143D01*
X61357Y-23138D02*
X64653Y-26434D01*
X61146Y-23138D02*
X61357Y-23138D01*
X58770Y-22638D02*
X58642Y-22766D01*
X58665Y-36579D02*
X63357Y-41271D01*
X63357Y-41271D02*
X67814Y-41271D01*
X60646Y-22638D02*
X58770Y-22638D01*
X60646Y-22638D02*
X61146Y-22138D01*
X58642Y-36556D02*
X58665Y-36579D01*
X58642Y-36378D02*
X58642Y-36556D01*
X58642Y-34774D02*
X58642Y-36378D01*
X58642Y-22766D02*
X58642Y-34774D01*
X76549Y-37312D02*
X76438Y-37423D01*
X76549Y-35572D02*
X76549Y-37312D01*
X64146Y-23169D02*
X76549Y-35572D01*
X64146Y-23138D02*
X64146Y-23169D01*
X83427Y-32269D02*
X84421Y-31275D01*
X83427Y-32559D02*
X83427Y-32269D01*
X82023Y-33963D02*
X83427Y-32559D01*
X78982Y-33963D02*
X82023Y-33963D01*
X71960Y-23548D02*
X71960Y-27153D01*
X69794Y-21382D02*
X71960Y-23548D01*
X64902Y-21382D02*
X69794Y-21382D01*
X64146Y-22138D02*
X64902Y-21382D01*
X72181Y-29182D02*
X72181Y-28343D01*
X75759Y-32760D02*
X72181Y-29182D01*
X77278Y-32760D02*
X75759Y-32760D01*
X78481Y-33963D02*
X77278Y-32760D01*
X78982Y-33963D02*
X78481Y-33963D01*
X68665Y-37303D02*
X68642Y-37280D01*
X68665Y-33789D02*
X68665Y-28738D01*
X68665Y-28738D02*
X67891Y-27964D01*
X67891Y-27964D02*
X67268Y-27964D01*
X67268Y-27964D02*
X62442Y-23138D01*
X62442Y-23138D02*
X62146Y-23138D01*
X68642Y-33812D02*
X68665Y-33789D01*
X68642Y-37280D02*
X68642Y-33812D01*
X68665Y-40097D02*
X68665Y-37303D01*
X68665Y-37303D02*
X68665Y-37283D01*
X69527Y-40959D02*
X68665Y-40097D01*
X69527Y-41894D02*
X69527Y-40959D01*
X69288Y-42133D02*
X69527Y-41894D01*
X69288Y-45796D02*
X69288Y-42133D01*
X69537Y-46045D02*
X69288Y-45796D01*
X82149Y-33335D02*
X83072Y-32412D01*
X78190Y-33335D02*
X82149Y-33335D01*
X77376Y-32521D02*
X78190Y-33335D01*
X75857Y-32521D02*
X77376Y-32521D01*
X72566Y-29230D02*
X75857Y-32521D01*
X72566Y-28019D02*
X72566Y-29230D01*
X72533Y-27986D02*
X72566Y-28019D01*
X71615Y-27986D02*
X72533Y-27986D01*
X69149Y-25520D02*
X71615Y-27986D01*
X69149Y-23808D02*
X69149Y-25520D01*
X84921Y-40207D02*
X84921Y-41476D01*
X84892Y-41505D02*
X79871Y-46526D01*
X79871Y-46526D02*
X76424Y-46526D01*
X76424Y-46526D02*
X76150Y-46252D01*
X76150Y-46252D02*
X76150Y-45065D01*
X84921Y-36125D02*
X84921Y-40207D01*
X84902Y-36106D02*
X84421Y-35625D01*
X84902Y-36106D02*
X84921Y-36125D01*
X84921Y-41476D02*
X84892Y-41505D01*
X63146Y-23165D02*
X63146Y-23138D01*
X67706Y-27725D02*
X63146Y-23165D01*
X67989Y-27725D02*
X67706Y-27725D01*
X69761Y-29497D02*
X67989Y-27725D01*
X69761Y-43564D02*
X69761Y-29497D01*
X84421Y-34525D02*
X84892Y-34996D01*
X84892Y-35456D02*
X85020Y-35584D01*
X84892Y-34996D02*
X84892Y-35456D01*
X79181Y-21685D02*
X85119Y-21685D01*
X85119Y-21685D02*
X87268Y-23834D01*
X87268Y-23834D02*
X87268Y-34819D01*
X87268Y-34819D02*
X87047Y-35581D01*
X84941Y-35505D02*
X85020Y-35584D01*
X68286Y-41113D02*
X68286Y-41280D01*
X63646Y-36473D02*
X68286Y-41113D01*
X63646Y-26638D02*
X63646Y-36473D01*
X60146Y-23138D02*
X63646Y-26638D01*
X80804Y-36719D02*
X79569Y-35484D01*
X79155Y-35484D02*
X79569Y-35484D01*
X76909Y-33238D02*
X79155Y-35484D01*
X75563Y-33238D02*
X76909Y-33238D01*
X67997Y-25672D02*
X75563Y-33238D01*
X67997Y-23752D02*
X67997Y-25672D01*
X81127Y-36719D02*
X80804Y-36719D01*
X84421Y-33425D02*
X81127Y-36719D01*
X79429Y-41570D02*
X78596Y-40737D01*
X79429Y-45578D02*
X79429Y-41570D01*
X79751Y-45900D02*
X79429Y-45578D01*
X79797Y-45900D02*
X79751Y-45900D01*
X80804Y-44893D02*
X79797Y-45900D01*
X80804Y-36719D02*
X80804Y-44893D01*
X79754Y-36757D02*
X79754Y-36875D01*
X76713Y-33716D02*
X79754Y-36757D01*
X75367Y-33716D02*
X76713Y-33716D01*
X66146Y-24495D02*
X75367Y-33716D01*
X66146Y-23138D02*
X66146Y-24495D01*
X80974Y-35061D02*
X80974Y-36311D01*
X84230Y-31805D02*
X85421Y-31805D01*
X83666Y-32369D02*
X84230Y-31805D01*
X83666Y-32657D02*
X83666Y-32369D01*
X81262Y-35061D02*
X83666Y-32657D01*
X80974Y-35061D02*
X81262Y-35061D01*
X79069Y-35061D02*
X80974Y-35061D01*
X77007Y-32999D02*
X79069Y-35061D01*
X75661Y-32999D02*
X77007Y-32999D01*
X68646Y-25984D02*
X75661Y-32999D01*
X68646Y-22690D02*
X68646Y-25984D01*
X68613Y-22657D02*
X68646Y-22690D01*
X66665Y-22657D02*
X68613Y-22657D01*
X66146Y-22138D02*
X66665Y-22657D01*
X76801Y-35487D02*
X76801Y-45931D01*
X65146Y-23832D02*
X76801Y-35487D01*
X65146Y-23138D02*
X65146Y-23832D01*
X78943Y-43494D02*
X78943Y-45429D01*
X79751Y-46237D02*
X78943Y-45429D01*
X79797Y-46237D02*
X79751Y-46237D01*
X83852Y-42182D02*
X79797Y-46237D01*
X83852Y-37294D02*
X83852Y-42182D01*
X84421Y-36725D02*
X83852Y-37294D01*
X64627Y-22657D02*
X65146Y-22138D01*
X63679Y-22657D02*
X64627Y-22657D01*
X63646Y-22690D02*
X63679Y-22657D01*
X63646Y-23328D02*
X63646Y-22690D01*
X67804Y-27486D02*
X63646Y-23328D01*
X68087Y-27486D02*
X67804Y-27486D01*
X72569Y-31968D02*
X68087Y-27486D01*
X72569Y-40003D02*
X72569Y-31968D01*
X76561Y-43995D02*
X72569Y-40003D01*
X76561Y-45158D02*
X76561Y-43995D01*
X76430Y-45289D02*
X76561Y-45158D01*
X76430Y-46085D02*
X76430Y-45289D01*
X76632Y-46287D02*
X76430Y-46085D01*
X78085Y-46287D02*
X76632Y-46287D01*
X78943Y-45429D02*
X78085Y-46287D01*
X56378Y-45630D02*
X56614Y-45394D01*
X55551Y-45630D02*
X56378Y-45630D01*
X56889Y-44764D02*
X61260Y-44764D01*
X61260Y-44764D02*
X61772Y-44252D01*
X61772Y-44252D02*
X61772Y-41024D01*
X56614Y-45039D02*
X56889Y-44764D01*
X56614Y-45394D02*
X56614Y-45039D01*
X76320Y-42556D02*
X76442Y-42678D01*
X76320Y-38797D02*
X76320Y-42556D01*
X75092Y-37568D02*
X74612Y-38048D01*
X75092Y-37568D02*
X76320Y-38797D01*
X77694Y-40279D02*
X77694Y-42724D01*
X79919Y-38054D02*
X77694Y-40279D01*
X77565Y-35700D02*
X77565Y-35106D01*
X79919Y-38054D02*
X77565Y-35700D01*
X72928Y-32516D02*
X72928Y-32454D01*
X74258Y-33846D02*
X72928Y-32516D01*
X74258Y-36641D02*
X74258Y-33846D01*
X74358Y-36741D02*
X74258Y-36641D01*
X74358Y-36835D02*
X74358Y-36741D01*
X75092Y-37568D02*
X74358Y-36835D01*
X75620Y-30442D02*
X76005Y-30827D01*
X75620Y-29551D02*
X75620Y-30442D01*
X72773Y-26704D02*
X75620Y-29551D01*
X72773Y-24545D02*
X72526Y-24298D01*
X72773Y-26704D02*
X72773Y-24545D01*
X84421Y-28025D02*
X79530Y-28025D01*
X76437Y-28025D02*
X79530Y-28025D01*
X73985Y-25573D02*
X76437Y-28025D01*
X73985Y-24899D02*
X73985Y-25573D01*
X69990Y-20904D02*
X73985Y-24899D01*
X57399Y-20904D02*
X69990Y-20904D01*
X56646Y-21657D02*
X57399Y-20904D01*
X56646Y-22586D02*
X56646Y-21657D01*
X56679Y-22619D02*
X56646Y-22586D01*
X57665Y-22619D02*
X56679Y-22619D01*
X58146Y-22138D02*
X57665Y-22619D01*
X83532Y-29964D02*
X84421Y-29075D01*
X76339Y-29964D02*
X83532Y-29964D01*
X58141Y-21143D02*
X57146Y-22138D01*
X69892Y-21143D02*
X58141Y-21143D01*
X73346Y-24597D02*
X69892Y-21143D01*
X73346Y-26924D02*
X73346Y-24597D01*
X76339Y-29917D02*
X73346Y-26924D01*
X76339Y-29964D02*
X76339Y-29917D01*
X76372Y-29997D02*
X76339Y-29964D01*
X76372Y-31380D02*
X76372Y-29997D01*
X76304Y-31448D02*
X76372Y-31380D01*
X67146Y-37088D02*
X67146Y-36131D01*
X67676Y-37618D02*
X67146Y-37088D01*
X73501Y-29491D02*
X73501Y-28736D01*
X76053Y-32043D02*
X73501Y-29491D01*
X80047Y-32043D02*
X76053Y-32043D01*
X80529Y-31561D02*
X80047Y-32043D01*
X67882Y-28794D02*
X67853Y-28765D01*
X67882Y-34059D02*
X67882Y-28794D01*
X67146Y-34795D02*
X67882Y-34059D01*
X67146Y-35131D02*
X67146Y-34795D01*
X67648Y-35453D02*
X67471Y-35630D01*
X66146Y-36131D02*
X66660Y-35617D01*
X67648Y-34839D02*
X67648Y-35453D01*
X67379Y-28740D02*
X67379Y-28782D01*
X67847Y-28272D02*
X67379Y-28740D01*
X67862Y-28272D02*
X67847Y-28272D01*
X68406Y-28816D02*
X67862Y-28272D01*
X68406Y-34039D02*
X68406Y-28816D01*
X67648Y-34852D02*
X68406Y-34039D01*
X67648Y-34852D02*
X67648Y-34839D01*
X66656Y-35622D02*
X66660Y-35617D01*
X67471Y-35630D02*
X66656Y-35622D01*
X75615Y-26694D02*
X75946Y-26694D01*
X74340Y-25419D02*
X75615Y-26694D01*
X86778Y-26188D02*
X85421Y-27545D01*
X86778Y-23696D02*
X86778Y-26188D01*
X86087Y-23005D02*
X86778Y-23696D01*
X79635Y-23005D02*
X86087Y-23005D01*
X75946Y-26694D02*
X79635Y-23005D01*
X67627Y-33650D02*
X66146Y-35131D01*
X67627Y-29522D02*
X67627Y-33650D01*
X66928Y-28823D02*
X67627Y-29522D01*
X66928Y-28132D02*
X66928Y-28823D01*
X65646Y-31332D02*
X67272Y-29706D01*
X65646Y-35631D02*
X65646Y-31332D01*
X65146Y-36131D02*
X65646Y-35631D01*
X86357Y-31208D02*
X86585Y-31436D01*
X71184Y-34468D02*
X71184Y-41644D01*
X71184Y-41644D02*
X76305Y-46765D01*
X76305Y-46765D02*
X79990Y-46765D01*
X79990Y-46765D02*
X86141Y-40614D01*
X86357Y-31208D02*
X86357Y-30914D01*
X86357Y-30914D02*
X86142Y-30699D01*
X86142Y-30699D02*
X86141Y-30699D01*
X86141Y-30699D02*
X86141Y-29265D01*
X85421Y-28545D02*
X86141Y-29265D01*
X86585Y-40170D02*
X86141Y-40614D01*
X86585Y-31436D02*
X86585Y-40170D01*
X81983Y-25754D02*
X81983Y-27090D01*
X84493Y-23244D02*
X81983Y-25754D01*
X85989Y-23244D02*
X84493Y-23244D01*
X86352Y-23607D02*
X85989Y-23244D01*
X86352Y-26100D02*
X86352Y-23607D01*
X63993Y-34978D02*
X63993Y-26276D01*
X64146Y-35131D02*
X63993Y-34978D01*
X77144Y-31804D02*
X77543Y-31405D01*
X76151Y-31804D02*
X77144Y-31804D01*
X75381Y-31034D02*
X76151Y-31804D01*
X75381Y-29649D02*
X75381Y-31034D01*
X73240Y-27508D02*
X75381Y-29649D01*
X71811Y-27508D02*
X73240Y-27508D01*
X69943Y-25640D02*
X71811Y-27508D01*
X69943Y-25468D02*
X69943Y-25640D01*
X77170Y-35077D02*
X76165Y-34072D01*
X77170Y-36843D02*
X77170Y-35077D01*
X73818Y-36703D02*
X74003Y-36888D01*
X73817Y-36703D02*
X73818Y-36703D01*
X73817Y-35893D02*
X73817Y-36703D01*
X72924Y-35000D02*
X73817Y-35893D01*
X47126Y-26469D02*
X47639Y-25956D01*
X47639Y-25956D02*
X49291Y-25956D01*
X46339Y-26469D02*
X47671Y-25137D01*
X47671Y-25137D02*
X49291Y-25137D01*
X56930Y-27520D02*
X58110Y-27520D01*
X55709Y-26299D02*
X56930Y-27520D01*
X53746Y-39495D02*
X53760Y-39509D01*
X52865Y-38614D02*
X53746Y-39495D01*
X52244Y-41969D02*
X53746Y-40378D01*
X52244Y-42874D02*
X52244Y-41969D01*
X52244Y-42874D02*
X52256Y-43035D01*
X53760Y-40364D02*
X53746Y-40378D01*
X53760Y-39509D02*
X53760Y-40364D01*
X53819Y-29547D02*
X53642Y-29724D01*
X53617Y-37862D02*
X52865Y-38614D01*
X53642Y-37837D02*
X53617Y-37862D01*
X53642Y-29724D02*
X53642Y-37837D01*
X42382Y-36734D02*
X42283Y-36635D01*
X42913Y-35236D02*
X42382Y-35767D01*
X43397Y-36929D02*
X42577Y-36929D01*
X42577Y-36929D02*
X42415Y-36767D01*
X42415Y-36767D02*
X42382Y-36734D01*
X43559Y-36767D02*
X46584Y-33742D01*
X43559Y-36767D02*
X43397Y-36929D01*
X42283Y-35866D02*
X42382Y-35767D01*
X42283Y-36635D02*
X42283Y-35866D01*
X47126Y-27469D02*
X47993Y-28336D01*
X47993Y-28336D02*
X49370Y-28336D01*
X53819Y-29562D02*
X53819Y-29547D01*
X53819Y-29547D02*
X53819Y-28346D01*
X47126Y-33200D02*
X46584Y-33742D01*
X47126Y-27469D02*
X47126Y-33200D01*
X51456Y-38614D02*
X46584Y-33742D01*
X52865Y-38614D02*
X51456Y-38614D01*
X85502Y-30187D02*
X85258Y-30187D01*
X85258Y-30187D02*
X84990Y-29919D01*
X86002Y-31061D02*
X85935Y-30994D01*
X85689Y-30187D02*
X85502Y-30187D01*
X85502Y-30187D02*
X85492Y-30187D01*
X85935Y-30433D02*
X85689Y-30187D01*
X85935Y-30994D02*
X85935Y-30433D01*
X84672Y-29601D02*
X84667Y-29596D01*
X84667Y-29596D02*
X84239Y-29596D01*
X84921Y-29695D02*
X84921Y-29850D01*
X84921Y-29850D02*
X84982Y-29911D01*
X84982Y-29911D02*
X84990Y-29911D01*
X84990Y-29911D02*
X84990Y-29919D01*
X84902Y-28613D02*
X84921Y-28632D01*
X84921Y-28632D02*
X84921Y-29695D01*
X84921Y-28356D02*
X84921Y-28594D01*
X84921Y-25871D02*
X84921Y-28356D01*
X84902Y-25852D02*
X84921Y-25871D01*
X84921Y-28594D02*
X84902Y-28613D01*
X46339Y-27469D02*
X46839Y-26969D01*
X46839Y-26969D02*
X49331Y-26969D01*
X81569Y-32266D02*
X81569Y-32638D01*
X84239Y-29596D02*
X81569Y-32266D01*
X84281Y-29596D02*
X84239Y-29596D01*
X84990Y-29919D02*
X84672Y-29601D01*
X84672Y-29601D02*
X84667Y-29596D01*
X84902Y-28550D02*
X84902Y-28613D01*
X84902Y-28550D02*
X81654Y-28553D01*
X81654Y-28553D02*
X81654Y-28553D01*
X86002Y-31061D02*
X85901Y-30960D01*
X45276Y-26406D02*
X46339Y-27469D01*
X45276Y-24607D02*
X45276Y-26406D01*
X46339Y-28268D02*
X46339Y-27469D01*
X45276Y-29331D02*
X46339Y-28268D01*
X45276Y-33873D02*
X45276Y-29331D01*
X42913Y-36236D02*
X45276Y-33873D01*
X75971Y-36586D02*
X75971Y-37947D01*
X76083Y-36586D02*
X75971Y-36586D01*
X76194Y-36475D02*
X76083Y-36586D01*
X75733Y-36586D02*
X74822Y-35675D01*
X75971Y-36586D02*
X75733Y-36586D01*
X69213Y-36198D02*
X69213Y-37247D01*
X69146Y-36131D02*
X69213Y-36198D01*
X52766Y-39690D02*
X53150Y-40039D01*
X52348Y-39272D02*
X52766Y-39690D01*
X52019Y-39272D02*
X52348Y-39272D01*
X51746Y-39545D02*
X52019Y-39272D01*
X51457Y-39843D02*
X51746Y-39545D01*
X51256Y-40035D02*
X51457Y-39843D01*
X53256Y-40035D02*
X53150Y-40039D01*
X85421Y-39425D02*
X85421Y-38325D01*
X85421Y-38325D02*
X85421Y-37245D01*
X85421Y-37245D02*
X85421Y-36185D01*
X85421Y-36185D02*
X85421Y-35065D01*
X85421Y-35065D02*
X85421Y-33985D01*
X85421Y-33985D02*
X85421Y-32905D01*
X84421Y-39975D02*
X84421Y-38875D01*
X84902Y-25852D02*
X82386Y-25852D01*
X84902Y-24694D02*
X84902Y-25852D01*
X85421Y-24175D02*
X84902Y-24694D01*
X69288Y-41708D02*
X68155Y-42841D01*
X69288Y-41091D02*
X69288Y-41708D01*
X68146Y-39949D02*
X69288Y-41091D01*
X68146Y-36131D02*
X68146Y-39949D01*
X50744Y-43035D02*
X51256Y-43035D01*
X50000Y-43779D02*
X50744Y-43035D01*
X50000Y-44646D02*
X50000Y-43779D01*
G54D10*
G36*
X42984Y-36236D02*
X42913Y-36307D01*
X42842Y-36236D01*
X42913Y-36165D01*
X42984Y-36236D01*
X42984Y-36236D01*
G37*
G54D23*
X42984Y-36236D02*
X42913Y-36307D01*
X42842Y-36236D01*
X42913Y-36165D01*
X42984Y-36236D01*
G54D10*
G36*
X53257Y-40105D02*
X53256Y-40106D01*
X53185Y-40035D01*
X53256Y-39964D01*
X53257Y-39965D01*
X53257Y-40105D01*
X53257Y-40105D01*
G37*
G54D23*
X53257Y-40105D02*
X53256Y-40106D01*
X53185Y-40035D01*
X53256Y-39964D01*
X53257Y-39965D01*
X53257Y-40105D01*
G54D10*
G36*
X69217Y-36131D02*
X69146Y-36202D01*
X69145Y-36201D01*
X69145Y-36061D01*
X69146Y-36060D01*
X69217Y-36131D01*
X69217Y-36131D01*
G37*
G54D23*
X69217Y-36131D02*
X69146Y-36202D01*
X69145Y-36201D01*
X69145Y-36061D01*
X69146Y-36060D01*
X69217Y-36131D01*
G54D10*
G36*
X69258Y-39978D02*
X69168Y-39888D01*
X69168Y-37303D01*
X69168Y-37283D01*
X69145Y-37166D01*
X69145Y-36684D01*
X69258Y-36679D01*
X69258Y-39978D01*
X69258Y-39978D01*
G37*
G54D23*
X69258Y-39978D02*
X69168Y-39888D01*
X69168Y-37303D01*
X69168Y-37283D01*
X69145Y-37166D01*
X69145Y-36684D01*
X69258Y-36679D01*
X69258Y-39978D01*
G54D10*
G36*
X76046Y-36937D02*
X75912Y-37071D01*
X75817Y-37299D01*
X75817Y-37546D01*
X75841Y-37606D01*
X75448Y-37212D01*
X75441Y-37207D01*
X74832Y-36597D01*
X74823Y-36549D01*
X74822Y-36548D01*
X74761Y-36456D01*
X74761Y-36455D01*
X74761Y-34495D01*
X76046Y-35780D01*
X76046Y-36937D01*
X76046Y-36937D01*
G37*
G54D23*
X76046Y-36937D02*
X75912Y-37071D01*
X75817Y-37299D01*
X75817Y-37546D01*
X75841Y-37606D01*
X75448Y-37212D01*
X75441Y-37207D01*
X74832Y-36597D01*
X74823Y-36549D01*
X74822Y-36548D01*
X74761Y-36456D01*
X74761Y-36455D01*
X74761Y-34495D01*
X76046Y-35780D01*
X76046Y-36937D01*
G54D10*
G36*
X76058Y-44444D02*
X76027Y-44444D01*
X75799Y-44538D01*
X75624Y-44713D01*
X75529Y-44941D01*
X75529Y-45188D01*
X75591Y-45339D01*
X71687Y-41435D01*
X71687Y-34843D01*
X71710Y-34820D01*
X71805Y-34592D01*
X71805Y-34345D01*
X71711Y-34117D01*
X71536Y-33942D01*
X71308Y-33847D01*
X71061Y-33847D01*
X70833Y-33941D01*
X70658Y-34116D01*
X70563Y-34344D01*
X70563Y-34591D01*
X70657Y-34819D01*
X70681Y-34843D01*
X70681Y-41644D01*
X70719Y-41837D01*
X70828Y-42000D01*
X75947Y-47119D01*
X44864Y-47119D01*
X44425Y-47119D01*
X44391Y-47085D01*
X44576Y-46938D01*
X44856Y-46283D01*
X44864Y-45571D01*
X44600Y-44910D01*
X44576Y-44874D01*
X44352Y-44695D01*
X44282Y-44765D01*
X43142Y-45906D01*
X43071Y-45977D01*
X43000Y-45906D01*
X43071Y-45835D01*
X43106Y-45800D01*
X44282Y-44625D01*
X44103Y-44401D01*
X43448Y-44121D01*
X42736Y-44113D01*
X42075Y-44377D01*
X42039Y-44401D01*
X41891Y-44585D01*
X41858Y-44552D01*
X41858Y-36887D01*
X41927Y-36991D01*
X42026Y-37090D01*
X42057Y-37120D01*
X42059Y-37123D01*
X42221Y-37285D01*
X42384Y-37393D01*
X42385Y-37394D01*
X42577Y-37432D01*
X43397Y-37432D01*
X43589Y-37394D01*
X43590Y-37394D01*
X43753Y-37285D01*
X43915Y-37123D01*
X46583Y-34453D01*
X51100Y-38970D01*
X51263Y-39079D01*
X51264Y-39079D01*
X51456Y-39117D01*
X52656Y-39117D01*
X53054Y-39514D01*
X52966Y-39551D01*
X52953Y-39591D01*
X52920Y-39558D01*
X52885Y-39592D01*
X52686Y-39393D01*
X52407Y-39277D01*
X52106Y-39277D01*
X51827Y-39392D01*
X51626Y-39592D01*
X51592Y-39558D01*
X51558Y-39591D01*
X51546Y-39551D01*
X51339Y-39477D01*
X51119Y-39488D01*
X50966Y-39551D01*
X50938Y-39646D01*
X51221Y-39929D01*
X51256Y-39964D01*
X51327Y-40035D01*
X51256Y-40106D01*
X51221Y-40141D01*
X51185Y-40177D01*
X51185Y-40035D01*
X50867Y-39717D01*
X50772Y-39745D01*
X50698Y-39952D01*
X50709Y-40172D01*
X50772Y-40325D01*
X50867Y-40353D01*
X51185Y-40035D01*
X51185Y-40177D01*
X50938Y-40424D01*
X50966Y-40519D01*
X51173Y-40593D01*
X51393Y-40582D01*
X51546Y-40519D01*
X51558Y-40478D01*
X51574Y-40494D01*
X51592Y-40512D01*
X51626Y-40477D01*
X51826Y-40677D01*
X52105Y-40793D01*
X52406Y-40793D01*
X52685Y-40678D01*
X52885Y-40477D01*
X52920Y-40512D01*
X52953Y-40478D01*
X52955Y-40483D01*
X51889Y-41612D01*
X51888Y-41613D01*
X51886Y-41614D01*
X51879Y-41623D01*
X51832Y-41696D01*
X51779Y-41777D01*
X51777Y-41782D01*
X51774Y-41789D01*
X51757Y-41883D01*
X51741Y-41969D01*
X51741Y-41983D01*
X51741Y-42448D01*
X51686Y-42393D01*
X51574Y-42346D01*
X51407Y-42277D01*
X51106Y-42277D01*
X50827Y-42392D01*
X50672Y-42546D01*
X50552Y-42570D01*
X50388Y-42679D01*
X49644Y-43423D01*
X49535Y-43586D01*
X49497Y-43779D01*
X49497Y-44271D01*
X49474Y-44294D01*
X49379Y-44522D01*
X49379Y-44769D01*
X49473Y-44997D01*
X49648Y-45172D01*
X49876Y-45267D01*
X50123Y-45267D01*
X50351Y-45173D01*
X50526Y-44998D01*
X50621Y-44770D01*
X50621Y-44523D01*
X50527Y-44295D01*
X50503Y-44271D01*
X50503Y-43988D01*
X50820Y-43671D01*
X50826Y-43677D01*
X51105Y-43793D01*
X51406Y-43793D01*
X51685Y-43678D01*
X51756Y-43607D01*
X51826Y-43677D01*
X52105Y-43793D01*
X52406Y-43793D01*
X52685Y-43678D01*
X52756Y-43607D01*
X52826Y-43677D01*
X53105Y-43793D01*
X53406Y-43793D01*
X53685Y-43678D01*
X53756Y-43607D01*
X53826Y-43677D01*
X54105Y-43793D01*
X54406Y-43793D01*
X54685Y-43678D01*
X54898Y-43465D01*
X55014Y-43186D01*
X55014Y-42885D01*
X54899Y-42606D01*
X54686Y-42393D01*
X54407Y-42277D01*
X54106Y-42277D01*
X53827Y-42392D01*
X53756Y-42463D01*
X53686Y-42393D01*
X53407Y-42277D01*
X53106Y-42277D01*
X52827Y-42392D01*
X52756Y-42463D01*
X52747Y-42454D01*
X52747Y-42169D01*
X54064Y-40776D01*
X54105Y-40793D01*
X54406Y-40793D01*
X54685Y-40678D01*
X54898Y-40465D01*
X55014Y-40186D01*
X55014Y-39885D01*
X54899Y-39606D01*
X54686Y-39393D01*
X54407Y-39277D01*
X54198Y-39277D01*
X54197Y-39274D01*
X54116Y-39153D01*
X54113Y-39151D01*
X54102Y-39139D01*
X54098Y-39136D01*
X53576Y-38613D01*
X53969Y-38220D01*
X53972Y-38218D01*
X53973Y-38218D01*
X53995Y-38194D01*
X53997Y-38193D01*
X53998Y-38193D01*
X54106Y-38030D01*
X54107Y-38029D01*
X54145Y-37837D01*
X54145Y-36889D01*
X54296Y-36889D01*
X54575Y-36774D01*
X54646Y-36703D01*
X54716Y-36773D01*
X54995Y-36889D01*
X55296Y-36889D01*
X55575Y-36774D01*
X55646Y-36703D01*
X55716Y-36773D01*
X55995Y-36889D01*
X56296Y-36889D01*
X56575Y-36774D01*
X56646Y-36703D01*
X56716Y-36773D01*
X56995Y-36889D01*
X57296Y-36889D01*
X57575Y-36774D01*
X57646Y-36703D01*
X57716Y-36773D01*
X57995Y-36889D01*
X58270Y-36889D01*
X58286Y-36912D01*
X58307Y-36932D01*
X58309Y-36935D01*
X61777Y-40403D01*
X61649Y-40403D01*
X61421Y-40497D01*
X61246Y-40672D01*
X61151Y-40900D01*
X61151Y-41147D01*
X61245Y-41375D01*
X61269Y-41399D01*
X61269Y-44043D01*
X61051Y-44261D01*
X56889Y-44261D01*
X56888Y-44261D01*
X56840Y-44270D01*
X56697Y-44299D01*
X56695Y-44299D01*
X56695Y-44300D01*
X56654Y-44327D01*
X56533Y-44408D01*
X56531Y-44410D01*
X56258Y-44683D01*
X56149Y-44846D01*
X56111Y-45039D01*
X56111Y-45127D01*
X55926Y-45127D01*
X55903Y-45104D01*
X55675Y-45009D01*
X55428Y-45009D01*
X55200Y-45103D01*
X55025Y-45278D01*
X54930Y-45506D01*
X54930Y-45753D01*
X55024Y-45981D01*
X55199Y-46156D01*
X55427Y-46251D01*
X55674Y-46251D01*
X55902Y-46157D01*
X55926Y-46133D01*
X56378Y-46133D01*
X56570Y-46095D01*
X56571Y-46095D01*
X56734Y-45986D01*
X56967Y-45751D01*
X56969Y-45750D01*
X56970Y-45750D01*
X57051Y-45628D01*
X57078Y-45588D01*
X57078Y-45587D01*
X57079Y-45586D01*
X57107Y-45442D01*
X57117Y-45395D01*
X57116Y-45394D01*
X57117Y-45394D01*
X57117Y-45267D01*
X61260Y-45267D01*
X61452Y-45229D01*
X61453Y-45229D01*
X61616Y-45120D01*
X62128Y-44608D01*
X62237Y-44445D01*
X62237Y-44444D01*
X62275Y-44252D01*
X62275Y-41399D01*
X62298Y-41376D01*
X62393Y-41148D01*
X62393Y-41018D01*
X62999Y-41624D01*
X63001Y-41627D01*
X63164Y-41735D01*
X63165Y-41736D01*
X63357Y-41774D01*
X67439Y-41774D01*
X67462Y-41797D01*
X67690Y-41892D01*
X67937Y-41892D01*
X68039Y-41849D01*
X68162Y-41901D01*
X68402Y-41901D01*
X68406Y-41910D01*
X68581Y-42085D01*
X68785Y-42170D01*
X68785Y-45796D01*
X68823Y-45989D01*
X68916Y-46128D01*
X68916Y-46168D01*
X69010Y-46396D01*
X69185Y-46571D01*
X69413Y-46666D01*
X69660Y-46666D01*
X69888Y-46572D01*
X70063Y-46397D01*
X70158Y-46169D01*
X70158Y-45922D01*
X70064Y-45694D01*
X69889Y-45519D01*
X69791Y-45478D01*
X69791Y-44185D01*
X69884Y-44185D01*
X70112Y-44091D01*
X70287Y-43916D01*
X70382Y-43688D01*
X70382Y-43441D01*
X70288Y-43213D01*
X70264Y-43189D01*
X70264Y-30374D01*
X72066Y-32176D01*
X72066Y-40003D01*
X72104Y-40196D01*
X72213Y-40359D01*
X76058Y-44203D01*
X76058Y-44444D01*
X76058Y-44444D01*
G37*
G54D23*
X76058Y-44444D02*
X76027Y-44444D01*
X75799Y-44538D01*
X75624Y-44713D01*
X75529Y-44941D01*
X75529Y-45188D01*
X75591Y-45339D01*
X71687Y-41435D01*
X71687Y-34843D01*
X71710Y-34820D01*
X71805Y-34592D01*
X71805Y-34345D01*
X71711Y-34117D01*
X71536Y-33942D01*
X71308Y-33847D01*
X71061Y-33847D01*
X70833Y-33941D01*
X70658Y-34116D01*
X70563Y-34344D01*
X70563Y-34591D01*
X70657Y-34819D01*
X70681Y-34843D01*
X70681Y-41644D01*
X70719Y-41837D01*
X70828Y-42000D01*
X75947Y-47119D01*
X44864Y-47119D01*
X44425Y-47119D01*
X44391Y-47085D01*
X44576Y-46938D01*
X44856Y-46283D01*
X44864Y-45571D01*
X44600Y-44910D01*
X44576Y-44874D01*
X44352Y-44695D01*
X44282Y-44765D01*
X43142Y-45906D01*
X43071Y-45977D01*
X43000Y-45906D01*
X43071Y-45835D01*
X43106Y-45800D01*
X44282Y-44625D01*
X44103Y-44401D01*
X43448Y-44121D01*
X42736Y-44113D01*
X42075Y-44377D01*
X42039Y-44401D01*
X41891Y-44585D01*
X41858Y-44552D01*
X41858Y-36887D01*
X41927Y-36991D01*
X42026Y-37090D01*
X42057Y-37120D01*
X42059Y-37123D01*
X42221Y-37285D01*
X42384Y-37393D01*
X42385Y-37394D01*
X42577Y-37432D01*
X43397Y-37432D01*
X43589Y-37394D01*
X43590Y-37394D01*
X43753Y-37285D01*
X43915Y-37123D01*
X46583Y-34453D01*
X51100Y-38970D01*
X51263Y-39079D01*
X51264Y-39079D01*
X51456Y-39117D01*
X52656Y-39117D01*
X53054Y-39514D01*
X52966Y-39551D01*
X52953Y-39591D01*
X52920Y-39558D01*
X52885Y-39592D01*
X52686Y-39393D01*
X52407Y-39277D01*
X52106Y-39277D01*
X51827Y-39392D01*
X51626Y-39592D01*
X51592Y-39558D01*
X51558Y-39591D01*
X51546Y-39551D01*
X51339Y-39477D01*
X51119Y-39488D01*
X50966Y-39551D01*
X50938Y-39646D01*
X51221Y-39929D01*
X51256Y-39964D01*
X51327Y-40035D01*
X51256Y-40106D01*
X51221Y-40141D01*
X51185Y-40177D01*
X51185Y-40035D01*
X50867Y-39717D01*
X50772Y-39745D01*
X50698Y-39952D01*
X50709Y-40172D01*
X50772Y-40325D01*
X50867Y-40353D01*
X51185Y-40035D01*
X51185Y-40177D01*
X50938Y-40424D01*
X50966Y-40519D01*
X51173Y-40593D01*
X51393Y-40582D01*
X51546Y-40519D01*
X51558Y-40478D01*
X51574Y-40494D01*
X51592Y-40512D01*
X51626Y-40477D01*
X51826Y-40677D01*
X52105Y-40793D01*
X52406Y-40793D01*
X52685Y-40678D01*
X52885Y-40477D01*
X52920Y-40512D01*
X52953Y-40478D01*
X52955Y-40483D01*
X51889Y-41612D01*
X51888Y-41613D01*
X51886Y-41614D01*
X51879Y-41623D01*
X51832Y-41696D01*
X51779Y-41777D01*
X51777Y-41782D01*
X51774Y-41789D01*
X51757Y-41883D01*
X51741Y-41969D01*
X51741Y-41983D01*
X51741Y-42448D01*
X51686Y-42393D01*
X51574Y-42346D01*
X51407Y-42277D01*
X51106Y-42277D01*
X50827Y-42392D01*
X50672Y-42546D01*
X50552Y-42570D01*
X50388Y-42679D01*
X49644Y-43423D01*
X49535Y-43586D01*
X49497Y-43779D01*
X49497Y-44271D01*
X49474Y-44294D01*
X49379Y-44522D01*
X49379Y-44769D01*
X49473Y-44997D01*
X49648Y-45172D01*
X49876Y-45267D01*
X50123Y-45267D01*
X50351Y-45173D01*
X50526Y-44998D01*
X50621Y-44770D01*
X50621Y-44523D01*
X50527Y-44295D01*
X50503Y-44271D01*
X50503Y-43988D01*
X50820Y-43671D01*
X50826Y-43677D01*
X51105Y-43793D01*
X51406Y-43793D01*
X51685Y-43678D01*
X51756Y-43607D01*
X51826Y-43677D01*
X52105Y-43793D01*
X52406Y-43793D01*
X52685Y-43678D01*
X52756Y-43607D01*
X52826Y-43677D01*
X53105Y-43793D01*
X53406Y-43793D01*
X53685Y-43678D01*
X53756Y-43607D01*
X53826Y-43677D01*
X54105Y-43793D01*
X54406Y-43793D01*
X54685Y-43678D01*
X54898Y-43465D01*
X55014Y-43186D01*
X55014Y-42885D01*
X54899Y-42606D01*
X54686Y-42393D01*
X54407Y-42277D01*
X54106Y-42277D01*
X53827Y-42392D01*
X53756Y-42463D01*
X53686Y-42393D01*
X53407Y-42277D01*
X53106Y-42277D01*
X52827Y-42392D01*
X52756Y-42463D01*
X52747Y-42454D01*
X52747Y-42169D01*
X54064Y-40776D01*
X54105Y-40793D01*
X54406Y-40793D01*
X54685Y-40678D01*
X54898Y-40465D01*
X55014Y-40186D01*
X55014Y-39885D01*
X54899Y-39606D01*
X54686Y-39393D01*
X54407Y-39277D01*
X54198Y-39277D01*
X54197Y-39274D01*
X54116Y-39153D01*
X54113Y-39151D01*
X54102Y-39139D01*
X54098Y-39136D01*
X53576Y-38613D01*
X53969Y-38220D01*
X53972Y-38218D01*
X53973Y-38218D01*
X53995Y-38194D01*
X53997Y-38193D01*
X53998Y-38193D01*
X54106Y-38030D01*
X54107Y-38029D01*
X54145Y-37837D01*
X54145Y-36889D01*
X54296Y-36889D01*
X54575Y-36774D01*
X54646Y-36703D01*
X54716Y-36773D01*
X54995Y-36889D01*
X55296Y-36889D01*
X55575Y-36774D01*
X55646Y-36703D01*
X55716Y-36773D01*
X55995Y-36889D01*
X56296Y-36889D01*
X56575Y-36774D01*
X56646Y-36703D01*
X56716Y-36773D01*
X56995Y-36889D01*
X57296Y-36889D01*
X57575Y-36774D01*
X57646Y-36703D01*
X57716Y-36773D01*
X57995Y-36889D01*
X58270Y-36889D01*
X58286Y-36912D01*
X58307Y-36932D01*
X58309Y-36935D01*
X61777Y-40403D01*
X61649Y-40403D01*
X61421Y-40497D01*
X61246Y-40672D01*
X61151Y-40900D01*
X61151Y-41147D01*
X61245Y-41375D01*
X61269Y-41399D01*
X61269Y-44043D01*
X61051Y-44261D01*
X56889Y-44261D01*
X56888Y-44261D01*
X56840Y-44270D01*
X56697Y-44299D01*
X56695Y-44299D01*
X56695Y-44300D01*
X56654Y-44327D01*
X56533Y-44408D01*
X56531Y-44410D01*
X56258Y-44683D01*
X56149Y-44846D01*
X56111Y-45039D01*
X56111Y-45127D01*
X55926Y-45127D01*
X55903Y-45104D01*
X55675Y-45009D01*
X55428Y-45009D01*
X55200Y-45103D01*
X55025Y-45278D01*
X54930Y-45506D01*
X54930Y-45753D01*
X55024Y-45981D01*
X55199Y-46156D01*
X55427Y-46251D01*
X55674Y-46251D01*
X55902Y-46157D01*
X55926Y-46133D01*
X56378Y-46133D01*
X56570Y-46095D01*
X56571Y-46095D01*
X56734Y-45986D01*
X56967Y-45751D01*
X56969Y-45750D01*
X56970Y-45750D01*
X57051Y-45628D01*
X57078Y-45588D01*
X57078Y-45587D01*
X57079Y-45586D01*
X57107Y-45442D01*
X57117Y-45395D01*
X57116Y-45394D01*
X57117Y-45394D01*
X57117Y-45267D01*
X61260Y-45267D01*
X61452Y-45229D01*
X61453Y-45229D01*
X61616Y-45120D01*
X62128Y-44608D01*
X62237Y-44445D01*
X62237Y-44444D01*
X62275Y-44252D01*
X62275Y-41399D01*
X62298Y-41376D01*
X62393Y-41148D01*
X62393Y-41018D01*
X62999Y-41624D01*
X63001Y-41627D01*
X63164Y-41735D01*
X63165Y-41736D01*
X63357Y-41774D01*
X67439Y-41774D01*
X67462Y-41797D01*
X67690Y-41892D01*
X67937Y-41892D01*
X68039Y-41849D01*
X68162Y-41901D01*
X68402Y-41901D01*
X68406Y-41910D01*
X68581Y-42085D01*
X68785Y-42170D01*
X68785Y-45796D01*
X68823Y-45989D01*
X68916Y-46128D01*
X68916Y-46168D01*
X69010Y-46396D01*
X69185Y-46571D01*
X69413Y-46666D01*
X69660Y-46666D01*
X69888Y-46572D01*
X70063Y-46397D01*
X70158Y-46169D01*
X70158Y-45922D01*
X70064Y-45694D01*
X69889Y-45519D01*
X69791Y-45478D01*
X69791Y-44185D01*
X69884Y-44185D01*
X70112Y-44091D01*
X70287Y-43916D01*
X70382Y-43688D01*
X70382Y-43441D01*
X70288Y-43213D01*
X70264Y-43189D01*
X70264Y-30374D01*
X72066Y-32176D01*
X72066Y-40003D01*
X72104Y-40196D01*
X72213Y-40359D01*
X76058Y-44203D01*
X76058Y-44444D01*
G54D10*
G36*
X83745Y-30526D02*
X81777Y-32494D01*
X80260Y-32494D01*
X80403Y-32399D01*
X80619Y-32182D01*
X80652Y-32182D01*
X80880Y-32088D01*
X81055Y-31913D01*
X81150Y-31685D01*
X81150Y-31438D01*
X81056Y-31210D01*
X80881Y-31035D01*
X80653Y-30940D01*
X80406Y-30940D01*
X80178Y-31034D01*
X80003Y-31209D01*
X79908Y-31437D01*
X79908Y-31470D01*
X79838Y-31540D01*
X78159Y-31540D01*
X78164Y-31529D01*
X78164Y-31282D01*
X78070Y-31054D01*
X77895Y-30879D01*
X77667Y-30784D01*
X77420Y-30784D01*
X77192Y-30878D01*
X77017Y-31053D01*
X76922Y-31281D01*
X76922Y-31301D01*
X76915Y-31301D01*
X76875Y-31203D01*
X76875Y-30467D01*
X83532Y-30467D01*
X83707Y-30432D01*
X83745Y-30526D01*
X83745Y-30526D01*
G37*
G54D23*
X83745Y-30526D02*
X81777Y-32494D01*
X80260Y-32494D01*
X80403Y-32399D01*
X80619Y-32182D01*
X80652Y-32182D01*
X80880Y-32088D01*
X81055Y-31913D01*
X81150Y-31685D01*
X81150Y-31438D01*
X81056Y-31210D01*
X80881Y-31035D01*
X80653Y-30940D01*
X80406Y-30940D01*
X80178Y-31034D01*
X80003Y-31209D01*
X79908Y-31437D01*
X79908Y-31470D01*
X79838Y-31540D01*
X78159Y-31540D01*
X78164Y-31529D01*
X78164Y-31282D01*
X78070Y-31054D01*
X77895Y-30879D01*
X77667Y-30784D01*
X77420Y-30784D01*
X77192Y-30878D01*
X77017Y-31053D01*
X76922Y-31281D01*
X76922Y-31301D01*
X76915Y-31301D01*
X76875Y-31203D01*
X76875Y-30467D01*
X83532Y-30467D01*
X83707Y-30432D01*
X83745Y-30526D01*
G54D10*
G36*
X83874Y-28550D02*
X83779Y-28645D01*
X83663Y-28924D01*
X83663Y-29121D01*
X83323Y-29461D01*
X76714Y-29461D01*
X76691Y-29438D01*
X76485Y-29352D01*
X73849Y-26715D01*
X73849Y-26148D01*
X76079Y-28378D01*
X76081Y-28381D01*
X76202Y-28462D01*
X76243Y-28489D01*
X76245Y-28490D01*
X76437Y-28528D01*
X79155Y-28528D01*
X79178Y-28551D01*
X79406Y-28646D01*
X79653Y-28646D01*
X79881Y-28552D01*
X79905Y-28528D01*
X83852Y-28528D01*
X83874Y-28550D01*
X83874Y-28550D01*
G37*
G54D23*
X83874Y-28550D02*
X83779Y-28645D01*
X83663Y-28924D01*
X83663Y-29121D01*
X83323Y-29461D01*
X76714Y-29461D01*
X76691Y-29438D01*
X76485Y-29352D01*
X73849Y-26715D01*
X73849Y-26148D01*
X76079Y-28378D01*
X76081Y-28381D01*
X76202Y-28462D01*
X76243Y-28489D01*
X76245Y-28490D01*
X76437Y-28528D01*
X79155Y-28528D01*
X79178Y-28551D01*
X79406Y-28646D01*
X79653Y-28646D01*
X79881Y-28552D01*
X79905Y-28528D01*
X83852Y-28528D01*
X83874Y-28550D01*
G54D10*
G36*
X85492Y-32905D02*
X85421Y-32976D01*
X85350Y-32905D01*
X85421Y-32834D01*
X85492Y-32905D01*
X85492Y-32905D01*
G37*
G54D23*
X85492Y-32905D02*
X85421Y-32976D01*
X85350Y-32905D01*
X85421Y-32834D01*
X85492Y-32905D01*
G54D10*
G36*
X85492Y-33985D02*
X85421Y-34056D01*
X85350Y-33985D01*
X85421Y-33914D01*
X85492Y-33985D01*
X85492Y-33985D01*
G37*
G54D23*
X85492Y-33985D02*
X85421Y-34056D01*
X85350Y-33985D01*
X85421Y-33914D01*
X85492Y-33985D01*
G54D10*
G36*
X85492Y-35065D02*
X85434Y-35122D01*
X85395Y-35083D01*
X85395Y-35020D01*
X85421Y-34994D01*
X85492Y-35065D01*
X85492Y-35065D01*
G37*
G54D23*
X85492Y-35065D02*
X85434Y-35122D01*
X85395Y-35083D01*
X85395Y-35020D01*
X85421Y-34994D01*
X85492Y-35065D01*
G54D10*
G36*
X85849Y-25725D02*
X85826Y-25748D01*
X85731Y-25976D01*
X85731Y-26223D01*
X85818Y-26435D01*
X85467Y-26787D01*
X85271Y-26787D01*
X85179Y-26824D01*
X85179Y-26775D01*
X85064Y-26496D01*
X84851Y-26283D01*
X84572Y-26167D01*
X84271Y-26167D01*
X83992Y-26282D01*
X83779Y-26495D01*
X83663Y-26774D01*
X83663Y-27075D01*
X83778Y-27354D01*
X83899Y-27475D01*
X83852Y-27522D01*
X82429Y-27522D01*
X82509Y-27442D01*
X82604Y-27214D01*
X82604Y-26967D01*
X82510Y-26739D01*
X82486Y-26715D01*
X82486Y-25962D01*
X84403Y-24044D01*
X84407Y-24386D01*
X84555Y-24743D01*
X84698Y-24828D01*
X85315Y-24210D01*
X85350Y-24175D01*
X85421Y-24104D01*
X85492Y-24175D01*
X85421Y-24246D01*
X84768Y-24898D01*
X84853Y-25041D01*
X85228Y-25193D01*
X85632Y-25189D01*
X85849Y-25099D01*
X85849Y-25725D01*
X85849Y-25725D01*
G37*
G54D23*
X85849Y-25725D02*
X85826Y-25748D01*
X85731Y-25976D01*
X85731Y-26223D01*
X85818Y-26435D01*
X85467Y-26787D01*
X85271Y-26787D01*
X85179Y-26824D01*
X85179Y-26775D01*
X85064Y-26496D01*
X84851Y-26283D01*
X84572Y-26167D01*
X84271Y-26167D01*
X83992Y-26282D01*
X83779Y-26495D01*
X83663Y-26774D01*
X83663Y-27075D01*
X83778Y-27354D01*
X83899Y-27475D01*
X83852Y-27522D01*
X82429Y-27522D01*
X82509Y-27442D01*
X82604Y-27214D01*
X82604Y-26967D01*
X82510Y-26739D01*
X82486Y-26715D01*
X82486Y-25962D01*
X84403Y-24044D01*
X84407Y-24386D01*
X84555Y-24743D01*
X84698Y-24828D01*
X85315Y-24210D01*
X85350Y-24175D01*
X85421Y-24104D01*
X85492Y-24175D01*
X85421Y-24246D01*
X84768Y-24898D01*
X84853Y-25041D01*
X85228Y-25193D01*
X85632Y-25189D01*
X85849Y-25099D01*
X85849Y-25725D01*
G54D10*
G36*
X89442Y-44551D02*
X89439Y-44554D01*
X89407Y-44585D01*
X89260Y-44401D01*
X88605Y-44121D01*
X87893Y-44113D01*
X87232Y-44377D01*
X87196Y-44401D01*
X87017Y-44625D01*
X88193Y-45800D01*
X88228Y-45835D01*
X88299Y-45906D01*
X88228Y-45977D01*
X88157Y-45906D01*
X88122Y-45871D01*
X86947Y-44695D01*
X86723Y-44874D01*
X86443Y-45529D01*
X86439Y-45885D01*
X86439Y-42868D01*
X86435Y-42464D01*
X86287Y-42107D01*
X86144Y-42022D01*
X85492Y-42675D01*
X86144Y-43328D01*
X86287Y-43243D01*
X86439Y-42868D01*
X86439Y-45885D01*
X86435Y-46241D01*
X86699Y-46902D01*
X86723Y-46938D01*
X86907Y-47085D01*
X86874Y-47119D01*
X86074Y-47119D01*
X86074Y-43398D01*
X85421Y-42746D01*
X84768Y-43398D01*
X84853Y-43541D01*
X85228Y-43693D01*
X85632Y-43689D01*
X85989Y-43541D01*
X86074Y-43398D01*
X86074Y-47119D01*
X80347Y-47119D01*
X84457Y-43008D01*
X84555Y-43243D01*
X84698Y-43328D01*
X85315Y-42710D01*
X85350Y-42675D01*
X85421Y-42604D01*
X85456Y-42569D01*
X86074Y-41952D01*
X85989Y-41809D01*
X85752Y-41713D01*
X86493Y-40972D01*
X86496Y-40970D01*
X86497Y-40970D01*
X86938Y-40527D01*
X86940Y-40526D01*
X86941Y-40526D01*
X87022Y-40404D01*
X87049Y-40364D01*
X87049Y-40363D01*
X87050Y-40362D01*
X87078Y-40218D01*
X87088Y-40171D01*
X87087Y-40170D01*
X87088Y-40170D01*
X87088Y-36202D01*
X87170Y-36202D01*
X87398Y-36108D01*
X87573Y-35933D01*
X87668Y-35705D01*
X87668Y-35458D01*
X87631Y-35370D01*
X87751Y-34960D01*
X87757Y-34888D01*
X87771Y-34819D01*
X87771Y-23834D01*
X87733Y-23642D01*
X87732Y-23641D01*
X87624Y-23478D01*
X85475Y-21329D01*
X85312Y-21220D01*
X85119Y-21182D01*
X79556Y-21182D01*
X79533Y-21159D01*
X79305Y-21064D01*
X79058Y-21064D01*
X78830Y-21158D01*
X78655Y-21333D01*
X78560Y-21561D01*
X78560Y-21808D01*
X78654Y-22036D01*
X78829Y-22211D01*
X79057Y-22306D01*
X79304Y-22306D01*
X79532Y-22212D01*
X79556Y-22188D01*
X84910Y-22188D01*
X85224Y-22502D01*
X79635Y-22502D01*
X79442Y-22540D01*
X79279Y-22649D01*
X75855Y-26073D01*
X75823Y-26073D01*
X75740Y-26107D01*
X74961Y-25328D01*
X74961Y-25296D01*
X74867Y-25068D01*
X74692Y-24893D01*
X74468Y-24799D01*
X74450Y-24707D01*
X74449Y-24705D01*
X74422Y-24664D01*
X74341Y-24543D01*
X74338Y-24541D01*
X70346Y-20548D01*
X70183Y-20439D01*
X69990Y-20401D01*
X57399Y-20401D01*
X57398Y-20401D01*
X57350Y-20410D01*
X57207Y-20439D01*
X57205Y-20439D01*
X57205Y-20440D01*
X57164Y-20467D01*
X57043Y-20548D01*
X57041Y-20550D01*
X56290Y-21301D01*
X56237Y-21380D01*
X55996Y-21380D01*
X55717Y-21495D01*
X55646Y-21566D01*
X55576Y-21496D01*
X55297Y-21380D01*
X54996Y-21380D01*
X54717Y-21495D01*
X54646Y-21566D01*
X54576Y-21496D01*
X54297Y-21380D01*
X53996Y-21380D01*
X53717Y-21495D01*
X53646Y-21566D01*
X53576Y-21496D01*
X53297Y-21380D01*
X52996Y-21380D01*
X52717Y-21495D01*
X52646Y-21566D01*
X52576Y-21496D01*
X52297Y-21380D01*
X51996Y-21380D01*
X51717Y-21495D01*
X51646Y-21566D01*
X51576Y-21496D01*
X51297Y-21380D01*
X50996Y-21380D01*
X50717Y-21495D01*
X50646Y-21566D01*
X50576Y-21496D01*
X50297Y-21380D01*
X49996Y-21380D01*
X49717Y-21495D01*
X49504Y-21708D01*
X49388Y-21987D01*
X49388Y-22288D01*
X49503Y-22567D01*
X49574Y-22638D01*
X49504Y-22708D01*
X49388Y-22987D01*
X49388Y-23288D01*
X49503Y-23567D01*
X49716Y-23780D01*
X49995Y-23896D01*
X50296Y-23896D01*
X50575Y-23781D01*
X50646Y-23710D01*
X50716Y-23780D01*
X50995Y-23896D01*
X51296Y-23896D01*
X51575Y-23781D01*
X51646Y-23710D01*
X51716Y-23780D01*
X51995Y-23896D01*
X52296Y-23896D01*
X52575Y-23781D01*
X52646Y-23710D01*
X52716Y-23780D01*
X52995Y-23896D01*
X53296Y-23896D01*
X53575Y-23781D01*
X53646Y-23710D01*
X53716Y-23780D01*
X53995Y-23896D01*
X54296Y-23896D01*
X54575Y-23781D01*
X54646Y-23710D01*
X54716Y-23780D01*
X54995Y-23896D01*
X55296Y-23896D01*
X55575Y-23781D01*
X55646Y-23710D01*
X55716Y-23780D01*
X55995Y-23896D01*
X56296Y-23896D01*
X56575Y-23781D01*
X56646Y-23710D01*
X56716Y-23780D01*
X56995Y-23896D01*
X57296Y-23896D01*
X57575Y-23781D01*
X57646Y-23710D01*
X57716Y-23780D01*
X57995Y-23896D01*
X58139Y-23896D01*
X58139Y-26899D01*
X57987Y-26899D01*
X57759Y-26993D01*
X57735Y-27017D01*
X57138Y-27017D01*
X56330Y-26208D01*
X56330Y-26176D01*
X56236Y-25948D01*
X56061Y-25773D01*
X55833Y-25678D01*
X55586Y-25678D01*
X55358Y-25772D01*
X55183Y-25947D01*
X55088Y-26175D01*
X55088Y-26422D01*
X55182Y-26650D01*
X55357Y-26825D01*
X55585Y-26920D01*
X55618Y-26920D01*
X56572Y-27873D01*
X56574Y-27876D01*
X56695Y-27957D01*
X56736Y-27984D01*
X56738Y-27985D01*
X56881Y-28013D01*
X56929Y-28023D01*
X56929Y-28022D01*
X56930Y-28023D01*
X57735Y-28023D01*
X57758Y-28046D01*
X57986Y-28141D01*
X58139Y-28141D01*
X58139Y-34373D01*
X57996Y-34373D01*
X57717Y-34488D01*
X57646Y-34559D01*
X57576Y-34489D01*
X57310Y-34378D01*
X57310Y-32639D01*
X57310Y-32322D01*
X57189Y-32029D01*
X56965Y-31804D01*
X56671Y-31682D01*
X56354Y-31682D01*
X56061Y-31803D01*
X55836Y-32027D01*
X55714Y-32321D01*
X55714Y-32638D01*
X55835Y-32931D01*
X56059Y-33156D01*
X56353Y-33278D01*
X56670Y-33278D01*
X56963Y-33157D01*
X57188Y-32933D01*
X57310Y-32639D01*
X57310Y-34378D01*
X57297Y-34373D01*
X56996Y-34373D01*
X56717Y-34488D01*
X56646Y-34559D01*
X56576Y-34489D01*
X56297Y-34373D01*
X55996Y-34373D01*
X55717Y-34488D01*
X55646Y-34559D01*
X55576Y-34489D01*
X55297Y-34373D01*
X54996Y-34373D01*
X54717Y-34488D01*
X54646Y-34559D01*
X54576Y-34489D01*
X54297Y-34373D01*
X54145Y-34373D01*
X54145Y-33191D01*
X54353Y-33278D01*
X54670Y-33278D01*
X54963Y-33157D01*
X55188Y-32933D01*
X55310Y-32639D01*
X55310Y-32322D01*
X55189Y-32029D01*
X54965Y-31804D01*
X54671Y-31682D01*
X54354Y-31682D01*
X54145Y-31768D01*
X54145Y-29937D01*
X54175Y-29918D01*
X54284Y-29754D01*
X54322Y-29562D01*
X54322Y-29547D01*
X54322Y-28721D01*
X54345Y-28698D01*
X54440Y-28470D01*
X54440Y-28223D01*
X54346Y-27995D01*
X54171Y-27820D01*
X53943Y-27725D01*
X53696Y-27725D01*
X53468Y-27819D01*
X53293Y-27994D01*
X53198Y-28222D01*
X53198Y-28469D01*
X53292Y-28697D01*
X53316Y-28721D01*
X53316Y-29338D01*
X53286Y-29368D01*
X53177Y-29531D01*
X53139Y-29724D01*
X53139Y-34373D01*
X52996Y-34373D01*
X52717Y-34488D01*
X52646Y-34559D01*
X52576Y-34489D01*
X52297Y-34373D01*
X51996Y-34373D01*
X51717Y-34488D01*
X51646Y-34559D01*
X51576Y-34489D01*
X51297Y-34373D01*
X50996Y-34373D01*
X50717Y-34488D01*
X50646Y-34559D01*
X50576Y-34489D01*
X50297Y-34373D01*
X49996Y-34373D01*
X49717Y-34488D01*
X49504Y-34701D01*
X49388Y-34980D01*
X49388Y-35281D01*
X49503Y-35560D01*
X49574Y-35631D01*
X49504Y-35701D01*
X49430Y-35876D01*
X47295Y-33741D01*
X47479Y-33557D01*
X47481Y-33556D01*
X47482Y-33556D01*
X47590Y-33393D01*
X47591Y-33392D01*
X47629Y-33200D01*
X47629Y-28684D01*
X47637Y-28692D01*
X47800Y-28800D01*
X47801Y-28801D01*
X47993Y-28839D01*
X48995Y-28839D01*
X49018Y-28862D01*
X49246Y-28957D01*
X49493Y-28957D01*
X49721Y-28863D01*
X49896Y-28688D01*
X49991Y-28460D01*
X49991Y-28213D01*
X49897Y-27985D01*
X49722Y-27810D01*
X49494Y-27715D01*
X49247Y-27715D01*
X49019Y-27809D01*
X48995Y-27833D01*
X48202Y-27833D01*
X47874Y-27505D01*
X47874Y-27321D01*
X47760Y-27046D01*
X47683Y-26969D01*
X47760Y-26893D01*
X47874Y-26619D01*
X47874Y-26459D01*
X48916Y-26459D01*
X48939Y-26482D01*
X49167Y-26577D01*
X49414Y-26577D01*
X49642Y-26483D01*
X49817Y-26308D01*
X49912Y-26080D01*
X49912Y-25833D01*
X49818Y-25605D01*
X49759Y-25546D01*
X49817Y-25489D01*
X49912Y-25261D01*
X49912Y-25014D01*
X49818Y-24786D01*
X49643Y-24611D01*
X49415Y-24516D01*
X49168Y-24516D01*
X48940Y-24610D01*
X48916Y-24634D01*
X47671Y-24634D01*
X47670Y-24634D01*
X47622Y-24643D01*
X47479Y-24672D01*
X47477Y-24672D01*
X47477Y-24673D01*
X47436Y-24700D01*
X47315Y-24781D01*
X47313Y-24783D01*
X46485Y-25611D01*
X46485Y-24846D01*
X46485Y-24365D01*
X46302Y-23923D01*
X46139Y-23815D01*
X46068Y-23886D01*
X46068Y-23744D01*
X45960Y-23581D01*
X45515Y-23398D01*
X45034Y-23398D01*
X44864Y-23468D01*
X44592Y-23581D01*
X44484Y-23744D01*
X45276Y-24536D01*
X46068Y-23744D01*
X46068Y-23886D01*
X45347Y-24607D01*
X46139Y-25399D01*
X46302Y-25291D01*
X46485Y-24846D01*
X46485Y-25611D01*
X46375Y-25721D01*
X46191Y-25721D01*
X46068Y-25771D01*
X46068Y-25470D01*
X45276Y-24678D01*
X45205Y-24749D01*
X45205Y-24607D01*
X44413Y-23815D01*
X44282Y-23901D01*
X44250Y-23923D01*
X44067Y-24368D01*
X44067Y-24849D01*
X44250Y-25291D01*
X44413Y-25399D01*
X45205Y-24607D01*
X45205Y-24749D01*
X44484Y-25470D01*
X44592Y-25633D01*
X45037Y-25816D01*
X45518Y-25816D01*
X45960Y-25633D01*
X46068Y-25470D01*
X46068Y-25771D01*
X45916Y-25835D01*
X45705Y-26045D01*
X45591Y-26319D01*
X45591Y-26617D01*
X45705Y-26892D01*
X45911Y-27098D01*
X45869Y-27141D01*
X45901Y-27173D01*
X45863Y-27185D01*
X45791Y-27389D01*
X45802Y-27605D01*
X45863Y-27753D01*
X45957Y-27780D01*
X46233Y-27504D01*
X46268Y-27469D01*
X46339Y-27398D01*
X46378Y-27437D01*
X46378Y-27501D01*
X46339Y-27540D01*
X46304Y-27575D01*
X46268Y-27611D01*
X46028Y-27851D01*
X46055Y-27945D01*
X46259Y-28017D01*
X46475Y-28006D01*
X46567Y-27967D01*
X46623Y-28023D01*
X46623Y-32991D01*
X46485Y-33129D01*
X46485Y-29570D01*
X46485Y-29089D01*
X46302Y-28647D01*
X46139Y-28539D01*
X46068Y-28610D01*
X46068Y-28468D01*
X45960Y-28305D01*
X45515Y-28122D01*
X45034Y-28122D01*
X44592Y-28305D01*
X44484Y-28468D01*
X45276Y-29260D01*
X46068Y-28468D01*
X46068Y-28610D01*
X45347Y-29331D01*
X46139Y-30123D01*
X46302Y-30015D01*
X46485Y-29570D01*
X46485Y-33129D01*
X46228Y-33386D01*
X46225Y-33389D01*
X46068Y-33546D01*
X46068Y-30194D01*
X45276Y-29402D01*
X45205Y-29473D01*
X45205Y-29331D01*
X44413Y-28539D01*
X44250Y-28647D01*
X44067Y-29092D01*
X44067Y-29573D01*
X44250Y-30015D01*
X44413Y-30123D01*
X45205Y-29331D01*
X45205Y-29473D01*
X44484Y-30194D01*
X44592Y-30357D01*
X45037Y-30540D01*
X45518Y-30540D01*
X45960Y-30357D01*
X46068Y-30194D01*
X46068Y-33546D01*
X43550Y-36064D01*
X43477Y-35888D01*
X43473Y-35886D01*
X43638Y-35721D01*
X43769Y-35407D01*
X43769Y-35066D01*
X43639Y-34751D01*
X43609Y-34722D01*
X43622Y-34710D01*
X43750Y-34403D01*
X43750Y-34070D01*
X43623Y-33762D01*
X43387Y-33527D01*
X43080Y-33399D01*
X42747Y-33399D01*
X42439Y-33526D01*
X42204Y-33762D01*
X42076Y-34069D01*
X42076Y-34402D01*
X42203Y-34710D01*
X42215Y-34722D01*
X42188Y-34751D01*
X42057Y-35065D01*
X42057Y-35380D01*
X42026Y-35411D01*
X41927Y-35510D01*
X41858Y-35613D01*
X41858Y-22771D01*
X41891Y-22737D01*
X42039Y-22922D01*
X42694Y-23202D01*
X43406Y-23210D01*
X44067Y-22946D01*
X44103Y-22922D01*
X44282Y-22698D01*
X43106Y-21523D01*
X43071Y-21488D01*
X43000Y-21417D01*
X43071Y-21346D01*
X43142Y-21417D01*
X43177Y-21452D01*
X44352Y-22628D01*
X44576Y-22449D01*
X44856Y-21794D01*
X44864Y-21082D01*
X44600Y-20421D01*
X44576Y-20385D01*
X44391Y-20237D01*
X44425Y-20204D01*
X86874Y-20204D01*
X86907Y-20237D01*
X86723Y-20385D01*
X86443Y-21040D01*
X86435Y-21752D01*
X86699Y-22413D01*
X86723Y-22449D01*
X86947Y-22628D01*
X88122Y-21452D01*
X88157Y-21417D01*
X88228Y-21346D01*
X88299Y-21417D01*
X88228Y-21488D01*
X88157Y-21558D01*
X87017Y-22698D01*
X87196Y-22922D01*
X87851Y-23202D01*
X88563Y-23210D01*
X89224Y-22946D01*
X89260Y-22922D01*
X89407Y-22737D01*
X89439Y-22769D01*
X89442Y-22772D01*
X89442Y-44551D01*
X89442Y-44551D01*
G37*
G54D23*
X89442Y-44551D02*
X89439Y-44554D01*
X89407Y-44585D01*
X89260Y-44401D01*
X88605Y-44121D01*
X87893Y-44113D01*
X87232Y-44377D01*
X87196Y-44401D01*
X87017Y-44625D01*
X88193Y-45800D01*
X88228Y-45835D01*
X88299Y-45906D01*
X88228Y-45977D01*
X88157Y-45906D01*
X88122Y-45871D01*
X86947Y-44695D01*
X86723Y-44874D01*
X86443Y-45529D01*
X86439Y-45885D01*
X86439Y-42868D01*
X86435Y-42464D01*
X86287Y-42107D01*
X86144Y-42022D01*
X85492Y-42675D01*
X86144Y-43328D01*
X86287Y-43243D01*
X86439Y-42868D01*
X86439Y-45885D01*
X86435Y-46241D01*
X86699Y-46902D01*
X86723Y-46938D01*
X86907Y-47085D01*
X86874Y-47119D01*
X86074Y-47119D01*
X86074Y-43398D01*
X85421Y-42746D01*
X84768Y-43398D01*
X84853Y-43541D01*
X85228Y-43693D01*
X85632Y-43689D01*
X85989Y-43541D01*
X86074Y-43398D01*
X86074Y-47119D01*
X80347Y-47119D01*
X84457Y-43008D01*
X84555Y-43243D01*
X84698Y-43328D01*
X85315Y-42710D01*
X85350Y-42675D01*
X85421Y-42604D01*
X85456Y-42569D01*
X86074Y-41952D01*
X85989Y-41809D01*
X85752Y-41713D01*
X86493Y-40972D01*
X86496Y-40970D01*
X86497Y-40970D01*
X86938Y-40527D01*
X86940Y-40526D01*
X86941Y-40526D01*
X87022Y-40404D01*
X87049Y-40364D01*
X87049Y-40363D01*
X87050Y-40362D01*
X87078Y-40218D01*
X87088Y-40171D01*
X87087Y-40170D01*
X87088Y-40170D01*
X87088Y-36202D01*
X87170Y-36202D01*
X87398Y-36108D01*
X87573Y-35933D01*
X87668Y-35705D01*
X87668Y-35458D01*
X87631Y-35370D01*
X87751Y-34960D01*
X87757Y-34888D01*
X87771Y-34819D01*
X87771Y-23834D01*
X87733Y-23642D01*
X87732Y-23641D01*
X87624Y-23478D01*
X85475Y-21329D01*
X85312Y-21220D01*
X85119Y-21182D01*
X79556Y-21182D01*
X79533Y-21159D01*
X79305Y-21064D01*
X79058Y-21064D01*
X78830Y-21158D01*
X78655Y-21333D01*
X78560Y-21561D01*
X78560Y-21808D01*
X78654Y-22036D01*
X78829Y-22211D01*
X79057Y-22306D01*
X79304Y-22306D01*
X79532Y-22212D01*
X79556Y-22188D01*
X84910Y-22188D01*
X85224Y-22502D01*
X79635Y-22502D01*
X79442Y-22540D01*
X79279Y-22649D01*
X75855Y-26073D01*
X75823Y-26073D01*
X75740Y-26107D01*
X74961Y-25328D01*
X74961Y-25296D01*
X74867Y-25068D01*
X74692Y-24893D01*
X74468Y-24799D01*
X74450Y-24707D01*
X74449Y-24705D01*
X74422Y-24664D01*
X74341Y-24543D01*
X74338Y-24541D01*
X70346Y-20548D01*
X70183Y-20439D01*
X69990Y-20401D01*
X57399Y-20401D01*
X57398Y-20401D01*
X57350Y-20410D01*
X57207Y-20439D01*
X57205Y-20439D01*
X57205Y-20440D01*
X57164Y-20467D01*
X57043Y-20548D01*
X57041Y-20550D01*
X56290Y-21301D01*
X56237Y-21380D01*
X55996Y-21380D01*
X55717Y-21495D01*
X55646Y-21566D01*
X55576Y-21496D01*
X55297Y-21380D01*
X54996Y-21380D01*
X54717Y-21495D01*
X54646Y-21566D01*
X54576Y-21496D01*
X54297Y-21380D01*
X53996Y-21380D01*
X53717Y-21495D01*
X53646Y-21566D01*
X53576Y-21496D01*
X53297Y-21380D01*
X52996Y-21380D01*
X52717Y-21495D01*
X52646Y-21566D01*
X52576Y-21496D01*
X52297Y-21380D01*
X51996Y-21380D01*
X51717Y-21495D01*
X51646Y-21566D01*
X51576Y-21496D01*
X51297Y-21380D01*
X50996Y-21380D01*
X50717Y-21495D01*
X50646Y-21566D01*
X50576Y-21496D01*
X50297Y-21380D01*
X49996Y-21380D01*
X49717Y-21495D01*
X49504Y-21708D01*
X49388Y-21987D01*
X49388Y-22288D01*
X49503Y-22567D01*
X49574Y-22638D01*
X49504Y-22708D01*
X49388Y-22987D01*
X49388Y-23288D01*
X49503Y-23567D01*
X49716Y-23780D01*
X49995Y-23896D01*
X50296Y-23896D01*
X50575Y-23781D01*
X50646Y-23710D01*
X50716Y-23780D01*
X50995Y-23896D01*
X51296Y-23896D01*
X51575Y-23781D01*
X51646Y-23710D01*
X51716Y-23780D01*
X51995Y-23896D01*
X52296Y-23896D01*
X52575Y-23781D01*
X52646Y-23710D01*
X52716Y-23780D01*
X52995Y-23896D01*
X53296Y-23896D01*
X53575Y-23781D01*
X53646Y-23710D01*
X53716Y-23780D01*
X53995Y-23896D01*
X54296Y-23896D01*
X54575Y-23781D01*
X54646Y-23710D01*
X54716Y-23780D01*
X54995Y-23896D01*
X55296Y-23896D01*
X55575Y-23781D01*
X55646Y-23710D01*
X55716Y-23780D01*
X55995Y-23896D01*
X56296Y-23896D01*
X56575Y-23781D01*
X56646Y-23710D01*
X56716Y-23780D01*
X56995Y-23896D01*
X57296Y-23896D01*
X57575Y-23781D01*
X57646Y-23710D01*
X57716Y-23780D01*
X57995Y-23896D01*
X58139Y-23896D01*
X58139Y-26899D01*
X57987Y-26899D01*
X57759Y-26993D01*
X57735Y-27017D01*
X57138Y-27017D01*
X56330Y-26208D01*
X56330Y-26176D01*
X56236Y-25948D01*
X56061Y-25773D01*
X55833Y-25678D01*
X55586Y-25678D01*
X55358Y-25772D01*
X55183Y-25947D01*
X55088Y-26175D01*
X55088Y-26422D01*
X55182Y-26650D01*
X55357Y-26825D01*
X55585Y-26920D01*
X55618Y-26920D01*
X56572Y-27873D01*
X56574Y-27876D01*
X56695Y-27957D01*
X56736Y-27984D01*
X56738Y-27985D01*
X56881Y-28013D01*
X56929Y-28023D01*
X56929Y-28022D01*
X56930Y-28023D01*
X57735Y-28023D01*
X57758Y-28046D01*
X57986Y-28141D01*
X58139Y-28141D01*
X58139Y-34373D01*
X57996Y-34373D01*
X57717Y-34488D01*
X57646Y-34559D01*
X57576Y-34489D01*
X57310Y-34378D01*
X57310Y-32639D01*
X57310Y-32322D01*
X57189Y-32029D01*
X56965Y-31804D01*
X56671Y-31682D01*
X56354Y-31682D01*
X56061Y-31803D01*
X55836Y-32027D01*
X55714Y-32321D01*
X55714Y-32638D01*
X55835Y-32931D01*
X56059Y-33156D01*
X56353Y-33278D01*
X56670Y-33278D01*
X56963Y-33157D01*
X57188Y-32933D01*
X57310Y-32639D01*
X57310Y-34378D01*
X57297Y-34373D01*
X56996Y-34373D01*
X56717Y-34488D01*
X56646Y-34559D01*
X56576Y-34489D01*
X56297Y-34373D01*
X55996Y-34373D01*
X55717Y-34488D01*
X55646Y-34559D01*
X55576Y-34489D01*
X55297Y-34373D01*
X54996Y-34373D01*
X54717Y-34488D01*
X54646Y-34559D01*
X54576Y-34489D01*
X54297Y-34373D01*
X54145Y-34373D01*
X54145Y-33191D01*
X54353Y-33278D01*
X54670Y-33278D01*
X54963Y-33157D01*
X55188Y-32933D01*
X55310Y-32639D01*
X55310Y-32322D01*
X55189Y-32029D01*
X54965Y-31804D01*
X54671Y-31682D01*
X54354Y-31682D01*
X54145Y-31768D01*
X54145Y-29937D01*
X54175Y-29918D01*
X54284Y-29754D01*
X54322Y-29562D01*
X54322Y-29547D01*
X54322Y-28721D01*
X54345Y-28698D01*
X54440Y-28470D01*
X54440Y-28223D01*
X54346Y-27995D01*
X54171Y-27820D01*
X53943Y-27725D01*
X53696Y-27725D01*
X53468Y-27819D01*
X53293Y-27994D01*
X53198Y-28222D01*
X53198Y-28469D01*
X53292Y-28697D01*
X53316Y-28721D01*
X53316Y-29338D01*
X53286Y-29368D01*
X53177Y-29531D01*
X53139Y-29724D01*
X53139Y-34373D01*
X52996Y-34373D01*
X52717Y-34488D01*
X52646Y-34559D01*
X52576Y-34489D01*
X52297Y-34373D01*
X51996Y-34373D01*
X51717Y-34488D01*
X51646Y-34559D01*
X51576Y-34489D01*
X51297Y-34373D01*
X50996Y-34373D01*
X50717Y-34488D01*
X50646Y-34559D01*
X50576Y-34489D01*
X50297Y-34373D01*
X49996Y-34373D01*
X49717Y-34488D01*
X49504Y-34701D01*
X49388Y-34980D01*
X49388Y-35281D01*
X49503Y-35560D01*
X49574Y-35631D01*
X49504Y-35701D01*
X49430Y-35876D01*
X47295Y-33741D01*
X47479Y-33557D01*
X47481Y-33556D01*
X47482Y-33556D01*
X47590Y-33393D01*
X47591Y-33392D01*
X47629Y-33200D01*
X47629Y-28684D01*
X47637Y-28692D01*
X47800Y-28800D01*
X47801Y-28801D01*
X47993Y-28839D01*
X48995Y-28839D01*
X49018Y-28862D01*
X49246Y-28957D01*
X49493Y-28957D01*
X49721Y-28863D01*
X49896Y-28688D01*
X49991Y-28460D01*
X49991Y-28213D01*
X49897Y-27985D01*
X49722Y-27810D01*
X49494Y-27715D01*
X49247Y-27715D01*
X49019Y-27809D01*
X48995Y-27833D01*
X48202Y-27833D01*
X47874Y-27505D01*
X47874Y-27321D01*
X47760Y-27046D01*
X47683Y-26969D01*
X47760Y-26893D01*
X47874Y-26619D01*
X47874Y-26459D01*
X48916Y-26459D01*
X48939Y-26482D01*
X49167Y-26577D01*
X49414Y-26577D01*
X49642Y-26483D01*
X49817Y-26308D01*
X49912Y-26080D01*
X49912Y-25833D01*
X49818Y-25605D01*
X49759Y-25546D01*
X49817Y-25489D01*
X49912Y-25261D01*
X49912Y-25014D01*
X49818Y-24786D01*
X49643Y-24611D01*
X49415Y-24516D01*
X49168Y-24516D01*
X48940Y-24610D01*
X48916Y-24634D01*
X47671Y-24634D01*
X47670Y-24634D01*
X47622Y-24643D01*
X47479Y-24672D01*
X47477Y-24672D01*
X47477Y-24673D01*
X47436Y-24700D01*
X47315Y-24781D01*
X47313Y-24783D01*
X46485Y-25611D01*
X46485Y-24846D01*
X46485Y-24365D01*
X46302Y-23923D01*
X46139Y-23815D01*
X46068Y-23886D01*
X46068Y-23744D01*
X45960Y-23581D01*
X45515Y-23398D01*
X45034Y-23398D01*
X44864Y-23468D01*
X44592Y-23581D01*
X44484Y-23744D01*
X45276Y-24536D01*
X46068Y-23744D01*
X46068Y-23886D01*
X45347Y-24607D01*
X46139Y-25399D01*
X46302Y-25291D01*
X46485Y-24846D01*
X46485Y-25611D01*
X46375Y-25721D01*
X46191Y-25721D01*
X46068Y-25771D01*
X46068Y-25470D01*
X45276Y-24678D01*
X45205Y-24749D01*
X45205Y-24607D01*
X44413Y-23815D01*
X44282Y-23901D01*
X44250Y-23923D01*
X44067Y-24368D01*
X44067Y-24849D01*
X44250Y-25291D01*
X44413Y-25399D01*
X45205Y-24607D01*
X45205Y-24749D01*
X44484Y-25470D01*
X44592Y-25633D01*
X45037Y-25816D01*
X45518Y-25816D01*
X45960Y-25633D01*
X46068Y-25470D01*
X46068Y-25771D01*
X45916Y-25835D01*
X45705Y-26045D01*
X45591Y-26319D01*
X45591Y-26617D01*
X45705Y-26892D01*
X45911Y-27098D01*
X45869Y-27141D01*
X45901Y-27173D01*
X45863Y-27185D01*
X45791Y-27389D01*
X45802Y-27605D01*
X45863Y-27753D01*
X45957Y-27780D01*
X46233Y-27504D01*
X46268Y-27469D01*
X46339Y-27398D01*
X46378Y-27437D01*
X46378Y-27501D01*
X46339Y-27540D01*
X46304Y-27575D01*
X46268Y-27611D01*
X46028Y-27851D01*
X46055Y-27945D01*
X46259Y-28017D01*
X46475Y-28006D01*
X46567Y-27967D01*
X46623Y-28023D01*
X46623Y-32991D01*
X46485Y-33129D01*
X46485Y-29570D01*
X46485Y-29089D01*
X46302Y-28647D01*
X46139Y-28539D01*
X46068Y-28610D01*
X46068Y-28468D01*
X45960Y-28305D01*
X45515Y-28122D01*
X45034Y-28122D01*
X44592Y-28305D01*
X44484Y-28468D01*
X45276Y-29260D01*
X46068Y-28468D01*
X46068Y-28610D01*
X45347Y-29331D01*
X46139Y-30123D01*
X46302Y-30015D01*
X46485Y-29570D01*
X46485Y-33129D01*
X46228Y-33386D01*
X46225Y-33389D01*
X46068Y-33546D01*
X46068Y-30194D01*
X45276Y-29402D01*
X45205Y-29473D01*
X45205Y-29331D01*
X44413Y-28539D01*
X44250Y-28647D01*
X44067Y-29092D01*
X44067Y-29573D01*
X44250Y-30015D01*
X44413Y-30123D01*
X45205Y-29331D01*
X45205Y-29473D01*
X44484Y-30194D01*
X44592Y-30357D01*
X45037Y-30540D01*
X45518Y-30540D01*
X45960Y-30357D01*
X46068Y-30194D01*
X46068Y-33546D01*
X43550Y-36064D01*
X43477Y-35888D01*
X43473Y-35886D01*
X43638Y-35721D01*
X43769Y-35407D01*
X43769Y-35066D01*
X43639Y-34751D01*
X43609Y-34722D01*
X43622Y-34710D01*
X43750Y-34403D01*
X43750Y-34070D01*
X43623Y-33762D01*
X43387Y-33527D01*
X43080Y-33399D01*
X42747Y-33399D01*
X42439Y-33526D01*
X42204Y-33762D01*
X42076Y-34069D01*
X42076Y-34402D01*
X42203Y-34710D01*
X42215Y-34722D01*
X42188Y-34751D01*
X42057Y-35065D01*
X42057Y-35380D01*
X42026Y-35411D01*
X41927Y-35510D01*
X41858Y-35613D01*
X41858Y-22771D01*
X41891Y-22737D01*
X42039Y-22922D01*
X42694Y-23202D01*
X43406Y-23210D01*
X44067Y-22946D01*
X44103Y-22922D01*
X44282Y-22698D01*
X43106Y-21523D01*
X43071Y-21488D01*
X43000Y-21417D01*
X43071Y-21346D01*
X43142Y-21417D01*
X43177Y-21452D01*
X44352Y-22628D01*
X44576Y-22449D01*
X44856Y-21794D01*
X44864Y-21082D01*
X44600Y-20421D01*
X44576Y-20385D01*
X44391Y-20237D01*
X44425Y-20204D01*
X86874Y-20204D01*
X86907Y-20237D01*
X86723Y-20385D01*
X86443Y-21040D01*
X86435Y-21752D01*
X86699Y-22413D01*
X86723Y-22449D01*
X86947Y-22628D01*
X88122Y-21452D01*
X88157Y-21417D01*
X88228Y-21346D01*
X88299Y-21417D01*
X88228Y-21488D01*
X88157Y-21558D01*
X87017Y-22698D01*
X87196Y-22922D01*
X87851Y-23202D01*
X88563Y-23210D01*
X89224Y-22946D01*
X89260Y-22922D01*
X89407Y-22737D01*
X89439Y-22769D01*
X89442Y-22772D01*
X89442Y-44551D01*
M02*
