<?xml version="1.0" encoding="UTF-8" standalone="no"?>
<!-- Created with Inkscape (http://www.inkscape.org/) -->
<svg
   xmlns:dc="http://purl.org/dc/elements/1.1/"
   xmlns:cc="http://creativecommons.org/ns#"
   xmlns:rdf="http://www.w3.org/1999/02/22-rdf-syntax-ns#"
   xmlns:svg="http://www.w3.org/2000/svg"
   xmlns="http://www.w3.org/2000/svg"
   xmlns:sodipodi="http://sodipodi.sourceforge.net/DTD/sodipodi-0.dtd"
   xmlns:inkscape="http://www.inkscape.org/namespaces/inkscape"
   width="744.09448819"
   height="1052.3622047"
   id="svg2"
   sodipodi:version="0.32"
   inkscape:version="0.46"
   sodipodi:docname="blockdia_core.svg"
   inkscape:output_extension="org.inkscape.output.svg.inkscape">
  <defs
     id="defs4">
    <inkscape:perspective
       sodipodi:type="inkscape:persp3d"
       inkscape:vp_x="0 : 526.18109 : 1"
       inkscape:vp_y="0 : 1000 : 0"
       inkscape:vp_z="744.09448 : 526.18109 : 1"
       inkscape:persp3d-origin="372.04724 : 350.78739 : 1"
       id="perspective10" />
  </defs>
  <sodipodi:namedview
     id="base"
     pagecolor="#ffffff"
     bordercolor="#666666"
     borderopacity="1.0"
     gridtolerance="10000"
     guidetolerance="10"
     objecttolerance="10"
     inkscape:pageopacity="0.0"
     inkscape:pageshadow="2"
     inkscape:zoom="0.7"
     inkscape:cx="299.69003"
     inkscape:cy="730.15139"
     inkscape:document-units="px"
     inkscape:current-layer="layer1"
     showgrid="true"
     inkscape:window-width="1600"
     inkscape:window-height="1125"
     inkscape:window-x="0"
     inkscape:window-y="25">
    <inkscape:grid
       type="xygrid"
       id="grid2383" />
  </sodipodi:namedview>
  <metadata
     id="metadata7">
    <rdf:RDF>
      <cc:Work
         rdf:about="">
        <dc:format>image/svg+xml</dc:format>
        <dc:type
           rdf:resource="http://purl.org/dc/dcmitype/StillImage" />
      </cc:Work>
    </rdf:RDF>
  </metadata>
  <g
     inkscape:label="Layer 1"
     inkscape:groupmode="layer"
     id="layer1">
    <g
       id="g3181"
       transform="translate(27.330039,0)">
      <rect
         ry="3"
         rx="3"
         y="172.36218"
         x="280"
         height="190"
         width="140"
         id="rect2385"
         style="fill:none;fill-opacity:1;stroke:#000000;stroke-width:1;stroke-miterlimit:4;stroke-dasharray:none;stroke-dashoffset:0;stroke-opacity:1" />
      <path
         sodipodi:nodetypes="cc"
         id="path2387"
         d="M 280,212.36218 L 420,212.36218"
         style="fill:none;fill-rule:evenodd;stroke:#000000;stroke-width:1px;stroke-linecap:butt;stroke-linejoin:miter;stroke-opacity:1" />
      <path
         id="path2389"
         d="M 350,212.36218 L 350,362.36218"
         style="fill:none;fill-rule:evenodd;stroke:#000000;stroke-width:1;stroke-linecap:round;stroke-linejoin:miter;stroke-miterlimit:4;stroke-dasharray:2, 4;stroke-dashoffset:0;stroke-opacity:1" />
      <path
         id="path3163"
         d="M 282.0669,361.47306 C 281.69305,361.33571 281.21671,360.85096 280.99361,360.38081 C 280.63,359.61456 280.59249,352.68388 280.59249,286.27447 L 280.59249,213.01344 L 314.93767,213.01344 L 349.28286,213.01344 L 349.28286,213.74014 C 349.28286,214.51781 349.84829,215.18233 350.28195,214.91432 C 350.42693,214.8247 350.54555,214.36036 350.54555,213.88242 L 350.54555,213.01344 L 385.0187,213.01344 L 419.49184,213.01344 L 419.42702,286.62257 L 419.36219,360.23171 L 418.66198,360.93192 L 417.96177,361.63214 L 350.35041,361.67608 C 306.81355,361.70434 282.49972,361.63206 282.0669,361.47306 z M 350.49686,357.48996 C 350.58307,355.97922 350.28996,355.42859 349.67237,355.94114 C 349.27732,356.26901 349.14236,357.81543 349.4409,358.59342 C 349.52782,358.81995 349.78352,358.97023 350.00912,358.92738 C 350.31498,358.86929 350.43901,358.50379 350.49686,357.48996 L 350.49686,357.48996 z M 350.49559,351.31946 C 350.56867,349.91273 350.54729,349.85401 349.99052,349.93295 C 349.5347,349.99758 349.39147,350.20021 349.32739,350.87108 C 349.2054,352.14802 349.4756,352.96793 349.98636,352.87075 C 350.32507,352.80633 350.43589,352.46871 350.49559,351.31946 L 350.49559,351.31946 z M 350.54555,345.34343 C 350.54555,344.0251 350.48343,343.8282 350.06749,343.8282 C 349.52625,343.8282 349.28286,344.29822 349.28286,345.34343 C 349.28286,346.38863 349.52625,346.85866 350.06749,346.85866 C 350.48343,346.85866 350.54555,346.66175 350.54555,345.34343 z M 350.4951,339.44891 C 350.55573,338.30158 350.4873,337.98161 350.15395,337.8537 C 349.5919,337.63801 349.29141,338.18122 349.28673,339.42141 C 349.28284,340.44724 349.66747,341.13157 350.15727,340.97035 C 350.30137,340.92292 350.4534,340.23827 350.49511,339.44891 L 350.4951,339.44891 z M 350.49686,333.48136 C 350.58325,331.98696 350.28819,331.43893 349.67237,331.95002 C 349.2026,332.33991 349.14465,334.24506 349.58906,334.68947 C 350.13254,335.23296 350.41753,334.8537 350.49686,333.48136 L 350.49686,333.48136 z M 350.49559,327.32834 C 350.56867,325.9216 350.54729,325.86289 349.99052,325.94183 C 349.5347,326.00646 349.39147,326.20909 349.32739,326.87996 C 349.2054,328.15689 349.4756,328.97681 349.98636,328.87963 C 350.32507,328.81518 350.43589,328.47759 350.49559,327.32834 L 350.49559,327.32834 z M 350.54555,321.3523 C 350.54555,320.03398 350.48343,319.83707 350.06749,319.83707 C 349.52625,319.83707 349.28286,320.3071 349.28286,321.3523 C 349.28286,322.39751 349.52625,322.86753 350.06749,322.86753 C 350.48343,322.86753 350.54555,322.67063 350.54555,321.3523 z M 350.54555,315.39483 C 350.54555,314.36064 350.4438,313.9738 350.14126,313.8577 C 349.58808,313.64544 349.29133,314.20473 349.28673,315.46824 C 349.28401,316.21375 349.41259,316.60158 349.71941,316.77329 C 350.39168,317.1495 350.54555,316.89277 350.54555,315.39483 L 350.54555,315.39483 z M 350.49686,309.49024 C 350.58325,307.99584 350.28819,307.44781 349.67237,307.9589 C 349.2026,308.34878 349.14465,310.25394 349.58906,310.69835 C 350.13254,311.24184 350.41753,310.86258 350.49686,309.49024 L 350.49686,309.49024 z M 350.49698,303.44363 C 350.54853,302.53933 350.46643,302.01405 350.25291,301.88208 C 349.72824,301.55781 349.28286,302.15365 349.28286,303.17983 C 349.28286,304.44853 349.50898,304.97921 350.00912,304.88422 C 350.31513,304.8261 350.43901,304.46033 350.49697,303.44363 L 350.49698,303.44363 z M 350.54555,297.36118 C 350.54555,296.04286 350.48343,295.84595 350.06749,295.84595 C 349.52625,295.84595 349.28286,296.31597 349.28286,297.36118 C 349.28286,298.40639 349.52625,298.87641 350.06749,298.87641 C 350.48343,298.87641 350.54555,298.67951 350.54555,297.36118 z M 350.54555,291.30027 C 350.54555,289.98194 350.48343,289.78504 350.06749,289.78504 C 349.49529,289.78504 349.28286,290.25785 349.28286,291.53137 C 349.28286,292.59841 349.41805,292.81549 350.08256,292.81549 C 350.48007,292.81549 350.54555,292.60122 350.54555,291.30027 z M 350.49686,285.49912 C 350.58325,284.00472 350.28819,283.45669 349.67237,283.96778 C 349.2026,284.35765 349.14465,286.26282 349.58906,286.70723 C 350.13254,287.25072 350.41753,286.87146 350.49686,285.49911 L 350.49686,285.49912 z M 350.49698,279.45251 C 350.54853,278.5482 350.46643,278.02292 350.25291,277.89096 C 349.72824,277.56669 349.28286,278.16252 349.28286,279.1887 C 349.28286,280.45741 349.50898,280.98808 350.00912,280.8931 C 350.31513,280.83498 350.43901,280.46921 350.49697,279.45251 L 350.49698,279.45251 z M 350.54555,273.37006 C 350.54555,272.05173 350.48343,271.85483 350.06749,271.85483 C 349.52625,271.85483 349.28286,272.32485 349.28286,273.37006 C 349.28286,274.41526 349.52625,274.88529 350.06749,274.88529 C 350.48343,274.88529 350.54555,274.68838 350.54555,273.37006 z M 350.54555,267.30914 C 350.54555,265.99082 350.48343,265.79391 350.06749,265.79391 C 349.52625,265.79391 349.28286,266.26393 349.28286,267.30914 C 349.28286,268.35435 349.52625,268.82437 350.06749,268.82437 C 350.48343,268.82437 350.54555,268.62747 350.54555,267.30914 z M 350.49686,261.508 C 350.58325,260.01359 350.28819,259.46557 349.67237,259.97665 C 349.2026,260.36653 349.14465,262.2717 349.58906,262.7161 C 350.13254,263.25959 350.41753,262.88034 350.49686,261.50799 L 350.49686,261.508 z M 350.49698,255.46138 C 350.54853,254.55708 350.46643,254.0318 350.25291,253.89983 C 349.72824,253.57557 349.28286,254.1714 349.28286,255.19758 C 349.28286,256.46628 349.50898,256.99696 350.00912,256.90198 C 350.31513,256.84386 350.43901,256.47808 350.49697,255.46139 L 350.49698,255.46138 z M 350.54555,249.37893 C 350.54555,248.06061 350.48343,247.86371 350.06749,247.86371 C 349.52625,247.86371 349.28286,248.33373 349.28286,249.37893 C 349.28286,250.42414 349.52625,250.89416 350.06749,250.89416 C 350.48343,250.89416 350.54555,250.69726 350.54555,249.37893 z M 350.54555,243.31802 C 350.54555,241.99969 350.48343,241.80279 350.06749,241.80279 C 349.52625,241.80279 349.28286,242.27281 349.28286,243.31802 C 349.28286,244.36323 349.52625,244.83325 350.06749,244.83325 C 350.48343,244.83325 350.54555,244.63634 350.54555,243.31802 z M 350.49686,237.51687 C 350.58325,236.02247 350.28819,235.47444 349.67237,235.98553 C 349.2026,236.37541 349.14465,238.28058 349.58906,238.72498 C 350.13254,239.26847 350.41753,238.88922 350.49686,237.51687 L 350.49686,237.51687 z M 350.49698,231.47026 C 350.54853,230.56596 350.46643,230.04068 350.25291,229.90871 C 349.72824,229.58444 349.28286,230.18028 349.28286,231.20646 C 349.28286,232.47516 349.50898,233.00584 350.00912,232.91085 C 350.31513,232.85274 350.43901,232.48696 350.49697,231.47026 L 350.49698,231.47026 z M 350.54555,225.38781 C 350.54555,224.06949 350.48343,223.87258 350.06749,223.87258 C 349.52625,223.87258 349.28286,224.3426 349.28286,225.38781 C 349.28286,226.43302 349.52625,226.90304 350.06749,226.90304 C 350.48343,226.90304 350.54555,226.70614 350.54555,225.38781 z M 350.54555,219.3269 C 350.54555,218.00857 350.48343,217.81167 350.06749,217.81167 C 349.52625,217.81167 349.28286,218.28169 349.28286,219.3269 C 349.28286,220.3721 349.52625,220.84213 350.06749,220.84213 C 350.48343,220.84213 350.54555,220.64522 350.54555,219.3269 z"
         style="fill:#6b281c;fill-opacity:0.61883407;stroke:#000000;stroke-width:1;stroke-linecap:round;stroke-miterlimit:4;stroke-dasharray:2, 4;stroke-dashoffset:0;stroke-opacity:1" />
      <text
         id="text3165"
         y="196.21931"
         x="282.49585"
         style="font-size:10px;font-style:normal;font-weight:normal;fill:#000000;fill-opacity:1;stroke:none;stroke-width:1px;stroke-linecap:butt;stroke-linejoin:miter;stroke-opacity:1;font-family:Bitstream Vera Sans"
         xml:space="preserve"><tspan
           style="font-size:13px"
           y="196.21931"
           x="282.49585"
           id="tspan3167"
           sodipodi:role="line">FIFO_U2X_2C_1024B</tspan></text>
    </g>
    <g
       id="g3197"
       transform="translate(46,44.28571)">
      <rect
         ry="3"
         rx="3"
         y="458.34683"
         x="261.33005"
         height="190"
         width="140"
         id="rect3169"
         style="fill:none;fill-opacity:1;stroke:#000000;stroke-width:1;stroke-miterlimit:4;stroke-dasharray:none;stroke-dashoffset:0;stroke-opacity:1" />
      <path
         sodipodi:nodetypes="cc"
         id="path3171"
         d="M 261.33003,498.34682 L 401.33003,498.34682"
         style="fill:none;fill-rule:evenodd;stroke:#000000;stroke-width:1px;stroke-linecap:butt;stroke-linejoin:miter;stroke-opacity:1" />
      <path
         id="path3173"
         d="M 331.33003,498.34682 L 331.33003,648.34682"
         style="fill:none;fill-rule:evenodd;stroke:#000000;stroke-width:1;stroke-linecap:round;stroke-linejoin:miter;stroke-miterlimit:4;stroke-dasharray:2, 4;stroke-dashoffset:0;stroke-opacity:1" />
      <path
         id="path3175"
         d="M 263.39693,647.4577 C 263.02308,647.32035 262.54674,646.8356 262.32364,646.36545 C 261.96003,645.5992 261.92252,638.66852 261.92252,572.25911 L 261.92252,498.99808 L 296.2677,498.99808 L 330.61289,498.99808 L 330.61289,499.72478 C 330.61289,500.50245 331.17832,501.16697 331.61198,500.89896 C 331.75696,500.80934 331.87558,500.345 331.87558,499.86706 L 331.87558,498.99808 L 366.34873,498.99808 L 400.82187,498.99808 L 400.75705,572.60721 L 400.69222,646.21635 L 399.99201,646.91656 L 399.2918,647.61678 L 331.68044,647.66072 C 288.14358,647.68898 263.82975,647.6167 263.39693,647.4577 z M 331.82689,643.4746 C 331.9131,641.96386 331.61999,641.41323 331.0024,641.92578 C 330.60735,642.25365 330.47239,643.80007 330.77093,644.57806 C 330.85785,644.80459 331.11355,644.95487 331.33915,644.91202 C 331.64501,644.85393 331.76904,644.48843 331.82689,643.4746 L 331.82689,643.4746 z M 331.82562,637.3041 C 331.8987,635.89737 331.87732,635.83865 331.32055,635.91759 C 330.86473,635.98222 330.7215,636.18485 330.65742,636.85572 C 330.53543,638.13266 330.80563,638.95257 331.31639,638.85539 C 331.6551,638.79097 331.76592,638.45335 331.82562,637.3041 L 331.82562,637.3041 z M 331.87558,631.32807 C 331.87558,630.00974 331.81346,629.81284 331.39752,629.81284 C 330.85628,629.81284 330.61289,630.28286 330.61289,631.32807 C 330.61289,632.37327 330.85628,632.8433 331.39752,632.8433 C 331.81346,632.8433 331.87558,632.64639 331.87558,631.32807 z M 331.82513,625.43355 C 331.88576,624.28622 331.81733,623.96625 331.48398,623.83834 C 330.92193,623.62265 330.62144,624.16586 330.61676,625.40605 C 330.61287,626.43188 330.9975,627.11621 331.4873,626.95499 C 331.6314,626.90756 331.78343,626.22291 331.82514,625.43355 L 331.82513,625.43355 z M 331.82689,619.466 C 331.91328,617.9716 331.61822,617.42357 331.0024,617.93466 C 330.53263,618.32455 330.47468,620.2297 330.91909,620.67411 C 331.46257,621.2176 331.74756,620.83834 331.82689,619.466 L 331.82689,619.466 z M 331.82562,613.31298 C 331.8987,611.90624 331.87732,611.84753 331.32055,611.92647 C 330.86473,611.9911 330.7215,612.19373 330.65742,612.8646 C 330.53543,614.14153 330.80563,614.96145 331.31639,614.86427 C 331.6551,614.79982 331.76592,614.46223 331.82562,613.31298 L 331.82562,613.31298 z M 331.87558,607.33694 C 331.87558,606.01862 331.81346,605.82171 331.39752,605.82171 C 330.85628,605.82171 330.61289,606.29174 330.61289,607.33694 C 330.61289,608.38215 330.85628,608.85217 331.39752,608.85217 C 331.81346,608.85217 331.87558,608.65527 331.87558,607.33694 z M 331.87558,601.37947 C 331.87558,600.34528 331.77383,599.95844 331.47129,599.84234 C 330.91811,599.63008 330.62136,600.18937 330.61676,601.45288 C 330.61404,602.19839 330.74262,602.58622 331.04944,602.75793 C 331.72171,603.13414 331.87558,602.87741 331.87558,601.37947 L 331.87558,601.37947 z M 331.82689,595.47488 C 331.91328,593.98048 331.61822,593.43245 331.0024,593.94354 C 330.53263,594.33342 330.47468,596.23858 330.91909,596.68299 C 331.46257,597.22648 331.74756,596.84722 331.82689,595.47488 L 331.82689,595.47488 z M 331.82701,589.42827 C 331.87856,588.52397 331.79646,587.99869 331.58294,587.86672 C 331.05827,587.54245 330.61289,588.13829 330.61289,589.16447 C 330.61289,590.43317 330.83901,590.96385 331.33915,590.86886 C 331.64516,590.81074 331.76904,590.44497 331.827,589.42827 L 331.82701,589.42827 z M 331.87558,583.34582 C 331.87558,582.0275 331.81346,581.83059 331.39752,581.83059 C 330.85628,581.83059 330.61289,582.30061 330.61289,583.34582 C 330.61289,584.39103 330.85628,584.86105 331.39752,584.86105 C 331.81346,584.86105 331.87558,584.66415 331.87558,583.34582 z M 331.87558,577.28491 C 331.87558,575.96658 331.81346,575.76968 331.39752,575.76968 C 330.82532,575.76968 330.61289,576.24249 330.61289,577.51601 C 330.61289,578.58305 330.74808,578.80013 331.41259,578.80013 C 331.8101,578.80013 331.87558,578.58586 331.87558,577.28491 z M 331.82689,571.48376 C 331.91328,569.98936 331.61822,569.44133 331.0024,569.95242 C 330.53263,570.34229 330.47468,572.24746 330.91909,572.69187 C 331.46257,573.23536 331.74756,572.8561 331.82689,571.48375 L 331.82689,571.48376 z M 331.82701,565.43715 C 331.87856,564.53284 331.79646,564.00756 331.58294,563.8756 C 331.05827,563.55133 330.61289,564.14716 330.61289,565.17334 C 330.61289,566.44205 330.83901,566.97272 331.33915,566.87774 C 331.64516,566.81962 331.76904,566.45385 331.827,565.43715 L 331.82701,565.43715 z M 331.87558,559.3547 C 331.87558,558.03637 331.81346,557.83947 331.39752,557.83947 C 330.85628,557.83947 330.61289,558.30949 330.61289,559.3547 C 330.61289,560.3999 330.85628,560.86993 331.39752,560.86993 C 331.81346,560.86993 331.87558,560.67302 331.87558,559.3547 z M 331.87558,553.29378 C 331.87558,551.97546 331.81346,551.77855 331.39752,551.77855 C 330.85628,551.77855 330.61289,552.24857 330.61289,553.29378 C 330.61289,554.33899 330.85628,554.80901 331.39752,554.80901 C 331.81346,554.80901 331.87558,554.61211 331.87558,553.29378 z M 331.82689,547.49264 C 331.91328,545.99823 331.61822,545.45021 331.0024,545.96129 C 330.53263,546.35117 330.47468,548.25634 330.91909,548.70074 C 331.46257,549.24423 331.74756,548.86498 331.82689,547.49263 L 331.82689,547.49264 z M 331.82701,541.44602 C 331.87856,540.54172 331.79646,540.01644 331.58294,539.88447 C 331.05827,539.56021 330.61289,540.15604 330.61289,541.18222 C 330.61289,542.45092 330.83901,542.9816 331.33915,542.88662 C 331.64516,542.8285 331.76904,542.46272 331.827,541.44603 L 331.82701,541.44602 z M 331.87558,535.36357 C 331.87558,534.04525 331.81346,533.84835 331.39752,533.84835 C 330.85628,533.84835 330.61289,534.31837 330.61289,535.36357 C 330.61289,536.40878 330.85628,536.8788 331.39752,536.8788 C 331.81346,536.8788 331.87558,536.6819 331.87558,535.36357 z M 331.87558,529.30266 C 331.87558,527.98433 331.81346,527.78743 331.39752,527.78743 C 330.85628,527.78743 330.61289,528.25745 330.61289,529.30266 C 330.61289,530.34787 330.85628,530.81789 331.39752,530.81789 C 331.81346,530.81789 331.87558,530.62098 331.87558,529.30266 z M 331.82689,523.50151 C 331.91328,522.00711 331.61822,521.45908 331.0024,521.97017 C 330.53263,522.36005 330.47468,524.26522 330.91909,524.70962 C 331.46257,525.25311 331.74756,524.87386 331.82689,523.50151 L 331.82689,523.50151 z M 331.82701,517.4549 C 331.87856,516.5506 331.79646,516.02532 331.58294,515.89335 C 331.05827,515.56908 330.61289,516.16492 330.61289,517.1911 C 330.61289,518.4598 330.83901,518.99048 331.33915,518.89549 C 331.64516,518.83738 331.76904,518.4716 331.827,517.4549 L 331.82701,517.4549 z M 331.87558,511.37245 C 331.87558,510.05413 331.81346,509.85722 331.39752,509.85722 C 330.85628,509.85722 330.61289,510.32724 330.61289,511.37245 C 330.61289,512.41766 330.85628,512.88768 331.39752,512.88768 C 331.81346,512.88768 331.87558,512.69078 331.87558,511.37245 z M 331.87558,505.31154 C 331.87558,503.99321 331.81346,503.79631 331.39752,503.79631 C 330.85628,503.79631 330.61289,504.26633 330.61289,505.31154 C 330.61289,506.35674 330.85628,506.82677 331.39752,506.82677 C 331.81346,506.82677 331.87558,506.62986 331.87558,505.31154 z"
         style="fill:#6b281c;fill-opacity:0.61883407;stroke:#000000;stroke-width:1;stroke-linecap:round;stroke-miterlimit:4;stroke-dasharray:2, 4;stroke-dashoffset:0;stroke-opacity:1" />
      <text
         id="text3177"
         y="482.20395"
         x="263.8259"
         style="font-size:10px;font-style:normal;font-weight:normal;fill:#000000;fill-opacity:1;stroke:none;stroke-width:1px;stroke-linecap:butt;stroke-linejoin:miter;stroke-opacity:1;font-family:Bitstream Vera Sans"
         xml:space="preserve"><tspan
           style="font-size:13px"
           y="482.20395"
           x="263.8259"
           id="tspan3179"
           sodipodi:role="line">FIFO_X2U_2C_1024B</tspan></text>
    </g>
    <flowRoot
       xml:space="preserve"
       id="flowRoot3189"
       style="fill:black;stroke:none;stroke-opacity:1;stroke-width:1px;stroke-linejoin:miter;stroke-linecap:butt;fill-opacity:1;font-family:Bitstream Vera Sans;font-style:normal;font-weight:normal;font-size:10"><flowRegion
         id="flowRegion3191"><rect
           id="rect3193"
           width="419.28571"
           height="330.71429"
           x="171.42857"
           y="392.36218" /></flowRegion><flowPara
         id="flowPara3195"></flowPara></flowRoot>    <rect
       style="fill:none;fill-opacity:0.61883407;stroke:#000000;stroke-width:1;stroke-linecap:round;stroke-miterlimit:4;stroke-dasharray:none;stroke-dashoffset:0;stroke-opacity:1"
       id="rect3205"
       width="540.17389"
       height="660"
       x="140"
       y="112.36218"
       rx="3"
       ry="3" />
    <path
       style="fill:none;fill-rule:evenodd;stroke:#000000;stroke-width:1px;stroke-linecap:butt;stroke-linejoin:miter;stroke-opacity:1"
       d="M 585,112.36218 L 585,772.36218"
       id="path3207" />
    <path
       style="fill:#abc21c;fill-opacity:0.61883408;stroke:none;stroke-width:1;stroke-linecap:round;stroke-miterlimit:4;stroke-dasharray:none;stroke-dashoffset:0;stroke-opacity:1"
       d="M 585.90743,442.38116 L 585.90743,113.45259 L 632.2595,113.45259 C 673.86778,113.45259 678.65607,113.56823 679.04528,114.58244 C 679.28386,115.20385 679.47886,262.71328 679.47886,442.38116 C 679.47886,622.04902 679.28378,769.55845 679.04528,770.17988 C 678.65614,771.19409 673.86778,771.30973 632.25957,771.30973 L 585.90743,771.30973 L 585.90743,442.38116 z"
       id="path3211" />
    <path
       style="fill:none;fill-rule:evenodd;stroke:#000000;stroke-width:1px;stroke-linecap:butt;stroke-linejoin:miter;stroke-opacity:1"
       d="M 679.64284,462.38116 L 799.64284,462.38116 L 799.64284,482.38116 L 864.64284,442.38116 L 799.64284,402.38116 L 799.64284,422.38116 L 679.64284,422.38116"
       id="path3213" />
    <path
       style="fill:#73c856;fill-opacity:0.61883407;stroke:none;stroke-width:1;stroke-linecap:round;stroke-miterlimit:4;stroke-dasharray:none;stroke-dashoffset:0;stroke-opacity:1"
       d="M 800.64076,471.11458 L 800.44126,461.6223 L 740.61983,461.43963 L 680.7984,461.25701 L 680.7984,442.33659 L 680.7984,423.41617 L 740.61983,423.23355 L 800.44126,423.05088 L 800.7984,413.69528 L 801.15555,404.33968 L 831.15555,422.83516 C 847.65555,433.00766 861.56633,441.5748 862.06848,441.87323 C 862.81483,442.31684 835.46326,459.65445 803.54226,478.97174 L 800.84026,480.6069 L 800.64076,471.11458 z"
       id="path3215" />
    <text
       xml:space="preserve"
       style="font-size:10px;font-style:normal;font-weight:normal;fill:#000000;fill-opacity:1;stroke:none;stroke-width:1px;stroke-linecap:butt;stroke-linejoin:miter;stroke-opacity:1;font-family:Bitstream Vera Sans"
       x="733"
       y="449.36218"
       id="text3217"><tspan
         sodipodi:role="line"
         id="tspan3219"
         x="733"
         y="449.36218"
         style="font-size:18px">OPB</tspan></text>
    <path
       style="fill:none;fill-rule:evenodd;stroke:#000000;stroke-width:1px;stroke-linecap:butt;stroke-linejoin:miter;stroke-opacity:1"
       d="M 140,682.36218 L 20,682.36218 L 20,702.36218 L -45,662.36218 L 20,622.36218 L 20,642.36218 L 140,642.36218"
       id="path3223" />
  </g>
</svg>
