G75*
G70*
%OFA0B0*%
%FSLAX24Y24*%
%IPPOS*%
%LPD*%
%AMOC8*
5,1,8,0,0,1.08239X$1,22.5*
%
%ADD10R,0.0866X0.0787*%
%ADD11R,0.0100X0.0590*%
%ADD12R,0.0590X0.0100*%
%ADD13R,0.0433X0.0394*%
%ADD14R,0.0394X0.0433*%
%ADD15R,0.0197X0.0169*%
%ADD16R,0.0157X0.0118*%
%ADD17R,0.0591X0.0945*%
%ADD18R,0.0591X0.0512*%
%ADD19R,0.1600X0.1300*%
%ADD20R,0.2500X0.1300*%
%ADD21R,0.2500X0.1500*%
%ADD22R,0.0787X0.0709*%
%ADD23R,0.0472X0.0472*%
%ADD24R,0.0787X0.0866*%
%ADD25R,0.0512X0.0591*%
%ADD26R,0.0315X0.0315*%
D10*
X020580Y023449D03*
X020580Y024630D03*
X017344Y025453D03*
X017344Y026634D03*
X017391Y029354D03*
X017391Y030535D03*
X021517Y030535D03*
X021517Y029354D03*
D11*
X021785Y026638D03*
X021982Y026638D03*
X022179Y026638D03*
X022376Y026638D03*
X022572Y026638D03*
X022769Y026638D03*
X022966Y026638D03*
X023163Y026638D03*
X023360Y026638D03*
X023557Y026638D03*
X023754Y026638D03*
X023950Y026638D03*
X024147Y026638D03*
X024344Y026638D03*
X024541Y026638D03*
X024738Y026638D03*
X024935Y026638D03*
X025131Y026638D03*
X025328Y026638D03*
X025525Y026638D03*
X025722Y026638D03*
X025919Y026638D03*
X026116Y026638D03*
X026313Y026638D03*
X026509Y026638D03*
X026706Y026638D03*
X026903Y026638D03*
X027100Y026638D03*
X027297Y026638D03*
X027494Y026638D03*
X027691Y026638D03*
X027887Y026638D03*
X028084Y026638D03*
X028281Y026638D03*
X028478Y026638D03*
X028675Y026638D03*
X028872Y026638D03*
X029069Y026638D03*
X029265Y026638D03*
X029462Y026638D03*
X029659Y026638D03*
X029856Y026638D03*
X030053Y026638D03*
X030053Y022307D03*
X029856Y022307D03*
X029659Y022307D03*
X029462Y022307D03*
X029265Y022307D03*
X029069Y022307D03*
X028872Y022307D03*
X028675Y022307D03*
X028478Y022307D03*
X028281Y022307D03*
X028084Y022307D03*
X027887Y022307D03*
X027691Y022307D03*
X027494Y022307D03*
X027297Y022307D03*
X027100Y022307D03*
X026903Y022307D03*
X026706Y022307D03*
X026509Y022307D03*
X026313Y022307D03*
X026116Y022307D03*
X025919Y022307D03*
X025722Y022307D03*
X025525Y022307D03*
X025328Y022307D03*
X025131Y022307D03*
X024935Y022307D03*
X024738Y022307D03*
X024541Y022307D03*
X024344Y022307D03*
X024147Y022307D03*
X023950Y022307D03*
X023754Y022307D03*
X023557Y022307D03*
X023360Y022307D03*
X023163Y022307D03*
X022966Y022307D03*
X022769Y022307D03*
X022572Y022307D03*
X022376Y022307D03*
X022179Y022307D03*
X021982Y022307D03*
X021785Y022307D03*
X021773Y020563D03*
X021576Y020563D03*
X021970Y020563D03*
X022167Y020563D03*
X022364Y020563D03*
X022561Y020563D03*
X022757Y020563D03*
X022954Y020563D03*
X023151Y020563D03*
X023348Y020563D03*
X023545Y020563D03*
X023742Y020563D03*
X023939Y020563D03*
X024135Y020563D03*
X024332Y020563D03*
X024529Y020563D03*
X024726Y020563D03*
X024923Y020563D03*
X025120Y020563D03*
X025317Y020563D03*
X025513Y020563D03*
X025710Y020563D03*
X025907Y020563D03*
X026104Y020563D03*
X026301Y020563D03*
X026498Y020563D03*
X026694Y020563D03*
X026891Y020563D03*
X027088Y020563D03*
X027285Y020563D03*
X027482Y020563D03*
X027679Y020563D03*
X027876Y020563D03*
X028072Y020563D03*
X028269Y020563D03*
X028466Y020563D03*
X028663Y020563D03*
X028860Y020563D03*
X029057Y020563D03*
X029254Y020563D03*
X029450Y020563D03*
X029647Y020563D03*
X029844Y020563D03*
X030041Y020563D03*
X030238Y020563D03*
X030435Y020563D03*
X030631Y020563D03*
X030828Y020563D03*
X031025Y020563D03*
X031222Y020563D03*
X031419Y020563D03*
X031616Y020563D03*
X031813Y020563D03*
X032009Y020563D03*
X032206Y020563D03*
X032403Y020563D03*
X032600Y020563D03*
X032797Y020563D03*
X032994Y020563D03*
X033191Y020563D03*
X033191Y007177D03*
X032994Y007177D03*
X032797Y007177D03*
X032600Y007177D03*
X032403Y007177D03*
X032206Y007177D03*
X032009Y007177D03*
X031813Y007177D03*
X031616Y007177D03*
X031419Y007177D03*
X031222Y007177D03*
X031025Y007177D03*
X030828Y007177D03*
X030631Y007177D03*
X030435Y007177D03*
X030238Y007177D03*
X030041Y007177D03*
X029844Y007177D03*
X029647Y007177D03*
X029450Y007177D03*
X029254Y007177D03*
X029057Y007177D03*
X028860Y007177D03*
X028663Y007177D03*
X028466Y007177D03*
X028269Y007177D03*
X028072Y007177D03*
X027876Y007177D03*
X027679Y007177D03*
X027482Y007177D03*
X027285Y007177D03*
X027088Y007177D03*
X026891Y007177D03*
X026694Y007177D03*
X026498Y007177D03*
X026301Y007177D03*
X026104Y007177D03*
X025907Y007177D03*
X025710Y007177D03*
X025513Y007177D03*
X025317Y007177D03*
X025120Y007177D03*
X024923Y007177D03*
X024726Y007177D03*
X024529Y007177D03*
X024332Y007177D03*
X024135Y007177D03*
X023939Y007177D03*
X023742Y007177D03*
X023545Y007177D03*
X023348Y007177D03*
X023151Y007177D03*
X022954Y007177D03*
X022757Y007177D03*
X022561Y007177D03*
X022364Y007177D03*
X022167Y007177D03*
X021970Y007177D03*
X021773Y007177D03*
X021576Y007177D03*
D12*
X020691Y008063D03*
X020691Y008260D03*
X020691Y008457D03*
X020691Y008654D03*
X020691Y008850D03*
X020691Y009047D03*
X020691Y009244D03*
X020691Y009441D03*
X020691Y009638D03*
X020691Y009835D03*
X020691Y010031D03*
X020691Y010228D03*
X020691Y010425D03*
X020691Y010622D03*
X020691Y010819D03*
X020691Y011016D03*
X020691Y011213D03*
X020691Y011409D03*
X020691Y011606D03*
X020691Y011803D03*
X020691Y012000D03*
X020691Y012197D03*
X020691Y012394D03*
X020691Y012591D03*
X020691Y012787D03*
X020691Y012984D03*
X020691Y013181D03*
X020691Y013378D03*
X020691Y013575D03*
X020691Y013772D03*
X020691Y013969D03*
X020691Y014165D03*
X020691Y014362D03*
X020691Y014559D03*
X020691Y014756D03*
X020691Y014953D03*
X020691Y015150D03*
X020691Y015346D03*
X020691Y015543D03*
X020691Y015740D03*
X020691Y015937D03*
X020691Y016134D03*
X020691Y016331D03*
X020691Y016528D03*
X020691Y016724D03*
X020691Y016921D03*
X020691Y017118D03*
X020691Y017315D03*
X020691Y017512D03*
X020691Y017709D03*
X020691Y017906D03*
X020691Y018102D03*
X020691Y018299D03*
X020691Y018496D03*
X020691Y018693D03*
X020691Y018890D03*
X020691Y019087D03*
X020691Y019283D03*
X020691Y019480D03*
X020691Y019677D03*
X034076Y019677D03*
X034076Y019480D03*
X034076Y019283D03*
X034076Y019087D03*
X034076Y018890D03*
X034076Y018693D03*
X034076Y018496D03*
X034076Y018299D03*
X034076Y018102D03*
X034076Y017906D03*
X034076Y017709D03*
X034076Y017512D03*
X034076Y017315D03*
X034076Y017118D03*
X034076Y016921D03*
X034076Y016724D03*
X034076Y016528D03*
X034076Y016331D03*
X034076Y016134D03*
X034076Y015937D03*
X034076Y015740D03*
X034076Y015543D03*
X034076Y015346D03*
X034076Y015150D03*
X034076Y014953D03*
X034076Y014756D03*
X034076Y014559D03*
X034076Y014362D03*
X034076Y014165D03*
X034076Y013969D03*
X034076Y013772D03*
X034076Y013575D03*
X034076Y013378D03*
X034076Y013181D03*
X034076Y012984D03*
X034076Y012787D03*
X034076Y012591D03*
X034076Y012394D03*
X034076Y012197D03*
X034076Y012000D03*
X034076Y011803D03*
X034076Y011606D03*
X034076Y011409D03*
X034076Y011213D03*
X034076Y011016D03*
X034076Y010819D03*
X034076Y010622D03*
X034076Y010425D03*
X034076Y010228D03*
X034076Y010031D03*
X034076Y009835D03*
X034076Y009638D03*
X034076Y009441D03*
X034076Y009244D03*
X034076Y009047D03*
X034076Y008850D03*
X034076Y008654D03*
X034076Y008457D03*
X034076Y008260D03*
X034076Y008063D03*
D13*
X033939Y006882D03*
X034608Y006882D03*
X038179Y010450D03*
X038848Y010450D03*
X019907Y028054D03*
X019907Y028723D03*
X012521Y029579D03*
X012521Y030248D03*
X012521Y026508D03*
X012521Y025839D03*
D14*
X011970Y026173D03*
X011301Y026173D03*
X011202Y030012D03*
X011872Y030012D03*
X006950Y024894D03*
X006281Y024894D03*
X020297Y020898D03*
X020297Y020228D03*
X021380Y027020D03*
X021380Y027689D03*
X033191Y022079D03*
X033191Y021409D03*
X035356Y008791D03*
X035356Y008122D03*
X020691Y007512D03*
X020691Y006843D03*
D15*
X012281Y027177D03*
X012281Y027551D03*
X012281Y027925D03*
X010990Y027925D03*
X010990Y027551D03*
X010990Y027177D03*
X010990Y031114D03*
X010990Y031488D03*
X010990Y031862D03*
X012281Y031862D03*
X012281Y031488D03*
X012281Y031114D03*
D16*
X011631Y031327D03*
X011631Y031642D03*
X011631Y027705D03*
X011631Y027390D03*
D17*
X013210Y026764D03*
X015376Y026764D03*
X015376Y030701D03*
X013210Y030701D03*
D18*
X016261Y030642D03*
X016261Y029972D03*
X016261Y026705D03*
X016261Y026035D03*
X009765Y027315D03*
X009765Y027984D03*
X009667Y031154D03*
X009667Y031823D03*
D19*
X007246Y029112D03*
D20*
X003646Y026712D03*
D21*
X003646Y031942D03*
D22*
X037315Y009272D03*
X038969Y009272D03*
X038969Y007272D03*
X037315Y007272D03*
D23*
X035214Y007488D03*
X034230Y007488D03*
D24*
X002771Y013534D03*
X003952Y013534D03*
D25*
X037572Y011764D03*
X038242Y011764D03*
X038072Y005264D03*
X038742Y005264D03*
D26*
X019907Y026719D03*
X019907Y027309D03*
M02*
