G75*
G70*
%OFA0B0*%
%FSLAX24Y24*%
%IPPOS*%
%LPD*%
%AMOC8*
5,1,8,0,0,1.08239X$1,22.5*
%
%ADD10C,0.0160*%
%ADD11C,0.0000*%
D10*
X000907Y001764D02*
X039907Y001764D01*
X039907Y033264D01*
X000907Y033264D01*
X000907Y001764D01*
D11*
X004616Y027472D02*
X004618Y027527D01*
X004626Y027581D01*
X004638Y027634D01*
X004655Y027686D01*
X004677Y027736D01*
X004703Y027784D01*
X004734Y027829D01*
X004768Y027871D01*
X004806Y027911D01*
X004848Y027946D01*
X004893Y027977D01*
X004940Y028005D01*
X004990Y028028D01*
X005041Y028046D01*
X005094Y028059D01*
X005148Y028068D01*
X005202Y028072D01*
X005257Y028071D01*
X005311Y028064D01*
X005365Y028053D01*
X005417Y028037D01*
X005468Y028017D01*
X005516Y027992D01*
X005562Y027962D01*
X005605Y027929D01*
X005645Y027891D01*
X005681Y027851D01*
X005714Y027807D01*
X005742Y027760D01*
X005766Y027711D01*
X005786Y027660D01*
X005801Y027607D01*
X005810Y027554D01*
X005815Y027499D01*
X005815Y027445D01*
X005810Y027390D01*
X005801Y027337D01*
X005786Y027284D01*
X005766Y027233D01*
X005742Y027184D01*
X005714Y027137D01*
X005681Y027093D01*
X005645Y027053D01*
X005605Y027015D01*
X005562Y026982D01*
X005516Y026952D01*
X005468Y026927D01*
X005417Y026907D01*
X005365Y026891D01*
X005311Y026880D01*
X005257Y026873D01*
X005202Y026872D01*
X005148Y026876D01*
X005094Y026885D01*
X005041Y026898D01*
X004990Y026916D01*
X004940Y026939D01*
X004893Y026967D01*
X004848Y026998D01*
X004806Y027033D01*
X004768Y027073D01*
X004734Y027115D01*
X004703Y027160D01*
X004677Y027208D01*
X004655Y027258D01*
X004638Y027310D01*
X004626Y027363D01*
X004618Y027417D01*
X004616Y027472D01*
X003326Y029362D02*
X003328Y029417D01*
X003336Y029471D01*
X003348Y029524D01*
X003365Y029576D01*
X003387Y029626D01*
X003413Y029674D01*
X003444Y029719D01*
X003478Y029761D01*
X003516Y029801D01*
X003558Y029836D01*
X003603Y029867D01*
X003650Y029895D01*
X003700Y029918D01*
X003751Y029936D01*
X003804Y029949D01*
X003858Y029958D01*
X003912Y029962D01*
X003967Y029961D01*
X004021Y029954D01*
X004075Y029943D01*
X004127Y029927D01*
X004178Y029907D01*
X004226Y029882D01*
X004272Y029852D01*
X004315Y029819D01*
X004355Y029781D01*
X004391Y029741D01*
X004424Y029697D01*
X004452Y029650D01*
X004476Y029601D01*
X004496Y029550D01*
X004511Y029497D01*
X004520Y029444D01*
X004525Y029389D01*
X004525Y029335D01*
X004520Y029280D01*
X004511Y029227D01*
X004496Y029174D01*
X004476Y029123D01*
X004452Y029074D01*
X004424Y029027D01*
X004391Y028983D01*
X004355Y028943D01*
X004315Y028905D01*
X004272Y028872D01*
X004226Y028842D01*
X004178Y028817D01*
X004127Y028797D01*
X004075Y028781D01*
X004021Y028770D01*
X003967Y028763D01*
X003912Y028762D01*
X003858Y028766D01*
X003804Y028775D01*
X003751Y028788D01*
X003700Y028806D01*
X003650Y028829D01*
X003603Y028857D01*
X003558Y028888D01*
X003516Y028923D01*
X003478Y028963D01*
X003444Y029005D01*
X003413Y029050D01*
X003387Y029098D01*
X003365Y029148D01*
X003348Y029200D01*
X003336Y029253D01*
X003328Y029307D01*
X003326Y029362D01*
X006156Y029762D02*
X006158Y029794D01*
X006164Y029825D01*
X006174Y029856D01*
X006188Y029885D01*
X006206Y029912D01*
X006226Y029936D01*
X006250Y029957D01*
X006276Y029976D01*
X006305Y029991D01*
X006335Y030002D01*
X006366Y030009D01*
X006398Y030012D01*
X006430Y030011D01*
X006462Y030006D01*
X006492Y029997D01*
X006522Y029984D01*
X006549Y029967D01*
X006574Y029947D01*
X006596Y029924D01*
X006616Y029898D01*
X006631Y029870D01*
X006643Y029841D01*
X006651Y029810D01*
X006655Y029778D01*
X006655Y029746D01*
X006651Y029714D01*
X006643Y029683D01*
X006631Y029654D01*
X006616Y029626D01*
X006596Y029600D01*
X006574Y029577D01*
X006549Y029557D01*
X006522Y029540D01*
X006492Y029527D01*
X006462Y029518D01*
X006430Y029513D01*
X006398Y029512D01*
X006366Y029515D01*
X006335Y029522D01*
X006305Y029533D01*
X006276Y029548D01*
X006250Y029567D01*
X006226Y029588D01*
X006206Y029612D01*
X006188Y029639D01*
X006174Y029668D01*
X006164Y029699D01*
X006158Y029730D01*
X006156Y029762D01*
M02*
