%
M48
M72
T01C0.0200
T02C0.0240
T03C0.0320
T04C0.0360
T05C0.0400
T06C0.0480
T07C0.0500
T08C0.1200
%
T01
X21084Y6390
X21970Y7866
X23250Y7965
X23742Y7965
X24726Y7965
X25218Y7965
X26202Y7965
X26891Y7965
X27679Y7965
X28466Y7965
X29254Y7965
X29844Y7965
X30828Y7965
X31813Y7866
X32600Y7768
X33387Y8457
X33486Y9638
X33289Y10031
X33387Y10622
X32994Y10819
X33387Y11409
X33412Y11926
X32797Y12492
X32797Y12960
X33412Y12960
X33289Y13599
X33289Y14362
X33363Y15027
X33191Y15666
X33289Y16134
X33486Y16528
X33289Y17118
X33486Y17512
X33289Y18102
X33289Y18693
X33486Y19677
X32600Y19874
X32206Y19087
X31616Y19874
X30828Y19874
X30238Y19874
X29549Y19874
X28343Y19948
X27482Y19874
X25710Y19874
X24923Y19874
X23742Y19874
X23151Y19874
X22364Y19874
X21773Y19874
X21281Y19283
X21380Y17906
X21380Y17315
X21380Y16823
X21380Y16331
X21675Y15937
X21380Y15543
X21380Y14756
X21380Y14264
X21773Y13969
X21380Y13476
X21380Y12984
X21478Y12295
X21773Y11902
X21380Y11606
X21380Y10622
X21380Y10031
X27679Y6587
X30828Y10228
X31419Y10228
X31124Y11016
X30656Y11016
X30730Y11803
X31320Y11803
X31222Y12591
X30730Y12591
X30730Y13378
X31222Y13772
X32305Y14018
X31222Y15248
X30730Y15248
X30730Y16134
X31222Y16134
X31222Y16921
X30730Y16921
X30730Y17807
X31124Y18004
X32206Y17512
X32305Y16528
X30041Y17906
X30041Y18398
X29155Y18496
X29155Y18004
X28269Y18201
X33191Y22630
X30041Y22877
X29057Y22877
X28466Y22877
X27876Y22877
X27285Y22877
X27876Y24894
X27876Y26075
X28466Y26075
X29057Y26075
X30139Y26075
X27285Y26075
X24529Y26075
X23939Y26075
X23348Y26075
X22757Y26075
X22757Y22877
X22167Y22877
X23348Y22877
X23939Y22877
X24529Y22877
X20297Y21449
X22462Y17610
X10454Y27157
X8978Y27157
X10356Y31094
X9656Y32571
X34864Y8752
X35159Y6882
T02
X37307Y7964
X38557Y8514
X37657Y10464
X38557Y11114
X38557Y12614
X36857Y11764
X35707Y10264
X35057Y9464
X32108Y9047
X31714Y10819
X31813Y12492
X31936Y14362
X32009Y14854
X25612Y18004
X23643Y17906
X23004Y17267
X22954Y16528
X22954Y15937
X22856Y13476
X22856Y11902
X22856Y11163
X22954Y9539
X21281Y8457
X26891Y9146
X29254Y9244
X27687Y5694
X18607Y2714
X17357Y3314
X14857Y4014
X14757Y2964
X4307Y2964
X1557Y3014
X16754Y24697
X17344Y24697
X18033Y24697
X16261Y25386
X15769Y25091
X16852Y28634
X17443Y28634
X18033Y28634
X16261Y29323
X15769Y29028
X19007Y32464
X21380Y28339
X24807Y31964
X10356Y26567
X10356Y25976
X9765Y26173
X9765Y26665
X10257Y29815
X9667Y30012
X9667Y30504
X10257Y30406
X6544Y31685
X5953Y31685
X5363Y31685
X5363Y32276
X5953Y32276
X6544Y32276
X4647Y30799
X3958Y30799
X3269Y30799
X2580Y30799
X1963Y31435
X1963Y32249
X37357Y5264
X39057Y6064
T03
X20592Y22728
X20494Y29323
X18919Y29717
X18919Y31390
X2907Y25189
X2285Y25189
X4957Y13514
T04
X4458Y23646
X5458Y23646
T05
X2507Y2514
X3507Y2514
X3507Y3514
X2507Y3514
X2507Y4514
X3507Y4514
X3507Y5514
X3507Y6514
X2507Y6514
X2507Y5514
X2507Y7514
X3507Y7514
X3507Y8514
X2507Y8514
X2507Y9514
X3507Y9514
X3507Y10514
X2507Y10514
X2507Y11514
X3507Y11514
X3507Y15514
X2507Y15514
X2507Y16514
X3507Y16514
X3507Y17514
X3507Y18514
X2507Y18514
X2507Y17514
X2507Y19514
X3507Y19514
X3507Y20514
X2507Y20514
X2507Y21514
X3507Y21514
X15507Y21514
X16507Y21514
X16507Y20514
X15507Y20514
X15507Y19514
X16507Y19514
X16507Y18514
X15507Y18514
X15507Y17514
X16507Y17514
X16507Y16514
X15507Y16514
X15507Y15514
X16507Y15514
X16507Y14514
X15507Y14514
X15507Y13514
X16507Y13514
X16507Y12514
X15507Y12514
X15507Y11514
X16507Y11514
X16507Y10514
X15507Y10514
X15507Y9514
X16507Y9514
X16507Y8514
X15507Y8514
X15507Y7514
X16507Y7514
X16507Y6514
X15507Y6514
X15507Y5514
X16507Y5514
X16507Y4514
X15507Y4514
X15507Y3514
X16507Y3514
X16507Y2514
X15507Y2514
X24907Y3264
X25907Y3264
X26907Y3264
X26907Y4264
X25907Y4264
X24907Y4264
X27907Y4264
X28907Y4264
X29907Y4264
X30907Y4264
X31907Y4264
X32907Y4264
X33907Y4264
X34907Y4264
X35907Y4264
X36907Y4264
X37907Y4264
X38907Y4264
X38907Y3264
X37907Y3264
X36907Y3264
X35907Y3264
X34907Y3264
X33907Y3264
X32907Y3264
X31907Y3264
X30907Y3264
X29907Y3264
X28907Y3264
X27907Y3264
X32907Y24764
T06
X25317Y24106
X24234Y24697
X23053Y30602
X26399Y18201
T07
X6406Y29762
T08
X3926Y29362
X5216Y27472
M30
