G75*
G70*
%OFA0B0*%
%FSLAX24Y24*%
%IPPOS*%
%LPD*%
%AMOC8*
5,1,8,0,0,1.08239X$1,22.5*
%
%ADD10R,0.0394X0.0433*%
%ADD11R,0.0433X0.0394*%
%ADD12O,0.0560X0.1120*%
%ADD13C,0.0600*%
%ADD14OC8,0.0850*%
%ADD15C,0.0860*%
%ADD16C,0.0720*%
%ADD17C,0.0080*%
%ADD18C,0.0360*%
%ADD19C,0.0480*%
%ADD20C,0.0400*%
%ADD21C,0.0400*%
%ADD22C,0.0160*%
%ADD23C,0.0240*%
%ADD24C,0.0120*%
D10*
X021891Y016898D03*
X022462Y016961D03*
X022462Y016291D03*
X022265Y015681D03*
X022265Y015012D03*
X022246Y014417D03*
X022246Y013748D03*
X022265Y013122D03*
X022265Y012453D03*
X022324Y011827D03*
X022324Y011157D03*
X022069Y010169D03*
X022069Y009500D03*
X021891Y017567D03*
X021872Y018161D03*
X021872Y018831D03*
X028210Y018736D03*
X028210Y019406D03*
X032797Y019323D03*
X032797Y018654D03*
X032797Y018142D03*
X032797Y017472D03*
X032817Y016878D03*
X032817Y016209D03*
X032600Y015681D03*
X032600Y015012D03*
X032817Y014386D03*
X032817Y013717D03*
X032305Y013516D03*
X032305Y012846D03*
X032305Y012236D03*
X032856Y011965D03*
X032305Y011567D03*
X032856Y011295D03*
X032265Y010843D03*
X032265Y010173D03*
X032895Y009579D03*
X032895Y008909D03*
X027383Y024854D03*
X027383Y025524D03*
D11*
X028328Y025583D03*
X028998Y025583D03*
X029509Y025581D03*
X030179Y025581D03*
X029687Y023369D03*
X029017Y023369D03*
X028407Y023369D03*
X027738Y023369D03*
X024569Y023369D03*
X023899Y023369D03*
X022797Y023369D03*
X022128Y023369D03*
X022620Y025583D03*
X023289Y025583D03*
X023899Y025583D03*
X024569Y025583D03*
X024966Y019343D03*
X025635Y019343D03*
X022994Y019382D03*
X022324Y019382D03*
X029608Y019382D03*
X030277Y019382D03*
X030887Y019283D03*
X031557Y019283D03*
X031305Y008398D03*
X031974Y008398D03*
X029801Y008457D03*
X029131Y008457D03*
X028506Y008457D03*
X027836Y008457D03*
X026915Y008457D03*
X026246Y008457D03*
X025159Y008457D03*
X024490Y008457D03*
X023289Y008457D03*
X022620Y008457D03*
D12*
X005458Y023646D03*
X004458Y023646D03*
D13*
X002507Y002514D03*
X003507Y002514D03*
X003507Y003514D03*
X002507Y003514D03*
X002507Y004514D03*
X003507Y004514D03*
X003507Y005514D03*
X003507Y006514D03*
X002507Y006514D03*
X002507Y005514D03*
X002507Y007514D03*
X003507Y007514D03*
X003507Y008514D03*
X002507Y008514D03*
X002507Y009514D03*
X003507Y009514D03*
X003507Y010514D03*
X002507Y010514D03*
X002507Y011514D03*
X003507Y011514D03*
X003507Y015514D03*
X002507Y015514D03*
X002507Y016514D03*
X003507Y016514D03*
X003507Y017514D03*
X003507Y018514D03*
X002507Y018514D03*
X002507Y017514D03*
X002507Y019514D03*
X003507Y019514D03*
X003507Y020514D03*
X002507Y020514D03*
X002507Y021514D03*
X003507Y021514D03*
X015507Y021514D03*
X016507Y021514D03*
X016507Y020514D03*
X015507Y020514D03*
X015507Y019514D03*
X016507Y019514D03*
X016507Y018514D03*
X015507Y018514D03*
X015507Y017514D03*
X016507Y017514D03*
X016507Y016514D03*
X015507Y016514D03*
X015507Y015514D03*
X016507Y015514D03*
X016507Y014514D03*
X015507Y014514D03*
X015507Y013514D03*
X016507Y013514D03*
X016507Y012514D03*
X015507Y012514D03*
X015507Y011514D03*
X016507Y011514D03*
X016507Y010514D03*
X015507Y010514D03*
X015507Y009514D03*
X016507Y009514D03*
X016507Y008514D03*
X015507Y008514D03*
X015507Y007514D03*
X016507Y007514D03*
X016507Y006514D03*
X015507Y006514D03*
X015507Y005514D03*
X016507Y005514D03*
X016507Y004514D03*
X015507Y004514D03*
X015507Y003514D03*
X016507Y003514D03*
X016507Y002514D03*
X015507Y002514D03*
X024907Y003264D03*
X025907Y003264D03*
X026907Y003264D03*
X026907Y004264D03*
X025907Y004264D03*
X024907Y004264D03*
X027907Y004264D03*
X028907Y004264D03*
X029907Y004264D03*
X030907Y004264D03*
X031907Y004264D03*
X032907Y004264D03*
X033907Y004264D03*
X034907Y004264D03*
X035907Y004264D03*
X036907Y004264D03*
X037907Y004264D03*
X038907Y004264D03*
X038907Y003264D03*
X037907Y003264D03*
X036907Y003264D03*
X035907Y003264D03*
X034907Y003264D03*
X033907Y003264D03*
X032907Y003264D03*
X031907Y003264D03*
X030907Y003264D03*
X029907Y003264D03*
X028907Y003264D03*
X027907Y003264D03*
D14*
X032907Y024764D03*
D15*
X027482Y021449D02*
X027482Y019874D01*
X027482Y019382D01*
X027482Y017020D01*
X029943Y017020D01*
X029943Y016528D01*
X029943Y014854D01*
X029943Y014756D01*
X029943Y014362D01*
X029943Y012591D01*
X029943Y012197D01*
X029943Y010622D01*
X029943Y010425D01*
X029943Y010130D01*
X029254Y010130D01*
X026990Y010130D01*
X023840Y010130D01*
X023840Y010425D01*
X023840Y011213D01*
X023840Y011902D01*
X023840Y013476D01*
X023840Y015937D01*
X023840Y016724D01*
X023840Y017020D01*
X024332Y017020D01*
X025612Y017020D01*
X027482Y017020D01*
X026399Y018201D02*
X026399Y021055D01*
X025317Y022138D01*
X025317Y024106D01*
X025317Y024205D01*
X024824Y024697D01*
X024234Y024697D01*
X026498Y022433D02*
X027482Y021449D01*
X026498Y022433D02*
X026498Y029028D01*
X024923Y030602D01*
X023053Y030602D01*
D16*
X023053Y030602D03*
X024234Y024697D03*
X025317Y024106D03*
X026399Y018201D03*
D17*
X025671Y019343D02*
X025635Y019343D01*
X025671Y019343D02*
X025710Y019382D01*
X025710Y019874D01*
X024966Y019831D02*
X024966Y019343D01*
X024966Y019831D02*
X024923Y019874D01*
X023151Y019874D02*
X022994Y019717D01*
X022994Y019382D01*
X022364Y019480D02*
X022364Y019874D01*
X022364Y019480D02*
X022265Y019382D01*
X022324Y019382D01*
X021872Y019087D02*
X021675Y019283D01*
X021281Y019283D01*
X021872Y019087D02*
X021872Y018831D01*
X021872Y018161D02*
X021635Y018161D01*
X021380Y017906D01*
X021631Y017567D02*
X021380Y017315D01*
X021631Y017567D02*
X021891Y017567D01*
X021891Y017591D01*
X021872Y017610D01*
X022462Y017610D01*
X022462Y016961D01*
X021891Y016902D02*
X021891Y016898D01*
X021891Y016902D02*
X021872Y016921D01*
X021773Y016823D01*
X021380Y016823D01*
X021970Y016331D02*
X022462Y016331D01*
X022462Y016291D01*
X021970Y016331D02*
X021675Y016035D01*
X021675Y015937D01*
X021911Y015681D02*
X021773Y015543D01*
X021380Y015543D01*
X021911Y015681D02*
X022265Y015681D01*
X022265Y015051D02*
X022167Y014953D01*
X021872Y014953D01*
X021773Y014854D01*
X021773Y014559D01*
X021478Y014264D01*
X021380Y014264D01*
X021773Y013969D02*
X021872Y014067D01*
X021872Y014362D01*
X021927Y014417D01*
X022246Y014417D01*
X022265Y015012D02*
X022265Y015051D01*
X022954Y015937D02*
X023840Y015937D01*
X023742Y015902D02*
X030041Y015902D01*
X030041Y015980D02*
X023742Y015980D01*
X023742Y016059D02*
X030041Y016059D01*
X030041Y016137D02*
X023742Y016137D01*
X023742Y016216D02*
X030041Y016216D01*
X030041Y016294D02*
X023742Y016294D01*
X023742Y016373D02*
X030041Y016373D01*
X030041Y016451D02*
X023742Y016451D01*
X023742Y016530D02*
X030041Y016530D01*
X030041Y016608D02*
X023742Y016608D01*
X023742Y016687D02*
X030041Y016687D01*
X030041Y016766D02*
X023742Y016766D01*
X023742Y016844D02*
X030041Y016844D01*
X030041Y016923D02*
X023742Y016923D01*
X023742Y017001D02*
X030041Y017001D01*
X030041Y017080D02*
X023742Y017080D01*
X023742Y017118D02*
X030041Y017118D01*
X030041Y010031D01*
X023742Y010031D01*
X023742Y017118D01*
X023742Y015823D02*
X030041Y015823D01*
X030041Y015744D02*
X023742Y015744D01*
X023742Y015666D02*
X030041Y015666D01*
X030041Y015587D02*
X023742Y015587D01*
X023742Y015509D02*
X030041Y015509D01*
X030041Y015430D02*
X023742Y015430D01*
X023742Y015352D02*
X030041Y015352D01*
X030041Y015273D02*
X023742Y015273D01*
X023742Y015195D02*
X030041Y015195D01*
X030041Y015116D02*
X023742Y015116D01*
X023742Y015038D02*
X030041Y015038D01*
X030041Y014959D02*
X023742Y014959D01*
X023742Y014881D02*
X030041Y014881D01*
X030041Y014802D02*
X023742Y014802D01*
X023742Y014723D02*
X030041Y014723D01*
X030041Y014645D02*
X023742Y014645D01*
X023742Y014566D02*
X030041Y014566D01*
X030041Y014488D02*
X023742Y014488D01*
X023742Y014409D02*
X030041Y014409D01*
X030041Y014331D02*
X023742Y014331D01*
X023742Y014252D02*
X030041Y014252D01*
X030041Y014174D02*
X023742Y014174D01*
X023742Y014095D02*
X030041Y014095D01*
X030041Y014017D02*
X023742Y014017D01*
X023742Y013938D02*
X030041Y013938D01*
X030041Y013859D02*
X023742Y013859D01*
X023742Y013781D02*
X030041Y013781D01*
X030041Y013702D02*
X023742Y013702D01*
X023742Y013624D02*
X030041Y013624D01*
X030041Y013545D02*
X023742Y013545D01*
X023742Y013467D02*
X030041Y013467D01*
X030041Y013388D02*
X023742Y013388D01*
X023742Y013310D02*
X030041Y013310D01*
X030041Y013231D02*
X023742Y013231D01*
X023742Y013153D02*
X030041Y013153D01*
X030041Y013074D02*
X023742Y013074D01*
X023742Y012995D02*
X030041Y012995D01*
X030041Y012917D02*
X023742Y012917D01*
X023742Y012838D02*
X030041Y012838D01*
X030041Y012760D02*
X023742Y012760D01*
X023742Y012681D02*
X030041Y012681D01*
X030041Y012603D02*
X023742Y012603D01*
X023742Y012524D02*
X030041Y012524D01*
X030041Y012446D02*
X023742Y012446D01*
X023742Y012367D02*
X030041Y012367D01*
X030041Y012289D02*
X023742Y012289D01*
X023742Y012210D02*
X030041Y012210D01*
X030041Y012131D02*
X023742Y012131D01*
X023742Y012053D02*
X030041Y012053D01*
X030041Y011974D02*
X023742Y011974D01*
X023742Y011896D02*
X030041Y011896D01*
X030041Y011817D02*
X023742Y011817D01*
X023742Y011739D02*
X030041Y011739D01*
X030041Y011660D02*
X023742Y011660D01*
X023742Y011582D02*
X030041Y011582D01*
X030041Y011503D02*
X023742Y011503D01*
X023742Y011425D02*
X030041Y011425D01*
X030041Y011346D02*
X023742Y011346D01*
X023742Y011268D02*
X030041Y011268D01*
X030041Y011189D02*
X023742Y011189D01*
X023742Y011110D02*
X030041Y011110D01*
X030041Y011032D02*
X023742Y011032D01*
X023742Y010953D02*
X030041Y010953D01*
X030041Y010875D02*
X023742Y010875D01*
X023742Y010796D02*
X030041Y010796D01*
X030041Y010718D02*
X023742Y010718D01*
X023742Y010639D02*
X030041Y010639D01*
X030041Y010561D02*
X023742Y010561D01*
X023742Y010482D02*
X030041Y010482D01*
X030041Y010404D02*
X023742Y010404D01*
X023742Y010325D02*
X030041Y010325D01*
X030041Y010246D02*
X023742Y010246D01*
X023742Y010168D02*
X030041Y010168D01*
X030041Y010089D02*
X023742Y010089D01*
X022069Y010169D02*
X022069Y010228D01*
X021576Y010228D01*
X021380Y010031D01*
X021380Y010622D02*
X021915Y011157D01*
X022324Y011157D01*
X022324Y011827D02*
X022324Y011862D01*
X022364Y011902D01*
X021773Y011902D01*
X021773Y012295D02*
X021478Y012295D01*
X021773Y012295D02*
X021872Y012394D01*
X022167Y012394D01*
X022265Y012492D01*
X022265Y012453D01*
X022265Y013122D02*
X021517Y013122D01*
X021380Y012984D01*
X021380Y013476D02*
X021675Y013476D01*
X021872Y013673D01*
X022167Y013673D01*
X022246Y013752D01*
X022246Y013748D01*
X022246Y013752D02*
X022265Y013772D01*
X028269Y018201D02*
X028309Y018240D01*
X028210Y018736D01*
X028210Y019406D02*
X027506Y019406D01*
X027482Y019382D01*
X029155Y018496D02*
X029943Y018496D01*
X030041Y018398D01*
X029943Y018004D02*
X030041Y017906D01*
X029943Y018004D02*
X029155Y018004D01*
X029608Y019382D02*
X029608Y019815D01*
X029549Y019874D01*
X030238Y019874D02*
X030277Y019835D01*
X030277Y019382D01*
X030887Y019283D02*
X030887Y019815D01*
X030828Y019874D01*
X031557Y019815D02*
X031557Y019283D01*
X031557Y019815D02*
X031616Y019874D01*
X032797Y019323D02*
X033131Y019323D01*
X033486Y019677D01*
X033289Y018693D02*
X033250Y018654D01*
X032797Y018654D01*
X032797Y018142D02*
X033230Y018043D01*
X033289Y018102D01*
X033486Y017512D02*
X032797Y017512D01*
X032797Y017472D01*
X032817Y016878D02*
X033049Y016878D01*
X033289Y017118D01*
X033092Y016528D02*
X032797Y016232D01*
X032817Y016213D01*
X032817Y016209D01*
X033092Y016528D02*
X033486Y016528D01*
X033191Y015666D02*
X032600Y015642D01*
X032600Y015681D01*
X032600Y015012D02*
X033348Y015012D01*
X033363Y015027D01*
X033265Y014386D02*
X032817Y014386D01*
X033265Y014386D02*
X033289Y014362D01*
X033147Y013717D02*
X032817Y013717D01*
X033147Y013717D02*
X033289Y013599D01*
X032797Y012960D02*
X032659Y012846D01*
X032305Y012846D01*
X032797Y012492D02*
X032541Y012236D01*
X032305Y012236D01*
X032797Y012000D02*
X032364Y011567D01*
X032305Y011567D01*
X032856Y011295D02*
X032880Y011295D01*
X032895Y011311D01*
X033191Y011311D01*
X033289Y011409D01*
X033387Y011409D01*
X033412Y011926D02*
X033254Y011965D01*
X032856Y011965D01*
X032832Y011965D01*
X032797Y012000D01*
X032994Y010819D02*
X032305Y010819D01*
X032281Y010843D01*
X032265Y010843D01*
X031887Y010504D02*
X031813Y010429D01*
X031813Y010425D01*
X031419Y010228D01*
X031222Y009736D02*
X032206Y009736D01*
X032305Y009638D01*
X032305Y009441D01*
X032502Y009244D01*
X034837Y009244D01*
X035057Y009464D01*
X035707Y010264D02*
X035679Y010292D01*
X035679Y010327D01*
X033191Y010327D01*
X033092Y010425D01*
X032806Y010425D01*
X032727Y010504D01*
X031887Y010504D01*
X032265Y010173D02*
X033047Y010173D01*
X033289Y010031D01*
X033486Y009638D02*
X032895Y009638D01*
X032895Y009579D01*
X032895Y008909D02*
X032895Y008555D01*
X032994Y008457D01*
X033387Y008457D01*
X032600Y007768D02*
X031974Y008394D01*
X031974Y008398D01*
X031813Y007866D02*
X031517Y007866D01*
X031320Y008063D01*
X031320Y008358D01*
X031305Y008374D01*
X031305Y008398D01*
X029844Y007965D02*
X029801Y008008D01*
X029801Y008457D01*
X029254Y008260D02*
X029254Y007965D01*
X029254Y008260D02*
X029057Y008457D01*
X029131Y008457D01*
X028506Y008457D02*
X028466Y008457D01*
X028466Y007965D01*
X027836Y008122D02*
X027836Y008457D01*
X027836Y008122D02*
X027679Y007965D01*
X026891Y007965D02*
X026891Y008457D01*
X026915Y008457D01*
X026246Y008457D02*
X026246Y008008D01*
X026202Y007965D01*
X025218Y007965D02*
X025218Y008358D01*
X025120Y008457D01*
X025159Y008457D01*
X024726Y007965D02*
X024490Y008201D01*
X024490Y008457D01*
X023289Y008457D02*
X023250Y008457D01*
X023250Y007965D01*
X022620Y008024D02*
X022462Y007866D01*
X021970Y007866D01*
X022620Y008024D02*
X022620Y008457D01*
X027679Y006587D02*
X027679Y005702D01*
X027687Y005694D01*
X031222Y009736D02*
X030927Y010031D01*
X030828Y010228D01*
X030656Y011016D02*
X030730Y011803D01*
X031320Y011803D02*
X031320Y011213D01*
X031124Y011016D01*
X031222Y012591D02*
X031124Y012689D01*
X031124Y013575D01*
X031222Y013772D01*
X030730Y013378D02*
X030730Y012591D01*
X032305Y013516D02*
X032305Y014018D01*
X031222Y015248D02*
X031222Y016134D01*
X030730Y016134D02*
X030730Y015248D01*
X030730Y016921D02*
X030730Y017807D01*
X031124Y018004D02*
X031124Y017118D01*
X031222Y016921D01*
X030041Y022877D02*
X030041Y023220D01*
X029943Y023319D01*
X029687Y023369D01*
X029017Y023369D02*
X029017Y022866D01*
X029057Y022877D01*
X028466Y022877D02*
X028407Y022886D01*
X028407Y023369D01*
X027738Y023369D02*
X027738Y022965D01*
X027876Y022877D01*
X027836Y024854D02*
X027383Y024854D01*
X027836Y024854D02*
X027876Y024894D01*
X027383Y025524D02*
X027383Y025976D01*
X027285Y026075D01*
X028328Y025937D02*
X028328Y025583D01*
X028328Y025937D02*
X028466Y026075D01*
X028998Y026016D02*
X028998Y025583D01*
X028998Y026016D02*
X029057Y026075D01*
X029352Y026075D01*
X029509Y025917D01*
X029509Y025581D01*
X030179Y025581D02*
X030179Y026035D01*
X030139Y026075D01*
X024569Y026035D02*
X024569Y025583D01*
X024569Y026035D02*
X024529Y026075D01*
X023939Y026075D02*
X023899Y026035D01*
X023899Y025583D01*
X023289Y025583D02*
X023289Y026016D01*
X023348Y026075D01*
X022757Y026075D02*
X022620Y025937D01*
X022620Y025583D01*
X022797Y023369D02*
X022797Y022866D01*
X022757Y022877D01*
X022167Y022877D02*
X022128Y022866D01*
X022128Y023369D01*
X023899Y023369D02*
X023899Y022866D01*
X023939Y022877D01*
X024529Y022877D02*
X024569Y022866D01*
X024569Y023369D01*
X010454Y027157D02*
X008978Y027157D01*
X010357Y031094D02*
X010356Y031094D01*
X010357Y031094D02*
X010357Y032571D01*
X009656Y032571D01*
X014857Y004014D02*
X017057Y004014D01*
X017357Y003714D01*
X017357Y003314D01*
X017207Y002964D02*
X017457Y002714D01*
X018607Y002714D01*
X017207Y002964D02*
X014757Y002964D01*
X004307Y002964D02*
X004257Y003014D01*
X001557Y003014D01*
D18*
X021084Y006390D03*
X021970Y007866D03*
X023250Y007965D03*
X023742Y007965D03*
X024726Y007965D03*
X025218Y007965D03*
X026202Y007965D03*
X026891Y007965D03*
X027679Y007965D03*
X028466Y007965D03*
X029254Y007965D03*
X029844Y007965D03*
X030828Y007965D03*
X031813Y007866D03*
X032600Y007768D03*
X033387Y008457D03*
X033486Y009638D03*
X033289Y010031D03*
X033387Y010622D03*
X032994Y010819D03*
X033387Y011409D03*
X033412Y011926D03*
X032797Y012492D03*
X032797Y012960D03*
X033412Y012960D03*
X033289Y013599D03*
X033289Y014362D03*
X033363Y015027D03*
X033191Y015666D03*
X033289Y016134D03*
X033486Y016528D03*
X033289Y017118D03*
X033486Y017512D03*
X033289Y018102D03*
X033289Y018693D03*
X033486Y019677D03*
X032600Y019874D03*
X032206Y019087D03*
X031616Y019874D03*
X030828Y019874D03*
X030238Y019874D03*
X029549Y019874D03*
X028343Y019948D03*
X027482Y019874D03*
X025710Y019874D03*
X024923Y019874D03*
X023742Y019874D03*
X023151Y019874D03*
X022364Y019874D03*
X021773Y019874D03*
X021281Y019283D03*
X021380Y017906D03*
X021380Y017315D03*
X021380Y016823D03*
X021380Y016331D03*
X021675Y015937D03*
X021380Y015543D03*
X021380Y014756D03*
X021380Y014264D03*
X021773Y013969D03*
X021380Y013476D03*
X021380Y012984D03*
X021478Y012295D03*
X021773Y011902D03*
X021380Y011606D03*
X021380Y010622D03*
X021380Y010031D03*
X027679Y006587D03*
X030828Y010228D03*
X031419Y010228D03*
X031124Y011016D03*
X030656Y011016D03*
X030730Y011803D03*
X031320Y011803D03*
X031222Y012591D03*
X030730Y012591D03*
X030730Y013378D03*
X031222Y013772D03*
X032305Y014018D03*
X031222Y015248D03*
X030730Y015248D03*
X030730Y016134D03*
X031222Y016134D03*
X031222Y016921D03*
X030730Y016921D03*
X030730Y017807D03*
X031124Y018004D03*
X032206Y017512D03*
X032305Y016528D03*
X030041Y017906D03*
X030041Y018398D03*
X029155Y018496D03*
X029155Y018004D03*
X028269Y018201D03*
X033191Y022630D03*
X030041Y022877D03*
X029057Y022877D03*
X028466Y022877D03*
X027876Y022877D03*
X027285Y022877D03*
X027876Y024894D03*
X027876Y026075D03*
X028466Y026075D03*
X029057Y026075D03*
X030139Y026075D03*
X027285Y026075D03*
X024529Y026075D03*
X023939Y026075D03*
X023348Y026075D03*
X022757Y026075D03*
X022757Y022877D03*
X022167Y022877D03*
X023348Y022877D03*
X023939Y022877D03*
X024529Y022877D03*
X020297Y021449D03*
X022462Y017610D03*
X010454Y027157D03*
X008978Y027157D03*
X010356Y031094D03*
X009656Y032571D03*
X034864Y008752D03*
X035159Y006882D03*
D19*
X020592Y022728D03*
X020494Y029323D03*
X018919Y029717D03*
X018919Y031390D03*
X002907Y025189D03*
X002285Y025189D03*
X004957Y013514D03*
D20*
X018919Y029717D02*
X018919Y031390D01*
X019007Y032464D02*
X039057Y032464D01*
X039057Y006064D01*
X039057Y005014D01*
X038557Y004964D02*
X038557Y004614D01*
X038907Y004264D01*
X038557Y004914D02*
X038557Y004964D01*
X038557Y008514D01*
X038557Y011114D01*
X038557Y012614D01*
X038557Y031964D01*
X024807Y031964D01*
D21*
X024807Y031964D03*
X021380Y028339D03*
X018033Y028634D03*
X017443Y028634D03*
X016852Y028634D03*
X016261Y029323D03*
X015769Y029028D03*
X019007Y032464D03*
X010356Y026567D03*
X010356Y025976D03*
X009765Y026173D03*
X009765Y026665D03*
X010257Y029815D03*
X009667Y030012D03*
X009667Y030504D03*
X010257Y030406D03*
X006544Y031685D03*
X005953Y031685D03*
X005363Y031685D03*
X005363Y032276D03*
X005953Y032276D03*
X006544Y032276D03*
X004647Y030799D03*
X003958Y030799D03*
X003269Y030799D03*
X002580Y030799D03*
X001963Y031435D03*
X001963Y032249D03*
X015769Y025091D03*
X016261Y025386D03*
X016754Y024697D03*
X017344Y024697D03*
X018033Y024697D03*
X023643Y017906D03*
X023004Y017267D03*
X022954Y016528D03*
X022954Y015937D03*
X025612Y018004D03*
X022856Y013476D03*
X022856Y011902D03*
X022856Y011163D03*
X022954Y009539D03*
X021281Y008457D03*
X026891Y009146D03*
X029254Y009244D03*
X031714Y010819D03*
X031813Y012492D03*
X031936Y014362D03*
X032009Y014854D03*
X036857Y011764D03*
X037657Y010464D03*
X038557Y011114D03*
X038557Y012614D03*
X035707Y010264D03*
X035057Y009464D03*
X037307Y007964D03*
X038557Y008514D03*
X039057Y006064D03*
X037357Y005264D03*
X032108Y009047D03*
X027687Y005694D03*
X018607Y002714D03*
X017357Y003314D03*
X014857Y004014D03*
X014757Y002964D03*
X004307Y002964D03*
X001557Y003014D03*
D22*
X001662Y003349D02*
X002088Y003349D01*
X002057Y003424D02*
X002126Y003259D01*
X002181Y003204D01*
X001857Y003204D01*
X001854Y003212D01*
X001755Y003310D01*
X001627Y003364D01*
X001487Y003364D01*
X001467Y003355D01*
X001467Y032704D01*
X009354Y032704D01*
X009326Y032636D01*
X009326Y032505D01*
X009376Y032384D01*
X009469Y032291D01*
X009590Y032241D01*
X009722Y032241D01*
X009843Y032291D01*
X009933Y032381D01*
X010167Y032381D01*
X010167Y031372D01*
X010076Y031281D01*
X010026Y031160D01*
X010026Y031029D01*
X010076Y030908D01*
X010169Y030815D01*
X010290Y030764D01*
X010422Y030764D01*
X010543Y030815D01*
X010636Y030908D01*
X010686Y031029D01*
X010686Y031160D01*
X010636Y031281D01*
X010547Y031370D01*
X010547Y032650D01*
X010493Y032704D01*
X018752Y032704D01*
X018710Y032662D01*
X018657Y032609D01*
X018657Y032319D01*
X018710Y032266D01*
X018710Y032266D01*
X018809Y032167D01*
X018862Y032114D01*
X024462Y032114D01*
X024457Y032109D01*
X024457Y031819D01*
X024510Y031766D01*
X024510Y031766D01*
X024609Y031667D01*
X024662Y031614D01*
X038207Y031614D01*
X038207Y012759D01*
X038207Y012683D01*
X038207Y012544D01*
X038207Y011259D01*
X038207Y011183D01*
X038207Y011044D01*
X038207Y008659D01*
X038207Y008583D01*
X038207Y008444D01*
X038207Y005109D01*
X038207Y004643D01*
X038179Y004671D01*
X038003Y004744D01*
X037927Y004744D01*
X037927Y004284D01*
X037887Y004284D01*
X037887Y004744D01*
X037812Y004744D01*
X037635Y004671D01*
X037500Y004536D01*
X037427Y004359D01*
X037427Y004284D01*
X037887Y004284D01*
X037887Y004244D01*
X037427Y004244D01*
X037427Y004168D01*
X037500Y003992D01*
X037635Y003857D01*
X037812Y003784D01*
X037887Y003784D01*
X037887Y004244D01*
X037927Y004244D01*
X037927Y004284D01*
X038387Y004284D01*
X038387Y004289D01*
X038412Y004264D01*
X038457Y004219D01*
X038457Y004174D01*
X038526Y004009D01*
X038652Y003882D01*
X038818Y003814D01*
X038997Y003814D01*
X039132Y003870D01*
X039002Y003711D01*
X038997Y003714D01*
X038818Y003714D01*
X038652Y003645D01*
X038526Y003519D01*
X038457Y003353D01*
X038457Y003174D01*
X038526Y003009D01*
X038652Y002882D01*
X038818Y002814D01*
X038997Y002814D01*
X039162Y002882D01*
X039289Y003009D01*
X039347Y003150D01*
X039347Y002324D01*
X016948Y002324D01*
X016987Y002418D01*
X016987Y002494D01*
X016527Y002494D01*
X016527Y002534D01*
X016987Y002534D01*
X016987Y002609D01*
X016919Y002774D01*
X017128Y002774D01*
X017378Y002524D01*
X017536Y002524D01*
X018307Y002524D01*
X018310Y002516D01*
X018409Y002417D01*
X018537Y002364D01*
X018677Y002364D01*
X018805Y002417D01*
X018904Y002516D01*
X018957Y002644D01*
X018957Y002783D01*
X018904Y002912D01*
X018805Y003010D01*
X018677Y003064D01*
X018537Y003064D01*
X018409Y003010D01*
X018310Y002912D01*
X018307Y002904D01*
X017536Y002904D01*
X017461Y002978D01*
X017555Y003017D01*
X017654Y003116D01*
X017707Y003244D01*
X017707Y003383D01*
X017654Y003512D01*
X017555Y003610D01*
X017547Y003614D01*
X017547Y003635D01*
X017547Y003792D01*
X017247Y004092D01*
X017136Y004204D01*
X016833Y004204D01*
X016889Y004259D01*
X016957Y004424D01*
X016957Y004603D01*
X016889Y004769D01*
X016762Y004895D01*
X016597Y004964D01*
X016418Y004964D01*
X016252Y004895D01*
X016126Y004769D01*
X016057Y004603D01*
X016057Y004424D01*
X016126Y004259D01*
X016181Y004204D01*
X015833Y004204D01*
X015889Y004259D01*
X015957Y004424D01*
X015957Y004603D01*
X015889Y004769D01*
X015762Y004895D01*
X015597Y004964D01*
X015418Y004964D01*
X015252Y004895D01*
X015126Y004769D01*
X015057Y004603D01*
X015057Y004424D01*
X015126Y004259D01*
X015181Y004204D01*
X015157Y004204D01*
X015154Y004212D01*
X015055Y004310D01*
X014927Y004364D01*
X014787Y004364D01*
X014659Y004310D01*
X014560Y004212D01*
X014507Y004083D01*
X014507Y003944D01*
X014560Y003816D01*
X014659Y003717D01*
X014787Y003664D01*
X014927Y003664D01*
X015055Y003717D01*
X015154Y003816D01*
X015157Y003824D01*
X015181Y003824D01*
X015126Y003769D01*
X015057Y003603D01*
X015057Y003424D01*
X015126Y003259D01*
X015231Y003154D01*
X015057Y003154D01*
X015054Y003162D01*
X014955Y003260D01*
X014827Y003314D01*
X014687Y003314D01*
X014559Y003260D01*
X014460Y003162D01*
X014407Y003033D01*
X014407Y002894D01*
X014460Y002766D01*
X014559Y002667D01*
X014687Y002614D01*
X014827Y002614D01*
X014955Y002667D01*
X015054Y002766D01*
X015057Y002774D01*
X015131Y002774D01*
X015126Y002769D01*
X015057Y002603D01*
X015057Y002424D01*
X015099Y002324D01*
X003948Y002324D01*
X003987Y002418D01*
X003987Y002494D01*
X003527Y002494D01*
X003527Y002534D01*
X003987Y002534D01*
X003987Y002609D01*
X003914Y002786D01*
X003876Y002824D01*
X003986Y002824D01*
X004010Y002766D01*
X004109Y002667D01*
X004237Y002614D01*
X004377Y002614D01*
X004505Y002667D01*
X004604Y002766D01*
X004657Y002894D01*
X004657Y003033D01*
X004604Y003162D01*
X004505Y003260D01*
X004377Y003314D01*
X004237Y003314D01*
X004109Y003260D01*
X004052Y003204D01*
X003876Y003204D01*
X003914Y003242D01*
X003987Y003418D01*
X003987Y003494D01*
X003527Y003494D01*
X003527Y003534D01*
X003487Y003534D01*
X003487Y003994D01*
X003412Y003994D01*
X003235Y003921D01*
X003100Y003786D01*
X003027Y003609D01*
X003027Y003534D01*
X003487Y003534D01*
X003487Y003494D01*
X003027Y003494D01*
X003027Y003418D01*
X003100Y003242D01*
X003138Y003204D01*
X002833Y003204D01*
X002889Y003259D01*
X002957Y003424D01*
X002957Y003603D01*
X002889Y003769D01*
X002762Y003895D01*
X002597Y003964D01*
X002418Y003964D01*
X002252Y003895D01*
X002126Y003769D01*
X002057Y003603D01*
X002057Y003424D01*
X002057Y003508D02*
X001467Y003508D01*
X001467Y003666D02*
X002083Y003666D01*
X002182Y003825D02*
X001467Y003825D01*
X001467Y003983D02*
X003387Y003983D01*
X003412Y004034D02*
X003487Y004034D01*
X003487Y004494D01*
X003027Y004494D01*
X003027Y004418D01*
X003100Y004242D01*
X003235Y004107D01*
X003412Y004034D01*
X003487Y003983D02*
X003527Y003983D01*
X003527Y003994D02*
X003527Y003534D01*
X003987Y003534D01*
X003987Y003609D01*
X003914Y003786D01*
X003779Y003921D01*
X003603Y003994D01*
X003527Y003994D01*
X003527Y004034D02*
X003603Y004034D01*
X003779Y004107D01*
X003914Y004242D01*
X003987Y004418D01*
X003987Y004494D01*
X003527Y004494D01*
X003527Y004534D01*
X003487Y004534D01*
X003487Y004994D01*
X003412Y004994D01*
X003235Y004921D01*
X003100Y004786D01*
X003027Y004609D01*
X003027Y004534D01*
X003487Y004534D01*
X003487Y004494D01*
X003527Y004494D01*
X003527Y004034D01*
X003527Y004142D02*
X003487Y004142D01*
X003487Y004300D02*
X003527Y004300D01*
X003527Y004459D02*
X003487Y004459D01*
X003527Y004534D02*
X003987Y004534D01*
X003987Y004609D01*
X003914Y004786D01*
X003779Y004921D01*
X003603Y004994D01*
X003527Y004994D01*
X003527Y004534D01*
X003527Y004618D02*
X003487Y004618D01*
X003487Y004776D02*
X003527Y004776D01*
X003527Y004935D02*
X003487Y004935D01*
X003487Y005034D02*
X003487Y005494D01*
X003027Y005494D01*
X003027Y005418D01*
X003100Y005242D01*
X003235Y005107D01*
X003412Y005034D01*
X003487Y005034D01*
X003527Y005034D02*
X003603Y005034D01*
X003779Y005107D01*
X003914Y005242D01*
X003987Y005418D01*
X003987Y005494D01*
X003527Y005494D01*
X003527Y005534D01*
X003487Y005534D01*
X003487Y005994D01*
X003412Y005994D01*
X003235Y005921D01*
X003100Y005786D01*
X003027Y005609D01*
X003027Y005534D01*
X003487Y005534D01*
X003487Y005494D01*
X003527Y005494D01*
X003527Y005034D01*
X003527Y005093D02*
X003487Y005093D01*
X003487Y005252D02*
X003527Y005252D01*
X003527Y005410D02*
X003487Y005410D01*
X003527Y005534D02*
X003987Y005534D01*
X003987Y005609D01*
X003914Y005786D01*
X003779Y005921D01*
X003603Y005994D01*
X003527Y005994D01*
X003527Y005534D01*
X003527Y005569D02*
X003487Y005569D01*
X003487Y005727D02*
X003527Y005727D01*
X003527Y005886D02*
X003487Y005886D01*
X003487Y006034D02*
X003487Y006494D01*
X003027Y006494D01*
X003027Y006418D01*
X003100Y006242D01*
X003235Y006107D01*
X003412Y006034D01*
X003487Y006034D01*
X003487Y006044D02*
X003527Y006044D01*
X003527Y006034D02*
X003603Y006034D01*
X003779Y006107D01*
X003914Y006242D01*
X003987Y006418D01*
X003987Y006494D01*
X003527Y006494D01*
X003527Y006534D01*
X003487Y006534D01*
X003487Y006994D01*
X003412Y006994D01*
X003235Y006921D01*
X003100Y006786D01*
X003027Y006609D01*
X003027Y006534D01*
X003487Y006534D01*
X003487Y006494D01*
X003527Y006494D01*
X003527Y006034D01*
X003628Y006044D02*
X027489Y006044D01*
X027489Y005990D02*
X027390Y005892D01*
X027337Y005763D01*
X027337Y005624D01*
X027390Y005496D01*
X027489Y005397D01*
X027617Y005344D01*
X027757Y005344D01*
X027885Y005397D01*
X027984Y005496D01*
X028037Y005624D01*
X028037Y005763D01*
X027984Y005892D01*
X027885Y005990D01*
X027869Y005997D01*
X027869Y006310D01*
X027958Y006400D01*
X028009Y006521D01*
X028009Y006652D01*
X027958Y006774D01*
X027866Y006866D01*
X027744Y006917D01*
X027613Y006917D01*
X027492Y006866D01*
X027399Y006774D01*
X027349Y006652D01*
X027349Y006521D01*
X027399Y006400D01*
X027489Y006310D01*
X027489Y005990D01*
X027388Y005886D02*
X016814Y005886D01*
X016779Y005921D02*
X016603Y005994D01*
X016527Y005994D01*
X016527Y005534D01*
X016487Y005534D01*
X016487Y005994D01*
X016412Y005994D01*
X016235Y005921D01*
X016100Y005786D01*
X016027Y005609D01*
X016027Y005534D01*
X016487Y005534D01*
X016487Y005494D01*
X016027Y005494D01*
X016027Y005418D01*
X016100Y005242D01*
X016235Y005107D01*
X016412Y005034D01*
X016487Y005034D01*
X016487Y005494D01*
X016527Y005494D01*
X016527Y005534D01*
X016987Y005534D01*
X016987Y005609D01*
X016914Y005786D01*
X016779Y005921D01*
X016762Y006132D02*
X016889Y006259D01*
X016957Y006424D01*
X016957Y006603D01*
X016889Y006769D01*
X016762Y006895D01*
X016597Y006964D01*
X016418Y006964D01*
X016252Y006895D01*
X016126Y006769D01*
X016057Y006603D01*
X016057Y006424D01*
X016126Y006259D01*
X016252Y006132D01*
X016418Y006064D01*
X016597Y006064D01*
X016762Y006132D01*
X016833Y006203D02*
X027489Y006203D01*
X027437Y006362D02*
X016931Y006362D01*
X016957Y006520D02*
X027349Y006520D01*
X027360Y006679D02*
X016926Y006679D01*
X016820Y006837D02*
X027463Y006837D01*
X027895Y006837D02*
X038207Y006837D01*
X038207Y006679D02*
X027998Y006679D01*
X028008Y006520D02*
X038207Y006520D01*
X038207Y006362D02*
X027920Y006362D01*
X027869Y006203D02*
X038207Y006203D01*
X038207Y006044D02*
X027869Y006044D01*
X027986Y005886D02*
X038207Y005886D01*
X038207Y005727D02*
X028037Y005727D01*
X028014Y005569D02*
X038207Y005569D01*
X038207Y005410D02*
X027899Y005410D01*
X027476Y005410D02*
X016984Y005410D01*
X016987Y005418D02*
X016987Y005494D01*
X016527Y005494D01*
X016527Y005034D01*
X016603Y005034D01*
X016779Y005107D01*
X016914Y005242D01*
X016987Y005418D01*
X016987Y005569D02*
X027360Y005569D01*
X027337Y005727D02*
X016938Y005727D01*
X016527Y005727D02*
X016487Y005727D01*
X016487Y005569D02*
X016527Y005569D01*
X016527Y005410D02*
X016487Y005410D01*
X016487Y005252D02*
X016527Y005252D01*
X016527Y005093D02*
X016487Y005093D01*
X016347Y004935D02*
X015667Y004935D01*
X015597Y005064D02*
X015762Y005132D01*
X015889Y005259D01*
X015957Y005424D01*
X015957Y005603D01*
X015889Y005769D01*
X015762Y005895D01*
X015597Y005964D01*
X015418Y005964D01*
X015252Y005895D01*
X015126Y005769D01*
X015057Y005603D01*
X015057Y005424D01*
X015126Y005259D01*
X015252Y005132D01*
X015418Y005064D01*
X015597Y005064D01*
X015668Y005093D02*
X016268Y005093D01*
X016096Y005252D02*
X015881Y005252D01*
X015951Y005410D02*
X016030Y005410D01*
X016027Y005569D02*
X015957Y005569D01*
X015906Y005727D02*
X016076Y005727D01*
X016200Y005886D02*
X015771Y005886D01*
X015762Y006132D02*
X015889Y006259D01*
X015957Y006424D01*
X015957Y006603D01*
X015889Y006769D01*
X015762Y006895D01*
X015597Y006964D01*
X015418Y006964D01*
X015252Y006895D01*
X015126Y006769D01*
X015057Y006603D01*
X015057Y006424D01*
X015126Y006259D01*
X015252Y006132D01*
X015418Y006064D01*
X015597Y006064D01*
X015762Y006132D01*
X015833Y006203D02*
X016181Y006203D01*
X016083Y006362D02*
X015931Y006362D01*
X015957Y006520D02*
X016057Y006520D01*
X016088Y006679D02*
X015926Y006679D01*
X015820Y006837D02*
X016194Y006837D01*
X016235Y007107D02*
X016412Y007034D01*
X016487Y007034D01*
X016487Y007494D01*
X016027Y007494D01*
X016027Y007418D01*
X016100Y007242D01*
X016235Y007107D01*
X016188Y007154D02*
X015784Y007154D01*
X015762Y007132D02*
X015889Y007259D01*
X015957Y007424D01*
X015957Y007603D01*
X015889Y007769D01*
X015762Y007895D01*
X015597Y007964D01*
X015418Y007964D01*
X015252Y007895D01*
X015126Y007769D01*
X015057Y007603D01*
X015057Y007424D01*
X015126Y007259D01*
X015252Y007132D01*
X015418Y007064D01*
X015597Y007064D01*
X015762Y007132D01*
X015911Y007313D02*
X016071Y007313D01*
X016027Y007471D02*
X015957Y007471D01*
X016027Y007534D02*
X016487Y007534D01*
X016487Y007994D01*
X016412Y007994D01*
X016235Y007921D01*
X016100Y007786D01*
X016027Y007609D01*
X016027Y007534D01*
X016036Y007630D02*
X015946Y007630D01*
X015869Y007788D02*
X016103Y007788D01*
X016299Y007947D02*
X015637Y007947D01*
X015597Y008064D02*
X015762Y008132D01*
X015889Y008259D01*
X015957Y008424D01*
X015957Y008603D01*
X015889Y008769D01*
X015762Y008895D01*
X015597Y008964D01*
X015418Y008964D01*
X015252Y008895D01*
X015126Y008769D01*
X015057Y008603D01*
X015057Y008424D01*
X015126Y008259D01*
X015252Y008132D01*
X015418Y008064D01*
X015597Y008064D01*
X015697Y008106D02*
X016317Y008106D01*
X016252Y008132D02*
X016418Y008064D01*
X016597Y008064D01*
X016762Y008132D01*
X016889Y008259D01*
X016957Y008424D01*
X016957Y008603D01*
X016889Y008769D01*
X016762Y008895D01*
X016597Y008964D01*
X016418Y008964D01*
X016252Y008895D01*
X016126Y008769D01*
X016057Y008603D01*
X016057Y008424D01*
X016126Y008259D01*
X016252Y008132D01*
X016123Y008264D02*
X015891Y008264D01*
X015956Y008423D02*
X016058Y008423D01*
X016057Y008581D02*
X015957Y008581D01*
X015901Y008740D02*
X016114Y008740D01*
X016259Y008898D02*
X015755Y008898D01*
X015597Y009064D02*
X015762Y009132D01*
X015889Y009259D01*
X015957Y009424D01*
X015957Y009603D01*
X015889Y009769D01*
X015762Y009895D01*
X015597Y009964D01*
X015418Y009964D01*
X015252Y009895D01*
X015126Y009769D01*
X015057Y009603D01*
X015057Y009424D01*
X015126Y009259D01*
X015252Y009132D01*
X015418Y009064D01*
X015597Y009064D01*
X015845Y009215D02*
X016127Y009215D01*
X016100Y009242D02*
X016235Y009107D01*
X016412Y009034D01*
X016487Y009034D01*
X016487Y009494D01*
X016027Y009494D01*
X016027Y009418D01*
X016100Y009242D01*
X016045Y009374D02*
X015936Y009374D01*
X015957Y009532D02*
X016487Y009532D01*
X016487Y009534D02*
X016487Y009494D01*
X016527Y009494D01*
X016527Y009534D01*
X016487Y009534D01*
X016487Y009994D01*
X016412Y009994D01*
X016235Y009921D01*
X016100Y009786D01*
X016027Y009609D01*
X016027Y009534D01*
X016487Y009534D01*
X016527Y009534D02*
X016527Y009994D01*
X016603Y009994D01*
X016779Y009921D01*
X016914Y009786D01*
X016987Y009609D01*
X016987Y009534D01*
X016527Y009534D01*
X016527Y009532D02*
X021692Y009532D01*
X021692Y009518D02*
X022050Y009518D01*
X022050Y009481D01*
X022087Y009481D01*
X022087Y009103D01*
X022340Y009103D01*
X022445Y009209D01*
X022445Y009481D01*
X022087Y009481D01*
X022087Y009518D01*
X022445Y009518D01*
X022445Y009791D01*
X022381Y009856D01*
X022415Y009891D01*
X022415Y010448D01*
X022327Y010536D01*
X021809Y010536D01*
X021722Y010448D01*
X021722Y010418D01*
X021498Y010418D01*
X021441Y010361D01*
X021314Y010361D01*
X021193Y010311D01*
X021100Y010218D01*
X021050Y010097D01*
X021050Y009966D01*
X021100Y009845D01*
X021193Y009752D01*
X021314Y009701D01*
X021445Y009701D01*
X021566Y009752D01*
X021659Y009845D01*
X021709Y009966D01*
X021709Y010038D01*
X021722Y010038D01*
X021722Y009891D01*
X021756Y009856D01*
X021692Y009791D01*
X021692Y009518D01*
X021692Y009481D02*
X021692Y009209D01*
X021797Y009103D01*
X022050Y009103D01*
X022050Y009481D01*
X021692Y009481D01*
X021692Y009374D02*
X016969Y009374D01*
X016987Y009418D02*
X016914Y009242D01*
X016779Y009107D01*
X016603Y009034D01*
X016527Y009034D01*
X016527Y009494D01*
X016987Y009494D01*
X016987Y009418D01*
X016887Y009215D02*
X021692Y009215D01*
X022050Y009215D02*
X022087Y009215D01*
X022087Y009374D02*
X022050Y009374D01*
X022445Y009374D02*
X022644Y009374D01*
X022658Y009341D02*
X022756Y009243D01*
X022885Y009189D01*
X023024Y009189D01*
X023153Y009243D01*
X023219Y009309D01*
X023345Y009309D01*
X023593Y009557D01*
X023600Y009550D01*
X026661Y009550D01*
X026661Y009411D01*
X026595Y009344D01*
X026541Y009215D01*
X026541Y009076D01*
X026595Y008947D01*
X026693Y008849D01*
X026803Y008804D01*
X026636Y008804D01*
X026601Y008769D01*
X026537Y008834D01*
X026264Y008834D01*
X026264Y008475D01*
X026227Y008475D01*
X026227Y008438D01*
X026264Y008438D01*
X026264Y008080D01*
X026537Y008080D01*
X026601Y008145D01*
X026607Y008139D01*
X026561Y008030D01*
X026561Y007899D01*
X026612Y007778D01*
X026704Y007685D01*
X026826Y007635D01*
X026957Y007635D01*
X027078Y007685D01*
X027171Y007778D01*
X027221Y007899D01*
X027221Y008030D01*
X027188Y008110D01*
X027194Y008110D01*
X027281Y008198D01*
X027281Y008716D01*
X027194Y008804D01*
X026980Y008804D01*
X027090Y008849D01*
X027188Y008947D01*
X027241Y009076D01*
X027241Y009215D01*
X027188Y009344D01*
X027121Y009411D01*
X027121Y009550D01*
X029013Y009550D01*
X029024Y009550D01*
X029024Y009509D01*
X028957Y009442D01*
X028904Y009314D01*
X028904Y009174D01*
X028957Y009046D01*
X029055Y008947D01*
X029184Y008894D01*
X029323Y008894D01*
X029452Y008947D01*
X029550Y009046D01*
X029604Y009174D01*
X029604Y009314D01*
X029550Y009442D01*
X029484Y009509D01*
X029484Y009550D01*
X029702Y009550D01*
X029712Y009550D01*
X031788Y008906D01*
X031811Y008849D01*
X031886Y008774D01*
X031683Y008774D01*
X031618Y008710D01*
X031583Y008744D01*
X031026Y008744D01*
X030938Y008657D01*
X030938Y008139D01*
X031026Y008051D01*
X031130Y008051D01*
X031130Y007984D01*
X031242Y007873D01*
X031439Y007676D01*
X031536Y007676D01*
X031626Y007586D01*
X031747Y007536D01*
X031878Y007536D01*
X031999Y007586D01*
X032092Y007679D01*
X032143Y007800D01*
X032143Y007932D01*
X032106Y008021D01*
X032265Y008021D01*
X032371Y008126D01*
X032371Y008379D01*
X031993Y008379D01*
X031993Y008416D01*
X032371Y008416D01*
X032371Y008669D01*
X032294Y008746D01*
X032306Y008751D01*
X032405Y008849D01*
X032458Y008978D01*
X032458Y009054D01*
X032518Y009054D01*
X032518Y008928D01*
X032877Y008928D01*
X032877Y008891D01*
X032914Y008891D01*
X032914Y008928D01*
X033272Y008928D01*
X033272Y009054D01*
X034759Y009054D01*
X034916Y009054D01*
X034979Y009117D01*
X034987Y009114D01*
X035127Y009114D01*
X035255Y009167D01*
X035354Y009266D01*
X035407Y009394D01*
X035407Y009533D01*
X035354Y009662D01*
X035255Y009760D01*
X035127Y009814D01*
X034987Y009814D01*
X034859Y009760D01*
X034760Y009662D01*
X034707Y009533D01*
X034707Y009434D01*
X033749Y009434D01*
X033766Y009451D01*
X033816Y009572D01*
X033816Y009703D01*
X033766Y009825D01*
X033673Y009918D01*
X033551Y009968D01*
X033420Y009968D01*
X033299Y009918D01*
X033240Y009859D01*
X033154Y009945D01*
X032642Y009945D01*
X032642Y010155D01*
X032284Y010155D01*
X032284Y010192D01*
X032642Y010192D01*
X032642Y010314D01*
X032648Y010314D01*
X032727Y010235D01*
X032884Y010235D01*
X033013Y010235D01*
X033112Y010137D01*
X035381Y010137D01*
X035410Y010066D01*
X035509Y009967D01*
X035637Y009914D01*
X035777Y009914D01*
X035905Y009967D01*
X036004Y010066D01*
X036057Y010194D01*
X036057Y010333D01*
X036004Y010462D01*
X035905Y010560D01*
X035777Y010614D01*
X035637Y010614D01*
X035509Y010560D01*
X035465Y010517D01*
X033269Y010517D01*
X033214Y010572D01*
X033273Y010632D01*
X033324Y010753D01*
X033324Y010885D01*
X033273Y011006D01*
X033203Y011076D01*
X033203Y011121D01*
X033221Y011121D01*
X033322Y011079D01*
X033453Y011079D01*
X033574Y011130D01*
X033667Y011223D01*
X033717Y011344D01*
X033717Y011475D01*
X033667Y011596D01*
X033574Y011689D01*
X033453Y011739D01*
X033322Y011739D01*
X033233Y011703D01*
X033233Y011946D01*
X032875Y011946D01*
X032875Y011983D01*
X033233Y011983D01*
X033233Y012256D01*
X033127Y012361D01*
X033100Y012361D01*
X033127Y012426D01*
X033127Y012558D01*
X033077Y012679D01*
X033030Y012726D01*
X033077Y012773D01*
X033127Y012894D01*
X033127Y013025D01*
X033077Y013147D01*
X032984Y013239D01*
X032862Y013290D01*
X032731Y013290D01*
X032682Y013269D01*
X032682Y013320D01*
X032798Y013320D01*
X032798Y013698D01*
X032835Y013698D01*
X032835Y013320D01*
X033088Y013320D01*
X033193Y013425D01*
X033193Y013698D01*
X032835Y013698D01*
X032835Y013735D01*
X033193Y013735D01*
X033193Y014008D01*
X033130Y014071D01*
X033223Y014032D01*
X033355Y014032D01*
X033476Y014082D01*
X033569Y014175D01*
X033619Y014297D01*
X033619Y014428D01*
X033569Y014549D01*
X033476Y014642D01*
X033355Y014692D01*
X033223Y014692D01*
X033161Y014666D01*
X033076Y014752D01*
X032977Y014752D01*
X032977Y014993D01*
X032619Y014993D01*
X032619Y015030D01*
X032977Y015030D01*
X032977Y015303D01*
X032912Y015368D01*
X032947Y015402D01*
X032947Y015443D01*
X033004Y015387D01*
X033125Y015336D01*
X033256Y015336D01*
X033377Y015387D01*
X033470Y015479D01*
X033521Y015601D01*
X033521Y015732D01*
X033470Y015853D01*
X033377Y015946D01*
X033256Y015996D01*
X033163Y015996D01*
X033163Y016330D01*
X033171Y016338D01*
X033209Y016338D01*
X033299Y016248D01*
X033420Y016198D01*
X033551Y016198D01*
X033673Y016248D01*
X033766Y016341D01*
X033816Y016462D01*
X033816Y016593D01*
X033766Y016714D01*
X033673Y016807D01*
X033551Y016858D01*
X033420Y016858D01*
X033299Y016807D01*
X033209Y016718D01*
X033193Y016718D01*
X033193Y016859D01*
X032835Y016859D01*
X032835Y016896D01*
X033193Y016896D01*
X033193Y017169D01*
X033144Y017219D01*
X033144Y017322D01*
X033209Y017322D01*
X033299Y017232D01*
X033420Y017182D01*
X033551Y017182D01*
X033673Y017232D01*
X033766Y017325D01*
X033816Y017446D01*
X033816Y017577D01*
X033766Y017699D01*
X033673Y017792D01*
X033551Y017842D01*
X033420Y017842D01*
X033299Y017792D01*
X033209Y017702D01*
X033144Y017702D01*
X033144Y017751D01*
X033109Y017786D01*
X033174Y017851D01*
X033174Y018123D01*
X032816Y018123D01*
X032816Y018160D01*
X033174Y018160D01*
X033174Y018384D01*
X033223Y018363D01*
X033355Y018363D01*
X033476Y018413D01*
X033569Y018506D01*
X033619Y018627D01*
X033619Y018759D01*
X033569Y018880D01*
X033476Y018973D01*
X033355Y019023D01*
X033223Y019023D01*
X033123Y018981D01*
X033174Y019032D01*
X033174Y019304D01*
X032816Y019304D01*
X032816Y019341D01*
X033174Y019341D01*
X033174Y019614D01*
X033068Y019719D01*
X032815Y019719D01*
X032815Y019341D01*
X032778Y019341D01*
X032778Y019304D01*
X032455Y019304D01*
X032393Y019366D01*
X032272Y019417D01*
X032141Y019417D01*
X032019Y019366D01*
X031927Y019274D01*
X031923Y019265D01*
X031923Y019542D01*
X031837Y019629D01*
X031895Y019687D01*
X031946Y019808D01*
X031946Y019940D01*
X031895Y020061D01*
X031803Y020154D01*
X031681Y020204D01*
X031550Y020204D01*
X031429Y020154D01*
X031336Y020061D01*
X031286Y019940D01*
X031286Y019808D01*
X031336Y019687D01*
X031367Y019656D01*
X031367Y019630D01*
X031278Y019630D01*
X031243Y019595D01*
X031178Y019660D01*
X030906Y019660D01*
X030906Y019302D01*
X030869Y019302D01*
X030869Y019660D01*
X030667Y019660D01*
X030568Y019759D01*
X030296Y019759D01*
X030296Y019401D01*
X030259Y019401D01*
X030259Y019759D01*
X029986Y019759D01*
X029921Y019694D01*
X029887Y019729D01*
X029846Y019729D01*
X029879Y019808D01*
X029879Y019940D01*
X029829Y020061D01*
X029736Y020154D01*
X029614Y020204D01*
X029483Y020204D01*
X029362Y020154D01*
X029269Y020061D01*
X029219Y019940D01*
X029219Y019808D01*
X029269Y019687D01*
X029278Y019678D01*
X029241Y019641D01*
X029241Y019123D01*
X029329Y019035D01*
X029887Y019035D01*
X029921Y019070D01*
X029986Y019005D01*
X030259Y019005D01*
X030259Y019363D01*
X030296Y019363D01*
X030296Y019005D01*
X030498Y019005D01*
X030596Y018907D01*
X030869Y018907D01*
X030869Y019265D01*
X030906Y019265D01*
X030906Y018907D01*
X031178Y018907D01*
X031243Y018971D01*
X031278Y018937D01*
X031731Y018937D01*
X031619Y018824D01*
X030825Y018824D01*
X030635Y018824D01*
X030500Y018690D01*
X030500Y018566D01*
X030371Y018372D01*
X030371Y018463D01*
X030321Y018585D01*
X030228Y018677D01*
X030107Y018728D01*
X029975Y018728D01*
X029875Y018686D01*
X029864Y018686D01*
X029432Y018686D01*
X029342Y018776D01*
X029221Y018826D01*
X029089Y018826D01*
X028968Y018776D01*
X028875Y018683D01*
X028825Y018562D01*
X028825Y018430D01*
X028875Y018309D01*
X028935Y018250D01*
X028875Y018191D01*
X028825Y018070D01*
X028825Y017938D01*
X028875Y017817D01*
X028968Y017724D01*
X029089Y017674D01*
X029221Y017674D01*
X029342Y017724D01*
X029432Y017814D01*
X029722Y017814D01*
X029761Y017719D01*
X029854Y017626D01*
X029917Y017600D01*
X028062Y017600D01*
X028062Y018340D01*
X028192Y018340D01*
X028192Y018718D01*
X028229Y018718D01*
X028229Y018755D01*
X028587Y018755D01*
X028587Y019027D01*
X028522Y019092D01*
X028557Y019127D01*
X028557Y019684D01*
X028469Y019772D01*
X028062Y019772D01*
X028062Y021689D01*
X027722Y022029D01*
X027078Y022673D01*
X027078Y024492D01*
X027112Y024458D01*
X027365Y024458D01*
X027365Y024836D01*
X027402Y024836D01*
X027402Y024873D01*
X027760Y024873D01*
X027760Y025145D01*
X027695Y025210D01*
X027730Y025245D01*
X027730Y025802D01*
X027642Y025890D01*
X027573Y025890D01*
X027573Y025898D01*
X027573Y025909D01*
X027615Y026009D01*
X027615Y026140D01*
X027565Y026262D01*
X027472Y026355D01*
X027351Y026405D01*
X027219Y026405D01*
X027098Y026355D01*
X027078Y026334D01*
X027078Y029268D01*
X026738Y029608D01*
X025163Y031182D01*
X024683Y031182D01*
X022813Y031182D01*
X022473Y030843D01*
X022473Y030362D01*
X022813Y030022D01*
X024683Y030022D01*
X025918Y028787D01*
X025918Y022357D01*
X025896Y022378D01*
X025896Y024346D01*
X025896Y024445D01*
X025557Y024785D01*
X025065Y025277D01*
X024888Y025277D01*
X024935Y025324D01*
X024935Y025842D01*
X024847Y025929D01*
X024826Y025929D01*
X024859Y026009D01*
X024859Y026140D01*
X024809Y026262D01*
X024716Y026355D01*
X024595Y026405D01*
X024463Y026405D01*
X024342Y026355D01*
X024249Y026262D01*
X024199Y026140D01*
X024199Y026009D01*
X024241Y025909D01*
X024190Y025959D01*
X023918Y025959D01*
X023918Y025601D01*
X023881Y025601D01*
X023881Y025959D01*
X023657Y025959D01*
X023678Y026009D01*
X023678Y026140D01*
X023628Y026262D01*
X023535Y026355D01*
X023414Y026405D01*
X023282Y026405D01*
X023161Y026355D01*
X023068Y026262D01*
X023018Y026140D01*
X023018Y026009D01*
X023051Y025929D01*
X023010Y025929D01*
X022976Y025895D01*
X022911Y025959D01*
X022638Y025959D01*
X022638Y025601D01*
X022601Y025601D01*
X022601Y025564D01*
X022223Y025564D01*
X022223Y025311D01*
X022329Y025206D01*
X022601Y025206D01*
X022601Y025564D01*
X022638Y025564D01*
X022638Y025206D01*
X022911Y025206D01*
X022976Y025271D01*
X023010Y025236D01*
X023568Y025236D01*
X023573Y025241D01*
X023608Y025206D01*
X023881Y025206D01*
X023881Y025564D01*
X023918Y025564D01*
X023918Y025206D01*
X023923Y025206D01*
X023654Y024937D01*
X023654Y024457D01*
X023994Y024117D01*
X024584Y024117D01*
X024737Y023964D01*
X024737Y023746D01*
X024587Y023746D01*
X024587Y023388D01*
X024550Y023388D01*
X024550Y023746D01*
X024277Y023746D01*
X024213Y023681D01*
X024178Y023716D01*
X023621Y023716D01*
X023533Y023628D01*
X023533Y023110D01*
X023621Y023022D01*
X023642Y023022D01*
X023609Y022942D01*
X023609Y022811D01*
X023659Y022690D01*
X023752Y022597D01*
X023873Y022547D01*
X024004Y022547D01*
X024125Y022597D01*
X024218Y022690D01*
X024269Y022811D01*
X024269Y022942D01*
X024227Y023042D01*
X024277Y022992D01*
X024550Y022992D01*
X024550Y023350D01*
X024587Y023350D01*
X024587Y022992D01*
X024737Y022992D01*
X024737Y021898D01*
X025076Y021558D01*
X025819Y020815D01*
X025819Y020186D01*
X025776Y020204D01*
X025645Y020204D01*
X025523Y020154D01*
X025430Y020061D01*
X025380Y019940D01*
X025380Y019808D01*
X025430Y019689D01*
X025357Y019689D01*
X025322Y019655D01*
X025257Y019719D01*
X024985Y019719D01*
X024985Y019361D01*
X024948Y019361D01*
X024948Y019719D01*
X024675Y019719D01*
X024570Y019614D01*
X024570Y019361D01*
X024947Y019361D01*
X024947Y019324D01*
X024570Y019324D01*
X024570Y019071D01*
X024675Y018966D01*
X024948Y018966D01*
X024948Y019324D01*
X024985Y019324D01*
X024985Y018966D01*
X025257Y018966D01*
X025322Y019030D01*
X025357Y018996D01*
X025819Y018996D01*
X025819Y018291D01*
X025810Y018301D01*
X025681Y018354D01*
X025542Y018354D01*
X025414Y018301D01*
X025315Y018202D01*
X025262Y018074D01*
X025262Y017934D01*
X025315Y017806D01*
X025382Y017739D01*
X025382Y017600D01*
X025372Y017600D01*
X024274Y017600D01*
X023993Y017881D01*
X023993Y017975D01*
X023940Y018104D01*
X023842Y018202D01*
X023713Y018255D01*
X023574Y018255D01*
X023445Y018202D01*
X023347Y018104D01*
X023293Y017975D01*
X023293Y017836D01*
X023347Y017707D01*
X023445Y017609D01*
X023561Y017561D01*
X023462Y017461D01*
X023291Y017475D01*
X023203Y017563D01*
X023074Y017616D01*
X022935Y017616D01*
X022806Y017563D01*
X022708Y017465D01*
X022663Y017357D01*
X022481Y017357D01*
X022481Y016979D01*
X022797Y016979D01*
X022806Y016970D01*
X022935Y016917D01*
X023074Y016917D01*
X023203Y016970D01*
X023249Y017017D01*
X023260Y017016D01*
X023260Y016758D01*
X023219Y016758D01*
X023153Y016824D01*
X023024Y016878D01*
X022885Y016878D01*
X022839Y016859D01*
X022839Y016942D01*
X022481Y016942D01*
X022481Y016979D01*
X022444Y016979D01*
X022444Y017357D01*
X022268Y017357D01*
X022268Y017548D01*
X021910Y017548D01*
X021910Y017585D01*
X022268Y017585D01*
X022268Y017858D01*
X022218Y017908D01*
X022218Y018440D01*
X022184Y018475D01*
X022248Y018540D01*
X022248Y018812D01*
X021890Y018812D01*
X021890Y018849D01*
X022248Y018849D01*
X022248Y019035D01*
X022603Y019035D01*
X022638Y019070D01*
X022703Y019005D01*
X022975Y019005D01*
X022975Y019363D01*
X023012Y019363D01*
X023012Y019005D01*
X023285Y019005D01*
X023390Y019110D01*
X023390Y019363D01*
X023012Y019363D01*
X023012Y019400D01*
X023390Y019400D01*
X023390Y019653D01*
X023285Y019759D01*
X023012Y019759D01*
X023012Y019401D01*
X022975Y019401D01*
X022975Y019759D01*
X022703Y019759D01*
X022652Y019708D01*
X022694Y019808D01*
X022694Y019940D01*
X022644Y020061D01*
X022551Y020154D01*
X022429Y020204D01*
X022298Y020204D01*
X022177Y020154D01*
X022084Y020061D01*
X022034Y019940D01*
X022034Y019808D01*
X022067Y019729D01*
X022046Y019729D01*
X021958Y019641D01*
X021958Y019227D01*
X021890Y019227D01*
X021890Y018849D01*
X021853Y018849D01*
X021853Y018812D01*
X021495Y018812D01*
X021495Y018540D01*
X021560Y018475D01*
X021525Y018440D01*
X021525Y018319D01*
X021441Y018235D01*
X021314Y018235D01*
X021193Y018185D01*
X021100Y018092D01*
X021050Y017971D01*
X021050Y017840D01*
X021100Y017719D01*
X021193Y017626D01*
X021314Y017576D01*
X021445Y017576D01*
X021514Y017604D01*
X021514Y017585D01*
X021873Y017585D01*
X021873Y017548D01*
X021514Y017548D01*
X021514Y017276D01*
X021579Y017211D01*
X021544Y017176D01*
X021544Y017112D01*
X021445Y017153D01*
X021314Y017153D01*
X021193Y017103D01*
X021100Y017010D01*
X021050Y016888D01*
X021050Y016757D01*
X021100Y016636D01*
X021193Y016543D01*
X021314Y016493D01*
X021445Y016493D01*
X021566Y016543D01*
X021593Y016570D01*
X021632Y016531D01*
X022115Y016531D01*
X022115Y016521D01*
X021891Y016521D01*
X021780Y016409D01*
X021638Y016267D01*
X021609Y016267D01*
X021488Y016217D01*
X021395Y016124D01*
X021345Y016003D01*
X021345Y015871D01*
X021395Y015750D01*
X021488Y015657D01*
X021609Y015607D01*
X021740Y015607D01*
X021862Y015657D01*
X021904Y015700D01*
X022247Y015700D01*
X022247Y015663D01*
X021889Y015663D01*
X021889Y015390D01*
X021953Y015325D01*
X021919Y015290D01*
X021919Y015143D01*
X021793Y015143D01*
X021682Y015031D01*
X021583Y014933D01*
X021583Y014776D01*
X021583Y014638D01*
X021512Y014566D01*
X021445Y014594D01*
X021314Y014594D01*
X021193Y014544D01*
X021100Y014451D01*
X021050Y014329D01*
X021050Y014198D01*
X021100Y014077D01*
X021193Y013984D01*
X021314Y013934D01*
X021445Y013934D01*
X021566Y013984D01*
X021659Y014077D01*
X021709Y014198D01*
X021709Y014227D01*
X021852Y014369D01*
X021869Y014386D01*
X021869Y014126D01*
X021934Y014061D01*
X021899Y014027D01*
X021899Y013863D01*
X021793Y013863D01*
X021682Y013752D01*
X021626Y013696D01*
X021566Y013756D01*
X021445Y013806D01*
X021314Y013806D01*
X021193Y013756D01*
X021100Y013663D01*
X021050Y013542D01*
X021050Y013411D01*
X021100Y013289D01*
X021193Y013197D01*
X021314Y013146D01*
X021445Y013146D01*
X021566Y013197D01*
X021656Y013286D01*
X021753Y013286D01*
X021918Y013451D01*
X021922Y013446D01*
X021889Y013413D01*
X021889Y013140D01*
X022247Y013140D01*
X022247Y013104D01*
X021889Y013104D01*
X021889Y012831D01*
X021953Y012766D01*
X021919Y012731D01*
X021919Y012584D01*
X021793Y012584D01*
X021725Y012515D01*
X021665Y012575D01*
X021544Y012625D01*
X021412Y012625D01*
X021291Y012575D01*
X021198Y012482D01*
X021148Y012361D01*
X021148Y012230D01*
X021198Y012108D01*
X021291Y012016D01*
X021412Y011965D01*
X021443Y011965D01*
X021443Y011836D01*
X021493Y011715D01*
X021586Y011622D01*
X021708Y011572D01*
X021839Y011572D01*
X021960Y011622D01*
X021978Y011639D01*
X021978Y011548D01*
X022012Y011513D01*
X021948Y011449D01*
X021948Y011176D01*
X022306Y011176D01*
X022306Y011139D01*
X022343Y011139D01*
X022343Y010761D01*
X022596Y010761D01*
X022688Y010853D01*
X022786Y010813D01*
X022926Y010813D01*
X023054Y010866D01*
X023135Y010946D01*
X023260Y010953D01*
X023260Y010665D01*
X023260Y010370D01*
X023260Y009890D01*
X023267Y009882D01*
X023187Y009802D01*
X023153Y009836D01*
X023024Y009889D01*
X022885Y009889D01*
X022756Y009836D01*
X022658Y009738D01*
X022604Y009609D01*
X022604Y009470D01*
X022658Y009341D01*
X022604Y009532D02*
X022445Y009532D01*
X022445Y009691D02*
X022638Y009691D01*
X022789Y009849D02*
X022387Y009849D01*
X022415Y010008D02*
X023260Y010008D01*
X023260Y010167D02*
X022415Y010167D01*
X022415Y010325D02*
X023260Y010325D01*
X023260Y010484D02*
X022380Y010484D01*
X022306Y010761D02*
X022306Y011139D01*
X021948Y011139D01*
X021948Y010866D01*
X022053Y010761D01*
X022306Y010761D01*
X022306Y010801D02*
X022343Y010801D01*
X022343Y010959D02*
X022306Y010959D01*
X022306Y011118D02*
X022343Y011118D01*
X021948Y011118D02*
X016790Y011118D01*
X016779Y011107D02*
X016914Y011242D01*
X016987Y011418D01*
X016987Y011494D01*
X016527Y011494D01*
X016527Y011534D01*
X016487Y011534D01*
X016487Y011994D01*
X016412Y011994D01*
X016235Y011921D01*
X016100Y011786D01*
X016027Y011609D01*
X016027Y011534D01*
X016487Y011534D01*
X016487Y011494D01*
X016027Y011494D01*
X016027Y011418D01*
X016100Y011242D01*
X016235Y011107D01*
X016412Y011034D01*
X016487Y011034D01*
X016487Y011494D01*
X016527Y011494D01*
X016527Y011034D01*
X016603Y011034D01*
X016779Y011107D01*
X016686Y010959D02*
X021948Y010959D01*
X022013Y010801D02*
X016899Y010801D01*
X016914Y010786D02*
X016779Y010921D01*
X016603Y010994D01*
X016527Y010994D01*
X016527Y010534D01*
X016487Y010534D01*
X016487Y010994D01*
X016412Y010994D01*
X016235Y010921D01*
X016100Y010786D01*
X016027Y010609D01*
X016027Y010534D01*
X016487Y010534D01*
X016487Y010494D01*
X016027Y010494D01*
X016027Y010418D01*
X016100Y010242D01*
X016235Y010107D01*
X016412Y010034D01*
X016487Y010034D01*
X016487Y010494D01*
X016527Y010494D01*
X016527Y010534D01*
X016987Y010534D01*
X016987Y010609D01*
X016914Y010786D01*
X016973Y010642D02*
X023260Y010642D01*
X023260Y010801D02*
X022636Y010801D01*
X022856Y011163D02*
X023840Y011213D01*
X023840Y011902D02*
X022856Y011902D01*
X022983Y012228D02*
X023260Y012228D01*
X023260Y012132D02*
X023121Y012132D01*
X023054Y012198D01*
X022926Y012252D01*
X022786Y012252D01*
X022658Y012198D01*
X022618Y012159D01*
X022607Y012169D01*
X022612Y012174D01*
X022612Y012731D01*
X022577Y012766D01*
X022642Y012831D01*
X022642Y013104D01*
X022284Y013104D01*
X022284Y013140D01*
X022642Y013140D01*
X022642Y013195D01*
X022658Y013180D01*
X022786Y013126D01*
X022926Y013126D01*
X023054Y013180D01*
X023121Y013246D01*
X023260Y013246D01*
X023260Y013236D01*
X023260Y012132D01*
X023260Y012386D02*
X022612Y012386D01*
X022612Y012228D02*
X022729Y012228D01*
X022612Y012545D02*
X023260Y012545D01*
X023260Y012703D02*
X022612Y012703D01*
X022642Y012862D02*
X023260Y012862D01*
X023260Y013020D02*
X022642Y013020D01*
X022642Y013179D02*
X022659Y013179D01*
X022856Y013476D02*
X023840Y013476D01*
X023260Y013706D02*
X023121Y013706D01*
X023054Y013773D01*
X022926Y013826D01*
X022786Y013826D01*
X022658Y013773D01*
X022592Y013708D01*
X022592Y014027D01*
X022558Y014061D01*
X022622Y014126D01*
X022622Y014399D01*
X022264Y014399D01*
X022264Y014436D01*
X022622Y014436D01*
X022622Y014708D01*
X022605Y014726D01*
X022612Y014733D01*
X022612Y015290D01*
X022577Y015325D01*
X022642Y015390D01*
X022642Y015663D01*
X022284Y015663D01*
X022284Y015700D01*
X022642Y015700D01*
X022642Y015776D01*
X022658Y015739D01*
X022756Y015640D01*
X022885Y015587D01*
X023024Y015587D01*
X023153Y015640D01*
X023251Y015739D01*
X023254Y015747D01*
X023260Y015747D01*
X023260Y015697D01*
X023260Y013706D01*
X023260Y013813D02*
X022958Y013813D01*
X022754Y013813D02*
X022592Y013813D01*
X022592Y013972D02*
X023260Y013972D01*
X023260Y014130D02*
X022622Y014130D01*
X022622Y014289D02*
X023260Y014289D01*
X023260Y014447D02*
X022622Y014447D01*
X022622Y014606D02*
X023260Y014606D01*
X023260Y014764D02*
X022612Y014764D01*
X022612Y014923D02*
X023260Y014923D01*
X023260Y015081D02*
X022612Y015081D01*
X022612Y015240D02*
X023260Y015240D01*
X023260Y015399D02*
X022642Y015399D01*
X022642Y015557D02*
X023260Y015557D01*
X023260Y015716D02*
X023228Y015716D01*
X022681Y015716D02*
X022642Y015716D01*
X021889Y015557D02*
X016957Y015557D01*
X016957Y015603D02*
X016889Y015769D01*
X016762Y015895D01*
X016597Y015964D01*
X016418Y015964D01*
X016252Y015895D01*
X016126Y015769D01*
X016057Y015603D01*
X016057Y015424D01*
X016126Y015259D01*
X016252Y015132D01*
X016418Y015064D01*
X016597Y015064D01*
X016762Y015132D01*
X016889Y015259D01*
X016957Y015424D01*
X016957Y015603D01*
X016911Y015716D02*
X021430Y015716D01*
X021345Y015874D02*
X016783Y015874D01*
X016762Y016132D02*
X016597Y016064D01*
X016418Y016064D01*
X016252Y016132D01*
X016126Y016259D01*
X016057Y016424D01*
X016057Y016603D01*
X016126Y016769D01*
X016252Y016895D01*
X016418Y016964D01*
X016597Y016964D01*
X016762Y016895D01*
X016889Y016769D01*
X016957Y016603D01*
X016957Y016424D01*
X016889Y016259D01*
X016762Y016132D01*
X016821Y016191D02*
X021462Y016191D01*
X021357Y016033D02*
X001467Y016033D01*
X001467Y016191D02*
X002193Y016191D01*
X002252Y016132D02*
X002418Y016064D01*
X002597Y016064D01*
X002762Y016132D01*
X002889Y016259D01*
X002957Y016424D01*
X002957Y016603D01*
X002889Y016769D01*
X002762Y016895D01*
X002597Y016964D01*
X002418Y016964D01*
X002252Y016895D01*
X002126Y016769D01*
X002057Y016603D01*
X002057Y016424D01*
X002126Y016259D01*
X002252Y016132D01*
X002418Y015964D02*
X002252Y015895D01*
X002126Y015769D01*
X002057Y015603D01*
X002057Y015424D01*
X002126Y015259D01*
X002252Y015132D01*
X002418Y015064D01*
X002597Y015064D01*
X002762Y015132D01*
X002889Y015259D01*
X002957Y015424D01*
X002957Y015603D01*
X002889Y015769D01*
X002762Y015895D01*
X002597Y015964D01*
X002418Y015964D01*
X002231Y015874D02*
X001467Y015874D01*
X001467Y015716D02*
X002104Y015716D01*
X002057Y015557D02*
X001467Y015557D01*
X001467Y015399D02*
X002068Y015399D01*
X002144Y015240D02*
X001467Y015240D01*
X001467Y015081D02*
X002375Y015081D01*
X002639Y015081D02*
X003375Y015081D01*
X003418Y015064D02*
X003597Y015064D01*
X003762Y015132D01*
X003889Y015259D01*
X003957Y015424D01*
X003957Y015603D01*
X003889Y015769D01*
X003762Y015895D01*
X003597Y015964D01*
X003418Y015964D01*
X003252Y015895D01*
X003126Y015769D01*
X003057Y015603D01*
X003057Y015424D01*
X003126Y015259D01*
X003252Y015132D01*
X003418Y015064D01*
X003639Y015081D02*
X015375Y015081D01*
X015418Y015064D02*
X015597Y015064D01*
X015762Y015132D01*
X015889Y015259D01*
X015957Y015424D01*
X015957Y015603D01*
X015889Y015769D01*
X015762Y015895D01*
X015597Y015964D01*
X015418Y015964D01*
X015252Y015895D01*
X015126Y015769D01*
X015057Y015603D01*
X015057Y015424D01*
X015126Y015259D01*
X015252Y015132D01*
X015418Y015064D01*
X015418Y014964D02*
X015252Y014895D01*
X015126Y014769D01*
X015057Y014603D01*
X015057Y014424D01*
X015126Y014259D01*
X015252Y014132D01*
X015418Y014064D01*
X015597Y014064D01*
X015762Y014132D01*
X015889Y014259D01*
X015957Y014424D01*
X015957Y014603D01*
X015889Y014769D01*
X015762Y014895D01*
X015597Y014964D01*
X015418Y014964D01*
X015319Y014923D02*
X001467Y014923D01*
X001467Y014764D02*
X015124Y014764D01*
X015058Y014606D02*
X001467Y014606D01*
X001467Y014447D02*
X015057Y014447D01*
X015113Y014289D02*
X001467Y014289D01*
X001467Y014130D02*
X015257Y014130D01*
X015418Y013964D02*
X015252Y013895D01*
X015126Y013769D01*
X015057Y013603D01*
X015057Y013424D01*
X015126Y013259D01*
X015252Y013132D01*
X015418Y013064D01*
X015597Y013064D01*
X015762Y013132D01*
X015889Y013259D01*
X015957Y013424D01*
X015957Y013603D01*
X015889Y013769D01*
X015762Y013895D01*
X015597Y013964D01*
X015418Y013964D01*
X015170Y013813D02*
X001467Y013813D01*
X001467Y013655D02*
X015078Y013655D01*
X015057Y013496D02*
X001467Y013496D01*
X001467Y013337D02*
X015093Y013337D01*
X015206Y013179D02*
X001467Y013179D01*
X001467Y013020D02*
X021889Y013020D01*
X021889Y012862D02*
X016795Y012862D01*
X016762Y012895D02*
X016597Y012964D01*
X016418Y012964D01*
X016252Y012895D01*
X016126Y012769D01*
X016057Y012603D01*
X016057Y012424D01*
X016126Y012259D01*
X016252Y012132D01*
X016418Y012064D01*
X016597Y012064D01*
X016762Y012132D01*
X016889Y012259D01*
X016957Y012424D01*
X016957Y012603D01*
X016889Y012769D01*
X016762Y012895D01*
X016597Y013064D02*
X016418Y013064D01*
X016252Y013132D01*
X016126Y013259D01*
X016057Y013424D01*
X016057Y013603D01*
X016126Y013769D01*
X016252Y013895D01*
X016418Y013964D01*
X016597Y013964D01*
X016762Y013895D01*
X016889Y013769D01*
X016957Y013603D01*
X016957Y013424D01*
X016889Y013259D01*
X016762Y013132D01*
X016597Y013064D01*
X016809Y013179D02*
X021235Y013179D01*
X021080Y013337D02*
X016921Y013337D01*
X016957Y013496D02*
X021050Y013496D01*
X021096Y013655D02*
X016936Y013655D01*
X016844Y013813D02*
X021743Y013813D01*
X021899Y013972D02*
X021536Y013972D01*
X021681Y014130D02*
X021869Y014130D01*
X021869Y014289D02*
X021772Y014289D01*
X021882Y014399D02*
X021919Y014436D01*
X022227Y014436D01*
X022227Y014399D01*
X021882Y014399D01*
X021551Y014606D02*
X016956Y014606D01*
X016957Y014603D02*
X016889Y014769D01*
X016762Y014895D01*
X016597Y014964D01*
X016418Y014964D01*
X016252Y014895D01*
X016126Y014769D01*
X016057Y014603D01*
X016057Y014424D01*
X016126Y014259D01*
X016252Y014132D01*
X016418Y014064D01*
X016597Y014064D01*
X016762Y014132D01*
X016889Y014259D01*
X016957Y014424D01*
X016957Y014603D01*
X016957Y014447D02*
X021098Y014447D01*
X021050Y014289D02*
X016901Y014289D01*
X016757Y014130D02*
X021078Y014130D01*
X021223Y013972D02*
X001467Y013972D01*
X001467Y012862D02*
X015176Y012862D01*
X015235Y012921D02*
X015100Y012786D01*
X015027Y012609D01*
X015027Y012534D01*
X015487Y012534D01*
X015487Y012994D01*
X015412Y012994D01*
X015235Y012921D01*
X015487Y012862D02*
X015527Y012862D01*
X015527Y012994D02*
X015527Y012534D01*
X015487Y012534D01*
X015487Y012494D01*
X015027Y012494D01*
X015027Y012418D01*
X015100Y012242D01*
X015235Y012107D01*
X015412Y012034D01*
X015487Y012034D01*
X015487Y012494D01*
X015527Y012494D01*
X015527Y012534D01*
X015987Y012534D01*
X015987Y012609D01*
X015914Y012786D01*
X015779Y012921D01*
X015603Y012994D01*
X015527Y012994D01*
X015527Y012703D02*
X015487Y012703D01*
X015487Y012545D02*
X015527Y012545D01*
X015527Y012494D02*
X015987Y012494D01*
X015987Y012418D01*
X015914Y012242D01*
X015779Y012107D01*
X015603Y012034D01*
X015527Y012034D01*
X015527Y012494D01*
X015527Y012386D02*
X015487Y012386D01*
X015487Y012228D02*
X015527Y012228D01*
X015527Y012069D02*
X015487Y012069D01*
X015418Y011964D02*
X015252Y011895D01*
X015126Y011769D01*
X015057Y011603D01*
X015057Y011424D01*
X015126Y011259D01*
X015252Y011132D01*
X015418Y011064D01*
X015597Y011064D01*
X015762Y011132D01*
X015889Y011259D01*
X015957Y011424D01*
X015957Y011603D01*
X015889Y011769D01*
X015762Y011895D01*
X015597Y011964D01*
X015418Y011964D01*
X015326Y012069D02*
X001467Y012069D01*
X001467Y011911D02*
X002289Y011911D01*
X002252Y011895D02*
X002126Y011769D01*
X002057Y011603D01*
X002057Y011424D01*
X002126Y011259D01*
X002252Y011132D01*
X002418Y011064D01*
X002597Y011064D01*
X002762Y011132D01*
X002889Y011259D01*
X002957Y011424D01*
X002957Y011603D01*
X002889Y011769D01*
X002762Y011895D01*
X002597Y011964D01*
X002418Y011964D01*
X002252Y011895D01*
X002119Y011752D02*
X001467Y011752D01*
X001467Y011593D02*
X002057Y011593D01*
X002057Y011435D02*
X001467Y011435D01*
X001467Y011276D02*
X002118Y011276D01*
X002287Y011118D02*
X001467Y011118D01*
X001467Y010959D02*
X002407Y010959D01*
X002418Y010964D02*
X002252Y010895D01*
X002126Y010769D01*
X002057Y010603D01*
X002057Y010424D01*
X002126Y010259D01*
X002252Y010132D01*
X002418Y010064D01*
X002597Y010064D01*
X002762Y010132D01*
X002889Y010259D01*
X002957Y010424D01*
X002957Y010603D01*
X002889Y010769D01*
X002762Y010895D01*
X002597Y010964D01*
X002418Y010964D01*
X002607Y010959D02*
X003328Y010959D01*
X003412Y010994D02*
X003235Y010921D01*
X003100Y010786D01*
X003027Y010609D01*
X003027Y010534D01*
X003487Y010534D01*
X003487Y010994D01*
X003412Y010994D01*
X003412Y011034D02*
X003487Y011034D01*
X003487Y011494D01*
X003027Y011494D01*
X003027Y011418D01*
X003100Y011242D01*
X003235Y011107D01*
X003412Y011034D01*
X003487Y010959D02*
X003527Y010959D01*
X003527Y010994D02*
X003527Y010534D01*
X003487Y010534D01*
X003487Y010494D01*
X003027Y010494D01*
X003027Y010418D01*
X003100Y010242D01*
X003235Y010107D01*
X003412Y010034D01*
X003487Y010034D01*
X003487Y010494D01*
X003527Y010494D01*
X003527Y010534D01*
X003987Y010534D01*
X003987Y010609D01*
X003914Y010786D01*
X003779Y010921D01*
X003603Y010994D01*
X003527Y010994D01*
X003527Y011034D02*
X003603Y011034D01*
X003779Y011107D01*
X003914Y011242D01*
X003987Y011418D01*
X003987Y011494D01*
X003527Y011494D01*
X003527Y011534D01*
X003487Y011534D01*
X003487Y011994D01*
X003412Y011994D01*
X003235Y011921D01*
X003100Y011786D01*
X003027Y011609D01*
X003027Y011534D01*
X003487Y011534D01*
X003487Y011494D01*
X003527Y011494D01*
X003527Y011034D01*
X003527Y011118D02*
X003487Y011118D01*
X003487Y011276D02*
X003527Y011276D01*
X003527Y011435D02*
X003487Y011435D01*
X003527Y011534D02*
X003987Y011534D01*
X003987Y011609D01*
X003914Y011786D01*
X003779Y011921D01*
X003603Y011994D01*
X003527Y011994D01*
X003527Y011534D01*
X003527Y011593D02*
X003487Y011593D01*
X003487Y011752D02*
X003527Y011752D01*
X003527Y011911D02*
X003487Y011911D01*
X003225Y011911D02*
X002725Y011911D01*
X002895Y011752D02*
X003086Y011752D01*
X003027Y011593D02*
X002957Y011593D01*
X002957Y011435D02*
X003027Y011435D01*
X003086Y011276D02*
X002896Y011276D01*
X002727Y011118D02*
X003224Y011118D01*
X003115Y010801D02*
X002856Y010801D01*
X002941Y010642D02*
X003041Y010642D01*
X003027Y010484D02*
X002957Y010484D01*
X002916Y010325D02*
X003066Y010325D01*
X003175Y010167D02*
X002796Y010167D01*
X002762Y009895D02*
X002597Y009964D01*
X002418Y009964D01*
X002252Y009895D01*
X002126Y009769D01*
X002057Y009603D01*
X002057Y009424D01*
X002126Y009259D01*
X002252Y009132D01*
X002418Y009064D01*
X002597Y009064D01*
X002762Y009132D01*
X002889Y009259D01*
X002957Y009424D01*
X002957Y009603D01*
X002889Y009769D01*
X002762Y009895D01*
X002808Y009849D02*
X003164Y009849D01*
X003100Y009786D02*
X003027Y009609D01*
X003027Y009534D01*
X003487Y009534D01*
X003487Y009994D01*
X003412Y009994D01*
X003235Y009921D01*
X003100Y009786D01*
X003061Y009691D02*
X002921Y009691D01*
X002957Y009532D02*
X003487Y009532D01*
X003487Y009534D02*
X003487Y009494D01*
X003027Y009494D01*
X003027Y009418D01*
X003100Y009242D01*
X003235Y009107D01*
X003412Y009034D01*
X003487Y009034D01*
X003487Y009494D01*
X003527Y009494D01*
X003527Y009534D01*
X003487Y009534D01*
X003527Y009534D02*
X003527Y009994D01*
X003603Y009994D01*
X003779Y009921D01*
X003914Y009786D01*
X003987Y009609D01*
X003987Y009534D01*
X003527Y009534D01*
X003527Y009532D02*
X015057Y009532D01*
X015078Y009374D02*
X003969Y009374D01*
X003987Y009418D02*
X003987Y009494D01*
X003527Y009494D01*
X003527Y009034D01*
X003603Y009034D01*
X003779Y009107D01*
X003914Y009242D01*
X003987Y009418D01*
X003887Y009215D02*
X015169Y009215D01*
X015259Y008898D02*
X003801Y008898D01*
X003779Y008921D02*
X003914Y008786D01*
X003987Y008609D01*
X003987Y008534D01*
X003527Y008534D01*
X003487Y008534D01*
X003487Y008994D01*
X003412Y008994D01*
X003235Y008921D01*
X003100Y008786D01*
X003027Y008609D01*
X003027Y008534D01*
X003487Y008534D01*
X003487Y008494D01*
X003027Y008494D01*
X003027Y008418D01*
X003100Y008242D01*
X003235Y008107D01*
X003412Y008034D01*
X003487Y008034D01*
X003487Y008494D01*
X003527Y008494D01*
X003527Y008534D01*
X003527Y008994D01*
X003603Y008994D01*
X003779Y008921D01*
X003658Y009057D02*
X016356Y009057D01*
X016487Y009057D02*
X016527Y009057D01*
X016658Y009057D02*
X026549Y009057D01*
X026541Y009215D02*
X023087Y009215D01*
X022822Y009215D02*
X022445Y009215D01*
X022329Y008834D02*
X022223Y008728D01*
X022223Y008475D01*
X022601Y008475D01*
X022601Y008438D01*
X022638Y008438D01*
X022638Y008080D01*
X022911Y008080D01*
X022961Y008130D01*
X022920Y008030D01*
X022920Y007899D01*
X022970Y007778D01*
X023063Y007685D01*
X023184Y007635D01*
X023315Y007635D01*
X023436Y007685D01*
X023529Y007778D01*
X023580Y007899D01*
X023580Y008030D01*
X023547Y008110D01*
X023568Y008110D01*
X023655Y008198D01*
X023655Y008716D01*
X023568Y008804D01*
X023010Y008804D01*
X022976Y008769D01*
X022911Y008834D01*
X022638Y008834D01*
X022638Y008475D01*
X022601Y008475D01*
X022601Y008834D01*
X022329Y008834D01*
X022235Y008740D02*
X016901Y008740D01*
X016957Y008581D02*
X022223Y008581D01*
X022223Y008438D02*
X022223Y008185D01*
X022329Y008080D01*
X022601Y008080D01*
X022601Y008438D01*
X022223Y008438D01*
X022223Y008423D02*
X016956Y008423D01*
X016891Y008264D02*
X022223Y008264D01*
X022303Y008106D02*
X016697Y008106D01*
X016603Y007994D02*
X016779Y007921D01*
X016914Y007786D01*
X016987Y007609D01*
X016987Y007534D01*
X016527Y007534D01*
X016487Y007534D01*
X016487Y007494D01*
X016527Y007494D01*
X016527Y007534D01*
X016527Y007994D01*
X016603Y007994D01*
X016527Y007947D02*
X016487Y007947D01*
X016487Y007788D02*
X016527Y007788D01*
X016527Y007630D02*
X016487Y007630D01*
X016527Y007494D02*
X016987Y007494D01*
X016987Y007418D01*
X016914Y007242D01*
X016779Y007107D01*
X016603Y007034D01*
X016527Y007034D01*
X016527Y007494D01*
X016527Y007471D02*
X016487Y007471D01*
X016487Y007313D02*
X016527Y007313D01*
X016527Y007154D02*
X016487Y007154D01*
X016826Y007154D02*
X038207Y007154D01*
X038207Y006996D02*
X001467Y006996D01*
X001467Y007154D02*
X002230Y007154D01*
X002252Y007132D02*
X002418Y007064D01*
X002597Y007064D01*
X002762Y007132D01*
X002889Y007259D01*
X002957Y007424D01*
X002957Y007603D01*
X002889Y007769D01*
X002762Y007895D01*
X002597Y007964D01*
X002418Y007964D01*
X002252Y007895D01*
X002126Y007769D01*
X002057Y007603D01*
X002057Y007424D01*
X002126Y007259D01*
X002252Y007132D01*
X002103Y007313D02*
X001467Y007313D01*
X001467Y007471D02*
X002057Y007471D01*
X002068Y007630D02*
X001467Y007630D01*
X001467Y007788D02*
X002145Y007788D01*
X002377Y007947D02*
X001467Y007947D01*
X001467Y008106D02*
X002317Y008106D01*
X002252Y008132D02*
X002418Y008064D01*
X002597Y008064D01*
X002762Y008132D01*
X002889Y008259D01*
X002957Y008424D01*
X002957Y008603D01*
X002889Y008769D01*
X002762Y008895D01*
X002597Y008964D01*
X002418Y008964D01*
X002252Y008895D01*
X002126Y008769D01*
X002057Y008603D01*
X002057Y008424D01*
X002126Y008259D01*
X002252Y008132D01*
X002123Y008264D02*
X001467Y008264D01*
X001467Y008423D02*
X002058Y008423D01*
X002057Y008581D02*
X001467Y008581D01*
X001467Y008740D02*
X002114Y008740D01*
X002259Y008898D02*
X001467Y008898D01*
X001467Y009057D02*
X003356Y009057D01*
X003487Y009057D02*
X003527Y009057D01*
X003527Y009215D02*
X003487Y009215D01*
X003487Y009374D02*
X003527Y009374D01*
X003527Y009691D02*
X003487Y009691D01*
X003487Y009849D02*
X003527Y009849D01*
X003527Y010034D02*
X003603Y010034D01*
X003779Y010107D01*
X003914Y010242D01*
X003987Y010418D01*
X003987Y010494D01*
X003527Y010494D01*
X003527Y010034D01*
X003527Y010167D02*
X003487Y010167D01*
X003487Y010325D02*
X003527Y010325D01*
X003527Y010484D02*
X003487Y010484D01*
X003487Y010642D02*
X003527Y010642D01*
X003527Y010801D02*
X003487Y010801D01*
X003686Y010959D02*
X015407Y010959D01*
X015418Y010964D02*
X015252Y010895D01*
X015126Y010769D01*
X015057Y010603D01*
X015057Y010424D01*
X015126Y010259D01*
X015252Y010132D01*
X015418Y010064D01*
X015597Y010064D01*
X015762Y010132D01*
X015889Y010259D01*
X015957Y010424D01*
X015957Y010603D01*
X015889Y010769D01*
X015762Y010895D01*
X015597Y010964D01*
X015418Y010964D01*
X015607Y010959D02*
X016328Y010959D01*
X016487Y010959D02*
X016527Y010959D01*
X016527Y010801D02*
X016487Y010801D01*
X016487Y010642D02*
X016527Y010642D01*
X016527Y010494D02*
X016987Y010494D01*
X016987Y010418D01*
X016914Y010242D01*
X016779Y010107D01*
X016603Y010034D01*
X016527Y010034D01*
X016527Y010494D01*
X016527Y010484D02*
X016487Y010484D01*
X016487Y010325D02*
X016527Y010325D01*
X016527Y010167D02*
X016487Y010167D01*
X016175Y010167D02*
X015796Y010167D01*
X015916Y010325D02*
X016066Y010325D01*
X016027Y010484D02*
X015957Y010484D01*
X015941Y010642D02*
X016041Y010642D01*
X016115Y010801D02*
X015856Y010801D01*
X015727Y011118D02*
X016224Y011118D01*
X016086Y011276D02*
X015896Y011276D01*
X015957Y011435D02*
X016027Y011435D01*
X016027Y011593D02*
X015957Y011593D01*
X015895Y011752D02*
X016086Y011752D01*
X016225Y011911D02*
X015725Y011911D01*
X015688Y012069D02*
X016405Y012069D01*
X016527Y011994D02*
X016527Y011534D01*
X016987Y011534D01*
X016987Y011609D01*
X016914Y011786D01*
X016779Y011921D01*
X016603Y011994D01*
X016527Y011994D01*
X016527Y011911D02*
X016487Y011911D01*
X016487Y011752D02*
X016527Y011752D01*
X016527Y011593D02*
X016487Y011593D01*
X016487Y011435D02*
X016527Y011435D01*
X016527Y011276D02*
X016487Y011276D01*
X016487Y011118D02*
X016527Y011118D01*
X016928Y011276D02*
X021948Y011276D01*
X021948Y011435D02*
X016987Y011435D01*
X016987Y011593D02*
X021655Y011593D01*
X021892Y011593D02*
X021978Y011593D01*
X021478Y011752D02*
X016928Y011752D01*
X016789Y011911D02*
X021443Y011911D01*
X021237Y012069D02*
X016609Y012069D01*
X016857Y012228D02*
X021149Y012228D01*
X021158Y012386D02*
X016941Y012386D01*
X016957Y012545D02*
X021261Y012545D01*
X021695Y012545D02*
X021754Y012545D01*
X021919Y012703D02*
X016916Y012703D01*
X016219Y012862D02*
X015838Y012862D01*
X015948Y012703D02*
X016099Y012703D01*
X016057Y012545D02*
X015987Y012545D01*
X015974Y012386D02*
X016073Y012386D01*
X016157Y012228D02*
X015900Y012228D01*
X015289Y011911D02*
X003789Y011911D01*
X003928Y011752D02*
X015119Y011752D01*
X015057Y011593D02*
X003987Y011593D01*
X003987Y011435D02*
X015057Y011435D01*
X015118Y011276D02*
X003928Y011276D01*
X003790Y011118D02*
X015287Y011118D01*
X015158Y010801D02*
X003899Y010801D01*
X003973Y010642D02*
X015073Y010642D01*
X015057Y010484D02*
X003987Y010484D01*
X003948Y010325D02*
X015098Y010325D01*
X015218Y010167D02*
X003839Y010167D01*
X003850Y009849D02*
X015206Y009849D01*
X015093Y009691D02*
X003953Y009691D01*
X003127Y009215D02*
X002845Y009215D01*
X002936Y009374D02*
X003045Y009374D01*
X003213Y008898D02*
X002755Y008898D01*
X002901Y008740D02*
X003081Y008740D01*
X003027Y008581D02*
X002957Y008581D01*
X002956Y008423D02*
X003027Y008423D01*
X003091Y008264D02*
X002891Y008264D01*
X002697Y008106D02*
X003238Y008106D01*
X003299Y007947D02*
X002637Y007947D01*
X002869Y007788D02*
X003103Y007788D01*
X003100Y007786D02*
X003027Y007609D01*
X003027Y007534D01*
X003487Y007534D01*
X003487Y007994D01*
X003412Y007994D01*
X003235Y007921D01*
X003100Y007786D01*
X003036Y007630D02*
X002946Y007630D01*
X003027Y007494D02*
X003027Y007418D01*
X003100Y007242D01*
X003235Y007107D01*
X003412Y007034D01*
X003487Y007034D01*
X003487Y007494D01*
X003027Y007494D01*
X003027Y007471D02*
X002957Y007471D01*
X002911Y007313D02*
X003071Y007313D01*
X003188Y007154D02*
X002784Y007154D01*
X002762Y006895D02*
X002597Y006964D01*
X002418Y006964D01*
X002252Y006895D01*
X002126Y006769D01*
X002057Y006603D01*
X002057Y006424D01*
X002126Y006259D01*
X002252Y006132D01*
X002418Y006064D01*
X002597Y006064D01*
X002762Y006132D01*
X002889Y006259D01*
X002957Y006424D01*
X002957Y006603D01*
X002889Y006769D01*
X002762Y006895D01*
X002820Y006837D02*
X003152Y006837D01*
X003056Y006679D02*
X002926Y006679D01*
X002957Y006520D02*
X003487Y006520D01*
X003527Y006520D02*
X015057Y006520D01*
X015083Y006362D02*
X003964Y006362D01*
X003987Y006534D02*
X003527Y006534D01*
X003527Y006994D01*
X003603Y006994D01*
X003779Y006921D01*
X003914Y006786D01*
X003987Y006609D01*
X003987Y006534D01*
X003958Y006679D02*
X015088Y006679D01*
X015194Y006837D02*
X003862Y006837D01*
X003779Y007107D02*
X003603Y007034D01*
X003527Y007034D01*
X003527Y007494D01*
X003527Y007534D01*
X003487Y007534D01*
X003487Y007494D01*
X003527Y007494D01*
X003987Y007494D01*
X003987Y007418D01*
X003914Y007242D01*
X003779Y007107D01*
X003826Y007154D02*
X015230Y007154D01*
X015103Y007313D02*
X003943Y007313D01*
X003987Y007471D02*
X015057Y007471D01*
X015068Y007630D02*
X003979Y007630D01*
X003987Y007609D02*
X003914Y007786D01*
X003779Y007921D01*
X003603Y007994D01*
X003527Y007994D01*
X003527Y007534D01*
X003987Y007534D01*
X003987Y007609D01*
X003911Y007788D02*
X015145Y007788D01*
X015377Y007947D02*
X003716Y007947D01*
X003603Y008034D02*
X003779Y008107D01*
X003914Y008242D01*
X003987Y008418D01*
X003987Y008494D01*
X003527Y008494D01*
X003527Y008034D01*
X003603Y008034D01*
X003527Y008106D02*
X003487Y008106D01*
X003487Y008264D02*
X003527Y008264D01*
X003527Y008423D02*
X003487Y008423D01*
X003487Y008581D02*
X003527Y008581D01*
X003527Y008740D02*
X003487Y008740D01*
X003487Y008898D02*
X003527Y008898D01*
X003933Y008740D02*
X015114Y008740D01*
X015057Y008581D02*
X003987Y008581D01*
X003987Y008423D02*
X015058Y008423D01*
X015123Y008264D02*
X003923Y008264D01*
X003776Y008106D02*
X015317Y008106D01*
X016487Y009215D02*
X016527Y009215D01*
X016527Y009374D02*
X016487Y009374D01*
X016487Y009691D02*
X016527Y009691D01*
X016527Y009849D02*
X016487Y009849D01*
X016164Y009849D02*
X015808Y009849D01*
X015921Y009691D02*
X016061Y009691D01*
X016850Y009849D02*
X021098Y009849D01*
X021050Y010008D02*
X001467Y010008D01*
X001467Y009849D02*
X002206Y009849D01*
X002093Y009691D02*
X001467Y009691D01*
X001467Y009532D02*
X002057Y009532D01*
X002078Y009374D02*
X001467Y009374D01*
X001467Y009215D02*
X002169Y009215D01*
X002218Y010167D02*
X001467Y010167D01*
X001467Y010325D02*
X002098Y010325D01*
X002057Y010484D02*
X001467Y010484D01*
X001467Y010642D02*
X002073Y010642D01*
X002158Y010801D02*
X001467Y010801D01*
X001467Y012228D02*
X015114Y012228D01*
X015040Y012386D02*
X001467Y012386D01*
X001467Y012545D02*
X015027Y012545D01*
X015066Y012703D02*
X001467Y012703D01*
X002870Y015240D02*
X003144Y015240D01*
X003068Y015399D02*
X002946Y015399D01*
X002957Y015557D02*
X003057Y015557D01*
X003104Y015716D02*
X002911Y015716D01*
X002783Y015874D02*
X003231Y015874D01*
X003252Y016132D02*
X003418Y016064D01*
X003597Y016064D01*
X003762Y016132D01*
X003889Y016259D01*
X003957Y016424D01*
X003957Y016603D01*
X003889Y016769D01*
X003762Y016895D01*
X003597Y016964D01*
X003418Y016964D01*
X003252Y016895D01*
X003126Y016769D01*
X003057Y016603D01*
X003057Y016424D01*
X003126Y016259D01*
X003252Y016132D01*
X003193Y016191D02*
X002821Y016191D01*
X002926Y016350D02*
X003088Y016350D01*
X003057Y016508D02*
X002957Y016508D01*
X002931Y016667D02*
X003083Y016667D01*
X003182Y016825D02*
X002832Y016825D01*
X002762Y017132D02*
X002889Y017259D01*
X002957Y017424D01*
X002957Y017603D01*
X002889Y017769D01*
X002762Y017895D01*
X002597Y017964D01*
X002418Y017964D01*
X002252Y017895D01*
X002126Y017769D01*
X002057Y017603D01*
X002057Y017424D01*
X002126Y017259D01*
X002252Y017132D01*
X002418Y017064D01*
X002597Y017064D01*
X002762Y017132D01*
X002772Y017142D02*
X003242Y017142D01*
X003252Y017132D02*
X003418Y017064D01*
X003597Y017064D01*
X003762Y017132D01*
X003889Y017259D01*
X003957Y017424D01*
X003957Y017603D01*
X003889Y017769D01*
X003762Y017895D01*
X003597Y017964D01*
X003418Y017964D01*
X003252Y017895D01*
X003126Y017769D01*
X003057Y017603D01*
X003057Y017424D01*
X003126Y017259D01*
X003252Y017132D01*
X003108Y017301D02*
X002906Y017301D01*
X002957Y017460D02*
X003057Y017460D01*
X003063Y017618D02*
X002951Y017618D01*
X002881Y017777D02*
X003134Y017777D01*
X003349Y017935D02*
X002666Y017935D01*
X002597Y018064D02*
X002762Y018132D01*
X002889Y018259D01*
X002957Y018424D01*
X002957Y018603D01*
X002889Y018769D01*
X002762Y018895D01*
X002597Y018964D01*
X002418Y018964D01*
X002252Y018895D01*
X002126Y018769D01*
X002057Y018603D01*
X002057Y018424D01*
X002126Y018259D01*
X002252Y018132D01*
X002418Y018064D01*
X002597Y018064D01*
X002669Y018094D02*
X003345Y018094D01*
X003418Y018064D02*
X003597Y018064D01*
X003762Y018132D01*
X003889Y018259D01*
X003957Y018424D01*
X003957Y018603D01*
X003889Y018769D01*
X003762Y018895D01*
X003597Y018964D01*
X003418Y018964D01*
X003252Y018895D01*
X003126Y018769D01*
X003057Y018603D01*
X003057Y018424D01*
X003126Y018259D01*
X003252Y018132D01*
X003418Y018064D01*
X003669Y018094D02*
X015345Y018094D01*
X015418Y018064D02*
X015597Y018064D01*
X015762Y018132D01*
X015889Y018259D01*
X015957Y018424D01*
X015957Y018603D01*
X015889Y018769D01*
X015762Y018895D01*
X015597Y018964D01*
X015418Y018964D01*
X015252Y018895D01*
X015126Y018769D01*
X015057Y018603D01*
X015057Y018424D01*
X015126Y018259D01*
X015252Y018132D01*
X015418Y018064D01*
X015418Y017964D02*
X015252Y017895D01*
X015126Y017769D01*
X015057Y017603D01*
X015057Y017424D01*
X015126Y017259D01*
X015252Y017132D01*
X015418Y017064D01*
X015597Y017064D01*
X015762Y017132D01*
X015889Y017259D01*
X015957Y017424D01*
X015957Y017603D01*
X015889Y017769D01*
X015762Y017895D01*
X015597Y017964D01*
X015418Y017964D01*
X015349Y017935D02*
X003666Y017935D01*
X003881Y017777D02*
X015134Y017777D01*
X015063Y017618D02*
X003951Y017618D01*
X003957Y017460D02*
X015057Y017460D01*
X015108Y017301D02*
X003906Y017301D01*
X003772Y017142D02*
X015242Y017142D01*
X015252Y016895D02*
X015126Y016769D01*
X015057Y016603D01*
X015057Y016424D01*
X015126Y016259D01*
X015252Y016132D01*
X015418Y016064D01*
X015597Y016064D01*
X015762Y016132D01*
X015889Y016259D01*
X015957Y016424D01*
X015957Y016603D01*
X015889Y016769D01*
X015762Y016895D01*
X015597Y016964D01*
X015418Y016964D01*
X015252Y016895D01*
X015182Y016825D02*
X003832Y016825D01*
X003931Y016667D02*
X015083Y016667D01*
X015057Y016508D02*
X003957Y016508D01*
X003926Y016350D02*
X015088Y016350D01*
X015193Y016191D02*
X003821Y016191D01*
X003783Y015874D02*
X015231Y015874D01*
X015104Y015716D02*
X003911Y015716D01*
X003957Y015557D02*
X015057Y015557D01*
X015068Y015399D02*
X003946Y015399D01*
X003870Y015240D02*
X015144Y015240D01*
X015639Y015081D02*
X016375Y015081D01*
X016319Y014923D02*
X015695Y014923D01*
X015890Y014764D02*
X016124Y014764D01*
X016058Y014606D02*
X015956Y014606D01*
X015957Y014447D02*
X016057Y014447D01*
X016113Y014289D02*
X015901Y014289D01*
X015757Y014130D02*
X016257Y014130D01*
X016170Y013813D02*
X015844Y013813D01*
X015936Y013655D02*
X016078Y013655D01*
X016057Y013496D02*
X015957Y013496D01*
X015921Y013337D02*
X016093Y013337D01*
X016206Y013179D02*
X015809Y013179D01*
X016890Y014764D02*
X021583Y014764D01*
X021583Y014923D02*
X016695Y014923D01*
X016639Y015081D02*
X021732Y015081D01*
X021919Y015240D02*
X016870Y015240D01*
X016946Y015399D02*
X021889Y015399D01*
X021720Y016350D02*
X016926Y016350D01*
X016957Y016508D02*
X021276Y016508D01*
X021482Y016508D02*
X021879Y016508D01*
X021544Y017142D02*
X021470Y017142D01*
X021514Y017301D02*
X016906Y017301D01*
X016889Y017259D02*
X016957Y017424D01*
X016957Y017603D01*
X016889Y017769D01*
X016762Y017895D01*
X016597Y017964D01*
X016418Y017964D01*
X016252Y017895D01*
X016126Y017769D01*
X016057Y017603D01*
X016057Y017424D01*
X016126Y017259D01*
X016252Y017132D01*
X016418Y017064D01*
X016597Y017064D01*
X016762Y017132D01*
X016889Y017259D01*
X016772Y017142D02*
X021289Y017142D01*
X021089Y016984D02*
X001467Y016984D01*
X001467Y017142D02*
X002242Y017142D01*
X002108Y017301D02*
X001467Y017301D01*
X001467Y017460D02*
X002057Y017460D01*
X002063Y017618D02*
X001467Y017618D01*
X001467Y017777D02*
X002134Y017777D01*
X002349Y017935D02*
X001467Y017935D01*
X001467Y018094D02*
X002345Y018094D01*
X002132Y018252D02*
X001467Y018252D01*
X001467Y018411D02*
X002063Y018411D01*
X002057Y018569D02*
X001467Y018569D01*
X001467Y018728D02*
X002109Y018728D01*
X002243Y018886D02*
X001467Y018886D01*
X001467Y019045D02*
X021495Y019045D01*
X021495Y019122D02*
X021495Y018849D01*
X021853Y018849D01*
X021853Y019227D01*
X021600Y019227D01*
X021495Y019122D01*
X021577Y019204D02*
X016833Y019204D01*
X016889Y019259D02*
X016762Y019132D01*
X016597Y019064D01*
X016418Y019064D01*
X016252Y019132D01*
X016126Y019259D01*
X016057Y019424D01*
X016057Y019603D01*
X016126Y019769D01*
X016252Y019895D01*
X016418Y019964D01*
X016597Y019964D01*
X016762Y019895D01*
X016889Y019769D01*
X016957Y019603D01*
X016957Y019424D01*
X016889Y019259D01*
X016931Y019362D02*
X021958Y019362D01*
X021958Y019521D02*
X016957Y019521D01*
X016926Y019679D02*
X021996Y019679D01*
X022034Y019838D02*
X016819Y019838D01*
X016762Y020132D02*
X016889Y020259D01*
X016957Y020424D01*
X016957Y020603D01*
X016889Y020769D01*
X016762Y020895D01*
X016597Y020964D01*
X016418Y020964D01*
X016252Y020895D01*
X016126Y020769D01*
X016057Y020603D01*
X016057Y020424D01*
X016126Y020259D01*
X016252Y020132D01*
X016418Y020064D01*
X016597Y020064D01*
X016762Y020132D01*
X016784Y020155D02*
X022179Y020155D01*
X022057Y019996D02*
X001467Y019996D01*
X001467Y019838D02*
X002195Y019838D01*
X002252Y019895D02*
X002126Y019769D01*
X002057Y019603D01*
X002057Y019424D01*
X002126Y019259D01*
X002252Y019132D01*
X002418Y019064D01*
X002597Y019064D01*
X002762Y019132D01*
X002889Y019259D01*
X002957Y019424D01*
X002957Y019603D01*
X002889Y019769D01*
X002762Y019895D01*
X002597Y019964D01*
X002418Y019964D01*
X002252Y019895D01*
X002418Y020064D02*
X002597Y020064D01*
X002762Y020132D01*
X002889Y020259D01*
X002957Y020424D01*
X002957Y020603D01*
X002889Y020769D01*
X002762Y020895D01*
X002597Y020964D01*
X002418Y020964D01*
X002252Y020895D01*
X002126Y020769D01*
X002057Y020603D01*
X002057Y020424D01*
X002126Y020259D01*
X002252Y020132D01*
X002418Y020064D01*
X002230Y020155D02*
X001467Y020155D01*
X001467Y020313D02*
X002103Y020313D01*
X002057Y020472D02*
X001467Y020472D01*
X001467Y020630D02*
X002068Y020630D01*
X002146Y020789D02*
X001467Y020789D01*
X001467Y020948D02*
X002378Y020948D01*
X002412Y021034D02*
X002487Y021034D01*
X002487Y021494D01*
X002027Y021494D01*
X002027Y021418D01*
X002100Y021242D01*
X002235Y021107D01*
X002412Y021034D01*
X002487Y021106D02*
X002527Y021106D01*
X002527Y021034D02*
X002603Y021034D01*
X002779Y021107D01*
X002914Y021242D01*
X002987Y021418D01*
X002987Y021494D01*
X002527Y021494D01*
X002527Y021534D01*
X002487Y021534D01*
X002487Y021994D01*
X002412Y021994D01*
X002235Y021921D01*
X002100Y021786D01*
X002027Y021609D01*
X002027Y021534D01*
X002487Y021534D01*
X002487Y021494D01*
X002527Y021494D01*
X002527Y021034D01*
X002636Y020948D02*
X003378Y020948D01*
X003418Y020964D02*
X003252Y020895D01*
X003126Y020769D01*
X003057Y020603D01*
X003057Y020424D01*
X003126Y020259D01*
X003252Y020132D01*
X003418Y020064D01*
X003597Y020064D01*
X003762Y020132D01*
X003889Y020259D01*
X003957Y020424D01*
X003957Y020603D01*
X003889Y020769D01*
X003762Y020895D01*
X003597Y020964D01*
X003418Y020964D01*
X003418Y021064D02*
X003597Y021064D01*
X003762Y021132D01*
X003889Y021259D01*
X003957Y021424D01*
X003957Y021603D01*
X003889Y021769D01*
X003777Y021880D01*
X003777Y022776D01*
X003619Y022934D01*
X003177Y023376D01*
X003177Y024907D01*
X003238Y024968D01*
X003297Y025111D01*
X003297Y025267D01*
X003238Y025410D01*
X003128Y025520D01*
X002985Y025579D01*
X002829Y025579D01*
X002686Y025520D01*
X002596Y025429D01*
X002506Y025520D01*
X002363Y025579D01*
X002207Y025579D01*
X002064Y025520D01*
X001954Y025410D01*
X001895Y025267D01*
X001895Y025111D01*
X001954Y024968D01*
X002064Y024858D01*
X002207Y024799D01*
X002363Y024799D01*
X002506Y024858D01*
X002596Y024948D01*
X002637Y024907D01*
X002637Y023152D01*
X002795Y022994D01*
X002795Y022994D01*
X003237Y022552D01*
X003237Y021880D01*
X003126Y021769D01*
X003057Y021603D01*
X003057Y021424D01*
X003126Y021259D01*
X003252Y021132D01*
X003418Y021064D01*
X003315Y021106D02*
X002777Y021106D01*
X002923Y021265D02*
X003123Y021265D01*
X003058Y021423D02*
X002987Y021423D01*
X002987Y021534D02*
X002987Y021609D01*
X002914Y021786D01*
X002779Y021921D01*
X002603Y021994D01*
X002527Y021994D01*
X002527Y021534D01*
X002987Y021534D01*
X002987Y021582D02*
X003057Y021582D01*
X003114Y021740D02*
X002933Y021740D01*
X002801Y021899D02*
X003237Y021899D01*
X003237Y022057D02*
X001467Y022057D01*
X001467Y021899D02*
X002213Y021899D01*
X002081Y021740D02*
X001467Y021740D01*
X001467Y021582D02*
X002027Y021582D01*
X002027Y021423D02*
X001467Y021423D01*
X001467Y021265D02*
X002091Y021265D01*
X002237Y021106D02*
X001467Y021106D01*
X002487Y021265D02*
X002527Y021265D01*
X002527Y021423D02*
X002487Y021423D01*
X002487Y021582D02*
X002527Y021582D01*
X002527Y021740D02*
X002487Y021740D01*
X002487Y021899D02*
X002527Y021899D01*
X003237Y022216D02*
X001467Y022216D01*
X001467Y022374D02*
X003237Y022374D01*
X003237Y022533D02*
X001467Y022533D01*
X001467Y022691D02*
X003098Y022691D01*
X002939Y022850D02*
X001467Y022850D01*
X001467Y023009D02*
X002780Y023009D01*
X002637Y023167D02*
X001467Y023167D01*
X001467Y023326D02*
X002637Y023326D01*
X002637Y023484D02*
X001467Y023484D01*
X001467Y023643D02*
X002637Y023643D01*
X002637Y023801D02*
X001467Y023801D01*
X001467Y023960D02*
X002637Y023960D01*
X002637Y024118D02*
X001467Y024118D01*
X001467Y024277D02*
X002637Y024277D01*
X002637Y024435D02*
X001467Y024435D01*
X001467Y024594D02*
X002637Y024594D01*
X002637Y024753D02*
X001467Y024753D01*
X001467Y024911D02*
X002011Y024911D01*
X001912Y025070D02*
X001467Y025070D01*
X001467Y025228D02*
X001895Y025228D01*
X001945Y025387D02*
X001467Y025387D01*
X001467Y025545D02*
X002126Y025545D01*
X002444Y025545D02*
X002748Y025545D01*
X003066Y025545D02*
X022223Y025545D01*
X022223Y025601D02*
X022601Y025601D01*
X022601Y025959D01*
X022329Y025959D01*
X022223Y025854D01*
X022223Y025601D01*
X022223Y025704D02*
X001467Y025704D01*
X001467Y025862D02*
X022231Y025862D01*
X022601Y025862D02*
X022638Y025862D01*
X022638Y025704D02*
X022601Y025704D01*
X022601Y025545D02*
X022638Y025545D01*
X022638Y025387D02*
X022601Y025387D01*
X022601Y025228D02*
X022638Y025228D01*
X022933Y025228D02*
X023586Y025228D01*
X023786Y025070D02*
X003280Y025070D01*
X003297Y025228D02*
X022306Y025228D01*
X022223Y025387D02*
X003247Y025387D01*
X003181Y024911D02*
X023654Y024911D01*
X023654Y024753D02*
X003177Y024753D01*
X003177Y024594D02*
X023654Y024594D01*
X023675Y024435D02*
X003177Y024435D01*
X003177Y024277D02*
X004201Y024277D01*
X004280Y024356D02*
X004028Y024104D01*
X004028Y023188D01*
X004280Y022936D01*
X004636Y022936D01*
X004888Y023188D01*
X004888Y024104D01*
X004636Y024356D01*
X004280Y024356D01*
X004043Y024118D02*
X003177Y024118D01*
X003177Y023960D02*
X004028Y023960D01*
X004028Y023801D02*
X003177Y023801D01*
X003177Y023643D02*
X004028Y023643D01*
X004028Y023484D02*
X003177Y023484D01*
X003227Y023326D02*
X004028Y023326D01*
X004049Y023167D02*
X003386Y023167D01*
X003544Y023009D02*
X004207Y023009D01*
X004709Y023009D02*
X005207Y023009D01*
X005280Y022936D02*
X005028Y023188D01*
X005028Y024104D01*
X005280Y024356D01*
X005636Y024356D01*
X005888Y024104D01*
X005888Y023188D01*
X005636Y022936D01*
X005280Y022936D01*
X005049Y023167D02*
X004868Y023167D01*
X004888Y023326D02*
X005028Y023326D01*
X005028Y023484D02*
X004888Y023484D01*
X004888Y023643D02*
X005028Y023643D01*
X005028Y023801D02*
X004888Y023801D01*
X004888Y023960D02*
X005028Y023960D01*
X005043Y024118D02*
X004874Y024118D01*
X004715Y024277D02*
X005201Y024277D01*
X005715Y024277D02*
X023834Y024277D01*
X023992Y024118D02*
X005874Y024118D01*
X005888Y023960D02*
X024737Y023960D01*
X024737Y023801D02*
X005888Y023801D01*
X005888Y023643D02*
X021734Y023643D01*
X021731Y023640D02*
X021836Y023746D01*
X022109Y023746D01*
X022109Y023388D01*
X022146Y023388D01*
X022146Y023746D01*
X022419Y023746D01*
X022483Y023681D01*
X022518Y023716D01*
X023076Y023716D01*
X023163Y023628D01*
X023163Y023110D01*
X023076Y023022D01*
X023054Y023022D01*
X023087Y022942D01*
X023087Y022811D01*
X023037Y022690D01*
X022944Y022597D01*
X022823Y022547D01*
X022692Y022547D01*
X022571Y022597D01*
X022478Y022690D01*
X022427Y022811D01*
X022427Y022942D01*
X022469Y023042D01*
X022419Y022992D01*
X022146Y022992D01*
X022146Y023350D01*
X022109Y023350D01*
X022109Y022992D01*
X021836Y022992D01*
X021731Y023097D01*
X021731Y023350D01*
X022109Y023350D01*
X022109Y023387D01*
X021731Y023387D01*
X021731Y023640D01*
X021731Y023484D02*
X005888Y023484D01*
X005888Y023326D02*
X021731Y023326D01*
X021731Y023167D02*
X005868Y023167D01*
X005709Y023009D02*
X021820Y023009D01*
X022109Y023009D02*
X022146Y023009D01*
X022146Y023167D02*
X022109Y023167D01*
X022109Y023326D02*
X022146Y023326D01*
X022146Y023484D02*
X022109Y023484D01*
X022109Y023643D02*
X022146Y023643D01*
X022435Y023009D02*
X022455Y023009D01*
X022427Y022850D02*
X003703Y022850D01*
X003777Y022691D02*
X022477Y022691D01*
X023038Y022691D02*
X023658Y022691D01*
X023609Y022850D02*
X023087Y022850D01*
X023060Y023009D02*
X023636Y023009D01*
X023533Y023167D02*
X023163Y023167D01*
X023163Y023326D02*
X023533Y023326D01*
X023533Y023484D02*
X023163Y023484D01*
X023148Y023643D02*
X023548Y023643D01*
X024241Y023009D02*
X024261Y023009D01*
X024269Y022850D02*
X024737Y022850D01*
X024737Y022691D02*
X024219Y022691D01*
X024550Y023009D02*
X024587Y023009D01*
X024587Y023167D02*
X024550Y023167D01*
X024550Y023326D02*
X024587Y023326D01*
X024587Y023484D02*
X024550Y023484D01*
X024550Y023643D02*
X024587Y023643D01*
X024737Y022533D02*
X003777Y022533D01*
X003777Y022374D02*
X024737Y022374D01*
X024737Y022216D02*
X003777Y022216D01*
X003777Y022057D02*
X024737Y022057D01*
X024737Y021899D02*
X016801Y021899D01*
X016779Y021921D02*
X016603Y021994D01*
X016527Y021994D01*
X016527Y021534D01*
X016487Y021534D01*
X016487Y021994D01*
X016412Y021994D01*
X016235Y021921D01*
X016100Y021786D01*
X016027Y021609D01*
X016027Y021534D01*
X016487Y021534D01*
X016487Y021494D01*
X016027Y021494D01*
X016027Y021418D01*
X016100Y021242D01*
X016235Y021107D01*
X016412Y021034D01*
X016487Y021034D01*
X016487Y021494D01*
X016527Y021494D01*
X016527Y021534D01*
X016987Y021534D01*
X016987Y021609D01*
X016914Y021786D01*
X016779Y021921D01*
X016933Y021740D02*
X024894Y021740D01*
X025052Y021582D02*
X016987Y021582D01*
X016987Y021494D02*
X016527Y021494D01*
X016527Y021034D01*
X016603Y021034D01*
X016779Y021107D01*
X016914Y021242D01*
X016987Y021418D01*
X016987Y021494D01*
X016987Y021423D02*
X025211Y021423D01*
X025369Y021265D02*
X016923Y021265D01*
X016777Y021106D02*
X025528Y021106D01*
X025687Y020948D02*
X016636Y020948D01*
X016527Y021106D02*
X016487Y021106D01*
X016487Y021265D02*
X016527Y021265D01*
X016527Y021423D02*
X016487Y021423D01*
X016487Y021582D02*
X016527Y021582D01*
X016527Y021740D02*
X016487Y021740D01*
X016487Y021899D02*
X016527Y021899D01*
X016213Y021899D02*
X015753Y021899D01*
X015762Y021895D02*
X015597Y021964D01*
X015418Y021964D01*
X015252Y021895D01*
X015126Y021769D01*
X015057Y021603D01*
X015057Y021424D01*
X015126Y021259D01*
X015252Y021132D01*
X015418Y021064D01*
X015597Y021064D01*
X015762Y021132D01*
X015889Y021259D01*
X015957Y021424D01*
X015957Y021603D01*
X015889Y021769D01*
X015762Y021895D01*
X015900Y021740D02*
X016081Y021740D01*
X016027Y021582D02*
X015957Y021582D01*
X015957Y021423D02*
X016027Y021423D01*
X016091Y021265D02*
X015891Y021265D01*
X015699Y021106D02*
X016237Y021106D01*
X016378Y020948D02*
X015636Y020948D01*
X015597Y020964D02*
X015418Y020964D01*
X015252Y020895D01*
X015126Y020769D01*
X015057Y020603D01*
X015057Y020424D01*
X015126Y020259D01*
X015252Y020132D01*
X015418Y020064D01*
X015597Y020064D01*
X015762Y020132D01*
X015889Y020259D01*
X015957Y020424D01*
X015957Y020603D01*
X015889Y020769D01*
X015762Y020895D01*
X015597Y020964D01*
X015378Y020948D02*
X003636Y020948D01*
X003699Y021106D02*
X015315Y021106D01*
X015123Y021265D02*
X003891Y021265D01*
X003957Y021423D02*
X015058Y021423D01*
X015057Y021582D02*
X003957Y021582D01*
X003900Y021740D02*
X015114Y021740D01*
X015261Y021899D02*
X003777Y021899D01*
X003868Y020789D02*
X015146Y020789D01*
X015068Y020630D02*
X003946Y020630D01*
X003957Y020472D02*
X015057Y020472D01*
X015103Y020313D02*
X003911Y020313D01*
X003784Y020155D02*
X015230Y020155D01*
X015252Y019895D02*
X015126Y019769D01*
X015057Y019603D01*
X015057Y019424D01*
X015126Y019259D01*
X015252Y019132D01*
X015418Y019064D01*
X015597Y019064D01*
X015762Y019132D01*
X015889Y019259D01*
X015957Y019424D01*
X015957Y019603D01*
X015889Y019769D01*
X015762Y019895D01*
X015597Y019964D01*
X015418Y019964D01*
X015252Y019895D01*
X015195Y019838D02*
X003819Y019838D01*
X003762Y019895D02*
X003597Y019964D01*
X003418Y019964D01*
X003252Y019895D01*
X003126Y019769D01*
X003057Y019603D01*
X003057Y019424D01*
X003126Y019259D01*
X003252Y019132D01*
X003418Y019064D01*
X003597Y019064D01*
X003762Y019132D01*
X003889Y019259D01*
X003957Y019424D01*
X003957Y019603D01*
X003889Y019769D01*
X003762Y019895D01*
X003926Y019679D02*
X015089Y019679D01*
X015057Y019521D02*
X003957Y019521D01*
X003931Y019362D02*
X015083Y019362D01*
X015181Y019204D02*
X003833Y019204D01*
X003771Y018886D02*
X015243Y018886D01*
X015109Y018728D02*
X003905Y018728D01*
X003957Y018569D02*
X015057Y018569D01*
X015063Y018411D02*
X003951Y018411D01*
X003882Y018252D02*
X015132Y018252D01*
X015669Y018094D02*
X016345Y018094D01*
X016418Y018064D02*
X016597Y018064D01*
X016762Y018132D01*
X016889Y018259D01*
X016957Y018424D01*
X016957Y018603D01*
X016889Y018769D01*
X016762Y018895D01*
X016597Y018964D01*
X016418Y018964D01*
X016252Y018895D01*
X016126Y018769D01*
X016057Y018603D01*
X016057Y018424D01*
X016126Y018259D01*
X016252Y018132D01*
X016418Y018064D01*
X016349Y017935D02*
X015666Y017935D01*
X015881Y017777D02*
X016134Y017777D01*
X016063Y017618D02*
X015951Y017618D01*
X015957Y017460D02*
X016057Y017460D01*
X016108Y017301D02*
X015906Y017301D01*
X015772Y017142D02*
X016242Y017142D01*
X016182Y016825D02*
X015832Y016825D01*
X015931Y016667D02*
X016083Y016667D01*
X016057Y016508D02*
X015957Y016508D01*
X015926Y016350D02*
X016088Y016350D01*
X016193Y016191D02*
X015821Y016191D01*
X015783Y015874D02*
X016231Y015874D01*
X016104Y015716D02*
X015911Y015716D01*
X015957Y015557D02*
X016057Y015557D01*
X016068Y015399D02*
X015946Y015399D01*
X015870Y015240D02*
X016144Y015240D01*
X016931Y016667D02*
X021087Y016667D01*
X021050Y016825D02*
X016832Y016825D01*
X016957Y017460D02*
X021514Y017460D01*
X021211Y017618D02*
X016951Y017618D01*
X016881Y017777D02*
X021076Y017777D01*
X021050Y017935D02*
X016666Y017935D01*
X016669Y018094D02*
X021101Y018094D01*
X021458Y018252D02*
X016882Y018252D01*
X016951Y018411D02*
X021525Y018411D01*
X021495Y018569D02*
X016957Y018569D01*
X016905Y018728D02*
X021495Y018728D01*
X021495Y018886D02*
X016771Y018886D01*
X016243Y018886D02*
X015771Y018886D01*
X015905Y018728D02*
X016109Y018728D01*
X016057Y018569D02*
X015957Y018569D01*
X015951Y018411D02*
X016063Y018411D01*
X016132Y018252D02*
X015882Y018252D01*
X015833Y019204D02*
X016181Y019204D01*
X016083Y019362D02*
X015931Y019362D01*
X015957Y019521D02*
X016057Y019521D01*
X016089Y019679D02*
X015926Y019679D01*
X015819Y019838D02*
X016195Y019838D01*
X016230Y020155D02*
X015784Y020155D01*
X015911Y020313D02*
X016103Y020313D01*
X016057Y020472D02*
X015957Y020472D01*
X015946Y020630D02*
X016068Y020630D01*
X016146Y020789D02*
X015868Y020789D01*
X016868Y020789D02*
X025819Y020789D01*
X025819Y020630D02*
X016946Y020630D01*
X016957Y020472D02*
X025819Y020472D01*
X025819Y020313D02*
X016911Y020313D01*
X021853Y019204D02*
X021890Y019204D01*
X021890Y019045D02*
X021853Y019045D01*
X021853Y018886D02*
X021890Y018886D01*
X022248Y018886D02*
X025819Y018886D01*
X025819Y018728D02*
X022248Y018728D01*
X022248Y018569D02*
X025819Y018569D01*
X025819Y018411D02*
X022218Y018411D01*
X022218Y018252D02*
X023566Y018252D01*
X023721Y018252D02*
X025365Y018252D01*
X025270Y018094D02*
X023944Y018094D01*
X023993Y017935D02*
X025262Y017935D01*
X025344Y017777D02*
X024097Y017777D01*
X024256Y017618D02*
X025382Y017618D01*
X025612Y018004D02*
X025612Y017020D01*
X025612Y016921D01*
X024332Y017020D02*
X024332Y017217D01*
X023643Y017906D01*
X023318Y017777D02*
X022268Y017777D01*
X022268Y017618D02*
X023436Y017618D01*
X023293Y017935D02*
X022218Y017935D01*
X022218Y018094D02*
X023342Y018094D01*
X023004Y017267D02*
X023643Y017217D01*
X023840Y017020D01*
X023840Y016724D02*
X023742Y016724D01*
X023545Y016528D01*
X022954Y016528D01*
X023150Y016825D02*
X023260Y016825D01*
X023260Y016984D02*
X023217Y016984D01*
X022705Y017460D02*
X022268Y017460D01*
X022444Y017301D02*
X022481Y017301D01*
X022481Y017142D02*
X022444Y017142D01*
X022444Y016984D02*
X022481Y016984D01*
X021910Y017586D02*
X021910Y017795D01*
X021873Y017795D01*
X021873Y017586D01*
X021910Y017586D01*
X021910Y017618D02*
X021873Y017618D01*
X021873Y017777D02*
X021910Y017777D01*
X022613Y019045D02*
X022663Y019045D01*
X022975Y019045D02*
X023012Y019045D01*
X023012Y019204D02*
X022975Y019204D01*
X022975Y019362D02*
X023012Y019362D01*
X023012Y019521D02*
X022975Y019521D01*
X022975Y019679D02*
X023012Y019679D01*
X023364Y019679D02*
X024635Y019679D01*
X024570Y019521D02*
X023390Y019521D01*
X023390Y019362D02*
X024570Y019362D01*
X024570Y019204D02*
X023390Y019204D01*
X023325Y019045D02*
X024596Y019045D01*
X024948Y019045D02*
X024985Y019045D01*
X024985Y019204D02*
X024948Y019204D01*
X024948Y019362D02*
X024985Y019362D01*
X024985Y019521D02*
X024948Y019521D01*
X024948Y019679D02*
X024985Y019679D01*
X025297Y019679D02*
X025347Y019679D01*
X025380Y019838D02*
X022694Y019838D01*
X022670Y019996D02*
X025404Y019996D01*
X025526Y020155D02*
X022548Y020155D01*
X025900Y022374D02*
X025918Y022374D01*
X025918Y022533D02*
X025896Y022533D01*
X025896Y022691D02*
X025918Y022691D01*
X025918Y022850D02*
X025896Y022850D01*
X025896Y023009D02*
X025918Y023009D01*
X025918Y023167D02*
X025896Y023167D01*
X025896Y023326D02*
X025918Y023326D01*
X025918Y023484D02*
X025896Y023484D01*
X025896Y023643D02*
X025918Y023643D01*
X025918Y023801D02*
X025896Y023801D01*
X025896Y023960D02*
X025918Y023960D01*
X025918Y024118D02*
X025896Y024118D01*
X025896Y024277D02*
X025918Y024277D01*
X025918Y024435D02*
X025896Y024435D01*
X025918Y024594D02*
X025747Y024594D01*
X025589Y024753D02*
X025918Y024753D01*
X025918Y024911D02*
X025430Y024911D01*
X025272Y025070D02*
X025918Y025070D01*
X025918Y025228D02*
X025113Y025228D01*
X024935Y025387D02*
X025918Y025387D01*
X025918Y025545D02*
X024935Y025545D01*
X024935Y025704D02*
X025918Y025704D01*
X025918Y025862D02*
X024914Y025862D01*
X024859Y026021D02*
X025918Y026021D01*
X025918Y026179D02*
X024843Y026179D01*
X024733Y026338D02*
X025918Y026338D01*
X025918Y026497D02*
X005682Y026497D01*
X005828Y026557D02*
X005431Y026392D01*
X005001Y026392D01*
X004604Y026557D01*
X004300Y026860D01*
X004136Y027257D01*
X004136Y027687D01*
X004300Y028084D01*
X004604Y028388D01*
X005001Y028552D01*
X005431Y028552D01*
X005828Y028388D01*
X006131Y028084D01*
X006296Y027687D01*
X006296Y027257D01*
X006131Y026860D01*
X005828Y026557D01*
X005926Y026655D02*
X025918Y026655D01*
X025918Y026814D02*
X006085Y026814D01*
X006178Y026972D02*
X008698Y026972D01*
X008698Y026971D02*
X008791Y026878D01*
X008912Y026827D01*
X009044Y026827D01*
X009165Y026878D01*
X009255Y026967D01*
X010178Y026967D01*
X010267Y026878D01*
X010389Y026827D01*
X010520Y026827D01*
X010641Y026878D01*
X010734Y026971D01*
X010784Y027092D01*
X010784Y027223D01*
X010734Y027344D01*
X010641Y027437D01*
X010520Y027487D01*
X010389Y027487D01*
X010267Y027437D01*
X010178Y027347D01*
X009255Y027347D01*
X009165Y027437D01*
X009044Y027487D01*
X008912Y027487D01*
X008791Y027437D01*
X008698Y027344D01*
X008648Y027223D01*
X008648Y027092D01*
X008698Y026971D01*
X008648Y027131D02*
X006243Y027131D01*
X006296Y027289D02*
X008675Y027289D01*
X008817Y027448D02*
X006296Y027448D01*
X006296Y027606D02*
X025918Y027606D01*
X025918Y027448D02*
X010616Y027448D01*
X010757Y027289D02*
X025918Y027289D01*
X025918Y027131D02*
X010784Y027131D01*
X010735Y026972D02*
X025918Y026972D01*
X025918Y027765D02*
X006264Y027765D01*
X006198Y027923D02*
X025918Y027923D01*
X025918Y028082D02*
X006132Y028082D01*
X005975Y028241D02*
X025918Y028241D01*
X025918Y028399D02*
X005800Y028399D01*
X005992Y029143D02*
X006261Y029032D01*
X006551Y029032D01*
X006819Y029143D01*
X007025Y029349D01*
X007136Y029617D01*
X007136Y029907D01*
X007025Y030176D01*
X006819Y030381D01*
X006551Y030492D01*
X006261Y030492D01*
X005992Y030381D01*
X005787Y030176D01*
X005676Y029907D01*
X005676Y029617D01*
X005787Y029349D01*
X005992Y029143D01*
X005944Y029192D02*
X005006Y029192D01*
X005006Y029147D02*
X005006Y029577D01*
X004841Y029974D01*
X004538Y030278D01*
X004141Y030442D01*
X003711Y030442D01*
X003314Y030278D01*
X003010Y029974D01*
X002846Y029577D01*
X002846Y029147D01*
X003010Y028750D01*
X003314Y028447D01*
X003711Y028282D01*
X004141Y028282D01*
X004538Y028447D01*
X004841Y028750D01*
X005006Y029147D01*
X004959Y029033D02*
X006258Y029033D01*
X006553Y029033D02*
X025672Y029033D01*
X025830Y028875D02*
X004893Y028875D01*
X004807Y028716D02*
X025918Y028716D01*
X025918Y028558D02*
X004649Y028558D01*
X004631Y028399D02*
X004423Y028399D01*
X004457Y028241D02*
X001467Y028241D01*
X001467Y028399D02*
X003429Y028399D01*
X003203Y028558D02*
X001467Y028558D01*
X001467Y028716D02*
X003045Y028716D01*
X002959Y028875D02*
X001467Y028875D01*
X001467Y029033D02*
X002893Y029033D01*
X002846Y029192D02*
X001467Y029192D01*
X001467Y029350D02*
X002846Y029350D01*
X002846Y029509D02*
X001467Y029509D01*
X001467Y029667D02*
X002883Y029667D01*
X002949Y029826D02*
X001467Y029826D01*
X001467Y029984D02*
X003021Y029984D01*
X003179Y030143D02*
X001467Y030143D01*
X001467Y030302D02*
X003372Y030302D01*
X004480Y030302D02*
X005913Y030302D01*
X005773Y030143D02*
X004672Y030143D01*
X004831Y029984D02*
X005708Y029984D01*
X005676Y029826D02*
X004903Y029826D01*
X004968Y029667D02*
X005676Y029667D01*
X005721Y029509D02*
X005006Y029509D01*
X005006Y029350D02*
X005786Y029350D01*
X006868Y029192D02*
X025513Y029192D01*
X025355Y029350D02*
X019054Y029350D01*
X018996Y029327D02*
X019140Y029386D01*
X019249Y029496D01*
X019309Y029639D01*
X019309Y029794D01*
X019269Y029891D01*
X019269Y031216D01*
X019309Y031312D01*
X019309Y031467D01*
X019249Y031611D01*
X019140Y031720D01*
X018996Y031780D01*
X018841Y031780D01*
X018698Y031720D01*
X018588Y031611D01*
X018529Y031467D01*
X018529Y031312D01*
X018569Y031216D01*
X018569Y029891D01*
X018529Y029794D01*
X018529Y029639D01*
X018588Y029496D01*
X018698Y029386D01*
X018841Y029327D01*
X018996Y029327D01*
X018784Y029350D02*
X007025Y029350D01*
X007091Y029509D02*
X018583Y029509D01*
X018529Y029667D02*
X007136Y029667D01*
X007136Y029826D02*
X018542Y029826D01*
X018569Y029984D02*
X007104Y029984D01*
X007038Y030143D02*
X018569Y030143D01*
X018569Y030302D02*
X006899Y030302D01*
X006628Y030460D02*
X018569Y030460D01*
X018569Y030619D02*
X001467Y030619D01*
X001467Y030777D02*
X010260Y030777D01*
X010452Y030777D02*
X018569Y030777D01*
X018569Y030936D02*
X010647Y030936D01*
X010686Y031094D02*
X018569Y031094D01*
X018553Y031253D02*
X010647Y031253D01*
X010547Y031411D02*
X018529Y031411D01*
X018571Y031570D02*
X010547Y031570D01*
X010547Y031728D02*
X018718Y031728D01*
X019120Y031728D02*
X024547Y031728D01*
X024609Y031667D02*
X024609Y031667D01*
X024457Y031887D02*
X010547Y031887D01*
X010547Y032046D02*
X024457Y032046D01*
X025251Y031094D02*
X038207Y031094D01*
X038207Y030936D02*
X025410Y030936D01*
X025568Y030777D02*
X038207Y030777D01*
X038207Y030619D02*
X025727Y030619D01*
X025885Y030460D02*
X038207Y030460D01*
X038207Y030302D02*
X026044Y030302D01*
X026202Y030143D02*
X038207Y030143D01*
X038207Y029984D02*
X026361Y029984D01*
X026519Y029826D02*
X038207Y029826D01*
X038207Y029667D02*
X026678Y029667D01*
X026836Y029509D02*
X038207Y029509D01*
X038207Y029350D02*
X026995Y029350D01*
X027078Y029192D02*
X038207Y029192D01*
X038207Y029033D02*
X027078Y029033D01*
X027078Y028875D02*
X038207Y028875D01*
X038207Y028716D02*
X027078Y028716D01*
X027078Y028558D02*
X038207Y028558D01*
X038207Y028399D02*
X027078Y028399D01*
X027078Y028241D02*
X038207Y028241D01*
X038207Y028082D02*
X027078Y028082D01*
X027078Y027923D02*
X038207Y027923D01*
X038207Y027765D02*
X027078Y027765D01*
X027078Y027606D02*
X038207Y027606D01*
X038207Y027448D02*
X027078Y027448D01*
X027078Y027289D02*
X038207Y027289D01*
X038207Y027131D02*
X027078Y027131D01*
X027078Y026972D02*
X038207Y026972D01*
X038207Y026814D02*
X027078Y026814D01*
X027078Y026655D02*
X038207Y026655D01*
X038207Y026497D02*
X027078Y026497D01*
X027078Y026338D02*
X027082Y026338D01*
X027488Y026338D02*
X028263Y026338D01*
X028279Y026355D02*
X028186Y026262D01*
X028136Y026140D01*
X028136Y026009D01*
X028138Y026004D01*
X028138Y025929D01*
X028050Y025929D01*
X027962Y025842D01*
X027962Y025324D01*
X028050Y025236D01*
X028607Y025236D01*
X028642Y025271D01*
X028707Y025206D01*
X028979Y025206D01*
X028979Y025564D01*
X029016Y025564D01*
X029016Y025206D01*
X029217Y025206D01*
X029218Y025204D01*
X029491Y025204D01*
X029491Y025562D01*
X029528Y025562D01*
X029528Y025204D01*
X029801Y025204D01*
X029865Y025269D01*
X029900Y025234D01*
X030457Y025234D01*
X030545Y025322D01*
X030545Y025840D01*
X030457Y025928D01*
X030436Y025928D01*
X030469Y026009D01*
X030469Y026140D01*
X030419Y026262D01*
X030326Y026355D01*
X030205Y026405D01*
X030074Y026405D01*
X029952Y026355D01*
X029860Y026262D01*
X029809Y026140D01*
X029809Y026009D01*
X029852Y025906D01*
X029801Y025958D01*
X029528Y025958D01*
X029528Y025600D01*
X029491Y025600D01*
X029491Y025958D01*
X029290Y025958D01*
X029289Y025959D01*
X029016Y025959D01*
X029016Y025601D01*
X029113Y025601D01*
X029113Y025600D01*
X029491Y025600D01*
X029491Y025563D01*
X029394Y025563D01*
X029394Y025564D01*
X029016Y025564D01*
X029016Y025601D01*
X028979Y025601D01*
X028979Y025959D01*
X028776Y025959D01*
X028796Y026009D01*
X028796Y026140D01*
X028746Y026262D01*
X028653Y026355D01*
X028532Y026405D01*
X028400Y026405D01*
X028279Y026355D01*
X028152Y026179D02*
X027599Y026179D01*
X027615Y026021D02*
X028136Y026021D01*
X027983Y025862D02*
X027670Y025862D01*
X027730Y025704D02*
X027962Y025704D01*
X027962Y025545D02*
X027730Y025545D01*
X027730Y025387D02*
X027962Y025387D01*
X027714Y025228D02*
X028684Y025228D01*
X028979Y025228D02*
X029016Y025228D01*
X029016Y025387D02*
X028979Y025387D01*
X028979Y025545D02*
X029016Y025545D01*
X029016Y025704D02*
X028979Y025704D01*
X028979Y025862D02*
X029016Y025862D01*
X028796Y026021D02*
X029809Y026021D01*
X029826Y026179D02*
X028780Y026179D01*
X028670Y026338D02*
X029936Y026338D01*
X030343Y026338D02*
X038207Y026338D01*
X038207Y026179D02*
X030453Y026179D01*
X030469Y026021D02*
X038207Y026021D01*
X038207Y025862D02*
X030523Y025862D01*
X030545Y025704D02*
X038207Y025704D01*
X038207Y025545D02*
X030545Y025545D01*
X030545Y025387D02*
X038207Y025387D01*
X038207Y025228D02*
X033298Y025228D01*
X033158Y025369D02*
X032927Y025369D01*
X032927Y024784D01*
X032887Y024784D01*
X032887Y025369D01*
X032656Y025369D01*
X032302Y025014D01*
X032302Y024784D01*
X032887Y024784D01*
X032887Y024744D01*
X032302Y024744D01*
X032302Y024513D01*
X032656Y024159D01*
X032887Y024159D01*
X032887Y024744D01*
X032927Y024744D01*
X032927Y024784D01*
X033512Y024784D01*
X033512Y025014D01*
X033158Y025369D01*
X032927Y025228D02*
X032887Y025228D01*
X032887Y025070D02*
X032927Y025070D01*
X032927Y024911D02*
X032887Y024911D01*
X032887Y024753D02*
X027760Y024753D01*
X027760Y024836D02*
X027402Y024836D01*
X027402Y024458D01*
X027655Y024458D01*
X027760Y024563D01*
X027760Y024836D01*
X027760Y024911D02*
X032302Y024911D01*
X032357Y025070D02*
X027760Y025070D01*
X027402Y024753D02*
X027365Y024753D01*
X027365Y024594D02*
X027402Y024594D01*
X027760Y024594D02*
X032302Y024594D01*
X032380Y024435D02*
X027078Y024435D01*
X027078Y024277D02*
X032538Y024277D01*
X032887Y024277D02*
X032927Y024277D01*
X032927Y024159D02*
X033158Y024159D01*
X033512Y024513D01*
X033512Y024744D01*
X032927Y024744D01*
X032927Y024159D01*
X032927Y024435D02*
X032887Y024435D01*
X032887Y024594D02*
X032927Y024594D01*
X032927Y024753D02*
X038207Y024753D01*
X038207Y024911D02*
X033512Y024911D01*
X033457Y025070D02*
X038207Y025070D01*
X038207Y024594D02*
X033512Y024594D01*
X033434Y024435D02*
X038207Y024435D01*
X038207Y024277D02*
X033276Y024277D01*
X032516Y025228D02*
X029824Y025228D01*
X029528Y025228D02*
X029491Y025228D01*
X029491Y025387D02*
X029528Y025387D01*
X029528Y025545D02*
X029491Y025545D01*
X029491Y025704D02*
X029528Y025704D01*
X029528Y025862D02*
X029491Y025862D01*
X029396Y023746D02*
X029331Y023681D01*
X029296Y023716D01*
X028739Y023716D01*
X028733Y023710D01*
X028698Y023746D01*
X028426Y023746D01*
X028426Y023388D01*
X028389Y023388D01*
X028389Y023746D01*
X028116Y023746D01*
X028051Y023681D01*
X028016Y023716D01*
X027459Y023716D01*
X027371Y023628D01*
X027371Y023110D01*
X027459Y023022D01*
X027548Y023022D01*
X027548Y022948D01*
X027546Y022942D01*
X027546Y022811D01*
X027596Y022690D01*
X027689Y022597D01*
X027810Y022547D01*
X027941Y022547D01*
X028062Y022597D01*
X028155Y022690D01*
X028206Y022811D01*
X028206Y022942D01*
X028185Y022992D01*
X028389Y022992D01*
X028389Y023350D01*
X028426Y023350D01*
X028426Y022992D01*
X028698Y022992D01*
X028733Y023027D01*
X028739Y023022D01*
X028760Y023022D01*
X028727Y022942D01*
X028727Y022811D01*
X028777Y022690D01*
X028870Y022597D01*
X028991Y022547D01*
X029122Y022547D01*
X029244Y022597D01*
X029336Y022690D01*
X029387Y022811D01*
X029387Y022942D01*
X029345Y023042D01*
X029396Y022992D01*
X029668Y022992D01*
X029668Y023350D01*
X029705Y023350D01*
X029705Y022992D01*
X029978Y022992D01*
X030083Y023097D01*
X030083Y023350D01*
X029705Y023350D01*
X029705Y023387D01*
X030083Y023387D01*
X030083Y023640D01*
X029978Y023746D01*
X029705Y023746D01*
X029705Y023388D01*
X029668Y023388D01*
X029668Y023746D01*
X029396Y023746D01*
X029668Y023643D02*
X029705Y023643D01*
X029705Y023484D02*
X029668Y023484D01*
X029668Y023326D02*
X029705Y023326D01*
X029705Y023167D02*
X029668Y023167D01*
X029668Y023009D02*
X029705Y023009D01*
X029994Y023009D02*
X038207Y023009D01*
X038207Y023167D02*
X030083Y023167D01*
X030083Y023326D02*
X038207Y023326D01*
X038207Y023484D02*
X030083Y023484D01*
X030081Y023643D02*
X038207Y023643D01*
X038207Y023801D02*
X027078Y023801D01*
X027078Y023643D02*
X027386Y023643D01*
X027371Y023484D02*
X027078Y023484D01*
X027078Y023326D02*
X027371Y023326D01*
X027371Y023167D02*
X027078Y023167D01*
X027078Y023009D02*
X027548Y023009D01*
X027546Y022850D02*
X027078Y022850D01*
X027078Y022691D02*
X027595Y022691D01*
X027376Y022374D02*
X038207Y022374D01*
X038207Y022216D02*
X027535Y022216D01*
X027694Y022057D02*
X038207Y022057D01*
X038207Y021899D02*
X027852Y021899D01*
X027722Y022029D02*
X027722Y022029D01*
X028011Y021740D02*
X038207Y021740D01*
X038207Y021582D02*
X028062Y021582D01*
X028062Y021423D02*
X038207Y021423D01*
X038207Y021265D02*
X028062Y021265D01*
X028062Y021106D02*
X038207Y021106D01*
X038207Y020948D02*
X028062Y020948D01*
X028062Y020789D02*
X038207Y020789D01*
X038207Y020630D02*
X028062Y020630D01*
X028062Y020472D02*
X038207Y020472D01*
X038207Y020313D02*
X028062Y020313D01*
X028062Y020155D02*
X029364Y020155D01*
X029242Y019996D02*
X028062Y019996D01*
X028062Y019838D02*
X029219Y019838D01*
X029277Y019679D02*
X028557Y019679D01*
X028557Y019521D02*
X029241Y019521D01*
X029241Y019362D02*
X028557Y019362D01*
X028557Y019204D02*
X029241Y019204D01*
X029319Y019045D02*
X028569Y019045D01*
X028587Y018886D02*
X031681Y018886D01*
X031714Y018594D02*
X030730Y018594D01*
X030730Y018496D01*
X030533Y018201D01*
X030435Y018102D01*
X030336Y017709D01*
X030238Y017413D01*
X030041Y017217D01*
X030041Y017118D01*
X029943Y017020D01*
X030041Y016724D01*
X030139Y017217D01*
X029872Y017618D02*
X028062Y017618D01*
X028062Y017777D02*
X028916Y017777D01*
X028826Y017935D02*
X028062Y017935D01*
X028062Y018094D02*
X028835Y018094D01*
X028932Y018252D02*
X028062Y018252D01*
X028229Y018340D02*
X028229Y018718D01*
X028587Y018718D01*
X028587Y018445D01*
X028482Y018340D01*
X028229Y018340D01*
X028229Y018411D02*
X028192Y018411D01*
X028192Y018569D02*
X028229Y018569D01*
X028229Y018728D02*
X028920Y018728D01*
X028828Y018569D02*
X028587Y018569D01*
X028553Y018411D02*
X028833Y018411D01*
X029390Y018728D02*
X030538Y018728D01*
X030500Y018569D02*
X030327Y018569D01*
X030371Y018411D02*
X030397Y018411D01*
X030767Y018137D02*
X030909Y018349D01*
X030924Y018364D01*
X031809Y018364D01*
X031944Y018499D01*
X032202Y018757D01*
X032272Y018757D01*
X032393Y018807D01*
X032450Y018864D01*
X032450Y018463D01*
X032420Y018433D01*
X032420Y018160D01*
X032778Y018160D01*
X032778Y018123D01*
X032420Y018123D01*
X032420Y017851D01*
X032485Y017786D01*
X032450Y017751D01*
X032450Y017735D01*
X032393Y017792D01*
X032272Y017842D01*
X032141Y017842D01*
X032019Y017792D01*
X031927Y017699D01*
X031876Y017577D01*
X031876Y017446D01*
X031916Y017350D01*
X031552Y016986D01*
X031552Y016987D01*
X031502Y017108D01*
X031409Y017201D01*
X031314Y017240D01*
X031314Y017727D01*
X031403Y017817D01*
X031454Y017938D01*
X031454Y018070D01*
X031403Y018191D01*
X031311Y018284D01*
X031189Y018334D01*
X031058Y018334D01*
X030937Y018284D01*
X030844Y018191D01*
X030818Y018128D01*
X030796Y018137D01*
X030767Y018137D01*
X030844Y018252D02*
X030905Y018252D01*
X031342Y018252D02*
X032420Y018252D01*
X032420Y018094D02*
X031444Y018094D01*
X031452Y017935D02*
X032420Y017935D01*
X032408Y017777D02*
X032476Y017777D01*
X032206Y017512D02*
X032206Y017315D01*
X031616Y016724D01*
X031616Y016528D01*
X032305Y016528D01*
X032440Y016829D02*
X032370Y016858D01*
X032239Y016858D01*
X032118Y016807D01*
X032068Y016758D01*
X031974Y016758D01*
X032436Y017220D01*
X032436Y017275D01*
X032450Y017289D01*
X032450Y017194D01*
X032457Y017187D01*
X032440Y017169D01*
X032440Y016896D01*
X032798Y016896D01*
X032798Y016859D01*
X032440Y016859D01*
X032440Y016829D01*
X032440Y016984D02*
X032200Y016984D01*
X032162Y016825D02*
X032042Y016825D01*
X032359Y017142D02*
X032440Y017142D01*
X031867Y017301D02*
X031314Y017301D01*
X031314Y017460D02*
X031876Y017460D01*
X031893Y017618D02*
X031314Y017618D01*
X031363Y017777D02*
X032004Y017777D01*
X031856Y018411D02*
X032420Y018411D01*
X032450Y018569D02*
X032014Y018569D01*
X032173Y018728D02*
X032450Y018728D01*
X032206Y019087D02*
X031714Y018594D01*
X031923Y019362D02*
X032015Y019362D01*
X031923Y019521D02*
X032420Y019521D01*
X032420Y019614D02*
X032420Y019341D01*
X032778Y019341D01*
X032778Y019719D01*
X032525Y019719D01*
X032420Y019614D01*
X032485Y019679D02*
X031888Y019679D01*
X031946Y019838D02*
X038207Y019838D01*
X038207Y019996D02*
X031922Y019996D01*
X031800Y020155D02*
X038207Y020155D01*
X038207Y019679D02*
X033108Y019679D01*
X033174Y019521D02*
X038207Y019521D01*
X038207Y019362D02*
X033174Y019362D01*
X033174Y019204D02*
X038207Y019204D01*
X038207Y019045D02*
X033174Y019045D01*
X033562Y018886D02*
X038207Y018886D01*
X038207Y018728D02*
X033619Y018728D01*
X033595Y018569D02*
X038207Y018569D01*
X038207Y018411D02*
X033470Y018411D01*
X033174Y018252D02*
X038207Y018252D01*
X038207Y018094D02*
X033174Y018094D01*
X033174Y017935D02*
X038207Y017935D01*
X038207Y017777D02*
X033688Y017777D01*
X033799Y017618D02*
X038207Y017618D01*
X038207Y017460D02*
X033816Y017460D01*
X033742Y017301D02*
X038207Y017301D01*
X038207Y017142D02*
X033193Y017142D01*
X033193Y016984D02*
X038207Y016984D01*
X038207Y016825D02*
X033629Y016825D01*
X033785Y016667D02*
X038207Y016667D01*
X038207Y016508D02*
X033816Y016508D01*
X033769Y016350D02*
X038207Y016350D01*
X038207Y016191D02*
X033163Y016191D01*
X033163Y016033D02*
X038207Y016033D01*
X038207Y015874D02*
X033449Y015874D01*
X033521Y015716D02*
X038207Y015716D01*
X038207Y015557D02*
X033502Y015557D01*
X033389Y015399D02*
X038207Y015399D01*
X038207Y015240D02*
X032977Y015240D01*
X032977Y015081D02*
X038207Y015081D01*
X038207Y014923D02*
X032977Y014923D01*
X032977Y014764D02*
X038207Y014764D01*
X038207Y014606D02*
X033512Y014606D01*
X033611Y014447D02*
X038207Y014447D01*
X038207Y014289D02*
X033616Y014289D01*
X033524Y014130D02*
X038207Y014130D01*
X038207Y013972D02*
X033193Y013972D01*
X033193Y013813D02*
X038207Y013813D01*
X038207Y013655D02*
X033193Y013655D01*
X033193Y013496D02*
X038207Y013496D01*
X038207Y013337D02*
X033105Y013337D01*
X033044Y013179D02*
X038207Y013179D01*
X038207Y013020D02*
X033127Y013020D01*
X033113Y012862D02*
X038207Y012862D01*
X038207Y012703D02*
X033052Y012703D01*
X033127Y012545D02*
X038207Y012545D01*
X038207Y012386D02*
X033110Y012386D01*
X033233Y012228D02*
X038207Y012228D01*
X038207Y012069D02*
X033233Y012069D01*
X033233Y011911D02*
X038207Y011911D01*
X038207Y011752D02*
X033233Y011752D01*
X032837Y011946D02*
X032640Y011946D01*
X032652Y011958D01*
X032652Y011983D01*
X032837Y011983D01*
X032837Y011946D01*
X032521Y011585D02*
X032323Y011585D01*
X032323Y011548D01*
X032509Y011548D01*
X032509Y011574D01*
X032521Y011585D01*
X032286Y011585D02*
X032286Y011548D01*
X031928Y011548D01*
X031928Y011276D01*
X032001Y011203D01*
X031919Y011121D01*
X031919Y011109D01*
X031912Y011116D01*
X031784Y011169D01*
X031645Y011169D01*
X031516Y011116D01*
X031454Y011053D01*
X031454Y011077D01*
X031510Y011134D01*
X031510Y011291D01*
X031510Y011526D01*
X031600Y011616D01*
X031650Y011737D01*
X031650Y011869D01*
X031610Y011967D01*
X031613Y011967D01*
X031747Y012102D01*
X031788Y012142D01*
X031882Y012142D01*
X031958Y012174D01*
X031958Y011958D01*
X031993Y011923D01*
X031928Y011858D01*
X031928Y011585D01*
X032286Y011585D01*
X031928Y011593D02*
X031577Y011593D01*
X031510Y011435D02*
X031928Y011435D01*
X031928Y011276D02*
X031510Y011276D01*
X031494Y011118D02*
X031521Y011118D01*
X031517Y010819D02*
X031320Y010622D01*
X029943Y010622D01*
X029943Y010425D02*
X029254Y009933D01*
X032108Y009047D01*
X032425Y008898D02*
X032877Y008898D01*
X032877Y008891D02*
X032518Y008891D01*
X032518Y008618D01*
X032624Y008513D01*
X032877Y008513D01*
X032877Y008891D01*
X032914Y008891D02*
X032914Y008513D01*
X033167Y008513D01*
X033272Y008618D01*
X033272Y008891D01*
X032914Y008891D01*
X032914Y008898D02*
X038207Y008898D01*
X038207Y008740D02*
X033272Y008740D01*
X033235Y008581D02*
X038207Y008581D01*
X038207Y008423D02*
X032371Y008423D01*
X032371Y008581D02*
X032556Y008581D01*
X032518Y008740D02*
X032300Y008740D01*
X032371Y008264D02*
X038207Y008264D01*
X038207Y008106D02*
X032350Y008106D01*
X032136Y007947D02*
X038207Y007947D01*
X038207Y007788D02*
X032138Y007788D01*
X032043Y007630D02*
X038207Y007630D01*
X038207Y007471D02*
X016987Y007471D01*
X016979Y007630D02*
X031582Y007630D01*
X031326Y007788D02*
X029538Y007788D01*
X029533Y007778D02*
X029584Y007899D01*
X029584Y008030D01*
X029563Y008080D01*
X029782Y008080D01*
X029782Y008438D01*
X029819Y008438D01*
X029819Y008080D01*
X030092Y008080D01*
X030197Y008185D01*
X030197Y008438D01*
X029819Y008438D01*
X029819Y008475D01*
X029782Y008475D01*
X029782Y008834D01*
X029510Y008834D01*
X029445Y008769D01*
X029410Y008804D01*
X028853Y008804D01*
X028819Y008769D01*
X028784Y008804D01*
X028227Y008804D01*
X028192Y008769D01*
X028127Y008834D01*
X027855Y008834D01*
X027855Y008475D01*
X027818Y008475D01*
X027818Y008834D01*
X027545Y008834D01*
X027440Y008728D01*
X027440Y008475D01*
X027818Y008475D01*
X027818Y008438D01*
X027855Y008438D01*
X027855Y008080D01*
X028127Y008080D01*
X028178Y008130D01*
X028136Y008030D01*
X028136Y007899D01*
X028186Y007778D01*
X028279Y007685D01*
X028400Y007635D01*
X028532Y007635D01*
X028653Y007685D01*
X028746Y007778D01*
X028796Y007899D01*
X028796Y008030D01*
X028763Y008110D01*
X028784Y008110D01*
X028819Y008144D01*
X028853Y008110D01*
X028957Y008110D01*
X028924Y008030D01*
X028924Y007899D01*
X028974Y007778D01*
X029067Y007685D01*
X029188Y007635D01*
X029319Y007635D01*
X029440Y007685D01*
X029533Y007778D01*
X029584Y007947D02*
X031168Y007947D01*
X030971Y008106D02*
X030118Y008106D01*
X030197Y008264D02*
X030938Y008264D01*
X030938Y008423D02*
X030197Y008423D01*
X030197Y008475D02*
X030197Y008728D01*
X030092Y008834D01*
X029819Y008834D01*
X029819Y008475D01*
X030197Y008475D01*
X030197Y008581D02*
X030938Y008581D01*
X031021Y008740D02*
X030186Y008740D01*
X029819Y008740D02*
X029782Y008740D01*
X029782Y008581D02*
X029819Y008581D01*
X029819Y008423D02*
X029782Y008423D01*
X029782Y008264D02*
X029819Y008264D01*
X029819Y008106D02*
X029782Y008106D01*
X028955Y008106D02*
X028765Y008106D01*
X028796Y007947D02*
X028924Y007947D01*
X028969Y007788D02*
X028750Y007788D01*
X028182Y007788D02*
X027176Y007788D01*
X027221Y007947D02*
X028136Y007947D01*
X028153Y008106D02*
X028167Y008106D01*
X027855Y008106D02*
X027818Y008106D01*
X027818Y008080D02*
X027818Y008438D01*
X027440Y008438D01*
X027440Y008185D01*
X027545Y008080D01*
X027818Y008080D01*
X027818Y008264D02*
X027855Y008264D01*
X027855Y008423D02*
X027818Y008423D01*
X027818Y008581D02*
X027855Y008581D01*
X027855Y008740D02*
X027818Y008740D01*
X027451Y008740D02*
X027257Y008740D01*
X027281Y008581D02*
X027440Y008581D01*
X027440Y008423D02*
X027281Y008423D01*
X027281Y008264D02*
X027440Y008264D01*
X027519Y008106D02*
X027190Y008106D01*
X026593Y008106D02*
X026562Y008106D01*
X026561Y007947D02*
X025548Y007947D01*
X025548Y007899D02*
X025548Y008030D01*
X025498Y008151D01*
X025489Y008161D01*
X025526Y008198D01*
X025526Y008716D01*
X025438Y008804D01*
X024880Y008804D01*
X024846Y008769D01*
X024781Y008834D01*
X024508Y008834D01*
X024508Y008475D01*
X024471Y008475D01*
X024471Y008438D01*
X024093Y008438D01*
X024093Y008185D01*
X024199Y008080D01*
X024471Y008080D01*
X024471Y008438D01*
X024508Y008438D01*
X024508Y008080D01*
X024781Y008080D01*
X024846Y008145D01*
X024880Y008110D01*
X024921Y008110D01*
X024888Y008030D01*
X024888Y007899D01*
X024938Y007778D01*
X025031Y007685D01*
X025152Y007635D01*
X025284Y007635D01*
X025405Y007685D01*
X025498Y007778D01*
X025548Y007899D01*
X025502Y007788D02*
X026607Y007788D01*
X026264Y008106D02*
X026227Y008106D01*
X026227Y008080D02*
X026227Y008438D01*
X025849Y008438D01*
X025849Y008185D01*
X025955Y008080D01*
X026227Y008080D01*
X026227Y008264D02*
X026264Y008264D01*
X026264Y008423D02*
X026227Y008423D01*
X026227Y008475D02*
X025849Y008475D01*
X025849Y008728D01*
X025955Y008834D01*
X026227Y008834D01*
X026227Y008475D01*
X026227Y008581D02*
X026264Y008581D01*
X026264Y008740D02*
X026227Y008740D01*
X025861Y008740D02*
X025502Y008740D01*
X025526Y008581D02*
X025849Y008581D01*
X025849Y008423D02*
X025526Y008423D01*
X025526Y008264D02*
X025849Y008264D01*
X025929Y008106D02*
X025517Y008106D01*
X024919Y008106D02*
X024806Y008106D01*
X024888Y007947D02*
X023580Y007947D01*
X023548Y008106D02*
X024173Y008106D01*
X024093Y008264D02*
X023655Y008264D01*
X023655Y008423D02*
X024093Y008423D01*
X024093Y008475D02*
X024471Y008475D01*
X024471Y008834D01*
X024199Y008834D01*
X024093Y008728D01*
X024093Y008475D01*
X024093Y008581D02*
X023655Y008581D01*
X023631Y008740D02*
X024105Y008740D01*
X024471Y008740D02*
X024508Y008740D01*
X024508Y008581D02*
X024471Y008581D01*
X024471Y008423D02*
X024508Y008423D01*
X024508Y008264D02*
X024471Y008264D01*
X024471Y008106D02*
X024508Y008106D01*
X024934Y007788D02*
X023534Y007788D01*
X022965Y007788D02*
X016911Y007788D01*
X016716Y007947D02*
X022920Y007947D01*
X022936Y008106D02*
X022951Y008106D01*
X022638Y008106D02*
X022601Y008106D01*
X022601Y008264D02*
X022638Y008264D01*
X022638Y008423D02*
X022601Y008423D01*
X022601Y008581D02*
X022638Y008581D01*
X022638Y008740D02*
X022601Y008740D01*
X022954Y009539D02*
X023250Y009539D01*
X024135Y010425D01*
X023840Y010425D01*
X023742Y010425D01*
X023235Y009849D02*
X023120Y009849D01*
X023568Y009532D02*
X026661Y009532D01*
X026625Y009374D02*
X023409Y009374D01*
X021750Y009849D02*
X021661Y009849D01*
X021692Y009691D02*
X016953Y009691D01*
X016839Y010167D02*
X021078Y010167D01*
X021226Y010325D02*
X016948Y010325D01*
X016987Y010484D02*
X021757Y010484D01*
X021722Y010008D02*
X021709Y010008D01*
X023840Y011902D02*
X023939Y011902D01*
X023260Y013179D02*
X023052Y013179D01*
X021889Y013179D02*
X021524Y013179D01*
X021805Y013337D02*
X021889Y013337D01*
X026891Y010031D02*
X026891Y009146D01*
X026644Y008898D02*
X016755Y008898D01*
X016943Y007313D02*
X038207Y007313D01*
X038207Y009057D02*
X034919Y009057D01*
X035304Y009215D02*
X038207Y009215D01*
X038207Y009374D02*
X035399Y009374D01*
X035407Y009532D02*
X038207Y009532D01*
X038207Y009691D02*
X035325Y009691D01*
X035468Y010008D02*
X032642Y010008D01*
X032284Y010167D02*
X033082Y010167D01*
X033278Y010642D02*
X038207Y010642D01*
X038207Y010484D02*
X035982Y010484D01*
X036057Y010325D02*
X038207Y010325D01*
X038207Y010167D02*
X036046Y010167D01*
X035946Y010008D02*
X038207Y010008D01*
X038207Y009849D02*
X033741Y009849D01*
X033816Y009691D02*
X034789Y009691D01*
X034707Y009532D02*
X033799Y009532D01*
X032914Y008740D02*
X032877Y008740D01*
X032877Y008581D02*
X032914Y008581D01*
X031791Y008898D02*
X029333Y008898D01*
X029174Y008898D02*
X027139Y008898D01*
X027233Y009057D02*
X028952Y009057D01*
X028904Y009215D02*
X027241Y009215D01*
X027158Y009374D02*
X028928Y009374D01*
X029024Y009532D02*
X027121Y009532D01*
X026891Y010031D02*
X026990Y010130D01*
X029254Y010130D02*
X029254Y009933D01*
X029254Y009244D01*
X029579Y009374D02*
X030280Y009374D01*
X030790Y009215D02*
X029604Y009215D01*
X029555Y009057D02*
X031301Y009057D01*
X031588Y008740D02*
X031648Y008740D01*
X031552Y009926D02*
X031606Y009949D01*
X031699Y010041D01*
X031749Y010163D01*
X031749Y010181D01*
X031857Y010235D01*
X031889Y010235D01*
X031889Y010192D01*
X032247Y010192D01*
X032247Y010155D01*
X031889Y010155D01*
X031889Y009926D01*
X031552Y009926D01*
X031665Y010008D02*
X031889Y010008D01*
X031749Y010167D02*
X032247Y010167D01*
X031714Y010819D02*
X031517Y010819D01*
X031907Y011118D02*
X031919Y011118D01*
X031928Y011752D02*
X031650Y011752D01*
X031633Y011911D02*
X031980Y011911D01*
X031958Y012069D02*
X031715Y012069D01*
X031517Y012197D02*
X029943Y012197D01*
X030139Y012492D02*
X030041Y012591D01*
X029943Y012591D01*
X030522Y013637D02*
X030522Y014122D01*
X030522Y014132D01*
X031671Y014132D01*
X031737Y014065D01*
X031866Y014012D01*
X032005Y014012D01*
X032134Y014065D01*
X032232Y014164D01*
X032286Y014293D01*
X032286Y014432D01*
X032232Y014560D01*
X032221Y014571D01*
X032297Y014647D01*
X032329Y014615D01*
X032470Y014615D01*
X032470Y014107D01*
X032504Y014072D01*
X032440Y014008D01*
X032440Y013912D01*
X032323Y013912D01*
X032323Y013534D01*
X032286Y013534D01*
X032286Y013497D01*
X031928Y013497D01*
X031928Y013225D01*
X031993Y013160D01*
X031958Y013125D01*
X031958Y012811D01*
X031882Y012842D01*
X031743Y012842D01*
X031614Y012789D01*
X031531Y012706D01*
X031502Y012777D01*
X031409Y012870D01*
X031314Y012910D01*
X031314Y013452D01*
X031409Y013492D01*
X031502Y013585D01*
X031552Y013706D01*
X031552Y013837D01*
X031502Y013959D01*
X031409Y014051D01*
X031288Y014102D01*
X031156Y014102D01*
X031035Y014051D01*
X030942Y013959D01*
X030892Y013837D01*
X030892Y013706D01*
X030911Y013660D01*
X030796Y013708D01*
X030664Y013708D01*
X030543Y013658D01*
X030522Y013637D01*
X030522Y013655D02*
X030540Y013655D01*
X030522Y013813D02*
X030892Y013813D01*
X030955Y013972D02*
X030522Y013972D01*
X030522Y014130D02*
X031673Y014130D01*
X031489Y013972D02*
X032440Y013972D01*
X032470Y014130D02*
X032199Y014130D01*
X032284Y014289D02*
X032470Y014289D01*
X032470Y014447D02*
X032279Y014447D01*
X032256Y014606D02*
X032470Y014606D01*
X032009Y014854D02*
X029943Y014854D01*
X030041Y014756D01*
X029943Y014756D01*
X029943Y014362D02*
X031936Y014362D01*
X032033Y013912D02*
X031928Y013807D01*
X031928Y013534D01*
X032286Y013534D01*
X032286Y013912D01*
X032033Y013912D01*
X031934Y013813D02*
X031552Y013813D01*
X031531Y013655D02*
X031928Y013655D01*
X031928Y013496D02*
X031413Y013496D01*
X031314Y013337D02*
X031928Y013337D01*
X031974Y013179D02*
X031314Y013179D01*
X031314Y013020D02*
X031958Y013020D01*
X031958Y012862D02*
X031417Y012862D01*
X031813Y012492D02*
X031517Y012197D01*
X032798Y013337D02*
X032835Y013337D01*
X032835Y013496D02*
X032798Y013496D01*
X032798Y013655D02*
X032835Y013655D01*
X032323Y013655D02*
X032286Y013655D01*
X032286Y013813D02*
X032323Y013813D01*
X032943Y015399D02*
X032992Y015399D01*
X031616Y016528D02*
X029943Y016528D01*
X029737Y017777D02*
X029394Y017777D01*
X029896Y019045D02*
X029946Y019045D01*
X030259Y019045D02*
X030296Y019045D01*
X030296Y019204D02*
X030259Y019204D01*
X030259Y019362D02*
X030296Y019362D01*
X030296Y019521D02*
X030259Y019521D01*
X030259Y019679D02*
X030296Y019679D01*
X030648Y019679D02*
X031344Y019679D01*
X031286Y019838D02*
X029879Y019838D01*
X029855Y019996D02*
X031309Y019996D01*
X031431Y020155D02*
X029733Y020155D01*
X030869Y019521D02*
X030906Y019521D01*
X030906Y019362D02*
X030869Y019362D01*
X030869Y019204D02*
X030906Y019204D01*
X030906Y019045D02*
X030869Y019045D01*
X032397Y019362D02*
X032420Y019362D01*
X032778Y019362D02*
X032815Y019362D01*
X032815Y019521D02*
X032778Y019521D01*
X032778Y019679D02*
X032815Y019679D01*
X033118Y017777D02*
X033284Y017777D01*
X033230Y017301D02*
X033144Y017301D01*
X033193Y016825D02*
X033343Y016825D01*
X031709Y017142D02*
X031467Y017142D01*
X029943Y014362D02*
X029844Y014362D01*
X033203Y011118D02*
X033229Y011118D01*
X033293Y010959D02*
X038207Y010959D01*
X038207Y010801D02*
X033324Y010801D01*
X033546Y011118D02*
X038207Y011118D01*
X038207Y011276D02*
X033689Y011276D01*
X033717Y011435D02*
X038207Y011435D01*
X038207Y011593D02*
X033668Y011593D01*
X029769Y009532D02*
X029484Y009532D01*
X029818Y004714D02*
X029652Y004645D01*
X029526Y004519D01*
X029457Y004353D01*
X029457Y004174D01*
X029526Y004009D01*
X029652Y003882D01*
X029818Y003814D01*
X029997Y003814D01*
X030162Y003882D01*
X030289Y004009D01*
X030357Y004174D01*
X030357Y004353D01*
X030289Y004519D01*
X030162Y004645D01*
X029997Y004714D01*
X029818Y004714D01*
X029624Y004618D02*
X029190Y004618D01*
X029162Y004645D02*
X028997Y004714D01*
X028818Y004714D01*
X028652Y004645D01*
X028526Y004519D01*
X028457Y004353D01*
X028457Y004174D01*
X028526Y004009D01*
X028652Y003882D01*
X028818Y003814D01*
X028997Y003814D01*
X029162Y003882D01*
X029289Y004009D01*
X029357Y004174D01*
X029357Y004353D01*
X029289Y004519D01*
X029162Y004645D01*
X029313Y004459D02*
X029501Y004459D01*
X029457Y004300D02*
X029357Y004300D01*
X029344Y004142D02*
X029470Y004142D01*
X029551Y003983D02*
X029263Y003983D01*
X029023Y003825D02*
X029791Y003825D01*
X029818Y003714D02*
X029652Y003645D01*
X029526Y003519D01*
X029457Y003353D01*
X029457Y003174D01*
X029526Y003009D01*
X029652Y002882D01*
X029818Y002814D01*
X029997Y002814D01*
X030162Y002882D01*
X030289Y003009D01*
X030357Y003174D01*
X030357Y003353D01*
X030289Y003519D01*
X030162Y003645D01*
X029997Y003714D01*
X029818Y003714D01*
X029703Y003666D02*
X029111Y003666D01*
X029162Y003645D02*
X028997Y003714D01*
X028818Y003714D01*
X028652Y003645D01*
X028526Y003519D01*
X028457Y003353D01*
X028457Y003174D01*
X028526Y003009D01*
X028652Y002882D01*
X028818Y002814D01*
X028997Y002814D01*
X029162Y002882D01*
X029289Y003009D01*
X029357Y003174D01*
X029357Y003353D01*
X029289Y003519D01*
X029162Y003645D01*
X029293Y003508D02*
X029521Y003508D01*
X029457Y003349D02*
X029357Y003349D01*
X029357Y003191D02*
X029457Y003191D01*
X029516Y003032D02*
X029298Y003032D01*
X029141Y002874D02*
X029673Y002874D01*
X030141Y002874D02*
X030673Y002874D01*
X030652Y002882D02*
X030818Y002814D01*
X030997Y002814D01*
X031162Y002882D01*
X031289Y003009D01*
X031357Y003174D01*
X031357Y003353D01*
X031289Y003519D01*
X031162Y003645D01*
X030997Y003714D01*
X030818Y003714D01*
X030652Y003645D01*
X030526Y003519D01*
X030457Y003353D01*
X030457Y003174D01*
X030526Y003009D01*
X030652Y002882D01*
X030516Y003032D02*
X030298Y003032D01*
X030357Y003191D02*
X030457Y003191D01*
X030457Y003349D02*
X030357Y003349D01*
X030293Y003508D02*
X030521Y003508D01*
X030703Y003666D02*
X030111Y003666D01*
X030023Y003825D02*
X030791Y003825D01*
X030818Y003814D02*
X030997Y003814D01*
X031162Y003882D01*
X031289Y004009D01*
X031357Y004174D01*
X031357Y004353D01*
X031289Y004519D01*
X031162Y004645D01*
X030997Y004714D01*
X030818Y004714D01*
X030652Y004645D01*
X030526Y004519D01*
X030457Y004353D01*
X030457Y004174D01*
X030526Y004009D01*
X030652Y003882D01*
X030818Y003814D01*
X031023Y003825D02*
X031791Y003825D01*
X031818Y003814D02*
X031997Y003814D01*
X032162Y003882D01*
X032289Y004009D01*
X032357Y004174D01*
X032357Y004353D01*
X032289Y004519D01*
X032162Y004645D01*
X031997Y004714D01*
X031818Y004714D01*
X031652Y004645D01*
X031526Y004519D01*
X031457Y004353D01*
X031457Y004174D01*
X031526Y004009D01*
X031652Y003882D01*
X031818Y003814D01*
X031818Y003714D02*
X031652Y003645D01*
X031526Y003519D01*
X031457Y003353D01*
X031457Y003174D01*
X031526Y003009D01*
X031652Y002882D01*
X031818Y002814D01*
X031997Y002814D01*
X032162Y002882D01*
X032289Y003009D01*
X032357Y003174D01*
X032357Y003353D01*
X032289Y003519D01*
X032162Y003645D01*
X031997Y003714D01*
X031818Y003714D01*
X031703Y003666D02*
X031111Y003666D01*
X031293Y003508D02*
X031521Y003508D01*
X031457Y003349D02*
X031357Y003349D01*
X031357Y003191D02*
X031457Y003191D01*
X031516Y003032D02*
X031298Y003032D01*
X031141Y002874D02*
X031673Y002874D01*
X032141Y002874D02*
X032618Y002874D01*
X032635Y002857D02*
X032812Y002784D01*
X032887Y002784D01*
X032887Y003244D01*
X032427Y003244D01*
X032427Y003168D01*
X032500Y002992D01*
X032635Y002857D01*
X032483Y003032D02*
X032298Y003032D01*
X032357Y003191D02*
X032427Y003191D01*
X032427Y003284D02*
X032887Y003284D01*
X032887Y003744D01*
X032812Y003744D01*
X032635Y003671D01*
X032500Y003536D01*
X032427Y003359D01*
X032427Y003284D01*
X032427Y003349D02*
X032357Y003349D01*
X032293Y003508D02*
X032489Y003508D01*
X032631Y003666D02*
X032111Y003666D01*
X032023Y003825D02*
X032791Y003825D01*
X032818Y003814D02*
X032997Y003814D01*
X033162Y003882D01*
X033289Y004009D01*
X033357Y004174D01*
X033357Y004353D01*
X033289Y004519D01*
X033162Y004645D01*
X032997Y004714D01*
X032818Y004714D01*
X032652Y004645D01*
X032526Y004519D01*
X032457Y004353D01*
X032457Y004174D01*
X032526Y004009D01*
X032652Y003882D01*
X032818Y003814D01*
X032927Y003744D02*
X032927Y003284D01*
X032887Y003284D01*
X032887Y003244D01*
X032927Y003244D01*
X032927Y003284D01*
X033387Y003284D01*
X033387Y003359D01*
X033314Y003536D01*
X033179Y003671D01*
X033003Y003744D01*
X032927Y003744D01*
X032927Y003666D02*
X032887Y003666D01*
X032887Y003508D02*
X032927Y003508D01*
X032927Y003349D02*
X032887Y003349D01*
X032927Y003244D02*
X033387Y003244D01*
X033387Y003168D01*
X033314Y002992D01*
X033179Y002857D01*
X033003Y002784D01*
X032927Y002784D01*
X032927Y003244D01*
X032927Y003191D02*
X032887Y003191D01*
X032887Y003032D02*
X032927Y003032D01*
X032927Y002874D02*
X032887Y002874D01*
X033196Y002874D02*
X033673Y002874D01*
X033652Y002882D02*
X033818Y002814D01*
X033997Y002814D01*
X034162Y002882D01*
X034289Y003009D01*
X034357Y003174D01*
X034357Y003353D01*
X034289Y003519D01*
X034162Y003645D01*
X033997Y003714D01*
X033818Y003714D01*
X033652Y003645D01*
X033526Y003519D01*
X033457Y003353D01*
X033457Y003174D01*
X033526Y003009D01*
X033652Y002882D01*
X033516Y003032D02*
X033331Y003032D01*
X033387Y003191D02*
X033457Y003191D01*
X033457Y003349D02*
X033387Y003349D01*
X033326Y003508D02*
X033521Y003508D01*
X033703Y003666D02*
X033183Y003666D01*
X033023Y003825D02*
X033791Y003825D01*
X033818Y003814D02*
X033997Y003814D01*
X034162Y003882D01*
X034289Y004009D01*
X034357Y004174D01*
X034357Y004353D01*
X034289Y004519D01*
X034162Y004645D01*
X033997Y004714D01*
X033818Y004714D01*
X033652Y004645D01*
X033526Y004519D01*
X033457Y004353D01*
X033457Y004174D01*
X033526Y004009D01*
X033652Y003882D01*
X033818Y003814D01*
X034023Y003825D02*
X034791Y003825D01*
X034818Y003814D02*
X034997Y003814D01*
X035162Y003882D01*
X035289Y004009D01*
X035357Y004174D01*
X035357Y004353D01*
X035289Y004519D01*
X035162Y004645D01*
X034997Y004714D01*
X034818Y004714D01*
X034652Y004645D01*
X034526Y004519D01*
X034457Y004353D01*
X034457Y004174D01*
X034526Y004009D01*
X034652Y003882D01*
X034818Y003814D01*
X034818Y003714D02*
X034652Y003645D01*
X034526Y003519D01*
X034457Y003353D01*
X034457Y003174D01*
X034526Y003009D01*
X034652Y002882D01*
X034818Y002814D01*
X034997Y002814D01*
X035162Y002882D01*
X035289Y003009D01*
X035357Y003174D01*
X035357Y003353D01*
X035289Y003519D01*
X035162Y003645D01*
X034997Y003714D01*
X034818Y003714D01*
X034703Y003666D02*
X034111Y003666D01*
X034293Y003508D02*
X034521Y003508D01*
X034457Y003349D02*
X034357Y003349D01*
X034357Y003191D02*
X034457Y003191D01*
X034516Y003032D02*
X034298Y003032D01*
X034141Y002874D02*
X034673Y002874D01*
X035141Y002874D02*
X035673Y002874D01*
X035652Y002882D02*
X035818Y002814D01*
X035997Y002814D01*
X036162Y002882D01*
X036289Y003009D01*
X036357Y003174D01*
X036357Y003353D01*
X036289Y003519D01*
X036162Y003645D01*
X035997Y003714D01*
X035818Y003714D01*
X035652Y003645D01*
X035526Y003519D01*
X035457Y003353D01*
X035457Y003174D01*
X035526Y003009D01*
X035652Y002882D01*
X035516Y003032D02*
X035298Y003032D01*
X035357Y003191D02*
X035457Y003191D01*
X035457Y003349D02*
X035357Y003349D01*
X035293Y003508D02*
X035521Y003508D01*
X035703Y003666D02*
X035111Y003666D01*
X035023Y003825D02*
X035791Y003825D01*
X035818Y003814D02*
X035997Y003814D01*
X036162Y003882D01*
X036289Y004009D01*
X036357Y004174D01*
X036357Y004353D01*
X036289Y004519D01*
X036162Y004645D01*
X035997Y004714D01*
X035818Y004714D01*
X035652Y004645D01*
X035526Y004519D01*
X035457Y004353D01*
X035457Y004174D01*
X035526Y004009D01*
X035652Y003882D01*
X035818Y003814D01*
X036023Y003825D02*
X036791Y003825D01*
X036818Y003814D02*
X036997Y003814D01*
X037162Y003882D01*
X037289Y004009D01*
X037357Y004174D01*
X037357Y004353D01*
X037289Y004519D01*
X037162Y004645D01*
X036997Y004714D01*
X036818Y004714D01*
X036652Y004645D01*
X036526Y004519D01*
X036457Y004353D01*
X036457Y004174D01*
X036526Y004009D01*
X036652Y003882D01*
X036818Y003814D01*
X036818Y003714D02*
X036652Y003645D01*
X036526Y003519D01*
X036457Y003353D01*
X036457Y003174D01*
X036526Y003009D01*
X036652Y002882D01*
X036818Y002814D01*
X036997Y002814D01*
X037162Y002882D01*
X037289Y003009D01*
X037357Y003174D01*
X037357Y003353D01*
X037289Y003519D01*
X037162Y003645D01*
X036997Y003714D01*
X036818Y003714D01*
X036703Y003666D02*
X036111Y003666D01*
X036293Y003508D02*
X036521Y003508D01*
X036457Y003349D02*
X036357Y003349D01*
X036357Y003191D02*
X036457Y003191D01*
X036516Y003032D02*
X036298Y003032D01*
X036141Y002874D02*
X036673Y002874D01*
X037141Y002874D02*
X037618Y002874D01*
X037635Y002857D02*
X037812Y002784D01*
X037887Y002784D01*
X037887Y003244D01*
X037427Y003244D01*
X037427Y003168D01*
X037500Y002992D01*
X037635Y002857D01*
X037483Y003032D02*
X037298Y003032D01*
X037357Y003191D02*
X037427Y003191D01*
X037427Y003284D02*
X037887Y003284D01*
X037887Y003744D01*
X037812Y003744D01*
X037635Y003671D01*
X037500Y003536D01*
X037427Y003359D01*
X037427Y003284D01*
X037427Y003349D02*
X037357Y003349D01*
X037293Y003508D02*
X037489Y003508D01*
X037631Y003666D02*
X037111Y003666D01*
X037023Y003825D02*
X037712Y003825D01*
X037887Y003825D02*
X037927Y003825D01*
X037927Y003784D02*
X038003Y003784D01*
X038179Y003857D01*
X038314Y003992D01*
X038387Y004168D01*
X038387Y004244D01*
X037927Y004244D01*
X037927Y003784D01*
X037927Y003744D02*
X037927Y003284D01*
X037887Y003284D01*
X037887Y003244D01*
X037927Y003244D01*
X037927Y003284D01*
X038387Y003284D01*
X038387Y003359D01*
X038314Y003536D01*
X038179Y003671D01*
X038003Y003744D01*
X037927Y003744D01*
X037927Y003666D02*
X037887Y003666D01*
X037887Y003508D02*
X037927Y003508D01*
X037927Y003349D02*
X037887Y003349D01*
X037927Y003244D02*
X038387Y003244D01*
X038387Y003168D01*
X038314Y002992D01*
X038179Y002857D01*
X038003Y002784D01*
X037927Y002784D01*
X037927Y003244D01*
X037927Y003191D02*
X037887Y003191D01*
X037887Y003032D02*
X037927Y003032D01*
X037927Y002874D02*
X037887Y002874D01*
X038196Y002874D02*
X038673Y002874D01*
X038516Y003032D02*
X038331Y003032D01*
X038387Y003191D02*
X038457Y003191D01*
X038457Y003349D02*
X038387Y003349D01*
X038326Y003508D02*
X038521Y003508D01*
X038703Y003666D02*
X038183Y003666D01*
X038102Y003825D02*
X038791Y003825D01*
X039023Y003825D02*
X039095Y003825D01*
X038551Y003983D02*
X038306Y003983D01*
X038376Y004142D02*
X038470Y004142D01*
X037927Y004142D02*
X037887Y004142D01*
X037887Y004300D02*
X037927Y004300D01*
X037927Y004459D02*
X037887Y004459D01*
X037887Y004618D02*
X037927Y004618D01*
X038207Y004776D02*
X016881Y004776D01*
X016951Y004618D02*
X024624Y004618D01*
X024652Y004645D02*
X024526Y004519D01*
X024457Y004353D01*
X024457Y004174D01*
X024526Y004009D01*
X024652Y003882D01*
X024818Y003814D01*
X024997Y003814D01*
X025162Y003882D01*
X025289Y004009D01*
X025357Y004174D01*
X025357Y004353D01*
X025289Y004519D01*
X025162Y004645D01*
X024997Y004714D01*
X024818Y004714D01*
X024652Y004645D01*
X024501Y004459D02*
X016957Y004459D01*
X016906Y004300D02*
X024457Y004300D01*
X024470Y004142D02*
X017198Y004142D01*
X017356Y003983D02*
X024551Y003983D01*
X024791Y003825D02*
X017515Y003825D01*
X017547Y003666D02*
X024703Y003666D01*
X024652Y003645D02*
X024526Y003519D01*
X024457Y003353D01*
X024457Y003174D01*
X024526Y003009D01*
X024652Y002882D01*
X024818Y002814D01*
X024997Y002814D01*
X025162Y002882D01*
X025289Y003009D01*
X025357Y003174D01*
X025357Y003353D01*
X025289Y003519D01*
X025162Y003645D01*
X024997Y003714D01*
X024818Y003714D01*
X024652Y003645D01*
X024521Y003508D02*
X017656Y003508D01*
X017707Y003349D02*
X024457Y003349D01*
X024457Y003191D02*
X017685Y003191D01*
X017570Y003032D02*
X018461Y003032D01*
X018753Y003032D02*
X024516Y003032D01*
X024673Y002874D02*
X018920Y002874D01*
X018957Y002715D02*
X039347Y002715D01*
X039347Y002556D02*
X018921Y002556D01*
X018759Y002398D02*
X039347Y002398D01*
X039347Y002874D02*
X039141Y002874D01*
X039298Y003032D02*
X039347Y003032D01*
X037927Y003983D02*
X037887Y003983D01*
X037509Y003983D02*
X037263Y003983D01*
X037344Y004142D02*
X037438Y004142D01*
X037427Y004300D02*
X037357Y004300D01*
X037313Y004459D02*
X037468Y004459D01*
X037582Y004618D02*
X037190Y004618D01*
X036624Y004618D02*
X036190Y004618D01*
X036313Y004459D02*
X036501Y004459D01*
X036457Y004300D02*
X036357Y004300D01*
X036344Y004142D02*
X036470Y004142D01*
X036551Y003983D02*
X036263Y003983D01*
X035551Y003983D02*
X035263Y003983D01*
X035344Y004142D02*
X035470Y004142D01*
X035457Y004300D02*
X035357Y004300D01*
X035313Y004459D02*
X035501Y004459D01*
X035624Y004618D02*
X035190Y004618D01*
X034624Y004618D02*
X034190Y004618D01*
X034313Y004459D02*
X034501Y004459D01*
X034457Y004300D02*
X034357Y004300D01*
X034344Y004142D02*
X034470Y004142D01*
X034551Y003983D02*
X034263Y003983D01*
X033551Y003983D02*
X033263Y003983D01*
X033344Y004142D02*
X033470Y004142D01*
X033457Y004300D02*
X033357Y004300D01*
X033313Y004459D02*
X033501Y004459D01*
X033624Y004618D02*
X033190Y004618D01*
X032624Y004618D02*
X032190Y004618D01*
X032313Y004459D02*
X032501Y004459D01*
X032457Y004300D02*
X032357Y004300D01*
X032344Y004142D02*
X032470Y004142D01*
X032551Y003983D02*
X032263Y003983D01*
X031551Y003983D02*
X031263Y003983D01*
X031344Y004142D02*
X031470Y004142D01*
X031457Y004300D02*
X031357Y004300D01*
X031313Y004459D02*
X031501Y004459D01*
X031624Y004618D02*
X031190Y004618D01*
X030624Y004618D02*
X030190Y004618D01*
X030313Y004459D02*
X030501Y004459D01*
X030457Y004300D02*
X030357Y004300D01*
X030344Y004142D02*
X030470Y004142D01*
X030551Y003983D02*
X030263Y003983D01*
X028791Y003825D02*
X028023Y003825D01*
X027997Y003814D02*
X028162Y003882D01*
X028289Y004009D01*
X028357Y004174D01*
X028357Y004353D01*
X028289Y004519D01*
X028162Y004645D01*
X027997Y004714D01*
X027818Y004714D01*
X027652Y004645D01*
X027526Y004519D01*
X027457Y004353D01*
X027457Y004174D01*
X027526Y004009D01*
X027652Y003882D01*
X027818Y003814D01*
X027997Y003814D01*
X028003Y003744D02*
X027927Y003744D01*
X027927Y003284D01*
X027887Y003284D01*
X027887Y003744D01*
X027812Y003744D01*
X027635Y003671D01*
X027500Y003536D01*
X027427Y003359D01*
X027427Y003284D01*
X027887Y003284D01*
X027887Y003244D01*
X027427Y003244D01*
X027427Y003168D01*
X027500Y002992D01*
X027635Y002857D01*
X027812Y002784D01*
X027887Y002784D01*
X027887Y003244D01*
X027927Y003244D01*
X027927Y003284D01*
X028387Y003284D01*
X028387Y003359D01*
X028314Y003536D01*
X028179Y003671D01*
X028003Y003744D01*
X027927Y003666D02*
X027887Y003666D01*
X027887Y003508D02*
X027927Y003508D01*
X027927Y003349D02*
X027887Y003349D01*
X027927Y003244D02*
X028387Y003244D01*
X028387Y003168D01*
X028314Y002992D01*
X028179Y002857D01*
X028003Y002784D01*
X027927Y002784D01*
X027927Y003244D01*
X027927Y003191D02*
X027887Y003191D01*
X027887Y003032D02*
X027927Y003032D01*
X027927Y002874D02*
X027887Y002874D01*
X027618Y002874D02*
X027141Y002874D01*
X027162Y002882D02*
X027289Y003009D01*
X027357Y003174D01*
X027357Y003353D01*
X027289Y003519D01*
X027162Y003645D01*
X026997Y003714D01*
X026818Y003714D01*
X026652Y003645D01*
X026526Y003519D01*
X026457Y003353D01*
X026457Y003174D01*
X026526Y003009D01*
X026652Y002882D01*
X026818Y002814D01*
X026997Y002814D01*
X027162Y002882D01*
X027298Y003032D02*
X027483Y003032D01*
X027427Y003191D02*
X027357Y003191D01*
X027357Y003349D02*
X027427Y003349D01*
X027489Y003508D02*
X027293Y003508D01*
X027111Y003666D02*
X027631Y003666D01*
X027791Y003825D02*
X027023Y003825D01*
X026997Y003814D02*
X027162Y003882D01*
X027289Y004009D01*
X027357Y004174D01*
X027357Y004353D01*
X027289Y004519D01*
X027162Y004645D01*
X026997Y004714D01*
X026818Y004714D01*
X026652Y004645D01*
X026526Y004519D01*
X026457Y004353D01*
X026457Y004174D01*
X026526Y004009D01*
X026652Y003882D01*
X026818Y003814D01*
X026997Y003814D01*
X026791Y003825D02*
X026023Y003825D01*
X025997Y003814D02*
X026162Y003882D01*
X026289Y004009D01*
X026357Y004174D01*
X026357Y004353D01*
X026289Y004519D01*
X026162Y004645D01*
X025997Y004714D01*
X025818Y004714D01*
X025652Y004645D01*
X025526Y004519D01*
X025457Y004353D01*
X025457Y004174D01*
X025526Y004009D01*
X025652Y003882D01*
X025818Y003814D01*
X025997Y003814D01*
X026003Y003744D02*
X025927Y003744D01*
X025927Y003284D01*
X025887Y003284D01*
X025887Y003744D01*
X025812Y003744D01*
X025635Y003671D01*
X025500Y003536D01*
X025427Y003359D01*
X025427Y003284D01*
X025887Y003284D01*
X025887Y003244D01*
X025427Y003244D01*
X025427Y003168D01*
X025500Y002992D01*
X025635Y002857D01*
X025812Y002784D01*
X025887Y002784D01*
X025887Y003244D01*
X025927Y003244D01*
X025927Y003284D01*
X026387Y003284D01*
X026387Y003359D01*
X026314Y003536D01*
X026179Y003671D01*
X026003Y003744D01*
X025927Y003666D02*
X025887Y003666D01*
X025887Y003508D02*
X025927Y003508D01*
X025927Y003349D02*
X025887Y003349D01*
X025927Y003244D02*
X026387Y003244D01*
X026387Y003168D01*
X026314Y002992D01*
X026179Y002857D01*
X026003Y002784D01*
X025927Y002784D01*
X025927Y003244D01*
X025927Y003191D02*
X025887Y003191D01*
X025887Y003032D02*
X025927Y003032D01*
X025927Y002874D02*
X025887Y002874D01*
X025618Y002874D02*
X025141Y002874D01*
X025298Y003032D02*
X025483Y003032D01*
X025427Y003191D02*
X025357Y003191D01*
X025357Y003349D02*
X025427Y003349D01*
X025489Y003508D02*
X025293Y003508D01*
X025111Y003666D02*
X025631Y003666D01*
X025791Y003825D02*
X025023Y003825D01*
X025263Y003983D02*
X025551Y003983D01*
X025470Y004142D02*
X025344Y004142D01*
X025357Y004300D02*
X025457Y004300D01*
X025501Y004459D02*
X025313Y004459D01*
X025190Y004618D02*
X025624Y004618D01*
X026190Y004618D02*
X026624Y004618D01*
X026501Y004459D02*
X026313Y004459D01*
X026357Y004300D02*
X026457Y004300D01*
X026470Y004142D02*
X026344Y004142D01*
X026263Y003983D02*
X026551Y003983D01*
X026703Y003666D02*
X026183Y003666D01*
X026326Y003508D02*
X026521Y003508D01*
X026457Y003349D02*
X026387Y003349D01*
X026387Y003191D02*
X026457Y003191D01*
X026516Y003032D02*
X026331Y003032D01*
X026196Y002874D02*
X026673Y002874D01*
X027263Y003983D02*
X027551Y003983D01*
X027470Y004142D02*
X027344Y004142D01*
X027357Y004300D02*
X027457Y004300D01*
X027501Y004459D02*
X027313Y004459D01*
X027190Y004618D02*
X027624Y004618D01*
X028190Y004618D02*
X028624Y004618D01*
X028501Y004459D02*
X028313Y004459D01*
X028357Y004300D02*
X028457Y004300D01*
X028470Y004142D02*
X028344Y004142D01*
X028263Y003983D02*
X028551Y003983D01*
X028703Y003666D02*
X028183Y003666D01*
X028326Y003508D02*
X028521Y003508D01*
X028457Y003349D02*
X028387Y003349D01*
X028387Y003191D02*
X028457Y003191D01*
X028516Y003032D02*
X028331Y003032D01*
X028196Y002874D02*
X028673Y002874D01*
X038207Y004935D02*
X016667Y004935D01*
X016746Y005093D02*
X038207Y005093D01*
X038207Y005252D02*
X016918Y005252D01*
X016527Y005886D02*
X016487Y005886D01*
X015243Y005886D02*
X003814Y005886D01*
X003938Y005727D02*
X015109Y005727D01*
X015057Y005569D02*
X003987Y005569D01*
X003984Y005410D02*
X015063Y005410D01*
X015133Y005252D02*
X003918Y005252D01*
X003746Y005093D02*
X015347Y005093D01*
X015347Y004935D02*
X003745Y004935D01*
X003918Y004776D02*
X015133Y004776D01*
X015063Y004618D02*
X003984Y004618D01*
X003987Y004459D02*
X015057Y004459D01*
X015065Y004300D02*
X015108Y004300D01*
X014649Y004300D02*
X003938Y004300D01*
X003814Y004142D02*
X014531Y004142D01*
X014507Y003983D02*
X003628Y003983D01*
X003527Y003825D02*
X003487Y003825D01*
X003487Y003666D02*
X003527Y003666D01*
X003527Y003508D02*
X015057Y003508D01*
X015083Y003666D02*
X014933Y003666D01*
X014781Y003666D02*
X003963Y003666D01*
X003875Y003825D02*
X014556Y003825D01*
X014489Y003191D02*
X004575Y003191D01*
X004657Y003032D02*
X014407Y003032D01*
X014416Y002874D02*
X004649Y002874D01*
X004553Y002715D02*
X014511Y002715D01*
X015003Y002715D02*
X015103Y002715D01*
X015057Y002556D02*
X003987Y002556D01*
X003979Y002398D02*
X015068Y002398D01*
X015915Y002324D02*
X015957Y002424D01*
X015957Y002603D01*
X015889Y002769D01*
X015883Y002774D01*
X016095Y002774D01*
X016027Y002609D01*
X016027Y002534D01*
X016487Y002534D01*
X016487Y002494D01*
X016027Y002494D01*
X016027Y002418D01*
X016066Y002324D01*
X015915Y002324D01*
X015946Y002398D02*
X016035Y002398D01*
X016027Y002556D02*
X015957Y002556D01*
X015911Y002715D02*
X016071Y002715D01*
X016943Y002715D02*
X017187Y002715D01*
X017346Y002556D02*
X016987Y002556D01*
X016979Y002398D02*
X018455Y002398D01*
X016108Y004300D02*
X015906Y004300D01*
X015957Y004459D02*
X016057Y004459D01*
X016063Y004618D02*
X015951Y004618D01*
X015881Y004776D02*
X016133Y004776D01*
X015088Y003349D02*
X003958Y003349D01*
X003487Y003508D02*
X002957Y003508D01*
X002931Y003666D02*
X003051Y003666D01*
X003139Y003825D02*
X002832Y003825D01*
X002762Y004132D02*
X002597Y004064D01*
X002418Y004064D01*
X002252Y004132D01*
X002126Y004259D01*
X002057Y004424D01*
X002057Y004603D01*
X002126Y004769D01*
X002252Y004895D01*
X002418Y004964D01*
X002597Y004964D01*
X002762Y004895D01*
X002889Y004769D01*
X002957Y004603D01*
X002957Y004424D01*
X002889Y004259D01*
X002762Y004132D01*
X002772Y004142D02*
X003200Y004142D01*
X003076Y004300D02*
X002906Y004300D01*
X002957Y004459D02*
X003027Y004459D01*
X003031Y004618D02*
X002951Y004618D01*
X002881Y004776D02*
X003096Y004776D01*
X003269Y004935D02*
X002667Y004935D01*
X002597Y005064D02*
X002762Y005132D01*
X002889Y005259D01*
X002957Y005424D01*
X002957Y005603D01*
X002889Y005769D01*
X002762Y005895D01*
X002597Y005964D01*
X002418Y005964D01*
X002252Y005895D01*
X002126Y005769D01*
X002057Y005603D01*
X002057Y005424D01*
X002126Y005259D01*
X002252Y005132D01*
X002418Y005064D01*
X002597Y005064D01*
X002668Y005093D02*
X003268Y005093D01*
X003096Y005252D02*
X002881Y005252D01*
X002951Y005410D02*
X003030Y005410D01*
X003027Y005569D02*
X002957Y005569D01*
X002906Y005727D02*
X003076Y005727D01*
X003200Y005886D02*
X002771Y005886D01*
X002833Y006203D02*
X003139Y006203D01*
X003051Y006362D02*
X002931Y006362D01*
X003386Y006044D02*
X001467Y006044D01*
X001467Y005886D02*
X002243Y005886D01*
X002109Y005727D02*
X001467Y005727D01*
X001467Y005569D02*
X002057Y005569D01*
X002063Y005410D02*
X001467Y005410D01*
X001467Y005252D02*
X002133Y005252D01*
X002347Y005093D02*
X001467Y005093D01*
X001467Y004935D02*
X002347Y004935D01*
X002133Y004776D02*
X001467Y004776D01*
X001467Y004618D02*
X002063Y004618D01*
X002057Y004459D02*
X001467Y004459D01*
X001467Y004300D02*
X002108Y004300D01*
X002243Y004142D02*
X001467Y004142D01*
X002926Y003349D02*
X003056Y003349D01*
X003138Y002824D02*
X002833Y002824D01*
X002889Y002769D01*
X002957Y002603D01*
X002957Y002424D01*
X002915Y002324D01*
X003066Y002324D01*
X003027Y002418D01*
X003027Y002494D01*
X003487Y002494D01*
X003487Y002534D01*
X003027Y002534D01*
X003027Y002609D01*
X003100Y002786D01*
X003138Y002824D01*
X003071Y002715D02*
X002911Y002715D01*
X002957Y002556D02*
X003027Y002556D01*
X003035Y002398D02*
X002946Y002398D01*
X003943Y002715D02*
X004061Y002715D01*
X003875Y006203D02*
X015181Y006203D01*
X015194Y003191D02*
X015025Y003191D01*
X003527Y006203D02*
X003487Y006203D01*
X003487Y006362D02*
X003527Y006362D01*
X003527Y006679D02*
X003487Y006679D01*
X003487Y006837D02*
X003527Y006837D01*
X003527Y007154D02*
X003487Y007154D01*
X003487Y007313D02*
X003527Y007313D01*
X003527Y007471D02*
X003487Y007471D01*
X003487Y007630D02*
X003527Y007630D01*
X003527Y007788D02*
X003487Y007788D01*
X003487Y007947D02*
X003527Y007947D01*
X002194Y006837D02*
X001467Y006837D01*
X001467Y006679D02*
X002088Y006679D01*
X002057Y006520D02*
X001467Y006520D01*
X001467Y006362D02*
X002083Y006362D01*
X002181Y006203D02*
X001467Y006203D01*
X001467Y016350D02*
X002088Y016350D01*
X002057Y016508D02*
X001467Y016508D01*
X001467Y016667D02*
X002083Y016667D01*
X002182Y016825D02*
X001467Y016825D01*
X002882Y018252D02*
X003132Y018252D01*
X003063Y018411D02*
X002951Y018411D01*
X002957Y018569D02*
X003057Y018569D01*
X003109Y018728D02*
X002905Y018728D01*
X002771Y018886D02*
X003243Y018886D01*
X003181Y019204D02*
X002833Y019204D01*
X002931Y019362D02*
X003083Y019362D01*
X003057Y019521D02*
X002957Y019521D01*
X002926Y019679D02*
X003089Y019679D01*
X003195Y019838D02*
X002819Y019838D01*
X002784Y020155D02*
X003230Y020155D01*
X003103Y020313D02*
X002911Y020313D01*
X002957Y020472D02*
X003057Y020472D01*
X003068Y020630D02*
X002946Y020630D01*
X002868Y020789D02*
X003146Y020789D01*
X002089Y019679D02*
X001467Y019679D01*
X001467Y019521D02*
X002057Y019521D01*
X002083Y019362D02*
X001467Y019362D01*
X001467Y019204D02*
X002181Y019204D01*
X002559Y024911D02*
X002633Y024911D01*
X001467Y026021D02*
X023018Y026021D01*
X023034Y026179D02*
X001467Y026179D01*
X001467Y026338D02*
X023145Y026338D01*
X023551Y026338D02*
X024326Y026338D01*
X024215Y026179D02*
X023662Y026179D01*
X023678Y026021D02*
X024199Y026021D01*
X023918Y025862D02*
X023881Y025862D01*
X023881Y025704D02*
X023918Y025704D01*
X023918Y025545D02*
X023881Y025545D01*
X023881Y025387D02*
X023918Y025387D01*
X023918Y025228D02*
X023881Y025228D01*
X027078Y024118D02*
X038207Y024118D01*
X038207Y023960D02*
X027078Y023960D01*
X028389Y023643D02*
X028426Y023643D01*
X028426Y023484D02*
X028389Y023484D01*
X028389Y023326D02*
X028426Y023326D01*
X028426Y023167D02*
X028389Y023167D01*
X028389Y023009D02*
X028426Y023009D01*
X028206Y022850D02*
X028727Y022850D01*
X028715Y023009D02*
X028754Y023009D01*
X028776Y022691D02*
X028156Y022691D01*
X027218Y022533D02*
X038207Y022533D01*
X038207Y022691D02*
X029337Y022691D01*
X029387Y022850D02*
X038207Y022850D01*
X029379Y023009D02*
X029359Y023009D01*
X025196Y029509D02*
X019255Y029509D01*
X019309Y029667D02*
X025038Y029667D01*
X024879Y029826D02*
X019296Y029826D01*
X019269Y029984D02*
X024720Y029984D01*
X022692Y030143D02*
X019269Y030143D01*
X019269Y030302D02*
X022533Y030302D01*
X022473Y030460D02*
X019269Y030460D01*
X019269Y030619D02*
X022473Y030619D01*
X022473Y030777D02*
X019269Y030777D01*
X019269Y030936D02*
X022566Y030936D01*
X022724Y031094D02*
X019269Y031094D01*
X019284Y031253D02*
X038207Y031253D01*
X038207Y031411D02*
X019309Y031411D01*
X019266Y031570D02*
X038207Y031570D01*
X018809Y032167D02*
X018809Y032167D01*
X018772Y032204D02*
X010547Y032204D01*
X010547Y032363D02*
X018657Y032363D01*
X018657Y032521D02*
X010547Y032521D01*
X010517Y032680D02*
X018728Y032680D01*
X018710Y032662D02*
X018710Y032662D01*
X010167Y032363D02*
X009914Y032363D01*
X010167Y032204D02*
X001467Y032204D01*
X001467Y032046D02*
X010167Y032046D01*
X010167Y031887D02*
X001467Y031887D01*
X001467Y031728D02*
X010167Y031728D01*
X010167Y031570D02*
X001467Y031570D01*
X001467Y031411D02*
X010167Y031411D01*
X010064Y031253D02*
X001467Y031253D01*
X001467Y031094D02*
X010026Y031094D01*
X010064Y030936D02*
X001467Y030936D01*
X001467Y030460D02*
X006183Y030460D01*
X004299Y028082D02*
X001467Y028082D01*
X001467Y027923D02*
X004234Y027923D01*
X004168Y027765D02*
X001467Y027765D01*
X001467Y027606D02*
X004136Y027606D01*
X004136Y027448D02*
X001467Y027448D01*
X001467Y027289D02*
X004136Y027289D01*
X004188Y027131D02*
X001467Y027131D01*
X001467Y026972D02*
X004254Y026972D01*
X004347Y026814D02*
X001467Y026814D01*
X001467Y026655D02*
X004506Y026655D01*
X004749Y026497D02*
X001467Y026497D01*
X001467Y032363D02*
X009397Y032363D01*
X009326Y032521D02*
X001467Y032521D01*
X001467Y032680D02*
X009344Y032680D01*
X009139Y027448D02*
X010293Y027448D01*
X039057Y005014D02*
X039057Y004964D01*
D23*
X032639Y013516D02*
X032840Y013717D01*
X032817Y013717D01*
X032840Y013717D02*
X032895Y013772D01*
X032639Y013516D02*
X032305Y013516D01*
X003557Y021514D02*
X003507Y021564D01*
X003507Y022664D01*
X002907Y023264D01*
X002907Y025189D01*
X002907Y025214D01*
X003507Y021514D02*
X003557Y021514D01*
D24*
X038907Y003264D02*
X039357Y003814D01*
X039357Y004564D01*
X039057Y004964D01*
M02*
