G75*
G70*
%OFA0B0*%
%FSLAX24Y24*%
%IPPOS*%
%LPD*%
%AMOC8*
5,1,8,0,0,1.08239X$1,22.5*
%
%ADD10C,0.1260*%
%ADD11C,0.0560*%
%ADD12R,0.0454X0.0493*%
%ADD13R,0.0493X0.0454*%
%ADD14O,0.0620X0.1180*%
%ADD15C,0.0660*%
%ADD16OC8,0.0910*%
D10*
X005216Y027472D03*
X003926Y029362D03*
D11*
X006406Y029762D03*
D12*
X021872Y018831D03*
X021872Y018161D03*
X021891Y017567D03*
X021891Y016898D03*
X022462Y016961D03*
X022462Y016291D03*
X022265Y015681D03*
X022265Y015012D03*
X022246Y014417D03*
X022246Y013748D03*
X022265Y013122D03*
X022265Y012453D03*
X022324Y011827D03*
X022324Y011157D03*
X022069Y010169D03*
X022069Y009500D03*
X032265Y010173D03*
X032265Y010843D03*
X032305Y011567D03*
X032856Y011295D03*
X032856Y011965D03*
X032305Y012236D03*
X032305Y012846D03*
X032305Y013516D03*
X032817Y013717D03*
X032817Y014386D03*
X032600Y015012D03*
X032600Y015681D03*
X032817Y016209D03*
X032817Y016878D03*
X032797Y017472D03*
X032797Y018142D03*
X032797Y018654D03*
X032797Y019323D03*
X028210Y019406D03*
X028210Y018736D03*
X027383Y024854D03*
X027383Y025524D03*
X032895Y009579D03*
X032895Y008909D03*
D13*
X031974Y008398D03*
X031305Y008398D03*
X029801Y008457D03*
X029131Y008457D03*
X028506Y008457D03*
X027836Y008457D03*
X026915Y008457D03*
X026246Y008457D03*
X025159Y008457D03*
X024490Y008457D03*
X023289Y008457D03*
X022620Y008457D03*
X022324Y019382D03*
X022994Y019382D03*
X024966Y019343D03*
X025635Y019343D03*
X029608Y019382D03*
X030277Y019382D03*
X030887Y019283D03*
X031557Y019283D03*
X029687Y023369D03*
X029017Y023369D03*
X028407Y023369D03*
X027738Y023369D03*
X028328Y025583D03*
X028998Y025583D03*
X029509Y025581D03*
X030179Y025581D03*
X024569Y025583D03*
X023899Y025583D03*
X023289Y025583D03*
X022620Y025583D03*
X022797Y023369D03*
X022128Y023369D03*
X023899Y023369D03*
X024569Y023369D03*
D14*
X005458Y023646D03*
X004458Y023646D03*
D15*
X002507Y002514D03*
X003507Y002514D03*
X003507Y003514D03*
X002507Y003514D03*
X002507Y004514D03*
X003507Y004514D03*
X003507Y005514D03*
X003507Y006514D03*
X002507Y006514D03*
X002507Y005514D03*
X002507Y007514D03*
X003507Y007514D03*
X003507Y008514D03*
X002507Y008514D03*
X002507Y009514D03*
X003507Y009514D03*
X003507Y010514D03*
X002507Y010514D03*
X002507Y011514D03*
X003507Y011514D03*
X003507Y015514D03*
X002507Y015514D03*
X002507Y016514D03*
X003507Y016514D03*
X003507Y017514D03*
X003507Y018514D03*
X002507Y018514D03*
X002507Y017514D03*
X002507Y019514D03*
X003507Y019514D03*
X003507Y020514D03*
X002507Y020514D03*
X002507Y021514D03*
X003507Y021514D03*
X015507Y021514D03*
X016507Y021514D03*
X016507Y020514D03*
X015507Y020514D03*
X015507Y019514D03*
X016507Y019514D03*
X016507Y018514D03*
X015507Y018514D03*
X015507Y017514D03*
X016507Y017514D03*
X016507Y016514D03*
X015507Y016514D03*
X015507Y015514D03*
X016507Y015514D03*
X016507Y014514D03*
X015507Y014514D03*
X015507Y013514D03*
X016507Y013514D03*
X016507Y012514D03*
X015507Y012514D03*
X015507Y011514D03*
X016507Y011514D03*
X016507Y010514D03*
X015507Y010514D03*
X015507Y009514D03*
X016507Y009514D03*
X016507Y008514D03*
X015507Y008514D03*
X015507Y007514D03*
X016507Y007514D03*
X016507Y006514D03*
X015507Y006514D03*
X015507Y005514D03*
X016507Y005514D03*
X016507Y004514D03*
X015507Y004514D03*
X015507Y003514D03*
X016507Y003514D03*
X016507Y002514D03*
X015507Y002514D03*
X024907Y003264D03*
X025907Y003264D03*
X026907Y003264D03*
X026907Y004264D03*
X025907Y004264D03*
X024907Y004264D03*
X027907Y004264D03*
X028907Y004264D03*
X029907Y004264D03*
X030907Y004264D03*
X031907Y004264D03*
X032907Y004264D03*
X033907Y004264D03*
X034907Y004264D03*
X035907Y004264D03*
X036907Y004264D03*
X037907Y004264D03*
X038907Y004264D03*
X038907Y003264D03*
X037907Y003264D03*
X036907Y003264D03*
X035907Y003264D03*
X034907Y003264D03*
X033907Y003264D03*
X032907Y003264D03*
X031907Y003264D03*
X030907Y003264D03*
X029907Y003264D03*
X028907Y003264D03*
X027907Y003264D03*
D16*
X032907Y024764D03*
M02*
