G75*
G70*
%OFA0B0*%
%FSLAX24Y24*%
%IPPOS*%
%LPD*%
%AMOC8*
5,1,8,0,0,1.08239X$1,22.5*
%
%ADD10C,0.0080*%
%ADD11R,0.0059X0.0118*%
%ADD12R,0.0118X0.0118*%
%ADD13C,0.0100*%
D10*
X000907Y001764D02*
X039907Y001764D01*
X039907Y033264D01*
X000907Y033264D01*
X000907Y001764D01*
X002007Y002264D02*
X002007Y002764D01*
X002257Y003014D01*
X002007Y003264D01*
X002007Y003764D01*
X002257Y004014D01*
X002007Y004264D01*
X002007Y004764D01*
X002257Y005014D01*
X002007Y005264D01*
X002007Y005764D01*
X002257Y006014D01*
X002007Y006264D01*
X002007Y006764D01*
X002257Y007014D01*
X002007Y007264D01*
X002007Y007764D01*
X002257Y008014D01*
X002007Y008264D01*
X002007Y008764D01*
X002257Y009014D01*
X002007Y009264D01*
X002007Y009764D01*
X002257Y010014D01*
X002007Y010264D01*
X002007Y010764D01*
X002257Y011014D01*
X002007Y011264D01*
X002007Y011764D01*
X002257Y012014D01*
X003757Y012014D01*
X004007Y011764D01*
X004007Y011264D01*
X003757Y011014D01*
X004007Y010764D01*
X004007Y010264D01*
X003757Y010014D01*
X004007Y009764D01*
X004007Y009264D01*
X003757Y009014D01*
X004007Y008764D01*
X004007Y008264D01*
X003757Y008014D01*
X004007Y007764D01*
X004007Y007264D01*
X003757Y007014D01*
X004007Y006764D01*
X004007Y006264D01*
X003757Y006014D01*
X004007Y005764D01*
X004007Y005264D01*
X003757Y005014D01*
X004007Y004764D01*
X004007Y004264D01*
X003757Y004014D01*
X004007Y003764D01*
X004007Y003264D01*
X003757Y003014D01*
X004007Y002764D01*
X004007Y002264D01*
X003757Y002014D01*
X002257Y002014D01*
X002007Y002264D01*
X004197Y002203D02*
X004267Y002133D01*
X004197Y002203D02*
X004197Y002343D01*
X004267Y002413D01*
X004337Y002413D01*
X004617Y002133D01*
X004617Y002413D01*
X004547Y002593D02*
X004617Y002663D01*
X004617Y002804D01*
X004547Y002874D01*
X004267Y002874D01*
X004547Y002593D01*
X004267Y002593D01*
X004197Y002663D01*
X004197Y002804D01*
X004267Y002874D01*
X004547Y011133D02*
X004617Y011203D01*
X004617Y011273D01*
X004547Y011343D01*
X004197Y011343D01*
X004197Y011273D02*
X004197Y011413D01*
X004407Y011593D02*
X004407Y011804D01*
X004477Y011874D01*
X004547Y011874D01*
X004617Y011804D01*
X004617Y011663D01*
X004547Y011593D01*
X004407Y011593D01*
X004267Y011734D01*
X004197Y011874D01*
X003801Y012374D02*
X003661Y012374D01*
X003591Y012444D01*
X003591Y012584D01*
X003801Y012584D01*
X003871Y012514D01*
X003871Y012444D01*
X003801Y012374D01*
X003591Y012584D02*
X003731Y012725D01*
X003871Y012795D01*
X004006Y012990D02*
X002717Y012990D01*
X002740Y012795D02*
X002670Y012725D01*
X002670Y012444D01*
X002740Y012374D01*
X002880Y012374D01*
X002950Y012444D01*
X003131Y012444D02*
X003201Y012374D01*
X003341Y012374D01*
X003411Y012444D01*
X003411Y012584D01*
X003341Y012654D01*
X003271Y012654D01*
X003131Y012584D01*
X003131Y012795D01*
X003411Y012795D01*
X002950Y012725D02*
X002880Y012795D01*
X002740Y012795D01*
X002094Y013534D02*
X001846Y013534D01*
X001968Y013652D02*
X001968Y013404D01*
X002717Y014079D02*
X004006Y014079D01*
X003757Y015014D02*
X004007Y015264D01*
X004007Y015764D01*
X003757Y016014D01*
X004007Y016264D01*
X004007Y016764D01*
X003757Y017014D01*
X004007Y017264D01*
X004007Y017764D01*
X003757Y018014D01*
X004007Y018264D01*
X004007Y018764D01*
X003757Y019014D01*
X004007Y019264D01*
X004007Y019764D01*
X003757Y020014D01*
X004007Y020264D01*
X004007Y020764D01*
X003757Y021014D01*
X004007Y021264D01*
X004007Y021764D01*
X003757Y022014D01*
X002257Y022014D01*
X002007Y021764D01*
X002007Y021264D01*
X002257Y021014D01*
X002007Y020764D01*
X002007Y020264D01*
X002257Y020014D01*
X002007Y019764D01*
X002007Y019264D01*
X002257Y019014D01*
X002007Y018764D01*
X002007Y018264D01*
X002257Y018014D01*
X002007Y017764D01*
X002007Y017264D01*
X002257Y017014D01*
X002007Y016764D01*
X002007Y016264D01*
X002257Y016014D01*
X002007Y015764D01*
X002007Y015264D01*
X002257Y015014D01*
X003757Y015014D01*
X004197Y015223D02*
X004617Y015223D01*
X004617Y015083D02*
X004617Y015363D01*
X004407Y015543D02*
X004407Y015824D01*
X004617Y015754D02*
X004197Y015754D01*
X004407Y015543D01*
X004197Y015223D02*
X004337Y015083D01*
X001817Y011574D02*
X001817Y011293D01*
X001817Y011434D02*
X001397Y011434D01*
X001537Y011293D01*
X004547Y021133D02*
X004617Y021203D01*
X004617Y021273D01*
X004547Y021343D01*
X004197Y021343D01*
X004197Y021273D02*
X004197Y021413D01*
X004337Y021593D02*
X004197Y021734D01*
X004617Y021734D01*
X004617Y021874D02*
X004617Y021593D01*
X004858Y023146D02*
X004058Y023146D01*
X003958Y023246D01*
X003958Y024046D01*
X004058Y024146D01*
X004858Y024146D01*
X004958Y024046D01*
X005058Y024146D01*
X005858Y024146D01*
X005958Y024046D01*
X005958Y023246D01*
X005858Y023146D01*
X005058Y023146D01*
X004958Y023246D01*
X004858Y023146D01*
X004919Y024336D02*
X005199Y024336D01*
X005059Y024336D02*
X005059Y024756D01*
X004919Y024616D01*
X004739Y024686D02*
X004739Y024546D01*
X004669Y024476D01*
X004459Y024476D01*
X004459Y024336D02*
X004459Y024756D01*
X004669Y024756D01*
X004739Y024686D01*
X004279Y024756D02*
X004138Y024756D01*
X004208Y024756D02*
X004208Y024406D01*
X004138Y024336D01*
X004068Y024336D01*
X003998Y024406D01*
X007388Y024693D02*
X007388Y025114D01*
X007599Y025114D01*
X007669Y025043D01*
X007669Y024903D01*
X007599Y024833D01*
X007388Y024833D01*
X007529Y024833D02*
X007669Y024693D01*
X007849Y024763D02*
X007919Y024693D01*
X008059Y024693D01*
X008129Y024763D01*
X008129Y024833D01*
X008059Y024903D01*
X007989Y024903D01*
X008059Y024903D02*
X008129Y024973D01*
X008129Y025043D01*
X008059Y025114D01*
X007919Y025114D01*
X007849Y025043D01*
X010144Y025973D02*
X010144Y026393D01*
X010354Y026393D01*
X010425Y026323D01*
X010425Y026183D01*
X010354Y026113D01*
X010144Y026113D01*
X010284Y026113D02*
X010425Y025973D01*
X010605Y025973D02*
X010885Y026253D01*
X010885Y026323D01*
X010815Y026393D01*
X010675Y026393D01*
X010605Y026323D01*
X010605Y025973D02*
X010885Y025973D01*
X010730Y026961D02*
X010730Y028142D01*
X012541Y028142D01*
X012541Y027039D01*
X012423Y026961D01*
X010730Y026961D01*
X009247Y027583D02*
X009247Y027723D01*
X009177Y027793D01*
X009247Y027973D02*
X009247Y028253D01*
X009247Y028113D02*
X008827Y028113D01*
X008967Y027973D01*
X008897Y027793D02*
X008827Y027723D01*
X008827Y027583D01*
X008897Y027513D01*
X009177Y027513D01*
X009247Y027583D01*
X011148Y028342D02*
X011218Y028272D01*
X011359Y028272D01*
X011429Y028342D01*
X011429Y028693D01*
X011609Y028623D02*
X011679Y028693D01*
X011819Y028693D01*
X011889Y028623D01*
X011889Y028553D01*
X011609Y028272D01*
X011889Y028272D01*
X012419Y028398D02*
X012419Y028609D01*
X012489Y028679D01*
X012629Y028679D01*
X012699Y028609D01*
X012699Y028398D01*
X012839Y028398D02*
X012419Y028398D01*
X012699Y028539D02*
X012839Y028679D01*
X012629Y028859D02*
X012629Y029139D01*
X012839Y029069D02*
X012419Y029069D01*
X012629Y028859D01*
X013112Y029323D02*
X012915Y029520D01*
X012915Y031882D01*
X013112Y032079D01*
X015474Y032079D01*
X015671Y031882D01*
X015671Y029520D01*
X015474Y029323D01*
X013112Y029323D01*
X013939Y028701D02*
X013939Y028280D01*
X014219Y028280D01*
X014400Y028280D02*
X014680Y028280D01*
X014540Y028280D02*
X014540Y028701D01*
X014400Y028560D01*
X015474Y028142D02*
X015671Y027945D01*
X015671Y025583D01*
X015474Y025386D01*
X013112Y025386D01*
X012915Y025583D01*
X012915Y027945D01*
X013112Y028142D01*
X015474Y028142D01*
X016012Y027888D02*
X016012Y027748D01*
X016082Y027678D01*
X016082Y027498D02*
X016012Y027427D01*
X016012Y027287D01*
X016082Y027217D01*
X016362Y027217D01*
X016432Y027287D01*
X016432Y027427D01*
X016362Y027498D01*
X016432Y027678D02*
X016152Y027958D01*
X016082Y027958D01*
X016012Y027888D01*
X016432Y027958D02*
X016432Y027678D01*
X017214Y027437D02*
X017462Y027437D01*
X017344Y027559D02*
X017344Y027311D01*
X017695Y027275D02*
X017765Y027205D01*
X018045Y027205D01*
X018115Y027275D01*
X018115Y027415D01*
X018045Y027485D01*
X018045Y027665D02*
X018115Y027735D01*
X018115Y027875D01*
X018045Y027946D01*
X017905Y027946D01*
X017835Y027875D01*
X017835Y027805D01*
X017905Y027665D01*
X017695Y027665D01*
X017695Y027946D01*
X017765Y027485D02*
X017695Y027415D01*
X017695Y027275D01*
X017889Y026688D02*
X017889Y025399D01*
X016800Y025399D02*
X016800Y026688D01*
X019197Y026794D02*
X019197Y026514D01*
X019617Y026514D01*
X019617Y026794D01*
X019617Y026974D02*
X019617Y027185D01*
X019547Y027255D01*
X019267Y027255D01*
X019197Y027185D01*
X019197Y026974D01*
X019617Y026974D01*
X019407Y026654D02*
X019407Y026514D01*
X019617Y026334D02*
X019617Y026054D01*
X019197Y026054D01*
X020450Y025433D02*
X020698Y025433D01*
X020580Y025555D02*
X020580Y025307D01*
X020036Y024684D02*
X020036Y023395D01*
X019840Y023499D02*
X019840Y023640D01*
X019770Y023710D01*
X019770Y023890D02*
X019840Y023960D01*
X019840Y024100D01*
X019770Y024170D01*
X019630Y024170D01*
X019560Y024100D01*
X019560Y024030D01*
X019630Y023890D01*
X019420Y023890D01*
X019420Y024170D01*
X019630Y024350D02*
X019420Y024560D01*
X019840Y024560D01*
X019630Y024630D02*
X019630Y024350D01*
X019490Y023710D02*
X019420Y023640D01*
X019420Y023499D01*
X019490Y023429D01*
X019770Y023429D01*
X019840Y023499D01*
X019887Y022241D02*
X019747Y022241D01*
X019677Y022171D01*
X019677Y022101D01*
X019747Y021961D01*
X019536Y021961D01*
X019536Y022241D01*
X019887Y022241D02*
X019957Y022171D01*
X019957Y022031D01*
X019887Y021961D01*
X019887Y021781D02*
X019817Y021781D01*
X019747Y021711D01*
X019747Y021641D01*
X019747Y021711D02*
X019677Y021781D01*
X019607Y021781D01*
X019536Y021711D01*
X019536Y021571D01*
X019607Y021501D01*
X019607Y021321D02*
X019536Y021251D01*
X019536Y021110D01*
X019607Y021040D01*
X019887Y021040D01*
X019957Y021110D01*
X019957Y021251D01*
X019887Y021321D01*
X019887Y021501D02*
X019957Y021571D01*
X019957Y021711D01*
X019887Y021781D01*
X019962Y020721D02*
X019962Y020441D01*
X019962Y020581D02*
X019541Y020581D01*
X019681Y020441D01*
X019681Y020261D02*
X019751Y020191D01*
X019751Y020051D01*
X019681Y019981D01*
X019611Y019981D01*
X019541Y020051D01*
X019541Y020191D01*
X019611Y020261D01*
X019681Y020261D01*
X019751Y020191D02*
X019821Y020261D01*
X019892Y020261D01*
X019962Y020191D01*
X019962Y020051D01*
X019892Y019981D01*
X019821Y019981D01*
X019751Y020051D01*
X019962Y019801D02*
X019962Y019520D01*
X019962Y019660D02*
X019541Y019660D01*
X019681Y019520D01*
X021124Y020130D02*
X021124Y007610D01*
X033643Y007610D01*
X033643Y020130D01*
X021124Y020130D01*
X021576Y021055D02*
X021576Y021547D01*
X021453Y021686D02*
X021313Y021826D01*
X021733Y021826D01*
X021733Y021686D02*
X021733Y021966D01*
X021663Y022146D02*
X021593Y022146D01*
X021523Y022216D01*
X021523Y022356D01*
X021593Y022426D01*
X021663Y022426D01*
X021733Y022356D01*
X021733Y022216D01*
X021663Y022146D01*
X021523Y022216D02*
X021453Y022146D01*
X021383Y022146D01*
X021313Y022216D01*
X021313Y022356D01*
X021383Y022426D01*
X021453Y022426D01*
X021523Y022356D01*
X021588Y022504D02*
X030446Y022504D01*
X030446Y025260D01*
X030447Y025260D02*
X030413Y025288D01*
X030382Y025318D01*
X030354Y025351D01*
X030329Y025387D01*
X030307Y025424D01*
X030288Y025464D01*
X030273Y025504D01*
X030262Y025546D01*
X030254Y025589D01*
X030250Y025632D01*
X030250Y025676D01*
X030254Y025719D01*
X030262Y025762D01*
X030273Y025804D01*
X030288Y025844D01*
X030307Y025884D01*
X030329Y025921D01*
X030354Y025957D01*
X030382Y025990D01*
X030413Y026020D01*
X030447Y026048D01*
X030446Y026047D02*
X030446Y026441D01*
X021588Y026441D01*
X021588Y022504D01*
X021663Y022606D02*
X021383Y022887D01*
X021663Y022887D01*
X021733Y022817D01*
X021733Y022676D01*
X021663Y022606D01*
X021383Y022606D01*
X021313Y022676D01*
X021313Y022817D01*
X021383Y022887D01*
X021125Y023395D02*
X021125Y024684D01*
X020969Y027044D02*
X020689Y027044D01*
X020619Y027114D01*
X020619Y027254D01*
X020689Y027325D01*
X020689Y027505D02*
X020619Y027575D01*
X020619Y027715D01*
X020689Y027785D01*
X020759Y027785D01*
X020829Y027715D01*
X020899Y027785D01*
X020969Y027785D01*
X021040Y027715D01*
X021040Y027575D01*
X020969Y027505D01*
X020969Y027325D02*
X021040Y027254D01*
X021040Y027114D01*
X020969Y027044D01*
X020829Y027645D02*
X020829Y027715D01*
X020759Y027965D02*
X020619Y028105D01*
X021040Y028105D01*
X021040Y027965D02*
X021040Y028245D01*
X020092Y029108D02*
X019672Y029108D01*
X019672Y029318D01*
X019742Y029388D01*
X019882Y029388D01*
X019952Y029318D01*
X019952Y029108D01*
X019952Y029248D02*
X020092Y029388D01*
X020022Y029568D02*
X020092Y029638D01*
X020092Y029779D01*
X020022Y029849D01*
X019952Y029849D01*
X019882Y029779D01*
X019882Y029568D01*
X020022Y029568D01*
X019882Y029568D02*
X019742Y029709D01*
X019672Y029849D01*
X020357Y029795D02*
X020567Y029795D01*
X020497Y029935D01*
X020497Y030005D01*
X020567Y030075D01*
X020707Y030075D01*
X020777Y030005D01*
X020777Y029865D01*
X020707Y029795D01*
X020707Y029615D02*
X020777Y029545D01*
X020777Y029405D01*
X020707Y029335D01*
X020427Y029335D01*
X020357Y029405D01*
X020357Y029545D01*
X020427Y029615D01*
X020357Y029795D02*
X020357Y030075D01*
X020427Y030256D02*
X020357Y030326D01*
X020357Y030466D01*
X020427Y030536D01*
X020497Y030536D01*
X020567Y030466D01*
X020637Y030536D01*
X020707Y030536D01*
X020777Y030466D01*
X020777Y030326D01*
X020707Y030256D01*
X020567Y030396D02*
X020567Y030466D01*
X020973Y030589D02*
X020973Y029300D01*
X022062Y029300D02*
X022062Y030589D01*
X021517Y031213D02*
X021517Y031461D01*
X021635Y031339D02*
X021387Y031339D01*
X022994Y029880D02*
X022994Y029466D01*
X023098Y029363D01*
X023305Y029363D01*
X023408Y029466D01*
X023408Y029880D01*
X023305Y029983D01*
X023098Y029983D01*
X022994Y029880D01*
X023639Y029776D02*
X023949Y029776D01*
X024053Y029673D01*
X024053Y029466D01*
X023949Y029363D01*
X023639Y029363D01*
X023639Y029156D02*
X023639Y029776D01*
X024283Y029673D02*
X024283Y029466D01*
X024387Y029363D01*
X024594Y029363D01*
X024697Y029570D02*
X024283Y029570D01*
X024283Y029673D02*
X024387Y029776D01*
X024594Y029776D01*
X024697Y029673D01*
X024697Y029570D01*
X024928Y029776D02*
X024928Y029363D01*
X024928Y029776D02*
X025238Y029776D01*
X025342Y029673D01*
X025342Y029363D01*
X025572Y029466D02*
X025676Y029363D01*
X025883Y029363D01*
X025986Y029466D01*
X026217Y029466D02*
X026217Y029673D01*
X026320Y029776D01*
X026527Y029776D01*
X026631Y029673D01*
X026631Y029466D01*
X026527Y029363D01*
X026320Y029363D01*
X026217Y029466D01*
X026861Y029363D02*
X026861Y029776D01*
X026861Y029570D02*
X027068Y029776D01*
X027172Y029776D01*
X027399Y029673D02*
X027399Y029466D01*
X027502Y029363D01*
X027709Y029363D01*
X027812Y029570D02*
X027399Y029570D01*
X027399Y029673D02*
X027502Y029776D01*
X027709Y029776D01*
X027812Y029673D01*
X027812Y029570D01*
X028043Y029673D02*
X028146Y029776D01*
X028457Y029776D01*
X028353Y029570D02*
X028146Y029570D01*
X028043Y029673D01*
X028043Y029363D02*
X028353Y029363D01*
X028457Y029466D01*
X028353Y029570D01*
X028254Y028906D02*
X028254Y028802D01*
X028254Y028595D02*
X028254Y028182D01*
X028151Y028182D02*
X028357Y028182D01*
X028580Y028285D02*
X028580Y028492D01*
X028684Y028595D01*
X028994Y028595D01*
X028994Y028078D01*
X028890Y027975D01*
X028787Y027975D01*
X028684Y028182D02*
X028994Y028182D01*
X029225Y028182D02*
X029225Y028595D01*
X029535Y028595D01*
X029638Y028492D01*
X029638Y028182D01*
X029869Y028182D02*
X030180Y028182D01*
X030283Y028285D01*
X030180Y028389D01*
X029973Y028389D01*
X029869Y028492D01*
X029973Y028595D01*
X030283Y028595D01*
X030184Y029363D02*
X030390Y029776D01*
X030725Y029776D02*
X030931Y029776D01*
X031035Y029673D01*
X031035Y029363D01*
X030725Y029363D01*
X030621Y029466D01*
X030725Y029570D01*
X031035Y029570D01*
X031266Y029363D02*
X031473Y029363D01*
X031369Y029363D02*
X031369Y029983D01*
X031266Y029983D01*
X032340Y029983D02*
X032340Y029570D01*
X032547Y029363D01*
X032754Y029570D01*
X032754Y029983D01*
X032984Y029776D02*
X033191Y029983D01*
X033191Y029363D01*
X032984Y029363D02*
X033398Y029363D01*
X033629Y029363D02*
X033732Y029363D01*
X033732Y029466D01*
X033629Y029466D01*
X033629Y029363D01*
X033951Y029466D02*
X034055Y029363D01*
X034261Y029363D01*
X034365Y029466D01*
X034365Y029570D01*
X034261Y029673D01*
X033951Y029673D01*
X033951Y029466D01*
X033951Y029673D02*
X034158Y029880D01*
X034365Y029983D01*
X034262Y028802D02*
X034365Y028699D01*
X033951Y028285D01*
X034055Y028182D01*
X034262Y028182D01*
X034365Y028285D01*
X034365Y028699D01*
X034262Y028802D02*
X034055Y028802D01*
X033951Y028699D01*
X033951Y028285D01*
X033720Y028182D02*
X033307Y028182D01*
X033720Y028595D01*
X033720Y028699D01*
X033617Y028802D01*
X033410Y028802D01*
X033307Y028699D01*
X032439Y028595D02*
X032439Y028389D01*
X032233Y028182D01*
X032002Y028182D02*
X031691Y028182D01*
X031588Y028285D01*
X031588Y028492D01*
X031691Y028595D01*
X032002Y028595D01*
X032233Y028802D02*
X032439Y028595D01*
X031365Y028802D02*
X031158Y028595D01*
X031158Y028389D01*
X031365Y028182D01*
X030184Y029363D02*
X029977Y029776D01*
X029746Y029983D02*
X029332Y029983D01*
X029332Y029363D01*
X029746Y029363D01*
X029539Y029673D02*
X029332Y029673D01*
X028254Y028595D02*
X028151Y028595D01*
X027920Y028595D02*
X027609Y028595D01*
X027506Y028492D01*
X027609Y028389D01*
X027816Y028389D01*
X027920Y028285D01*
X027816Y028182D01*
X027506Y028182D01*
X027275Y028389D02*
X027275Y028492D01*
X027172Y028595D01*
X026965Y028595D01*
X026861Y028492D01*
X026861Y028285D01*
X026965Y028182D01*
X027172Y028182D01*
X027275Y028389D02*
X026861Y028389D01*
X026631Y028285D02*
X026631Y028699D01*
X026527Y028802D01*
X026217Y028802D01*
X026217Y028182D01*
X026527Y028182D01*
X026631Y028285D01*
X025986Y028182D02*
X025572Y028182D01*
X025986Y028595D01*
X025986Y028699D01*
X025883Y028802D01*
X025676Y028802D01*
X025572Y028699D01*
X025342Y028492D02*
X025342Y028389D01*
X024928Y028389D01*
X024928Y028492D02*
X024928Y028285D01*
X025031Y028182D01*
X025238Y028182D01*
X025342Y028492D02*
X025238Y028595D01*
X025031Y028595D01*
X024928Y028492D01*
X024697Y028595D02*
X024387Y028595D01*
X024283Y028492D01*
X024387Y028389D01*
X024594Y028389D01*
X024697Y028285D01*
X024594Y028182D01*
X024283Y028182D01*
X024053Y028182D02*
X023742Y028182D01*
X023639Y028285D01*
X023742Y028389D01*
X024053Y028389D01*
X024053Y028492D02*
X024053Y028182D01*
X024053Y028492D02*
X023949Y028595D01*
X023742Y028595D01*
X023408Y028595D02*
X023305Y028492D01*
X022994Y028492D01*
X022994Y028802D02*
X023305Y028802D01*
X023408Y028699D01*
X023408Y028595D01*
X023305Y028492D02*
X023408Y028389D01*
X023408Y028285D01*
X023305Y028182D01*
X022994Y028182D01*
X022994Y028802D01*
X022376Y027425D02*
X022376Y027031D01*
X024344Y027031D02*
X024344Y027425D01*
X026313Y027425D02*
X026313Y027031D01*
X028281Y027031D02*
X028281Y027425D01*
X028684Y028182D02*
X028580Y028285D01*
X025986Y029880D02*
X025883Y029983D01*
X025676Y029983D01*
X025572Y029880D01*
X025572Y029466D01*
X019617Y027715D02*
X019617Y027435D01*
X019617Y027575D02*
X019197Y027575D01*
X019337Y027435D01*
X017936Y029300D02*
X017936Y030589D01*
X017812Y031107D02*
X017742Y031177D01*
X017742Y031317D01*
X017812Y031387D01*
X017952Y031567D02*
X017742Y031777D01*
X018162Y031777D01*
X017952Y031847D02*
X017952Y031567D01*
X018092Y031387D02*
X018162Y031317D01*
X018162Y031177D01*
X018092Y031107D01*
X017812Y031107D01*
X017509Y031339D02*
X017261Y031339D01*
X017391Y031461D02*
X017391Y031213D01*
X016847Y030589D02*
X016847Y029300D01*
X016362Y031056D02*
X016082Y031056D01*
X016012Y031126D01*
X016012Y031266D01*
X016082Y031336D01*
X016222Y031516D02*
X016082Y031656D01*
X016012Y031796D01*
X016222Y031726D02*
X016222Y031516D01*
X016362Y031516D01*
X016432Y031586D01*
X016432Y031726D01*
X016362Y031796D01*
X016292Y031796D01*
X016222Y031726D01*
X016362Y031336D02*
X016432Y031266D01*
X016432Y031126D01*
X016362Y031056D01*
X014680Y032217D02*
X014400Y032217D01*
X014680Y032497D01*
X014680Y032567D01*
X014610Y032638D01*
X014470Y032638D01*
X014400Y032567D01*
X014219Y032217D02*
X013939Y032217D01*
X013939Y032638D01*
X012541Y032079D02*
X012541Y030976D01*
X012423Y030898D01*
X010730Y030898D01*
X010730Y032079D01*
X012541Y032079D01*
X011889Y032181D02*
X011819Y032111D01*
X011679Y032111D01*
X011609Y032181D01*
X011429Y032181D02*
X011429Y032531D01*
X011609Y032461D02*
X011679Y032531D01*
X011819Y032531D01*
X011889Y032461D01*
X011889Y032391D01*
X011819Y032321D01*
X011889Y032251D01*
X011889Y032181D01*
X011819Y032321D02*
X011749Y032321D01*
X011429Y032181D02*
X011359Y032111D01*
X011218Y032111D01*
X011148Y032181D01*
X011148Y032531D01*
X009051Y031825D02*
X009051Y031685D01*
X008981Y031615D01*
X008981Y031435D02*
X009051Y031364D01*
X009051Y031224D01*
X008981Y031154D01*
X008700Y031154D01*
X008630Y031224D01*
X008630Y031364D01*
X008700Y031435D01*
X008700Y031615D02*
X008630Y031685D01*
X008630Y031825D01*
X008700Y031895D01*
X008770Y031895D01*
X008840Y031825D01*
X008910Y031895D01*
X008981Y031895D01*
X009051Y031825D01*
X008840Y031825D02*
X008840Y031755D01*
X010046Y030330D02*
X010256Y030330D01*
X010326Y030260D01*
X010326Y030120D01*
X010256Y030050D01*
X010046Y030050D01*
X010186Y030050D02*
X010326Y029910D01*
X010506Y029980D02*
X010576Y029910D01*
X010716Y029910D01*
X010786Y029980D01*
X010786Y030120D01*
X010716Y030190D01*
X010646Y030190D01*
X010506Y030120D01*
X010506Y030330D01*
X010786Y030330D01*
X010046Y030330D02*
X010046Y029910D01*
X011148Y028693D02*
X011148Y028342D01*
X012741Y025399D02*
X012741Y025119D01*
X012741Y025259D02*
X012320Y025259D01*
X012460Y025119D01*
X012390Y024938D02*
X012531Y024938D01*
X012601Y024868D01*
X012601Y024658D01*
X012741Y024658D02*
X012320Y024658D01*
X012320Y024868D01*
X012390Y024938D01*
X012601Y024798D02*
X012741Y024938D01*
X015257Y022014D02*
X015007Y021764D01*
X015007Y021264D01*
X015257Y021014D01*
X015007Y020764D01*
X015007Y020264D01*
X015257Y020014D01*
X015007Y019764D01*
X015007Y019264D01*
X015257Y019014D01*
X015007Y018764D01*
X015007Y018264D01*
X015257Y018014D01*
X015007Y017764D01*
X015007Y017264D01*
X015257Y017014D01*
X015007Y016764D01*
X015007Y016264D01*
X015257Y016014D01*
X015007Y015764D01*
X015007Y015264D01*
X015257Y015014D01*
X015007Y014764D01*
X015007Y014264D01*
X015257Y014014D01*
X015007Y013764D01*
X015007Y013264D01*
X015257Y013014D01*
X015007Y012764D01*
X015007Y012264D01*
X015257Y012014D01*
X015007Y011764D01*
X015007Y011264D01*
X015257Y011014D01*
X015007Y010764D01*
X015007Y010264D01*
X015257Y010014D01*
X015007Y009764D01*
X015007Y009264D01*
X015257Y009014D01*
X015007Y008764D01*
X015007Y008264D01*
X015257Y008014D01*
X015007Y007764D01*
X015007Y007264D01*
X015257Y007014D01*
X015007Y006764D01*
X015007Y006264D01*
X015257Y006014D01*
X015007Y005764D01*
X015007Y005264D01*
X015257Y005014D01*
X015007Y004764D01*
X015007Y004264D01*
X015257Y004014D01*
X015007Y003764D01*
X015007Y003264D01*
X015257Y003014D01*
X015007Y002764D01*
X015007Y002264D01*
X015257Y002014D01*
X016757Y002014D01*
X017007Y002264D01*
X017007Y002764D01*
X016757Y003014D01*
X017007Y003264D01*
X017007Y003764D01*
X016757Y004014D01*
X017007Y004264D01*
X017007Y004764D01*
X016757Y005014D01*
X017007Y005264D01*
X017007Y005764D01*
X016757Y006014D01*
X017007Y006264D01*
X017007Y006764D01*
X016757Y007014D01*
X017007Y007264D01*
X017007Y007764D01*
X016757Y008014D01*
X017007Y008264D01*
X017007Y008764D01*
X016757Y009014D01*
X017007Y009264D01*
X017007Y009764D01*
X016757Y010014D01*
X017007Y010264D01*
X017007Y010764D01*
X016757Y011014D01*
X017007Y011264D01*
X017007Y011764D01*
X016757Y012014D01*
X017007Y012264D01*
X017007Y012764D01*
X016757Y013014D01*
X017007Y013264D01*
X017007Y013764D01*
X016757Y014014D01*
X017007Y014264D01*
X017007Y014764D01*
X016757Y015014D01*
X017007Y015264D01*
X017007Y015764D01*
X016757Y016014D01*
X017007Y016264D01*
X017007Y016764D01*
X016757Y017014D01*
X017007Y017264D01*
X017007Y017764D01*
X016757Y018014D01*
X017007Y018264D01*
X017007Y018764D01*
X016757Y019014D01*
X017007Y019264D01*
X017007Y019764D01*
X016757Y020014D01*
X017007Y020264D01*
X017007Y020764D01*
X016757Y021014D01*
X017007Y021264D01*
X017007Y021764D01*
X016757Y022014D01*
X015257Y022014D01*
X014817Y021574D02*
X014817Y021293D01*
X014817Y021434D02*
X014397Y021434D01*
X014537Y021293D01*
X017197Y021273D02*
X017197Y021413D01*
X017197Y021343D02*
X017547Y021343D01*
X017617Y021273D01*
X017617Y021203D01*
X017547Y021133D01*
X017547Y021593D02*
X017617Y021593D01*
X017547Y021593D02*
X017267Y021874D01*
X017197Y021874D01*
X017197Y021593D01*
X019706Y017906D02*
X020198Y017906D01*
X020198Y015937D02*
X019706Y015937D01*
X019706Y013969D02*
X020198Y013969D01*
X019351Y013199D02*
X019281Y013269D01*
X019211Y013269D01*
X019141Y013199D01*
X019141Y012989D01*
X019281Y012989D01*
X019351Y013059D01*
X019351Y013199D01*
X019141Y012989D02*
X019001Y013129D01*
X018931Y013269D01*
X018931Y012808D02*
X019281Y012808D01*
X019351Y012738D01*
X019351Y012598D01*
X019281Y012528D01*
X018931Y012528D01*
X019706Y012000D02*
X020198Y012000D01*
X020198Y010031D02*
X019706Y010031D01*
X019498Y008910D02*
X019218Y008910D01*
X019498Y008630D01*
X019568Y008700D01*
X019568Y008840D01*
X019498Y008910D01*
X019498Y008630D02*
X019218Y008630D01*
X019148Y008700D01*
X019148Y008840D01*
X019218Y008910D01*
X019358Y008450D02*
X019358Y008170D01*
X019148Y008380D01*
X019568Y008380D01*
X019706Y008063D02*
X020198Y008063D01*
X019568Y007990D02*
X019568Y007709D01*
X019288Y007990D01*
X019218Y007990D01*
X019148Y007919D01*
X019148Y007779D01*
X019218Y007709D01*
X019849Y007317D02*
X019919Y007387D01*
X019989Y007387D01*
X020059Y007317D01*
X020059Y007177D01*
X019989Y007107D01*
X019919Y007107D01*
X019849Y007177D01*
X019849Y007317D01*
X020059Y007317D02*
X020129Y007387D01*
X020199Y007387D01*
X020269Y007317D01*
X020269Y007177D01*
X020199Y007107D01*
X020129Y007107D01*
X020059Y007177D01*
X019989Y006927D02*
X020059Y006857D01*
X020129Y006927D01*
X020199Y006927D01*
X020269Y006857D01*
X020269Y006716D01*
X020199Y006646D01*
X020199Y006466D02*
X020269Y006396D01*
X020269Y006256D01*
X020199Y006186D01*
X019919Y006186D01*
X019849Y006256D01*
X019849Y006396D01*
X019919Y006466D01*
X019919Y006646D02*
X019849Y006716D01*
X019849Y006857D01*
X019919Y006927D01*
X019989Y006927D01*
X020059Y006857D02*
X020059Y006786D01*
X021411Y006373D02*
X021832Y006373D01*
X021832Y006233D02*
X021832Y006513D01*
X021551Y006233D02*
X021411Y006373D01*
X023348Y006193D02*
X023348Y006685D01*
X024587Y005374D02*
X024727Y005374D01*
X024657Y005374D02*
X024657Y005024D01*
X024587Y004954D01*
X024517Y004954D01*
X024447Y005024D01*
X024657Y004764D02*
X024407Y004514D01*
X024407Y003014D01*
X024657Y002764D01*
X025157Y002764D01*
X025407Y003014D01*
X025657Y002764D01*
X026157Y002764D01*
X026407Y003014D01*
X026657Y002764D01*
X027157Y002764D01*
X027407Y003014D01*
X027657Y002764D01*
X028157Y002764D01*
X028407Y003014D01*
X028657Y002764D01*
X029157Y002764D01*
X029407Y003014D01*
X029657Y002764D01*
X030157Y002764D01*
X030407Y003014D01*
X030657Y002764D01*
X031157Y002764D01*
X031407Y003014D01*
X031657Y002764D01*
X032157Y002764D01*
X032407Y003014D01*
X032657Y002764D01*
X033157Y002764D01*
X033407Y003014D01*
X033657Y002764D01*
X034157Y002764D01*
X034407Y003014D01*
X034657Y002764D01*
X035157Y002764D01*
X035407Y003014D01*
X035657Y002764D01*
X036157Y002764D01*
X036407Y003014D01*
X036657Y002764D01*
X037157Y002764D01*
X037407Y003014D01*
X037657Y002764D01*
X038157Y002764D01*
X038407Y003014D01*
X038657Y002764D01*
X039157Y002764D01*
X039407Y003014D01*
X039407Y004514D01*
X039157Y004764D01*
X038657Y004764D01*
X038407Y004514D01*
X038157Y004764D01*
X037657Y004764D01*
X037407Y004514D01*
X037157Y004764D01*
X036657Y004764D01*
X036407Y004514D01*
X036157Y004764D01*
X035657Y004764D01*
X035407Y004514D01*
X035157Y004764D01*
X034657Y004764D01*
X034407Y004514D01*
X034157Y004764D01*
X033657Y004764D01*
X033407Y004514D01*
X033157Y004764D01*
X032657Y004764D01*
X032407Y004514D01*
X032157Y004764D01*
X031657Y004764D01*
X031407Y004514D01*
X031157Y004764D01*
X030657Y004764D01*
X030407Y004514D01*
X030157Y004764D01*
X029657Y004764D01*
X029407Y004514D01*
X029157Y004764D01*
X028657Y004764D01*
X028407Y004514D01*
X028157Y004764D01*
X027657Y004764D01*
X027407Y004514D01*
X027157Y004764D01*
X026657Y004764D01*
X026407Y004514D01*
X026157Y004764D01*
X025657Y004764D01*
X025407Y004514D01*
X025157Y004764D01*
X024657Y004764D01*
X024907Y005024D02*
X024977Y004954D01*
X025118Y004954D01*
X025188Y005024D01*
X025188Y005094D01*
X025118Y005164D01*
X025048Y005164D01*
X025118Y005164D02*
X025188Y005234D01*
X025188Y005304D01*
X025118Y005374D01*
X024977Y005374D01*
X024907Y005304D01*
X025317Y006193D02*
X025317Y006685D01*
X027285Y006685D02*
X027285Y006193D01*
X029254Y006193D02*
X029254Y006685D01*
X031222Y006685D02*
X031222Y006193D01*
X033025Y005821D02*
X033096Y005891D01*
X033376Y005611D01*
X033446Y005681D01*
X033446Y005821D01*
X033376Y005891D01*
X033096Y005891D01*
X033025Y005821D02*
X033025Y005681D01*
X033096Y005611D01*
X033376Y005611D01*
X033376Y005430D02*
X033306Y005430D01*
X033236Y005360D01*
X033236Y005150D01*
X033376Y005150D01*
X033446Y005220D01*
X033446Y005360D01*
X033376Y005430D01*
X033096Y005290D02*
X033236Y005150D01*
X033096Y005290D02*
X033025Y005430D01*
X033640Y006041D02*
X033780Y006041D01*
X033850Y006111D01*
X034030Y006111D02*
X034100Y006041D01*
X034240Y006041D01*
X034310Y006111D01*
X034310Y006251D01*
X034240Y006321D01*
X034170Y006321D01*
X034030Y006251D01*
X034030Y006461D01*
X034310Y006461D01*
X034490Y006391D02*
X034490Y006111D01*
X034770Y006391D01*
X034770Y006111D01*
X034700Y006041D01*
X034560Y006041D01*
X034490Y006111D01*
X034490Y006391D02*
X034560Y006461D01*
X034700Y006461D01*
X034770Y006391D01*
X033850Y006391D02*
X033780Y006461D01*
X033640Y006461D01*
X033570Y006391D01*
X033570Y006111D01*
X033640Y006041D01*
X033191Y006193D02*
X033191Y006685D01*
X034269Y007213D02*
X035096Y007213D01*
X035096Y007764D01*
X034269Y007764D01*
X034269Y007213D01*
X034769Y007751D02*
X034909Y007611D01*
X034909Y007821D01*
X034979Y007891D01*
X035049Y007891D01*
X035119Y007821D01*
X035119Y007681D01*
X035049Y007611D01*
X034909Y007611D01*
X034769Y007751D02*
X034699Y007891D01*
X034839Y008071D02*
X034699Y008211D01*
X035119Y008211D01*
X035119Y008071D02*
X035119Y008351D01*
X035345Y007783D02*
X035345Y007363D01*
X035625Y007363D01*
X035806Y007573D02*
X036086Y007573D01*
X036016Y007363D02*
X036016Y007783D01*
X035806Y007573D01*
X036568Y007966D02*
X036918Y007966D01*
X036988Y008036D01*
X036988Y008176D01*
X036918Y008246D01*
X036568Y008246D01*
X036568Y008426D02*
X036778Y008426D01*
X036708Y008566D01*
X036708Y008636D01*
X036778Y008706D01*
X036918Y008706D01*
X036988Y008636D01*
X036988Y008496D01*
X036918Y008426D01*
X036568Y008426D02*
X036568Y008706D01*
X036197Y008751D02*
X036127Y008821D01*
X036197Y008751D02*
X036197Y008610D01*
X036127Y008540D01*
X035847Y008540D01*
X035777Y008610D01*
X035777Y008751D01*
X035847Y008821D01*
X035847Y009001D02*
X035777Y009071D01*
X035777Y009211D01*
X035847Y009281D01*
X035917Y009281D01*
X035987Y009211D01*
X036057Y009281D01*
X036127Y009281D01*
X036197Y009211D01*
X036197Y009071D01*
X036127Y009001D01*
X035987Y009141D02*
X035987Y009211D01*
X035987Y009461D02*
X035987Y009671D01*
X036057Y009741D01*
X036127Y009741D01*
X036197Y009671D01*
X036197Y009531D01*
X036127Y009461D01*
X035987Y009461D01*
X035847Y009601D01*
X035777Y009741D01*
X036092Y010190D02*
X036022Y010260D01*
X036022Y010540D01*
X036092Y010610D01*
X036232Y010610D01*
X036302Y010540D01*
X036483Y010610D02*
X036483Y010400D01*
X036623Y010470D01*
X036693Y010470D01*
X036763Y010400D01*
X036763Y010260D01*
X036693Y010190D01*
X036553Y010190D01*
X036483Y010260D01*
X036302Y010260D02*
X036232Y010190D01*
X036092Y010190D01*
X036483Y010610D02*
X036763Y010610D01*
X036943Y010610D02*
X036943Y010400D01*
X037083Y010470D01*
X037153Y010470D01*
X037223Y010400D01*
X037223Y010260D01*
X037153Y010190D01*
X037013Y010190D01*
X036943Y010260D01*
X036943Y010610D02*
X037223Y010610D01*
X037315Y009831D02*
X037119Y009831D01*
X037119Y006681D01*
X039166Y006681D01*
X039166Y009831D01*
X039154Y009831D02*
X037709Y009831D01*
X037512Y009634D02*
X037486Y009636D01*
X037461Y009641D01*
X037437Y009649D01*
X037413Y009660D01*
X037392Y009675D01*
X037373Y009692D01*
X037356Y009711D01*
X037341Y009733D01*
X037330Y009756D01*
X037322Y009780D01*
X037317Y009805D01*
X037315Y009831D01*
X037512Y009634D02*
X037538Y009636D01*
X037563Y009641D01*
X037587Y009649D01*
X037610Y009660D01*
X037632Y009675D01*
X037651Y009692D01*
X037668Y009711D01*
X037683Y009732D01*
X037694Y009756D01*
X037702Y009780D01*
X037707Y009805D01*
X037709Y009831D01*
X039154Y009831D02*
X039156Y009832D01*
X039157Y009833D01*
X039158Y009835D01*
X036117Y011474D02*
X036047Y011404D01*
X035907Y011404D01*
X035837Y011474D01*
X035837Y011544D01*
X035907Y011614D01*
X036047Y011614D01*
X036117Y011544D01*
X036117Y011474D01*
X036047Y011614D02*
X036117Y011684D01*
X036117Y011754D01*
X036047Y011824D01*
X035907Y011824D01*
X035837Y011754D01*
X035837Y011684D01*
X035907Y011614D01*
X035657Y011754D02*
X035586Y011824D01*
X035446Y011824D01*
X035376Y011754D01*
X035376Y011474D01*
X035446Y011404D01*
X035586Y011404D01*
X035657Y011474D01*
X035061Y011803D02*
X034569Y011803D01*
X034569Y009835D02*
X035061Y009835D01*
X037796Y006174D02*
X037726Y006104D01*
X037726Y005824D01*
X037796Y005754D01*
X037936Y005754D01*
X038007Y005824D01*
X038187Y005824D02*
X038467Y006104D01*
X038467Y006174D01*
X038187Y006174D01*
X038007Y006104D02*
X037936Y006174D01*
X037796Y006174D01*
X038187Y005824D02*
X038187Y005754D01*
X038567Y005374D02*
X038497Y005304D01*
X038567Y005374D02*
X038707Y005374D01*
X038777Y005304D01*
X038777Y005234D01*
X038707Y005164D01*
X038777Y005094D01*
X038777Y005024D01*
X038707Y004954D01*
X038567Y004954D01*
X038497Y005024D01*
X038637Y005164D02*
X038707Y005164D01*
X038957Y005024D02*
X038957Y005304D01*
X039027Y005374D01*
X039168Y005374D01*
X039238Y005304D01*
X038957Y005024D01*
X039027Y004954D01*
X039168Y004954D01*
X039238Y005024D01*
X039238Y005304D01*
X035061Y013772D02*
X034569Y013772D01*
X034569Y015740D02*
X035061Y015740D01*
X035061Y017709D02*
X034569Y017709D01*
X035331Y019028D02*
X035191Y019168D01*
X035611Y019168D01*
X035611Y019028D02*
X035611Y019308D01*
X035611Y019489D02*
X035331Y019769D01*
X035261Y019769D01*
X035191Y019699D01*
X035191Y019559D01*
X035261Y019489D01*
X035061Y019677D02*
X034569Y019677D01*
X035191Y020019D02*
X035191Y020159D01*
X035261Y020229D01*
X035541Y019949D01*
X035611Y020019D01*
X035611Y020159D01*
X035541Y020229D01*
X035261Y020229D01*
X035191Y020019D02*
X035261Y019949D01*
X035541Y019949D01*
X035611Y019769D02*
X035611Y019489D01*
X033446Y021095D02*
X033446Y021375D01*
X033446Y021235D02*
X033025Y021235D01*
X033166Y021095D01*
X033096Y021555D02*
X033025Y021626D01*
X033025Y021766D01*
X033096Y021836D01*
X033166Y021836D01*
X033446Y021555D01*
X033446Y021836D01*
X033446Y022016D02*
X033446Y022296D01*
X033446Y022156D02*
X033025Y022156D01*
X033166Y022016D01*
X032851Y021965D02*
X032781Y021894D01*
X032851Y021965D02*
X032851Y022105D01*
X032781Y022175D01*
X032710Y022175D01*
X032640Y022105D01*
X032640Y022035D01*
X032640Y022105D02*
X032570Y022175D01*
X032500Y022175D01*
X032430Y022105D01*
X032430Y021965D01*
X032500Y021894D01*
X032500Y021714D02*
X032430Y021644D01*
X032430Y021504D01*
X032500Y021434D01*
X032781Y021434D01*
X032851Y021504D01*
X032851Y021644D01*
X032781Y021714D01*
X032781Y022355D02*
X032500Y022635D01*
X032430Y022635D01*
X032430Y022355D01*
X032781Y022355D02*
X032851Y022355D01*
X031419Y021547D02*
X031419Y021055D01*
X029450Y021055D02*
X029450Y021547D01*
X028872Y021520D02*
X028872Y021913D01*
X027482Y021547D02*
X027482Y021055D01*
X026903Y021520D02*
X026903Y021913D01*
X026639Y020933D02*
X026639Y020512D01*
X026499Y020512D02*
X026779Y020512D01*
X026499Y020793D02*
X026639Y020933D01*
X026318Y020933D02*
X026318Y020582D01*
X026248Y020512D01*
X026108Y020512D01*
X026038Y020582D01*
X026038Y020933D01*
X025513Y021055D02*
X025513Y021547D01*
X024935Y021520D02*
X024935Y021913D01*
X023545Y021547D02*
X023545Y021055D01*
X022966Y021520D02*
X022966Y021913D01*
X026883Y015370D02*
X027933Y015770D01*
X027933Y015570D01*
X027733Y015470D01*
X027733Y015070D01*
X027933Y014970D01*
X027933Y014620D01*
X027583Y014620D01*
X027433Y014770D02*
X027445Y014791D01*
X027459Y014811D01*
X027476Y014828D01*
X027495Y014843D01*
X027516Y014855D01*
X027538Y014864D01*
X027562Y014871D01*
X027586Y014874D01*
X027610Y014873D01*
X027634Y014870D01*
X027583Y014870D02*
X026883Y015170D01*
X026883Y015370D01*
X027083Y015270D02*
X027533Y015120D01*
X027533Y015420D01*
X027083Y015270D01*
X026883Y014620D02*
X026883Y013770D01*
X027083Y013770D01*
X027083Y014170D01*
X027283Y014170D01*
X027283Y013770D01*
X027083Y013770D01*
X027083Y013470D01*
X027933Y013470D01*
X027933Y012570D01*
X027733Y012470D01*
X027733Y012070D01*
X027933Y011970D01*
X027933Y011770D01*
X026883Y012170D01*
X026883Y012370D01*
X027733Y012720D01*
X026883Y012720D01*
X026883Y012920D01*
X026883Y013770D01*
X027083Y013270D02*
X027083Y012920D01*
X027733Y012920D01*
X027733Y013270D01*
X027083Y013270D01*
X027083Y012920D02*
X026883Y012920D01*
X027083Y012270D02*
X027533Y012420D01*
X027533Y012120D01*
X027083Y012270D01*
X027933Y013520D02*
X027933Y014420D01*
X027483Y014420D01*
X027483Y014520D01*
X027485Y014540D01*
X027491Y014558D01*
X027500Y014576D01*
X027512Y014591D01*
X027527Y014603D01*
X027545Y014612D01*
X027563Y014618D01*
X027583Y014620D01*
X027283Y014570D02*
X027283Y014420D01*
X027083Y014420D01*
X027083Y014570D01*
X027085Y014590D01*
X027091Y014608D01*
X027100Y014626D01*
X027112Y014641D01*
X027127Y014653D01*
X027145Y014662D01*
X027163Y014668D01*
X027183Y014670D01*
X027203Y014668D01*
X027221Y014662D01*
X027239Y014653D01*
X027254Y014641D01*
X027266Y014626D01*
X027275Y014608D01*
X027281Y014590D01*
X027283Y014570D01*
X027434Y014770D02*
X027413Y014796D01*
X027389Y014820D01*
X027363Y014841D01*
X027334Y014859D01*
X027304Y014874D01*
X027272Y014885D01*
X027240Y014893D01*
X027206Y014897D01*
X027173Y014898D01*
X027139Y014894D01*
X027106Y014887D01*
X027074Y014877D01*
X027044Y014863D01*
X027015Y014845D01*
X026988Y014825D01*
X026964Y014801D01*
X026943Y014775D01*
X026924Y014747D01*
X026909Y014717D01*
X026897Y014686D01*
X026889Y014653D01*
X026884Y014620D01*
X027483Y014170D02*
X027483Y013770D01*
X027683Y013770D01*
X027683Y014170D01*
X027483Y014170D01*
X032407Y024664D02*
X032457Y024664D01*
X032407Y024664D02*
X032407Y024864D01*
X032457Y024864D01*
X032517Y025304D02*
X032657Y025304D01*
X032727Y025374D01*
X032727Y025514D01*
X032587Y025514D01*
X032447Y025654D02*
X032447Y025374D01*
X032517Y025304D01*
X032447Y025654D02*
X032517Y025724D01*
X032657Y025724D01*
X032727Y025654D01*
X032907Y025724D02*
X033188Y025304D01*
X033188Y025724D01*
X033368Y025724D02*
X033578Y025724D01*
X033648Y025654D01*
X033648Y025374D01*
X033578Y025304D01*
X033368Y025304D01*
X033368Y025724D01*
X032907Y025724D02*
X032907Y025304D01*
X033357Y024864D02*
X033407Y024864D01*
X033407Y024664D01*
X033357Y024664D01*
X034699Y028182D02*
X034596Y028285D01*
X035009Y028699D01*
X035009Y028285D01*
X034906Y028182D01*
X034699Y028182D01*
X034596Y028285D02*
X034596Y028699D01*
X034699Y028802D01*
X034906Y028802D01*
X035009Y028699D01*
X035240Y028699D02*
X035240Y028595D01*
X035344Y028492D01*
X035551Y028492D01*
X035654Y028389D01*
X035654Y028285D01*
X035551Y028182D01*
X035344Y028182D01*
X035240Y028285D01*
X035240Y028389D01*
X035344Y028492D01*
X035551Y028492D02*
X035654Y028595D01*
X035654Y028699D01*
X035551Y028802D01*
X035344Y028802D01*
X035240Y028699D01*
X006486Y027362D02*
X006486Y031362D01*
X000986Y031362D01*
X000986Y027362D01*
X006486Y027362D01*
X001817Y021574D02*
X001817Y021293D01*
X001817Y021434D02*
X001397Y021434D01*
X001537Y021293D01*
X017267Y002874D02*
X017547Y002593D01*
X017617Y002663D01*
X017617Y002804D01*
X017547Y002874D01*
X017267Y002874D01*
X017197Y002804D01*
X017197Y002663D01*
X017267Y002593D01*
X017547Y002593D01*
X017407Y002413D02*
X017407Y002133D01*
X017197Y002343D01*
X017617Y002343D01*
X024797Y002434D02*
X024937Y002574D01*
X024937Y002154D01*
X024797Y002154D02*
X025077Y002154D01*
D11*
X020055Y027073D03*
X019759Y027073D03*
D12*
X019907Y027073D03*
D13*
X021577Y008358D02*
X021579Y008393D01*
X021585Y008427D01*
X021595Y008461D01*
X021610Y008493D01*
X021627Y008523D01*
X021649Y008551D01*
X021673Y008576D01*
X021700Y008598D01*
X021730Y008616D01*
X021761Y008631D01*
X021794Y008643D01*
X021828Y008650D01*
X021863Y008653D01*
X021898Y008652D01*
X021933Y008647D01*
X021966Y008637D01*
X021999Y008624D01*
X022029Y008607D01*
X022058Y008587D01*
X022084Y008563D01*
X022106Y008537D01*
X022126Y008508D01*
X022142Y008477D01*
X022154Y008444D01*
X022162Y008410D01*
X022166Y008375D01*
X022166Y008341D01*
X022162Y008306D01*
X022154Y008272D01*
X022142Y008239D01*
X022126Y008208D01*
X022106Y008179D01*
X022084Y008153D01*
X022058Y008129D01*
X022029Y008109D01*
X021999Y008092D01*
X021966Y008079D01*
X021933Y008069D01*
X021898Y008064D01*
X021863Y008063D01*
X021828Y008066D01*
X021794Y008073D01*
X021761Y008085D01*
X021730Y008100D01*
X021700Y008118D01*
X021673Y008140D01*
X021649Y008165D01*
X021627Y008193D01*
X021610Y008223D01*
X021595Y008255D01*
X021585Y008289D01*
X021579Y008323D01*
X021577Y008358D01*
M02*
