%
M48
M72
T01C0.0240
T02C0.0320
T03C0.0400
T04C0.0591
T05C0.1300
%
T01
X8881Y8181
X4781Y8481
X12481Y11881
X12581Y12381
X13381Y12381
X13081Y14981
X11181Y15381
X10181Y15381
X12481Y16781
X16881Y17681
X17481Y16981
X18581Y17681
X19181Y16981
X19881Y15281
X21581Y16181
X21681Y17881
X24581Y20681
X30181Y17781
X30181Y15781
X33081Y15281
X33181Y16281
X34381Y15781
X34581Y16481
X35181Y15281
X36381Y15481
X36981Y15281
X34981Y13381
X34381Y13481
X34481Y12781
X33281Y13781
X32281Y13081
X32881Y12581
X33981Y11281
X33981Y10781
X34881Y10781
X34881Y11281
X35781Y11381
X36081Y10881
X37081Y10881
X37081Y11381
X34481Y8981
X33381Y8981
X31681Y9681
X30581Y8581
X29081Y9081
X28881Y9981
X27481Y11081
X27481Y12281
X28881Y11481
X25681Y10281
X24981Y10581
X23081Y12481
X25781Y15181
X26881Y15181
X30581Y20381
X37581Y19381
X37481Y23881
X17681Y14081
X14581Y8381
X14381Y7481
X14181Y6681
X14881Y6681
X15781Y8181
X16781Y6981
X19181Y6981
X19881Y6981
X19881Y8081
X19181Y8081
X22056Y7494
X21681Y3981
X17881Y3681
X16181Y3081
X13681Y2981
X29781Y3931
X29781Y4706
X31881Y6981
X37531Y4481
X12681Y20581
X11481Y20581
X12681Y21881
X11481Y21981
X3181Y19981
T02
X10981Y6731
X10981Y5681
X12181Y6731
X7681Y2181
X35181Y2981
T03
X3181Y4681
X4181Y4681
X4181Y5681
X3181Y5681
X5181Y5681
X6181Y5681
X6181Y4681
X5181Y4681
X7181Y4681
X7181Y5681
X12181Y5681
X12181Y4681
X13181Y4681
X13181Y5681
X14181Y5681
X15181Y5681
X15181Y4681
X14181Y4681
X16181Y4681
X17181Y4681
X17181Y5681
X16181Y5681
X18181Y5681
X19181Y5681
X19181Y4681
X18181Y4681
X20181Y4681
X21181Y4681
X21181Y5681
X20181Y5681
X22181Y5681
X23181Y5681
X23181Y4681
X22181Y4681
X24181Y4681
X25181Y4681
X25181Y5681
X24181Y5681
X26181Y5681
X26181Y4681
X26181Y7794
X25181Y7794
X24181Y7794
X21181Y10681
X20181Y10681
X19181Y10681
X32181Y5681
X32181Y4681
X33181Y4681
X34181Y4681
X34181Y5681
X33181Y5681
X35181Y5681
X36181Y5681
X36181Y4681
X35181Y4681
X37181Y17181
X22841Y23181
X21761Y23181
X20681Y23181
X19601Y23181
X18521Y23181
X19061Y24181
X20141Y24181
X21221Y24181
X22301Y24181
T04
X2347Y18945
X2347Y9418
T05
X15751Y23681
X25611Y23681
M30
