G75*
G70*
%OFA0B0*%
%FSLAX24Y24*%
%IPPOS*%
%LPD*%
%AMOC8*
5,1,8,0,0,1.08239X$1,22.5*
%
%ADD10C,0.0600*%
%ADD11C,0.2000*%
%ADD12C,0.0850*%
%ADD13C,0.0400*%
%ADD14C,0.0100*%
%ADD15C,0.0480*%
%ADD16C,0.0320*%
%ADD17C,0.0080*%
D10*
X003181Y004681D03*
X004181Y004681D03*
X004181Y005681D03*
X003181Y005681D03*
X005181Y005681D03*
X006181Y005681D03*
X006181Y004681D03*
X005181Y004681D03*
X007181Y004681D03*
X007181Y005681D03*
X012181Y005681D03*
X012181Y004681D03*
X013181Y004681D03*
X013181Y005681D03*
X014181Y005681D03*
X015181Y005681D03*
X015181Y004681D03*
X014181Y004681D03*
X016181Y004681D03*
X017181Y004681D03*
X017181Y005681D03*
X016181Y005681D03*
X018181Y005681D03*
X019181Y005681D03*
X019181Y004681D03*
X018181Y004681D03*
X020181Y004681D03*
X021181Y004681D03*
X021181Y005681D03*
X020181Y005681D03*
X022181Y005681D03*
X023181Y005681D03*
X023181Y004681D03*
X022181Y004681D03*
X024181Y004681D03*
X025181Y004681D03*
X025181Y005681D03*
X024181Y005681D03*
X026181Y005681D03*
X026181Y004681D03*
X026181Y007794D03*
X025181Y007794D03*
X024181Y007794D03*
X021181Y010681D03*
X020181Y010681D03*
X019181Y010681D03*
X032181Y005681D03*
X032181Y004681D03*
X033181Y004681D03*
X034181Y004681D03*
X034181Y005681D03*
X033181Y005681D03*
X035181Y005681D03*
X036181Y005681D03*
X036181Y004681D03*
X035181Y004681D03*
X022841Y023181D03*
X021761Y023181D03*
X020681Y023181D03*
X019601Y023181D03*
X018521Y023181D03*
X019061Y024181D03*
X020141Y024181D03*
X021221Y024181D03*
X022301Y024181D03*
D11*
X025611Y023681D03*
X015751Y023681D03*
D12*
X037181Y017181D03*
D13*
X036381Y015481D03*
X036981Y015281D03*
X035181Y015281D03*
X034381Y015781D03*
X034581Y016481D03*
X033181Y016281D03*
X033081Y015281D03*
X033281Y013781D03*
X032281Y013081D03*
X032881Y012581D03*
X034481Y012781D03*
X034381Y013481D03*
X034981Y013381D03*
X034881Y011281D03*
X034881Y010781D03*
X033981Y010781D03*
X033981Y011281D03*
X035781Y011381D03*
X036081Y010881D03*
X037081Y010881D03*
X037081Y011381D03*
X034481Y008981D03*
X033381Y008981D03*
X031681Y009681D03*
X030581Y008581D03*
X029081Y009081D03*
X028881Y009981D03*
X027481Y011081D03*
X027481Y012281D03*
X028881Y011481D03*
X025681Y010281D03*
X024981Y010581D03*
X023081Y012481D03*
X025781Y015181D03*
X026881Y015181D03*
X030181Y015781D03*
X030181Y017781D03*
X030581Y020381D03*
X024581Y020681D03*
X021681Y017881D03*
X021581Y016181D03*
X019881Y015281D03*
X019181Y016981D03*
X018581Y017681D03*
X017481Y016981D03*
X016881Y017681D03*
X013081Y014981D03*
X011181Y015381D03*
X010181Y015381D03*
X012481Y016781D03*
X012681Y020581D03*
X011481Y020581D03*
X012681Y021881D03*
X011481Y021981D03*
X003181Y019981D03*
X012581Y012381D03*
X012481Y011881D03*
X013381Y012381D03*
X017681Y014081D03*
X014581Y008381D03*
X014381Y007481D03*
X014181Y006681D03*
X014881Y006681D03*
X015781Y008181D03*
X016781Y006981D03*
X019181Y006981D03*
X019881Y006981D03*
X019881Y008081D03*
X019181Y008081D03*
X022056Y007494D03*
X021681Y003981D03*
X017881Y003681D03*
X016181Y003081D03*
X013681Y002981D03*
X008881Y008181D03*
X004781Y008481D03*
X029781Y004706D03*
X029781Y003931D03*
X031881Y006981D03*
X037531Y004481D03*
X037581Y019381D03*
X037481Y023881D03*
D14*
X000711Y024651D02*
X000711Y000711D01*
X038651Y000711D01*
X038651Y024651D01*
X026268Y024651D01*
X026586Y024333D01*
X026761Y023910D01*
X026761Y023731D01*
X025662Y023731D01*
X025662Y023631D01*
X026761Y023631D01*
X026761Y023453D01*
X026586Y023030D01*
X026263Y022706D01*
X025840Y022531D01*
X025661Y022531D01*
X025661Y023631D01*
X025561Y023631D01*
X024461Y023631D01*
X024461Y023453D01*
X024636Y023030D01*
X024960Y022706D01*
X025383Y022531D01*
X025561Y022531D01*
X025561Y023631D01*
X025561Y023731D01*
X024461Y023731D01*
X024461Y023910D01*
X024636Y024333D01*
X024955Y024651D01*
X022499Y024651D01*
X022590Y024614D01*
X022734Y024470D01*
X022811Y024283D01*
X022811Y024080D01*
X022734Y023893D01*
X022590Y023749D01*
X022403Y023671D01*
X022200Y023671D01*
X022013Y023749D01*
X021869Y023893D01*
X021791Y024080D01*
X021791Y024283D01*
X021869Y024470D01*
X022013Y024614D01*
X022104Y024651D01*
X021419Y024651D01*
X021510Y024614D01*
X021654Y024470D01*
X021731Y024283D01*
X021731Y024080D01*
X021654Y023893D01*
X021510Y023749D01*
X021323Y023671D01*
X021120Y023671D01*
X020933Y023749D01*
X020789Y023893D01*
X020711Y024080D01*
X020711Y024283D01*
X020789Y024470D01*
X020933Y024614D01*
X021024Y024651D01*
X020339Y024651D01*
X020430Y024614D01*
X020574Y024470D01*
X020651Y024283D01*
X020651Y024080D01*
X020574Y023893D01*
X020430Y023749D01*
X020243Y023671D01*
X020040Y023671D01*
X019853Y023749D01*
X019709Y023893D01*
X019631Y024080D01*
X019631Y024283D01*
X019709Y024470D01*
X019853Y024614D01*
X019944Y024651D01*
X019259Y024651D01*
X019350Y024614D01*
X019494Y024470D01*
X019571Y024283D01*
X019571Y024080D01*
X019494Y023893D01*
X019350Y023749D01*
X019163Y023671D01*
X018960Y023671D01*
X018773Y023749D01*
X018629Y023893D01*
X018551Y024080D01*
X018551Y024283D01*
X018629Y024470D01*
X018773Y024614D01*
X018864Y024651D01*
X016408Y024651D01*
X016726Y024333D01*
X016901Y023910D01*
X016901Y023731D01*
X015802Y023731D01*
X015802Y023631D01*
X016901Y023631D01*
X016901Y023453D01*
X016726Y023030D01*
X016403Y022706D01*
X015980Y022531D01*
X015801Y022531D01*
X015801Y023631D01*
X015701Y023631D01*
X015701Y022531D01*
X015523Y022531D01*
X015100Y022706D01*
X014776Y023030D01*
X014601Y023453D01*
X014601Y023631D01*
X015701Y023631D01*
X015701Y023731D01*
X014601Y023731D01*
X014601Y023910D01*
X014776Y024333D01*
X015095Y024651D01*
X000711Y024651D01*
X000711Y024620D02*
X015064Y024620D01*
X014965Y024522D02*
X000711Y024522D01*
X000711Y024423D02*
X014867Y024423D01*
X014773Y024325D02*
X000711Y024325D01*
X000711Y024226D02*
X014732Y024226D01*
X014691Y024127D02*
X000711Y024127D01*
X000711Y024029D02*
X014651Y024029D01*
X014610Y023930D02*
X000711Y023930D01*
X000711Y023832D02*
X014601Y023832D01*
X014601Y023733D02*
X000711Y023733D01*
X000711Y023635D02*
X015701Y023635D01*
X015701Y023536D02*
X015801Y023536D01*
X015801Y023438D02*
X015701Y023438D01*
X015701Y023339D02*
X015801Y023339D01*
X015801Y023241D02*
X015701Y023241D01*
X015701Y023142D02*
X015801Y023142D01*
X015801Y023043D02*
X015701Y023043D01*
X015701Y022945D02*
X015801Y022945D01*
X015801Y022846D02*
X015701Y022846D01*
X015701Y022748D02*
X015801Y022748D01*
X015801Y022649D02*
X015701Y022649D01*
X015701Y022551D02*
X015801Y022551D01*
X016027Y022551D02*
X025336Y022551D01*
X025561Y022551D02*
X025661Y022551D01*
X025661Y022649D02*
X025561Y022649D01*
X025561Y022748D02*
X025661Y022748D01*
X025661Y022846D02*
X025561Y022846D01*
X025561Y022945D02*
X025661Y022945D01*
X025661Y023043D02*
X025561Y023043D01*
X025561Y023142D02*
X025661Y023142D01*
X025661Y023241D02*
X025561Y023241D01*
X025561Y023339D02*
X025661Y023339D01*
X025661Y023438D02*
X025561Y023438D01*
X025561Y023536D02*
X025661Y023536D01*
X025662Y023635D02*
X038651Y023635D01*
X038651Y023733D02*
X026761Y023733D01*
X026761Y023832D02*
X038651Y023832D01*
X038651Y023930D02*
X026753Y023930D01*
X026712Y024029D02*
X038651Y024029D01*
X038651Y024127D02*
X026671Y024127D01*
X026631Y024226D02*
X038651Y024226D01*
X038651Y024325D02*
X026590Y024325D01*
X026496Y024423D02*
X038651Y024423D01*
X038651Y024522D02*
X026398Y024522D01*
X026299Y024620D02*
X038651Y024620D01*
X038651Y023536D02*
X026761Y023536D01*
X026755Y023438D02*
X038651Y023438D01*
X038651Y023339D02*
X026714Y023339D01*
X026674Y023241D02*
X038651Y023241D01*
X038651Y023142D02*
X026633Y023142D01*
X026592Y023043D02*
X038651Y023043D01*
X038651Y022945D02*
X026501Y022945D01*
X026403Y022846D02*
X038651Y022846D01*
X038651Y022748D02*
X026304Y022748D01*
X026125Y022649D02*
X038651Y022649D01*
X038651Y022551D02*
X025887Y022551D01*
X025098Y022649D02*
X016265Y022649D01*
X016444Y022748D02*
X018235Y022748D01*
X018233Y022749D02*
X018420Y022671D01*
X018623Y022671D01*
X018810Y022749D01*
X018954Y022893D01*
X019031Y023080D01*
X019031Y023283D01*
X018954Y023470D01*
X018810Y023614D01*
X018623Y023691D01*
X018420Y023691D01*
X018233Y023614D01*
X018089Y023470D01*
X018011Y023283D01*
X018011Y023080D01*
X018089Y022893D01*
X018233Y022749D01*
X018135Y022846D02*
X016543Y022846D01*
X016641Y022945D02*
X018067Y022945D01*
X018026Y023043D02*
X016732Y023043D01*
X016773Y023142D02*
X018011Y023142D01*
X018011Y023241D02*
X016814Y023241D01*
X016854Y023339D02*
X018035Y023339D01*
X018076Y023438D02*
X016895Y023438D01*
X016901Y023536D02*
X018155Y023536D01*
X018283Y023635D02*
X015802Y023635D01*
X016901Y023733D02*
X018811Y023733D01*
X018760Y023635D02*
X019363Y023635D01*
X019313Y023614D02*
X019169Y023470D01*
X019091Y023283D01*
X019091Y023080D01*
X019169Y022893D01*
X019313Y022749D01*
X019500Y022671D01*
X019703Y022671D01*
X019890Y022749D01*
X020034Y022893D01*
X020111Y023080D01*
X020111Y023283D01*
X020034Y023470D01*
X019890Y023614D01*
X019703Y023691D01*
X019500Y023691D01*
X019313Y023614D01*
X019235Y023536D02*
X018888Y023536D01*
X018967Y023438D02*
X019156Y023438D01*
X019115Y023339D02*
X019008Y023339D01*
X019031Y023241D02*
X019091Y023241D01*
X019091Y023142D02*
X019031Y023142D01*
X019016Y023043D02*
X019106Y023043D01*
X019147Y022945D02*
X018975Y022945D01*
X018908Y022846D02*
X019215Y022846D01*
X019315Y022748D02*
X018807Y022748D01*
X019887Y022748D02*
X020395Y022748D01*
X020393Y022749D02*
X020580Y022671D01*
X020783Y022671D01*
X020970Y022749D01*
X021114Y022893D01*
X021191Y023080D01*
X021191Y023283D01*
X021114Y023470D01*
X020970Y023614D01*
X020783Y023691D01*
X020580Y023691D01*
X020393Y023614D01*
X020249Y023470D01*
X020171Y023283D01*
X020171Y023080D01*
X020249Y022893D01*
X020393Y022749D01*
X020295Y022846D02*
X019988Y022846D01*
X020055Y022945D02*
X020227Y022945D01*
X020186Y023043D02*
X020096Y023043D01*
X020111Y023142D02*
X020171Y023142D01*
X020171Y023241D02*
X020111Y023241D01*
X020088Y023339D02*
X020195Y023339D01*
X020236Y023438D02*
X020047Y023438D01*
X019968Y023536D02*
X020315Y023536D01*
X020443Y023635D02*
X019840Y023635D01*
X019891Y023733D02*
X019312Y023733D01*
X019433Y023832D02*
X019770Y023832D01*
X019693Y023930D02*
X019509Y023930D01*
X019550Y024029D02*
X019653Y024029D01*
X019631Y024127D02*
X019571Y024127D01*
X019571Y024226D02*
X019631Y024226D01*
X019649Y024325D02*
X019554Y024325D01*
X019513Y024423D02*
X019690Y024423D01*
X019760Y024522D02*
X019442Y024522D01*
X019335Y024620D02*
X019868Y024620D01*
X020415Y024620D02*
X020948Y024620D01*
X020840Y024522D02*
X020522Y024522D01*
X020593Y024423D02*
X020770Y024423D01*
X020729Y024325D02*
X020634Y024325D01*
X020651Y024226D02*
X020711Y024226D01*
X020711Y024127D02*
X020651Y024127D01*
X020630Y024029D02*
X020733Y024029D01*
X020773Y023930D02*
X020589Y023930D01*
X020513Y023832D02*
X020850Y023832D01*
X020971Y023733D02*
X020392Y023733D01*
X020920Y023635D02*
X021523Y023635D01*
X021473Y023614D02*
X021329Y023470D01*
X021251Y023283D01*
X021251Y023080D01*
X021329Y022893D01*
X021473Y022749D01*
X021660Y022671D01*
X021863Y022671D01*
X022050Y022749D01*
X022194Y022893D01*
X022271Y023080D01*
X022271Y023283D01*
X022194Y023470D01*
X022050Y023614D01*
X021863Y023691D01*
X021660Y023691D01*
X021473Y023614D01*
X021395Y023536D02*
X021048Y023536D01*
X021127Y023438D02*
X021316Y023438D01*
X021275Y023339D02*
X021168Y023339D01*
X021191Y023241D02*
X021251Y023241D01*
X021251Y023142D02*
X021191Y023142D01*
X021176Y023043D02*
X021266Y023043D01*
X021307Y022945D02*
X021135Y022945D01*
X021068Y022846D02*
X021375Y022846D01*
X021475Y022748D02*
X020967Y022748D01*
X022047Y022748D02*
X022712Y022748D01*
X022752Y022731D02*
X022791Y022731D01*
X022791Y023131D01*
X022391Y023131D01*
X022391Y023092D01*
X022460Y022926D01*
X022586Y022800D01*
X022752Y022731D01*
X022791Y022748D02*
X022891Y022748D01*
X022891Y022731D02*
X022931Y022731D01*
X023096Y022800D01*
X023223Y022926D01*
X023291Y023092D01*
X023291Y023131D01*
X022892Y023131D01*
X022892Y023231D01*
X023291Y023231D01*
X023291Y023271D01*
X023223Y023436D01*
X023096Y023563D01*
X022931Y023631D01*
X022891Y023631D01*
X022891Y023232D01*
X022791Y023232D01*
X022791Y023631D01*
X022752Y023631D01*
X022586Y023563D01*
X022460Y023436D01*
X022391Y023271D01*
X022391Y023231D01*
X022791Y023231D01*
X022791Y023131D01*
X022891Y023131D01*
X022891Y022731D01*
X022971Y022748D02*
X024919Y022748D01*
X024820Y022846D02*
X023143Y022846D01*
X023230Y022945D02*
X024722Y022945D01*
X024631Y023043D02*
X023271Y023043D01*
X023291Y023241D02*
X024549Y023241D01*
X024508Y023339D02*
X023263Y023339D01*
X023222Y023438D02*
X024468Y023438D01*
X024461Y023536D02*
X023123Y023536D01*
X022891Y023536D02*
X022791Y023536D01*
X022791Y023438D02*
X022891Y023438D01*
X022891Y023339D02*
X022791Y023339D01*
X022791Y023241D02*
X022891Y023241D01*
X022892Y023142D02*
X024590Y023142D01*
X024461Y023733D02*
X022552Y023733D01*
X022673Y023832D02*
X024461Y023832D01*
X024470Y023930D02*
X022749Y023930D01*
X022790Y024029D02*
X024511Y024029D01*
X024551Y024127D02*
X022811Y024127D01*
X022811Y024226D02*
X024592Y024226D01*
X024633Y024325D02*
X022794Y024325D01*
X022753Y024423D02*
X024727Y024423D01*
X024825Y024522D02*
X022682Y024522D01*
X022575Y024620D02*
X024924Y024620D01*
X025561Y023635D02*
X022000Y023635D01*
X022051Y023733D02*
X021472Y023733D01*
X021593Y023832D02*
X021930Y023832D01*
X021853Y023930D02*
X021669Y023930D01*
X021710Y024029D02*
X021813Y024029D01*
X021791Y024127D02*
X021731Y024127D01*
X021731Y024226D02*
X021791Y024226D01*
X021809Y024325D02*
X021714Y024325D01*
X021673Y024423D02*
X021850Y024423D01*
X021920Y024522D02*
X021602Y024522D01*
X021495Y024620D02*
X022028Y024620D01*
X022128Y023536D02*
X022560Y023536D01*
X022461Y023438D02*
X022207Y023438D01*
X022248Y023339D02*
X022420Y023339D01*
X022391Y023241D02*
X022271Y023241D01*
X022271Y023142D02*
X022791Y023142D01*
X022791Y023043D02*
X022891Y023043D01*
X022891Y022945D02*
X022791Y022945D01*
X022791Y022846D02*
X022891Y022846D01*
X022540Y022846D02*
X022148Y022846D01*
X022215Y022945D02*
X022452Y022945D01*
X022411Y023043D02*
X022256Y023043D01*
X018690Y023832D02*
X016901Y023832D01*
X016893Y023930D02*
X018613Y023930D01*
X018573Y024029D02*
X016852Y024029D01*
X016811Y024127D02*
X018551Y024127D01*
X018551Y024226D02*
X016771Y024226D01*
X016730Y024325D02*
X018569Y024325D01*
X018610Y024423D02*
X016636Y024423D01*
X016538Y024522D02*
X018680Y024522D01*
X018788Y024620D02*
X016439Y024620D01*
X014601Y023536D02*
X000711Y023536D01*
X000711Y023438D02*
X014608Y023438D01*
X014648Y023339D02*
X000711Y023339D01*
X000711Y023241D02*
X014689Y023241D01*
X014730Y023142D02*
X000711Y023142D01*
X000711Y023043D02*
X014771Y023043D01*
X014862Y022945D02*
X000711Y022945D01*
X000711Y022846D02*
X014960Y022846D01*
X015059Y022748D02*
X000711Y022748D01*
X000711Y022649D02*
X015238Y022649D01*
X015476Y022551D02*
X000711Y022551D01*
X000711Y022452D02*
X038651Y022452D01*
X038651Y022354D02*
X011654Y022354D01*
X011714Y022329D02*
X011563Y022391D01*
X011400Y022391D01*
X011249Y022329D01*
X011134Y022214D01*
X011071Y022063D01*
X011071Y021900D01*
X011134Y021749D01*
X011231Y021652D01*
X011231Y020911D01*
X011134Y020814D01*
X011071Y020663D01*
X011071Y020500D01*
X011134Y020349D01*
X011249Y020234D01*
X011400Y020171D01*
X011563Y020171D01*
X011714Y020234D01*
X011829Y020349D01*
X011891Y020500D01*
X011891Y020663D01*
X011829Y020814D01*
X011731Y020911D01*
X011731Y021652D01*
X011829Y021749D01*
X011891Y021900D01*
X011891Y022063D01*
X011829Y022214D01*
X011714Y022329D01*
X011787Y022255D02*
X012512Y022255D01*
X012449Y022229D02*
X012334Y022114D01*
X012271Y021963D01*
X012271Y021800D01*
X012334Y021649D01*
X012431Y021552D01*
X012431Y020911D01*
X012334Y020814D01*
X012271Y020663D01*
X012271Y020500D01*
X012334Y020349D01*
X012449Y020234D01*
X012600Y020171D01*
X012763Y020171D01*
X012914Y020234D01*
X013029Y020349D01*
X013091Y020500D01*
X013091Y020663D01*
X013029Y020814D01*
X012931Y020911D01*
X012931Y021552D01*
X013029Y021649D01*
X013091Y021800D01*
X013091Y021963D01*
X013029Y022114D01*
X012914Y022229D01*
X012763Y022291D01*
X012600Y022291D01*
X012449Y022229D01*
X012377Y022157D02*
X011853Y022157D01*
X011891Y022058D02*
X012311Y022058D01*
X012271Y021959D02*
X011891Y021959D01*
X011875Y021861D02*
X012271Y021861D01*
X012287Y021762D02*
X011834Y021762D01*
X011744Y021664D02*
X012328Y021664D01*
X012418Y021565D02*
X011731Y021565D01*
X011731Y021467D02*
X012431Y021467D01*
X012431Y021368D02*
X011731Y021368D01*
X011731Y021270D02*
X012431Y021270D01*
X012431Y021171D02*
X011731Y021171D01*
X011731Y021073D02*
X012431Y021073D01*
X012431Y020974D02*
X011731Y020974D01*
X011767Y020876D02*
X012396Y020876D01*
X012319Y020777D02*
X011844Y020777D01*
X011885Y020678D02*
X012278Y020678D01*
X012271Y020580D02*
X011891Y020580D01*
X011884Y020481D02*
X012279Y020481D01*
X012320Y020383D02*
X011843Y020383D01*
X011764Y020284D02*
X012399Y020284D01*
X012565Y020186D02*
X011597Y020186D01*
X011365Y020186D02*
X000711Y020186D01*
X000711Y020284D02*
X011199Y020284D01*
X011120Y020383D02*
X000711Y020383D01*
X000711Y020481D02*
X011079Y020481D01*
X011071Y020580D02*
X000711Y020580D01*
X000711Y020678D02*
X011078Y020678D01*
X011119Y020777D02*
X000711Y020777D01*
X000711Y020876D02*
X011196Y020876D01*
X011231Y020974D02*
X000711Y020974D01*
X000711Y021073D02*
X011231Y021073D01*
X011231Y021171D02*
X000711Y021171D01*
X000711Y021270D02*
X011231Y021270D01*
X011231Y021368D02*
X000711Y021368D01*
X000711Y021467D02*
X011231Y021467D01*
X011231Y021565D02*
X000711Y021565D01*
X000711Y021664D02*
X011219Y021664D01*
X011128Y021762D02*
X000711Y021762D01*
X000711Y021861D02*
X011088Y021861D01*
X011071Y021959D02*
X000711Y021959D01*
X000711Y022058D02*
X011071Y022058D01*
X011110Y022157D02*
X000711Y022157D01*
X000711Y022255D02*
X011175Y022255D01*
X011309Y022354D02*
X000711Y022354D01*
X000711Y020087D02*
X038651Y020087D01*
X038651Y019989D02*
X000711Y019989D01*
X000711Y019890D02*
X038651Y019890D01*
X038651Y019792D02*
X000711Y019792D01*
X000711Y019693D02*
X038651Y019693D01*
X038651Y019594D02*
X002727Y019594D01*
X002769Y019577D02*
X002495Y019690D01*
X002199Y019690D01*
X001925Y019577D01*
X001715Y019367D01*
X001601Y019093D01*
X001601Y018797D01*
X001715Y018523D01*
X001925Y018313D01*
X000711Y018313D01*
X000711Y018215D02*
X002162Y018215D01*
X002199Y018200D02*
X002495Y018200D01*
X002769Y018313D01*
X038651Y018313D01*
X038651Y018215D02*
X002531Y018215D01*
X002769Y018313D02*
X002979Y018523D01*
X003092Y018797D01*
X003092Y019093D01*
X002979Y019367D01*
X002769Y019577D01*
X002850Y019496D02*
X038651Y019496D01*
X038651Y019397D02*
X002949Y019397D01*
X003007Y019299D02*
X038651Y019299D01*
X038651Y019200D02*
X003048Y019200D01*
X003089Y019102D02*
X038651Y019102D01*
X038651Y019003D02*
X003092Y019003D01*
X003092Y018905D02*
X038651Y018905D01*
X038651Y018806D02*
X003092Y018806D01*
X003055Y018708D02*
X038651Y018708D01*
X038651Y018609D02*
X003014Y018609D01*
X002966Y018510D02*
X038651Y018510D01*
X038651Y018412D02*
X002867Y018412D01*
X002199Y018200D02*
X001925Y018313D01*
X001826Y018412D02*
X000711Y018412D01*
X000711Y018510D02*
X001728Y018510D01*
X001679Y018609D02*
X000711Y018609D01*
X000711Y018708D02*
X001639Y018708D01*
X001601Y018806D02*
X000711Y018806D01*
X000711Y018905D02*
X001601Y018905D01*
X001601Y019003D02*
X000711Y019003D01*
X000711Y019102D02*
X001605Y019102D01*
X001646Y019200D02*
X000711Y019200D01*
X000711Y019299D02*
X001687Y019299D01*
X001745Y019397D02*
X000711Y019397D01*
X000711Y019496D02*
X001844Y019496D01*
X001967Y019594D02*
X000711Y019594D01*
X000711Y018116D02*
X038651Y018116D01*
X038651Y018018D02*
X018825Y018018D01*
X018814Y018029D02*
X018663Y018091D01*
X018500Y018091D01*
X018349Y018029D01*
X018252Y017931D01*
X017211Y017931D01*
X017114Y018029D01*
X016963Y018091D01*
X016800Y018091D01*
X016649Y018029D01*
X016534Y017914D01*
X016471Y017763D01*
X016471Y017600D01*
X016534Y017449D01*
X016649Y017334D01*
X016800Y017271D01*
X016963Y017271D01*
X017114Y017334D01*
X017211Y017431D01*
X018252Y017431D01*
X018349Y017334D01*
X018500Y017271D01*
X018663Y017271D01*
X018814Y017334D01*
X018929Y017449D01*
X018991Y017600D01*
X018991Y017763D01*
X018929Y017914D01*
X018814Y018029D01*
X018923Y017919D02*
X038651Y017919D01*
X038651Y017821D02*
X018967Y017821D01*
X018991Y017722D02*
X036984Y017722D01*
X037067Y017756D02*
X036856Y017669D01*
X036694Y017507D01*
X036606Y017296D01*
X036606Y017231D01*
X037131Y017231D01*
X037131Y017131D01*
X037231Y017131D01*
X037231Y016606D01*
X037296Y016606D01*
X037507Y016694D01*
X037669Y016856D01*
X037756Y017067D01*
X037756Y017131D01*
X038651Y017131D01*
X038651Y017229D02*
X037232Y017229D01*
X037232Y017231D02*
X037756Y017231D01*
X037756Y017296D01*
X037669Y017507D01*
X037507Y017669D01*
X037296Y017756D01*
X037231Y017756D01*
X037231Y017232D01*
X037131Y017232D01*
X037131Y017756D01*
X037067Y017756D01*
X037131Y017722D02*
X037231Y017722D01*
X037231Y017624D02*
X037131Y017624D01*
X037131Y017525D02*
X037231Y017525D01*
X037231Y017426D02*
X037131Y017426D01*
X037131Y017328D02*
X037231Y017328D01*
X037232Y017231D02*
X037232Y017131D01*
X037756Y017131D01*
X037742Y017032D02*
X038651Y017032D01*
X038651Y016934D02*
X037701Y016934D01*
X037648Y016835D02*
X038651Y016835D01*
X038651Y016737D02*
X037550Y016737D01*
X037372Y016638D02*
X038651Y016638D01*
X038651Y016540D02*
X034991Y016540D01*
X034991Y016563D02*
X034929Y016714D01*
X034814Y016829D01*
X034663Y016891D01*
X034500Y016891D01*
X034349Y016829D01*
X034262Y016741D01*
X033374Y016741D01*
X033306Y016674D01*
X033263Y016691D01*
X033100Y016691D01*
X032949Y016629D01*
X032834Y016514D01*
X032771Y016363D01*
X032771Y016200D01*
X032834Y016049D01*
X032842Y016041D01*
X030501Y016041D01*
X030414Y016129D01*
X030263Y016191D01*
X030100Y016191D01*
X029949Y016129D01*
X029834Y016014D01*
X029771Y015863D01*
X029771Y015700D01*
X029834Y015549D01*
X029949Y015434D01*
X030100Y015371D01*
X030263Y015371D01*
X030414Y015434D01*
X030501Y015521D01*
X032742Y015521D01*
X032734Y015514D01*
X032671Y015363D01*
X032671Y015200D01*
X032734Y015049D01*
X032849Y014934D01*
X033000Y014871D01*
X033163Y014871D01*
X033314Y014934D01*
X033401Y015021D01*
X034862Y015021D01*
X034949Y014934D01*
X035100Y014871D01*
X035263Y014871D01*
X035414Y014934D01*
X035529Y015049D01*
X035591Y015200D01*
X035591Y015363D01*
X035529Y015514D01*
X035414Y015629D01*
X035263Y015691D01*
X035100Y015691D01*
X034949Y015629D01*
X034862Y015541D01*
X034721Y015541D01*
X034729Y015549D01*
X034791Y015700D01*
X034791Y015863D01*
X034729Y016014D01*
X034669Y016074D01*
X034814Y016134D01*
X034929Y016249D01*
X034991Y016400D01*
X034991Y016563D01*
X034960Y016638D02*
X036990Y016638D01*
X037067Y016606D02*
X036856Y016694D01*
X036694Y016856D01*
X036606Y017067D01*
X036606Y017131D01*
X019563Y017131D01*
X019591Y017063D02*
X019529Y017214D01*
X019414Y017329D01*
X019263Y017391D01*
X019100Y017391D01*
X018949Y017329D01*
X018862Y017241D01*
X017801Y017241D01*
X017714Y017329D01*
X017563Y017391D01*
X017400Y017391D01*
X017249Y017329D01*
X017134Y017214D01*
X017071Y017063D01*
X017071Y016900D01*
X017134Y016749D01*
X017249Y016634D01*
X017400Y016571D01*
X017563Y016571D01*
X017714Y016634D01*
X017801Y016721D01*
X018862Y016721D01*
X018949Y016634D01*
X019100Y016571D01*
X019263Y016571D01*
X019414Y016634D01*
X019529Y016749D01*
X019591Y016900D01*
X019591Y017063D01*
X019591Y017032D02*
X036621Y017032D01*
X036606Y017131D02*
X037131Y017131D01*
X037231Y017131D01*
X037231Y017032D02*
X037131Y017032D01*
X037131Y016934D02*
X037231Y016934D01*
X037231Y016835D02*
X037131Y016835D01*
X037131Y016737D02*
X037231Y016737D01*
X037231Y016638D02*
X037131Y016638D01*
X037131Y016606D02*
X037067Y016606D01*
X037131Y016606D02*
X037131Y017131D01*
X037131Y017229D02*
X019513Y017229D01*
X019415Y017328D02*
X036620Y017328D01*
X036661Y017426D02*
X018906Y017426D01*
X018948Y017328D02*
X018799Y017328D01*
X018960Y017525D02*
X036712Y017525D01*
X036810Y017624D02*
X018991Y017624D01*
X018363Y017328D02*
X017715Y017328D01*
X017206Y017426D02*
X018256Y017426D01*
X018338Y018018D02*
X017125Y018018D01*
X016638Y018018D02*
X000711Y018018D01*
X000711Y017919D02*
X016539Y017919D01*
X016495Y017821D02*
X000711Y017821D01*
X000711Y017722D02*
X016471Y017722D01*
X016471Y017624D02*
X000711Y017624D01*
X000711Y017525D02*
X016502Y017525D01*
X016556Y017426D02*
X000711Y017426D01*
X000711Y017328D02*
X016663Y017328D01*
X017099Y017328D02*
X017248Y017328D01*
X017150Y017229D02*
X000711Y017229D01*
X000711Y017131D02*
X017100Y017131D01*
X017071Y017032D02*
X000711Y017032D01*
X000711Y016934D02*
X017071Y016934D01*
X017098Y016835D02*
X000711Y016835D01*
X000711Y016737D02*
X017146Y016737D01*
X017245Y016638D02*
X000711Y016638D01*
X000711Y016540D02*
X032860Y016540D01*
X032804Y016441D02*
X000711Y016441D01*
X000711Y016343D02*
X032771Y016343D01*
X032771Y016244D02*
X000711Y016244D01*
X000711Y016145D02*
X029989Y016145D01*
X029867Y016047D02*
X000711Y016047D01*
X000711Y015948D02*
X029807Y015948D01*
X029771Y015850D02*
X000711Y015850D01*
X000711Y015751D02*
X010003Y015751D01*
X009949Y015729D02*
X010100Y015791D01*
X010263Y015791D01*
X010414Y015729D01*
X010511Y015631D01*
X010852Y015631D01*
X010949Y015729D01*
X011100Y015791D01*
X011263Y015791D01*
X011414Y015729D01*
X011529Y015614D01*
X011591Y015463D01*
X011591Y015300D01*
X011529Y015149D01*
X011414Y015034D01*
X011263Y014971D01*
X011100Y014971D01*
X010949Y015034D01*
X010852Y015131D01*
X010511Y015131D01*
X010414Y015034D01*
X010263Y014971D01*
X010100Y014971D01*
X009949Y015034D01*
X009834Y015149D01*
X009771Y015300D01*
X009771Y015463D01*
X009834Y015614D01*
X009949Y015729D01*
X009873Y015653D02*
X000711Y015653D01*
X000711Y015554D02*
X009809Y015554D01*
X009771Y015456D02*
X000711Y015456D01*
X000711Y015357D02*
X009771Y015357D01*
X009789Y015259D02*
X000711Y015259D01*
X000711Y015160D02*
X009829Y015160D01*
X009922Y015061D02*
X000711Y015061D01*
X000711Y014963D02*
X017495Y014963D01*
X017421Y014889D02*
X017421Y014674D01*
X017421Y014401D01*
X017334Y014314D01*
X017271Y014163D01*
X017271Y014000D01*
X017334Y013849D01*
X017449Y013734D01*
X017600Y013671D01*
X017763Y013671D01*
X017914Y013734D01*
X018029Y013849D01*
X018091Y014000D01*
X018091Y014163D01*
X018029Y014314D01*
X017941Y014401D01*
X017941Y014674D01*
X018289Y015021D01*
X018374Y015021D01*
X019562Y015021D01*
X019649Y014934D01*
X019800Y014871D01*
X019963Y014871D01*
X020114Y014934D01*
X020229Y015049D01*
X020291Y015200D01*
X020291Y015363D01*
X020229Y015514D01*
X020114Y015629D01*
X019963Y015691D01*
X019800Y015691D01*
X019649Y015629D01*
X019562Y015541D01*
X018374Y015541D01*
X018074Y015541D01*
X017921Y015389D01*
X017421Y014889D01*
X017421Y014864D02*
X000711Y014864D01*
X000711Y014766D02*
X017421Y014766D01*
X017421Y014667D02*
X000711Y014667D01*
X000711Y014569D02*
X017421Y014569D01*
X017421Y014470D02*
X000711Y014470D01*
X000711Y014372D02*
X017392Y014372D01*
X017317Y014273D02*
X000711Y014273D01*
X000711Y014175D02*
X017276Y014175D01*
X017271Y014076D02*
X000711Y014076D01*
X000711Y013977D02*
X017281Y013977D01*
X017321Y013879D02*
X000711Y013879D01*
X000711Y013780D02*
X017403Y013780D01*
X017575Y013682D02*
X000711Y013682D01*
X000711Y013583D02*
X033980Y013583D01*
X033971Y013563D02*
X033971Y013400D01*
X034034Y013249D01*
X034149Y013134D01*
X034300Y013071D01*
X034463Y013071D01*
X034614Y013134D01*
X034632Y013153D01*
X034634Y013149D01*
X034749Y013034D01*
X034900Y012971D01*
X035063Y012971D01*
X035214Y013034D01*
X035329Y013149D01*
X035348Y013194D01*
X035361Y013207D01*
X035431Y013278D01*
X035431Y013282D01*
X036937Y014871D01*
X037063Y014871D01*
X037214Y014934D01*
X037329Y015049D01*
X037391Y015200D01*
X037391Y015363D01*
X037329Y015514D01*
X037214Y015629D01*
X037063Y015691D01*
X036900Y015691D01*
X036762Y015634D01*
X036729Y015714D01*
X036614Y015829D01*
X036463Y015891D01*
X036300Y015891D01*
X036149Y015829D01*
X036034Y015714D01*
X035971Y015563D01*
X035971Y015439D01*
X034424Y013891D01*
X034300Y013891D01*
X034149Y013829D01*
X034034Y013714D01*
X033971Y013563D01*
X033971Y013485D02*
X000711Y013485D01*
X000711Y013386D02*
X033977Y013386D01*
X034018Y013288D02*
X000711Y013288D01*
X000711Y013189D02*
X034094Y013189D01*
X034254Y013091D02*
X000711Y013091D01*
X000711Y012992D02*
X034850Y012992D01*
X034692Y013091D02*
X034509Y013091D01*
X034381Y013481D02*
X036181Y015281D01*
X035971Y015456D02*
X035553Y015456D01*
X035591Y015357D02*
X035889Y015357D01*
X035791Y015259D02*
X035591Y015259D01*
X035575Y015160D02*
X035692Y015160D01*
X035594Y015061D02*
X035534Y015061D01*
X035495Y014963D02*
X035443Y014963D01*
X035397Y014864D02*
X027144Y014864D01*
X027114Y014834D02*
X027229Y014949D01*
X027291Y015100D01*
X027291Y015263D01*
X027229Y015414D01*
X027114Y015529D01*
X026963Y015591D01*
X026800Y015591D01*
X026649Y015529D01*
X026552Y015431D01*
X026111Y015431D01*
X026014Y015529D01*
X025863Y015591D01*
X025700Y015591D01*
X025549Y015529D01*
X025434Y015414D01*
X025371Y015263D01*
X025371Y015100D01*
X025434Y014949D01*
X025549Y014834D01*
X025700Y014771D01*
X025863Y014771D01*
X026014Y014834D01*
X026111Y014931D01*
X026552Y014931D01*
X026649Y014834D01*
X026800Y014771D01*
X026963Y014771D01*
X027114Y014834D01*
X027235Y014963D02*
X032820Y014963D01*
X032729Y015061D02*
X027275Y015061D01*
X027291Y015160D02*
X032688Y015160D01*
X032671Y015259D02*
X027291Y015259D01*
X027252Y015357D02*
X032671Y015357D01*
X032710Y015456D02*
X030435Y015456D01*
X030181Y015781D02*
X034381Y015781D01*
X034756Y015948D02*
X038651Y015948D01*
X038651Y015850D02*
X036563Y015850D01*
X036691Y015751D02*
X038651Y015751D01*
X038651Y015653D02*
X037156Y015653D01*
X037288Y015554D02*
X038651Y015554D01*
X038651Y015456D02*
X037353Y015456D01*
X037391Y015357D02*
X038651Y015357D01*
X038651Y015259D02*
X037391Y015259D01*
X037375Y015160D02*
X038651Y015160D01*
X038651Y015061D02*
X037334Y015061D01*
X037243Y014963D02*
X038651Y014963D01*
X038651Y014864D02*
X036931Y014864D01*
X036837Y014766D02*
X038651Y014766D01*
X038651Y014667D02*
X036744Y014667D01*
X036651Y014569D02*
X038651Y014569D01*
X038651Y014470D02*
X036557Y014470D01*
X036464Y014372D02*
X038651Y014372D01*
X038651Y014273D02*
X036370Y014273D01*
X036277Y014175D02*
X038651Y014175D01*
X038651Y014076D02*
X036184Y014076D01*
X036090Y013977D02*
X038651Y013977D01*
X038651Y013879D02*
X035997Y013879D01*
X035904Y013780D02*
X038651Y013780D01*
X038651Y013682D02*
X035810Y013682D01*
X035717Y013583D02*
X038651Y013583D01*
X038651Y013485D02*
X035624Y013485D01*
X035530Y013386D02*
X038651Y013386D01*
X038651Y013288D02*
X035437Y013288D01*
X035361Y013207D02*
X035361Y013207D01*
X035345Y013189D02*
X038651Y013189D01*
X038651Y013091D02*
X035270Y013091D01*
X035113Y012992D02*
X038651Y012992D01*
X038651Y012894D02*
X000711Y012894D01*
X000711Y012795D02*
X038651Y012795D01*
X038651Y012696D02*
X013646Y012696D01*
X013614Y012729D02*
X013463Y012791D01*
X013300Y012791D01*
X013149Y012729D01*
X013062Y012641D01*
X012901Y012641D01*
X012814Y012729D01*
X012663Y012791D01*
X012500Y012791D01*
X012349Y012729D01*
X012234Y012614D01*
X012171Y012463D01*
X012171Y012300D01*
X012234Y012149D01*
X012349Y012034D01*
X012500Y011971D01*
X012663Y011971D01*
X012814Y012034D01*
X012901Y012121D01*
X013062Y012121D01*
X013149Y012034D01*
X013300Y011971D01*
X013463Y011971D01*
X013614Y012034D01*
X013729Y012149D01*
X013791Y012300D01*
X013791Y012463D01*
X013729Y012614D01*
X013614Y012729D01*
X013736Y012598D02*
X027218Y012598D01*
X027249Y012629D02*
X027134Y012514D01*
X027071Y012363D01*
X027071Y012200D01*
X027134Y012049D01*
X027231Y011952D01*
X027231Y011411D01*
X027134Y011314D01*
X027071Y011163D01*
X027071Y011000D01*
X027134Y010849D01*
X027249Y010734D01*
X027400Y010671D01*
X027563Y010671D01*
X027714Y010734D01*
X027829Y010849D01*
X027891Y011000D01*
X027891Y011163D01*
X027829Y011314D01*
X027731Y011411D01*
X027731Y011952D01*
X027829Y012049D01*
X027891Y012200D01*
X027891Y012363D01*
X027829Y012514D01*
X027714Y012629D01*
X027563Y012691D01*
X027400Y012691D01*
X027249Y012629D01*
X027128Y012499D02*
X013776Y012499D01*
X013791Y012401D02*
X027087Y012401D01*
X027071Y012302D02*
X013791Y012302D01*
X013752Y012204D02*
X027071Y012204D01*
X027111Y012105D02*
X013685Y012105D01*
X013548Y012007D02*
X027176Y012007D01*
X027231Y011908D02*
X000711Y011908D01*
X000711Y011810D02*
X027231Y011810D01*
X027231Y011711D02*
X000711Y011711D01*
X000711Y011612D02*
X027231Y011612D01*
X027231Y011514D02*
X000711Y011514D01*
X000711Y011415D02*
X027231Y011415D01*
X027137Y011317D02*
X000711Y011317D01*
X000711Y011218D02*
X027094Y011218D01*
X027071Y011120D02*
X021456Y011120D01*
X021470Y011114D02*
X021283Y011191D01*
X021080Y011191D01*
X020893Y011114D01*
X020749Y010970D01*
X020681Y010807D01*
X020614Y010970D01*
X020470Y011114D01*
X020283Y011191D01*
X020080Y011191D01*
X019893Y011114D01*
X019749Y010970D01*
X019681Y010807D01*
X019614Y010970D01*
X019470Y011114D01*
X019283Y011191D01*
X019080Y011191D01*
X018893Y011114D01*
X018749Y010970D01*
X018671Y010783D01*
X018671Y010580D01*
X018749Y010393D01*
X018893Y010249D01*
X019080Y010171D01*
X019283Y010171D01*
X019470Y010249D01*
X019614Y010393D01*
X019681Y010556D01*
X019749Y010393D01*
X019893Y010249D01*
X020080Y010171D01*
X020283Y010171D01*
X020470Y010249D01*
X020614Y010393D01*
X020681Y010556D01*
X020749Y010393D01*
X020893Y010249D01*
X021080Y010171D01*
X021283Y010171D01*
X021470Y010249D01*
X021614Y010393D01*
X021691Y010580D01*
X021691Y010783D01*
X021614Y010970D01*
X021470Y011114D01*
X021563Y011021D02*
X027071Y011021D01*
X027103Y010923D02*
X021634Y010923D01*
X021674Y010824D02*
X027159Y010824D01*
X027269Y010726D02*
X021691Y010726D01*
X021691Y010627D02*
X033602Y010627D01*
X033571Y010700D02*
X033634Y010549D01*
X033749Y010434D01*
X033900Y010371D01*
X034063Y010371D01*
X034214Y010434D01*
X034301Y010521D01*
X034562Y010521D01*
X034649Y010434D01*
X034800Y010371D01*
X034963Y010371D01*
X035114Y010434D01*
X035229Y010549D01*
X035291Y010700D01*
X035291Y010863D01*
X035229Y011014D01*
X035211Y011031D01*
X035229Y011049D01*
X035291Y011200D01*
X035291Y011363D01*
X035229Y011514D01*
X035393Y011514D01*
X035371Y011463D02*
X035434Y011614D01*
X035549Y011729D01*
X035700Y011791D01*
X035863Y011791D01*
X036014Y011729D01*
X036101Y011641D01*
X036762Y011641D01*
X036849Y011729D01*
X037000Y011791D01*
X037163Y011791D01*
X037314Y011729D01*
X037429Y011614D01*
X037491Y011463D01*
X037491Y011300D01*
X037429Y011149D01*
X037411Y011131D01*
X037429Y011114D01*
X037491Y010963D01*
X037491Y010800D01*
X037429Y010649D01*
X037314Y010534D01*
X037163Y010471D01*
X037000Y010471D01*
X036849Y010534D01*
X036762Y010621D01*
X036401Y010621D01*
X036314Y010534D01*
X036163Y010471D01*
X036000Y010471D01*
X035849Y010534D01*
X035734Y010649D01*
X035671Y010800D01*
X035671Y010963D01*
X035679Y010980D01*
X035549Y011034D01*
X035434Y011149D01*
X035371Y011300D01*
X035371Y011463D01*
X035371Y011415D02*
X035270Y011415D01*
X035291Y011317D02*
X035371Y011317D01*
X035405Y011218D02*
X035291Y011218D01*
X035258Y011120D02*
X035463Y011120D01*
X035580Y011021D02*
X035221Y011021D01*
X035267Y010923D02*
X035671Y010923D01*
X035671Y010824D02*
X035291Y010824D01*
X035291Y010726D02*
X035702Y010726D01*
X035756Y010627D02*
X035261Y010627D01*
X035208Y010528D02*
X035862Y010528D01*
X036081Y010881D02*
X037081Y010881D01*
X037461Y010726D02*
X038651Y010726D01*
X038651Y010824D02*
X037491Y010824D01*
X037491Y010923D02*
X038651Y010923D01*
X038651Y011021D02*
X037467Y011021D01*
X037423Y011120D02*
X038651Y011120D01*
X038651Y011218D02*
X037458Y011218D01*
X037491Y011317D02*
X038651Y011317D01*
X038651Y011415D02*
X037491Y011415D01*
X037470Y011514D02*
X038651Y011514D01*
X038651Y011612D02*
X037429Y011612D01*
X037332Y011711D02*
X038651Y011711D01*
X038651Y011810D02*
X027731Y011810D01*
X027731Y011908D02*
X038651Y011908D01*
X038651Y012007D02*
X027786Y012007D01*
X027852Y012105D02*
X038651Y012105D01*
X038651Y012204D02*
X027891Y012204D01*
X027891Y012302D02*
X038651Y012302D01*
X038651Y012401D02*
X027876Y012401D01*
X027835Y012499D02*
X038651Y012499D01*
X038651Y012598D02*
X027745Y012598D01*
X027731Y011711D02*
X035531Y011711D01*
X035433Y011612D02*
X035130Y011612D01*
X035114Y011629D02*
X034963Y011691D01*
X034800Y011691D01*
X034649Y011629D01*
X034562Y011541D01*
X034301Y011541D01*
X034214Y011629D01*
X034063Y011691D01*
X033900Y011691D01*
X033749Y011629D01*
X033634Y011514D01*
X027731Y011514D01*
X027731Y011612D02*
X033733Y011612D01*
X033634Y011514D02*
X033571Y011363D01*
X033571Y011200D01*
X033634Y011049D01*
X033652Y011031D01*
X033634Y011014D01*
X033571Y010863D01*
X033571Y010700D01*
X033571Y010726D02*
X027694Y010726D01*
X027804Y010824D02*
X033571Y010824D01*
X033596Y010923D02*
X027859Y010923D01*
X027891Y011021D02*
X033641Y011021D01*
X033605Y011120D02*
X027891Y011120D01*
X027869Y011218D02*
X033571Y011218D01*
X033571Y011317D02*
X027826Y011317D01*
X027731Y011415D02*
X033593Y011415D01*
X033981Y011281D02*
X034881Y011281D01*
X034633Y011612D02*
X034230Y011612D01*
X033981Y010781D02*
X034881Y010781D01*
X034659Y010430D02*
X034204Y010430D01*
X033759Y010430D02*
X021629Y010430D01*
X021670Y010528D02*
X033655Y010528D01*
X033463Y009391D02*
X033300Y009391D01*
X033149Y009329D01*
X033034Y009214D01*
X032971Y009063D01*
X032971Y008900D01*
X033034Y008749D01*
X033149Y008634D01*
X033300Y008571D01*
X033463Y008571D01*
X033614Y008634D01*
X033711Y008731D01*
X034152Y008731D01*
X034249Y008634D01*
X034400Y008571D01*
X034563Y008571D01*
X034714Y008634D01*
X034829Y008749D01*
X034891Y008900D01*
X034891Y009063D01*
X034829Y009214D01*
X034714Y009329D01*
X034563Y009391D01*
X034400Y009391D01*
X034249Y009329D01*
X034152Y009231D01*
X033711Y009231D01*
X033614Y009329D01*
X033463Y009391D01*
X033573Y009346D02*
X034290Y009346D01*
X034168Y009247D02*
X033695Y009247D01*
X033190Y009346D02*
X031926Y009346D01*
X031914Y009334D02*
X032029Y009449D01*
X032091Y009600D01*
X032091Y009763D01*
X032029Y009914D01*
X031914Y010029D01*
X031763Y010091D01*
X031600Y010091D01*
X031531Y010063D01*
X031336Y010180D01*
X031285Y010231D01*
X031251Y010231D01*
X031078Y010231D01*
X029211Y010231D01*
X029114Y010329D01*
X028963Y010391D01*
X028800Y010391D01*
X028649Y010329D01*
X028534Y010214D01*
X028471Y010063D01*
X028471Y009900D01*
X028534Y009749D01*
X028649Y009634D01*
X028800Y009571D01*
X028963Y009571D01*
X029114Y009634D01*
X029211Y009731D01*
X031112Y009731D01*
X031271Y009636D01*
X031271Y009600D01*
X031334Y009449D01*
X031449Y009334D01*
X031600Y009271D01*
X031763Y009271D01*
X031914Y009334D01*
X032024Y009444D02*
X038651Y009444D01*
X038651Y009346D02*
X034673Y009346D01*
X034795Y009247D02*
X038651Y009247D01*
X038651Y009149D02*
X034856Y009149D01*
X034891Y009050D02*
X038651Y009050D01*
X038651Y008952D02*
X034891Y008952D01*
X034872Y008853D02*
X038651Y008853D01*
X038651Y008755D02*
X034831Y008755D01*
X034736Y008656D02*
X038651Y008656D01*
X038651Y008558D02*
X030991Y008558D01*
X030991Y008500D02*
X030991Y008663D01*
X030929Y008814D01*
X030814Y008929D01*
X030663Y008991D01*
X030500Y008991D01*
X030349Y008929D01*
X030252Y008831D01*
X029685Y008831D01*
X029491Y009025D01*
X029491Y009163D01*
X029429Y009314D01*
X029314Y009429D01*
X029163Y009491D01*
X029000Y009491D01*
X028849Y009429D01*
X028734Y009314D01*
X028671Y009163D01*
X028671Y009000D01*
X028734Y008849D01*
X028849Y008734D01*
X029000Y008671D01*
X029138Y008671D01*
X029478Y008331D01*
X029685Y008331D01*
X030252Y008331D01*
X030349Y008234D01*
X030500Y008171D01*
X030663Y008171D01*
X030814Y008234D01*
X030929Y008349D01*
X030991Y008500D01*
X030974Y008459D02*
X038651Y008459D01*
X038651Y008361D02*
X030934Y008361D01*
X030842Y008262D02*
X038651Y008262D01*
X038651Y008163D02*
X026533Y008163D01*
X026470Y008226D02*
X026283Y008304D01*
X026080Y008304D01*
X025893Y008226D01*
X025749Y008083D01*
X025671Y007895D01*
X025671Y007692D01*
X025749Y007505D01*
X025893Y007362D01*
X026080Y007284D01*
X026283Y007284D01*
X026470Y007362D01*
X026614Y007505D01*
X026691Y007692D01*
X026691Y007895D01*
X026614Y008083D01*
X026470Y008226D01*
X026384Y008262D02*
X030321Y008262D01*
X030273Y008853D02*
X029663Y008853D01*
X029565Y008952D02*
X030404Y008952D01*
X030759Y008952D02*
X032971Y008952D01*
X032971Y009050D02*
X029491Y009050D01*
X029491Y009149D02*
X033007Y009149D01*
X033068Y009247D02*
X029456Y009247D01*
X029397Y009346D02*
X031437Y009346D01*
X031339Y009444D02*
X029276Y009444D01*
X029121Y009642D02*
X031262Y009642D01*
X031295Y009543D02*
X003092Y009543D01*
X003092Y009566D02*
X002979Y009840D01*
X002769Y010049D01*
X002495Y010163D01*
X002199Y010163D01*
X001925Y010049D01*
X001715Y009840D01*
X001601Y009566D01*
X001601Y009269D01*
X001715Y008995D01*
X001925Y008786D01*
X002199Y008672D01*
X002495Y008672D01*
X002769Y008786D01*
X002979Y008995D01*
X003092Y009269D01*
X003092Y009566D01*
X003061Y009642D02*
X028641Y009642D01*
X028543Y009740D02*
X003020Y009740D01*
X002979Y009839D02*
X028497Y009839D01*
X028471Y009937D02*
X002881Y009937D01*
X002783Y010036D02*
X028471Y010036D01*
X028501Y010134D02*
X002564Y010134D01*
X002130Y010134D02*
X000711Y010134D01*
X000711Y010036D02*
X001911Y010036D01*
X001812Y009937D02*
X000711Y009937D01*
X000711Y009839D02*
X001715Y009839D01*
X001674Y009740D02*
X000711Y009740D01*
X000711Y009642D02*
X001633Y009642D01*
X001601Y009543D02*
X000711Y009543D01*
X000711Y009444D02*
X001601Y009444D01*
X001601Y009346D02*
X000711Y009346D01*
X000711Y009247D02*
X001611Y009247D01*
X001651Y009149D02*
X000711Y009149D01*
X000711Y009050D02*
X001692Y009050D01*
X001759Y008952D02*
X000711Y008952D01*
X000711Y008853D02*
X001857Y008853D01*
X002000Y008755D02*
X000711Y008755D01*
X000711Y008656D02*
X014276Y008656D01*
X014234Y008614D02*
X014349Y008729D01*
X014500Y008791D01*
X014663Y008791D01*
X014814Y008729D01*
X014929Y008614D01*
X014991Y008463D01*
X014991Y008325D01*
X015931Y007385D01*
X015931Y007178D01*
X016304Y007178D01*
X016380Y007083D02*
X016371Y007063D01*
X016371Y006900D01*
X016434Y006749D01*
X016549Y006634D01*
X016700Y006571D01*
X016863Y006571D01*
X017014Y006634D01*
X017129Y006749D01*
X017191Y006900D01*
X017191Y007063D01*
X017129Y007214D01*
X017014Y007329D01*
X016863Y007391D01*
X016774Y007391D01*
X016231Y008069D01*
X016231Y008085D01*
X016191Y008125D01*
X016191Y008263D01*
X016129Y008414D01*
X016014Y008529D01*
X015863Y008591D01*
X015700Y008591D01*
X015549Y008529D01*
X015434Y008414D01*
X015371Y008263D01*
X015371Y008100D01*
X015434Y007949D01*
X015549Y007834D01*
X015700Y007771D01*
X015829Y007771D01*
X016380Y007083D01*
X016378Y007079D02*
X015931Y007079D01*
X015931Y006981D02*
X016371Y006981D01*
X016379Y006882D02*
X015931Y006882D01*
X015931Y006784D02*
X016419Y006784D01*
X016498Y006685D02*
X015931Y006685D01*
X015931Y006587D02*
X016663Y006587D01*
X016900Y006587D02*
X019063Y006587D01*
X019100Y006571D02*
X019263Y006571D01*
X019414Y006634D01*
X019529Y006749D01*
X019531Y006755D01*
X019534Y006749D01*
X019649Y006634D01*
X019800Y006571D01*
X019963Y006571D01*
X020114Y006634D01*
X020229Y006749D01*
X020291Y006900D01*
X020291Y007063D01*
X020229Y007214D01*
X020131Y007311D01*
X020131Y007752D01*
X020229Y007849D01*
X020291Y008000D01*
X020291Y008163D01*
X020229Y008314D01*
X020114Y008429D01*
X019963Y008491D01*
X019800Y008491D01*
X019649Y008429D01*
X019534Y008314D01*
X019531Y008308D01*
X019529Y008314D01*
X019414Y008429D01*
X019263Y008491D01*
X019100Y008491D01*
X018949Y008429D01*
X018834Y008314D01*
X018771Y008163D01*
X018771Y008000D01*
X018834Y007849D01*
X018931Y007752D01*
X018931Y007311D01*
X018834Y007214D01*
X018771Y007063D01*
X018771Y006900D01*
X018834Y006749D01*
X018949Y006634D01*
X019100Y006571D01*
X019300Y006587D02*
X019763Y006587D01*
X019598Y006685D02*
X019465Y006685D01*
X019283Y006191D02*
X019080Y006191D01*
X018893Y006114D01*
X018749Y005970D01*
X018671Y005783D01*
X018671Y005580D01*
X018749Y005393D01*
X018893Y005249D01*
X019056Y005181D01*
X018893Y005114D01*
X018749Y004970D01*
X018681Y004807D01*
X018614Y004970D01*
X018470Y005114D01*
X018283Y005191D01*
X018080Y005191D01*
X017893Y005114D01*
X017749Y004970D01*
X017681Y004807D01*
X017614Y004970D01*
X017470Y005114D01*
X017307Y005181D01*
X017470Y005249D01*
X017614Y005393D01*
X017691Y005580D01*
X017691Y005783D01*
X017614Y005970D01*
X017470Y006114D01*
X017283Y006191D01*
X017080Y006191D01*
X016893Y006114D01*
X016749Y005970D01*
X016681Y005807D01*
X016614Y005970D01*
X016470Y006114D01*
X016283Y006191D01*
X016080Y006191D01*
X015931Y006130D01*
X015931Y007178D01*
X015931Y007277D02*
X016225Y007277D01*
X016146Y007375D02*
X015931Y007375D01*
X015843Y007474D02*
X016067Y007474D01*
X015989Y007572D02*
X015744Y007572D01*
X015646Y007671D02*
X015910Y007671D01*
X015831Y007769D02*
X015547Y007769D01*
X015515Y007868D02*
X015449Y007868D01*
X015427Y007966D02*
X015350Y007966D01*
X015386Y008065D02*
X015251Y008065D01*
X015153Y008163D02*
X015371Y008163D01*
X015371Y008262D02*
X015054Y008262D01*
X014991Y008361D02*
X015412Y008361D01*
X015479Y008459D02*
X014991Y008459D01*
X014952Y008558D02*
X015618Y008558D01*
X015945Y008558D02*
X029252Y008558D01*
X029153Y008656D02*
X014886Y008656D01*
X014752Y008755D02*
X028828Y008755D01*
X028732Y008853D02*
X002836Y008853D01*
X002935Y008952D02*
X028691Y008952D01*
X028671Y009050D02*
X003001Y009050D01*
X003042Y009149D02*
X028671Y009149D01*
X028706Y009247D02*
X003083Y009247D01*
X003092Y009346D02*
X028766Y009346D01*
X028887Y009444D02*
X003092Y009444D01*
X002694Y008755D02*
X014411Y008755D01*
X014234Y008614D02*
X014171Y008463D01*
X014171Y008300D01*
X014234Y008149D01*
X014349Y008034D01*
X014500Y007971D01*
X014638Y007971D01*
X014878Y007731D01*
X014711Y007731D01*
X014614Y007829D01*
X014463Y007891D01*
X014300Y007891D01*
X014149Y007829D01*
X014034Y007714D01*
X013971Y007563D01*
X013971Y007400D01*
X014034Y007249D01*
X014149Y007134D01*
X014252Y007091D01*
X014100Y007091D01*
X013949Y007029D01*
X013834Y006914D01*
X013771Y006763D01*
X013771Y006625D01*
X013578Y006431D01*
X013431Y006285D01*
X013431Y006065D01*
X013271Y006131D01*
X013231Y006131D01*
X013231Y005732D01*
X013131Y005732D01*
X013131Y006131D01*
X013092Y006131D01*
X012926Y006063D01*
X012800Y005936D01*
X012731Y005771D01*
X012731Y005731D01*
X013131Y005731D01*
X013131Y005631D01*
X013231Y005631D01*
X013231Y005231D01*
X013271Y005231D01*
X013431Y005298D01*
X013431Y005065D01*
X013271Y005131D01*
X013231Y005131D01*
X013231Y004732D01*
X013131Y004732D01*
X013131Y005131D01*
X013092Y005131D01*
X012926Y005063D01*
X012800Y004936D01*
X012731Y004771D01*
X012731Y004731D01*
X013131Y004731D01*
X013131Y004631D01*
X013231Y004631D01*
X013231Y004231D01*
X013271Y004231D01*
X013431Y004298D01*
X013431Y003311D01*
X013334Y003214D01*
X013271Y003063D01*
X013271Y002900D01*
X013334Y002749D01*
X013449Y002634D01*
X013600Y002571D01*
X013763Y002571D01*
X013914Y002634D01*
X014029Y002749D01*
X014091Y002900D01*
X014091Y003063D01*
X014029Y003214D01*
X013931Y003311D01*
X013931Y004233D01*
X014080Y004171D01*
X014283Y004171D01*
X014470Y004249D01*
X014614Y004393D01*
X014681Y004556D01*
X014749Y004393D01*
X014893Y004249D01*
X015080Y004171D01*
X015283Y004171D01*
X015470Y004249D01*
X015614Y004393D01*
X015681Y004556D01*
X015749Y004393D01*
X015893Y004249D01*
X015931Y004233D01*
X015931Y003411D01*
X015834Y003314D01*
X015771Y003163D01*
X015771Y003000D01*
X015834Y002849D01*
X015949Y002734D01*
X016100Y002671D01*
X016263Y002671D01*
X016414Y002734D01*
X016529Y002849D01*
X016591Y003000D01*
X016591Y003163D01*
X016529Y003314D01*
X016431Y003411D01*
X016431Y004233D01*
X016470Y004249D01*
X016614Y004393D01*
X016681Y004556D01*
X016749Y004393D01*
X016893Y004249D01*
X017080Y004171D01*
X017283Y004171D01*
X017322Y004188D01*
X017565Y003945D01*
X017534Y003914D01*
X017471Y003763D01*
X017471Y003600D01*
X017534Y003449D01*
X017649Y003334D01*
X017800Y003271D01*
X017963Y003271D01*
X018114Y003334D01*
X018229Y003449D01*
X018291Y003600D01*
X018291Y003763D01*
X018229Y003914D01*
X018131Y004011D01*
X018131Y004085D01*
X018020Y004196D01*
X018080Y004171D01*
X018283Y004171D01*
X018470Y004249D01*
X018614Y004393D01*
X018681Y004556D01*
X018749Y004393D01*
X018893Y004249D01*
X019080Y004171D01*
X019283Y004171D01*
X019470Y004249D01*
X019614Y004393D01*
X019681Y004556D01*
X019749Y004393D01*
X019893Y004249D01*
X020080Y004171D01*
X020283Y004171D01*
X020470Y004249D01*
X020614Y004393D01*
X020681Y004556D01*
X020749Y004393D01*
X020893Y004249D01*
X021080Y004171D01*
X021283Y004171D01*
X021323Y004188D01*
X021271Y004063D01*
X021271Y003900D01*
X021334Y003749D01*
X021449Y003634D01*
X021600Y003571D01*
X021763Y003571D01*
X021914Y003634D01*
X022029Y003749D01*
X022091Y003900D01*
X022091Y004063D01*
X022039Y004188D01*
X022080Y004171D01*
X022283Y004171D01*
X022470Y004249D01*
X022614Y004393D01*
X022681Y004556D01*
X022749Y004393D01*
X022893Y004249D01*
X023080Y004171D01*
X023283Y004171D01*
X023470Y004249D01*
X023614Y004393D01*
X023681Y004556D01*
X023749Y004393D01*
X023893Y004249D01*
X024080Y004171D01*
X024283Y004171D01*
X024470Y004249D01*
X024614Y004393D01*
X024681Y004556D01*
X024749Y004393D01*
X024893Y004249D01*
X025080Y004171D01*
X025283Y004171D01*
X025470Y004249D01*
X025614Y004393D01*
X025681Y004556D01*
X025749Y004393D01*
X025893Y004249D01*
X026080Y004171D01*
X026283Y004171D01*
X026470Y004249D01*
X026614Y004393D01*
X026691Y004580D01*
X026691Y004783D01*
X026614Y004970D01*
X026470Y005114D01*
X026307Y005181D01*
X026470Y005249D01*
X026614Y005393D01*
X026691Y005580D01*
X026691Y005783D01*
X026614Y005970D01*
X026470Y006114D01*
X026283Y006191D01*
X026080Y006191D01*
X025893Y006114D01*
X025749Y005970D01*
X025671Y005783D01*
X025671Y005580D01*
X025749Y005393D01*
X025893Y005249D01*
X026056Y005181D01*
X025893Y005114D01*
X025749Y004970D01*
X025681Y004807D01*
X025614Y004970D01*
X025470Y005114D01*
X025283Y005191D01*
X025080Y005191D01*
X024893Y005114D01*
X024749Y004970D01*
X024681Y004807D01*
X024614Y004970D01*
X024470Y005114D01*
X024307Y005181D01*
X024470Y005249D01*
X024614Y005393D01*
X024691Y005580D01*
X024691Y005783D01*
X024614Y005970D01*
X024470Y006114D01*
X024283Y006191D01*
X024080Y006191D01*
X023893Y006114D01*
X023749Y005970D01*
X023671Y005783D01*
X023671Y005580D01*
X023749Y005393D01*
X023893Y005249D01*
X024056Y005181D01*
X023893Y005114D01*
X023749Y004970D01*
X023681Y004807D01*
X023614Y004970D01*
X023470Y005114D01*
X023283Y005191D01*
X023080Y005191D01*
X022893Y005114D01*
X022749Y004970D01*
X022681Y004807D01*
X022614Y004970D01*
X022470Y005114D01*
X022307Y005181D01*
X022470Y005249D01*
X022614Y005393D01*
X022691Y005580D01*
X022691Y005783D01*
X022614Y005970D01*
X022470Y006114D01*
X022283Y006191D01*
X022080Y006191D01*
X021893Y006114D01*
X021749Y005970D01*
X021681Y005807D01*
X021614Y005970D01*
X021470Y006114D01*
X021283Y006191D01*
X021080Y006191D01*
X020893Y006114D01*
X020749Y005970D01*
X020681Y005807D01*
X020614Y005970D01*
X020470Y006114D01*
X020283Y006191D01*
X020080Y006191D01*
X019893Y006114D01*
X019749Y005970D01*
X019681Y005807D01*
X019614Y005970D01*
X019470Y006114D01*
X019283Y006191D01*
X019490Y006094D02*
X019873Y006094D01*
X019774Y005995D02*
X019589Y005995D01*
X019644Y005897D02*
X019719Y005897D01*
X020000Y006587D02*
X031631Y006587D01*
X031631Y006578D02*
X031881Y006328D01*
X031881Y006103D01*
X031749Y005970D01*
X031671Y005783D01*
X031671Y005580D01*
X031749Y005393D01*
X031893Y005249D01*
X032080Y005171D01*
X032283Y005171D01*
X032470Y005249D01*
X032614Y005393D01*
X032681Y005556D01*
X032749Y005393D01*
X032893Y005249D01*
X033056Y005181D01*
X032893Y005114D01*
X032749Y004970D01*
X032671Y004783D01*
X032671Y004580D01*
X032749Y004393D01*
X032893Y004249D01*
X033080Y004171D01*
X033283Y004171D01*
X033470Y004249D01*
X033614Y004393D01*
X033681Y004556D01*
X033749Y004393D01*
X033893Y004249D01*
X034080Y004171D01*
X034283Y004171D01*
X034470Y004249D01*
X034614Y004393D01*
X034681Y004556D01*
X034749Y004393D01*
X034811Y004330D01*
X034811Y003248D01*
X034800Y003236D01*
X016561Y003236D01*
X016591Y003138D02*
X034759Y003138D01*
X034731Y003071D02*
X034800Y003236D01*
X034811Y003335D02*
X018115Y003335D01*
X018213Y003433D02*
X034811Y003433D01*
X034811Y003532D02*
X029888Y003532D01*
X029863Y003521D02*
X030014Y003584D01*
X030129Y003699D01*
X030191Y003850D01*
X030191Y004013D01*
X030129Y004164D01*
X030031Y004261D01*
X030031Y004377D01*
X030129Y004474D01*
X030191Y004625D01*
X030191Y004788D01*
X030129Y004939D01*
X030014Y005054D01*
X029863Y005116D01*
X029700Y005116D01*
X029549Y005054D01*
X029434Y004939D01*
X029371Y004788D01*
X029371Y004625D01*
X029434Y004474D01*
X029531Y004377D01*
X029531Y004261D01*
X029434Y004164D01*
X029371Y004013D01*
X029371Y003850D01*
X029434Y003699D01*
X029549Y003584D01*
X029700Y003521D01*
X029863Y003521D01*
X029675Y003532D02*
X018263Y003532D01*
X018291Y003630D02*
X021457Y003630D01*
X021354Y003729D02*
X018291Y003729D01*
X018265Y003828D02*
X021301Y003828D01*
X021271Y003926D02*
X018217Y003926D01*
X018131Y004025D02*
X021271Y004025D01*
X021296Y004123D02*
X018093Y004123D01*
X018404Y004222D02*
X018959Y004222D01*
X018821Y004320D02*
X018541Y004320D01*
X018625Y004419D02*
X018738Y004419D01*
X018697Y004517D02*
X018665Y004517D01*
X018679Y004813D02*
X018684Y004813D01*
X018725Y004911D02*
X018638Y004911D01*
X018574Y005010D02*
X018789Y005010D01*
X018887Y005109D02*
X018475Y005109D01*
X018436Y005300D02*
X018271Y005231D01*
X018231Y005231D01*
X018231Y005631D01*
X018131Y005631D01*
X017731Y005631D01*
X017731Y005592D01*
X017800Y005426D01*
X017926Y005300D01*
X018092Y005231D01*
X018131Y005231D01*
X018131Y005631D01*
X018131Y005731D01*
X017731Y005731D01*
X017731Y005771D01*
X017800Y005936D01*
X017926Y006063D01*
X018092Y006131D01*
X018131Y006131D01*
X018131Y005732D01*
X018231Y005732D01*
X018231Y006131D01*
X018271Y006131D01*
X018436Y006063D01*
X018563Y005936D01*
X018631Y005771D01*
X018631Y005731D01*
X018232Y005731D01*
X018232Y005631D01*
X018631Y005631D01*
X018631Y005592D01*
X018563Y005426D01*
X018436Y005300D01*
X018442Y005306D02*
X018836Y005306D01*
X018744Y005404D02*
X018541Y005404D01*
X018594Y005503D02*
X018703Y005503D01*
X018671Y005601D02*
X018631Y005601D01*
X018671Y005700D02*
X018232Y005700D01*
X018231Y005798D02*
X018131Y005798D01*
X018131Y005700D02*
X017691Y005700D01*
X017685Y005798D02*
X017743Y005798D01*
X017784Y005897D02*
X017644Y005897D01*
X017589Y005995D02*
X017859Y005995D01*
X018002Y006094D02*
X017490Y006094D01*
X017691Y005601D02*
X017731Y005601D01*
X017768Y005503D02*
X017659Y005503D01*
X017619Y005404D02*
X017822Y005404D01*
X017921Y005306D02*
X017527Y005306D01*
X017369Y005207D02*
X018994Y005207D01*
X018678Y005798D02*
X018620Y005798D01*
X018579Y005897D02*
X018719Y005897D01*
X018774Y005995D02*
X018504Y005995D01*
X018361Y006094D02*
X018873Y006094D01*
X018231Y006094D02*
X018131Y006094D01*
X018131Y005995D02*
X018231Y005995D01*
X018231Y005897D02*
X018131Y005897D01*
X018131Y005601D02*
X018231Y005601D01*
X018231Y005503D02*
X018131Y005503D01*
X018131Y005404D02*
X018231Y005404D01*
X018231Y005306D02*
X018131Y005306D01*
X017887Y005109D02*
X017475Y005109D01*
X017574Y005010D02*
X017789Y005010D01*
X017725Y004911D02*
X017638Y004911D01*
X017679Y004813D02*
X017684Y004813D01*
X017386Y004123D02*
X016431Y004123D01*
X016431Y004025D02*
X017485Y004025D01*
X017546Y003926D02*
X016431Y003926D01*
X016431Y003828D02*
X017498Y003828D01*
X017471Y003729D02*
X016431Y003729D01*
X016431Y003630D02*
X017471Y003630D01*
X017500Y003532D02*
X016431Y003532D01*
X016431Y003433D02*
X017550Y003433D01*
X017648Y003335D02*
X016508Y003335D01*
X016591Y003039D02*
X034731Y003039D01*
X034731Y003071D02*
X034731Y002892D01*
X034800Y002726D01*
X034926Y002600D01*
X035092Y002531D01*
X035271Y002531D01*
X035436Y002600D01*
X035563Y002726D01*
X035631Y002892D01*
X035631Y003071D01*
X035563Y003236D01*
X038651Y003236D01*
X038651Y003138D02*
X035604Y003138D01*
X035631Y003039D02*
X038651Y003039D01*
X038651Y002941D02*
X035631Y002941D01*
X035611Y002842D02*
X038651Y002842D01*
X038651Y002744D02*
X035570Y002744D01*
X035481Y002645D02*
X038651Y002645D01*
X038651Y002546D02*
X035307Y002546D01*
X035056Y002546D02*
X000711Y002546D01*
X000711Y002448D02*
X038651Y002448D01*
X038651Y002349D02*
X000711Y002349D01*
X000711Y002251D02*
X038651Y002251D01*
X038651Y002152D02*
X000711Y002152D01*
X000711Y002054D02*
X038651Y002054D01*
X038651Y001955D02*
X000711Y001955D01*
X000711Y001857D02*
X038651Y001857D01*
X038651Y001758D02*
X000711Y001758D01*
X000711Y001660D02*
X038651Y001660D01*
X038651Y001561D02*
X000711Y001561D01*
X000711Y001462D02*
X038651Y001462D01*
X038651Y001364D02*
X000711Y001364D01*
X000711Y001265D02*
X038651Y001265D01*
X038651Y001167D02*
X000711Y001167D01*
X000711Y001068D02*
X038651Y001068D01*
X038651Y000970D02*
X000711Y000970D01*
X000711Y000871D02*
X038651Y000871D01*
X038651Y000773D02*
X000711Y000773D01*
X000711Y002645D02*
X013438Y002645D01*
X013339Y002744D02*
X000711Y002744D01*
X000711Y002842D02*
X013295Y002842D01*
X013271Y002941D02*
X000711Y002941D01*
X000711Y003039D02*
X013271Y003039D01*
X013302Y003138D02*
X000711Y003138D01*
X000711Y003236D02*
X013356Y003236D01*
X013431Y003335D02*
X000711Y003335D01*
X000711Y003433D02*
X013431Y003433D01*
X013431Y003532D02*
X000711Y003532D01*
X000711Y003630D02*
X013431Y003630D01*
X013431Y003729D02*
X000711Y003729D01*
X000711Y003828D02*
X013431Y003828D01*
X013431Y003926D02*
X000711Y003926D01*
X000711Y004025D02*
X013431Y004025D01*
X013431Y004123D02*
X000711Y004123D01*
X000711Y004222D02*
X002959Y004222D01*
X002893Y004249D02*
X003080Y004171D01*
X003283Y004171D01*
X003470Y004249D01*
X003614Y004393D01*
X003681Y004556D01*
X003749Y004393D01*
X003893Y004249D01*
X004080Y004171D01*
X004283Y004171D01*
X004470Y004249D01*
X004614Y004393D01*
X004681Y004556D01*
X004749Y004393D01*
X004893Y004249D01*
X005080Y004171D01*
X005283Y004171D01*
X005470Y004249D01*
X005614Y004393D01*
X005681Y004556D01*
X005749Y004393D01*
X005893Y004249D01*
X006080Y004171D01*
X006283Y004171D01*
X006470Y004249D01*
X006614Y004393D01*
X006681Y004556D01*
X006749Y004393D01*
X006893Y004249D01*
X007080Y004171D01*
X007283Y004171D01*
X007470Y004249D01*
X007614Y004393D01*
X007691Y004580D01*
X007691Y004783D01*
X007614Y004970D01*
X007470Y005114D01*
X007283Y005191D01*
X007080Y005191D01*
X006893Y005114D01*
X006749Y004970D01*
X006681Y004807D01*
X006614Y004970D01*
X006470Y005114D01*
X006307Y005181D01*
X006470Y005249D01*
X006614Y005393D01*
X006691Y005580D01*
X006691Y005783D01*
X006614Y005970D01*
X006470Y006114D01*
X006283Y006191D01*
X006080Y006191D01*
X005893Y006114D01*
X005749Y005970D01*
X005681Y005807D01*
X005614Y005970D01*
X005470Y006114D01*
X005283Y006191D01*
X005080Y006191D01*
X004893Y006114D01*
X004749Y005970D01*
X004681Y005807D01*
X004614Y005970D01*
X004470Y006114D01*
X004283Y006191D01*
X004080Y006191D01*
X003893Y006114D01*
X003749Y005970D01*
X003671Y005783D01*
X003671Y005580D01*
X003749Y005393D01*
X003893Y005249D01*
X004056Y005181D01*
X003893Y005114D01*
X003749Y004970D01*
X003681Y004807D01*
X003614Y004970D01*
X003470Y005114D01*
X003283Y005191D01*
X003080Y005191D01*
X002893Y005114D01*
X002749Y004970D01*
X002671Y004783D01*
X002671Y004580D01*
X002749Y004393D01*
X002893Y004249D01*
X002821Y004320D02*
X000711Y004320D01*
X000711Y004419D02*
X002738Y004419D01*
X002697Y004517D02*
X000711Y004517D01*
X000711Y004616D02*
X002671Y004616D01*
X002671Y004714D02*
X000711Y004714D01*
X000711Y004813D02*
X002684Y004813D01*
X002725Y004911D02*
X000711Y004911D01*
X000711Y005010D02*
X002789Y005010D01*
X002887Y005109D02*
X000711Y005109D01*
X000711Y005207D02*
X003994Y005207D01*
X003887Y005109D02*
X003475Y005109D01*
X003574Y005010D02*
X003789Y005010D01*
X003725Y004911D02*
X003638Y004911D01*
X003679Y004813D02*
X003684Y004813D01*
X003665Y004517D02*
X003697Y004517D01*
X003738Y004419D02*
X003625Y004419D01*
X003541Y004320D02*
X003821Y004320D01*
X003959Y004222D02*
X003404Y004222D01*
X004404Y004222D02*
X004959Y004222D01*
X004821Y004320D02*
X004541Y004320D01*
X004625Y004419D02*
X004738Y004419D01*
X004697Y004517D02*
X004665Y004517D01*
X005404Y004222D02*
X005959Y004222D01*
X005821Y004320D02*
X005541Y004320D01*
X005625Y004419D02*
X005738Y004419D01*
X005697Y004517D02*
X005665Y004517D01*
X006404Y004222D02*
X006959Y004222D01*
X006821Y004320D02*
X006541Y004320D01*
X006625Y004419D02*
X006738Y004419D01*
X006697Y004517D02*
X006665Y004517D01*
X006679Y004813D02*
X006684Y004813D01*
X006725Y004911D02*
X006638Y004911D01*
X006574Y005010D02*
X006789Y005010D01*
X006887Y005109D02*
X006475Y005109D01*
X006369Y005207D02*
X011994Y005207D01*
X012056Y005181D02*
X011893Y005114D01*
X011749Y004970D01*
X011671Y004783D01*
X011671Y004580D01*
X011749Y004393D01*
X011893Y004249D01*
X012080Y004171D01*
X012283Y004171D01*
X012470Y004249D01*
X012614Y004393D01*
X012691Y004580D01*
X012691Y004783D01*
X012614Y004970D01*
X012470Y005114D01*
X012307Y005181D01*
X012470Y005249D01*
X012614Y005393D01*
X012691Y005580D01*
X012691Y005783D01*
X012614Y005970D01*
X012551Y006033D01*
X012551Y006465D01*
X012563Y006476D01*
X012631Y006642D01*
X012631Y006821D01*
X012563Y006986D01*
X012436Y007113D01*
X012271Y007181D01*
X012092Y007181D01*
X011926Y007113D01*
X011800Y006986D01*
X011731Y006821D01*
X011731Y006642D01*
X011800Y006476D01*
X011811Y006465D01*
X011811Y006033D01*
X011749Y005970D01*
X011671Y005783D01*
X011671Y005580D01*
X011749Y005393D01*
X011893Y005249D01*
X012056Y005181D01*
X011887Y005109D02*
X007475Y005109D01*
X007574Y005010D02*
X011789Y005010D01*
X011725Y004911D02*
X007638Y004911D01*
X007679Y004813D02*
X011684Y004813D01*
X011671Y004714D02*
X007691Y004714D01*
X007691Y004616D02*
X011671Y004616D01*
X011697Y004517D02*
X007665Y004517D01*
X007625Y004419D02*
X011738Y004419D01*
X011821Y004320D02*
X007541Y004320D01*
X007404Y004222D02*
X011959Y004222D01*
X012404Y004222D02*
X013431Y004222D01*
X013231Y004320D02*
X013131Y004320D01*
X013131Y004231D02*
X013131Y004631D01*
X012731Y004631D01*
X012731Y004592D01*
X012800Y004426D01*
X012926Y004300D01*
X013092Y004231D01*
X013131Y004231D01*
X013131Y004419D02*
X013231Y004419D01*
X013231Y004517D02*
X013131Y004517D01*
X013131Y004616D02*
X013231Y004616D01*
X013131Y004714D02*
X012691Y004714D01*
X012691Y004616D02*
X012731Y004616D01*
X012762Y004517D02*
X012665Y004517D01*
X012625Y004419D02*
X012808Y004419D01*
X012906Y004320D02*
X012541Y004320D01*
X012679Y004813D02*
X012749Y004813D01*
X012790Y004911D02*
X012638Y004911D01*
X012574Y005010D02*
X012874Y005010D01*
X013037Y005109D02*
X012475Y005109D01*
X012369Y005207D02*
X013431Y005207D01*
X013431Y005109D02*
X013326Y005109D01*
X013231Y005109D02*
X013131Y005109D01*
X013131Y005010D02*
X013231Y005010D01*
X013231Y004911D02*
X013131Y004911D01*
X013131Y004813D02*
X013231Y004813D01*
X013131Y005231D02*
X013131Y005631D01*
X012731Y005631D01*
X012731Y005592D01*
X012800Y005426D01*
X012926Y005300D01*
X013092Y005231D01*
X013131Y005231D01*
X013131Y005306D02*
X013231Y005306D01*
X013231Y005404D02*
X013131Y005404D01*
X013131Y005503D02*
X013231Y005503D01*
X013231Y005601D02*
X013131Y005601D01*
X013131Y005700D02*
X012691Y005700D01*
X012685Y005798D02*
X012743Y005798D01*
X012784Y005897D02*
X012644Y005897D01*
X012589Y005995D02*
X012859Y005995D01*
X013002Y006094D02*
X012551Y006094D01*
X012551Y006193D02*
X013431Y006193D01*
X013438Y006291D02*
X012551Y006291D01*
X012551Y006390D02*
X013536Y006390D01*
X013635Y006488D02*
X012568Y006488D01*
X012609Y006587D02*
X013733Y006587D01*
X013771Y006685D02*
X012631Y006685D01*
X012631Y006784D02*
X013780Y006784D01*
X013821Y006882D02*
X012606Y006882D01*
X012565Y006981D02*
X013901Y006981D01*
X014071Y007079D02*
X012470Y007079D01*
X012279Y007178D02*
X014105Y007178D01*
X014022Y007277D02*
X000711Y007277D01*
X000711Y007375D02*
X013982Y007375D01*
X013971Y007474D02*
X000711Y007474D01*
X000711Y007572D02*
X013975Y007572D01*
X014016Y007671D02*
X000711Y007671D01*
X000711Y007769D02*
X014089Y007769D01*
X014243Y007868D02*
X000711Y007868D01*
X000711Y007966D02*
X014643Y007966D01*
X014741Y007868D02*
X014520Y007868D01*
X014673Y007769D02*
X014840Y007769D01*
X014318Y008065D02*
X000711Y008065D01*
X000711Y008163D02*
X014228Y008163D01*
X014187Y008262D02*
X000711Y008262D01*
X000711Y008361D02*
X014171Y008361D01*
X014171Y008459D02*
X000711Y008459D01*
X000711Y008558D02*
X014211Y008558D01*
X016084Y008459D02*
X019022Y008459D01*
X018881Y008361D02*
X016151Y008361D01*
X016191Y008262D02*
X018812Y008262D01*
X018772Y008163D02*
X016191Y008163D01*
X016235Y008065D02*
X018771Y008065D01*
X018785Y007966D02*
X016314Y007966D01*
X016392Y007868D02*
X018826Y007868D01*
X018914Y007769D02*
X016471Y007769D01*
X016550Y007671D02*
X018931Y007671D01*
X018931Y007572D02*
X016629Y007572D01*
X016708Y007474D02*
X018931Y007474D01*
X018931Y007375D02*
X016902Y007375D01*
X017066Y007277D02*
X018897Y007277D01*
X018819Y007178D02*
X017144Y007178D01*
X017185Y007079D02*
X018778Y007079D01*
X018771Y006981D02*
X017191Y006981D01*
X017184Y006882D02*
X018779Y006882D01*
X018819Y006784D02*
X017143Y006784D01*
X017065Y006685D02*
X018898Y006685D01*
X020165Y006685D02*
X031598Y006685D01*
X031631Y006652D02*
X031631Y006578D01*
X031631Y006652D02*
X031534Y006749D01*
X031471Y006900D01*
X031471Y007063D01*
X031534Y007214D01*
X031649Y007329D01*
X031800Y007391D01*
X031963Y007391D01*
X032114Y007329D01*
X032229Y007214D01*
X032291Y007063D01*
X032291Y006900D01*
X032229Y006749D01*
X032198Y006718D01*
X032235Y006681D01*
X032235Y006681D01*
X032381Y006535D01*
X032381Y006151D01*
X032470Y006114D01*
X032614Y005970D01*
X032681Y005807D01*
X032749Y005970D01*
X032893Y006114D01*
X033080Y006191D01*
X033283Y006191D01*
X033470Y006114D01*
X033614Y005970D01*
X033681Y005807D01*
X033749Y005970D01*
X033893Y006114D01*
X034080Y006191D01*
X034283Y006191D01*
X034470Y006114D01*
X034614Y005970D01*
X034681Y005807D01*
X034749Y005970D01*
X034893Y006114D01*
X035080Y006191D01*
X035283Y006191D01*
X035470Y006114D01*
X035614Y005970D01*
X035681Y005807D01*
X035749Y005970D01*
X035893Y006114D01*
X036080Y006191D01*
X036283Y006191D01*
X036470Y006114D01*
X036614Y005970D01*
X036691Y005783D01*
X036691Y005580D01*
X036614Y005393D01*
X036470Y005249D01*
X036283Y005171D01*
X036080Y005171D01*
X035893Y005249D01*
X035749Y005393D01*
X035681Y005556D01*
X035614Y005393D01*
X035470Y005249D01*
X035307Y005181D01*
X035470Y005114D01*
X035614Y004970D01*
X035691Y004783D01*
X035691Y004580D01*
X035614Y004393D01*
X035551Y004330D01*
X035551Y003248D01*
X035563Y003236D01*
X035551Y003335D02*
X038651Y003335D01*
X038651Y003433D02*
X035551Y003433D01*
X035551Y003532D02*
X038651Y003532D01*
X038651Y003630D02*
X035551Y003630D01*
X035551Y003729D02*
X038651Y003729D01*
X038651Y003828D02*
X035551Y003828D01*
X035551Y003926D02*
X038651Y003926D01*
X038651Y004025D02*
X035551Y004025D01*
X035551Y004123D02*
X038651Y004123D01*
X038651Y004222D02*
X035551Y004222D01*
X035551Y004320D02*
X035906Y004320D01*
X035926Y004300D02*
X036092Y004231D01*
X036131Y004231D01*
X036131Y004631D01*
X035731Y004631D01*
X035731Y004592D01*
X035800Y004426D01*
X035926Y004300D01*
X035808Y004419D02*
X035625Y004419D01*
X035665Y004517D02*
X035762Y004517D01*
X035731Y004616D02*
X035691Y004616D01*
X035691Y004714D02*
X036131Y004714D01*
X036131Y004731D02*
X036131Y004631D01*
X036231Y004631D01*
X036231Y004231D01*
X036271Y004231D01*
X036436Y004300D01*
X036563Y004426D01*
X036631Y004592D01*
X036631Y004631D01*
X036232Y004631D01*
X036232Y004731D01*
X036631Y004731D01*
X036631Y004771D01*
X036563Y004936D01*
X036436Y005063D01*
X036271Y005131D01*
X036231Y005131D01*
X036231Y004732D01*
X036131Y004732D01*
X036131Y005131D01*
X036092Y005131D01*
X035926Y005063D01*
X035800Y004936D01*
X035731Y004771D01*
X035731Y004731D01*
X036131Y004731D01*
X036131Y004813D02*
X036231Y004813D01*
X036231Y004911D02*
X036131Y004911D01*
X036131Y005010D02*
X036231Y005010D01*
X036231Y005109D02*
X036131Y005109D01*
X036037Y005109D02*
X035475Y005109D01*
X035574Y005010D02*
X035874Y005010D01*
X035790Y004911D02*
X035638Y004911D01*
X035679Y004813D02*
X035749Y004813D01*
X036131Y004616D02*
X036231Y004616D01*
X036232Y004714D02*
X038651Y004714D01*
X038651Y004616D02*
X036631Y004616D01*
X036600Y004517D02*
X038651Y004517D01*
X038651Y004419D02*
X036555Y004419D01*
X036457Y004320D02*
X038651Y004320D01*
X038651Y004813D02*
X036614Y004813D01*
X036573Y004911D02*
X038651Y004911D01*
X038651Y005010D02*
X036489Y005010D01*
X036326Y005109D02*
X038651Y005109D01*
X038651Y005207D02*
X036369Y005207D01*
X036527Y005306D02*
X038651Y005306D01*
X038651Y005404D02*
X036619Y005404D01*
X036659Y005503D02*
X038651Y005503D01*
X038651Y005601D02*
X036691Y005601D01*
X036691Y005700D02*
X038651Y005700D01*
X038651Y005798D02*
X036685Y005798D01*
X036644Y005897D02*
X038651Y005897D01*
X038651Y005995D02*
X036589Y005995D01*
X036490Y006094D02*
X038651Y006094D01*
X038651Y006193D02*
X032381Y006193D01*
X032381Y006291D02*
X038651Y006291D01*
X038651Y006390D02*
X032381Y006390D01*
X032381Y006488D02*
X038651Y006488D01*
X038651Y006587D02*
X032330Y006587D01*
X032231Y006685D02*
X038651Y006685D01*
X038651Y006784D02*
X032243Y006784D01*
X032284Y006882D02*
X038651Y006882D01*
X038651Y006981D02*
X032291Y006981D01*
X032285Y007079D02*
X038651Y007079D01*
X038651Y007178D02*
X032244Y007178D01*
X032166Y007277D02*
X038651Y007277D01*
X038651Y007375D02*
X032002Y007375D01*
X031761Y007375D02*
X026484Y007375D01*
X026582Y007474D02*
X038651Y007474D01*
X038651Y007572D02*
X026642Y007572D01*
X026682Y007671D02*
X038651Y007671D01*
X038651Y007769D02*
X026691Y007769D01*
X026691Y007868D02*
X038651Y007868D01*
X038651Y007966D02*
X026662Y007966D01*
X026621Y008065D02*
X038651Y008065D01*
X038651Y009543D02*
X032068Y009543D01*
X032091Y009642D02*
X038651Y009642D01*
X038651Y009740D02*
X032091Y009740D01*
X032060Y009839D02*
X038651Y009839D01*
X038651Y009937D02*
X032005Y009937D01*
X031897Y010036D02*
X038651Y010036D01*
X038651Y010134D02*
X031412Y010134D01*
X030889Y008853D02*
X032991Y008853D01*
X033032Y008755D02*
X030953Y008755D01*
X030991Y008656D02*
X033127Y008656D01*
X033636Y008656D02*
X034227Y008656D01*
X035104Y010430D02*
X038651Y010430D01*
X038651Y010528D02*
X037301Y010528D01*
X037407Y010627D02*
X038651Y010627D01*
X038651Y010331D02*
X029108Y010331D01*
X029210Y010233D02*
X038651Y010233D01*
X037081Y011381D02*
X035781Y011381D01*
X036032Y011711D02*
X036831Y011711D01*
X036862Y010528D02*
X036301Y010528D01*
X035229Y011514D02*
X035114Y011629D01*
X034021Y013682D02*
X017788Y013682D01*
X017960Y013780D02*
X034101Y013780D01*
X034270Y013879D02*
X018041Y013879D01*
X018082Y013977D02*
X034510Y013977D01*
X034608Y014076D02*
X018091Y014076D01*
X018087Y014175D02*
X034707Y014175D01*
X034805Y014273D02*
X018046Y014273D01*
X017971Y014372D02*
X034904Y014372D01*
X035003Y014470D02*
X017941Y014470D01*
X017941Y014569D02*
X035101Y014569D01*
X035200Y014667D02*
X017941Y014667D01*
X018034Y014766D02*
X035298Y014766D01*
X034920Y014963D02*
X033343Y014963D01*
X033081Y015281D02*
X035181Y015281D01*
X035006Y015653D02*
X034772Y015653D01*
X034791Y015751D02*
X036071Y015751D01*
X036009Y015653D02*
X035356Y015653D01*
X035488Y015554D02*
X035971Y015554D01*
X036199Y015850D02*
X034791Y015850D01*
X034696Y016047D02*
X038651Y016047D01*
X038651Y016145D02*
X034825Y016145D01*
X034924Y016244D02*
X038651Y016244D01*
X038651Y016343D02*
X034968Y016343D01*
X034991Y016441D02*
X038651Y016441D01*
X038651Y017328D02*
X037743Y017328D01*
X037702Y017426D02*
X038651Y017426D01*
X038651Y017525D02*
X037651Y017525D01*
X037552Y017624D02*
X038651Y017624D01*
X038651Y017722D02*
X037379Y017722D01*
X036662Y016934D02*
X019591Y016934D01*
X019565Y016835D02*
X034364Y016835D01*
X034581Y016481D02*
X033481Y016481D01*
X033281Y016281D01*
X033181Y016281D01*
X032794Y016145D02*
X030374Y016145D01*
X030496Y016047D02*
X032836Y016047D01*
X032971Y016638D02*
X019418Y016638D01*
X019516Y016737D02*
X033369Y016737D01*
X034799Y016835D02*
X036714Y016835D01*
X036813Y016737D02*
X034906Y016737D01*
X034874Y015554D02*
X034731Y015554D01*
X036754Y015653D02*
X036807Y015653D01*
X038651Y020186D02*
X012797Y020186D01*
X012964Y020284D02*
X038651Y020284D01*
X038651Y020383D02*
X013043Y020383D01*
X013084Y020481D02*
X038651Y020481D01*
X038651Y020580D02*
X013091Y020580D01*
X013085Y020678D02*
X038651Y020678D01*
X038651Y020777D02*
X013044Y020777D01*
X012967Y020876D02*
X038651Y020876D01*
X038651Y020974D02*
X012931Y020974D01*
X012931Y021073D02*
X038651Y021073D01*
X038651Y021171D02*
X012931Y021171D01*
X012931Y021270D02*
X038651Y021270D01*
X038651Y021368D02*
X012931Y021368D01*
X012931Y021467D02*
X038651Y021467D01*
X038651Y021565D02*
X012945Y021565D01*
X013035Y021664D02*
X038651Y021664D01*
X038651Y021762D02*
X013076Y021762D01*
X013091Y021861D02*
X038651Y021861D01*
X038651Y021959D02*
X013091Y021959D01*
X013052Y022058D02*
X038651Y022058D01*
X038651Y022157D02*
X012986Y022157D01*
X012851Y022255D02*
X038651Y022255D01*
X029927Y015456D02*
X027187Y015456D01*
X027053Y015554D02*
X029832Y015554D01*
X029791Y015653D02*
X020056Y015653D01*
X020188Y015554D02*
X025610Y015554D01*
X025476Y015456D02*
X020253Y015456D01*
X020291Y015357D02*
X025410Y015357D01*
X025371Y015259D02*
X020291Y015259D01*
X020275Y015160D02*
X025371Y015160D01*
X025387Y015061D02*
X020234Y015061D01*
X020143Y014963D02*
X025428Y014963D01*
X025519Y014864D02*
X018132Y014864D01*
X018231Y014963D02*
X019620Y014963D01*
X019881Y015281D02*
X018481Y015281D01*
X018181Y015281D01*
X017681Y014781D01*
X017681Y014081D01*
X017594Y015061D02*
X011441Y015061D01*
X011533Y015160D02*
X017692Y015160D01*
X017791Y015259D02*
X011574Y015259D01*
X011591Y015357D02*
X017889Y015357D01*
X017988Y015456D02*
X011591Y015456D01*
X011554Y015554D02*
X019574Y015554D01*
X019706Y015653D02*
X011490Y015653D01*
X011360Y015751D02*
X029771Y015751D01*
X026710Y015554D02*
X025953Y015554D01*
X026087Y015456D02*
X026576Y015456D01*
X026619Y014864D02*
X026044Y014864D01*
X020907Y011120D02*
X020456Y011120D01*
X020563Y011021D02*
X020800Y011021D01*
X020729Y010923D02*
X020634Y010923D01*
X020674Y010824D02*
X020689Y010824D01*
X020670Y010528D02*
X020693Y010528D01*
X020734Y010430D02*
X020629Y010430D01*
X020553Y010331D02*
X020810Y010331D01*
X020932Y010233D02*
X020431Y010233D01*
X019932Y010233D02*
X019431Y010233D01*
X019553Y010331D02*
X019810Y010331D01*
X019734Y010430D02*
X019629Y010430D01*
X019670Y010528D02*
X019693Y010528D01*
X019674Y010824D02*
X019689Y010824D01*
X019729Y010923D02*
X019634Y010923D01*
X019563Y011021D02*
X019800Y011021D01*
X019907Y011120D02*
X019456Y011120D01*
X018907Y011120D02*
X000711Y011120D01*
X000711Y011021D02*
X018800Y011021D01*
X018729Y010923D02*
X000711Y010923D01*
X000711Y010824D02*
X018689Y010824D01*
X018671Y010726D02*
X000711Y010726D01*
X000711Y010627D02*
X018671Y010627D01*
X018693Y010528D02*
X000711Y010528D01*
X000711Y010430D02*
X018734Y010430D01*
X018810Y010331D02*
X000711Y010331D01*
X000711Y010233D02*
X018932Y010233D01*
X019341Y008459D02*
X019722Y008459D01*
X019581Y008361D02*
X019482Y008361D01*
X020041Y008459D02*
X029350Y008459D01*
X029449Y008361D02*
X020182Y008361D01*
X020250Y008262D02*
X023979Y008262D01*
X023893Y008226D02*
X023749Y008083D01*
X023671Y007895D01*
X023671Y007692D01*
X023749Y007505D01*
X023893Y007362D01*
X024080Y007284D01*
X024283Y007284D01*
X024470Y007362D01*
X024614Y007505D01*
X024691Y007692D01*
X024691Y007895D01*
X024614Y008083D01*
X024470Y008226D01*
X024283Y008304D01*
X024080Y008304D01*
X023893Y008226D01*
X023830Y008163D02*
X020291Y008163D01*
X020291Y008065D02*
X023742Y008065D01*
X023701Y007966D02*
X020277Y007966D01*
X020237Y007868D02*
X023671Y007868D01*
X023671Y007769D02*
X020149Y007769D01*
X020131Y007671D02*
X023680Y007671D01*
X023721Y007572D02*
X020131Y007572D01*
X020131Y007474D02*
X023780Y007474D01*
X023879Y007375D02*
X020131Y007375D01*
X020166Y007277D02*
X031597Y007277D01*
X031519Y007178D02*
X020244Y007178D01*
X020285Y007079D02*
X031478Y007079D01*
X031471Y006981D02*
X020291Y006981D01*
X020284Y006882D02*
X031479Y006882D01*
X031519Y006784D02*
X020243Y006784D01*
X020490Y006094D02*
X020873Y006094D01*
X020774Y005995D02*
X020589Y005995D01*
X020644Y005897D02*
X020719Y005897D01*
X021490Y006094D02*
X021873Y006094D01*
X021774Y005995D02*
X021589Y005995D01*
X021644Y005897D02*
X021719Y005897D01*
X022490Y006094D02*
X023002Y006094D01*
X022926Y006063D02*
X022800Y005936D01*
X022731Y005771D01*
X022731Y005731D01*
X023131Y005731D01*
X023131Y005631D01*
X022731Y005631D01*
X022731Y005592D01*
X022800Y005426D01*
X022926Y005300D01*
X023092Y005231D01*
X023131Y005231D01*
X023131Y005631D01*
X023231Y005631D01*
X023231Y005231D01*
X023271Y005231D01*
X023436Y005300D01*
X023563Y005426D01*
X023631Y005592D01*
X023631Y005631D01*
X023232Y005631D01*
X023232Y005731D01*
X023631Y005731D01*
X023631Y005771D01*
X023563Y005936D01*
X023436Y006063D01*
X023271Y006131D01*
X023231Y006131D01*
X023231Y005732D01*
X023131Y005732D01*
X023131Y006131D01*
X023092Y006131D01*
X022926Y006063D01*
X022859Y005995D02*
X022589Y005995D01*
X022644Y005897D02*
X022784Y005897D01*
X022743Y005798D02*
X022685Y005798D01*
X022691Y005700D02*
X023131Y005700D01*
X023131Y005798D02*
X023231Y005798D01*
X023232Y005700D02*
X023671Y005700D01*
X023678Y005798D02*
X023620Y005798D01*
X023579Y005897D02*
X023719Y005897D01*
X023774Y005995D02*
X023504Y005995D01*
X023361Y006094D02*
X023873Y006094D01*
X023671Y005601D02*
X023631Y005601D01*
X023594Y005503D02*
X023703Y005503D01*
X023744Y005404D02*
X023541Y005404D01*
X023442Y005306D02*
X023836Y005306D01*
X023994Y005207D02*
X022369Y005207D01*
X022475Y005109D02*
X022887Y005109D01*
X022789Y005010D02*
X022574Y005010D01*
X022638Y004911D02*
X022725Y004911D01*
X022684Y004813D02*
X022679Y004813D01*
X022665Y004517D02*
X022697Y004517D01*
X022738Y004419D02*
X022625Y004419D01*
X022541Y004320D02*
X022821Y004320D01*
X022959Y004222D02*
X022404Y004222D01*
X022066Y004123D02*
X029417Y004123D01*
X029376Y004025D02*
X022091Y004025D01*
X022091Y003926D02*
X029371Y003926D01*
X029381Y003828D02*
X022061Y003828D01*
X022009Y003729D02*
X029421Y003729D01*
X029503Y003630D02*
X021905Y003630D01*
X020959Y004222D02*
X020404Y004222D01*
X020541Y004320D02*
X020821Y004320D01*
X020738Y004419D02*
X020625Y004419D01*
X020665Y004517D02*
X020697Y004517D01*
X019959Y004222D02*
X019404Y004222D01*
X019541Y004320D02*
X019821Y004320D01*
X019738Y004419D02*
X019625Y004419D01*
X019665Y004517D02*
X019697Y004517D01*
X016959Y004222D02*
X016431Y004222D01*
X016541Y004320D02*
X016821Y004320D01*
X016738Y004419D02*
X016625Y004419D01*
X016665Y004517D02*
X016697Y004517D01*
X015931Y004222D02*
X015404Y004222D01*
X015541Y004320D02*
X015821Y004320D01*
X015738Y004419D02*
X015625Y004419D01*
X015665Y004517D02*
X015697Y004517D01*
X015931Y004123D02*
X013931Y004123D01*
X013931Y004025D02*
X015931Y004025D01*
X015931Y003926D02*
X013931Y003926D01*
X013931Y003828D02*
X015931Y003828D01*
X015931Y003729D02*
X013931Y003729D01*
X013931Y003630D02*
X015931Y003630D01*
X015931Y003532D02*
X013931Y003532D01*
X013931Y003433D02*
X015931Y003433D01*
X015855Y003335D02*
X013931Y003335D01*
X014006Y003236D02*
X015802Y003236D01*
X015771Y003138D02*
X014060Y003138D01*
X014091Y003039D02*
X015771Y003039D01*
X015796Y002941D02*
X014091Y002941D01*
X014067Y002842D02*
X015841Y002842D01*
X015939Y002744D02*
X014023Y002744D01*
X013925Y002645D02*
X034881Y002645D01*
X034793Y002744D02*
X016423Y002744D01*
X016522Y002842D02*
X034752Y002842D01*
X034731Y002941D02*
X016567Y002941D01*
X014959Y004222D02*
X014404Y004222D01*
X014541Y004320D02*
X014821Y004320D01*
X014738Y004419D02*
X014625Y004419D01*
X014665Y004517D02*
X014697Y004517D01*
X013959Y004222D02*
X013931Y004222D01*
X012921Y005306D02*
X012527Y005306D01*
X012619Y005404D02*
X012822Y005404D01*
X012768Y005503D02*
X012659Y005503D01*
X012691Y005601D02*
X012731Y005601D01*
X013131Y005798D02*
X013231Y005798D01*
X013231Y005897D02*
X013131Y005897D01*
X013131Y005995D02*
X013231Y005995D01*
X013231Y006094D02*
X013131Y006094D01*
X013361Y006094D02*
X013431Y006094D01*
X011811Y006094D02*
X011351Y006094D01*
X011351Y005995D02*
X011774Y005995D01*
X011719Y005897D02*
X011379Y005897D01*
X011363Y005936D02*
X011351Y005948D01*
X011351Y006465D01*
X011363Y006476D01*
X011431Y006642D01*
X011431Y006821D01*
X011363Y006986D01*
X011236Y007113D01*
X011071Y007181D01*
X010892Y007181D01*
X010726Y007113D01*
X010600Y006986D01*
X010531Y006821D01*
X010531Y006642D01*
X010600Y006476D01*
X010611Y006465D01*
X010611Y005948D01*
X010600Y005936D01*
X010531Y005771D01*
X010531Y005592D01*
X010600Y005426D01*
X010726Y005300D01*
X010892Y005231D01*
X011071Y005231D01*
X011236Y005300D01*
X011363Y005426D01*
X011431Y005592D01*
X011431Y005771D01*
X011363Y005936D01*
X011420Y005798D02*
X011678Y005798D01*
X011671Y005700D02*
X011431Y005700D01*
X011431Y005601D02*
X011671Y005601D01*
X011703Y005503D02*
X011394Y005503D01*
X011341Y005404D02*
X011744Y005404D01*
X011836Y005306D02*
X011242Y005306D01*
X010721Y005306D02*
X007442Y005306D01*
X007436Y005300D02*
X007563Y005426D01*
X007631Y005592D01*
X007631Y005631D01*
X007232Y005631D01*
X007232Y005731D01*
X007631Y005731D01*
X007631Y005771D01*
X007563Y005936D01*
X007436Y006063D01*
X007271Y006131D01*
X007231Y006131D01*
X007231Y005732D01*
X007131Y005732D01*
X007131Y006131D01*
X007092Y006131D01*
X006926Y006063D01*
X006800Y005936D01*
X006731Y005771D01*
X006731Y005731D01*
X007131Y005731D01*
X007131Y005631D01*
X006731Y005631D01*
X006731Y005592D01*
X006800Y005426D01*
X006926Y005300D01*
X007092Y005231D01*
X007131Y005231D01*
X007131Y005631D01*
X007231Y005631D01*
X007231Y005231D01*
X007271Y005231D01*
X007436Y005300D01*
X007541Y005404D02*
X010622Y005404D01*
X010568Y005503D02*
X007594Y005503D01*
X007631Y005601D02*
X010531Y005601D01*
X010531Y005700D02*
X007232Y005700D01*
X007231Y005798D02*
X007131Y005798D01*
X007131Y005700D02*
X006691Y005700D01*
X006685Y005798D02*
X006743Y005798D01*
X006784Y005897D02*
X006644Y005897D01*
X006589Y005995D02*
X006859Y005995D01*
X007002Y006094D02*
X006490Y006094D01*
X006691Y005601D02*
X006731Y005601D01*
X006768Y005503D02*
X006659Y005503D01*
X006619Y005404D02*
X006822Y005404D01*
X006921Y005306D02*
X006527Y005306D01*
X007131Y005306D02*
X007231Y005306D01*
X007231Y005404D02*
X007131Y005404D01*
X007131Y005503D02*
X007231Y005503D01*
X007231Y005601D02*
X007131Y005601D01*
X007131Y005897D02*
X007231Y005897D01*
X007231Y005995D02*
X007131Y005995D01*
X007131Y006094D02*
X007231Y006094D01*
X007361Y006094D02*
X010611Y006094D01*
X010611Y005995D02*
X007504Y005995D01*
X007579Y005897D02*
X010584Y005897D01*
X010543Y005798D02*
X007620Y005798D01*
X005873Y006094D02*
X005490Y006094D01*
X005589Y005995D02*
X005774Y005995D01*
X005719Y005897D02*
X005644Y005897D01*
X004873Y006094D02*
X004490Y006094D01*
X004589Y005995D02*
X004774Y005995D01*
X004719Y005897D02*
X004644Y005897D01*
X003873Y006094D02*
X003361Y006094D01*
X003436Y006063D02*
X003271Y006131D01*
X003231Y006131D01*
X003231Y005732D01*
X003131Y005732D01*
X003131Y006131D01*
X003092Y006131D01*
X002926Y006063D01*
X002800Y005936D01*
X002731Y005771D01*
X002731Y005731D01*
X003131Y005731D01*
X003131Y005631D01*
X002731Y005631D01*
X002731Y005592D01*
X002800Y005426D01*
X002926Y005300D01*
X003092Y005231D01*
X003131Y005231D01*
X003131Y005631D01*
X003231Y005631D01*
X003231Y005231D01*
X003271Y005231D01*
X003436Y005300D01*
X003563Y005426D01*
X003631Y005592D01*
X003631Y005631D01*
X003232Y005631D01*
X003232Y005731D01*
X003631Y005731D01*
X003631Y005771D01*
X003563Y005936D01*
X003436Y006063D01*
X003504Y005995D02*
X003774Y005995D01*
X003719Y005897D02*
X003579Y005897D01*
X003620Y005798D02*
X003678Y005798D01*
X003671Y005700D02*
X003232Y005700D01*
X003231Y005798D02*
X003131Y005798D01*
X003131Y005700D02*
X000711Y005700D01*
X000711Y005798D02*
X002743Y005798D01*
X002784Y005897D02*
X000711Y005897D01*
X000711Y005995D02*
X002859Y005995D01*
X003002Y006094D02*
X000711Y006094D01*
X000711Y006193D02*
X010611Y006193D01*
X010611Y006291D02*
X000711Y006291D01*
X000711Y006390D02*
X010611Y006390D01*
X010595Y006488D02*
X000711Y006488D01*
X000711Y006587D02*
X010554Y006587D01*
X010531Y006685D02*
X000711Y006685D01*
X000711Y006784D02*
X010531Y006784D01*
X010557Y006882D02*
X000711Y006882D01*
X000711Y006981D02*
X010598Y006981D01*
X010693Y007079D02*
X000711Y007079D01*
X000711Y007178D02*
X010884Y007178D01*
X011079Y007178D02*
X012084Y007178D01*
X011893Y007079D02*
X011270Y007079D01*
X011365Y006981D02*
X011798Y006981D01*
X011757Y006882D02*
X011406Y006882D01*
X011431Y006784D02*
X011731Y006784D01*
X011731Y006685D02*
X011431Y006685D01*
X011409Y006587D02*
X011754Y006587D01*
X011795Y006488D02*
X011368Y006488D01*
X011351Y006390D02*
X011811Y006390D01*
X011811Y006291D02*
X011351Y006291D01*
X011351Y006193D02*
X011811Y006193D01*
X015931Y006193D02*
X031881Y006193D01*
X031881Y006291D02*
X015931Y006291D01*
X015931Y006390D02*
X031820Y006390D01*
X031721Y006488D02*
X015931Y006488D01*
X016490Y006094D02*
X016873Y006094D01*
X016774Y005995D02*
X016589Y005995D01*
X016644Y005897D02*
X016719Y005897D01*
X021431Y010233D02*
X028553Y010233D01*
X028655Y010331D02*
X021553Y010331D01*
X024384Y008262D02*
X025979Y008262D01*
X025830Y008163D02*
X025448Y008163D01*
X025436Y008175D02*
X025271Y008244D01*
X025231Y008244D01*
X025231Y007844D01*
X025131Y007844D01*
X025131Y007744D01*
X024731Y007744D01*
X024731Y007704D01*
X024800Y007539D01*
X024926Y007412D01*
X025092Y007344D01*
X025131Y007344D01*
X025131Y007744D01*
X025231Y007744D01*
X025231Y007344D01*
X025271Y007344D01*
X025436Y007412D01*
X025563Y007539D01*
X025631Y007704D01*
X025631Y007744D01*
X025232Y007744D01*
X025232Y007844D01*
X025631Y007844D01*
X025631Y007883D01*
X025563Y008049D01*
X025436Y008175D01*
X025547Y008065D02*
X025742Y008065D01*
X025701Y007966D02*
X025597Y007966D01*
X025631Y007868D02*
X025671Y007868D01*
X025671Y007769D02*
X025232Y007769D01*
X025231Y007671D02*
X025131Y007671D01*
X025131Y007769D02*
X024691Y007769D01*
X024731Y007844D02*
X025131Y007844D01*
X025131Y008244D01*
X025092Y008244D01*
X024926Y008175D01*
X024800Y008049D01*
X024731Y007883D01*
X024731Y007844D01*
X024731Y007868D02*
X024691Y007868D01*
X024662Y007966D02*
X024766Y007966D01*
X024816Y008065D02*
X024621Y008065D01*
X024533Y008163D02*
X024915Y008163D01*
X025131Y008163D02*
X025231Y008163D01*
X025231Y008065D02*
X025131Y008065D01*
X025131Y007966D02*
X025231Y007966D01*
X025231Y007868D02*
X025131Y007868D01*
X025131Y007572D02*
X025231Y007572D01*
X025231Y007474D02*
X025131Y007474D01*
X025131Y007375D02*
X025231Y007375D01*
X025346Y007375D02*
X025879Y007375D01*
X025780Y007474D02*
X025497Y007474D01*
X025577Y007572D02*
X025721Y007572D01*
X025680Y007671D02*
X025617Y007671D01*
X025017Y007375D02*
X024484Y007375D01*
X024582Y007474D02*
X024865Y007474D01*
X024786Y007572D02*
X024642Y007572D01*
X024682Y007671D02*
X024745Y007671D01*
X025092Y006131D02*
X024926Y006063D01*
X024800Y005936D01*
X024731Y005771D01*
X024731Y005731D01*
X025131Y005731D01*
X025131Y005631D01*
X024731Y005631D01*
X024731Y005592D01*
X024800Y005426D01*
X024926Y005300D01*
X025092Y005231D01*
X025131Y005231D01*
X025131Y005631D01*
X025231Y005631D01*
X025231Y005231D01*
X025271Y005231D01*
X025436Y005300D01*
X025563Y005426D01*
X025631Y005592D01*
X025631Y005631D01*
X025232Y005631D01*
X025232Y005731D01*
X025631Y005731D01*
X025631Y005771D01*
X025563Y005936D01*
X025436Y006063D01*
X025271Y006131D01*
X025231Y006131D01*
X025231Y005732D01*
X025131Y005732D01*
X025131Y006131D01*
X025092Y006131D01*
X025131Y006094D02*
X025231Y006094D01*
X025231Y005995D02*
X025131Y005995D01*
X025131Y005897D02*
X025231Y005897D01*
X025231Y005798D02*
X025131Y005798D01*
X025131Y005700D02*
X024691Y005700D01*
X024685Y005798D02*
X024743Y005798D01*
X024784Y005897D02*
X024644Y005897D01*
X024589Y005995D02*
X024859Y005995D01*
X025002Y006094D02*
X024490Y006094D01*
X024691Y005601D02*
X024731Y005601D01*
X024768Y005503D02*
X024659Y005503D01*
X024619Y005404D02*
X024822Y005404D01*
X024921Y005306D02*
X024527Y005306D01*
X024369Y005207D02*
X025994Y005207D01*
X025887Y005109D02*
X025475Y005109D01*
X025574Y005010D02*
X025789Y005010D01*
X025725Y004911D02*
X025638Y004911D01*
X025679Y004813D02*
X025684Y004813D01*
X025665Y004517D02*
X025697Y004517D01*
X025738Y004419D02*
X025625Y004419D01*
X025541Y004320D02*
X025821Y004320D01*
X025959Y004222D02*
X025404Y004222D01*
X024959Y004222D02*
X024404Y004222D01*
X024541Y004320D02*
X024821Y004320D01*
X024738Y004419D02*
X024625Y004419D01*
X024665Y004517D02*
X024697Y004517D01*
X024679Y004813D02*
X024684Y004813D01*
X024725Y004911D02*
X024638Y004911D01*
X024574Y005010D02*
X024789Y005010D01*
X024887Y005109D02*
X024475Y005109D01*
X025131Y005306D02*
X025231Y005306D01*
X025231Y005404D02*
X025131Y005404D01*
X025131Y005503D02*
X025231Y005503D01*
X025231Y005601D02*
X025131Y005601D01*
X025232Y005700D02*
X025671Y005700D01*
X025678Y005798D02*
X025620Y005798D01*
X025579Y005897D02*
X025719Y005897D01*
X025774Y005995D02*
X025504Y005995D01*
X025361Y006094D02*
X025873Y006094D01*
X025671Y005601D02*
X025631Y005601D01*
X025594Y005503D02*
X025703Y005503D01*
X025744Y005404D02*
X025541Y005404D01*
X025442Y005306D02*
X025836Y005306D01*
X026369Y005207D02*
X031994Y005207D01*
X032037Y005109D02*
X029882Y005109D01*
X029681Y005109D02*
X026475Y005109D01*
X026574Y005010D02*
X029505Y005010D01*
X029423Y004911D02*
X026638Y004911D01*
X026679Y004813D02*
X029382Y004813D01*
X029371Y004714D02*
X026691Y004714D01*
X026691Y004616D02*
X029375Y004616D01*
X029416Y004517D02*
X026665Y004517D01*
X026625Y004419D02*
X029489Y004419D01*
X029531Y004320D02*
X026541Y004320D01*
X026404Y004222D02*
X029492Y004222D01*
X030031Y004320D02*
X031906Y004320D01*
X031926Y004300D02*
X032092Y004231D01*
X032131Y004231D01*
X032131Y004631D01*
X031731Y004631D01*
X031731Y004592D01*
X031800Y004426D01*
X031926Y004300D01*
X031808Y004419D02*
X030074Y004419D01*
X030147Y004517D02*
X031762Y004517D01*
X031731Y004616D02*
X030188Y004616D01*
X030191Y004714D02*
X032131Y004714D01*
X032131Y004731D02*
X032131Y004631D01*
X032231Y004631D01*
X032231Y004231D01*
X032271Y004231D01*
X032436Y004300D01*
X032563Y004426D01*
X032631Y004592D01*
X032631Y004631D01*
X032232Y004631D01*
X032232Y004731D01*
X032631Y004731D01*
X032631Y004771D01*
X032563Y004936D01*
X032436Y005063D01*
X032271Y005131D01*
X032231Y005131D01*
X032231Y004732D01*
X032131Y004732D01*
X032131Y005131D01*
X032092Y005131D01*
X031926Y005063D01*
X031800Y004936D01*
X031731Y004771D01*
X031731Y004731D01*
X032131Y004731D01*
X032131Y004813D02*
X032231Y004813D01*
X032231Y004911D02*
X032131Y004911D01*
X032131Y005010D02*
X032231Y005010D01*
X032231Y005109D02*
X032131Y005109D01*
X032326Y005109D02*
X032887Y005109D01*
X032789Y005010D02*
X032489Y005010D01*
X032573Y004911D02*
X032725Y004911D01*
X032684Y004813D02*
X032614Y004813D01*
X032671Y004714D02*
X032232Y004714D01*
X032231Y004616D02*
X032131Y004616D01*
X032131Y004517D02*
X032231Y004517D01*
X032231Y004419D02*
X032131Y004419D01*
X032131Y004320D02*
X032231Y004320D01*
X032457Y004320D02*
X032821Y004320D01*
X032738Y004419D02*
X032555Y004419D01*
X032600Y004517D02*
X032697Y004517D01*
X032671Y004616D02*
X032631Y004616D01*
X032959Y004222D02*
X030071Y004222D01*
X030146Y004123D02*
X034811Y004123D01*
X034811Y004025D02*
X030187Y004025D01*
X030191Y003926D02*
X034811Y003926D01*
X034811Y003828D02*
X030182Y003828D01*
X030141Y003729D02*
X034811Y003729D01*
X034811Y003630D02*
X030060Y003630D01*
X030181Y004813D02*
X031749Y004813D01*
X031790Y004911D02*
X030140Y004911D01*
X030058Y005010D02*
X031874Y005010D01*
X031836Y005306D02*
X026527Y005306D01*
X026619Y005404D02*
X031744Y005404D01*
X031703Y005503D02*
X026659Y005503D01*
X026691Y005601D02*
X031671Y005601D01*
X031671Y005700D02*
X026691Y005700D01*
X026685Y005798D02*
X031678Y005798D01*
X031719Y005897D02*
X026644Y005897D01*
X026589Y005995D02*
X031774Y005995D01*
X031873Y006094D02*
X026490Y006094D01*
X023887Y005109D02*
X023475Y005109D01*
X023574Y005010D02*
X023789Y005010D01*
X023725Y004911D02*
X023638Y004911D01*
X023679Y004813D02*
X023684Y004813D01*
X023665Y004517D02*
X023697Y004517D01*
X023738Y004419D02*
X023625Y004419D01*
X023541Y004320D02*
X023821Y004320D01*
X023959Y004222D02*
X023404Y004222D01*
X023231Y005306D02*
X023131Y005306D01*
X023131Y005404D02*
X023231Y005404D01*
X023231Y005503D02*
X023131Y005503D01*
X023131Y005601D02*
X023231Y005601D01*
X023231Y005897D02*
X023131Y005897D01*
X023131Y005995D02*
X023231Y005995D01*
X023231Y006094D02*
X023131Y006094D01*
X022731Y005601D02*
X022691Y005601D01*
X022659Y005503D02*
X022768Y005503D01*
X022822Y005404D02*
X022619Y005404D01*
X022527Y005306D02*
X022921Y005306D01*
X032369Y005207D02*
X032994Y005207D01*
X032836Y005306D02*
X032527Y005306D01*
X032619Y005404D02*
X032744Y005404D01*
X032703Y005503D02*
X032659Y005503D01*
X032644Y005897D02*
X032719Y005897D01*
X032774Y005995D02*
X032589Y005995D01*
X032490Y006094D02*
X032873Y006094D01*
X033490Y006094D02*
X033873Y006094D01*
X033774Y005995D02*
X033589Y005995D01*
X033644Y005897D02*
X033719Y005897D01*
X034490Y006094D02*
X034873Y006094D01*
X034774Y005995D02*
X034589Y005995D01*
X034644Y005897D02*
X034719Y005897D01*
X035490Y006094D02*
X035873Y006094D01*
X035774Y005995D02*
X035589Y005995D01*
X035644Y005897D02*
X035719Y005897D01*
X035703Y005503D02*
X035659Y005503D01*
X035619Y005404D02*
X035744Y005404D01*
X035836Y005306D02*
X035527Y005306D01*
X035369Y005207D02*
X035994Y005207D01*
X036131Y004517D02*
X036231Y004517D01*
X036231Y004419D02*
X036131Y004419D01*
X036131Y004320D02*
X036231Y004320D01*
X034811Y004320D02*
X034541Y004320D01*
X034625Y004419D02*
X034738Y004419D01*
X034697Y004517D02*
X034665Y004517D01*
X034811Y004222D02*
X034404Y004222D01*
X033959Y004222D02*
X033404Y004222D01*
X033541Y004320D02*
X033821Y004320D01*
X033738Y004419D02*
X033625Y004419D01*
X033665Y004517D02*
X033697Y004517D01*
X018945Y016638D02*
X017718Y016638D01*
X017481Y016981D02*
X019181Y016981D01*
X013381Y012381D02*
X012581Y012381D01*
X012278Y012105D02*
X000711Y012105D01*
X000711Y012007D02*
X012415Y012007D01*
X012211Y012204D02*
X000711Y012204D01*
X000711Y012302D02*
X012171Y012302D01*
X012171Y012401D02*
X000711Y012401D01*
X000711Y012499D02*
X012186Y012499D01*
X012227Y012598D02*
X000711Y012598D01*
X000711Y012696D02*
X012317Y012696D01*
X012846Y012696D02*
X013117Y012696D01*
X013078Y012105D02*
X012885Y012105D01*
X012748Y012007D02*
X013215Y012007D01*
X010922Y015061D02*
X010441Y015061D01*
X010490Y015653D02*
X010873Y015653D01*
X011003Y015751D02*
X010360Y015751D01*
X003231Y006094D02*
X003131Y006094D01*
X003131Y005995D02*
X003231Y005995D01*
X003231Y005897D02*
X003131Y005897D01*
X003131Y005601D02*
X003231Y005601D01*
X003231Y005503D02*
X003131Y005503D01*
X003131Y005404D02*
X003231Y005404D01*
X003231Y005306D02*
X003131Y005306D01*
X002921Y005306D02*
X000711Y005306D01*
X000711Y005404D02*
X002822Y005404D01*
X002768Y005503D02*
X000711Y005503D01*
X000711Y005601D02*
X002731Y005601D01*
X003442Y005306D02*
X003836Y005306D01*
X003744Y005404D02*
X003541Y005404D01*
X003594Y005503D02*
X003703Y005503D01*
X003671Y005601D02*
X003631Y005601D01*
D15*
X007681Y002181D03*
X010981Y005681D03*
X010981Y006731D03*
X012181Y006731D03*
X035181Y002981D03*
D16*
X035181Y004681D01*
X035181Y002981D02*
X035181Y002931D01*
X012181Y005681D02*
X012181Y006731D01*
X010981Y006731D02*
X010981Y005681D01*
D17*
X013681Y006181D02*
X013681Y004681D01*
X014181Y004681D01*
X013681Y004681D02*
X013681Y002981D01*
X015181Y004681D02*
X015681Y005181D01*
X015681Y007281D01*
X014581Y008381D01*
X014381Y007481D02*
X014781Y007481D01*
X015231Y007031D01*
X015231Y005731D01*
X015181Y005681D01*
X014881Y006381D02*
X014181Y005681D01*
X013681Y006181D02*
X014181Y006681D01*
X014881Y006681D02*
X014881Y006381D01*
X015981Y007981D02*
X015781Y008181D01*
X015981Y007981D02*
X016781Y006981D01*
X019181Y006981D02*
X019181Y008081D01*
X019881Y008081D02*
X019881Y006981D01*
X021181Y005681D02*
X021681Y005181D01*
X021681Y003981D01*
X017881Y003981D02*
X017881Y003681D01*
X017881Y003981D02*
X017181Y004681D01*
X016181Y004681D02*
X016181Y003081D01*
X027481Y011081D02*
X027481Y012281D01*
X028881Y009981D02*
X031181Y009981D01*
X031681Y009681D01*
X030581Y008581D02*
X029581Y008581D01*
X029081Y009081D01*
X031881Y006981D02*
X031881Y006681D01*
X032131Y006431D01*
X032131Y005731D01*
X032181Y005681D01*
X029781Y004706D02*
X029781Y003931D01*
X033381Y008981D02*
X034481Y008981D01*
X034981Y013381D02*
X035181Y013381D01*
X036981Y015281D01*
X036381Y015481D02*
X036181Y015281D01*
X026881Y015181D02*
X025781Y015181D01*
X018581Y017681D02*
X016881Y017681D01*
X012681Y020581D02*
X012681Y021881D01*
X011481Y021981D02*
X011481Y020581D01*
X011181Y015381D02*
X010181Y015381D01*
M02*
