G75*
G70*
%OFA0B0*%
%FSLAX24Y24*%
%IPPOS*%
%LPD*%
%AMOC8*
5,1,8,0,0,1.08239X$1,22.5*
%
%ADD10C,0.0660*%
%ADD11C,0.0651*%
%ADD12C,0.2060*%
%ADD13C,0.0910*%
D10*
X003181Y004681D03*
X004181Y004681D03*
X004181Y005681D03*
X003181Y005681D03*
X005181Y005681D03*
X006181Y005681D03*
X006181Y004681D03*
X005181Y004681D03*
X007181Y004681D03*
X007181Y005681D03*
X012181Y005681D03*
X012181Y004681D03*
X013181Y004681D03*
X013181Y005681D03*
X014181Y005681D03*
X015181Y005681D03*
X015181Y004681D03*
X014181Y004681D03*
X016181Y004681D03*
X017181Y004681D03*
X017181Y005681D03*
X016181Y005681D03*
X018181Y005681D03*
X019181Y005681D03*
X019181Y004681D03*
X018181Y004681D03*
X020181Y004681D03*
X021181Y004681D03*
X021181Y005681D03*
X020181Y005681D03*
X022181Y005681D03*
X023181Y005681D03*
X023181Y004681D03*
X022181Y004681D03*
X024181Y004681D03*
X025181Y004681D03*
X025181Y005681D03*
X024181Y005681D03*
X026181Y005681D03*
X026181Y004681D03*
X026181Y007794D03*
X025181Y007794D03*
X024181Y007794D03*
X021181Y010681D03*
X020181Y010681D03*
X019181Y010681D03*
X032181Y005681D03*
X032181Y004681D03*
X033181Y004681D03*
X034181Y004681D03*
X034181Y005681D03*
X033181Y005681D03*
X035181Y005681D03*
X036181Y005681D03*
X036181Y004681D03*
X035181Y004681D03*
X022841Y023181D03*
X021761Y023181D03*
X020681Y023181D03*
X019601Y023181D03*
X018521Y023181D03*
X019061Y024181D03*
X020141Y024181D03*
X021221Y024181D03*
X022301Y024181D03*
D11*
X002347Y018945D03*
X002347Y009418D03*
D12*
X015751Y023681D03*
X025611Y023681D03*
D13*
X037181Y017181D03*
M02*
