G75*
G70*
%OFA0B0*%
%FSLAX24Y24*%
%IPPOS*%
%LPD*%
%AMOC8*
5,1,8,0,0,1.08239X$1,22.5*
%
%ADD10R,0.0394X0.0433*%
%ADD11R,0.0098X0.0217*%
%ADD12R,0.0157X0.0157*%
%ADD13R,0.0217X0.0098*%
%ADD14R,0.0433X0.0394*%
%ADD15R,0.0800X0.0260*%
%ADD16R,0.0866X0.0787*%
%ADD17R,0.0290X0.1230*%
%ADD18R,0.0984X0.0591*%
%ADD19R,0.0413X0.0394*%
%ADD20R,0.0394X0.0453*%
%ADD21R,0.0984X0.0787*%
%ADD22R,0.0433X0.0512*%
%ADD23R,0.0591X0.0472*%
%ADD24R,0.0880X0.0480*%
%ADD25R,0.0866X0.1417*%
%ADD26R,0.0512X0.0591*%
%ADD27R,0.0787X0.0866*%
%ADD28R,0.0315X0.0315*%
D10*
X012347Y009681D03*
X013016Y009681D03*
X017747Y009981D03*
X018416Y009981D03*
X021347Y008181D03*
X022016Y008181D03*
X025681Y010847D03*
X025681Y011516D03*
X028847Y011981D03*
X029516Y011981D03*
X029516Y012781D03*
X028847Y012781D03*
X031547Y014681D03*
X032216Y014681D03*
X037581Y020247D03*
X037581Y020916D03*
X036581Y021216D03*
X036581Y021847D03*
X036581Y022516D03*
X036581Y023147D03*
X036581Y023816D03*
X036581Y020547D03*
X034716Y006981D03*
X034047Y006981D03*
X033266Y006981D03*
X032597Y006981D03*
X017016Y018681D03*
X016347Y018681D03*
X012681Y014516D03*
X012681Y013847D03*
D11*
X031488Y012390D03*
X031685Y012390D03*
X031881Y012390D03*
X032078Y012390D03*
X032275Y012390D03*
X032177Y011878D03*
X031980Y011878D03*
X031783Y011878D03*
X031586Y011878D03*
X031586Y011485D03*
X031783Y011485D03*
X031980Y011485D03*
X032177Y011485D03*
X032275Y010973D03*
X032078Y010973D03*
X031881Y010973D03*
X031685Y010973D03*
X031488Y010973D03*
D12*
X032511Y012311D03*
D13*
X032590Y012075D03*
X032590Y011878D03*
X032590Y011681D03*
X032590Y011485D03*
X032590Y011288D03*
X031173Y011288D03*
X031173Y011485D03*
X031173Y011681D03*
X031173Y011878D03*
X031173Y012075D03*
D14*
X032047Y013781D03*
X032716Y013781D03*
X034981Y012816D03*
X034981Y012147D03*
X036081Y011847D03*
X036081Y012516D03*
X034631Y010216D03*
X034631Y009547D03*
X037531Y005816D03*
X037531Y005147D03*
X022681Y010347D03*
X022681Y011016D03*
X021016Y016181D03*
X020347Y016181D03*
X031247Y020381D03*
X031916Y020381D03*
X010081Y005216D03*
X010081Y004547D03*
X013681Y002316D03*
X013681Y001647D03*
X016181Y001647D03*
X016181Y002316D03*
X017281Y002316D03*
X017281Y001647D03*
X020781Y001747D03*
X020781Y002416D03*
X021781Y002416D03*
X021781Y001747D03*
X001981Y004947D03*
X001981Y005616D03*
D15*
X018971Y011931D03*
X018971Y012431D03*
X018971Y012931D03*
X018971Y013431D03*
X018971Y013931D03*
X018971Y014431D03*
X018971Y014931D03*
X018971Y015431D03*
X022391Y015431D03*
X022391Y014931D03*
X022391Y014431D03*
X022391Y013931D03*
X022391Y013431D03*
X022391Y012931D03*
X022391Y012431D03*
X022391Y011931D03*
X032971Y020431D03*
X032971Y020931D03*
X032971Y021431D03*
X032971Y021931D03*
X032971Y022431D03*
X032971Y022931D03*
X032971Y023431D03*
X032971Y023931D03*
X035391Y023931D03*
X035391Y023431D03*
X035391Y022931D03*
X035391Y022431D03*
X035391Y021931D03*
X035391Y021431D03*
X035391Y020931D03*
X035391Y020431D03*
D16*
X024181Y011772D03*
X024181Y010591D03*
X023181Y018291D03*
X023181Y019472D03*
D17*
X030681Y017781D03*
X031181Y017781D03*
X031681Y017781D03*
X032181Y017781D03*
X032681Y017781D03*
X032681Y016311D03*
X032181Y016311D03*
X031681Y016311D03*
X031181Y016311D03*
X030681Y016311D03*
D18*
X003931Y008511D03*
X003174Y019339D03*
D19*
X004040Y019370D03*
D20*
X007977Y019370D03*
D21*
X010024Y019693D03*
X010024Y008158D03*
D22*
X012011Y018881D03*
D23*
X011941Y018011D03*
X011933Y017347D03*
X011933Y016394D03*
X011933Y015410D03*
X011933Y014426D03*
X011933Y013441D03*
X011933Y012457D03*
X011933Y011473D03*
X011933Y010489D03*
D24*
X021720Y018559D03*
X021720Y019469D03*
X021720Y020379D03*
D25*
X019280Y019469D03*
D26*
X023047Y020681D03*
X023716Y020681D03*
D27*
X005591Y002181D03*
X006772Y002181D03*
D28*
X022681Y007574D03*
X022681Y008164D03*
M02*
