G75*
G70*
%OFA0B0*%
%FSLAX24Y24*%
%IPPOS*%
%LPD*%
%AMOC8*
5,1,8,0,0,1.08239X$1,22.5*
%
%ADD10C,0.0080*%
%ADD11R,0.0059X0.0118*%
%ADD12R,0.0118X0.0118*%
D10*
X000181Y000181D02*
X000181Y008374D01*
X003381Y008374D01*
X003673Y007642D02*
X003602Y007572D01*
X003602Y007291D01*
X003673Y007221D01*
X003813Y007221D01*
X003883Y007291D01*
X004063Y007221D02*
X004063Y007502D01*
X004203Y007642D01*
X004343Y007502D01*
X004343Y007221D01*
X004523Y007221D02*
X004523Y007642D01*
X004733Y007642D01*
X004803Y007572D01*
X004803Y007432D01*
X004733Y007362D01*
X004523Y007362D01*
X004663Y007362D02*
X004803Y007221D01*
X004984Y007221D02*
X005194Y007221D01*
X005264Y007291D01*
X005264Y007572D01*
X005194Y007642D01*
X004984Y007642D01*
X004984Y007221D01*
X005444Y007151D02*
X005724Y007151D01*
X005904Y007291D02*
X005974Y007221D01*
X006114Y007221D01*
X006184Y007291D01*
X006184Y007362D01*
X006114Y007432D01*
X005974Y007432D01*
X005904Y007502D01*
X005904Y007572D01*
X005974Y007642D01*
X006114Y007642D01*
X006184Y007572D01*
X006365Y007572D02*
X006365Y007291D01*
X006435Y007221D01*
X006575Y007221D01*
X006645Y007291D01*
X006645Y007572D01*
X006575Y007642D01*
X006435Y007642D01*
X006365Y007572D01*
X006825Y007572D02*
X006825Y007291D01*
X006895Y007221D01*
X007035Y007221D01*
X007105Y007291D01*
X007285Y007221D02*
X007285Y007642D01*
X007105Y007572D02*
X007035Y007642D01*
X006895Y007642D01*
X006825Y007572D01*
X007285Y007362D02*
X007566Y007642D01*
X007746Y007642D02*
X007746Y007221D01*
X008026Y007221D01*
X007886Y007432D02*
X007746Y007432D01*
X007746Y007642D02*
X008026Y007642D01*
X008206Y007642D02*
X008486Y007642D01*
X008346Y007642D02*
X008346Y007221D01*
X008666Y007291D02*
X008736Y007221D01*
X008877Y007221D01*
X008947Y007291D01*
X008947Y007362D01*
X008877Y007432D01*
X008736Y007432D01*
X008666Y007502D01*
X008666Y007572D01*
X008736Y007642D01*
X008877Y007642D01*
X008947Y007572D01*
X009127Y007642D02*
X009127Y007221D01*
X009337Y007221D01*
X009407Y007291D01*
X009407Y007572D01*
X009337Y007642D01*
X009127Y007642D01*
X009433Y008374D02*
X004581Y008374D01*
X004343Y007432D02*
X004063Y007432D01*
X003883Y007572D02*
X003813Y007642D01*
X003673Y007642D01*
X003422Y007151D02*
X003142Y007151D01*
X002962Y007291D02*
X002962Y007572D01*
X002892Y007642D01*
X002682Y007642D01*
X002682Y007221D01*
X002892Y007221D01*
X002962Y007291D01*
X002502Y007291D02*
X002432Y007221D01*
X002291Y007221D01*
X002221Y007291D01*
X002291Y007432D02*
X002432Y007432D01*
X002502Y007362D01*
X002502Y007291D01*
X002291Y007432D02*
X002221Y007502D01*
X002221Y007572D01*
X002291Y007642D01*
X002432Y007642D01*
X002502Y007572D01*
X002931Y006181D02*
X002681Y005931D01*
X002681Y004431D01*
X002931Y004181D01*
X003431Y004181D01*
X003681Y004431D01*
X003931Y004181D01*
X004431Y004181D01*
X004681Y004431D01*
X004931Y004181D01*
X005431Y004181D01*
X005681Y004431D01*
X005931Y004181D01*
X006431Y004181D01*
X006681Y004431D01*
X006931Y004181D01*
X007431Y004181D01*
X007681Y004431D01*
X007681Y005931D01*
X007431Y006181D01*
X006931Y006181D01*
X006681Y005931D01*
X006431Y006181D01*
X005931Y006181D01*
X005681Y005931D01*
X005431Y006181D01*
X004931Y006181D01*
X004681Y005931D01*
X004431Y006181D01*
X003931Y006181D01*
X003681Y005931D01*
X003431Y006181D01*
X002931Y006181D01*
X001391Y005721D02*
X001391Y005581D01*
X001321Y005511D01*
X001041Y005791D01*
X001321Y005791D01*
X001391Y005721D01*
X001321Y005511D02*
X001041Y005511D01*
X000971Y005581D01*
X000971Y005721D01*
X001041Y005791D01*
X001041Y005331D02*
X000971Y005261D01*
X000971Y005121D01*
X001041Y005051D01*
X001041Y004871D02*
X001181Y004871D01*
X001251Y004800D01*
X001251Y004590D01*
X001251Y004730D02*
X001391Y004871D01*
X001391Y005051D02*
X001111Y005331D01*
X001041Y005331D01*
X001391Y005331D02*
X001391Y005051D01*
X001041Y004871D02*
X000971Y004800D01*
X000971Y004590D01*
X001391Y004590D01*
X002501Y003852D02*
X002641Y003992D01*
X002641Y003571D01*
X002501Y003571D02*
X002781Y003571D01*
X002961Y003641D02*
X003241Y003922D01*
X003241Y003641D01*
X003171Y003571D01*
X003031Y003571D01*
X002961Y003641D01*
X002961Y003922D01*
X003031Y003992D01*
X003171Y003992D01*
X003241Y003922D01*
X004788Y002300D02*
X004788Y002051D01*
X004666Y002181D02*
X004914Y002181D01*
X005537Y001637D02*
X006826Y001637D01*
X006691Y001442D02*
X006551Y001372D01*
X006411Y001232D01*
X006621Y001232D01*
X006691Y001162D01*
X006691Y001091D01*
X006621Y001021D01*
X006481Y001021D01*
X006411Y001091D01*
X006411Y001232D01*
X006231Y001372D02*
X006161Y001442D01*
X006021Y001442D01*
X005951Y001372D01*
X005951Y001091D01*
X006021Y001021D01*
X006161Y001021D01*
X006231Y001091D01*
X006826Y002726D02*
X005537Y002726D01*
X006801Y003641D02*
X006871Y003571D01*
X006941Y003571D01*
X007011Y003641D01*
X007011Y003992D01*
X006941Y003992D02*
X007081Y003992D01*
X007261Y003782D02*
X007541Y003782D01*
X007471Y003992D02*
X007471Y003571D01*
X007261Y003782D02*
X007471Y003992D01*
X007241Y006371D02*
X006961Y006371D01*
X007101Y006371D02*
X007101Y006792D01*
X006961Y006652D01*
X007566Y007221D02*
X007355Y007432D01*
X010614Y008374D02*
X011638Y008374D01*
X011638Y019536D01*
X010614Y019536D01*
X009433Y019536D02*
X008252Y019536D01*
X007662Y019536D02*
X004315Y019536D01*
X004946Y019803D02*
X005016Y019733D01*
X005086Y019733D01*
X005156Y019803D01*
X005156Y020154D01*
X005086Y020154D02*
X005226Y020154D01*
X005406Y020013D02*
X005546Y020154D01*
X005546Y019733D01*
X005406Y019733D02*
X005686Y019733D01*
X005867Y019803D02*
X006147Y020084D01*
X006147Y019803D01*
X006077Y019733D01*
X005937Y019733D01*
X005867Y019803D01*
X005867Y020084D01*
X005937Y020154D01*
X006077Y020154D01*
X006147Y020084D01*
X006584Y022515D02*
X006688Y022515D01*
X006791Y022618D01*
X006791Y023135D01*
X006481Y023135D01*
X006378Y023032D01*
X006378Y022825D01*
X006481Y022721D01*
X006791Y022721D01*
X006155Y022721D02*
X005948Y022721D01*
X006051Y022721D02*
X006051Y023135D01*
X005948Y023135D01*
X006051Y023342D02*
X006051Y023445D01*
X006043Y023721D02*
X005733Y023721D01*
X005836Y023928D02*
X005733Y024032D01*
X005836Y024135D01*
X006147Y024135D01*
X006378Y024135D02*
X006481Y024135D01*
X006481Y023721D01*
X006378Y023721D02*
X006584Y023721D01*
X006807Y023825D02*
X006911Y023721D01*
X007221Y023721D01*
X007221Y023618D02*
X007221Y024135D01*
X006911Y024135D01*
X006807Y024032D01*
X006807Y023825D01*
X007014Y023515D02*
X007118Y023515D01*
X007221Y023618D01*
X007452Y023721D02*
X007452Y024135D01*
X007762Y024135D01*
X007866Y024032D01*
X007866Y023721D01*
X008096Y023721D02*
X008407Y023721D01*
X008510Y023825D01*
X008407Y023928D01*
X008200Y023928D01*
X008096Y024032D01*
X008200Y024135D01*
X008510Y024135D01*
X009385Y024135D02*
X009385Y023928D01*
X009592Y023721D01*
X009815Y023825D02*
X009919Y023721D01*
X010229Y023721D01*
X010460Y023721D02*
X010666Y023928D01*
X010666Y024135D01*
X010460Y024342D01*
X010229Y024135D02*
X009919Y024135D01*
X009815Y024032D01*
X009815Y023825D01*
X009385Y024135D02*
X009592Y024342D01*
X009588Y023342D02*
X009278Y023032D01*
X009692Y023032D01*
X009588Y023342D02*
X009588Y022721D01*
X009059Y022721D02*
X008956Y022721D01*
X008956Y022825D01*
X009059Y022825D01*
X009059Y022721D01*
X008725Y022721D02*
X008311Y022721D01*
X008518Y022721D02*
X008518Y023342D01*
X008311Y023135D01*
X008080Y022928D02*
X007874Y022721D01*
X007667Y022928D01*
X007667Y023342D01*
X008080Y023342D02*
X008080Y022928D01*
X006481Y024342D02*
X006481Y024445D01*
X006043Y023928D02*
X005836Y023928D01*
X006043Y023928D02*
X006147Y023825D01*
X006043Y023721D01*
X005725Y023342D02*
X005622Y023239D01*
X005622Y022721D01*
X005518Y023032D02*
X005725Y023032D01*
X005287Y023032D02*
X005287Y022721D01*
X005287Y023032D02*
X005184Y023135D01*
X004874Y023135D01*
X004874Y022721D01*
X004643Y022825D02*
X004643Y023032D01*
X004539Y023135D01*
X004333Y023135D01*
X004229Y023032D01*
X004229Y022825D01*
X004333Y022721D01*
X004539Y022721D01*
X004643Y022825D01*
X003998Y022825D02*
X003895Y022721D01*
X003688Y022721D01*
X003585Y022825D01*
X003585Y023239D01*
X003688Y023342D01*
X003895Y023342D01*
X003998Y023239D01*
X003800Y023721D02*
X004213Y024135D01*
X004213Y024239D01*
X004110Y024342D01*
X003903Y024342D01*
X003800Y024239D01*
X003569Y024032D02*
X003569Y023928D01*
X003155Y023928D01*
X003155Y023825D02*
X003155Y024032D01*
X003258Y024135D01*
X003465Y024135D01*
X003569Y024032D01*
X003465Y023721D02*
X003258Y023721D01*
X003155Y023825D01*
X002924Y023825D02*
X002821Y023721D01*
X002510Y023721D01*
X002280Y023721D02*
X002280Y024032D01*
X002176Y024135D01*
X001969Y024135D01*
X001969Y023928D02*
X001866Y023825D01*
X001969Y023721D01*
X002280Y023721D01*
X002280Y023928D02*
X001969Y023928D01*
X001635Y023928D02*
X001635Y023825D01*
X001532Y023721D01*
X001221Y023721D01*
X001221Y024342D01*
X001532Y024342D01*
X001635Y024239D01*
X001635Y024135D01*
X001532Y024032D01*
X001221Y024032D01*
X001532Y024032D02*
X001635Y023928D01*
X001428Y023342D02*
X001325Y023239D01*
X001325Y022721D01*
X001651Y022721D02*
X001961Y022721D01*
X002065Y022825D01*
X002065Y023032D01*
X001961Y023135D01*
X001651Y023135D01*
X001651Y022515D01*
X002296Y022825D02*
X002399Y022721D01*
X002709Y022721D01*
X002709Y022618D02*
X002709Y023135D01*
X002399Y023135D01*
X002296Y023032D01*
X002296Y022825D01*
X002502Y022515D02*
X002606Y022515D01*
X002709Y022618D01*
X002940Y022825D02*
X003044Y022928D01*
X003354Y022928D01*
X003354Y023032D02*
X003354Y022721D01*
X003044Y022721D01*
X002940Y022825D01*
X003044Y023135D02*
X003250Y023135D01*
X003354Y023032D01*
X003800Y023721D02*
X004213Y023721D01*
X004444Y023721D02*
X004754Y023721D01*
X004858Y023825D01*
X004858Y024239D01*
X004754Y024342D01*
X004444Y024342D01*
X004444Y023721D01*
X005089Y023825D02*
X005089Y024032D01*
X005192Y024135D01*
X005399Y024135D01*
X005502Y024032D01*
X005502Y023928D01*
X005089Y023928D01*
X005089Y023825D02*
X005192Y023721D01*
X005399Y023721D01*
X002924Y023825D02*
X002821Y023928D01*
X002614Y023928D01*
X002510Y024032D01*
X002614Y024135D01*
X002924Y024135D01*
X001428Y023032D02*
X001221Y023032D01*
X000181Y025181D02*
X000181Y019536D01*
X000181Y017859D01*
X000181Y010055D01*
X000181Y008374D01*
X000181Y010056D02*
X000355Y010065D01*
X000529Y010082D01*
X000701Y010106D01*
X000872Y010139D01*
X001042Y010179D01*
X001210Y010226D01*
X001375Y010281D01*
X001538Y010343D01*
X001698Y010412D01*
X001855Y010489D01*
X002008Y010572D01*
X002157Y010663D01*
X002302Y010759D01*
X002442Y010862D01*
X002578Y010972D01*
X002709Y011087D01*
X002834Y011208D01*
X002954Y011334D01*
X003069Y011466D01*
X003177Y011602D01*
X003279Y011744D01*
X003374Y011890D01*
X003463Y012039D01*
X003546Y012193D01*
X003621Y012350D01*
X003689Y012511D01*
X003750Y012674D01*
X003804Y012840D01*
X003850Y013008D01*
X003888Y013178D01*
X003919Y013349D01*
X003943Y013522D01*
X003958Y013696D01*
X003966Y013870D01*
X003966Y014044D01*
X003958Y014218D01*
X003943Y014392D01*
X003919Y014565D01*
X003888Y014736D01*
X003850Y014906D01*
X003804Y015074D01*
X003750Y015240D01*
X003689Y015403D01*
X003621Y015564D01*
X003546Y015721D01*
X003463Y015875D01*
X003374Y016024D01*
X003279Y016170D01*
X003177Y016312D01*
X003069Y016448D01*
X002954Y016580D01*
X002834Y016706D01*
X002709Y016827D01*
X002578Y016942D01*
X002442Y017052D01*
X002302Y017155D01*
X002157Y017251D01*
X002008Y017342D01*
X001855Y017425D01*
X001698Y017502D01*
X001538Y017571D01*
X001375Y017633D01*
X001210Y017688D01*
X001042Y017735D01*
X000872Y017775D01*
X000701Y017808D01*
X000529Y017832D01*
X000355Y017849D01*
X000181Y017858D01*
X000181Y019536D02*
X002544Y019536D01*
X000181Y025181D02*
X039181Y025181D01*
X039181Y000181D01*
X000181Y000181D01*
X010671Y003771D02*
X010671Y003982D01*
X010741Y004052D01*
X010881Y004052D01*
X010951Y003982D01*
X010951Y003771D01*
X011091Y003771D02*
X010671Y003771D01*
X010951Y003912D02*
X011091Y004052D01*
X011091Y004232D02*
X011091Y004512D01*
X011091Y004372D02*
X010671Y004372D01*
X010811Y004232D01*
X010811Y004692D02*
X010671Y004832D01*
X011091Y004832D01*
X011091Y004692D02*
X011091Y004972D01*
X011681Y004431D02*
X011931Y004181D01*
X012431Y004181D01*
X012681Y004431D01*
X012931Y004181D01*
X013431Y004181D01*
X013681Y004431D01*
X013931Y004181D01*
X014431Y004181D01*
X014681Y004431D01*
X014931Y004181D01*
X015431Y004181D01*
X015681Y004431D01*
X015931Y004181D01*
X016431Y004181D01*
X016681Y004431D01*
X016931Y004181D01*
X017431Y004181D01*
X017681Y004431D01*
X017931Y004181D01*
X018431Y004181D01*
X018681Y004431D01*
X018931Y004181D01*
X019431Y004181D01*
X019681Y004431D01*
X019931Y004181D01*
X020431Y004181D01*
X020681Y004431D01*
X020931Y004181D01*
X021431Y004181D01*
X021681Y004431D01*
X021931Y004181D01*
X022431Y004181D01*
X022681Y004431D01*
X022931Y004181D01*
X023431Y004181D01*
X023681Y004431D01*
X023931Y004181D01*
X024431Y004181D01*
X024681Y004431D01*
X024931Y004181D01*
X025431Y004181D01*
X025681Y004431D01*
X025931Y004181D01*
X026431Y004181D01*
X026681Y004431D01*
X026681Y005931D01*
X026431Y006181D01*
X025931Y006181D01*
X025681Y005931D01*
X025431Y006181D01*
X024931Y006181D01*
X024681Y005931D01*
X024431Y006181D01*
X023931Y006181D01*
X023681Y005931D01*
X023431Y006181D01*
X022931Y006181D01*
X022681Y005931D01*
X022431Y006181D01*
X021931Y006181D01*
X021681Y005931D01*
X021431Y006181D01*
X020931Y006181D01*
X020681Y005931D01*
X020431Y006181D01*
X019931Y006181D01*
X019681Y005931D01*
X019431Y006181D01*
X018931Y006181D01*
X018681Y005931D01*
X018431Y006181D01*
X017931Y006181D01*
X017681Y005931D01*
X017431Y006181D01*
X016931Y006181D01*
X016681Y005931D01*
X016431Y006181D01*
X015931Y006181D01*
X015681Y005931D01*
X015431Y006181D01*
X014931Y006181D01*
X014681Y005931D01*
X014431Y006181D01*
X013931Y006181D01*
X013681Y005931D01*
X013431Y006181D01*
X012931Y006181D01*
X012681Y005931D01*
X012431Y006181D01*
X011931Y006181D01*
X011681Y005931D01*
X011681Y004431D01*
X011821Y003992D02*
X011751Y003922D01*
X011821Y003992D02*
X011961Y003992D01*
X012031Y003922D01*
X012031Y003852D01*
X011961Y003782D01*
X012031Y003712D01*
X012031Y003641D01*
X011961Y003571D01*
X011821Y003571D01*
X011751Y003641D01*
X011891Y003782D02*
X011961Y003782D01*
X012211Y003922D02*
X012211Y003641D01*
X012491Y003922D01*
X012491Y003641D01*
X012421Y003571D01*
X012281Y003571D01*
X012211Y003641D01*
X012211Y003922D02*
X012281Y003992D01*
X012421Y003992D01*
X012491Y003922D01*
X012534Y002217D02*
X012534Y001796D01*
X012394Y001796D02*
X012675Y001796D01*
X012855Y001796D02*
X013135Y002077D01*
X013135Y002147D01*
X013065Y002217D01*
X012925Y002217D01*
X012855Y002147D01*
X012534Y002217D02*
X012394Y002077D01*
X012214Y002147D02*
X012214Y002007D01*
X012144Y001937D01*
X011934Y001937D01*
X012074Y001937D02*
X012214Y001796D01*
X011934Y001796D02*
X011934Y002217D01*
X012144Y002217D01*
X012214Y002147D01*
X012855Y001796D02*
X013135Y001796D01*
X014509Y001796D02*
X014509Y002217D01*
X014719Y002217D01*
X014789Y002147D01*
X014789Y002007D01*
X014719Y001937D01*
X014509Y001937D01*
X014649Y001937D02*
X014789Y001796D01*
X014969Y001796D02*
X015250Y001796D01*
X015109Y001796D02*
X015109Y002217D01*
X014969Y002077D01*
X015430Y002077D02*
X015500Y002007D01*
X015710Y002007D01*
X015710Y002147D02*
X015640Y002217D01*
X015500Y002217D01*
X015430Y002147D01*
X015430Y002077D01*
X015430Y001866D02*
X015500Y001796D01*
X015640Y001796D01*
X015710Y001866D01*
X015710Y002147D01*
X017946Y002279D02*
X017946Y001859D01*
X017946Y001999D02*
X018157Y001999D01*
X018227Y002069D01*
X018227Y002209D01*
X018157Y002279D01*
X017946Y002279D01*
X018087Y001999D02*
X018227Y001859D01*
X018407Y001859D02*
X018687Y001859D01*
X018547Y001859D02*
X018547Y002279D01*
X018407Y002139D01*
X018867Y002139D02*
X018867Y002209D01*
X018937Y002279D01*
X019077Y002279D01*
X019147Y002209D01*
X019147Y002139D01*
X019077Y002069D01*
X018937Y002069D01*
X018867Y002139D01*
X018937Y002069D02*
X018867Y001999D01*
X018867Y001929D01*
X018937Y001859D01*
X019077Y001859D01*
X019147Y001929D01*
X019147Y001999D01*
X019077Y002069D01*
X019846Y002959D02*
X019846Y003379D01*
X020057Y003379D01*
X020127Y003309D01*
X020127Y003169D01*
X020057Y003099D01*
X019846Y003099D01*
X019987Y003099D02*
X020127Y002959D01*
X020307Y002959D02*
X020587Y002959D01*
X020447Y002959D02*
X020447Y003379D01*
X020307Y003239D01*
X020767Y003309D02*
X020767Y003029D01*
X021047Y003309D01*
X021047Y003029D01*
X020977Y002959D01*
X020837Y002959D01*
X020767Y003029D01*
X020767Y003309D02*
X020837Y003379D01*
X020977Y003379D01*
X021047Y003309D01*
X021671Y003379D02*
X021671Y002959D01*
X021671Y003099D02*
X021882Y003099D01*
X021952Y003169D01*
X021952Y003309D01*
X021882Y003379D01*
X021671Y003379D01*
X021812Y003099D02*
X021952Y002959D01*
X022132Y002959D02*
X022412Y003239D01*
X022412Y003309D01*
X022342Y003379D01*
X022202Y003379D01*
X022132Y003309D01*
X022132Y002959D02*
X022412Y002959D01*
X025801Y003641D02*
X025871Y003571D01*
X025941Y003571D01*
X026011Y003641D01*
X026011Y003992D01*
X025941Y003992D02*
X026081Y003992D01*
X026261Y003852D02*
X026401Y003992D01*
X026401Y003571D01*
X026261Y003571D02*
X026541Y003571D01*
X026191Y006371D02*
X025911Y006371D01*
X026051Y006371D02*
X026051Y006792D01*
X025911Y006652D01*
X025674Y006575D02*
X025674Y006989D01*
X025571Y007092D01*
X025261Y007092D01*
X025261Y006471D01*
X025571Y006471D01*
X025674Y006575D01*
X025030Y006471D02*
X025030Y007092D01*
X024931Y007294D02*
X024681Y007544D01*
X024431Y007294D01*
X023931Y007294D01*
X023681Y007544D01*
X023681Y008044D01*
X023931Y008294D01*
X024431Y008294D01*
X024681Y008044D01*
X024931Y008294D01*
X025431Y008294D01*
X025681Y008044D01*
X025931Y008294D01*
X026431Y008294D01*
X026681Y008044D01*
X026681Y007544D01*
X026431Y007294D01*
X025931Y007294D01*
X025681Y007544D01*
X025431Y007294D01*
X024931Y007294D01*
X024616Y007092D02*
X025030Y006471D01*
X024616Y006471D02*
X024616Y007092D01*
X024385Y006989D02*
X024282Y007092D01*
X024075Y007092D01*
X023971Y006989D01*
X023971Y006575D01*
X024075Y006471D01*
X024282Y006471D01*
X024385Y006575D01*
X024385Y006782D01*
X024178Y006782D01*
X023502Y007584D02*
X023221Y007584D01*
X023362Y007584D02*
X023362Y008004D01*
X023221Y007864D01*
X023337Y008659D02*
X023057Y008659D01*
X023057Y009079D01*
X023337Y009079D01*
X023517Y009079D02*
X023727Y009079D01*
X023797Y009009D01*
X023797Y008729D01*
X023727Y008659D01*
X023517Y008659D01*
X023517Y009079D01*
X023197Y008869D02*
X023057Y008869D01*
X022877Y008659D02*
X022596Y008659D01*
X022596Y009079D01*
X022631Y009471D02*
X022491Y009612D01*
X022561Y009612D02*
X022351Y009612D01*
X022351Y009471D02*
X022351Y009892D01*
X022561Y009892D01*
X022631Y009822D01*
X022631Y009682D01*
X022561Y009612D01*
X022811Y009752D02*
X022951Y009892D01*
X022951Y009471D01*
X022811Y009471D02*
X023091Y009471D01*
X023978Y008939D02*
X024118Y009079D01*
X024118Y008659D01*
X023978Y008659D02*
X024258Y008659D01*
X022141Y008684D02*
X021861Y008684D01*
X022001Y008684D02*
X022001Y009104D01*
X021861Y008964D01*
X021681Y008964D02*
X021681Y009034D01*
X021611Y009104D01*
X021471Y009104D01*
X021401Y009034D01*
X021221Y009034D02*
X021221Y008894D01*
X021150Y008824D01*
X020940Y008824D01*
X020940Y008684D02*
X020940Y009104D01*
X021150Y009104D01*
X021221Y009034D01*
X021080Y008824D02*
X021221Y008684D01*
X021401Y008684D02*
X021681Y008964D01*
X021681Y008684D02*
X021401Y008684D01*
X020341Y009641D02*
X020341Y009922D01*
X020271Y009992D01*
X020131Y009992D01*
X020061Y009922D01*
X020061Y009852D01*
X020131Y009782D01*
X020341Y009782D01*
X020341Y009641D02*
X020271Y009571D01*
X020131Y009571D01*
X020061Y009641D01*
X019811Y009641D02*
X019811Y009992D01*
X019741Y009992D02*
X019881Y009992D01*
X019931Y010181D02*
X019681Y010431D01*
X019431Y010181D01*
X018931Y010181D01*
X018681Y010431D01*
X018681Y010931D01*
X018931Y011181D01*
X019431Y011181D01*
X019681Y010931D01*
X019931Y011181D01*
X020431Y011181D01*
X020681Y010931D01*
X020931Y011181D01*
X021431Y011181D01*
X021681Y010931D01*
X021681Y010431D01*
X021431Y010181D01*
X020931Y010181D01*
X020681Y010431D01*
X020431Y010181D01*
X019931Y010181D01*
X019811Y009641D02*
X019741Y009571D01*
X019671Y009571D01*
X019601Y009641D01*
X018391Y009422D02*
X018391Y009352D01*
X018321Y009282D01*
X018181Y009282D01*
X018111Y009352D01*
X018111Y009422D01*
X018181Y009492D01*
X018321Y009492D01*
X018391Y009422D01*
X018321Y009282D02*
X018391Y009212D01*
X018391Y009141D01*
X018321Y009071D01*
X018181Y009071D01*
X018111Y009141D01*
X018111Y009212D01*
X018181Y009282D01*
X017931Y009282D02*
X017861Y009212D01*
X017651Y009212D01*
X017791Y009212D02*
X017931Y009071D01*
X017931Y009282D02*
X017931Y009422D01*
X017861Y009492D01*
X017651Y009492D01*
X017651Y009071D01*
X020051Y011681D02*
X020051Y015681D01*
X020061Y015681D02*
X020481Y015681D01*
X020881Y015681D01*
X021301Y015681D01*
X021324Y015679D01*
X021347Y015674D01*
X021369Y015665D01*
X021389Y015652D01*
X021407Y015637D01*
X021422Y015619D01*
X021435Y015599D01*
X021444Y015577D01*
X021449Y015554D01*
X021451Y015531D01*
X021451Y011831D01*
X021449Y011808D01*
X021444Y011785D01*
X021435Y011763D01*
X021422Y011743D01*
X021407Y011725D01*
X021389Y011710D01*
X021369Y011697D01*
X021347Y011688D01*
X021324Y011683D01*
X021301Y011681D01*
X020061Y011681D01*
X020038Y011683D01*
X020015Y011688D01*
X019993Y011697D01*
X019973Y011710D01*
X019955Y011725D01*
X019940Y011743D01*
X019927Y011763D01*
X019918Y011785D01*
X019913Y011808D01*
X019911Y011831D01*
X019911Y015531D01*
X019913Y015554D01*
X019918Y015577D01*
X019927Y015599D01*
X019940Y015619D01*
X019955Y015637D01*
X019973Y015652D01*
X019993Y015665D01*
X020015Y015674D01*
X020038Y015679D01*
X020061Y015681D01*
X019762Y015871D02*
X019482Y015871D01*
X019622Y015871D02*
X019622Y016292D01*
X019482Y016152D01*
X019302Y016292D02*
X019302Y015941D01*
X019232Y015871D01*
X019091Y015871D01*
X019021Y015941D01*
X019021Y016292D01*
X020371Y016791D02*
X020371Y017072D01*
X020441Y017142D01*
X020582Y017142D01*
X020652Y017072D01*
X020832Y017072D02*
X020902Y017142D01*
X021042Y017142D01*
X021112Y017072D01*
X021112Y017002D01*
X020832Y016721D01*
X021112Y016721D01*
X020652Y016791D02*
X020582Y016721D01*
X020441Y016721D01*
X020371Y016791D01*
X020481Y015681D02*
X020483Y015654D01*
X020488Y015627D01*
X020498Y015601D01*
X020510Y015577D01*
X020526Y015555D01*
X020544Y015535D01*
X020566Y015518D01*
X020589Y015503D01*
X020614Y015493D01*
X020640Y015485D01*
X020667Y015481D01*
X020695Y015481D01*
X020722Y015485D01*
X020748Y015493D01*
X020773Y015503D01*
X020796Y015518D01*
X020818Y015535D01*
X020836Y015555D01*
X020852Y015577D01*
X020864Y015601D01*
X020874Y015627D01*
X020879Y015654D01*
X020881Y015681D01*
X023751Y013272D02*
X023821Y013342D01*
X023961Y013342D01*
X024031Y013272D01*
X024211Y013342D02*
X024211Y013132D01*
X024351Y013202D01*
X024421Y013202D01*
X024491Y013132D01*
X024491Y012991D01*
X024421Y012921D01*
X024281Y012921D01*
X024211Y012991D01*
X024031Y012991D02*
X023961Y012921D01*
X023821Y012921D01*
X023751Y012991D01*
X023751Y013272D01*
X024211Y013342D02*
X024491Y013342D01*
X024181Y012697D02*
X024181Y012449D01*
X024300Y012575D02*
X024051Y012575D01*
X023637Y011826D02*
X023637Y010537D01*
X024726Y010537D02*
X024726Y011826D01*
X025271Y011991D02*
X025341Y011921D01*
X025482Y011921D01*
X025552Y011991D01*
X025732Y012132D02*
X026012Y012132D01*
X025942Y012342D02*
X025942Y011921D01*
X025732Y012132D02*
X025942Y012342D01*
X025552Y012272D02*
X025482Y012342D01*
X025341Y012342D01*
X025271Y012272D01*
X025271Y011991D01*
X027049Y009029D02*
X027189Y009029D01*
X027119Y009029D02*
X027119Y008679D01*
X027049Y008609D01*
X026979Y008609D01*
X026909Y008679D01*
X027369Y008609D02*
X027650Y008889D01*
X027650Y008959D01*
X027579Y009029D01*
X027439Y009029D01*
X027369Y008959D01*
X027369Y008609D02*
X027650Y008609D01*
X027741Y007154D02*
X028051Y007154D01*
X028155Y007051D01*
X028155Y006637D01*
X028051Y006534D01*
X027741Y006534D01*
X027741Y007154D01*
X027510Y007051D02*
X027407Y007154D01*
X027200Y007154D01*
X027096Y007051D01*
X027096Y006948D01*
X027200Y006844D01*
X027407Y006844D01*
X027510Y006741D01*
X027510Y006637D01*
X027407Y006534D01*
X027200Y006534D01*
X027096Y006637D01*
X028386Y006534D02*
X028386Y006948D01*
X028592Y007154D01*
X028799Y006948D01*
X028799Y006534D01*
X028799Y006844D02*
X028386Y006844D01*
X031681Y005931D02*
X031681Y004431D01*
X031931Y004181D01*
X032431Y004181D01*
X032681Y004431D01*
X032931Y004181D01*
X033431Y004181D01*
X033681Y004431D01*
X033931Y004181D01*
X034431Y004181D01*
X034681Y004431D01*
X034931Y004181D01*
X035431Y004181D01*
X035681Y004431D01*
X035931Y004181D01*
X036431Y004181D01*
X036681Y004431D01*
X036681Y005931D01*
X036431Y006181D01*
X035931Y006181D01*
X035681Y005931D01*
X035431Y006181D01*
X034931Y006181D01*
X034681Y005931D01*
X034431Y006181D01*
X033931Y006181D01*
X033681Y005931D01*
X033431Y006181D01*
X032931Y006181D01*
X032681Y005931D01*
X032431Y006181D01*
X031931Y006181D01*
X031681Y005931D01*
X031884Y007684D02*
X031884Y008104D01*
X032094Y008104D01*
X032164Y008034D01*
X032164Y007894D01*
X032094Y007824D01*
X031884Y007824D01*
X032024Y007824D02*
X032164Y007684D01*
X032344Y007684D02*
X032624Y007684D01*
X032484Y007684D02*
X032484Y008104D01*
X032344Y007964D01*
X032805Y007894D02*
X033015Y008104D01*
X033015Y007684D01*
X033085Y007894D02*
X032805Y007894D01*
X033721Y007812D02*
X033932Y007812D01*
X034002Y007882D01*
X034002Y008022D01*
X033932Y008092D01*
X033721Y008092D01*
X033721Y007671D01*
X033862Y007812D02*
X034002Y007671D01*
X034182Y007671D02*
X034462Y007671D01*
X034322Y007671D02*
X034322Y008092D01*
X034182Y007952D01*
X034642Y008022D02*
X034712Y008092D01*
X034852Y008092D01*
X034922Y008022D01*
X034922Y007952D01*
X034852Y007882D01*
X034922Y007812D01*
X034922Y007741D01*
X034852Y007671D01*
X034712Y007671D01*
X034642Y007741D01*
X034782Y007882D02*
X034852Y007882D01*
X035961Y006652D02*
X036101Y006792D01*
X036101Y006371D01*
X035961Y006371D02*
X036241Y006371D01*
X038021Y006172D02*
X038091Y006172D01*
X038371Y005892D01*
X038441Y005892D01*
X038441Y005712D02*
X038441Y005432D01*
X038441Y005572D02*
X038021Y005572D01*
X038161Y005432D01*
X038091Y005252D02*
X038231Y005252D01*
X038301Y005182D01*
X038301Y004971D01*
X038441Y004971D02*
X038021Y004971D01*
X038021Y005182D01*
X038091Y005252D01*
X038301Y005112D02*
X038441Y005252D01*
X038021Y005892D02*
X038021Y006172D01*
X036541Y003992D02*
X036261Y003992D01*
X036261Y003782D01*
X036401Y003852D01*
X036471Y003852D01*
X036541Y003782D01*
X036541Y003641D01*
X036471Y003571D01*
X036331Y003571D01*
X036261Y003641D01*
X036011Y003641D02*
X036011Y003992D01*
X035941Y003992D02*
X036081Y003992D01*
X036011Y003641D02*
X035941Y003571D01*
X035871Y003571D01*
X035801Y003641D01*
X032241Y003641D02*
X032171Y003571D01*
X032031Y003571D01*
X031961Y003641D01*
X032241Y003922D01*
X032241Y003641D01*
X031961Y003641D02*
X031961Y003922D01*
X032031Y003992D01*
X032171Y003992D01*
X032241Y003922D01*
X031781Y003571D02*
X031501Y003571D01*
X031641Y003571D02*
X031641Y003992D01*
X031501Y003852D01*
X034951Y009821D02*
X034951Y010242D01*
X035161Y010242D01*
X035231Y010172D01*
X035231Y010032D01*
X035161Y009962D01*
X034951Y009962D01*
X035091Y009962D02*
X035231Y009821D01*
X035411Y009891D02*
X035481Y009821D01*
X035621Y009821D01*
X035691Y009891D01*
X035691Y009962D01*
X035621Y010032D01*
X035551Y010032D01*
X035621Y010032D02*
X035691Y010102D01*
X035691Y010172D01*
X035621Y010242D01*
X035481Y010242D01*
X035411Y010172D01*
X033712Y011691D02*
X033642Y011621D01*
X033502Y011621D01*
X033432Y011691D01*
X033252Y011691D02*
X033252Y012042D01*
X033432Y011972D02*
X033502Y012042D01*
X033642Y012042D01*
X033712Y011972D01*
X033712Y011902D01*
X033642Y011832D01*
X033712Y011762D01*
X033712Y011691D01*
X033642Y011832D02*
X033572Y011832D01*
X033252Y011691D02*
X033182Y011621D01*
X033041Y011621D01*
X032971Y011691D01*
X032971Y012042D01*
X032649Y012449D02*
X031114Y012449D01*
X031114Y010914D01*
X032649Y010914D01*
X032649Y012449D01*
X032702Y012561D02*
X032704Y012576D01*
X032710Y012590D01*
X032719Y012603D01*
X032731Y012612D01*
X032746Y012618D01*
X032761Y012620D01*
X032776Y012618D01*
X032790Y012612D01*
X032803Y012603D01*
X032812Y012591D01*
X032818Y012576D01*
X032820Y012561D01*
X032818Y012546D01*
X032812Y012532D01*
X032803Y012519D01*
X032791Y012510D01*
X032776Y012504D01*
X032761Y012502D01*
X032746Y012504D01*
X032732Y012510D01*
X032719Y012519D01*
X032710Y012531D01*
X032704Y012546D01*
X032702Y012561D01*
X031612Y013621D02*
X031332Y013621D01*
X031472Y013621D02*
X031472Y014042D01*
X031332Y013902D01*
X031152Y013972D02*
X031082Y014042D01*
X030941Y014042D01*
X030871Y013972D01*
X030871Y013691D01*
X030941Y013621D01*
X031082Y013621D01*
X031152Y013691D01*
X029612Y013792D02*
X029472Y013722D01*
X029332Y013582D01*
X029542Y013582D01*
X029612Y013512D01*
X029612Y013441D01*
X029542Y013371D01*
X029402Y013371D01*
X029332Y013441D01*
X029332Y013582D01*
X029152Y013582D02*
X029082Y013512D01*
X028871Y013512D01*
X029012Y013512D02*
X029152Y013371D01*
X029152Y013582D02*
X029152Y013722D01*
X029082Y013792D01*
X028871Y013792D01*
X028871Y013371D01*
X028961Y010992D02*
X029031Y010922D01*
X029031Y010782D01*
X028961Y010712D01*
X028751Y010712D01*
X028891Y010712D02*
X029031Y010571D01*
X029211Y010641D02*
X029281Y010571D01*
X029421Y010571D01*
X029491Y010641D01*
X029491Y010782D01*
X029421Y010852D01*
X029351Y010852D01*
X029211Y010782D01*
X029211Y010992D01*
X029491Y010992D01*
X028961Y010992D02*
X028751Y010992D01*
X028751Y010571D01*
X033271Y014471D02*
X033271Y014892D01*
X033482Y014892D01*
X033552Y014822D01*
X033552Y014682D01*
X033482Y014612D01*
X033271Y014612D01*
X033412Y014612D02*
X033552Y014471D01*
X033732Y014471D02*
X033732Y014541D01*
X034012Y014822D01*
X034012Y014892D01*
X033732Y014892D01*
X034671Y014292D02*
X034882Y014292D01*
X034952Y014222D01*
X034952Y014082D01*
X034882Y014012D01*
X034671Y014012D01*
X034812Y014012D02*
X034952Y013871D01*
X035132Y014082D02*
X035412Y014082D01*
X035342Y014292D02*
X035132Y014082D01*
X035342Y014292D02*
X035342Y013871D01*
X035771Y013392D02*
X035982Y013392D01*
X036052Y013322D01*
X036052Y013182D01*
X035982Y013112D01*
X035771Y013112D01*
X035912Y013112D02*
X036052Y012971D01*
X036232Y013041D02*
X036302Y012971D01*
X036442Y012971D01*
X036512Y013041D01*
X036512Y013322D01*
X036442Y013392D01*
X036302Y013392D01*
X036232Y013322D01*
X036232Y013252D01*
X036302Y013182D01*
X036512Y013182D01*
X035771Y012971D02*
X035771Y013392D01*
X034671Y013871D02*
X034671Y014292D01*
X033181Y016281D02*
X033181Y017781D01*
X033261Y018321D02*
X033541Y018321D01*
X033401Y018321D02*
X033401Y018742D01*
X033261Y018602D01*
X032931Y018531D02*
X032681Y019031D01*
X032431Y018531D01*
X031791Y019621D02*
X031511Y019621D01*
X031791Y019902D01*
X031791Y019972D01*
X031721Y020042D01*
X031581Y020042D01*
X031511Y019972D01*
X031191Y020042D02*
X031191Y019621D01*
X031051Y019621D02*
X031331Y019621D01*
X031051Y019902D02*
X031191Y020042D01*
X030871Y019972D02*
X030800Y020042D01*
X030660Y020042D01*
X030590Y019972D01*
X030590Y019691D01*
X030660Y019621D01*
X030800Y019621D01*
X030871Y019691D01*
X029971Y018742D02*
X029831Y018742D01*
X029761Y018672D01*
X029971Y018742D02*
X030041Y018672D01*
X030041Y018602D01*
X029761Y018321D01*
X030041Y018321D01*
X029581Y018321D02*
X029301Y018321D01*
X029441Y018321D02*
X029441Y018742D01*
X029301Y018602D01*
X029121Y018742D02*
X028980Y018742D01*
X029050Y018742D02*
X029050Y018391D01*
X028980Y018321D01*
X028910Y018321D01*
X028840Y018391D01*
X030181Y017781D02*
X030181Y016281D01*
X034101Y019641D02*
X034171Y019571D01*
X034311Y019571D01*
X034381Y019641D01*
X034381Y019992D01*
X034381Y020181D02*
X033981Y020181D01*
X033561Y020181D01*
X033538Y020183D01*
X033515Y020188D01*
X033493Y020197D01*
X033473Y020210D01*
X033455Y020225D01*
X033440Y020243D01*
X033427Y020263D01*
X033418Y020285D01*
X033413Y020308D01*
X033411Y020331D01*
X033411Y024031D01*
X033413Y024054D01*
X033418Y024077D01*
X033427Y024099D01*
X033440Y024119D01*
X033455Y024137D01*
X033473Y024152D01*
X033493Y024165D01*
X033515Y024174D01*
X033538Y024179D01*
X033561Y024181D01*
X034801Y024181D01*
X034811Y024181D02*
X034811Y020181D01*
X034801Y020181D02*
X034381Y020181D01*
X034379Y020208D01*
X034374Y020235D01*
X034364Y020261D01*
X034352Y020285D01*
X034336Y020307D01*
X034318Y020327D01*
X034296Y020344D01*
X034273Y020359D01*
X034248Y020369D01*
X034222Y020377D01*
X034195Y020381D01*
X034167Y020381D01*
X034140Y020377D01*
X034114Y020369D01*
X034089Y020359D01*
X034066Y020344D01*
X034044Y020327D01*
X034026Y020307D01*
X034010Y020285D01*
X033998Y020261D01*
X033988Y020235D01*
X033983Y020208D01*
X033981Y020181D01*
X034101Y019992D02*
X034101Y019641D01*
X034561Y019571D02*
X034841Y019852D01*
X034841Y019922D01*
X034771Y019992D01*
X034631Y019992D01*
X034561Y019922D01*
X034561Y019571D02*
X034841Y019571D01*
X034801Y020181D02*
X034824Y020183D01*
X034847Y020188D01*
X034869Y020197D01*
X034889Y020210D01*
X034907Y020225D01*
X034922Y020243D01*
X034935Y020263D01*
X034944Y020285D01*
X034949Y020308D01*
X034951Y020331D01*
X034951Y024031D01*
X034949Y024054D01*
X034944Y024077D01*
X034935Y024099D01*
X034922Y024119D01*
X034907Y024137D01*
X034889Y024152D01*
X034869Y024165D01*
X034847Y024174D01*
X034824Y024179D01*
X034801Y024181D01*
X036940Y023372D02*
X036940Y023091D01*
X037010Y023021D01*
X037150Y023021D01*
X037221Y023091D01*
X037401Y023021D02*
X037681Y023021D01*
X037541Y023021D02*
X037541Y023442D01*
X037401Y023302D01*
X037221Y023372D02*
X037150Y023442D01*
X037010Y023442D01*
X036940Y023372D01*
X037861Y023372D02*
X037861Y023091D01*
X038141Y023372D01*
X038141Y023091D01*
X038071Y023021D01*
X037931Y023021D01*
X037861Y023091D01*
X037861Y023372D02*
X037931Y023442D01*
X038071Y023442D01*
X038141Y023372D01*
X038152Y022442D02*
X038222Y022372D01*
X038222Y022302D01*
X038152Y022232D01*
X038222Y022162D01*
X038222Y022091D01*
X038152Y022021D01*
X038012Y022021D01*
X037942Y022091D01*
X037762Y022021D02*
X037482Y022021D01*
X037622Y022021D02*
X037622Y022442D01*
X037482Y022302D01*
X037302Y022372D02*
X037232Y022442D01*
X037091Y022442D01*
X037021Y022372D01*
X037021Y022091D01*
X037091Y022021D01*
X037232Y022021D01*
X037302Y022091D01*
X037942Y022372D02*
X038012Y022442D01*
X038152Y022442D01*
X038152Y022232D02*
X038082Y022232D01*
X038441Y021141D02*
X038441Y020861D01*
X038441Y021001D02*
X038021Y021001D01*
X038161Y020861D01*
X038441Y020681D02*
X038441Y020401D01*
X038441Y020541D02*
X038021Y020541D01*
X038161Y020401D01*
X038091Y020221D02*
X038021Y020150D01*
X038021Y020010D01*
X038091Y019940D01*
X038371Y019940D01*
X038441Y020010D01*
X038441Y020150D01*
X038371Y020221D01*
X036912Y019972D02*
X036912Y019691D01*
X036842Y019621D01*
X036702Y019621D01*
X036632Y019691D01*
X036702Y019832D02*
X036912Y019832D01*
X036912Y019972D02*
X036842Y020042D01*
X036702Y020042D01*
X036632Y019972D01*
X036632Y019902D01*
X036702Y019832D01*
X036452Y019972D02*
X036382Y020042D01*
X036241Y020042D01*
X036171Y019972D01*
X036171Y019691D01*
X036241Y019621D01*
X036382Y019621D01*
X036452Y019691D01*
X036791Y018142D02*
X036721Y018072D01*
X036721Y017791D01*
X036791Y017721D01*
X036932Y017721D01*
X037002Y017791D01*
X037002Y017932D01*
X036862Y017932D01*
X037002Y018072D02*
X036932Y018142D01*
X036791Y018142D01*
X037182Y018142D02*
X037182Y017721D01*
X037462Y017721D02*
X037182Y018142D01*
X037462Y018142D02*
X037462Y017721D01*
X037642Y017721D02*
X037852Y017721D01*
X037922Y017791D01*
X037922Y018072D01*
X037852Y018142D01*
X037642Y018142D01*
X037642Y017721D01*
X037631Y017281D02*
X037681Y017281D01*
X037681Y017081D01*
X037631Y017081D01*
X036731Y017081D02*
X036681Y017081D01*
X036681Y017281D01*
X036731Y017281D01*
X026784Y022618D02*
X026587Y022422D01*
X014815Y022422D01*
X014812Y022431D02*
X014581Y022681D01*
X014581Y028281D01*
X026781Y028281D01*
X026781Y022631D01*
X024961Y023681D02*
X024964Y023740D01*
X024972Y023799D01*
X024985Y023856D01*
X025004Y023913D01*
X025027Y023967D01*
X025056Y024019D01*
X025089Y024068D01*
X025126Y024114D01*
X025167Y024156D01*
X025212Y024194D01*
X025261Y024229D01*
X025312Y024258D01*
X025366Y024283D01*
X025421Y024303D01*
X025479Y024317D01*
X025537Y024327D01*
X025596Y024331D01*
X025655Y024329D01*
X025714Y024323D01*
X025772Y024311D01*
X025829Y024293D01*
X025883Y024271D01*
X025936Y024244D01*
X025986Y024212D01*
X026033Y024176D01*
X026076Y024135D01*
X026115Y024091D01*
X026150Y024044D01*
X026181Y023993D01*
X026207Y023940D01*
X026228Y023885D01*
X026244Y023828D01*
X026255Y023770D01*
X026260Y023711D01*
X026260Y023651D01*
X026255Y023592D01*
X026244Y023534D01*
X026228Y023477D01*
X026207Y023422D01*
X026181Y023369D01*
X026150Y023318D01*
X026115Y023271D01*
X026076Y023227D01*
X026033Y023186D01*
X025986Y023150D01*
X025936Y023118D01*
X025883Y023091D01*
X025829Y023069D01*
X025772Y023051D01*
X025714Y023039D01*
X025655Y023033D01*
X025596Y023031D01*
X025537Y023035D01*
X025479Y023045D01*
X025421Y023059D01*
X025366Y023079D01*
X025312Y023104D01*
X025261Y023133D01*
X025212Y023168D01*
X025167Y023206D01*
X025126Y023248D01*
X025089Y023294D01*
X025056Y023343D01*
X025027Y023395D01*
X025004Y023449D01*
X024985Y023506D01*
X024972Y023563D01*
X024964Y023622D01*
X024961Y023681D01*
X023742Y021542D02*
X023602Y021542D01*
X023532Y021472D01*
X023532Y021402D01*
X023602Y021332D01*
X023742Y021332D01*
X023812Y021262D01*
X023812Y021191D01*
X023742Y021121D01*
X023602Y021121D01*
X023532Y021191D01*
X023532Y021262D01*
X023602Y021332D01*
X023742Y021332D02*
X023812Y021402D01*
X023812Y021472D01*
X023742Y021542D01*
X023352Y021472D02*
X023282Y021542D01*
X023141Y021542D01*
X023071Y021472D01*
X023071Y021191D01*
X023141Y021121D01*
X023282Y021121D01*
X023352Y021191D01*
X023181Y020397D02*
X023181Y020149D01*
X023300Y020275D02*
X023051Y020275D01*
X022637Y019526D02*
X022637Y018237D01*
X023726Y018237D02*
X023726Y019526D01*
X024121Y019142D02*
X024051Y019072D01*
X024051Y018791D01*
X024121Y018721D01*
X024261Y018721D01*
X024331Y018791D01*
X024511Y018791D02*
X024791Y019072D01*
X024791Y019142D01*
X024511Y019142D01*
X024331Y019072D02*
X024261Y019142D01*
X024121Y019142D01*
X024511Y018791D02*
X024511Y018721D01*
X021200Y018179D02*
X019800Y018179D01*
X019800Y020759D01*
X021200Y020759D01*
X021200Y018179D01*
X019284Y020520D02*
X019284Y020941D01*
X019074Y020730D01*
X019354Y020730D01*
X018894Y020590D02*
X018894Y020941D01*
X018613Y020941D02*
X018613Y020590D01*
X018683Y020520D01*
X018823Y020520D01*
X018894Y020590D01*
X017372Y019692D02*
X017232Y019622D01*
X017092Y019482D01*
X017302Y019482D01*
X017372Y019412D01*
X017372Y019341D01*
X017302Y019271D01*
X017162Y019271D01*
X017092Y019341D01*
X017092Y019482D01*
X016912Y019271D02*
X016632Y019271D01*
X016772Y019271D02*
X016772Y019692D01*
X016632Y019552D01*
X016452Y019622D02*
X016452Y019482D01*
X016382Y019412D01*
X016171Y019412D01*
X016312Y019412D02*
X016452Y019271D01*
X016171Y019271D02*
X016171Y019692D01*
X016382Y019692D01*
X016452Y019622D01*
X015676Y021221D02*
X015469Y021221D01*
X015366Y021325D01*
X015366Y021428D01*
X015469Y021532D01*
X015676Y021532D01*
X015780Y021428D01*
X015780Y021325D01*
X015676Y021221D01*
X015676Y021532D02*
X015780Y021635D01*
X015780Y021739D01*
X015676Y021842D01*
X015469Y021842D01*
X015366Y021739D01*
X015366Y021635D01*
X015469Y021532D01*
X015135Y021842D02*
X014928Y021842D01*
X015032Y021842D02*
X015032Y021325D01*
X014928Y021221D01*
X014825Y021221D01*
X014721Y021325D01*
X015101Y023681D02*
X015104Y023740D01*
X015112Y023799D01*
X015125Y023856D01*
X015144Y023913D01*
X015167Y023967D01*
X015196Y024019D01*
X015229Y024068D01*
X015266Y024114D01*
X015307Y024156D01*
X015352Y024194D01*
X015401Y024229D01*
X015452Y024258D01*
X015506Y024283D01*
X015561Y024303D01*
X015619Y024317D01*
X015677Y024327D01*
X015736Y024331D01*
X015795Y024329D01*
X015854Y024323D01*
X015912Y024311D01*
X015969Y024293D01*
X016023Y024271D01*
X016076Y024244D01*
X016126Y024212D01*
X016173Y024176D01*
X016216Y024135D01*
X016255Y024091D01*
X016290Y024044D01*
X016321Y023993D01*
X016347Y023940D01*
X016368Y023885D01*
X016384Y023828D01*
X016395Y023770D01*
X016400Y023711D01*
X016400Y023651D01*
X016395Y023592D01*
X016384Y023534D01*
X016368Y023477D01*
X016347Y023422D01*
X016321Y023369D01*
X016290Y023318D01*
X016255Y023271D01*
X016216Y023227D01*
X016173Y023186D01*
X016126Y023150D01*
X016076Y023118D01*
X016023Y023091D01*
X015969Y023069D01*
X015912Y023051D01*
X015854Y023039D01*
X015795Y023033D01*
X015736Y023031D01*
X015677Y023035D01*
X015619Y023045D01*
X015561Y023059D01*
X015506Y023079D01*
X015452Y023104D01*
X015401Y023133D01*
X015352Y023168D01*
X015307Y023206D01*
X015266Y023248D01*
X015229Y023294D01*
X015196Y023343D01*
X015167Y023395D01*
X015144Y023449D01*
X015125Y023506D01*
X015112Y023563D01*
X015104Y023622D01*
X015101Y023681D01*
X013881Y023825D02*
X013778Y023721D01*
X013571Y023721D01*
X013467Y023825D01*
X013467Y023928D01*
X013571Y024032D01*
X013778Y024032D01*
X013881Y023928D01*
X013881Y023825D01*
X013778Y024032D02*
X013881Y024135D01*
X013881Y024239D01*
X013778Y024342D01*
X013571Y024342D01*
X013467Y024239D01*
X013467Y024135D01*
X013571Y024032D01*
X013237Y024239D02*
X012823Y023825D01*
X012926Y023721D01*
X013133Y023721D01*
X013237Y023825D01*
X013237Y024239D01*
X013133Y024342D01*
X012926Y024342D01*
X012823Y024239D01*
X012823Y023825D01*
X012592Y023825D02*
X012489Y023721D01*
X012282Y023721D01*
X012178Y023825D01*
X012592Y024239D01*
X012592Y023825D01*
X012592Y024239D02*
X012489Y024342D01*
X012282Y024342D01*
X012178Y024239D01*
X012178Y023825D01*
X011948Y023721D02*
X011534Y023721D01*
X011948Y024135D01*
X011948Y024239D01*
X011844Y024342D01*
X011637Y024342D01*
X011534Y024239D01*
X013341Y014342D02*
X013271Y014272D01*
X013271Y013991D01*
X013341Y013921D01*
X013482Y013921D01*
X013552Y013991D01*
X013732Y013991D02*
X013802Y013921D01*
X013942Y013921D01*
X014012Y013991D01*
X014012Y014062D01*
X013942Y014132D01*
X013872Y014132D01*
X013942Y014132D02*
X014012Y014202D01*
X014012Y014272D01*
X013942Y014342D01*
X013802Y014342D01*
X013732Y014272D01*
X013552Y014272D02*
X013482Y014342D01*
X013341Y014342D01*
X013272Y009192D02*
X012992Y009192D01*
X012992Y008982D01*
X013132Y009052D01*
X013202Y009052D01*
X013272Y008982D01*
X013272Y008841D01*
X013202Y008771D01*
X013062Y008771D01*
X012992Y008841D01*
X012812Y008771D02*
X012532Y008771D01*
X012672Y008771D02*
X012672Y009192D01*
X012532Y009052D01*
X012352Y009122D02*
X012352Y008982D01*
X012282Y008912D01*
X012071Y008912D01*
X012212Y008912D02*
X012352Y008771D01*
X012071Y008771D02*
X012071Y009192D01*
X012282Y009192D01*
X012352Y009122D01*
X021284Y006989D02*
X021284Y006885D01*
X021387Y006782D01*
X021594Y006782D01*
X021698Y006678D01*
X021698Y006575D01*
X021594Y006471D01*
X021387Y006471D01*
X021284Y006575D01*
X021284Y006989D02*
X021387Y007092D01*
X021594Y007092D01*
X021698Y006989D01*
X021929Y006989D02*
X021929Y006575D01*
X022032Y006471D01*
X022239Y006471D01*
X022342Y006575D01*
X022573Y006471D02*
X022987Y006471D01*
X022573Y006471D02*
X022573Y007092D01*
X022342Y006989D02*
X022239Y007092D01*
X022032Y007092D01*
X021929Y006989D01*
X021901Y010471D02*
X021901Y010892D01*
X021761Y010752D01*
X021761Y010471D02*
X022041Y010471D01*
D11*
X022534Y007810D03*
X022829Y007810D03*
D12*
X022681Y007810D03*
M02*
