<?xml version="1.0" encoding="UTF-8" standalone="no"?>
<!-- Created with Inkscape (http://www.inkscape.org/) -->
<svg
   xmlns:dc="http://purl.org/dc/elements/1.1/"
   xmlns:cc="http://web.resource.org/cc/"
   xmlns:rdf="http://www.w3.org/1999/02/22-rdf-syntax-ns#"
   xmlns:svg="http://www.w3.org/2000/svg"
   xmlns="http://www.w3.org/2000/svg"
   xmlns:sodipodi="http://sodipodi.sourceforge.net/DTD/sodipodi-0.dtd"
   xmlns:inkscape="http://www.inkscape.org/namespaces/inkscape"
   width="550"
   height="125"
   id="svg2"
   sodipodi:version="0.32"
   inkscape:version="0.45.1"
   version="1.0"
   sodipodi:docbase="C:\Documents and Settings\JJB\My Documents\My Pictures\Electronics\Illustrations\Maths"
   sodipodi:docname="Galois LFSR.svg"
   inkscape:output_extension="org.inkscape.output.svg.inkscape">
  <sodipodi:namedview
     id="base"
     pagecolor="#ffffff"
     bordercolor="#666666"
     borderopacity="1.0"
     gridtolerance="10000"
     guidetolerance="10"
     objecttolerance="10"
     inkscape:pageopacity="0.0"
     inkscape:pageshadow="2"
     inkscape:zoom="1"
     inkscape:cx="275"
     inkscape:cy="62.5"
     inkscape:document-units="px"
     inkscape:current-layer="layer1"
     showgrid="false"
     gridspacingx="5px"
     gridspacingy="5px"
     width="550px"
     height="125px"
     inkscape:grid-points="true"
     gridempspacing="5"
     inkscape:window-width="1382"
     inkscape:window-height="874"
     inkscape:window-x="54"
     inkscape:window-y="-4"
     showguides="true" />
  <defs
     id="defs4" />
  <metadata
     id="metadata7">
    <rdf:RDF>
      <cc:Work
         rdf:about="">
        <dc:format>image/svg+xml</dc:format>
        <dc:type
           rdf:resource="http://purl.org/dc/dcmitype/StillImage" />
      </cc:Work>
    </rdf:RDF>
  </metadata>
  <g
     inkscape:label="Layer 1"
     id="layer1"
     inkscape:groupmode="layer">
    <path
       style="fill:#000000;fill-rule:evenodd;stroke:#000000;stroke-width:1.00000012px;stroke-linecap:butt;stroke-linejoin:miter;stroke-opacity:1"
       d="M 200.00001,95.5 L 198,100.52263 L 202.00001,100.52263 L 200.00001,95.5"
       id="path6678" />
    <path
       style="fill:none;fill-rule:evenodd;stroke:#000000;stroke-width:2;stroke-linecap:butt;stroke-linejoin:miter;stroke-opacity:1"
       d="M 200,110 L 200,95"
       id="path6672" />
    <path
       style="fill:#000000;fill-rule:evenodd;stroke:#000000;stroke-width:1.00000012px;stroke-linecap:butt;stroke-linejoin:miter;stroke-opacity:1"
       d="M 125,95.5 L 122.99999,100.52263 L 127,100.52263 L 125,95.5"
       id="path6676" />
    <path
       style="fill:none;fill-rule:evenodd;stroke:#000000;stroke-width:2;stroke-linecap:butt;stroke-linejoin:miter;stroke-opacity:1"
       d="M 125,110 L 125,95"
       id="path6668" />
    <rect
       style="opacity:1;fill:#4682b4;fill-opacity:1;fill-rule:nonzero;stroke:none;stroke-width:2;stroke-linecap:butt;stroke-miterlimit:4;stroke-dasharray:none;stroke-dashoffset:0;stroke-opacity:1"
       id="rect6573"
       width="25"
       y="25"
       x="450"
       height="40" />
    <rect
       style="opacity:1;fill:#4682b4;fill-opacity:1;fill-rule:nonzero;stroke:none;stroke-width:2;stroke-linecap:butt;stroke-miterlimit:4;stroke-dasharray:none;stroke-dashoffset:0;stroke-opacity:1"
       id="rect6571"
       width="25"
       y="25"
       x="100"
       height="40" />
    <rect
       style="opacity:1;fill:#4682b4;fill-opacity:1;fill-rule:nonzero;stroke:none;stroke-width:2;stroke-linecap:butt;stroke-miterlimit:4;stroke-dasharray:none;stroke-dashoffset:0;stroke-opacity:1"
       id="rect6545"
       width="25"
       y="25"
       x="125"
       height="40" />
    <rect
       style="opacity:1;fill:#4682b4;fill-opacity:1;fill-rule:nonzero;stroke:none;stroke-width:2;stroke-linecap:butt;stroke-miterlimit:4;stroke-dasharray:none;stroke-dashoffset:0;stroke-opacity:1"
       id="rect6543"
       width="25"
       y="25"
       x="175"
       height="40" />
    <path
       style="fill:none;fill-rule:evenodd;stroke:#000000;stroke-width:2;stroke-linecap:butt;stroke-linejoin:miter;stroke-opacity:1"
       d="M 100,24.992073 L 100,64.669621"
       id="path6517" />
    <path
       style="fill:none;fill-rule:evenodd;stroke:#000000;stroke-width:2;stroke-linecap:butt;stroke-linejoin:miter;stroke-opacity:1"
       d="M 150,24.822452 L 150,64.5"
       id="path6519" />
    <path
       style="fill:none;fill-rule:evenodd;stroke:#000000;stroke-width:2;stroke-linecap:butt;stroke-linejoin:miter;stroke-opacity:1"
       d="M 175,25.322452 L 175,65"
       id="path6533" />
    <path
       style="fill:none;fill-rule:evenodd;stroke:#000000;stroke-width:2;stroke-linecap:butt;stroke-linejoin:miter;stroke-opacity:1"
       d="M 125,25 L 125,64.677548"
       id="path6541" />
    <path
       style="fill:none;fill-rule:evenodd;stroke:#000000;stroke-width:2;stroke-linecap:butt;stroke-linejoin:miter;stroke-opacity:1"
       d="M 200,24.992073 L 200,64.669621"
       id="path6547" />
    <path
       style="fill:none;fill-rule:evenodd;stroke:#000000;stroke-width:2;stroke-linecap:butt;stroke-linejoin:miter;stroke-opacity:1"
       d="M 250,24.822452 L 250,64.5"
       id="path6549" />
    <path
       style="fill:none;fill-rule:evenodd;stroke:#000000;stroke-width:2;stroke-linecap:butt;stroke-linejoin:miter;stroke-opacity:1"
       d="M 275,25.322452 L 275,65"
       id="path6551" />
    <path
       style="fill:none;fill-rule:evenodd;stroke:#000000;stroke-width:2;stroke-linecap:butt;stroke-linejoin:miter;stroke-opacity:1"
       d="M 225,25 L 225,64.677548"
       id="path6553" />
    <path
       style="fill:none;fill-rule:evenodd;stroke:#000000;stroke-width:2;stroke-linecap:butt;stroke-linejoin:miter;stroke-opacity:1"
       d="M 300,25.169621 L 300,64.847169"
       id="path6555" />
    <path
       style="fill:none;fill-rule:evenodd;stroke:#000000;stroke-width:2;stroke-linecap:butt;stroke-linejoin:miter;stroke-opacity:1"
       d="M 350,25 L 350,64.677548"
       id="path6557" />
    <path
       style="fill:none;fill-rule:evenodd;stroke:#000000;stroke-width:2;stroke-linecap:butt;stroke-linejoin:miter;stroke-opacity:1"
       d="M 375,25.5 L 375,65.177548"
       id="path6559" />
    <path
       style="fill:none;fill-rule:evenodd;stroke:#000000;stroke-width:2;stroke-linecap:butt;stroke-linejoin:miter;stroke-opacity:1"
       d="M 325,25.177548 L 325,64.855096"
       id="path6561" />
    <path
       style="fill:none;fill-rule:evenodd;stroke:#000000;stroke-width:2;stroke-linecap:butt;stroke-linejoin:miter;stroke-opacity:1"
       d="M 400,25.169621 L 400,64.847168"
       id="path6563" />
    <path
       style="fill:none;fill-rule:evenodd;stroke:#000000;stroke-width:2;stroke-linecap:butt;stroke-linejoin:miter;stroke-opacity:1"
       d="M 450,25 L 450,64.677548"
       id="path6565" />
    <path
       style="fill:none;fill-rule:evenodd;stroke:#000000;stroke-width:2;stroke-linecap:butt;stroke-linejoin:miter;stroke-opacity:1"
       d="M 425,25.177548 L 425,64.855098"
       id="path6569" />
    <path
       style="fill:#000000;fill-rule:evenodd;stroke:#000000;stroke-width:2;stroke-linecap:butt;stroke-linejoin:miter;stroke-opacity:1"
       d="M 115,65 L 120,75"
       id="path6596" />
    <path
       style="fill:#000000;fill-rule:evenodd;stroke:#000000;stroke-width:0.99999994px;stroke-linecap:butt;stroke-linejoin:miter;stroke-opacity:1"
       d="M 118.66692,72.412875 L 116.87814,73.307455 L 120.79688,76.67187 L 120.4557,71.518295 L 118.66692,72.412875 z "
       id="path6604" />
    <rect
       style="opacity:1;fill:none;fill-opacity:1;fill-rule:nonzero;stroke:#000000;stroke-width:1.99999976;stroke-linecap:butt;stroke-miterlimit:4;stroke-dasharray:none;stroke-dashoffset:0;stroke-opacity:1"
       id="rect6513"
       width="400"
       y="24.980446"
       x="75.05249"
       height="40.01955" />
    <g
       id="g6660"
       transform="matrix(-1,0,0,-1,239.20313,167.17187)">
      <path
         style="fill:#000000;fill-rule:evenodd;stroke:#000000;stroke-width:2;stroke-linecap:butt;stroke-linejoin:miter;stroke-opacity:1"
         id="path6612"
         d="M 110,90 L 105,100" />
      <path
         style="fill:#000000;fill-rule:evenodd;stroke:#000000;stroke-width:0.99999994px;stroke-linecap:butt;stroke-linejoin:miter;stroke-opacity:1"
         id="path6614"
         d="M 106.33308,97.412875 L 108.12186,98.307455 L 104.20313,101.67187 L 104.5443,96.518295 L 106.33308,97.412875 z " />
    </g>
    <path
       style="fill:#000000;fill-rule:evenodd;stroke:#000000;stroke-width:2;stroke-linecap:butt;stroke-linejoin:miter;stroke-opacity:1"
       d="M 140,65 L 145,75"
       id="path6618" />
    <path
       style="fill:#000000;fill-rule:evenodd;stroke:#000000;stroke-width:0.99999994px;stroke-linecap:butt;stroke-linejoin:miter;stroke-opacity:1"
       d="M 143.66692,72.412875 L 141.87814,73.307455 L 145.79688,76.67187 L 145.4557,71.518295 L 143.66692,72.412875 z "
       id="path6620" />
    <g
       id="g6656"
       transform="matrix(-1,0,0,-1,289.20313,167.17187)">
      <path
         style="fill:#000000;fill-rule:evenodd;stroke:#000000;stroke-width:2;stroke-linecap:butt;stroke-linejoin:miter;stroke-opacity:1"
         id="path6624"
         d="M 135,90 L 130,100" />
      <path
         style="fill:#000000;fill-rule:evenodd;stroke:#000000;stroke-width:0.99999994px;stroke-linecap:butt;stroke-linejoin:miter;stroke-opacity:1"
         id="path6626"
         d="M 131.33308,97.412875 L 133.12186,98.307455 L 129.20313,101.67187 L 129.5443,96.518295 L 131.33308,97.412875 z " />
    </g>
    <g
       style="fill:#ffffff"
       id="g6581"
       transform="translate(15,-49)">
      <path
         style="opacity:1;fill:#ffffff;fill-opacity:1;fill-rule:nonzero;stroke:#8b0000;stroke-width:2;stroke-linecap:butt;stroke-miterlimit:4;stroke-dasharray:none;stroke-dashoffset:0;stroke-opacity:1"
         id="path6575"
         sodipodi:cx="112.5"
         sodipodi:cy="135"
         sodipodi:type="arc"
         d="M 125 135 A 12.5 10 0 1 1  100,135 A 12.5 10 0 1 1  125 135 z"
         transform="matrix(0.8,0,0,1,20,0)"
         sodipodi:rx="12.5"
         sodipodi:ry="10" />
      <path
         style="fill:#ffffff;fill-rule:evenodd;stroke:#8b0000;stroke-width:2;stroke-linecap:butt;stroke-linejoin:miter;stroke-opacity:1"
         id="path6577"
         d="M 100,135 L 120,135" />
      <path
         style="fill:#ffffff;fill-rule:evenodd;stroke:#8b0000;stroke-width:2;stroke-linecap:butt;stroke-linejoin:miter;stroke-opacity:1"
         id="path6579"
         d="M 110,125 L 110,145" />
    </g>
    <path
       style="fill:#000000;fill-rule:evenodd;stroke:#000000;stroke-width:2;stroke-linecap:butt;stroke-linejoin:miter;stroke-opacity:1"
       d="M 190,65.5 L 195,75.5"
       id="path6636" />
    <path
       style="fill:#000000;fill-rule:evenodd;stroke:#000000;stroke-width:0.99999994px;stroke-linecap:butt;stroke-linejoin:miter;stroke-opacity:1"
       d="M 193.66692,72.912875 L 191.87814,73.807455 L 195.79688,77.17187 L 195.4557,72.018295 L 193.66692,72.912875 z "
       id="path6638" />
    <g
       id="g6652"
       transform="matrix(-1,0,0,-1,389.20313,167.67187)">
      <path
         style="fill:#000000;fill-rule:evenodd;stroke:#000000;stroke-width:2;stroke-linecap:butt;stroke-linejoin:miter;stroke-opacity:1"
         id="path6640"
         d="M 185,90.5 L 180,100.5" />
      <path
         style="fill:#000000;fill-rule:evenodd;stroke:#000000;stroke-width:0.99999994px;stroke-linecap:butt;stroke-linejoin:miter;stroke-opacity:1"
         id="path6642"
         d="M 181.33308,97.912875 L 183.12186,98.807455 L 179.20313,102.17187 L 179.5443,97.018295 L 181.33308,97.912875 z " />
    </g>
    <g
       style="fill:#ffffff"
       id="g6644"
       transform="translate(90,-48.5)">
      <path
         style="opacity:1;fill:#ffffff;fill-opacity:1;fill-rule:nonzero;stroke:#8b0000;stroke-width:2;stroke-linecap:butt;stroke-miterlimit:4;stroke-dasharray:none;stroke-dashoffset:0;stroke-opacity:1"
         id="path6646"
         sodipodi:cx="112.5"
         sodipodi:cy="135"
         sodipodi:type="arc"
         d="M 125 135 A 12.5 10 0 1 1  100,135 A 12.5 10 0 1 1  125 135 z"
         transform="matrix(0.8,0,0,1,20,0)"
         sodipodi:rx="12.5"
         sodipodi:ry="10" />
      <path
         style="fill:#ffffff;fill-rule:evenodd;stroke:#8b0000;stroke-width:2;stroke-linecap:butt;stroke-linejoin:miter;stroke-opacity:1"
         id="path6648"
         d="M 100,135 L 120,135" />
      <path
         style="fill:#ffffff;fill-rule:evenodd;stroke:#8b0000;stroke-width:2;stroke-linecap:butt;stroke-linejoin:miter;stroke-opacity:1"
         id="path6650"
         d="M 110,125 L 110,145" />
    </g>
    <path
       style="fill:none;fill-rule:evenodd;stroke:#000000;stroke-width:2;stroke-linecap:butt;stroke-linejoin:miter;stroke-opacity:1"
       d="M 475,45 L 520,45"
       id="path6664" />
    <path
       style="fill:none;fill-rule:evenodd;stroke:#000000;stroke-width:2;stroke-linecap:butt;stroke-linejoin:miter;stroke-opacity:1"
       d="M 500,45 L 500,110 L 30,110 L 30,45 L 70,45"
       sodipodi:nodetypes="ccccc"
       id="path6666" />
    <path
       style="fill:none;fill-rule:evenodd;stroke:#000000;stroke-width:2;stroke-linecap:butt;stroke-linejoin:miter;stroke-opacity:1"
       d="M 150,110 L 150,95"
       id="path6670" />
    <path
       style="fill:#000000;fill-rule:evenodd;stroke:#000000;stroke-width:1.00000012px;stroke-linecap:butt;stroke-linejoin:miter;stroke-opacity:1"
       d="M 150.00001,95.5 L 148,100.52263 L 152.00001,100.52263 L 150.00001,95.5"
       id="path6674" />
    <g
       style="fill:#ffffff"
       id="g6588"
       transform="translate(40,-49)">
      <path
         style="opacity:1;fill:#ffffff;fill-opacity:1;fill-rule:nonzero;stroke:#8b0000;stroke-width:2;stroke-linecap:butt;stroke-miterlimit:4;stroke-dasharray:none;stroke-dashoffset:0;stroke-opacity:1"
         id="path6590"
         sodipodi:cx="112.5"
         sodipodi:cy="135"
         sodipodi:type="arc"
         d="M 125 135 A 12.5 10 0 1 1  100,135 A 12.5 10 0 1 1  125 135 z"
         transform="matrix(0.8,0,0,1,20,0)"
         sodipodi:rx="12.5"
         sodipodi:ry="10" />
      <path
         style="fill:#ffffff;fill-rule:evenodd;stroke:#8b0000;stroke-width:2;stroke-linecap:butt;stroke-linejoin:miter;stroke-opacity:1"
         id="path6592"
         d="M 100,135 L 120,135" />
      <path
         style="fill:#ffffff;fill-rule:evenodd;stroke:#8b0000;stroke-width:2;stroke-linecap:butt;stroke-linejoin:miter;stroke-opacity:1"
         id="path6594"
         d="M 110,125 L 110,145" />
    </g>
    <path
       style="fill:#000000;fill-rule:evenodd;stroke:none;stroke-width:0.99999988px;stroke-linecap:butt;stroke-linejoin:miter;stroke-opacity:1"
       d="M 64,41 L 64,49 L 76,44.999998 L 64,41 z "
       id="path6680" />
    <path
       style="fill:#000000;fill-rule:evenodd;stroke:none;stroke-width:0.99999988px;stroke-linecap:butt;stroke-linejoin:miter;stroke-opacity:1"
       d="M 511.5,41 L 511.5,49 L 523.5,44.999998 L 511.5,41 z "
       id="path6682" />
    <g
       id="g6746"
       transform="translate(409.70285,-224.46571)">
      <g
         style="font-style:normal;font-variant:normal;font-weight:normal;font-stretch:normal;letter-spacing:normal;word-spacing:normal;text-anchor:start;fill:none;fill-opacity:1;fill-rule:evenodd;stroke:#000000;stroke-linecap:butt;stroke-linejoin:miter;stroke-miterlimit:10.43299961;stroke-dasharray:none;stroke-dashoffset:0;stroke-opacity:1"
         id="g6748"
         xml:space="preserve"
         transform="matrix(0.2857143,0,0,-0.2857143,-50,375)"><path
           style="fill:#000000;stroke-width:0"
           id="path6750"
           d="M 491.91,422.89 L 491.89,423.83 L 491.83,424.77 L 491.72,425.68 L 491.57,426.59 L 491.39,427.47 L 491.16,428.34 L 490.9,429.19 L 490.6,430.02 L 490.26,430.83 L 489.89,431.62 L 489.49,432.38 L 489.06,433.12 L 488.59,433.83 L 488.1,434.52 L 487.57,435.18 L 487.02,435.81 L 486.44,436.41 L 485.84,436.98 L 485.21,437.52 L 484.56,438.03 L 483.89,438.5 L 483.19,438.94 L 482.48,439.33 L 481.74,439.7 L 480.99,440.02 L 480.23,440.31 L 479.44,440.55 L 478.64,440.75 L 477.83,440.91 L 477.01,441.02 L 476.17,441.09 L 475.33,441.12 L 475.33,439.87 C 479.66,439.87 486.79,436.34 486.79,423.59 C 486.79,410.38 479.96,406.2 475.38,406.2 L 475.38,406.2 C 470.59,406.2 463.92,410.58 463.92,423.59 C 463.92,436.48 471.19,439.87 475.33,439.87 L 475.33,441.12 C 466.41,441.12 458.79,433.15 458.79,422.89 C 458.79,412.68 466.46,404.9 475.33,404.9 C 484.39,404.9 491.91,412.82 491.91,422.89 z " /><path
           style="fill:#000000;stroke-width:0"
           id="path6752"
           d="M 513.48,409.93 L 513.48,405.45 L 520.65,406 L 520.65,407.54 C 517.16,407.54 516.77,407.89 516.77,410.33 L 516.77,428.02 L 509.44,427.47 L 509.44,425.93 C 512.93,425.93 513.33,425.58 513.33,423.14 L 513.33,414.27 C 513.33,409.93 510.94,406.55 507.3,406.55 C 503.12,406.55 502.92,408.89 502.92,411.48 L 502.92,428.02 L 495.59,427.47 L 495.59,425.93 C 499.48,425.93 499.48,425.78 499.48,421.34 L 499.48,413.87 C 499.48,409.98 499.48,405.45 507.05,405.45 C 509.84,405.45 512.03,406.85 513.48,409.93 z " /><path
           style="fill:#000000;stroke-width:0"
           id="path6754"
           d="M 530.62,425.93 L 537.74,425.93 L 537.74,427.47 L 530.62,427.47 L 530.62,436.64 L 529.37,436.64 C 529.32,432.55 527.83,427.22 522.95,427.02 L 522.95,425.93 L 527.18,425.93 L 527.18,412.18 C 527.18,406.05 531.81,405.45 533.6,405.45 C 537.15,405.45 538.54,408.99 538.54,412.18 L 538.54,415.02 L 537.29,415.02 L 537.29,412.28 C 537.29,408.59 535.8,406.7 533.96,406.7 C 530.62,406.7 530.62,411.23 530.62,412.08 L 530.62,425.93 z " /><path
           style="fill:#000000;stroke-width:0"
           id="path6756"
           d="M 549.72,408.94 L 550.41,409.59 C 549.72,410.63 549.72,410.68 549.72,411.68 L 549.72,422.79 C 551.16,425.33 553.6,426.77 556.15,426.77 C 559.78,426.77 562.82,422.39 562.82,416.76 C 562.82,410.73 559.33,406.55 555.65,406.55 C 553.65,406.55 551.76,407.54 550.41,409.59 L 549.72,408.94 C 549.97,408.14 552.06,405.45 555.84,405.45 C 561.77,405.45 566.95,410.33 566.95,416.76 C 566.95,423.09 562.12,428.02 556.54,428.02 C 552.66,428.02 550.56,425.82 549.57,424.73 L 549.57,428.02 L 542.4,427.47 L 542.4,425.93 C 545.93,425.93 546.28,425.63 546.28,423.43 L 546.28,400.12 C 546.28,397.88 545.73,397.88 542.4,397.88 L 542.4,396.34 C 544.09,396.39 546.68,396.48 547.97,396.48 C 549.32,396.48 551.86,396.39 553.6,396.34 L 553.6,397.88 C 550.27,397.88 549.72,397.88 549.72,400.12 L 549.72,408.49 L 549.72,408.94 z " /><path
           style="fill:#000000;stroke-width:0"
           id="path6758"
           d="M 588.48,409.93 L 588.48,405.45 L 595.65,406 L 595.65,407.54 C 592.16,407.54 591.77,407.89 591.77,410.33 L 591.77,428.02 L 584.44,427.47 L 584.44,425.93 C 587.93,425.93 588.33,425.58 588.33,423.14 L 588.33,414.27 C 588.33,409.93 585.94,406.55 582.3,406.55 C 578.12,406.55 577.92,408.89 577.92,411.48 L 577.92,428.02 L 570.59,427.47 L 570.59,425.93 C 574.48,425.93 574.48,425.78 574.48,421.34 L 574.48,413.87 C 574.48,409.98 574.48,405.45 582.05,405.45 C 584.84,405.45 587.03,406.85 588.48,409.93 z " /><path
           style="fill:#000000;stroke-width:0"
           id="path6760"
           d="M 605.62,425.93 L 612.74,425.93 L 612.74,427.47 L 605.62,427.47 L 605.62,436.64 L 604.37,436.64 C 604.32,432.55 602.83,427.22 597.95,427.02 L 597.95,425.93 L 602.18,425.93 L 602.18,412.18 C 602.18,406.05 606.81,405.45 608.6,405.45 C 612.15,405.45 613.54,408.99 613.54,412.18 L 613.54,415.02 L 612.29,415.02 L 612.29,412.28 C 612.29,408.59 610.8,406.7 608.96,406.7 C 605.62,406.7 605.62,411.23 605.62,412.08 L 605.62,425.93 z " /></g>    </g>
    <g
       id="g6900"
       transform="translate(-71.985724,-298.65714)">
      <g
         style="font-style:normal;font-variant:normal;font-weight:normal;font-stretch:normal;letter-spacing:normal;word-spacing:normal;text-anchor:start;fill:none;fill-opacity:1;fill-rule:evenodd;stroke:#000000;stroke-linecap:butt;stroke-linejoin:miter;stroke-miterlimit:10.43299961;stroke-dasharray:none;stroke-dashoffset:0;stroke-opacity:1"
         id="g6902"
         xml:space="preserve"
         transform="matrix(0.2857143,0,0,-0.2857143,-50,450)"><path
           style="fill:#000000;stroke-width:0"
           id="path6904"
           d="M 484.99,439.87 L 457.64,439.87 L 457.64,438.33 L 458.84,438.33 C 462.68,438.33 462.77,437.78 462.77,435.99 L 462.77,409.89 C 462.77,408.09 462.68,407.54 458.84,407.54 L 457.64,407.54 L 457.64,406 C 459.39,406.15 463.27,406.15 465.21,406.15 C 467.26,406.15 471.79,406.15 473.59,406 L 473.59,407.54 L 471.94,407.54 C 467.21,407.54 467.21,408.19 467.21,409.93 L 467.21,422.19 L 471.49,422.19 C 476.27,422.19 476.77,420.59 476.77,416.36 L 478.02,416.36 L 478.02,429.56 L 476.77,429.56 C 476.77,425.38 476.27,423.73 471.49,423.73 L 467.21,423.73 L 467.21,436.34 C 467.21,437.98 467.31,438.33 469.65,438.33 L 475.63,438.33 C 483.1,438.33 484.34,435.54 485.14,428.66 L 486.39,428.66 L 484.99,439.87 z " /><path
           style="fill:#000000;stroke-width:0"
           id="path6906"
           d="M 503.43,417.51 L 503.48,417.51 L 503.53,417.51 L 503.57,417.51 L 503.62,417.51 L 503.67,417.51 L 503.71,417.51 L 503.75,417.51 L 503.79,417.51 L 503.83,417.51 L 503.87,417.51 L 503.91,417.51 L 503.95,417.51 L 504.02,417.52 L 504.08,417.52 L 504.14,417.53 L 504.2,417.54 L 504.25,417.55 L 504.3,417.56 L 504.35,417.58 L 504.39,417.6 L 504.43,417.62 L 504.46,417.64 L 504.49,417.66 L 504.52,417.69 L 504.54,417.73 L 504.57,417.76 L 504.59,417.8 L 504.6,417.85 L 504.61,417.87 L 504.62,417.9 L 504.63,417.92 L 504.63,417.95 L 504.64,417.98 L 504.64,418.01 L 504.65,418.04 L 504.65,418.07 L 504.65,418.1 L 504.66,418.14 L 504.66,418.17 L 504.66,418.21 L 504.67,418.25 L 504.67,418.29 L 504.67,418.33 L 504.67,418.37 L 504.67,418.41 L 504.67,418.46 L 504.67,418.51 L 504.67,418.55 C 504.67,423.48 501.98,428.32 495.76,428.32 C 489.98,428.32 485.39,423.18 485.39,416.96 C 485.39,410.29 490.63,405.45 496.36,405.45 C 502.43,405.45 504.67,410.98 504.67,411.93 C 504.67,412.43 504.27,412.53 504.02,412.53 C 503.58,412.53 503.48,412.23 503.38,411.83 C 501.63,406.7 497.15,406.7 496.65,406.7 C 494.16,406.7 492.17,408.19 491.02,410.04 C 489.53,412.43 489.53,415.71 489.53,417.51 L 489.58,418.55 C 489.88,425.98 494.06,427.22 495.76,427.22 C 500.89,427.22 501.39,420.5 501.39,418.55 L 489.58,418.55 L 489.53,417.51 L 503.43,417.51 z " /><path
           style="fill:#000000;stroke-width:0"
           id="path6908"
           d="M 525.43,417.51 L 525.48,417.51 L 525.53,417.51 L 525.57,417.51 L 525.62,417.51 L 525.67,417.51 L 525.71,417.51 L 525.75,417.51 L 525.79,417.51 L 525.83,417.51 L 525.87,417.51 L 525.91,417.51 L 525.95,417.51 L 526.02,417.52 L 526.08,417.52 L 526.14,417.53 L 526.2,417.54 L 526.25,417.55 L 526.3,417.56 L 526.35,417.58 L 526.39,417.6 L 526.43,417.62 L 526.46,417.64 L 526.49,417.66 L 526.52,417.69 L 526.54,417.73 L 526.57,417.76 L 526.59,417.8 L 526.6,417.85 L 526.61,417.87 L 526.62,417.9 L 526.63,417.92 L 526.63,417.95 L 526.64,417.98 L 526.64,418.01 L 526.65,418.04 L 526.65,418.07 L 526.65,418.1 L 526.66,418.14 L 526.66,418.17 L 526.66,418.21 L 526.67,418.25 L 526.67,418.29 L 526.67,418.33 L 526.67,418.37 L 526.67,418.41 L 526.67,418.46 L 526.67,418.51 L 526.67,418.55 C 526.67,423.48 523.98,428.32 517.76,428.32 C 511.98,428.32 507.39,423.18 507.39,416.96 C 507.39,410.29 512.63,405.45 518.35,405.45 C 524.43,405.45 526.67,410.98 526.67,411.93 C 526.67,412.43 526.27,412.53 526.02,412.53 C 525.58,412.53 525.48,412.23 525.38,411.83 C 523.63,406.7 519.15,406.7 518.65,406.7 C 516.16,406.7 514.17,408.19 513.02,410.04 C 511.53,412.43 511.53,415.71 511.53,417.51 L 511.58,418.55 C 511.88,425.98 516.06,427.22 517.76,427.22 C 522.89,427.22 523.39,420.5 523.39,418.55 L 511.58,418.55 L 511.53,417.51 L 525.43,417.51 z " /><path
           style="fill:#000000;stroke-width:0"
           id="path6910"
           d="M 546.93,408.74 L 546.93,405.45 L 554.25,406 L 554.25,407.54 C 550.77,407.54 550.37,407.89 550.37,410.33 L 550.37,440.57 L 543.19,440.02 L 543.19,438.48 C 546.68,438.48 547.08,438.13 547.08,435.69 L 547.08,424.93 C 545.63,426.72 543.49,428.02 540.8,428.02 L 541,426.92 C 542.75,426.92 544.84,426.18 546.38,423.93 C 546.93,423.09 546.93,422.98 546.93,422.09 L 546.93,422.09 L 546.93,411.88 C 546.93,410.98 546.93,410.88 546.38,410.04 C 544.89,407.64 542.65,406.55 540.5,406.55 C 538.26,406.55 536.47,407.84 535.27,409.73 C 533.98,411.78 533.83,414.62 533.83,416.66 C 533.83,418.5 533.93,421.49 535.37,423.73 C 536.42,425.28 538.31,426.92 541,426.92 L 540.8,428.02 C 534.93,428.02 529.7,423.14 529.7,416.71 C 529.7,410.38 534.57,405.45 540.25,405.45 C 543.44,405.45 545.68,407.14 546.93,408.74 z " /><path
           style="fill:#000000;stroke-width:0"
           id="path6912"
           d="M 564.57,424.78 L 564.57,440.57 L 557.4,440.02 L 557.4,438.48 C 560.88,438.48 561.28,438.13 561.28,435.69 L 561.28,406 L 562.53,406 C 562.57,406.05 562.97,406.75 564.32,409.09 C 565.07,407.94 567.16,405.45 570.84,405.45 L 570.65,406.55 C 568.4,406.55 566.61,407.74 565.41,409.59 C 564.72,410.63 564.72,410.78 564.72,411.68 L 564.72,411.68 L 564.72,421.94 C 564.72,422.89 564.72,422.94 565.27,423.73 C 567.21,426.52 569.95,426.92 571.15,426.92 C 573.39,426.92 575.18,425.63 576.38,423.73 C 577.67,421.69 577.82,418.85 577.82,416.81 C 577.82,414.96 577.72,411.98 576.27,409.73 C 575.23,408.19 573.34,406.55 570.65,406.55 L 570.84,405.45 C 576.77,405.45 581.95,410.33 581.95,416.76 C 581.95,423.09 577.07,428.02 571.39,428.02 C 567.51,428.02 565.36,425.68 564.57,424.78 z " /><path
           style="fill:#000000;stroke-width:0"
           id="path6914"
           d="M 599.59,409.79 L 599.61,409.6 L 599.64,409.41 L 599.67,409.22 L 599.71,409.04 L 599.76,408.85 L 599.82,408.67 L 599.88,408.49 L 599.95,408.31 L 600.02,408.13 L 600.1,407.95 L 600.19,407.78 L 600.29,407.62 L 600.39,407.45 L 600.49,407.3 L 600.61,407.14 L 600.73,407 L 600.85,406.85 L 600.98,406.72 L 601.12,406.59 L 601.27,406.47 L 601.42,406.35 L 601.57,406.25 L 601.74,406.15 L 601.91,406.06 L 602.08,405.98 L 602.26,405.91 L 602.45,405.84 L 602.64,405.79 L 602.84,405.75 L 603.05,405.72 L 603.26,405.71 L 603.47,405.7 C 604.52,405.7 607.56,406.4 607.56,410.43 L 607.56,413.22 L 606.31,413.22 L 606.31,410.43 C 606.31,407.54 605.07,407.25 604.52,407.25 C 602.88,407.25 602.68,409.49 602.68,409.73 L 602.68,419.7 C 602.68,421.79 602.68,423.73 600.88,425.58 C 598.94,427.52 596.45,428.32 594.06,428.32 C 589.97,428.32 586.53,425.98 586.53,422.69 C 586.53,421.19 587.53,420.35 588.83,420.35 C 590.22,420.35 591.12,421.34 591.12,422.64 C 591.12,423.23 590.87,424.88 588.58,424.93 C 589.93,426.67 592.36,427.22 593.96,427.22 C 596.4,427.22 599.24,425.28 599.24,420.84 L 599.24,419 L 599.24,417.96 L 599.24,412.97 C 599.24,408.24 595.65,406.55 593.41,406.55 C 590.97,406.55 588.93,408.29 588.93,410.78 C 588.93,413.52 591.02,417.66 599.24,417.96 L 599.24,417.96 L 599.24,419 C 596.7,418.85 593.21,418.7 590.07,417.21 C 586.34,415.52 585.09,412.93 585.09,410.73 C 585.09,406.7 589.93,405.45 593.06,405.45 C 596.35,405.45 598.64,407.45 599.59,409.79 z " /><path
           style="fill:#000000;stroke-width:0"
           id="path6916"
           d="M 625.88,425.23 L 625.79,425.22 L 625.7,425.21 L 625.61,425.2 L 625.52,425.18 L 625.44,425.17 L 625.35,425.15 L 625.27,425.13 L 625.2,425.11 L 625.12,425.09 L 625.05,425.07 L 624.98,425.04 L 624.91,425.02 L 624.84,424.99 L 624.78,424.96 L 624.66,424.9 L 624.54,424.83 L 624.44,424.76 L 624.34,424.69 L 624.24,424.61 L 624.16,424.53 L 624.08,424.44 L 624.01,424.36 L 623.95,424.27 L 623.89,424.18 L 623.83,424.09 L 623.79,424 L 623.74,423.91 L 623.71,423.82 L 623.67,423.73 L 623.65,423.64 L 623.62,423.55 L 623.6,423.46 L 623.58,423.38 L 623.57,423.3 L 623.56,423.22 L 623.55,423.14 L 623.55,423.07 L 623.54,423 L 623.54,422.94 C 623.54,421.64 624.44,420.64 625.83,420.64 C 627.13,420.64 628.13,421.49 628.13,422.98 C 628.13,426.38 624.34,428.32 620.5,428.32 C 614.28,428.32 609.7,422.94 609.7,416.76 C 609.7,410.38 614.63,405.45 620.4,405.45 C 627.08,405.45 628.67,411.43 628.67,411.93 C 628.67,412.43 628.18,412.43 628.02,412.43 C 627.58,412.43 627.48,412.23 627.38,411.93 C 625.93,407.3 622.7,406.7 620.85,406.7 C 618.21,406.7 613.83,408.84 613.83,416.86 C 613.83,424.98 617.91,427.07 620.55,427.07 C 621,427.07 624.14,427.02 625.88,425.23 z " /><path
           style="fill:#000000;stroke-width:0"
           id="path6918"
           d="M 643.3,419.1 L 643.29,419.11 L 643.29,419.12 L 643.28,419.13 L 643.27,419.15 L 643.26,419.16 L 643.25,419.18 L 643.24,419.19 L 643.23,419.21 L 643.22,419.22 L 643.2,419.24 L 643.19,419.26 L 643.18,419.28 L 643.15,419.32 L 643.13,419.36 L 643.1,419.4 L 643.09,419.42 L 643.08,419.44 L 643.07,419.46 L 643.06,419.48 L 643.05,419.49 L 643.04,419.51 L 643.03,419.53 L 643.02,419.55 L 643.01,419.57 L 643.01,419.59 L 643,419.6 L 643,419.62 L 643,419.63 L 643,419.65 C 643,419.85 646.53,422.84 647.03,423.23 C 650.17,425.78 652.26,425.88 653.31,425.93 L 653.31,427.47 C 651.86,427.32 651.22,427.32 649.82,427.32 C 648.03,427.32 644.94,427.42 644.24,427.47 L 644.24,425.93 C 645.19,425.88 645.69,425.33 645.69,424.68 C 645.69,423.68 644.99,423.09 644.59,422.74 L 637.57,416.66 L 637.57,440.57 L 630.4,440.02 L 630.4,438.48 C 633.88,438.48 634.28,438.13 634.28,435.69 L 634.28,409.79 C 634.28,407.54 633.73,407.54 630.4,407.54 L 630.4,406 C 632.04,406.05 634.38,406.15 635.82,406.15 C 637.32,406.15 639.31,406.1 641.3,406 L 641.3,407.54 C 637.97,407.54 637.42,407.54 637.42,409.79 L 637.42,414.92 L 640.6,417.66 C 644.44,412.38 646.53,409.59 646.53,408.69 C 646.53,407.74 645.69,407.54 644.74,407.54 L 644.74,406 C 646.14,406.05 649.07,406.15 650.12,406.15 C 651.57,406.15 653.01,406.1 654.45,406 L 654.45,407.54 C 652.61,407.54 651.52,407.54 649.62,410.18 L 643.3,419.1 z " /></g>    </g>
    <path
       id="path7082"
       d="M 88.22,10.371428 L 88.22,10.357143 L 88.22,10.34 L 88.22,10.325714 L 88.22,10.311428 L 88.22,10.297143 L 88.22,10.282857 L 88.22,10.271428 L 88.22,10.257143 L 88.22,10.245714 L 88.22,10.234285 L 88.22,10.222857 L 88.22,10.211428 L 88.22,10.2 L 88.217143,10.188571 L 88.217143,10.18 L 88.217143,10.168571 L 88.214286,10.16 L 88.214286,10.151428 L 88.211429,10.134285 L 88.208572,10.12 L 88.202857,10.105714 L 88.2,10.091428 L 88.194286,10.08 L 88.188572,10.068571 L 88.18,10.057143 L 88.171429,10.048571 L 88.162857,10.042857 L 88.154286,10.034285 L 88.142857,10.028571 L 88.128572,10.022857 L 88.122857,10.02 L 88.114286,10.017143 L 88.108572,10.017143 L 88.1,10.014285 L 88.091429,10.011428 L 88.082857,10.011428 L 88.074286,10.008571 L 88.065714,10.008571 L 88.057143,10.005714 L 88.045714,10.005714 L 88.034286,10.005714 L 88.025714,10.005714 L 88.014286,10.002857 L 88.002857,10.002857 L 87.991429,10.002857 L 87.977143,10.002857 L 87.965714,10.002857 L 87.951429,10.002857 L 87.937143,10 L 87.922857,10 L 87.908572,10 L 87.894286,10 C 87.011429,10.911428 85.76,10.911428 85.302857,10.911428 L 85.302857,11.354286 C 85.588571,11.354286 86.428571,11.354286 87.168572,10.982857 L 87.168572,18.357143 C 87.168572,18.868572 87.125714,19.04 85.845714,19.04 L 85.388571,19.04 L 85.388571,19.48 C 85.888571,19.437143 87.125714,19.437143 87.694286,19.437143 C 88.262857,19.437143 89.502857,19.437143 90,19.48 L 90,19.04 L 89.545715,19.04 C 88.262857,19.04 88.22,18.882857 88.22,18.357143 L 88.22,10.371428 z "
       style="font-style:normal;font-variant:normal;font-weight:normal;font-stretch:normal;letter-spacing:normal;word-spacing:normal;text-anchor:start;fill:#000000;fill-opacity:1;fill-rule:evenodd;stroke:#000000;stroke-width:0;stroke-linecap:butt;stroke-linejoin:miter;stroke-miterlimit:10.43299961;stroke-dasharray:none;stroke-dashoffset:0;stroke-opacity:1" />
    <path
       id="path7084"
       d="M 115.46104,17.002857 L 115.1039,17.002857 C 115.03247,17.431429 114.93247,18.057143 114.78962,18.271429 C 114.69247,18.382857 113.75247,18.382857 113.43819,18.382857 L 110.87819,18.382857 L 112.38676,16.92 C 114.60676,14.954286 115.46104,14.185714 115.46104,12.762857 C 115.46104,11.14 114.17819,10 112.44104,10 C 110.83533,10 109.78104,11.311428 109.78104,12.577143 C 109.78104,13.374286 110.49247,13.374286 110.53533,13.374286 C 110.77819,13.374286 111.27533,13.202857 111.27533,12.62 C 111.27533,12.251428 111.01819,11.88 110.52104,11.88 C 110.40676,11.88 110.37819,11.88 110.33533,11.894286 C 110.6639,10.968571 111.43247,10.442857 112.25819,10.442857 C 113.55247,10.442857 114.1639,11.594286 114.1639,12.762857 C 114.1639,13.9 113.45247,15.025714 112.66962,15.908571 L 109.93819,18.954286 C 109.78104,19.108572 109.78104,19.137143 109.78104,19.48 L 115.06104,19.48 L 115.46104,17.002857 z "
       style="font-style:normal;font-variant:normal;font-weight:normal;font-stretch:normal;letter-spacing:normal;word-spacing:normal;text-anchor:start;fill:#000000;fill-opacity:1;fill-rule:evenodd;stroke:#000000;stroke-width:0;stroke-linecap:butt;stroke-linejoin:miter;stroke-miterlimit:10.43299961;stroke-dasharray:none;stroke-dashoffset:0;stroke-opacity:1" />
    <path
       id="path7086"
       d="M 138.1678,14.468571 L 138.27352,14.431429 L 138.38209,14.391429 L 138.48495,14.345714 L 138.5878,14.297143 L 138.6878,14.245714 L 138.78495,14.191429 L 138.87923,14.134286 L 138.97066,14.074286 L 139.05923,14.011428 L 139.14495,13.945714 L 139.23066,13.877143 L 139.31066,13.805714 L 139.3878,13.731428 L 139.46209,13.654286 L 139.53352,13.577143 L 139.59923,13.494286 L 139.66495,13.411428 L 139.72495,13.325714 L 139.78209,13.24 L 139.83638,13.151428 L 139.88495,13.06 L 139.93066,12.965714 L 139.97352,12.871428 L 140.01066,12.777143 L 140.04495,12.68 L 140.07352,12.58 L 140.09923,12.48 L 140.12209,12.38 L 140.13638,12.277143 L 140.1478,12.174286 L 140.15638,12.071428 L 140.15923,11.965714 C 140.15923,10.797143 138.90495,10 137.53923,10 C 136.10209,10 135.02209,10.854285 135.02209,11.937143 C 135.02209,12.405714 135.33352,12.677143 135.7478,12.677143 C 136.1878,12.677143 136.47352,12.362857 136.47352,11.951428 C 136.47352,11.24 135.80495,11.24 135.59066,11.24 C 136.03066,10.542857 136.97066,10.357143 137.48209,10.357143 C 138.0678,10.357143 138.85066,10.668571 138.85066,11.951428 C 138.85066,12.122857 138.82209,12.948571 138.45066,13.574286 C 138.02495,14.257143 137.53923,14.3 137.18495,14.314286 C 137.07066,14.328571 136.7278,14.357143 136.63066,14.357143 C 136.51638,14.371429 136.41638,14.385714 136.41638,14.525714 C 136.41638,14.682857 136.51638,14.682857 136.75923,14.682857 L 137.38495,14.682857 C 138.55066,14.682857 139.07638,15.651429 139.07638,17.045714 C 139.07638,18.982857 138.09638,19.394286 137.4678,19.394286 C 136.85638,19.394286 135.79066,19.154286 135.29066,18.311429 C 135.79066,18.382857 136.23066,18.071429 136.23066,17.531429 C 136.23066,17.017143 135.8478,16.734286 135.43352,16.734286 C 135.09352,16.734286 134.63638,16.931429 134.63638,17.557143 C 134.63638,18.854286 135.96209,19.794286 137.51352,19.794286 C 139.2478,19.794286 140.54495,18.497143 140.54495,17.045714 C 140.54495,15.88 139.6478,14.768571 138.1678,14.468571 z "
       style="font-style:normal;font-variant:normal;font-weight:normal;font-stretch:normal;letter-spacing:normal;word-spacing:normal;text-anchor:start;fill:#000000;fill-opacity:1;fill-rule:evenodd;stroke:#000000;stroke-width:0;stroke-linecap:butt;stroke-linejoin:miter;stroke-miterlimit:10.43299961;stroke-dasharray:none;stroke-dashoffset:0;stroke-opacity:1" />
    <path
       id="path7088"
       d="M 159.40885,17.285715 L 163.19456,17.285715 L 163.19456,18.522858 C 163.19456,19.037143 163.16599,19.194286 162.11171,19.194286 L 161.81171,19.194286 L 161.81171,19.634286 C 162.39456,19.591429 163.13742,19.591429 163.73456,19.591429 C 164.33171,19.591429 165.08599,19.591429 165.66885,19.634286 L 165.66885,19.194286 L 165.37171,19.194286 C 164.31742,19.194286 164.28885,19.037143 164.28885,18.522858 L 164.28885,17.285715 L 165.71171,17.285715 L 165.71171,16.845715 L 164.28885,16.845715 L 164.28885,10.368571 C 164.28885,10.082857 164.28885,10 164.06028,10 C 163.93171,10 163.89171,10 163.77742,10.168571 L 159.40885,16.845715 L 159.80599,16.845715 L 163.28028,11.537143 L 163.28028,16.845715 L 159.80599,16.845715 L 159.40885,16.845715 L 159.40885,17.285715 z "
       style="font-style:normal;font-variant:normal;font-weight:normal;font-stretch:normal;letter-spacing:normal;word-spacing:normal;text-anchor:start;fill:#000000;fill-opacity:1;fill-rule:evenodd;stroke:#000000;stroke-width:0;stroke-linecap:butt;stroke-linejoin:miter;stroke-miterlimit:10.43299961;stroke-dasharray:none;stroke-dashoffset:0;stroke-opacity:1" />
    <path
       id="path7090"
       d="M 190.3699,16.62 L 190.36704,16.462857 L 190.35561,16.305714 L 190.33847,16.151429 L 190.31561,16 L 190.28704,15.848571 L 190.2499,15.702857 L 190.2099,15.56 L 190.16132,15.417143 L 190.1099,15.28 L 190.05275,15.145714 L 189.98704,15.014286 L 189.91847,14.888571 L 189.84418,14.765714 L 189.76418,14.648571 L 189.68132,14.534286 L 189.59275,14.425714 L 189.50132,14.322857 L 189.40418,14.222857 L 189.30132,14.128571 L 189.19561,14.042857 L 189.08704,13.96 L 188.97275,13.882857 L 188.85561,13.814286 L 188.73561,13.751428 L 188.61275,13.694286 L 188.48418,13.645714 L 188.35561,13.602857 L 188.22132,13.565714 L 188.08704,13.54 L 187.94704,13.52 L 187.80704,13.505714 L 187.66418,13.502857 C 186.98132,13.502857 186.3699,13.728571 185.85561,14.228571 L 185.85561,11.454286 C 186.14132,11.537143 186.61275,11.637143 187.06704,11.637143 C 188.81847,11.637143 189.81275,10.342857 189.81275,10.157143 C 189.81275,10.071428 189.7699,10 189.67275,10 C 189.65847,10 189.6299,10 189.55847,10.042857 C 189.27275,10.171428 188.57561,10.457143 187.62132,10.457143 C 187.05275,10.457143 186.39847,10.357143 185.7299,10.057143 C 185.61561,10.014285 185.58704,10.014285 185.55847,10.014285 C 185.41561,10.014285 185.41561,10.128571 185.41561,10.357143 L 185.41561,14.571429 C 185.41561,14.825714 185.41561,14.94 185.61561,14.94 C 185.71561,14.94 185.74418,14.897143 185.80132,14.811429 C 185.95847,14.582857 186.48418,13.817143 187.63561,13.817143 C 188.37561,13.817143 188.73275,14.468571 188.84418,14.725714 C 189.07275,15.254286 189.10132,15.808571 189.10132,16.52 C 189.10132,17.017143 189.10132,17.871429 188.76132,18.468572 C 188.41847,19.025714 187.89275,19.394286 187.23847,19.394286 C 186.19847,19.394286 185.38704,18.64 185.14704,17.8 C 185.18704,17.814286 185.2299,17.828572 185.38704,17.828572 C 185.85561,17.828572 186.09847,17.474286 186.09847,17.131429 C 186.09847,16.791429 185.85561,16.434286 185.38704,16.434286 C 185.18704,16.434286 184.6899,16.534286 184.6899,17.188572 C 184.6899,18.414286 185.67275,19.794286 187.26704,19.794286 C 188.91561,19.794286 190.3699,18.425714 190.3699,16.62 z "
       style="font-style:normal;font-variant:normal;font-weight:normal;font-stretch:normal;letter-spacing:normal;word-spacing:normal;text-anchor:start;fill:#000000;fill-opacity:1;fill-rule:evenodd;stroke:#000000;stroke-width:0;stroke-linecap:butt;stroke-linejoin:miter;stroke-miterlimit:10.43299961;stroke-dasharray:none;stroke-dashoffset:0;stroke-opacity:1" />
    <path
       id="path7092"
       d="M 210.82523,14.811429 L 210.82523,14.468571 C 210.82523,10.868571 212.59094,10.357143 213.31666,10.357143 C 213.65951,10.357143 214.25666,10.442857 214.57094,10.925714 C 214.35666,10.925714 213.78809,10.925714 213.78809,11.565714 C 213.78809,12.008571 214.12809,12.22 214.44237,12.22 C 214.66809,12.22 215.09666,12.094286 215.09666,11.537143 C 215.09666,10.682857 214.47094,10 213.28809,10 C 211.46809,10 209.54523,11.837143 209.54523,14.982857 C 209.54523,18.782857 211.19666,19.794286 212.51951,19.794286 C 214.09951,19.794286 215.4538,18.454286 215.4538,16.577143 C 215.4538,14.768571 214.18523,13.402857 212.60523,13.402857 L 212.59094,13.728571 C 212.81951,13.728571 213.4738,13.728571 213.91666,14.611429 C 214.17094,15.14 214.17094,15.865714 214.17094,16.562857 C 214.17094,17.245714 214.17094,17.957143 213.92809,18.468572 C 213.50237,19.322857 212.84809,19.394286 212.51951,19.394286 L 212.51951,19.394286 C 211.62237,19.394286 211.19666,18.54 211.11094,18.325714 C 210.85666,17.657143 210.85666,16.52 210.85666,16.262857 C 210.85666,15.154286 211.31094,13.728571 212.59094,13.728571 L 212.60523,13.402857 C 211.63666,13.402857 211.11094,14.128571 210.82523,14.811429 z "
       style="font-style:normal;font-variant:normal;font-weight:normal;font-stretch:normal;letter-spacing:normal;word-spacing:normal;text-anchor:start;fill:#000000;fill-opacity:1;fill-rule:evenodd;stroke:#000000;stroke-width:0;stroke-linecap:butt;stroke-linejoin:miter;stroke-miterlimit:10.43299961;stroke-dasharray:none;stroke-dashoffset:0;stroke-opacity:1" />
    <path
       id="path7094"
       d="M 240.39342,10.951428 L 240.40485,10.937143 L 240.41628,10.922857 L 240.4277,10.908571 L 240.43628,10.894285 L 240.44485,10.88 L 240.45342,10.868571 L 240.46199,10.857143 L 240.4677,10.845714 L 240.47342,10.834285 L 240.47913,10.822857 L 240.48485,10.811428 L 240.49056,10.8 L 240.49628,10.785714 L 240.49913,10.774285 L 240.50199,10.762857 L 240.50485,10.751428 L 240.5077,10.74 L 240.51056,10.725714 L 240.51342,10.711428 L 240.51628,10.697143 L 240.51628,10.682857 L 240.51913,10.668571 L 240.51913,10.651428 L 240.51913,10.634285 L 240.52199,10.617143 L 240.52199,10.597143 L 240.52199,10.577143 L 240.52199,10.554285 L 240.52199,10.531428 L 240.52199,10.508571 L 240.52199,10.482857 L 240.52199,10.468571 L 240.52199,10.454285 L 237.06199,10.454285 C 235.3277,10.454285 235.29913,10.268571 235.24199,10 L 234.88485,10 L 234.41628,12.931428 L 234.77056,12.931428 C 234.81342,12.702857 234.94199,11.805714 235.1277,11.634286 C 235.2277,11.551428 236.33913,11.551428 236.52199,11.551428 L 239.4677,11.551428 C 239.31342,11.777143 238.1877,13.328571 237.87628,13.797143 C 236.59342,15.72 236.12485,17.697143 236.12485,19.151429 C 236.12485,19.294286 236.12485,19.934286 236.77913,19.934286 C 237.43342,19.934286 237.43342,19.294286 237.43342,19.151429 L 237.43342,18.425714 C 237.43342,17.64 237.47628,16.86 237.59056,16.088571 C 237.6477,15.762857 237.84485,14.537143 238.47056,13.657143 L 240.39342,10.951428 z "
       style="font-style:normal;font-variant:normal;font-weight:normal;font-stretch:normal;letter-spacing:normal;word-spacing:normal;text-anchor:start;fill:#000000;fill-opacity:1;fill-rule:evenodd;stroke:#000000;stroke-width:0;stroke-linecap:butt;stroke-linejoin:miter;stroke-miterlimit:10.43299961;stroke-dasharray:none;stroke-dashoffset:0;stroke-opacity:1" />
    <path
       id="path7096"
       d="M 263.28447,14.328571 L 263.37876,14.277143 L 263.47304,14.225714 L 263.56447,14.174286 L 263.65304,14.12 L 263.73876,14.065714 L 263.82447,14.008571 L 263.90733,13.951428 L 263.98733,13.894286 L 264.06447,13.834286 L 264.13876,13.771428 L 264.21019,13.708571 L 264.28162,13.645714 L 264.34733,13.582857 L 264.41019,13.514286 L 264.47304,13.448571 L 264.53019,13.38 L 264.58447,13.311428 L 264.63876,13.24 L 264.68733,13.168571 L 264.73304,13.094286 L 264.7759,13.02 L 264.81304,12.942857 L 264.85019,12.865714 L 264.88162,12.788571 L 264.91019,12.708571 L 264.9359,12.628571 L 264.9559,12.548571 L 264.9759,12.465714 L 264.98733,12.38 L 264.99876,12.294286 L 265.00447,12.208571 L 265.00733,12.122857 C 265.00733,10.811428 263.73876,10 262.44447,10 L 262.43019,10.357143 C 263.47019,10.357143 264.38162,11.097143 264.38162,12.122857 C 264.38162,12.934286 263.82447,13.617143 262.97304,14.114286 L 261.20733,12.974286 C 260.55304,12.548571 260.4959,12.065714 260.4959,11.822857 C 260.4959,10.954285 261.42162,10.357143 262.43019,10.357143 L 262.44447,10 C 261.02162,10 259.87019,11.054285 259.87019,12.377143 C 259.87019,12.634286 259.8959,13.274286 260.4959,13.942857 C 260.65304,14.114286 261.17876,14.468571 261.5359,14.711429 L 261.86162,14.925714 C 262.25876,15.168571 262.93019,15.594286 263.61304,16.037143 C 264.01019,16.305714 264.67876,16.734286 264.67876,17.602857 C 264.67876,18.654286 263.61304,19.394286 262.44447,19.394286 C 261.22162,19.394286 260.1959,18.511429 260.1959,17.331429 C 260.1959,16.505714 260.65304,15.594286 261.86162,14.925714 L 261.86162,14.925714 L 261.5359,14.711429 C 260.71019,15.125714 259.48447,15.922857 259.48447,17.331429 C 259.48447,18.84 260.9359,19.794286 262.43019,19.794286 C 264.03876,19.794286 265.39304,18.611429 265.39304,17.088572 C 265.39304,16.577143 265.2359,15.937143 264.69304,15.337143 C 264.42447,15.04 264.1959,14.897143 263.28447,14.328571 z "
       style="font-style:normal;font-variant:normal;font-weight:normal;font-stretch:normal;letter-spacing:normal;word-spacing:normal;text-anchor:start;fill:#000000;fill-opacity:1;fill-rule:evenodd;stroke:#000000;stroke-width:0;stroke-linecap:butt;stroke-linejoin:miter;stroke-miterlimit:10.43299961;stroke-dasharray:none;stroke-dashoffset:0;stroke-opacity:1" />
    <path
       id="path7098"
       d="M 289.0798,14.954286 L 289.0798,15.408571 C 289.0798,18.74 287.5998,19.394286 286.77409,19.394286 C 286.53123,19.394286 285.76552,19.365714 285.3798,18.882857 C 286.00552,18.882857 286.1198,18.468572 286.1198,18.228572 C 286.1198,17.785714 285.7798,17.571429 285.46552,17.571429 C 285.23695,17.571429 284.81123,17.7 284.81123,18.254286 C 284.81123,19.208572 285.5798,19.794286 286.78838,19.794286 C 288.62552,19.794286 290.36266,17.857143 290.36266,14.797143 C 290.36266,10.968571 288.72266,10 287.45695,10 C 286.67409,10 285.97695,10.257143 285.36552,10.897143 C 284.78266,11.537143 284.45409,12.137143 284.45409,13.202857 C 284.45409,14.982857 285.70838,16.377143 287.2998,16.377143 L 287.31409,16.051429 C 287.08838,16.051429 286.43409,16.051429 285.99123,15.154286 C 285.73409,14.628571 285.73409,13.914286 285.73409,13.217143 C 285.73409,12.448571 285.73409,11.78 286.03409,11.254286 C 286.4198,10.542857 286.9598,10.357143 287.45695,10.357143 C 288.11409,10.357143 288.58266,10.84 288.82552,11.48 C 288.99409,11.937143 289.05123,12.834286 289.05123,13.488571 C 289.05123,14.668571 288.56838,16.051429 287.31409,16.051429 L 287.31409,16.051429 L 287.2998,16.377143 C 288.16838,16.377143 288.75409,15.78 289.0798,14.954286 z "
       style="font-style:normal;font-variant:normal;font-weight:normal;font-stretch:normal;letter-spacing:normal;word-spacing:normal;text-anchor:start;fill:#000000;fill-opacity:1;fill-rule:evenodd;stroke:#000000;stroke-width:0;stroke-linecap:butt;stroke-linejoin:miter;stroke-miterlimit:10.43299961;stroke-dasharray:none;stroke-dashoffset:0;stroke-opacity:1" />
    <g
       id="g7302"
       transform="translate(-1.4105854,-25)">
      <path
         style="font-style:normal;font-variant:normal;font-weight:normal;font-stretch:normal;letter-spacing:normal;word-spacing:normal;text-anchor:start;fill:#000000;fill-opacity:1;fill-rule:evenodd;stroke:#000000;stroke-width:0;stroke-linecap:butt;stroke-linejoin:miter;stroke-miterlimit:10.43299961;stroke-dasharray:none;stroke-dashoffset:0;stroke-opacity:1"
         d="M 310.49714,35.371428 L 310.49714,35.357143 L 310.49428,35.34 L 310.49428,35.325714 L 310.49428,35.311428 L 310.49428,35.297143 L 310.49428,35.282857 L 310.49428,35.271428 L 310.49428,35.257143 L 310.49428,35.245714 L 310.49428,35.234285 L 310.49428,35.222857 L 310.49428,35.211428 L 310.49428,35.2 L 310.49143,35.188571 L 310.49143,35.18 L 310.49143,35.168571 L 310.48857,35.16 L 310.48857,35.151428 L 310.48571,35.134285 L 310.48285,35.12 L 310.47714,35.105714 L 310.47428,35.091428 L 310.46857,35.08 L 310.46285,35.068571 L 310.45428,35.057143 L 310.44571,35.048571 L 310.43714,35.042857 L 310.42857,35.034285 L 310.41714,35.028571 L 310.40285,35.022857 L 310.39714,35.02 L 310.38857,35.017143 L 310.38285,35.017143 L 310.37428,35.014285 L 310.36571,35.011428 L 310.35714,35.011428 L 310.34857,35.008571 L 310.34,35.008571 L 310.33143,35.005714 L 310.32,35.005714 L 310.30857,35.005714 L 310.3,35.005714 L 310.28857,35.002857 L 310.27714,35.002857 L 310.26571,35.002857 L 310.25143,35.002857 L 310.24,35.002857 L 310.22571,35.002857 L 310.21143,35 L 310.19714,35 L 310.18285,35 L 310.16857,35 C 309.28571,35.911428 308.03428,35.911428 307.57714,35.911428 L 307.57714,36.354286 C 307.86285,36.354286 308.70285,36.354286 309.44285,35.982857 L 309.44285,43.357143 C 309.44285,43.868572 309.4,44.04 308.12,44.04 L 307.66285,44.04 L 307.66285,44.48 C 308.16285,44.437143 309.4,44.437143 309.96857,44.437143 C 310.53714,44.437143 311.77714,44.437143 312.27428,44.48 L 312.27428,44.04 L 311.82,44.04 C 310.53714,44.04 310.49714,43.882857 310.49714,43.357143 L 310.49714,35.371428 z "
         id="path7100" />
      <path
         style="font-style:normal;font-variant:normal;font-weight:normal;font-stretch:normal;letter-spacing:normal;word-spacing:normal;text-anchor:start;fill:#000000;fill-opacity:1;fill-rule:evenodd;stroke:#000000;stroke-width:0;stroke-linecap:butt;stroke-linejoin:miter;stroke-miterlimit:10.43299961;stroke-dasharray:none;stroke-dashoffset:0;stroke-opacity:1"
         d="M 320,39.925714 L 320,39.711429 L 319.99714,39.5 L 319.99143,39.285714 L 319.98285,39.074286 L 319.96857,38.86 L 319.95143,38.648571 L 319.93143,38.437143 L 319.90285,38.228571 L 319.87143,38.02 L 319.83143,37.811428 L 319.78571,37.605714 L 319.73143,37.4 L 319.66857,37.197143 L 319.6,36.994286 L 319.52,36.794286 L 319.47714,36.694286 L 319.43143,36.594286 C 318.77714,35.228571 317.61143,35 317.01143,35 C 316.16,35 315.12,35.371428 314.53428,36.694286 C 314.08,37.677143 314.00857,38.785714 314.00857,39.925714 C 314.00857,40.994286 314.06571,42.274286 314.64857,43.357143 C 315.26285,44.508572 316.3,44.794286 316.99714,44.794286 L 316.99714,44.48 C 316.44285,44.48 315.60285,44.122857 315.34857,42.757143 C 315.19143,41.902857 315.19143,40.594286 315.19143,39.754286 C 315.19143,38.842857 315.19143,37.905714 315.30571,37.137143 C 315.57428,35.442857 316.64285,35.314285 316.99714,35.314285 C 317.46857,35.314285 318.40857,35.571428 318.67714,36.98 C 318.82,37.777143 318.82,38.857143 318.82,39.754286 C 318.82,40.822857 318.82,41.791429 318.66285,42.7 C 318.44857,44.051429 317.64,44.48 316.99714,44.48 L 316.99714,44.48 L 316.99714,44.794286 C 317.76571,44.794286 318.84857,44.494286 319.47428,43.142857 C 319.92857,42.16 320,41.051429 320,39.925714 z "
         id="path7102" />
    </g>
    <g
       id="g7298"
       transform="translate(-1.7323799,-25)">
      <path
         style="font-style:normal;font-variant:normal;font-weight:normal;font-stretch:normal;letter-spacing:normal;word-spacing:normal;text-anchor:start;fill:#000000;fill-opacity:1;fill-rule:evenodd;stroke:#000000;stroke-width:0;stroke-linecap:butt;stroke-linejoin:miter;stroke-miterlimit:10.43299961;stroke-dasharray:none;stroke-dashoffset:0;stroke-opacity:1"
         d="M 336.08,35.371428 L 336.08,35.357143 L 336.07715,35.34 L 336.07715,35.325714 L 336.07715,35.311428 L 336.07715,35.297143 L 336.07715,35.282857 L 336.07715,35.271428 L 336.07715,35.257143 L 336.07715,35.245714 L 336.07715,35.234285 L 336.07715,35.222857 L 336.07715,35.211428 L 336.07715,35.2 L 336.07429,35.188571 L 336.07429,35.18 L 336.07429,35.168571 L 336.07143,35.16 L 336.07143,35.151428 L 336.06858,35.134285 L 336.06572,35.12 L 336.06,35.105714 L 336.05715,35.091428 L 336.05143,35.08 L 336.04572,35.068571 L 336.03715,35.057143 L 336.02858,35.048571 L 336.02,35.042857 L 336.01143,35.034285 L 336,35.028571 L 335.98572,35.022857 L 335.98,35.02 L 335.97143,35.017143 L 335.96572,35.017143 L 335.95715,35.014285 L 335.94858,35.011428 L 335.94,35.011428 L 335.93143,35.008571 L 335.92286,35.008571 L 335.91429,35.005714 L 335.90286,35.005714 L 335.89143,35.005714 L 335.88286,35.005714 L 335.87143,35.002857 L 335.86,35.002857 L 335.84858,35.002857 L 335.83429,35.002857 L 335.82286,35.002857 L 335.80858,35.002857 L 335.79429,35 L 335.78,35 L 335.76572,35 L 335.75143,35 C 334.86858,35.911428 333.61715,35.911428 333.16,35.911428 L 333.16,36.354286 C 333.44572,36.354286 334.28572,36.354286 335.02572,35.982857 L 335.02572,43.357143 C 335.02572,43.868572 334.98286,44.04 333.70286,44.04 L 333.24572,44.04 L 333.24572,44.48 C 333.74572,44.437143 334.98286,44.437143 335.55143,44.437143 C 336.12,44.437143 337.36,44.437143 337.85715,44.48 L 337.85715,44.04 L 337.40286,44.04 C 336.12,44.04 336.08,43.882857 336.08,43.357143 L 336.08,35.371428 z "
         id="path7104" />
      <path
         style="font-style:normal;font-variant:normal;font-weight:normal;font-stretch:normal;letter-spacing:normal;word-spacing:normal;text-anchor:start;fill:#000000;fill-opacity:1;fill-rule:evenodd;stroke:#000000;stroke-width:0;stroke-linecap:butt;stroke-linejoin:miter;stroke-miterlimit:10.43299961;stroke-dasharray:none;stroke-dashoffset:0;stroke-opacity:1"
         d="M 343.22286,35.371428 L 343.22286,35.357143 L 343.22,35.34 L 343.22,35.325714 L 343.22,35.311428 L 343.22,35.297143 L 343.22,35.282857 L 343.22,35.271428 L 343.22,35.257143 L 343.22,35.245714 L 343.22,35.234285 L 343.22,35.222857 L 343.22,35.211428 L 343.22,35.2 L 343.21715,35.188571 L 343.21715,35.18 L 343.21715,35.168571 L 343.21429,35.16 L 343.21429,35.151428 L 343.21143,35.134285 L 343.20858,35.12 L 343.20286,35.105714 L 343.2,35.091428 L 343.19429,35.08 L 343.18858,35.068571 L 343.18,35.057143 L 343.17143,35.048571 L 343.16286,35.042857 L 343.15429,35.034285 L 343.14286,35.028571 L 343.12858,35.022857 L 343.12286,35.02 L 343.11429,35.017143 L 343.10858,35.017143 L 343.1,35.014285 L 343.09143,35.011428 L 343.08286,35.011428 L 343.07429,35.008571 L 343.06572,35.008571 L 343.05715,35.005714 L 343.04572,35.005714 L 343.03429,35.005714 L 343.02572,35.005714 L 343.01429,35.002857 L 343.00286,35.002857 L 342.99143,35.002857 L 342.97715,35.002857 L 342.96572,35.002857 L 342.95143,35.002857 L 342.93715,35 L 342.92286,35 L 342.90858,35 L 342.89429,35 C 342.01143,35.911428 340.76,35.911428 340.30286,35.911428 L 340.30286,36.354286 C 340.58858,36.354286 341.42858,36.354286 342.16858,35.982857 L 342.16858,43.357143 C 342.16858,43.868572 342.12572,44.04 340.84572,44.04 L 340.38858,44.04 L 340.38858,44.48 C 340.88858,44.437143 342.12572,44.437143 342.69429,44.437143 C 343.26286,44.437143 344.50286,44.437143 345,44.48 L 345,44.04 L 344.54572,44.04 C 343.26286,44.04 343.22286,43.882857 343.22286,43.357143 L 343.22286,35.371428 z "
         id="path7106" />
    </g>
    <g
       id="g7294"
       transform="translate(-1.5484982,-25)">
      <path
         style="font-style:normal;font-variant:normal;font-weight:normal;font-stretch:normal;letter-spacing:normal;word-spacing:normal;text-anchor:start;fill:#000000;fill-opacity:1;fill-rule:evenodd;stroke:#000000;stroke-width:0;stroke-linecap:butt;stroke-linejoin:miter;stroke-miterlimit:10.43299961;stroke-dasharray:none;stroke-dashoffset:0;stroke-opacity:1"
         d="M 360.65143,35.371428 L 360.65143,35.357143 L 360.64857,35.34 L 360.64857,35.325714 L 360.64857,35.311428 L 360.64857,35.297143 L 360.64857,35.282857 L 360.64857,35.271428 L 360.64857,35.257143 L 360.64857,35.245714 L 360.64857,35.234285 L 360.64857,35.222857 L 360.64857,35.211428 L 360.64857,35.2 L 360.64572,35.188571 L 360.64572,35.18 L 360.64572,35.168571 L 360.64286,35.16 L 360.64286,35.151428 L 360.64,35.134285 L 360.63714,35.12 L 360.63143,35.105714 L 360.62857,35.091428 L 360.62286,35.08 L 360.61714,35.068571 L 360.60857,35.057143 L 360.6,35.048571 L 360.59143,35.042857 L 360.58286,35.034285 L 360.57143,35.028571 L 360.55714,35.022857 L 360.55143,35.02 L 360.54286,35.017143 L 360.53714,35.017143 L 360.52857,35.014285 L 360.52,35.011428 L 360.51143,35.011428 L 360.50286,35.008571 L 360.49429,35.008571 L 360.48572,35.005714 L 360.47429,35.005714 L 360.46286,35.005714 L 360.45429,35.005714 L 360.44286,35.002857 L 360.43143,35.002857 L 360.42,35.002857 L 360.40572,35.002857 L 360.39429,35.002857 L 360.38,35.002857 L 360.36572,35 L 360.35143,35 L 360.33714,35 L 360.32286,35 C 359.44,35.911428 358.18857,35.911428 357.73143,35.911428 L 357.73143,36.354286 C 358.01714,36.354286 358.85714,36.354286 359.59714,35.982857 L 359.59714,43.357143 C 359.59714,43.868572 359.55429,44.04 358.27429,44.04 L 357.81714,44.04 L 357.81714,44.48 C 358.31714,44.437143 359.55429,44.437143 360.12286,44.437143 C 360.69143,44.437143 361.93143,44.437143 362.42857,44.48 L 362.42857,44.04 L 361.97429,44.04 C 360.69143,44.04 360.65143,43.882857 360.65143,43.357143 L 360.65143,35.371428 z "
         id="path7108" />
      <path
         style="font-style:normal;font-variant:normal;font-weight:normal;font-stretch:normal;letter-spacing:normal;word-spacing:normal;text-anchor:start;fill:#000000;fill-opacity:1;fill-rule:evenodd;stroke:#000000;stroke-width:0;stroke-linecap:butt;stroke-linejoin:miter;stroke-miterlimit:10.43299961;stroke-dasharray:none;stroke-dashoffset:0;stroke-opacity:1"
         d="M 370,42.002857 L 369.64286,42.002857 C 369.57143,42.431429 369.47143,43.057143 369.32857,43.271429 C 369.23143,43.382857 368.29143,43.382857 367.97714,43.382857 L 365.41714,43.382857 L 366.92286,41.92 C 369.14572,39.954286 370,39.185714 370,37.762857 C 370,36.14 368.71714,35 366.98,35 C 365.37429,35 364.32,36.311428 364.32,37.577143 C 364.32,38.374286 365.03143,38.374286 365.07429,38.374286 C 365.31714,38.374286 365.81429,38.202857 365.81429,37.62 C 365.81429,37.251428 365.55714,36.88 365.06,36.88 C 364.94572,36.88 364.91714,36.88 364.87429,36.894286 C 365.20286,35.968571 365.97143,35.442857 366.79714,35.442857 C 368.09143,35.442857 368.70286,36.594286 368.70286,37.762857 C 368.70286,38.9 367.99143,40.025714 367.20857,40.908571 L 364.47714,43.954286 C 364.32,44.108572 364.32,44.137143 364.32,44.48 L 369.6,44.48 L 370,42.002857 z "
         id="path7110" />
    </g>
    <g
       id="g7290"
       transform="translate(-1.5217209,-25)">
      <path
         style="font-style:normal;font-variant:normal;font-weight:normal;font-stretch:normal;letter-spacing:normal;word-spacing:normal;text-anchor:start;fill:#000000;fill-opacity:1;fill-rule:evenodd;stroke:#000000;stroke-width:0;stroke-linecap:butt;stroke-linejoin:miter;stroke-miterlimit:10.43299961;stroke-dasharray:none;stroke-dashoffset:0;stroke-opacity:1"
         d="M 385.53714,35.371428 L 385.53714,35.357143 L 385.53429,35.34 L 385.53429,35.325714 L 385.53429,35.311428 L 385.53429,35.297143 L 385.53429,35.282857 L 385.53429,35.271428 L 385.53429,35.257143 L 385.53429,35.245714 L 385.53429,35.234285 L 385.53429,35.222857 L 385.53429,35.211428 L 385.53429,35.2 L 385.53143,35.188571 L 385.53143,35.18 L 385.53143,35.168571 L 385.52857,35.16 L 385.52857,35.151428 L 385.52572,35.134285 L 385.52286,35.12 L 385.51714,35.105714 L 385.51429,35.091428 L 385.50857,35.08 L 385.50286,35.068571 L 385.49429,35.057143 L 385.48572,35.048571 L 385.47714,35.042857 L 385.46857,35.034285 L 385.45714,35.028571 L 385.44286,35.022857 L 385.43714,35.02 L 385.42857,35.017143 L 385.42286,35.017143 L 385.41429,35.014285 L 385.40572,35.011428 L 385.39714,35.011428 L 385.38857,35.008571 L 385.38,35.008571 L 385.37143,35.005714 L 385.36,35.005714 L 385.34857,35.005714 L 385.34,35.005714 L 385.32857,35.002857 L 385.31714,35.002857 L 385.30572,35.002857 L 385.29143,35.002857 L 385.28,35.002857 L 385.26572,35.002857 L 385.25143,35 L 385.23714,35 L 385.22286,35 L 385.20857,35 C 384.32572,35.911428 383.07429,35.911428 382.61714,35.911428 L 382.61714,36.354286 C 382.90286,36.354286 383.74286,36.354286 384.48286,35.982857 L 384.48286,43.357143 C 384.48286,43.868572 384.44,44.04 383.16,44.04 L 382.70286,44.04 L 382.70286,44.48 C 383.20286,44.437143 384.44,44.437143 385.00857,44.437143 C 385.57714,44.437143 386.81714,44.437143 387.31429,44.48 L 387.31429,44.04 L 386.86,44.04 C 385.57714,44.04 385.53714,43.882857 385.53714,43.357143 L 385.53714,35.371428 z "
         id="path7112" />
      <path
         style="font-style:normal;font-variant:normal;font-weight:normal;font-stretch:normal;letter-spacing:normal;word-spacing:normal;text-anchor:start;fill:#000000;fill-opacity:1;fill-rule:evenodd;stroke:#000000;stroke-width:0;stroke-linecap:butt;stroke-linejoin:miter;stroke-miterlimit:10.43299961;stroke-dasharray:none;stroke-dashoffset:0;stroke-opacity:1"
         d="M 392.62286,39.468571 L 392.72857,39.431429 L 392.83714,39.391429 L 392.94,39.345714 L 393.04286,39.297143 L 393.14286,39.245714 L 393.24,39.191429 L 393.33429,39.134286 L 393.42572,39.074286 L 393.51429,39.011428 L 393.6,38.945714 L 393.68572,38.877143 L 393.76572,38.805714 L 393.84286,38.731428 L 393.91714,38.654286 L 393.98857,38.577143 L 394.05429,38.494286 L 394.12,38.411428 L 394.18,38.325714 L 394.23714,38.24 L 394.29143,38.151428 L 394.34,38.06 L 394.38572,37.965714 L 394.42857,37.871428 L 394.46572,37.777143 L 394.5,37.68 L 394.52857,37.58 L 394.55429,37.48 L 394.57714,37.38 L 394.59143,37.277143 L 394.60286,37.174286 L 394.61143,37.071428 L 394.61429,36.965714 C 394.61429,35.797143 393.36,35 391.99429,35 C 390.55714,35 389.47714,35.854285 389.47714,36.937143 C 389.47714,37.405714 389.78857,37.677143 390.20286,37.677143 C 390.64286,37.677143 390.92857,37.362857 390.92857,36.951428 C 390.92857,36.24 390.26,36.24 390.04572,36.24 C 390.48572,35.542857 391.42572,35.357143 391.93714,35.357143 C 392.52286,35.357143 393.30572,35.668571 393.30572,36.951428 C 393.30572,37.122857 393.27714,37.948571 392.90572,38.574286 C 392.48,39.257143 391.99429,39.3 391.64,39.314286 C 391.52572,39.328571 391.18286,39.357143 391.08572,39.357143 C 390.97143,39.371429 390.87143,39.385714 390.87143,39.525714 C 390.87143,39.682857 390.97143,39.682857 391.21429,39.682857 L 391.84,39.682857 C 393.00572,39.682857 393.53143,40.651429 393.53143,42.045714 C 393.53143,43.982857 392.55143,44.394286 391.92286,44.394286 C 391.31143,44.394286 390.24572,44.154286 389.74572,43.311429 C 390.24572,43.382857 390.68572,43.071429 390.68572,42.531429 C 390.68572,42.017143 390.30286,41.734286 389.88857,41.734286 C 389.54857,41.734286 389.09143,41.931429 389.09143,42.557143 C 389.09143,43.854286 390.41714,44.794286 391.96857,44.794286 C 393.70286,44.794286 395,43.497143 395,42.045714 C 395,40.88 394.10286,39.768571 392.62286,39.468571 z "
         id="path7114" />
    </g>
    <g
       id="g7286"
       transform="translate(0.9664516,-25)">
      <path
         style="font-style:normal;font-variant:normal;font-weight:normal;font-stretch:normal;letter-spacing:normal;word-spacing:normal;text-anchor:start;fill:#000000;fill-opacity:1;fill-rule:evenodd;stroke:#000000;stroke-width:0;stroke-linecap:butt;stroke-linejoin:miter;stroke-miterlimit:10.43299961;stroke-dasharray:none;stroke-dashoffset:0;stroke-opacity:1"
         d="M 407.92,35.525714 L 407.92,35.511429 L 407.91714,35.494286 L 407.91714,35.48 L 407.91714,35.465714 L 407.91714,35.451429 L 407.91714,35.437143 L 407.91714,35.425714 L 407.91714,35.411429 L 407.91714,35.4 L 407.91714,35.388571 L 407.91714,35.377143 L 407.91714,35.365714 L 407.91714,35.354286 L 407.91429,35.342857 L 407.91429,35.334286 L 407.91429,35.322857 L 407.91143,35.314286 L 407.91143,35.305714 L 407.90857,35.288571 L 407.90571,35.274286 L 407.9,35.26 L 407.89714,35.245714 L 407.89143,35.234286 L 407.88571,35.222857 L 407.87714,35.211429 L 407.86857,35.202857 L 407.86,35.197143 L 407.85143,35.188571 L 407.84,35.182857 L 407.82571,35.177143 L 407.82,35.174286 L 407.81143,35.171429 L 407.80571,35.171429 L 407.79714,35.168571 L 407.78857,35.165714 L 407.78,35.165714 L 407.77143,35.162857 L 407.76286,35.162857 L 407.75429,35.16 L 407.74286,35.16 L 407.73143,35.16 L 407.72286,35.16 L 407.71143,35.157143 L 407.7,35.157143 L 407.68857,35.157143 L 407.67429,35.157143 L 407.66286,35.157143 L 407.64857,35.157143 L 407.63429,35.154286 L 407.62,35.154286 L 407.60571,35.154286 L 407.59143,35.154286 C 406.70857,36.065714 405.45714,36.065714 405,36.065714 L 405,36.508572 C 405.28571,36.508572 406.12571,36.508572 406.86571,36.137143 L 406.86571,43.511429 C 406.86571,44.022858 406.82286,44.194286 405.54286,44.194286 L 405.08571,44.194286 L 405.08571,44.634286 C 405.58571,44.591429 406.82286,44.591429 407.39143,44.591429 C 407.96,44.591429 409.2,44.591429 409.69714,44.634286 L 409.69714,44.194286 L 409.24286,44.194286 C 407.96,44.194286 407.92,44.037143 407.92,43.511429 L 407.92,35.525714 z "
         id="path7116" />
      <path
         style="font-style:normal;font-variant:normal;font-weight:normal;font-stretch:normal;letter-spacing:normal;word-spacing:normal;text-anchor:start;fill:#000000;fill-opacity:1;fill-rule:evenodd;stroke:#000000;stroke-width:0;stroke-linecap:butt;stroke-linejoin:miter;stroke-miterlimit:10.43299961;stroke-dasharray:none;stroke-dashoffset:0;stroke-opacity:1"
         d="M 411.27714,42.285715 L 415.06286,42.285715 L 415.06286,43.522858 C 415.06286,44.037143 415.03429,44.194286 413.98,44.194286 L 413.68,44.194286 L 413.68,44.634286 C 414.26286,44.591429 415.00571,44.591429 415.60286,44.591429 C 416.2,44.591429 416.95429,44.591429 417.53714,44.634286 L 417.53714,44.194286 L 417.24,44.194286 C 416.18571,44.194286 416.15714,44.037143 416.15714,43.522858 L 416.15714,42.285715 L 417.58,42.285715 L 417.58,41.845715 L 416.15714,41.845715 L 416.15714,35.368571 C 416.15714,35.082857 416.15714,35 415.92857,35 C 415.8,35 415.76,35 415.64571,35.168571 L 411.27714,41.845715 L 411.67429,41.845715 L 415.14857,36.537143 L 415.14857,41.845715 L 411.67429,41.845715 L 411.27714,41.845715 L 411.27714,42.285715 z "
         id="path7118" />
    </g>
    <g
       id="g7282"
       transform="translate(1.0918007,-25)">
      <path
         style="font-style:normal;font-variant:normal;font-weight:normal;font-stretch:normal;letter-spacing:normal;word-spacing:normal;text-anchor:start;fill:#000000;fill-opacity:1;fill-rule:evenodd;stroke:#000000;stroke-width:0;stroke-linecap:butt;stroke-linejoin:miter;stroke-miterlimit:10.43299961;stroke-dasharray:none;stroke-dashoffset:0;stroke-opacity:1"
         d="M 432.92,35.371428 L 432.92,35.357143 L 432.91714,35.34 L 432.91714,35.325714 L 432.91714,35.311428 L 432.91714,35.297143 L 432.91714,35.282857 L 432.91714,35.271428 L 432.91714,35.257143 L 432.91714,35.245714 L 432.91714,35.234285 L 432.91714,35.222857 L 432.91714,35.211428 L 432.91714,35.2 L 432.91429,35.188571 L 432.91429,35.18 L 432.91429,35.168571 L 432.91143,35.16 L 432.91143,35.151428 L 432.90857,35.134285 L 432.90571,35.12 L 432.9,35.105714 L 432.89714,35.091428 L 432.89143,35.08 L 432.88571,35.068571 L 432.87714,35.057143 L 432.86857,35.048571 L 432.86,35.042857 L 432.85143,35.034285 L 432.84,35.028571 L 432.82571,35.022857 L 432.82,35.02 L 432.81143,35.017143 L 432.80571,35.017143 L 432.79714,35.014285 L 432.78857,35.011428 L 432.78,35.011428 L 432.77143,35.008571 L 432.76286,35.008571 L 432.75429,35.005714 L 432.74286,35.005714 L 432.73143,35.005714 L 432.72286,35.005714 L 432.71143,35.002857 L 432.7,35.002857 L 432.68857,35.002857 L 432.67429,35.002857 L 432.66286,35.002857 L 432.64857,35.002857 L 432.63429,35 L 432.62,35 L 432.60571,35 L 432.59143,35 C 431.70857,35.911428 430.45714,35.911428 430,35.911428 L 430,36.354286 C 430.28571,36.354286 431.12571,36.354286 431.86571,35.982857 L 431.86571,43.357143 C 431.86571,43.868572 431.82286,44.04 430.54286,44.04 L 430.08571,44.04 L 430.08571,44.48 C 430.58571,44.437143 431.82286,44.437143 432.39143,44.437143 C 432.96,44.437143 434.2,44.437143 434.69714,44.48 L 434.69714,44.04 L 434.24286,44.04 C 432.96,44.04 432.92,43.882857 432.92,43.357143 L 432.92,35.371428 z "
         id="path7120" />
      <path
         style="font-style:normal;font-variant:normal;font-weight:normal;font-stretch:normal;letter-spacing:normal;word-spacing:normal;text-anchor:start;fill:#000000;fill-opacity:1;fill-rule:evenodd;stroke:#000000;stroke-width:0;stroke-linecap:butt;stroke-linejoin:miter;stroke-miterlimit:10.43299961;stroke-dasharray:none;stroke-dashoffset:0;stroke-opacity:1"
         d="M 442.26857,41.62 L 442.26571,41.462857 L 442.25429,41.305714 L 442.23714,41.151429 L 442.21429,41 L 442.18571,40.848571 L 442.14857,40.702857 L 442.10857,40.56 L 442.06,40.417143 L 442.00857,40.28 L 441.95143,40.145714 L 441.88571,40.014286 L 441.81714,39.888571 L 441.74286,39.765714 L 441.66286,39.648571 L 441.58,39.534286 L 441.49143,39.425714 L 441.4,39.322857 L 441.30286,39.222857 L 441.2,39.128571 L 441.09429,39.042857 L 440.98571,38.96 L 440.87143,38.882857 L 440.75429,38.814286 L 440.63429,38.751428 L 440.51143,38.694286 L 440.38286,38.645714 L 440.25429,38.602857 L 440.12,38.565714 L 439.98571,38.54 L 439.84571,38.52 L 439.70571,38.505714 L 439.56286,38.502857 C 438.88,38.502857 438.26857,38.728571 437.75429,39.228571 L 437.75429,36.454286 C 438.04,36.537143 438.51143,36.637143 438.96571,36.637143 C 440.71714,36.637143 441.71143,35.342857 441.71143,35.157143 C 441.71143,35.071428 441.66857,35 441.57143,35 C 441.55714,35 441.52857,35 441.45714,35.042857 C 441.17143,35.171428 440.47429,35.457143 439.52,35.457143 C 438.95143,35.457143 438.29714,35.357143 437.62857,35.057143 C 437.51429,35.014285 437.48571,35.014285 437.45714,35.014285 C 437.31429,35.014285 437.31429,35.128571 437.31429,35.357143 L 437.31429,39.571429 C 437.31429,39.825714 437.31429,39.94 437.51429,39.94 C 437.61429,39.94 437.64286,39.897143 437.7,39.811429 C 437.85714,39.582857 438.38286,38.817143 439.53429,38.817143 C 440.27429,38.817143 440.63143,39.468571 440.74286,39.725714 C 440.97143,40.254286 441,40.808571 441,41.52 C 441,42.017143 441,42.871429 440.66,43.468572 C 440.31714,44.025714 439.79143,44.394286 439.13714,44.394286 C 438.09714,44.394286 437.28571,43.64 437.04571,42.8 C 437.08571,42.814286 437.12857,42.828572 437.28571,42.828572 C 437.75429,42.828572 437.99714,42.474286 437.99714,42.131429 C 437.99714,41.791429 437.75429,41.434286 437.28571,41.434286 C 437.08571,41.434286 436.58857,41.534286 436.58857,42.188572 C 436.58857,43.414286 437.57143,44.794286 439.16571,44.794286 C 440.81429,44.794286 442.26857,43.425714 442.26857,41.62 z "
         id="path7122" />
    </g>
    <g
       id="g7278"
       transform="translate(0.9999866,-25)">
      <path
         style="font-style:normal;font-variant:normal;font-weight:normal;font-stretch:normal;letter-spacing:normal;word-spacing:normal;text-anchor:start;fill:#000000;fill-opacity:1;fill-rule:evenodd;stroke:#000000;stroke-width:0;stroke-linecap:butt;stroke-linejoin:miter;stroke-miterlimit:10.43299961;stroke-dasharray:none;stroke-dashoffset:0;stroke-opacity:1"
         d="M 457.92,35.371428 L 457.92,35.357143 L 457.91714,35.34 L 457.91714,35.325714 L 457.91714,35.311428 L 457.91714,35.297143 L 457.91714,35.282857 L 457.91714,35.271428 L 457.91714,35.257143 L 457.91714,35.245714 L 457.91714,35.234285 L 457.91714,35.222857 L 457.91714,35.211428 L 457.91714,35.2 L 457.91428,35.188571 L 457.91428,35.18 L 457.91428,35.168571 L 457.91142,35.16 L 457.91142,35.151428 L 457.90857,35.134285 L 457.90571,35.12 L 457.9,35.105714 L 457.89714,35.091428 L 457.89142,35.08 L 457.88571,35.068571 L 457.87714,35.057143 L 457.86857,35.048571 L 457.86,35.042857 L 457.85142,35.034285 L 457.84,35.028571 L 457.82571,35.022857 L 457.82,35.02 L 457.81142,35.017143 L 457.80571,35.017143 L 457.79714,35.014285 L 457.78857,35.011428 L 457.78,35.011428 L 457.77142,35.008571 L 457.76285,35.008571 L 457.75428,35.005714 L 457.74285,35.005714 L 457.73142,35.005714 L 457.72285,35.005714 L 457.71142,35.002857 L 457.7,35.002857 L 457.68857,35.002857 L 457.67428,35.002857 L 457.66285,35.002857 L 457.64857,35.002857 L 457.63428,35 L 457.62,35 L 457.60571,35 L 457.59142,35 C 456.70857,35.911428 455.45714,35.911428 455,35.911428 L 455,36.354286 C 455.28571,36.354286 456.12571,36.354286 456.86571,35.982857 L 456.86571,43.357143 C 456.86571,43.868572 456.82285,44.04 455.54285,44.04 L 455.08571,44.04 L 455.08571,44.48 C 455.58571,44.437143 456.82285,44.437143 457.39142,44.437143 C 457.96,44.437143 459.2,44.437143 459.69714,44.48 L 459.69714,44.04 L 459.24285,44.04 C 457.96,44.04 457.92,43.882857 457.92,43.357143 L 457.92,35.371428 z "
         id="path7124" />
      <path
         style="font-style:normal;font-variant:normal;font-weight:normal;font-stretch:normal;letter-spacing:normal;word-spacing:normal;text-anchor:start;fill:#000000;fill-opacity:1;fill-rule:evenodd;stroke:#000000;stroke-width:0;stroke-linecap:butt;stroke-linejoin:miter;stroke-miterlimit:10.43299961;stroke-dasharray:none;stroke-dashoffset:0;stroke-opacity:1"
         d="M 462.76285,39.811429 L 462.76285,39.468571 C 462.76285,35.868571 464.53428,35.357143 465.24857,35.357143 C 465.59142,35.357143 466.19142,35.442857 466.50571,35.925714 C 466.27714,35.925714 465.70571,35.925714 465.70571,36.565714 C 465.70571,37.008571 466.04857,37.22 466.36285,37.22 C 466.59142,37.22 467.02,37.094286 467.02,36.537143 C 467.02,35.682857 466.39142,35 465.22,35 C 463.39142,35 461.47714,36.837143 461.47714,39.982857 C 461.47714,43.782857 463.13428,44.794286 464.44857,44.794286 C 466.02,44.794286 467.39142,43.454286 467.39142,41.577143 C 467.39142,39.768571 466.10571,38.402857 464.53428,38.402857 L 464.53428,38.728571 C 464.73428,38.728571 465.39142,38.728571 465.84857,39.611429 C 466.10571,40.14 466.10571,40.865714 466.10571,41.562857 C 466.10571,42.245714 466.10571,42.957143 465.84857,43.468572 C 465.42,44.322857 464.79142,44.394286 464.44857,44.394286 L 464.44857,44.394286 C 463.56285,44.394286 463.13428,43.54 463.04857,43.325714 C 462.79142,42.657143 462.79142,41.52 462.79142,41.262857 C 462.79142,40.154286 463.24857,38.728571 464.53428,38.728571 L 464.53428,38.402857 C 463.56285,38.402857 463.04857,39.128571 462.76285,39.811429 z "
         id="path7126" />
    </g>
    <path
       sodipodi:type="arc"
       style="opacity:1;fill:#000000;fill-opacity:1;fill-rule:nonzero;stroke:none;stroke-width:2;stroke-linecap:butt;stroke-miterlimit:4;stroke-dasharray:none;stroke-dashoffset:0;stroke-opacity:1"
       id="path7306"
       sodipodi:cx="402.5"
       sodipodi:cy="107.5"
       sodipodi:rx="2.5"
       sodipodi:ry="2.5"
       d="M 405 107.5 A 2.5 2.5 0 1 1  400,107.5 A 2.5 2.5 0 1 1  405 107.5 z"
       transform="translate(97.5,-62.5)" />
    <path
       sodipodi:type="arc"
       style="opacity:1;fill:#000000;fill-opacity:1;fill-rule:nonzero;stroke:none;stroke-width:2;stroke-linecap:butt;stroke-miterlimit:4;stroke-dasharray:none;stroke-dashoffset:0;stroke-opacity:1"
       id="path7310"
       sodipodi:cx="122.5"
       sodipodi:cy="142.5"
       sodipodi:rx="2.5"
       sodipodi:ry="2.5"
       d="M 125 142.5 A 2.5 2.5 0 1 1  120,142.5 A 2.5 2.5 0 1 1  125 142.5 z"
       transform="translate(2.5,-32.5)" />
    <path
       sodipodi:type="arc"
       style="opacity:1;fill:#000000;fill-opacity:1;fill-rule:nonzero;stroke:none;stroke-width:2;stroke-linecap:butt;stroke-miterlimit:4;stroke-dasharray:none;stroke-dashoffset:0;stroke-opacity:1"
       id="path7313"
       sodipodi:cx="122.5"
       sodipodi:cy="142.5"
       sodipodi:rx="2.5"
       sodipodi:ry="2.5"
       d="M 125 142.5 A 2.5 2.5 0 1 1  120,142.5 A 2.5 2.5 0 1 1  125 142.5 z"
       transform="translate(27.5,-32.5)" />
    <path
       sodipodi:type="arc"
       style="opacity:1;fill:#000000;fill-opacity:1;fill-rule:nonzero;stroke:none;stroke-width:2;stroke-linecap:butt;stroke-miterlimit:4;stroke-dasharray:none;stroke-dashoffset:0;stroke-opacity:1"
       id="path7315"
       sodipodi:cx="122.5"
       sodipodi:cy="142.5"
       sodipodi:rx="2.5"
       sodipodi:ry="2.5"
       d="M 125 142.5 A 2.5 2.5 0 1 1  120,142.5 A 2.5 2.5 0 1 1  125 142.5 z"
       transform="translate(77.5,-32.5)" />
    <g
       id="g7339"
       transform="translate(76,-24.884934)">
      <path
         sodipodi:open="true"
         sodipodi:end="3.1415927"
         sodipodi:start="0"
         transform="matrix(0.72,0,0,0.72,56.6,9.5)"
         d="M 245,112.5 A 12.5,12.5 0 1 1 220,112.5"
         sodipodi:ry="12.5"
         sodipodi:rx="12.5"
         sodipodi:cy="112.5"
         sodipodi:cx="232.5"
         id="path7341"
         style="opacity:1;fill:none;fill-opacity:1;fill-rule:nonzero;stroke:#000000;stroke-width:2.77777767;stroke-linecap:butt;stroke-miterlimit:4;stroke-dasharray:none;stroke-dashoffset:0;stroke-opacity:1"
         sodipodi:type="arc" />
      <path
         d="M 231.91933,94.670596 L 230.05126,93.956262 L 233.62014,90.222789 L 233.78741,95.384934 L 231.91933,94.670596 z "
         id="path7343"
         style="fill:#000000;fill-rule:evenodd;stroke:#000000;stroke-width:1px;stroke-linecap:butt;stroke-linejoin:miter;stroke-opacity:1" />
    </g>
    <g
       id="g7345"
       transform="translate(100.21259,-25)">
      <path
         sodipodi:open="true"
         sodipodi:end="3.1415927"
         sodipodi:start="0"
         transform="matrix(0.72,0,0,0.72,56.6,9.5)"
         d="M 245,112.5 A 12.5,12.5 0 1 1 220,112.5"
         sodipodi:ry="12.5"
         sodipodi:rx="12.5"
         sodipodi:cy="112.5"
         sodipodi:cx="232.5"
         id="path7347"
         style="opacity:1;fill:none;fill-opacity:1;fill-rule:nonzero;stroke:#000000;stroke-width:2.77777767;stroke-linecap:butt;stroke-miterlimit:4;stroke-dasharray:none;stroke-dashoffset:0;stroke-opacity:1"
         sodipodi:type="arc" />
      <path
         d="M 231.91933,94.670596 L 230.05126,93.956262 L 233.62014,90.222789 L 233.78741,95.384934 L 231.91933,94.670596 z "
         id="path7349"
         style="fill:#000000;fill-rule:evenodd;stroke:#000000;stroke-width:1px;stroke-linecap:butt;stroke-linejoin:miter;stroke-opacity:1" />
    </g>
    <g
       id="g7351"
       transform="translate(125,-25)">
      <path
         sodipodi:open="true"
         sodipodi:end="3.1415927"
         sodipodi:start="0"
         transform="matrix(0.72,0,0,0.72,56.6,9.5)"
         d="M 245,112.5 A 12.5,12.5 0 1 1 220,112.5"
         sodipodi:ry="12.5"
         sodipodi:rx="12.5"
         sodipodi:cy="112.5"
         sodipodi:cx="232.5"
         id="path7353"
         style="opacity:1;fill:none;fill-opacity:1;fill-rule:nonzero;stroke:#000000;stroke-width:2.77777767;stroke-linecap:butt;stroke-miterlimit:4;stroke-dasharray:none;stroke-dashoffset:0;stroke-opacity:1"
         sodipodi:type="arc" />
      <path
         d="M 231.91933,94.670596 L 230.05126,93.956262 L 233.62014,90.222789 L 233.78741,95.384934 L 231.91933,94.670596 z "
         id="path7355"
         style="fill:#000000;fill-rule:evenodd;stroke:#000000;stroke-width:1px;stroke-linecap:butt;stroke-linejoin:miter;stroke-opacity:1" />
    </g>
    <g
       id="g7357"
       transform="translate(150,-25)">
      <path
         sodipodi:open="true"
         sodipodi:end="3.1415927"
         sodipodi:start="0"
         transform="matrix(0.72,0,0,0.72,56.6,9.5)"
         d="M 245,112.5 A 12.5,12.5 0 1 1 220,112.5"
         sodipodi:ry="12.5"
         sodipodi:rx="12.5"
         sodipodi:cy="112.5"
         sodipodi:cx="232.5"
         id="path7359"
         style="opacity:1;fill:none;fill-opacity:1;fill-rule:nonzero;stroke:#000000;stroke-width:2.77777767;stroke-linecap:butt;stroke-miterlimit:4;stroke-dasharray:none;stroke-dashoffset:0;stroke-opacity:1"
         sodipodi:type="arc" />
      <path
         d="M 231.91933,94.670596 L 230.05126,93.956262 L 233.62014,90.222789 L 233.78741,95.384934 L 231.91933,94.670596 z "
         id="path7361"
         style="fill:#000000;fill-rule:evenodd;stroke:#000000;stroke-width:1px;stroke-linecap:butt;stroke-linejoin:miter;stroke-opacity:1" />
    </g>
    <g
       id="g7363"
       transform="translate(175,-25)">
      <path
         sodipodi:open="true"
         sodipodi:end="3.1415927"
         sodipodi:start="0"
         transform="matrix(0.72,0,0,0.72,56.6,9.5)"
         d="M 245,112.5 A 12.5,12.5 0 1 1 220,112.5"
         sodipodi:ry="12.5"
         sodipodi:rx="12.5"
         sodipodi:cy="112.5"
         sodipodi:cx="232.5"
         id="path7365"
         style="opacity:1;fill:none;fill-opacity:1;fill-rule:nonzero;stroke:#000000;stroke-width:2.77777767;stroke-linecap:butt;stroke-miterlimit:4;stroke-dasharray:none;stroke-dashoffset:0;stroke-opacity:1"
         sodipodi:type="arc" />
      <path
         d="M 231.91933,94.670596 L 230.05126,93.956262 L 233.62014,90.222789 L 233.78741,95.384934 L 231.91933,94.670596 z "
         id="path7367"
         style="fill:#000000;fill-rule:evenodd;stroke:#000000;stroke-width:1px;stroke-linecap:butt;stroke-linejoin:miter;stroke-opacity:1" />
    </g>
    <g
       id="g7369"
       transform="translate(200,-25)">
      <path
         sodipodi:open="true"
         sodipodi:end="3.1415927"
         sodipodi:start="0"
         transform="matrix(0.72,0,0,0.72,56.6,9.5)"
         d="M 245,112.5 A 12.5,12.5 0 1 1 220,112.5"
         sodipodi:ry="12.5"
         sodipodi:rx="12.5"
         sodipodi:cy="112.5"
         sodipodi:cx="232.5"
         id="path7371"
         style="opacity:1;fill:none;fill-opacity:1;fill-rule:nonzero;stroke:#000000;stroke-width:2.77777767;stroke-linecap:butt;stroke-miterlimit:4;stroke-dasharray:none;stroke-dashoffset:0;stroke-opacity:1"
         sodipodi:type="arc" />
      <path
         d="M 231.91933,94.670596 L 230.05126,93.956262 L 233.62014,90.222789 L 233.78741,95.384934 L 231.91933,94.670596 z "
         id="path7373"
         style="fill:#000000;fill-rule:evenodd;stroke:#000000;stroke-width:1px;stroke-linecap:butt;stroke-linejoin:miter;stroke-opacity:1" />
    </g>
    <g
       id="g7375"
       transform="translate(225,-25.5)">
      <path
         sodipodi:open="true"
         sodipodi:end="3.1415927"
         sodipodi:start="0"
         transform="matrix(0.72,0,0,0.72,56.6,9.5)"
         d="M 245,112.5 A 12.5,12.5 0 1 1 220,112.5"
         sodipodi:ry="12.5"
         sodipodi:rx="12.5"
         sodipodi:cy="112.5"
         sodipodi:cx="232.5"
         id="path7377"
         style="opacity:1;fill:none;fill-opacity:1;fill-rule:nonzero;stroke:#000000;stroke-width:2.77777767;stroke-linecap:butt;stroke-miterlimit:4;stroke-dasharray:none;stroke-dashoffset:0;stroke-opacity:1"
         sodipodi:type="arc" />
      <path
         d="M 231.91933,94.670596 L 230.05126,93.956262 L 233.62014,90.222789 L 233.78741,95.384934 L 231.91933,94.670596 z "
         id="path7379"
         style="fill:#000000;fill-rule:evenodd;stroke:#000000;stroke-width:1px;stroke-linecap:butt;stroke-linejoin:miter;stroke-opacity:1" />
    </g>
    <g
       id="g7381"
       transform="translate(-50,-25)">
      <path
         sodipodi:open="true"
         sodipodi:end="3.1415927"
         sodipodi:start="0"
         transform="matrix(0.72,0,0,0.72,56.6,9.5)"
         d="M 245,112.5 A 12.5,12.5 0 1 1 220,112.5"
         sodipodi:ry="12.5"
         sodipodi:rx="12.5"
         sodipodi:cy="112.5"
         sodipodi:cx="232.5"
         id="path7383"
         style="opacity:1;fill:none;fill-opacity:1;fill-rule:nonzero;stroke:#000000;stroke-width:2.77777767;stroke-linecap:butt;stroke-miterlimit:4;stroke-dasharray:none;stroke-dashoffset:0;stroke-opacity:1"
         sodipodi:type="arc" />
      <path
         d="M 231.91933,94.670596 L 230.05126,93.956262 L 233.62014,90.222789 L 233.78741,95.384934 L 231.91933,94.670596 z "
         id="path7385"
         style="fill:#000000;fill-rule:evenodd;stroke:#000000;stroke-width:1px;stroke-linecap:butt;stroke-linejoin:miter;stroke-opacity:1" />
    </g>
    <g
       id="g7387"
       transform="translate(-125,-25)">
      <path
         sodipodi:open="true"
         sodipodi:end="3.1415927"
         sodipodi:start="0"
         transform="matrix(0.72,0,0,0.72,56.6,9.5)"
         d="M 245,112.5 A 12.5,12.5 0 1 1 220,112.5"
         sodipodi:ry="12.5"
         sodipodi:rx="12.5"
         sodipodi:cy="112.5"
         sodipodi:cx="232.5"
         id="path7389"
         style="opacity:1;fill:none;fill-opacity:1;fill-rule:nonzero;stroke:#000000;stroke-width:2.77777767;stroke-linecap:butt;stroke-miterlimit:4;stroke-dasharray:none;stroke-dashoffset:0;stroke-opacity:1"
         sodipodi:type="arc" />
      <path
         d="M 231.91933,94.670596 L 230.05126,93.956262 L 233.62014,90.222789 L 233.78741,95.384934 L 231.91933,94.670596 z "
         id="path7391"
         style="fill:#000000;fill-rule:evenodd;stroke:#000000;stroke-width:1px;stroke-linecap:butt;stroke-linejoin:miter;stroke-opacity:1" />
    </g>
    <g
       id="g7393"
       transform="translate(50,-25)">
      <path
         sodipodi:open="true"
         sodipodi:end="3.1415927"
         sodipodi:start="0"
         transform="matrix(0.72,0,0,0.72,56.6,9.5)"
         d="M 245,112.5 A 12.5,12.5 0 1 1 220,112.5"
         sodipodi:ry="12.5"
         sodipodi:rx="12.5"
         sodipodi:cy="112.5"
         sodipodi:cx="232.5"
         id="path7395"
         style="opacity:1;fill:none;fill-opacity:1;fill-rule:nonzero;stroke:#000000;stroke-width:2.77777767;stroke-linecap:butt;stroke-miterlimit:4;stroke-dasharray:none;stroke-dashoffset:0;stroke-opacity:1"
         sodipodi:type="arc" />
      <path
         d="M 231.91933,94.670596 L 230.05126,93.956262 L 233.62014,90.222789 L 233.78741,95.384934 L 231.91933,94.670596 z "
         id="path7397"
         style="fill:#000000;fill-rule:evenodd;stroke:#000000;stroke-width:1px;stroke-linecap:butt;stroke-linejoin:miter;stroke-opacity:1" />
    </g>
    <g
       id="g7399"
       transform="translate(25,-25)">
      <path
         sodipodi:open="true"
         sodipodi:end="3.1415927"
         sodipodi:start="0"
         transform="matrix(0.72,0,0,0.72,56.6,9.5)"
         d="M 245,112.5 A 12.5,12.5 0 1 1 220,112.5"
         sodipodi:ry="12.5"
         sodipodi:rx="12.5"
         sodipodi:cy="112.5"
         sodipodi:cx="232.5"
         id="path7401"
         style="opacity:1;fill:none;fill-opacity:1;fill-rule:nonzero;stroke:#000000;stroke-width:2.77777767;stroke-linecap:butt;stroke-miterlimit:4;stroke-dasharray:none;stroke-dashoffset:0;stroke-opacity:1"
         sodipodi:type="arc" />
      <path
         d="M 231.91933,94.670596 L 230.05126,93.956262 L 233.62014,90.222789 L 233.78741,95.384934 L 231.91933,94.670596 z "
         id="path7403"
         style="fill:#000000;fill-rule:evenodd;stroke:#000000;stroke-width:1px;stroke-linecap:butt;stroke-linejoin:miter;stroke-opacity:1" />
    </g>
    <g
       id="g7323"
       transform="translate(0,-25)">
      <path
         sodipodi:open="true"
         sodipodi:end="3.1415927"
         sodipodi:start="0"
         transform="matrix(0.72,0,0,0.72,56.6,9.5)"
         d="M 245,112.5 A 12.5,12.5 0 1 1 220,112.5"
         sodipodi:ry="12.5"
         sodipodi:rx="12.5"
         sodipodi:cy="112.5"
         sodipodi:cx="232.5"
         id="path7319"
         style="opacity:1;fill:none;fill-opacity:1;fill-rule:nonzero;stroke:#000000;stroke-width:2.77777767;stroke-linecap:butt;stroke-miterlimit:4;stroke-dasharray:none;stroke-dashoffset:0;stroke-opacity:1"
         sodipodi:type="arc" />
      <path
         d="M 231.91933,94.670596 L 230.05126,93.956262 L 233.62014,90.222789 L 233.78741,95.384934 L 231.91933,94.670596 z "
         id="path7321"
         style="fill:#000000;fill-rule:evenodd;stroke:#000000;stroke-width:1px;stroke-linecap:butt;stroke-linejoin:miter;stroke-opacity:1" />
    </g>
  </g>
</svg>
