G75*
G70*
%OFA0B0*%
%FSLAX24Y24*%
%IPPOS*%
%LPD*%
%AMOC8*
5,1,8,0,0,1.08239X$1,22.5*
%
%ADD10C,0.0600*%
%ADD11C,0.0574*%
%ADD12C,0.1306*%
%ADD13C,0.0560*%
%ADD14C,0.1300*%
%ADD15C,0.0850*%
%ADD16C,0.0400*%
%ADD17C,0.0160*%
%ADD18C,0.0400*%
D10*
X012782Y003270D03*
X013782Y003270D03*
X014782Y003270D03*
X015782Y003270D03*
X016782Y003270D03*
X017782Y003270D03*
X018782Y003270D03*
X019782Y003270D03*
X020782Y003270D03*
X021782Y003270D03*
X022782Y003270D03*
X023782Y003270D03*
X024782Y003270D03*
X025782Y003270D03*
X026782Y003270D03*
X027782Y003270D03*
X028782Y003270D03*
X029782Y003270D03*
X030782Y003270D03*
X031782Y003270D03*
X031782Y004270D03*
X030782Y004270D03*
X029782Y004270D03*
X028782Y004270D03*
X027782Y004270D03*
X026782Y004270D03*
X025782Y004270D03*
X024782Y004270D03*
X023782Y004270D03*
X022782Y004270D03*
X021782Y004270D03*
X020782Y004270D03*
X019782Y004270D03*
X018782Y004270D03*
X017782Y004270D03*
X016782Y004270D03*
X015782Y004270D03*
X014782Y004270D03*
X013782Y004270D03*
X012782Y004270D03*
X016782Y006270D03*
X017782Y006270D03*
X018782Y006270D03*
X019782Y006270D03*
X020782Y006270D03*
X021782Y006270D03*
X022782Y006270D03*
X023782Y006270D03*
X024782Y006270D03*
X025782Y006270D03*
X026782Y006270D03*
X027782Y006270D03*
X028782Y006270D03*
X029782Y006270D03*
X030782Y006270D03*
X031782Y006270D03*
X031782Y007270D03*
X030782Y007270D03*
X029782Y007270D03*
X028782Y007270D03*
X027782Y007270D03*
X026782Y007270D03*
X025782Y007270D03*
X024782Y007270D03*
X023782Y007270D03*
X022782Y007270D03*
X021782Y007270D03*
X020782Y007270D03*
X019782Y007270D03*
X018782Y007270D03*
X017782Y007270D03*
X016782Y007270D03*
X015782Y007270D03*
X014782Y007270D03*
X013782Y007270D03*
X013782Y008270D03*
X014782Y008270D03*
X015782Y008270D03*
X016782Y008270D03*
X017782Y008270D03*
X018782Y008270D03*
X019782Y008270D03*
X020782Y008270D03*
X021782Y008270D03*
X022782Y008270D03*
X023782Y008270D03*
X024782Y008270D03*
X025782Y008270D03*
X026782Y008270D03*
X027782Y008270D03*
X028782Y008270D03*
X029782Y008270D03*
X030782Y008270D03*
X031782Y008270D03*
X031782Y009270D03*
X030782Y009270D03*
X029782Y009270D03*
X028782Y009270D03*
X027782Y009270D03*
X026782Y009270D03*
X025782Y009270D03*
X024782Y009270D03*
X023782Y009270D03*
X022782Y009270D03*
X021782Y009270D03*
X020782Y009270D03*
X019782Y009270D03*
X018782Y009270D03*
X017782Y009270D03*
X016782Y009270D03*
X015782Y009270D03*
X014782Y009270D03*
X013782Y009270D03*
X012782Y009270D03*
X012782Y010270D03*
X013782Y010270D03*
X014782Y010270D03*
X015782Y010270D03*
X016782Y010270D03*
X017782Y010270D03*
X018782Y010270D03*
X019782Y010270D03*
X020782Y010270D03*
X021782Y010270D03*
X022782Y010270D03*
X023782Y010270D03*
X024782Y010270D03*
X025782Y010270D03*
X026782Y010270D03*
X027782Y010270D03*
X028782Y010270D03*
X029782Y010270D03*
X030782Y010270D03*
X031782Y010270D03*
X031782Y011270D03*
X030782Y011270D03*
X029782Y011270D03*
X028782Y011270D03*
X027782Y011270D03*
X026782Y011270D03*
X025782Y011270D03*
X024782Y011270D03*
X023782Y011270D03*
X022782Y011270D03*
X021782Y011270D03*
X020782Y011270D03*
X019782Y011270D03*
X018782Y011270D03*
X017782Y011270D03*
X016782Y011270D03*
X015782Y011270D03*
X014782Y011270D03*
X013782Y011270D03*
X012782Y011270D03*
X012782Y012270D03*
X013782Y012270D03*
X014782Y012270D03*
X015782Y012270D03*
X016782Y012270D03*
X017782Y012270D03*
X018782Y012270D03*
X019782Y012270D03*
X020782Y012270D03*
X021782Y012270D03*
X022782Y012270D03*
X023782Y012270D03*
X024782Y012270D03*
X025782Y012270D03*
X026782Y012270D03*
X027782Y012270D03*
X028782Y012270D03*
X029782Y012270D03*
X030782Y012270D03*
X031782Y012270D03*
X031782Y013270D03*
X030782Y013270D03*
X029782Y013270D03*
X028782Y013270D03*
X027782Y013270D03*
X026782Y013270D03*
X025782Y013270D03*
X024782Y013270D03*
X023782Y013270D03*
X022782Y013270D03*
X021782Y013270D03*
X020782Y013270D03*
X019782Y013270D03*
X018782Y013270D03*
X017782Y013270D03*
X016782Y013270D03*
X015782Y013270D03*
X014782Y013270D03*
X013782Y013270D03*
X012782Y013270D03*
X012782Y014270D03*
X013782Y014270D03*
X014782Y014270D03*
X015782Y014270D03*
X016782Y014270D03*
X017782Y014270D03*
X018782Y014270D03*
X019782Y014270D03*
X020782Y014270D03*
X021782Y014270D03*
X022782Y014270D03*
X023782Y014270D03*
X024782Y014270D03*
X025782Y014270D03*
X026782Y014270D03*
X027782Y014270D03*
X028782Y014270D03*
X029782Y014270D03*
X030782Y014270D03*
X031782Y014270D03*
X030782Y015270D03*
X030782Y016270D03*
X031782Y016270D03*
X031782Y017270D03*
X030782Y017270D03*
X029782Y017270D03*
X028782Y017270D03*
X027782Y017270D03*
X026782Y017270D03*
X025782Y017270D03*
X025782Y016270D03*
X026782Y016270D03*
X027782Y016270D03*
X028782Y016270D03*
X029782Y016270D03*
X021782Y016270D03*
X020782Y016270D03*
X019782Y016270D03*
X018782Y016270D03*
X017782Y016270D03*
X016782Y016270D03*
X015782Y016270D03*
X014782Y016270D03*
X013782Y016270D03*
X012782Y016270D03*
X012782Y017270D03*
X013782Y017270D03*
X014782Y017270D03*
X015782Y017270D03*
X016782Y017270D03*
X017782Y017270D03*
X018782Y017270D03*
X019782Y017270D03*
X020782Y017270D03*
X021782Y017270D03*
X012782Y008270D03*
D11*
X005349Y007148D03*
X005349Y006164D03*
X005349Y005376D03*
X005349Y004392D03*
D12*
X004282Y003014D03*
X004282Y008357D03*
D13*
X005282Y013778D03*
X006062Y013778D03*
X006062Y014762D03*
X005282Y014762D03*
D14*
X004212Y016640D03*
X004212Y011900D03*
D15*
X010382Y002470D03*
D16*
X009182Y003870D03*
X006782Y003070D03*
X008982Y006770D03*
X007582Y007670D03*
X008182Y008770D03*
X010382Y011170D03*
X008682Y011370D03*
X006882Y012270D03*
X009182Y013170D03*
X009582Y015370D03*
X011282Y015270D03*
X008982Y016670D03*
X008982Y017470D03*
X007582Y016970D03*
X024482Y017770D03*
D17*
X003342Y018710D02*
X003342Y001830D01*
X032222Y001830D01*
X032222Y003078D01*
X032189Y002998D01*
X032054Y002863D01*
X031877Y002790D01*
X031802Y002790D01*
X031802Y003250D01*
X031762Y003250D01*
X031762Y002790D01*
X031686Y002790D01*
X031510Y002863D01*
X031375Y002998D01*
X031302Y003174D01*
X031302Y003250D01*
X031761Y003250D01*
X031761Y003290D01*
X031302Y003290D01*
X031302Y003365D01*
X031375Y003542D01*
X031510Y003677D01*
X031686Y003750D01*
X031762Y003750D01*
X031762Y003290D01*
X031802Y003290D01*
X031802Y003750D01*
X031877Y003750D01*
X032054Y003677D01*
X032189Y003542D01*
X032222Y003462D01*
X032222Y004026D01*
X032206Y003987D01*
X032065Y003846D01*
X031881Y003770D01*
X031682Y003770D01*
X031499Y003846D01*
X031358Y003987D01*
X031282Y004170D01*
X031282Y004369D01*
X031282Y004170D01*
X031206Y003987D01*
X031065Y003846D01*
X030881Y003770D01*
X030682Y003770D01*
X030499Y003694D01*
X030358Y003553D01*
X030282Y003369D01*
X030282Y003170D01*
X030282Y003369D01*
X030206Y003553D01*
X030065Y003694D01*
X029881Y003770D01*
X029682Y003770D01*
X029499Y003694D01*
X029358Y003553D01*
X029282Y003369D01*
X029282Y003170D01*
X029282Y003369D01*
X029206Y003553D01*
X029065Y003694D01*
X028881Y003770D01*
X028682Y003770D01*
X028499Y003694D01*
X028358Y003553D01*
X028282Y003369D01*
X028282Y003170D01*
X028282Y003369D01*
X028206Y003553D01*
X028065Y003694D01*
X027881Y003770D01*
X027682Y003770D01*
X027499Y003694D01*
X027358Y003553D01*
X027282Y003369D01*
X027282Y003170D01*
X027282Y003369D01*
X027206Y003553D01*
X027065Y003694D01*
X026881Y003770D01*
X026682Y003770D01*
X026499Y003694D01*
X026358Y003553D01*
X026282Y003369D01*
X026282Y003170D01*
X026358Y002987D01*
X026499Y002846D01*
X026682Y002770D01*
X026881Y002770D01*
X027065Y002846D01*
X027206Y002987D01*
X027282Y003170D01*
X027358Y002987D01*
X027499Y002846D01*
X027682Y002770D01*
X027881Y002770D01*
X028065Y002846D01*
X028206Y002987D01*
X028282Y003170D01*
X028358Y002987D01*
X028499Y002846D01*
X028682Y002770D01*
X028881Y002770D01*
X029065Y002846D01*
X029206Y002987D01*
X029282Y003170D01*
X029358Y002987D01*
X029499Y002846D01*
X029682Y002770D01*
X029881Y002770D01*
X030065Y002846D01*
X030206Y002987D01*
X030282Y003170D01*
X030358Y002987D01*
X030499Y002846D01*
X030682Y002770D01*
X030881Y002770D01*
X031065Y002846D01*
X031206Y002987D01*
X031282Y003170D01*
X031282Y003369D01*
X031206Y003553D01*
X031065Y003694D01*
X030881Y003770D01*
X030682Y003770D01*
X030499Y003846D01*
X030358Y003987D01*
X030282Y004170D01*
X030282Y004369D01*
X030358Y004553D01*
X030499Y004694D01*
X030682Y004770D01*
X030881Y004770D01*
X031065Y004694D01*
X031206Y004553D01*
X031282Y004369D01*
X031358Y004553D01*
X031499Y004694D01*
X031682Y004770D01*
X031881Y004770D01*
X032065Y004694D01*
X032206Y004553D01*
X032222Y004514D01*
X032222Y006026D01*
X032206Y005987D01*
X032065Y005846D01*
X031881Y005770D01*
X031682Y005770D01*
X031499Y005846D01*
X031358Y005987D01*
X031282Y006170D01*
X031282Y006369D01*
X031282Y006170D01*
X031206Y005987D01*
X031065Y005846D01*
X030881Y005770D01*
X030682Y005770D01*
X030499Y005846D01*
X030358Y005987D01*
X030282Y006170D01*
X030282Y006369D01*
X030358Y006553D01*
X030499Y006694D01*
X030682Y006770D01*
X030881Y006770D01*
X031065Y006846D01*
X031206Y006987D01*
X031282Y007170D01*
X031282Y007369D01*
X031282Y007170D01*
X031358Y006987D01*
X031499Y006846D01*
X031682Y006770D01*
X031499Y006694D01*
X031358Y006553D01*
X031282Y006369D01*
X031206Y006553D01*
X031065Y006694D01*
X030881Y006770D01*
X030682Y006770D01*
X030499Y006846D01*
X030358Y006987D01*
X030282Y007170D01*
X030282Y007369D01*
X030358Y007553D01*
X030499Y007694D01*
X030682Y007770D01*
X030881Y007770D01*
X031065Y007846D01*
X031206Y007987D01*
X031282Y008170D01*
X031282Y008369D01*
X031282Y008170D01*
X031358Y007987D01*
X031499Y007846D01*
X031682Y007770D01*
X031499Y007694D01*
X031358Y007553D01*
X031282Y007369D01*
X031206Y007553D01*
X031065Y007694D01*
X030881Y007770D01*
X030682Y007770D01*
X030499Y007846D01*
X030358Y007987D01*
X030282Y008170D01*
X030282Y008369D01*
X030358Y008553D01*
X030499Y008694D01*
X030682Y008770D01*
X030881Y008770D01*
X031065Y008846D01*
X031206Y008987D01*
X031282Y009170D01*
X031282Y009369D01*
X031282Y009170D01*
X031358Y008987D01*
X031499Y008846D01*
X031682Y008770D01*
X031499Y008694D01*
X031358Y008553D01*
X031282Y008369D01*
X031206Y008553D01*
X031065Y008694D01*
X030881Y008770D01*
X030682Y008770D01*
X030499Y008846D01*
X030358Y008987D01*
X030282Y009170D01*
X030282Y009369D01*
X030358Y009553D01*
X030499Y009694D01*
X030682Y009770D01*
X030881Y009770D01*
X031065Y009846D01*
X031206Y009987D01*
X031282Y010170D01*
X031282Y010369D01*
X031282Y010170D01*
X031358Y009987D01*
X031499Y009846D01*
X031682Y009770D01*
X031499Y009694D01*
X031358Y009553D01*
X031282Y009369D01*
X031206Y009553D01*
X031065Y009694D01*
X030881Y009770D01*
X030682Y009770D01*
X030499Y009846D01*
X030358Y009987D01*
X030282Y010170D01*
X030282Y010369D01*
X030358Y010553D01*
X030499Y010694D01*
X030682Y010770D01*
X030881Y010770D01*
X031065Y010846D01*
X031206Y010987D01*
X031282Y011170D01*
X031282Y011369D01*
X031282Y011170D01*
X031358Y010987D01*
X031499Y010846D01*
X031682Y010770D01*
X031499Y010694D01*
X031358Y010553D01*
X031282Y010369D01*
X031206Y010553D01*
X031065Y010694D01*
X030881Y010770D01*
X030682Y010770D01*
X030499Y010846D01*
X030358Y010987D01*
X030282Y011170D01*
X030282Y011369D01*
X030358Y011553D01*
X030499Y011694D01*
X030682Y011770D01*
X030881Y011770D01*
X031065Y011846D01*
X031206Y011987D01*
X031282Y012170D01*
X031282Y012369D01*
X031282Y012170D01*
X031358Y011987D01*
X031499Y011846D01*
X031682Y011770D01*
X031499Y011694D01*
X031358Y011553D01*
X031282Y011369D01*
X031206Y011553D01*
X031065Y011694D01*
X030881Y011770D01*
X030682Y011770D01*
X030499Y011846D01*
X030358Y011987D01*
X030282Y012170D01*
X030282Y012369D01*
X030358Y012553D01*
X030499Y012694D01*
X030682Y012770D01*
X030881Y012770D01*
X031065Y012846D01*
X031206Y012987D01*
X031282Y013170D01*
X031282Y013369D01*
X031282Y013170D01*
X031358Y012987D01*
X031499Y012846D01*
X031682Y012770D01*
X031499Y012694D01*
X031358Y012553D01*
X031282Y012369D01*
X031206Y012553D01*
X031065Y012694D01*
X030881Y012770D01*
X030682Y012770D01*
X030499Y012846D01*
X030358Y012987D01*
X030282Y013170D01*
X030282Y013369D01*
X030358Y013553D01*
X030499Y013694D01*
X030682Y013770D01*
X030881Y013770D01*
X031065Y013846D01*
X031206Y013987D01*
X031282Y014170D01*
X031282Y014369D01*
X031282Y014170D01*
X031358Y013987D01*
X031499Y013846D01*
X031682Y013770D01*
X031499Y013694D01*
X031358Y013553D01*
X031282Y013369D01*
X031206Y013553D01*
X031065Y013694D01*
X030881Y013770D01*
X030682Y013770D01*
X030499Y013846D01*
X030358Y013987D01*
X030282Y014170D01*
X030282Y014369D01*
X030358Y014553D01*
X030499Y014694D01*
X030682Y014770D01*
X030881Y014770D01*
X031065Y014694D01*
X031206Y014553D01*
X031282Y014369D01*
X031358Y014553D01*
X031499Y014694D01*
X031682Y014770D01*
X031881Y014770D01*
X032065Y014694D01*
X032206Y014553D01*
X032222Y014514D01*
X032222Y016026D01*
X032206Y015987D01*
X032065Y015846D01*
X031881Y015770D01*
X031847Y015770D01*
X031282Y015204D01*
X031282Y015170D01*
X031206Y014987D01*
X031065Y014846D01*
X030881Y014770D01*
X030682Y014770D01*
X030499Y014846D01*
X030358Y014987D01*
X030282Y015170D01*
X030282Y015369D01*
X030358Y015553D01*
X030499Y015694D01*
X030682Y015770D01*
X030716Y015770D01*
X030716Y015770D01*
X030682Y015770D01*
X030499Y015846D01*
X030358Y015987D01*
X030282Y016170D01*
X030282Y016369D01*
X030358Y016553D01*
X030499Y016694D01*
X030682Y016770D01*
X030881Y016770D01*
X031065Y016846D01*
X031206Y016987D01*
X031282Y017170D01*
X031282Y017369D01*
X031206Y017553D01*
X031065Y017694D01*
X030881Y017770D01*
X030682Y017770D01*
X030499Y017694D01*
X030358Y017553D01*
X030282Y017369D01*
X030282Y017170D01*
X030358Y016987D01*
X030499Y016846D01*
X030682Y016770D01*
X030881Y016770D01*
X031065Y016694D01*
X031206Y016553D01*
X031282Y016369D01*
X031282Y016336D01*
X031282Y016335D01*
X031282Y016369D01*
X031358Y016553D01*
X031499Y016694D01*
X031682Y016770D01*
X031881Y016770D01*
X032065Y016694D01*
X032206Y016553D01*
X032222Y016514D01*
X032222Y017078D01*
X032189Y016998D01*
X032054Y016863D01*
X031877Y016790D01*
X031802Y016790D01*
X031802Y017250D01*
X031762Y017250D01*
X031762Y016790D01*
X031686Y016790D01*
X031510Y016863D01*
X031375Y016998D01*
X031302Y017174D01*
X031302Y017250D01*
X031761Y017250D01*
X031761Y017290D01*
X031302Y017290D01*
X031302Y017365D01*
X031375Y017542D01*
X031510Y017677D01*
X031686Y017750D01*
X031762Y017750D01*
X031762Y017290D01*
X031802Y017290D01*
X031802Y017750D01*
X031877Y017750D01*
X032054Y017677D01*
X032189Y017542D01*
X032222Y017462D01*
X032222Y018710D01*
X003342Y018710D01*
X032222Y018710D01*
X032222Y018551D02*
X003342Y018551D01*
X003342Y018393D02*
X032222Y018393D01*
X032222Y018234D02*
X003342Y018234D01*
X003342Y018076D02*
X032222Y018076D01*
X032222Y017917D02*
X003342Y017917D01*
X003342Y017758D02*
X008705Y017758D01*
X008755Y017809D02*
X008643Y017696D01*
X008582Y017549D01*
X008582Y017390D01*
X008643Y017243D01*
X008702Y017184D01*
X008702Y016956D01*
X008643Y016896D01*
X008582Y016749D01*
X008582Y016590D01*
X008643Y016443D01*
X008755Y016331D01*
X008902Y016270D01*
X009061Y016270D01*
X009208Y016331D01*
X009321Y016443D01*
X009382Y016590D01*
X009382Y016749D01*
X009321Y016896D01*
X009262Y016956D01*
X009262Y017184D01*
X009321Y017243D01*
X009382Y017390D01*
X009382Y017549D01*
X009321Y017696D01*
X009208Y017809D01*
X009061Y017870D01*
X008902Y017870D01*
X008755Y017809D01*
X008603Y017600D02*
X003342Y017600D01*
X003342Y017441D02*
X003978Y017441D01*
X004047Y017470D02*
X003742Y017344D01*
X003508Y017110D01*
X003382Y016805D01*
X003382Y016720D01*
X004132Y016720D01*
X004132Y017470D01*
X004047Y017470D01*
X004132Y017441D02*
X004292Y017441D01*
X004292Y017470D02*
X004292Y016720D01*
X005042Y016720D01*
X005042Y016805D01*
X004915Y017110D01*
X004682Y017344D01*
X004377Y017470D01*
X004292Y017470D01*
X004446Y017441D02*
X008582Y017441D01*
X008626Y017283D02*
X004743Y017283D01*
X004901Y017124D02*
X008702Y017124D01*
X008702Y016966D02*
X004975Y016966D01*
X005041Y016807D02*
X008606Y016807D01*
X008582Y016649D02*
X004292Y016649D01*
X004292Y016720D02*
X004292Y016560D01*
X005042Y016560D01*
X005042Y016475D01*
X004915Y016170D01*
X004682Y015936D01*
X004377Y015810D01*
X004292Y015810D01*
X004292Y016560D01*
X004132Y016560D01*
X004132Y015810D01*
X004047Y015810D01*
X003742Y015936D01*
X003508Y016170D01*
X003382Y016475D01*
X003382Y016560D01*
X004132Y016560D01*
X004132Y016720D01*
X004292Y016720D01*
X004292Y016807D02*
X004132Y016807D01*
X004132Y016649D02*
X003342Y016649D01*
X003342Y016807D02*
X003383Y016807D01*
X003342Y016966D02*
X003448Y016966D01*
X003522Y017124D02*
X003342Y017124D01*
X003342Y017283D02*
X003681Y017283D01*
X004132Y017283D02*
X004292Y017283D01*
X004292Y017124D02*
X004132Y017124D01*
X004132Y016966D02*
X004292Y016966D01*
X004292Y016490D02*
X004132Y016490D01*
X004132Y016332D02*
X004292Y016332D01*
X004292Y016173D02*
X004132Y016173D01*
X004132Y016014D02*
X004292Y016014D01*
X004292Y015856D02*
X004132Y015856D01*
X003936Y015856D02*
X003342Y015856D01*
X003342Y016014D02*
X003663Y016014D01*
X003507Y016173D02*
X003342Y016173D01*
X003342Y016332D02*
X003441Y016332D01*
X003382Y016490D02*
X003342Y016490D01*
X003342Y015697D02*
X030507Y015697D01*
X030489Y015856D02*
X030075Y015856D01*
X030065Y015846D02*
X030206Y015987D01*
X030282Y016170D01*
X030282Y016369D01*
X030206Y016553D01*
X030065Y016694D01*
X029881Y016770D01*
X029682Y016770D01*
X029499Y016694D01*
X029358Y016553D01*
X029282Y016369D01*
X029282Y016170D01*
X029282Y016369D01*
X029206Y016553D01*
X029065Y016694D01*
X028881Y016770D01*
X028682Y016770D01*
X028499Y016694D01*
X028358Y016553D01*
X028282Y016369D01*
X028282Y016170D01*
X028282Y016369D01*
X028206Y016553D01*
X028065Y016694D01*
X027881Y016770D01*
X027682Y016770D01*
X027499Y016694D01*
X027358Y016553D01*
X027282Y016369D01*
X027282Y016170D01*
X027282Y016369D01*
X027206Y016553D01*
X027065Y016694D01*
X026881Y016770D01*
X026682Y016770D01*
X026499Y016694D01*
X026358Y016553D01*
X026282Y016369D01*
X026282Y016170D01*
X026358Y015987D01*
X026499Y015846D01*
X026682Y015770D01*
X026881Y015770D01*
X027065Y015846D01*
X027206Y015987D01*
X027282Y016170D01*
X027358Y015987D01*
X027499Y015846D01*
X027682Y015770D01*
X027881Y015770D01*
X028065Y015846D01*
X028206Y015987D01*
X028282Y016170D01*
X028358Y015987D01*
X028499Y015846D01*
X028682Y015770D01*
X028881Y015770D01*
X029065Y015846D01*
X029206Y015987D01*
X029282Y016170D01*
X029358Y015987D01*
X029499Y015846D01*
X029682Y015770D01*
X029881Y015770D01*
X030065Y015846D01*
X030217Y016014D02*
X030346Y016014D01*
X030282Y016173D02*
X030282Y016173D01*
X030282Y016332D02*
X030282Y016332D01*
X030232Y016490D02*
X030332Y016490D01*
X030453Y016649D02*
X030110Y016649D01*
X030065Y016846D02*
X029881Y016770D01*
X029682Y016770D01*
X029499Y016846D01*
X029358Y016987D01*
X029282Y017170D01*
X029282Y017369D01*
X029358Y017553D01*
X029499Y017694D01*
X029682Y017770D01*
X029881Y017770D01*
X030065Y017694D01*
X030206Y017553D01*
X030282Y017369D01*
X030282Y017170D01*
X030206Y016987D01*
X030065Y016846D01*
X029971Y016807D02*
X030592Y016807D01*
X030379Y016966D02*
X030185Y016966D01*
X030263Y017124D02*
X030301Y017124D01*
X030282Y017283D02*
X030282Y017283D01*
X030252Y017441D02*
X030312Y017441D01*
X030405Y017600D02*
X030159Y017600D01*
X029909Y017758D02*
X030655Y017758D01*
X030909Y017758D02*
X032222Y017758D01*
X032222Y017600D02*
X032131Y017600D01*
X031802Y017600D02*
X031762Y017600D01*
X031762Y017441D02*
X031802Y017441D01*
X031761Y017283D02*
X031282Y017283D01*
X031263Y017124D02*
X031322Y017124D01*
X031407Y016966D02*
X031185Y016966D01*
X030971Y016807D02*
X031645Y016807D01*
X031762Y016807D02*
X031802Y016807D01*
X031919Y016807D02*
X032222Y016807D01*
X032222Y016649D02*
X032110Y016649D01*
X032156Y016966D02*
X032222Y016966D01*
X031802Y016966D02*
X031762Y016966D01*
X031762Y017124D02*
X031802Y017124D01*
X031333Y017441D02*
X031252Y017441D01*
X031159Y017600D02*
X031433Y017600D01*
X031453Y016649D02*
X031110Y016649D01*
X031232Y016490D02*
X031332Y016490D01*
X032075Y015856D02*
X032222Y015856D01*
X032217Y016014D02*
X032222Y016014D01*
X032222Y015697D02*
X031775Y015697D01*
X031616Y015539D02*
X032222Y015539D01*
X032222Y015380D02*
X031458Y015380D01*
X031299Y015222D02*
X032222Y015222D01*
X032222Y015063D02*
X031237Y015063D01*
X031124Y014905D02*
X032222Y014905D01*
X032222Y014746D02*
X031939Y014746D01*
X032171Y014588D02*
X032222Y014588D01*
X031625Y014746D02*
X030939Y014746D01*
X031171Y014588D02*
X031392Y014588D01*
X031306Y014429D02*
X031257Y014429D01*
X031282Y014270D02*
X031282Y014270D01*
X031257Y014112D02*
X031306Y014112D01*
X031391Y013953D02*
X031172Y013953D01*
X030941Y013795D02*
X031622Y013795D01*
X031682Y013770D02*
X031881Y013770D01*
X032065Y013694D01*
X032206Y013553D01*
X032222Y013514D01*
X032222Y014026D01*
X032206Y013987D01*
X032065Y013846D01*
X031881Y013770D01*
X031682Y013770D01*
X031941Y013795D02*
X032222Y013795D01*
X032222Y013953D02*
X032172Y013953D01*
X032122Y013636D02*
X032222Y013636D01*
X031441Y013636D02*
X031122Y013636D01*
X031237Y013478D02*
X031327Y013478D01*
X031282Y013319D02*
X031282Y013319D01*
X031278Y013161D02*
X031286Y013161D01*
X031351Y013002D02*
X031212Y013002D01*
X031059Y012844D02*
X031504Y012844D01*
X031490Y012685D02*
X031074Y012685D01*
X031217Y012526D02*
X031347Y012526D01*
X031282Y012368D02*
X031282Y012368D01*
X031282Y012209D02*
X031282Y012209D01*
X031232Y012051D02*
X031331Y012051D01*
X031452Y011892D02*
X031111Y011892D01*
X030968Y011734D02*
X031595Y011734D01*
X031682Y011770D02*
X031881Y011770D01*
X032065Y011694D01*
X032206Y011553D01*
X032222Y011514D01*
X032222Y012026D01*
X032206Y011987D01*
X032065Y011846D01*
X031881Y011770D01*
X031682Y011770D01*
X031968Y011734D02*
X032222Y011734D01*
X032222Y011892D02*
X032111Y011892D01*
X032183Y011575D02*
X032222Y011575D01*
X031380Y011575D02*
X031183Y011575D01*
X031262Y011417D02*
X031301Y011417D01*
X031282Y011258D02*
X031282Y011258D01*
X031252Y011100D02*
X031311Y011100D01*
X031403Y010941D02*
X031160Y010941D01*
X030912Y010783D02*
X031652Y010783D01*
X031682Y010770D02*
X031881Y010770D01*
X031682Y010770D01*
X031881Y010770D02*
X032065Y010694D01*
X032206Y010553D01*
X032222Y010514D01*
X032222Y011026D01*
X032206Y010987D01*
X032065Y010846D01*
X031881Y010770D01*
X031912Y010783D02*
X032222Y010783D01*
X032222Y010941D02*
X032160Y010941D01*
X032135Y010624D02*
X032222Y010624D01*
X031429Y010624D02*
X031135Y010624D01*
X031242Y010465D02*
X031322Y010465D01*
X031282Y010307D02*
X031282Y010307D01*
X031273Y010148D02*
X031291Y010148D01*
X031357Y009990D02*
X031207Y009990D01*
X031029Y009831D02*
X031534Y009831D01*
X031682Y009770D02*
X031881Y009770D01*
X031682Y009770D01*
X031881Y009770D02*
X032065Y009694D01*
X032206Y009553D01*
X032222Y009514D01*
X032222Y010026D01*
X032206Y009987D01*
X032065Y009846D01*
X031881Y009770D01*
X032029Y009831D02*
X032222Y009831D01*
X032222Y009673D02*
X032086Y009673D01*
X032222Y009514D02*
X032222Y009514D01*
X032207Y009990D02*
X032222Y009990D01*
X031477Y009673D02*
X031086Y009673D01*
X031222Y009514D02*
X031342Y009514D01*
X031282Y009356D02*
X031282Y009356D01*
X031282Y009197D02*
X031282Y009197D01*
X031336Y009039D02*
X031227Y009039D01*
X031099Y008880D02*
X031465Y008880D01*
X031565Y008721D02*
X030998Y008721D01*
X031196Y008563D02*
X031368Y008563D01*
X031296Y008404D02*
X031267Y008404D01*
X031282Y008246D02*
X031282Y008246D01*
X031247Y008087D02*
X031316Y008087D01*
X031416Y007929D02*
X031148Y007929D01*
X030882Y007770D02*
X031682Y007770D01*
X031881Y007770D01*
X032065Y007694D01*
X032206Y007553D01*
X032222Y007514D01*
X032222Y008026D01*
X032206Y007987D01*
X032065Y007846D01*
X031881Y007770D01*
X031682Y007770D01*
X031882Y007770D02*
X032222Y007770D01*
X032222Y007612D02*
X032147Y007612D01*
X032148Y007929D02*
X032222Y007929D01*
X031416Y007612D02*
X031147Y007612D01*
X031247Y007453D02*
X031316Y007453D01*
X031282Y007295D02*
X031282Y007295D01*
X031267Y007136D02*
X031296Y007136D01*
X031367Y006977D02*
X031196Y006977D01*
X030999Y006819D02*
X031564Y006819D01*
X031682Y006770D02*
X031881Y006770D01*
X031682Y006770D01*
X031881Y006770D02*
X032065Y006694D01*
X032206Y006553D01*
X032222Y006514D01*
X032222Y007026D01*
X032206Y006987D01*
X032065Y006846D01*
X031881Y006770D01*
X031999Y006819D02*
X032222Y006819D01*
X032222Y006977D02*
X032196Y006977D01*
X032222Y006660D02*
X032098Y006660D01*
X031465Y006660D02*
X031098Y006660D01*
X031227Y006502D02*
X031337Y006502D01*
X031282Y006343D02*
X031282Y006343D01*
X031282Y006185D02*
X031282Y006185D01*
X031222Y006026D02*
X031341Y006026D01*
X031477Y005868D02*
X031087Y005868D01*
X030477Y005868D02*
X030087Y005868D01*
X030065Y005846D02*
X030206Y005987D01*
X030282Y006170D01*
X030282Y006369D01*
X030206Y006553D01*
X030065Y006694D01*
X029881Y006770D01*
X029682Y006770D01*
X029499Y006694D01*
X029358Y006553D01*
X029282Y006369D01*
X029282Y006170D01*
X029282Y006369D01*
X029206Y006553D01*
X029065Y006694D01*
X028881Y006770D01*
X029065Y006846D01*
X029206Y006987D01*
X029282Y007170D01*
X029282Y007369D01*
X029358Y007553D01*
X029499Y007694D01*
X029682Y007770D01*
X029881Y007770D01*
X030065Y007694D01*
X030206Y007553D01*
X030282Y007369D01*
X030282Y007170D01*
X030206Y006987D01*
X030065Y006846D01*
X029881Y006770D01*
X029682Y006770D01*
X029499Y006846D01*
X029358Y006987D01*
X029282Y007170D01*
X029282Y007369D01*
X029206Y007553D01*
X029065Y007694D01*
X028881Y007770D01*
X029065Y007846D01*
X029206Y007987D01*
X029282Y008170D01*
X029282Y008369D01*
X029358Y008553D01*
X029499Y008694D01*
X029682Y008770D01*
X029881Y008770D01*
X030065Y008694D01*
X030206Y008553D01*
X030282Y008369D01*
X030282Y008170D01*
X030206Y007987D01*
X030065Y007846D01*
X029881Y007770D01*
X029682Y007770D01*
X029499Y007846D01*
X029358Y007987D01*
X029282Y008170D01*
X029282Y008369D01*
X029206Y008553D01*
X029065Y008694D01*
X028881Y008770D01*
X029065Y008846D01*
X029206Y008987D01*
X029282Y009170D01*
X029282Y009369D01*
X029358Y009553D01*
X029499Y009694D01*
X029682Y009770D01*
X029881Y009770D01*
X030065Y009694D01*
X030206Y009553D01*
X030282Y009369D01*
X030282Y009170D01*
X030206Y008987D01*
X030065Y008846D01*
X029881Y008770D01*
X029682Y008770D01*
X029499Y008846D01*
X029358Y008987D01*
X029282Y009170D01*
X029282Y009369D01*
X029206Y009553D01*
X029065Y009694D01*
X028881Y009770D01*
X029065Y009846D01*
X029206Y009987D01*
X029282Y010170D01*
X029282Y010369D01*
X029358Y010553D01*
X029499Y010694D01*
X029682Y010770D01*
X029881Y010770D01*
X030065Y010694D01*
X030206Y010553D01*
X030282Y010369D01*
X030282Y010170D01*
X030206Y009987D01*
X030065Y009846D01*
X029881Y009770D01*
X029682Y009770D01*
X029499Y009846D01*
X029358Y009987D01*
X029282Y010170D01*
X029282Y010369D01*
X029206Y010553D01*
X029065Y010694D01*
X028881Y010770D01*
X029065Y010846D01*
X029206Y010987D01*
X029282Y011170D01*
X029282Y011369D01*
X029358Y011553D01*
X029499Y011694D01*
X029682Y011770D01*
X029881Y011770D01*
X030065Y011694D01*
X030206Y011553D01*
X030282Y011369D01*
X030282Y011170D01*
X030206Y010987D01*
X030065Y010846D01*
X029881Y010770D01*
X029682Y010770D01*
X029499Y010846D01*
X029358Y010987D01*
X029282Y011170D01*
X029282Y011369D01*
X029206Y011553D01*
X029065Y011694D01*
X028881Y011770D01*
X029065Y011846D01*
X029206Y011987D01*
X029282Y012170D01*
X029282Y012369D01*
X029358Y012553D01*
X029499Y012694D01*
X029682Y012770D01*
X029881Y012770D01*
X030065Y012694D01*
X030206Y012553D01*
X030282Y012369D01*
X030282Y012170D01*
X030206Y011987D01*
X030065Y011846D01*
X029881Y011770D01*
X029682Y011770D01*
X029499Y011846D01*
X029358Y011987D01*
X029282Y012170D01*
X029282Y012369D01*
X029206Y012553D01*
X029065Y012694D01*
X028881Y012770D01*
X029065Y012846D01*
X029206Y012987D01*
X029282Y013170D01*
X029282Y013369D01*
X029358Y013553D01*
X029499Y013694D01*
X029682Y013770D01*
X029881Y013770D01*
X030065Y013694D01*
X030206Y013553D01*
X030282Y013369D01*
X030282Y013170D01*
X030206Y012987D01*
X030065Y012846D01*
X029881Y012770D01*
X029682Y012770D01*
X029499Y012846D01*
X029358Y012987D01*
X029282Y013170D01*
X029282Y013369D01*
X029206Y013553D01*
X029065Y013694D01*
X028881Y013770D01*
X029065Y013846D01*
X029206Y013987D01*
X029282Y014170D01*
X029282Y014369D01*
X029358Y014553D01*
X029499Y014694D01*
X029682Y014770D01*
X029881Y014770D01*
X030065Y014694D01*
X030206Y014553D01*
X030282Y014369D01*
X030282Y014170D01*
X030206Y013987D01*
X030065Y013846D01*
X029881Y013770D01*
X029682Y013770D01*
X029499Y013846D01*
X029358Y013987D01*
X029282Y014170D01*
X029282Y014369D01*
X029206Y014553D01*
X029065Y014694D01*
X028881Y014770D01*
X028682Y014770D01*
X028499Y014694D01*
X028358Y014553D01*
X028282Y014369D01*
X028282Y014170D01*
X028282Y014369D01*
X028206Y014553D01*
X028065Y014694D01*
X027881Y014770D01*
X027682Y014770D01*
X027499Y014694D01*
X027358Y014553D01*
X027282Y014369D01*
X027282Y014170D01*
X027282Y014369D01*
X027206Y014553D01*
X027065Y014694D01*
X026881Y014770D01*
X026682Y014770D01*
X026499Y014694D01*
X026358Y014553D01*
X026282Y014369D01*
X026282Y014170D01*
X026282Y014369D01*
X026206Y014553D01*
X026065Y014694D01*
X025881Y014770D01*
X025682Y014770D01*
X025499Y014694D01*
X025358Y014553D01*
X025282Y014369D01*
X025282Y014170D01*
X025282Y014369D01*
X025206Y014553D01*
X025065Y014694D01*
X024881Y014770D01*
X024682Y014770D01*
X024499Y014694D01*
X024358Y014553D01*
X024282Y014369D01*
X024282Y014170D01*
X024282Y014369D01*
X024206Y014553D01*
X024065Y014694D01*
X023881Y014770D01*
X023682Y014770D01*
X023499Y014694D01*
X023358Y014553D01*
X023282Y014369D01*
X023282Y014170D01*
X023282Y014369D01*
X023206Y014553D01*
X023065Y014694D01*
X022881Y014770D01*
X022682Y014770D01*
X022499Y014694D01*
X022358Y014553D01*
X022282Y014369D01*
X022282Y014170D01*
X022282Y014369D01*
X022206Y014553D01*
X022065Y014694D01*
X021881Y014770D01*
X021682Y014770D01*
X021499Y014694D01*
X021358Y014553D01*
X021282Y014369D01*
X021282Y014170D01*
X021282Y014369D01*
X021206Y014553D01*
X021065Y014694D01*
X020881Y014770D01*
X020682Y014770D01*
X020499Y014694D01*
X020358Y014553D01*
X020282Y014369D01*
X020282Y014170D01*
X020282Y014369D01*
X020206Y014553D01*
X020065Y014694D01*
X019881Y014770D01*
X019682Y014770D01*
X019499Y014694D01*
X019358Y014553D01*
X019282Y014369D01*
X019282Y014170D01*
X019282Y014369D01*
X019206Y014553D01*
X019065Y014694D01*
X018881Y014770D01*
X018682Y014770D01*
X018499Y014694D01*
X018358Y014553D01*
X018282Y014369D01*
X018282Y014170D01*
X018282Y014369D01*
X018206Y014553D01*
X018065Y014694D01*
X017881Y014770D01*
X017682Y014770D01*
X017499Y014694D01*
X017358Y014553D01*
X017282Y014369D01*
X017282Y014170D01*
X017282Y014369D01*
X017206Y014553D01*
X017065Y014694D01*
X016881Y014770D01*
X016682Y014770D01*
X016499Y014694D01*
X016358Y014553D01*
X016282Y014369D01*
X016282Y014170D01*
X016282Y014369D01*
X016206Y014553D01*
X016065Y014694D01*
X015881Y014770D01*
X015682Y014770D01*
X015499Y014694D01*
X015358Y014553D01*
X015282Y014369D01*
X015282Y014170D01*
X015282Y014369D01*
X015206Y014553D01*
X015065Y014694D01*
X014881Y014770D01*
X014682Y014770D01*
X014499Y014694D01*
X014358Y014553D01*
X014282Y014369D01*
X014282Y014170D01*
X014282Y014369D01*
X014206Y014553D01*
X014065Y014694D01*
X013881Y014770D01*
X013682Y014770D01*
X013499Y014694D01*
X013358Y014553D01*
X013282Y014369D01*
X013282Y014170D01*
X013282Y014369D01*
X013206Y014553D01*
X013065Y014694D01*
X012881Y014770D01*
X012682Y014770D01*
X012499Y014694D01*
X012358Y014553D01*
X012282Y014369D01*
X012282Y014170D01*
X012358Y013987D01*
X012499Y013846D01*
X012682Y013770D01*
X012499Y013694D01*
X012358Y013553D01*
X012282Y013369D01*
X012282Y013170D01*
X012358Y012987D01*
X012499Y012846D01*
X012682Y012770D01*
X012499Y012694D01*
X012358Y012553D01*
X012282Y012369D01*
X012282Y012170D01*
X012358Y011987D01*
X012499Y011846D01*
X012682Y011770D01*
X012499Y011694D01*
X012358Y011553D01*
X012282Y011369D01*
X012282Y011170D01*
X012358Y010987D01*
X012499Y010846D01*
X012682Y010770D01*
X012499Y010694D01*
X012358Y010553D01*
X012282Y010369D01*
X012282Y010170D01*
X012358Y009987D01*
X012499Y009846D01*
X012682Y009770D01*
X012499Y009694D01*
X012358Y009553D01*
X012282Y009369D01*
X012282Y009170D01*
X012358Y008987D01*
X012499Y008846D01*
X012682Y008770D01*
X012499Y008694D01*
X012358Y008553D01*
X012282Y008369D01*
X012282Y008170D01*
X012358Y007987D01*
X012499Y007846D01*
X012682Y007770D01*
X012881Y007770D01*
X013065Y007846D01*
X013206Y007987D01*
X013282Y008170D01*
X013282Y008369D01*
X013358Y008553D01*
X013499Y008694D01*
X013682Y008770D01*
X013881Y008770D01*
X014065Y008846D01*
X014206Y008987D01*
X014282Y009170D01*
X014282Y009369D01*
X014358Y009553D01*
X014499Y009694D01*
X014682Y009770D01*
X014881Y009770D01*
X015065Y009694D01*
X015206Y009553D01*
X015282Y009369D01*
X015358Y009553D01*
X015499Y009694D01*
X015682Y009770D01*
X015881Y009770D01*
X016065Y009846D01*
X016206Y009987D01*
X016282Y010170D01*
X016282Y010369D01*
X016358Y010553D01*
X016499Y010694D01*
X016682Y010770D01*
X016881Y010770D01*
X017065Y010694D01*
X017206Y010553D01*
X017282Y010369D01*
X017358Y010553D01*
X017499Y010694D01*
X017682Y010770D01*
X017881Y010770D01*
X018065Y010694D01*
X018206Y010553D01*
X018282Y010369D01*
X018358Y010553D01*
X018499Y010694D01*
X018682Y010770D01*
X018881Y010770D01*
X019065Y010846D01*
X019206Y010987D01*
X019282Y011170D01*
X019282Y011369D01*
X019358Y011553D01*
X019499Y011694D01*
X019682Y011770D01*
X019881Y011770D01*
X020065Y011694D01*
X020206Y011553D01*
X020282Y011369D01*
X020358Y011553D01*
X020499Y011694D01*
X020682Y011770D01*
X020881Y011770D01*
X021065Y011846D01*
X021206Y011987D01*
X021282Y012170D01*
X021282Y012369D01*
X021358Y012553D01*
X021499Y012694D01*
X021682Y012770D01*
X021881Y012770D01*
X022065Y012694D01*
X022206Y012553D01*
X022282Y012369D01*
X022358Y012553D01*
X022499Y012694D01*
X022682Y012770D01*
X022881Y012770D01*
X023065Y012694D01*
X023206Y012553D01*
X023282Y012369D01*
X023358Y012553D01*
X023499Y012694D01*
X023682Y012770D01*
X023881Y012770D01*
X024065Y012846D01*
X024206Y012987D01*
X024282Y013170D01*
X024282Y013369D01*
X024358Y013553D01*
X024499Y013694D01*
X024682Y013770D01*
X024881Y013770D01*
X025065Y013694D01*
X025206Y013553D01*
X025282Y013369D01*
X025358Y013553D01*
X025499Y013694D01*
X025682Y013770D01*
X025881Y013770D01*
X026065Y013846D01*
X026206Y013987D01*
X026282Y014170D01*
X026358Y013987D01*
X026499Y013846D01*
X026682Y013770D01*
X026499Y013694D01*
X026358Y013553D01*
X026282Y013369D01*
X026282Y013170D01*
X026282Y013369D01*
X026206Y013553D01*
X026065Y013694D01*
X025881Y013770D01*
X025682Y013770D01*
X025499Y013846D01*
X025358Y013987D01*
X025282Y014170D01*
X025206Y013987D01*
X025065Y013846D01*
X024881Y013770D01*
X024682Y013770D01*
X024499Y013846D01*
X024358Y013987D01*
X024282Y014170D01*
X024206Y013987D01*
X024065Y013846D01*
X023881Y013770D01*
X023682Y013770D01*
X023499Y013846D01*
X023358Y013987D01*
X023282Y014170D01*
X023206Y013987D01*
X023065Y013846D01*
X022881Y013770D01*
X022682Y013770D01*
X022499Y013694D01*
X022358Y013553D01*
X022282Y013369D01*
X022282Y013170D01*
X022282Y013369D01*
X022206Y013553D01*
X022065Y013694D01*
X021881Y013770D01*
X021682Y013770D01*
X021499Y013694D01*
X021358Y013553D01*
X021282Y013369D01*
X021282Y013170D01*
X021282Y013369D01*
X021206Y013553D01*
X021065Y013694D01*
X020881Y013770D01*
X021065Y013846D01*
X021206Y013987D01*
X021282Y014170D01*
X021358Y013987D01*
X021499Y013846D01*
X021682Y013770D01*
X021881Y013770D01*
X022065Y013846D01*
X022206Y013987D01*
X022282Y014170D01*
X022358Y013987D01*
X022499Y013846D01*
X022682Y013770D01*
X022881Y013770D01*
X023065Y013694D01*
X023206Y013553D01*
X023282Y013369D01*
X023358Y013553D01*
X023499Y013694D01*
X023682Y013770D01*
X023881Y013770D01*
X024065Y013694D01*
X024206Y013553D01*
X024282Y013369D01*
X024282Y013170D01*
X024358Y012987D01*
X024499Y012846D01*
X024682Y012770D01*
X024499Y012694D01*
X024358Y012553D01*
X024282Y012369D01*
X024282Y012170D01*
X024282Y012369D01*
X024206Y012553D01*
X024065Y012694D01*
X023881Y012770D01*
X023682Y012770D01*
X023499Y012846D01*
X023358Y012987D01*
X023282Y013170D01*
X023282Y013369D01*
X023282Y013170D01*
X023206Y012987D01*
X023065Y012846D01*
X022881Y012770D01*
X022682Y012770D01*
X022499Y012846D01*
X022358Y012987D01*
X022282Y013170D01*
X022206Y012987D01*
X022065Y012846D01*
X021881Y012770D01*
X021682Y012770D01*
X021499Y012846D01*
X021358Y012987D01*
X021282Y013170D01*
X021206Y012987D01*
X021065Y012846D01*
X020881Y012770D01*
X020682Y012770D01*
X020499Y012846D01*
X020358Y012987D01*
X020282Y013170D01*
X020282Y013369D01*
X020358Y013553D01*
X020499Y013694D01*
X020682Y013770D01*
X020881Y013770D01*
X020682Y013770D01*
X020499Y013846D01*
X020358Y013987D01*
X020282Y014170D01*
X020206Y013987D01*
X020065Y013846D01*
X019881Y013770D01*
X019682Y013770D01*
X019499Y013694D01*
X019358Y013553D01*
X019282Y013369D01*
X019282Y013170D01*
X019282Y013369D01*
X019206Y013553D01*
X019065Y013694D01*
X018881Y013770D01*
X019065Y013846D01*
X019206Y013987D01*
X019282Y014170D01*
X019358Y013987D01*
X019499Y013846D01*
X019682Y013770D01*
X019881Y013770D01*
X020065Y013694D01*
X020206Y013553D01*
X020282Y013369D01*
X020282Y013170D01*
X020206Y012987D01*
X020065Y012846D01*
X019881Y012770D01*
X019682Y012770D01*
X019499Y012694D01*
X019358Y012553D01*
X019282Y012369D01*
X019282Y012170D01*
X019282Y012369D01*
X019206Y012553D01*
X019065Y012694D01*
X018881Y012770D01*
X019065Y012846D01*
X019206Y012987D01*
X019282Y013170D01*
X019358Y012987D01*
X019499Y012846D01*
X019682Y012770D01*
X019881Y012770D01*
X020065Y012694D01*
X020206Y012553D01*
X020282Y012369D01*
X020358Y012553D01*
X020499Y012694D01*
X020682Y012770D01*
X020881Y012770D01*
X021065Y012694D01*
X021206Y012553D01*
X021282Y012369D01*
X021282Y012170D01*
X021358Y011987D01*
X021499Y011846D01*
X021682Y011770D01*
X021499Y011694D01*
X021358Y011553D01*
X021282Y011369D01*
X021282Y011170D01*
X021282Y011369D01*
X021206Y011553D01*
X021065Y011694D01*
X020881Y011770D01*
X020682Y011770D01*
X020499Y011846D01*
X020358Y011987D01*
X020282Y012170D01*
X020282Y012369D01*
X020282Y012170D01*
X020206Y011987D01*
X020065Y011846D01*
X019881Y011770D01*
X019682Y011770D01*
X019499Y011846D01*
X019358Y011987D01*
X019282Y012170D01*
X019206Y011987D01*
X019065Y011846D01*
X018881Y011770D01*
X018682Y011770D01*
X018499Y011846D01*
X018358Y011987D01*
X018282Y012170D01*
X018282Y012369D01*
X018358Y012553D01*
X018499Y012694D01*
X018682Y012770D01*
X018881Y012770D01*
X018682Y012770D01*
X018499Y012846D01*
X018358Y012987D01*
X018282Y013170D01*
X018282Y013369D01*
X018358Y013553D01*
X018499Y013694D01*
X018682Y013770D01*
X018881Y013770D01*
X018682Y013770D01*
X018499Y013846D01*
X018358Y013987D01*
X018282Y014170D01*
X018206Y013987D01*
X018065Y013846D01*
X017881Y013770D01*
X017682Y013770D01*
X017499Y013694D01*
X017358Y013553D01*
X017282Y013369D01*
X017282Y013170D01*
X017282Y013369D01*
X017206Y013553D01*
X017065Y013694D01*
X016881Y013770D01*
X016682Y013770D01*
X016499Y013694D01*
X016358Y013553D01*
X016282Y013369D01*
X016282Y013170D01*
X016282Y013369D01*
X016206Y013553D01*
X016065Y013694D01*
X015881Y013770D01*
X016065Y013846D01*
X016206Y013987D01*
X016282Y014170D01*
X016358Y013987D01*
X016499Y013846D01*
X016682Y013770D01*
X016881Y013770D01*
X017065Y013846D01*
X017206Y013987D01*
X017282Y014170D01*
X017358Y013987D01*
X017499Y013846D01*
X017682Y013770D01*
X017881Y013770D01*
X018065Y013694D01*
X018206Y013553D01*
X018282Y013369D01*
X018282Y013170D01*
X018206Y012987D01*
X018065Y012846D01*
X017881Y012770D01*
X017682Y012770D01*
X017499Y012694D01*
X017358Y012553D01*
X017282Y012369D01*
X017282Y012170D01*
X017282Y012369D01*
X017206Y012553D01*
X017065Y012694D01*
X016881Y012770D01*
X016682Y012770D01*
X016499Y012694D01*
X016358Y012553D01*
X016282Y012369D01*
X016282Y012170D01*
X016282Y012369D01*
X016206Y012553D01*
X016065Y012694D01*
X015881Y012770D01*
X016065Y012846D01*
X016206Y012987D01*
X016282Y013170D01*
X016358Y012987D01*
X016499Y012846D01*
X016682Y012770D01*
X016881Y012770D01*
X017065Y012846D01*
X017206Y012987D01*
X017282Y013170D01*
X017358Y012987D01*
X017499Y012846D01*
X017682Y012770D01*
X017881Y012770D01*
X018065Y012694D01*
X018206Y012553D01*
X018282Y012369D01*
X018282Y012170D01*
X018206Y011987D01*
X018065Y011846D01*
X017881Y011770D01*
X017682Y011770D01*
X017499Y011694D01*
X017358Y011553D01*
X017282Y011369D01*
X017282Y011170D01*
X017282Y011369D01*
X017206Y011553D01*
X017065Y011694D01*
X016881Y011770D01*
X016682Y011770D01*
X016499Y011694D01*
X016358Y011553D01*
X016282Y011369D01*
X016282Y011170D01*
X016282Y011369D01*
X016206Y011553D01*
X016065Y011694D01*
X015881Y011770D01*
X016065Y011846D01*
X016206Y011987D01*
X016282Y012170D01*
X016358Y011987D01*
X016499Y011846D01*
X016682Y011770D01*
X016881Y011770D01*
X017065Y011846D01*
X017206Y011987D01*
X017282Y012170D01*
X017358Y011987D01*
X017499Y011846D01*
X017682Y011770D01*
X017881Y011770D01*
X018065Y011694D01*
X018206Y011553D01*
X018282Y011369D01*
X018358Y011553D01*
X018499Y011694D01*
X018682Y011770D01*
X018881Y011770D01*
X019065Y011694D01*
X019206Y011553D01*
X019282Y011369D01*
X019282Y011170D01*
X019358Y010987D01*
X019499Y010846D01*
X019682Y010770D01*
X019499Y010694D01*
X019358Y010553D01*
X019282Y010369D01*
X019282Y010170D01*
X019282Y010369D01*
X019206Y010553D01*
X019065Y010694D01*
X018881Y010770D01*
X018682Y010770D01*
X018499Y010846D01*
X018358Y010987D01*
X018282Y011170D01*
X018282Y011369D01*
X018282Y011170D01*
X018206Y010987D01*
X018065Y010846D01*
X017881Y010770D01*
X017682Y010770D01*
X017499Y010846D01*
X017358Y010987D01*
X017282Y011170D01*
X017206Y010987D01*
X017065Y010846D01*
X016881Y010770D01*
X016682Y010770D01*
X016499Y010846D01*
X016358Y010987D01*
X016282Y011170D01*
X016206Y010987D01*
X016065Y010846D01*
X015881Y010770D01*
X015682Y010770D01*
X015499Y010846D01*
X015358Y010987D01*
X015282Y011170D01*
X015282Y011369D01*
X015358Y011553D01*
X015499Y011694D01*
X015682Y011770D01*
X015881Y011770D01*
X015682Y011770D01*
X015499Y011846D01*
X015358Y011987D01*
X015282Y012170D01*
X015282Y012369D01*
X015358Y012553D01*
X015499Y012694D01*
X015682Y012770D01*
X015881Y012770D01*
X015682Y012770D01*
X015499Y012846D01*
X015358Y012987D01*
X015282Y013170D01*
X015282Y013369D01*
X015358Y013553D01*
X015499Y013694D01*
X015682Y013770D01*
X015881Y013770D01*
X015682Y013770D01*
X015499Y013846D01*
X015358Y013987D01*
X015282Y014170D01*
X015206Y013987D01*
X015065Y013846D01*
X014881Y013770D01*
X014682Y013770D01*
X014499Y013694D01*
X014358Y013553D01*
X014282Y013369D01*
X014282Y013170D01*
X014282Y013369D01*
X014206Y013553D01*
X014065Y013694D01*
X013881Y013770D01*
X014065Y013846D01*
X014206Y013987D01*
X014282Y014170D01*
X014358Y013987D01*
X014499Y013846D01*
X014682Y013770D01*
X014881Y013770D01*
X015065Y013694D01*
X015206Y013553D01*
X015282Y013369D01*
X015282Y013170D01*
X015206Y012987D01*
X015065Y012846D01*
X014881Y012770D01*
X014682Y012770D01*
X014499Y012694D01*
X014358Y012553D01*
X014282Y012369D01*
X014282Y012170D01*
X014282Y012369D01*
X014206Y012553D01*
X014065Y012694D01*
X013881Y012770D01*
X014065Y012846D01*
X014206Y012987D01*
X014282Y013170D01*
X014358Y012987D01*
X014499Y012846D01*
X014682Y012770D01*
X014881Y012770D01*
X015065Y012694D01*
X015206Y012553D01*
X015282Y012369D01*
X015282Y012170D01*
X015206Y011987D01*
X015065Y011846D01*
X014881Y011770D01*
X014682Y011770D01*
X014499Y011694D01*
X014358Y011553D01*
X014282Y011369D01*
X014282Y011170D01*
X014282Y011369D01*
X014206Y011553D01*
X014065Y011694D01*
X013881Y011770D01*
X014065Y011846D01*
X014206Y011987D01*
X014282Y012170D01*
X014358Y011987D01*
X014499Y011846D01*
X014682Y011770D01*
X014881Y011770D01*
X015065Y011694D01*
X015206Y011553D01*
X015282Y011369D01*
X015282Y011170D01*
X015206Y010987D01*
X015065Y010846D01*
X014881Y010770D01*
X014682Y010770D01*
X014499Y010694D01*
X014358Y010553D01*
X014282Y010369D01*
X014282Y010170D01*
X014282Y010369D01*
X014206Y010553D01*
X014065Y010694D01*
X013881Y010770D01*
X014065Y010846D01*
X014206Y010987D01*
X014282Y011170D01*
X014358Y010987D01*
X014499Y010846D01*
X014682Y010770D01*
X014881Y010770D01*
X015065Y010694D01*
X015206Y010553D01*
X015282Y010369D01*
X015358Y010553D01*
X015499Y010694D01*
X015682Y010770D01*
X015881Y010770D01*
X016065Y010694D01*
X016206Y010553D01*
X016282Y010369D01*
X016282Y010170D01*
X016358Y009987D01*
X016499Y009846D01*
X016682Y009770D01*
X016499Y009694D01*
X016358Y009553D01*
X016282Y009369D01*
X016282Y009170D01*
X016282Y009369D01*
X016206Y009553D01*
X016065Y009694D01*
X015881Y009770D01*
X015682Y009770D01*
X015499Y009846D01*
X015358Y009987D01*
X015282Y010170D01*
X015282Y010369D01*
X015282Y010170D01*
X015206Y009987D01*
X015065Y009846D01*
X014881Y009770D01*
X014682Y009770D01*
X014499Y009846D01*
X014358Y009987D01*
X014282Y010170D01*
X014206Y009987D01*
X014065Y009846D01*
X013881Y009770D01*
X013682Y009770D01*
X013499Y009846D01*
X013358Y009987D01*
X013282Y010170D01*
X013282Y010369D01*
X013358Y010553D01*
X013499Y010694D01*
X013682Y010770D01*
X013881Y010770D01*
X013682Y010770D01*
X013499Y010846D01*
X013358Y010987D01*
X013282Y011170D01*
X013282Y011369D01*
X013358Y011553D01*
X013499Y011694D01*
X013682Y011770D01*
X013881Y011770D01*
X013682Y011770D01*
X013499Y011846D01*
X013358Y011987D01*
X013282Y012170D01*
X013282Y012369D01*
X013358Y012553D01*
X013499Y012694D01*
X013682Y012770D01*
X013881Y012770D01*
X013682Y012770D01*
X013499Y012846D01*
X013358Y012987D01*
X013282Y013170D01*
X013282Y013369D01*
X013358Y013553D01*
X013499Y013694D01*
X013682Y013770D01*
X013881Y013770D01*
X013682Y013770D01*
X013499Y013846D01*
X013358Y013987D01*
X013282Y014170D01*
X013206Y013987D01*
X013065Y013846D01*
X012881Y013770D01*
X012682Y013770D01*
X012881Y013770D01*
X013065Y013694D01*
X013206Y013553D01*
X013282Y013369D01*
X013282Y013170D01*
X013206Y012987D01*
X013065Y012846D01*
X012881Y012770D01*
X012682Y012770D01*
X012881Y012770D01*
X013065Y012694D01*
X013206Y012553D01*
X013282Y012369D01*
X013282Y012170D01*
X013206Y011987D01*
X013065Y011846D01*
X012881Y011770D01*
X012682Y011770D01*
X012881Y011770D01*
X013065Y011694D01*
X013206Y011553D01*
X013282Y011369D01*
X013282Y011170D01*
X013206Y010987D01*
X013065Y010846D01*
X012881Y010770D01*
X012682Y010770D01*
X012881Y010770D01*
X013065Y010694D01*
X013206Y010553D01*
X013282Y010369D01*
X013282Y010170D01*
X013206Y009987D01*
X013065Y009846D01*
X012881Y009770D01*
X012682Y009770D01*
X012881Y009770D01*
X013065Y009694D01*
X013206Y009553D01*
X013282Y009369D01*
X013358Y009553D01*
X013499Y009694D01*
X013682Y009770D01*
X013881Y009770D01*
X014065Y009694D01*
X014206Y009553D01*
X014282Y009369D01*
X014282Y009170D01*
X014358Y008987D01*
X014499Y008846D01*
X014682Y008770D01*
X014499Y008694D01*
X014358Y008553D01*
X014282Y008369D01*
X014282Y008170D01*
X014282Y008369D01*
X014206Y008553D01*
X014065Y008694D01*
X013881Y008770D01*
X013682Y008770D01*
X013499Y008846D01*
X013358Y008987D01*
X013282Y009170D01*
X013282Y009369D01*
X013282Y009170D01*
X013206Y008987D01*
X013065Y008846D01*
X012881Y008770D01*
X012682Y008770D01*
X012881Y008770D01*
X013065Y008694D01*
X013206Y008553D01*
X013282Y008369D01*
X013282Y008170D01*
X013358Y007987D01*
X013499Y007846D01*
X013682Y007770D01*
X013881Y007770D01*
X014065Y007846D01*
X014206Y007987D01*
X014282Y008170D01*
X014358Y007987D01*
X014499Y007846D01*
X014682Y007770D01*
X014499Y007694D01*
X014358Y007553D01*
X014282Y007369D01*
X014282Y007170D01*
X014282Y007369D01*
X014206Y007553D01*
X014065Y007694D01*
X013881Y007770D01*
X013682Y007770D01*
X013499Y007694D01*
X013358Y007553D01*
X013282Y007369D01*
X013282Y007170D01*
X013358Y006987D01*
X013499Y006846D01*
X013682Y006770D01*
X013881Y006770D01*
X014065Y006846D01*
X014206Y006987D01*
X014282Y007170D01*
X014358Y006987D01*
X014499Y006846D01*
X014682Y006770D01*
X014881Y006770D01*
X015065Y006846D01*
X015206Y006987D01*
X015282Y007170D01*
X015282Y007369D01*
X015358Y007553D01*
X015499Y007694D01*
X015682Y007770D01*
X015881Y007770D01*
X016065Y007846D01*
X016206Y007987D01*
X016282Y008170D01*
X016282Y008369D01*
X016358Y008553D01*
X016499Y008694D01*
X016682Y008770D01*
X016881Y008770D01*
X017065Y008694D01*
X017206Y008553D01*
X017282Y008369D01*
X017358Y008553D01*
X017499Y008694D01*
X017682Y008770D01*
X017881Y008770D01*
X018065Y008694D01*
X018206Y008553D01*
X018282Y008369D01*
X018358Y008553D01*
X018499Y008694D01*
X018682Y008770D01*
X018881Y008770D01*
X019065Y008846D01*
X019206Y008987D01*
X019282Y009170D01*
X019282Y009369D01*
X019358Y009553D01*
X019499Y009694D01*
X019682Y009770D01*
X019881Y009770D01*
X020065Y009694D01*
X020206Y009553D01*
X020282Y009369D01*
X020358Y009553D01*
X020499Y009694D01*
X020682Y009770D01*
X020881Y009770D01*
X021065Y009846D01*
X021206Y009987D01*
X021282Y010170D01*
X021282Y010369D01*
X021358Y010553D01*
X021499Y010694D01*
X021682Y010770D01*
X021881Y010770D01*
X022065Y010694D01*
X022206Y010553D01*
X022282Y010369D01*
X022358Y010553D01*
X022499Y010694D01*
X022682Y010770D01*
X022881Y010770D01*
X023065Y010694D01*
X023206Y010553D01*
X023282Y010369D01*
X023358Y010553D01*
X023499Y010694D01*
X023682Y010770D01*
X023881Y010770D01*
X024065Y010846D01*
X024206Y010987D01*
X024282Y011170D01*
X024282Y011369D01*
X024358Y011553D01*
X024499Y011694D01*
X024682Y011770D01*
X024881Y011770D01*
X025065Y011694D01*
X025206Y011553D01*
X025282Y011369D01*
X025358Y011553D01*
X025499Y011694D01*
X025682Y011770D01*
X025881Y011770D01*
X026065Y011846D01*
X026206Y011987D01*
X026282Y012170D01*
X026282Y012369D01*
X026358Y012553D01*
X026499Y012694D01*
X026682Y012770D01*
X026881Y012770D01*
X027065Y012694D01*
X027206Y012553D01*
X027282Y012369D01*
X027358Y012553D01*
X027499Y012694D01*
X027682Y012770D01*
X027881Y012770D01*
X028065Y012694D01*
X028206Y012553D01*
X028282Y012369D01*
X028358Y012553D01*
X028499Y012694D01*
X028682Y012770D01*
X028881Y012770D01*
X028682Y012770D01*
X028499Y012846D01*
X028358Y012987D01*
X028282Y013170D01*
X028282Y013369D01*
X028358Y013553D01*
X028499Y013694D01*
X028682Y013770D01*
X028881Y013770D01*
X028682Y013770D01*
X028499Y013846D01*
X028358Y013987D01*
X028282Y014170D01*
X028206Y013987D01*
X028065Y013846D01*
X027881Y013770D01*
X027682Y013770D01*
X027499Y013694D01*
X027358Y013553D01*
X027282Y013369D01*
X027282Y013170D01*
X027282Y013369D01*
X027206Y013553D01*
X027065Y013694D01*
X026881Y013770D01*
X026682Y013770D01*
X026881Y013770D01*
X027065Y013846D01*
X027206Y013987D01*
X027282Y014170D01*
X027358Y013987D01*
X027499Y013846D01*
X027682Y013770D01*
X027881Y013770D01*
X028065Y013694D01*
X028206Y013553D01*
X028282Y013369D01*
X028282Y013170D01*
X028206Y012987D01*
X028065Y012846D01*
X027881Y012770D01*
X027682Y012770D01*
X027499Y012846D01*
X027358Y012987D01*
X027282Y013170D01*
X027206Y012987D01*
X027065Y012846D01*
X026881Y012770D01*
X026682Y012770D01*
X026499Y012846D01*
X026358Y012987D01*
X026282Y013170D01*
X026206Y012987D01*
X026065Y012846D01*
X025881Y012770D01*
X025682Y012770D01*
X025499Y012846D01*
X025358Y012987D01*
X025282Y013170D01*
X025282Y013369D01*
X025282Y013170D01*
X025206Y012987D01*
X025065Y012846D01*
X024881Y012770D01*
X024682Y012770D01*
X024881Y012770D01*
X025065Y012694D01*
X025206Y012553D01*
X025282Y012369D01*
X025358Y012553D01*
X025499Y012694D01*
X025682Y012770D01*
X025881Y012770D01*
X026065Y012694D01*
X026206Y012553D01*
X026282Y012369D01*
X026282Y012170D01*
X026358Y011987D01*
X026499Y011846D01*
X026682Y011770D01*
X026499Y011694D01*
X026358Y011553D01*
X026282Y011369D01*
X026282Y011170D01*
X026282Y011369D01*
X026206Y011553D01*
X026065Y011694D01*
X025881Y011770D01*
X025682Y011770D01*
X025499Y011846D01*
X025358Y011987D01*
X025282Y012170D01*
X025282Y012369D01*
X025282Y012170D01*
X025206Y011987D01*
X025065Y011846D01*
X024881Y011770D01*
X024682Y011770D01*
X024499Y011846D01*
X024358Y011987D01*
X024282Y012170D01*
X024206Y011987D01*
X024065Y011846D01*
X023881Y011770D01*
X023682Y011770D01*
X023499Y011846D01*
X023358Y011987D01*
X023282Y012170D01*
X023282Y012369D01*
X023282Y012170D01*
X023206Y011987D01*
X023065Y011846D01*
X022881Y011770D01*
X022682Y011770D01*
X022499Y011694D01*
X022358Y011553D01*
X022282Y011369D01*
X022282Y011170D01*
X022282Y011369D01*
X022206Y011553D01*
X022065Y011694D01*
X021881Y011770D01*
X021682Y011770D01*
X021881Y011770D01*
X022065Y011846D01*
X022206Y011987D01*
X022282Y012170D01*
X022282Y012369D01*
X022282Y012170D01*
X022358Y011987D01*
X022499Y011846D01*
X022682Y011770D01*
X022881Y011770D01*
X023065Y011694D01*
X023206Y011553D01*
X023282Y011369D01*
X023358Y011553D01*
X023499Y011694D01*
X023682Y011770D01*
X023881Y011770D01*
X024065Y011694D01*
X024206Y011553D01*
X024282Y011369D01*
X024282Y011170D01*
X024358Y010987D01*
X024499Y010846D01*
X024682Y010770D01*
X024499Y010694D01*
X024358Y010553D01*
X024282Y010369D01*
X024282Y010170D01*
X024282Y010369D01*
X024206Y010553D01*
X024065Y010694D01*
X023881Y010770D01*
X023682Y010770D01*
X023499Y010846D01*
X023358Y010987D01*
X023282Y011170D01*
X023282Y011369D01*
X023282Y011170D01*
X023206Y010987D01*
X023065Y010846D01*
X022881Y010770D01*
X022682Y010770D01*
X022499Y010846D01*
X022358Y010987D01*
X022282Y011170D01*
X022206Y010987D01*
X022065Y010846D01*
X021881Y010770D01*
X021682Y010770D01*
X021499Y010846D01*
X021358Y010987D01*
X021282Y011170D01*
X021206Y010987D01*
X021065Y010846D01*
X020881Y010770D01*
X020682Y010770D01*
X020499Y010846D01*
X020358Y010987D01*
X020282Y011170D01*
X020282Y011369D01*
X020282Y011170D01*
X020206Y010987D01*
X020065Y010846D01*
X019881Y010770D01*
X019682Y010770D01*
X019881Y010770D01*
X020065Y010694D01*
X020206Y010553D01*
X020282Y010369D01*
X020358Y010553D01*
X020499Y010694D01*
X020682Y010770D01*
X020881Y010770D01*
X021065Y010694D01*
X021206Y010553D01*
X021282Y010369D01*
X021282Y010170D01*
X021358Y009987D01*
X021499Y009846D01*
X021682Y009770D01*
X021499Y009694D01*
X021358Y009553D01*
X021282Y009369D01*
X021282Y009170D01*
X021282Y009369D01*
X021206Y009553D01*
X021065Y009694D01*
X020881Y009770D01*
X020682Y009770D01*
X020499Y009846D01*
X020358Y009987D01*
X020282Y010170D01*
X020282Y010369D01*
X020282Y010170D01*
X020206Y009987D01*
X020065Y009846D01*
X019881Y009770D01*
X019682Y009770D01*
X019499Y009846D01*
X019358Y009987D01*
X019282Y010170D01*
X019206Y009987D01*
X019065Y009846D01*
X018881Y009770D01*
X018682Y009770D01*
X018499Y009846D01*
X018358Y009987D01*
X018282Y010170D01*
X018282Y010369D01*
X018282Y010170D01*
X018206Y009987D01*
X018065Y009846D01*
X017881Y009770D01*
X017682Y009770D01*
X017499Y009694D01*
X017358Y009553D01*
X017282Y009369D01*
X017282Y009170D01*
X017282Y009369D01*
X017206Y009553D01*
X017065Y009694D01*
X016881Y009770D01*
X016682Y009770D01*
X016881Y009770D01*
X017065Y009846D01*
X017206Y009987D01*
X017282Y010170D01*
X017282Y010369D01*
X017282Y010170D01*
X017358Y009987D01*
X017499Y009846D01*
X017682Y009770D01*
X017881Y009770D01*
X018065Y009694D01*
X018206Y009553D01*
X018282Y009369D01*
X018358Y009553D01*
X018499Y009694D01*
X018682Y009770D01*
X018881Y009770D01*
X019065Y009694D01*
X019206Y009553D01*
X019282Y009369D01*
X019282Y009170D01*
X019358Y008987D01*
X019499Y008846D01*
X019682Y008770D01*
X019499Y008694D01*
X019358Y008553D01*
X019282Y008369D01*
X019282Y008170D01*
X019282Y008369D01*
X019206Y008553D01*
X019065Y008694D01*
X018881Y008770D01*
X018682Y008770D01*
X018499Y008846D01*
X018358Y008987D01*
X018282Y009170D01*
X018282Y009369D01*
X018282Y009170D01*
X018206Y008987D01*
X018065Y008846D01*
X017881Y008770D01*
X017682Y008770D01*
X017499Y008846D01*
X017358Y008987D01*
X017282Y009170D01*
X017206Y008987D01*
X017065Y008846D01*
X016881Y008770D01*
X016682Y008770D01*
X016499Y008846D01*
X016358Y008987D01*
X016282Y009170D01*
X016206Y008987D01*
X016065Y008846D01*
X015881Y008770D01*
X015682Y008770D01*
X015499Y008846D01*
X015358Y008987D01*
X015282Y009170D01*
X015282Y009369D01*
X015282Y009170D01*
X015206Y008987D01*
X015065Y008846D01*
X014881Y008770D01*
X014682Y008770D01*
X014881Y008770D01*
X015065Y008694D01*
X015206Y008553D01*
X015282Y008369D01*
X015358Y008553D01*
X015499Y008694D01*
X015682Y008770D01*
X015881Y008770D01*
X016065Y008694D01*
X016206Y008553D01*
X016282Y008369D01*
X016282Y008170D01*
X016358Y007987D01*
X016499Y007846D01*
X016682Y007770D01*
X016499Y007694D01*
X016358Y007553D01*
X016282Y007369D01*
X016282Y007170D01*
X016282Y007369D01*
X016206Y007553D01*
X016065Y007694D01*
X015881Y007770D01*
X015682Y007770D01*
X015499Y007846D01*
X015358Y007987D01*
X015282Y008170D01*
X015282Y008369D01*
X015282Y008170D01*
X015206Y007987D01*
X015065Y007846D01*
X014881Y007770D01*
X014682Y007770D01*
X014881Y007770D01*
X015065Y007694D01*
X015206Y007553D01*
X015282Y007369D01*
X015282Y007170D01*
X015358Y006987D01*
X015499Y006846D01*
X015682Y006770D01*
X015881Y006770D01*
X016065Y006846D01*
X016206Y006987D01*
X016282Y007170D01*
X016358Y006987D01*
X016499Y006846D01*
X016682Y006770D01*
X016499Y006694D01*
X016358Y006553D01*
X016282Y006369D01*
X016282Y006170D01*
X016358Y005987D01*
X016499Y005846D01*
X016682Y005770D01*
X016881Y005770D01*
X017065Y005846D01*
X017206Y005987D01*
X017282Y006170D01*
X017282Y006369D01*
X017358Y006553D01*
X017499Y006694D01*
X017682Y006770D01*
X017881Y006770D01*
X018065Y006694D01*
X018206Y006553D01*
X018282Y006369D01*
X018358Y006553D01*
X018499Y006694D01*
X018682Y006770D01*
X018881Y006770D01*
X019065Y006846D01*
X019206Y006987D01*
X019282Y007170D01*
X019282Y007369D01*
X019358Y007553D01*
X019499Y007694D01*
X019682Y007770D01*
X019881Y007770D01*
X020065Y007694D01*
X020206Y007553D01*
X020282Y007369D01*
X020358Y007553D01*
X020499Y007694D01*
X020682Y007770D01*
X020881Y007770D01*
X021065Y007846D01*
X021206Y007987D01*
X021282Y008170D01*
X021282Y008369D01*
X021358Y008553D01*
X021499Y008694D01*
X021682Y008770D01*
X021881Y008770D01*
X022065Y008694D01*
X022206Y008553D01*
X022282Y008369D01*
X022358Y008553D01*
X022499Y008694D01*
X022682Y008770D01*
X022881Y008770D01*
X023065Y008694D01*
X023206Y008553D01*
X023282Y008369D01*
X023358Y008553D01*
X023499Y008694D01*
X023682Y008770D01*
X023881Y008770D01*
X024065Y008846D01*
X024206Y008987D01*
X024282Y009170D01*
X024282Y009369D01*
X024358Y009553D01*
X024499Y009694D01*
X024682Y009770D01*
X024881Y009770D01*
X025065Y009694D01*
X025206Y009553D01*
X025282Y009369D01*
X025358Y009553D01*
X025499Y009694D01*
X025682Y009770D01*
X025881Y009770D01*
X026065Y009846D01*
X026206Y009987D01*
X026282Y010170D01*
X026282Y010369D01*
X026358Y010553D01*
X026499Y010694D01*
X026682Y010770D01*
X026881Y010770D01*
X027065Y010694D01*
X027206Y010553D01*
X027282Y010369D01*
X027358Y010553D01*
X027499Y010694D01*
X027682Y010770D01*
X027881Y010770D01*
X028065Y010694D01*
X028206Y010553D01*
X028282Y010369D01*
X028358Y010553D01*
X028499Y010694D01*
X028682Y010770D01*
X028881Y010770D01*
X028682Y010770D01*
X028499Y010846D01*
X028358Y010987D01*
X028282Y011170D01*
X028282Y011369D01*
X028358Y011553D01*
X028499Y011694D01*
X028682Y011770D01*
X028881Y011770D01*
X028682Y011770D01*
X028499Y011846D01*
X028358Y011987D01*
X028282Y012170D01*
X028282Y012369D01*
X028282Y012170D01*
X028206Y011987D01*
X028065Y011846D01*
X027881Y011770D01*
X027682Y011770D01*
X027499Y011694D01*
X027358Y011553D01*
X027282Y011369D01*
X027282Y011170D01*
X027282Y011369D01*
X027206Y011553D01*
X027065Y011694D01*
X026881Y011770D01*
X026682Y011770D01*
X026881Y011770D01*
X027065Y011846D01*
X027206Y011987D01*
X027282Y012170D01*
X027282Y012369D01*
X027282Y012170D01*
X027358Y011987D01*
X027499Y011846D01*
X027682Y011770D01*
X027881Y011770D01*
X028065Y011694D01*
X028206Y011553D01*
X028282Y011369D01*
X028282Y011170D01*
X028206Y010987D01*
X028065Y010846D01*
X027881Y010770D01*
X027682Y010770D01*
X027499Y010846D01*
X027358Y010987D01*
X027282Y011170D01*
X027206Y010987D01*
X027065Y010846D01*
X026881Y010770D01*
X026682Y010770D01*
X026499Y010846D01*
X026358Y010987D01*
X026282Y011170D01*
X026206Y010987D01*
X026065Y010846D01*
X025881Y010770D01*
X025682Y010770D01*
X025499Y010846D01*
X025358Y010987D01*
X025282Y011170D01*
X025282Y011369D01*
X025282Y011170D01*
X025206Y010987D01*
X025065Y010846D01*
X024881Y010770D01*
X024682Y010770D01*
X024881Y010770D01*
X025065Y010694D01*
X025206Y010553D01*
X025282Y010369D01*
X025358Y010553D01*
X025499Y010694D01*
X025682Y010770D01*
X025881Y010770D01*
X026065Y010694D01*
X026206Y010553D01*
X026282Y010369D01*
X026282Y010170D01*
X026358Y009987D01*
X026499Y009846D01*
X026682Y009770D01*
X026499Y009694D01*
X026358Y009553D01*
X026282Y009369D01*
X026282Y009170D01*
X026282Y009369D01*
X026206Y009553D01*
X026065Y009694D01*
X025881Y009770D01*
X025682Y009770D01*
X025499Y009846D01*
X025358Y009987D01*
X025282Y010170D01*
X025282Y010369D01*
X025282Y010170D01*
X025206Y009987D01*
X025065Y009846D01*
X024881Y009770D01*
X024682Y009770D01*
X024499Y009846D01*
X024358Y009987D01*
X024282Y010170D01*
X024206Y009987D01*
X024065Y009846D01*
X023881Y009770D01*
X023682Y009770D01*
X023499Y009846D01*
X023358Y009987D01*
X023282Y010170D01*
X023282Y010369D01*
X023282Y010170D01*
X023206Y009987D01*
X023065Y009846D01*
X022881Y009770D01*
X022682Y009770D01*
X022499Y009694D01*
X022358Y009553D01*
X022282Y009369D01*
X022282Y009170D01*
X022282Y009369D01*
X022206Y009553D01*
X022065Y009694D01*
X021881Y009770D01*
X021682Y009770D01*
X021881Y009770D01*
X022065Y009846D01*
X022206Y009987D01*
X022282Y010170D01*
X022282Y010369D01*
X022282Y010170D01*
X022358Y009987D01*
X022499Y009846D01*
X022682Y009770D01*
X022881Y009770D01*
X023065Y009694D01*
X023206Y009553D01*
X023282Y009369D01*
X023358Y009553D01*
X023499Y009694D01*
X023682Y009770D01*
X023881Y009770D01*
X024065Y009694D01*
X024206Y009553D01*
X024282Y009369D01*
X024282Y009170D01*
X024358Y008987D01*
X024499Y008846D01*
X024682Y008770D01*
X024499Y008694D01*
X024358Y008553D01*
X024282Y008369D01*
X024282Y008170D01*
X024282Y008369D01*
X024206Y008553D01*
X024065Y008694D01*
X023881Y008770D01*
X023682Y008770D01*
X023499Y008846D01*
X023358Y008987D01*
X023282Y009170D01*
X023282Y009369D01*
X023282Y009170D01*
X023206Y008987D01*
X023065Y008846D01*
X022881Y008770D01*
X022682Y008770D01*
X022499Y008846D01*
X022358Y008987D01*
X022282Y009170D01*
X022206Y008987D01*
X022065Y008846D01*
X021881Y008770D01*
X021682Y008770D01*
X021499Y008846D01*
X021358Y008987D01*
X021282Y009170D01*
X021206Y008987D01*
X021065Y008846D01*
X020881Y008770D01*
X020682Y008770D01*
X020499Y008846D01*
X020358Y008987D01*
X020282Y009170D01*
X020282Y009369D01*
X020282Y009170D01*
X020206Y008987D01*
X020065Y008846D01*
X019881Y008770D01*
X019682Y008770D01*
X019881Y008770D01*
X020065Y008694D01*
X020206Y008553D01*
X020282Y008369D01*
X020358Y008553D01*
X020499Y008694D01*
X020682Y008770D01*
X020881Y008770D01*
X021065Y008694D01*
X021206Y008553D01*
X021282Y008369D01*
X021282Y008170D01*
X021358Y007987D01*
X021499Y007846D01*
X021682Y007770D01*
X021499Y007694D01*
X021358Y007553D01*
X021282Y007369D01*
X021282Y007170D01*
X021282Y007369D01*
X021206Y007553D01*
X021065Y007694D01*
X020881Y007770D01*
X020682Y007770D01*
X020499Y007846D01*
X020358Y007987D01*
X020282Y008170D01*
X020282Y008369D01*
X020282Y008170D01*
X020206Y007987D01*
X020065Y007846D01*
X019881Y007770D01*
X019682Y007770D01*
X019499Y007846D01*
X019358Y007987D01*
X019282Y008170D01*
X019206Y007987D01*
X019065Y007846D01*
X018881Y007770D01*
X018682Y007770D01*
X018499Y007846D01*
X018358Y007987D01*
X018282Y008170D01*
X018282Y008369D01*
X018282Y008170D01*
X018206Y007987D01*
X018065Y007846D01*
X017881Y007770D01*
X017682Y007770D01*
X017499Y007694D01*
X017358Y007553D01*
X017282Y007369D01*
X017282Y007170D01*
X017282Y007369D01*
X017206Y007553D01*
X017065Y007694D01*
X016881Y007770D01*
X016682Y007770D01*
X016881Y007770D01*
X017065Y007846D01*
X017206Y007987D01*
X017282Y008170D01*
X017282Y008369D01*
X017282Y008170D01*
X017358Y007987D01*
X017499Y007846D01*
X017682Y007770D01*
X017881Y007770D01*
X018065Y007694D01*
X018206Y007553D01*
X018282Y007369D01*
X018358Y007553D01*
X018499Y007694D01*
X018682Y007770D01*
X018881Y007770D01*
X019065Y007694D01*
X019206Y007553D01*
X019282Y007369D01*
X019282Y007170D01*
X019358Y006987D01*
X019499Y006846D01*
X019682Y006770D01*
X019499Y006694D01*
X019358Y006553D01*
X019282Y006369D01*
X019282Y006170D01*
X019282Y006369D01*
X019206Y006553D01*
X019065Y006694D01*
X018881Y006770D01*
X018682Y006770D01*
X018499Y006846D01*
X018358Y006987D01*
X018282Y007170D01*
X018282Y007369D01*
X018282Y007170D01*
X018206Y006987D01*
X018065Y006846D01*
X017881Y006770D01*
X017682Y006770D01*
X017499Y006846D01*
X017358Y006987D01*
X017282Y007170D01*
X017206Y006987D01*
X017065Y006846D01*
X016881Y006770D01*
X016682Y006770D01*
X016881Y006770D01*
X017065Y006694D01*
X017206Y006553D01*
X017282Y006369D01*
X017282Y006170D01*
X017358Y005987D01*
X017499Y005846D01*
X017682Y005770D01*
X017881Y005770D01*
X018065Y005846D01*
X018206Y005987D01*
X018282Y006170D01*
X018282Y006369D01*
X018282Y006170D01*
X018358Y005987D01*
X018499Y005846D01*
X018682Y005770D01*
X018881Y005770D01*
X019065Y005846D01*
X019206Y005987D01*
X019282Y006170D01*
X019358Y005987D01*
X019499Y005846D01*
X019682Y005770D01*
X019881Y005770D01*
X020065Y005846D01*
X020206Y005987D01*
X020282Y006170D01*
X020282Y006369D01*
X020358Y006553D01*
X020499Y006694D01*
X020682Y006770D01*
X020881Y006770D01*
X021065Y006846D01*
X021206Y006987D01*
X021282Y007170D01*
X021358Y006987D01*
X021499Y006846D01*
X021682Y006770D01*
X021499Y006694D01*
X021358Y006553D01*
X021282Y006369D01*
X021282Y006170D01*
X021282Y006369D01*
X021206Y006553D01*
X021065Y006694D01*
X020881Y006770D01*
X020682Y006770D01*
X020499Y006846D01*
X020358Y006987D01*
X020282Y007170D01*
X020282Y007369D01*
X020282Y007170D01*
X020206Y006987D01*
X020065Y006846D01*
X019881Y006770D01*
X019682Y006770D01*
X019881Y006770D01*
X020065Y006694D01*
X020206Y006553D01*
X020282Y006369D01*
X020282Y006170D01*
X020358Y005987D01*
X020499Y005846D01*
X020682Y005770D01*
X020881Y005770D01*
X021065Y005846D01*
X021206Y005987D01*
X021282Y006170D01*
X021358Y005987D01*
X021499Y005846D01*
X021682Y005770D01*
X021881Y005770D01*
X022065Y005846D01*
X022206Y005987D01*
X022282Y006170D01*
X022282Y006369D01*
X022358Y006553D01*
X022499Y006694D01*
X022682Y006770D01*
X022881Y006770D01*
X023065Y006694D01*
X023206Y006553D01*
X023282Y006369D01*
X023358Y006553D01*
X023499Y006694D01*
X023682Y006770D01*
X023881Y006770D01*
X024065Y006846D01*
X024206Y006987D01*
X024282Y007170D01*
X024282Y007369D01*
X024358Y007553D01*
X024499Y007694D01*
X024682Y007770D01*
X024881Y007770D01*
X025065Y007694D01*
X025206Y007553D01*
X025282Y007369D01*
X025358Y007553D01*
X025499Y007694D01*
X025682Y007770D01*
X025881Y007770D01*
X026065Y007846D01*
X026206Y007987D01*
X026282Y008170D01*
X026282Y008369D01*
X026358Y008553D01*
X026499Y008694D01*
X026682Y008770D01*
X026881Y008770D01*
X027065Y008694D01*
X027206Y008553D01*
X027282Y008369D01*
X027358Y008553D01*
X027499Y008694D01*
X027682Y008770D01*
X027881Y008770D01*
X028065Y008694D01*
X028206Y008553D01*
X028282Y008369D01*
X028358Y008553D01*
X028499Y008694D01*
X028682Y008770D01*
X028881Y008770D01*
X028682Y008770D01*
X028499Y008846D01*
X028358Y008987D01*
X028282Y009170D01*
X028282Y009369D01*
X028358Y009553D01*
X028499Y009694D01*
X028682Y009770D01*
X028881Y009770D01*
X028682Y009770D01*
X028499Y009846D01*
X028358Y009987D01*
X028282Y010170D01*
X028282Y010369D01*
X028282Y010170D01*
X028206Y009987D01*
X028065Y009846D01*
X027881Y009770D01*
X027682Y009770D01*
X027499Y009694D01*
X027358Y009553D01*
X027282Y009369D01*
X027282Y009170D01*
X027282Y009369D01*
X027206Y009553D01*
X027065Y009694D01*
X026881Y009770D01*
X026682Y009770D01*
X026881Y009770D01*
X027065Y009846D01*
X027206Y009987D01*
X027282Y010170D01*
X027282Y010369D01*
X027282Y010170D01*
X027358Y009987D01*
X027499Y009846D01*
X027682Y009770D01*
X027881Y009770D01*
X028065Y009694D01*
X028206Y009553D01*
X028282Y009369D01*
X028282Y009170D01*
X028206Y008987D01*
X028065Y008846D01*
X027881Y008770D01*
X027682Y008770D01*
X027499Y008846D01*
X027358Y008987D01*
X027282Y009170D01*
X027206Y008987D01*
X027065Y008846D01*
X026881Y008770D01*
X026682Y008770D01*
X026499Y008846D01*
X026358Y008987D01*
X026282Y009170D01*
X026206Y008987D01*
X026065Y008846D01*
X025881Y008770D01*
X025682Y008770D01*
X025499Y008846D01*
X025358Y008987D01*
X025282Y009170D01*
X025282Y009369D01*
X025282Y009170D01*
X025206Y008987D01*
X025065Y008846D01*
X024881Y008770D01*
X024682Y008770D01*
X024881Y008770D01*
X025065Y008694D01*
X025206Y008553D01*
X025282Y008369D01*
X025358Y008553D01*
X025499Y008694D01*
X025682Y008770D01*
X025881Y008770D01*
X026065Y008694D01*
X026206Y008553D01*
X026282Y008369D01*
X026282Y008170D01*
X026358Y007987D01*
X026499Y007846D01*
X026682Y007770D01*
X026499Y007694D01*
X026358Y007553D01*
X026282Y007369D01*
X026282Y007170D01*
X026282Y007369D01*
X026206Y007553D01*
X026065Y007694D01*
X025881Y007770D01*
X025682Y007770D01*
X025499Y007846D01*
X025358Y007987D01*
X025282Y008170D01*
X025282Y008369D01*
X025282Y008170D01*
X025206Y007987D01*
X025065Y007846D01*
X024881Y007770D01*
X024682Y007770D01*
X024499Y007846D01*
X024358Y007987D01*
X024282Y008170D01*
X024206Y007987D01*
X024065Y007846D01*
X023881Y007770D01*
X023682Y007770D01*
X023499Y007846D01*
X023358Y007987D01*
X023282Y008170D01*
X023282Y008369D01*
X023282Y008170D01*
X023206Y007987D01*
X023065Y007846D01*
X022881Y007770D01*
X022682Y007770D01*
X022499Y007694D01*
X022358Y007553D01*
X022282Y007369D01*
X022282Y007170D01*
X022282Y007369D01*
X022206Y007553D01*
X022065Y007694D01*
X021881Y007770D01*
X021682Y007770D01*
X021881Y007770D01*
X022065Y007846D01*
X022206Y007987D01*
X022282Y008170D01*
X022282Y008369D01*
X022282Y008170D01*
X022358Y007987D01*
X022499Y007846D01*
X022682Y007770D01*
X022881Y007770D01*
X023065Y007694D01*
X023206Y007553D01*
X023282Y007369D01*
X023358Y007553D01*
X023499Y007694D01*
X023682Y007770D01*
X023881Y007770D01*
X024065Y007694D01*
X024206Y007553D01*
X024282Y007369D01*
X024282Y007170D01*
X024358Y006987D01*
X024499Y006846D01*
X024682Y006770D01*
X024499Y006694D01*
X024358Y006553D01*
X024282Y006369D01*
X024282Y006170D01*
X024282Y006369D01*
X024206Y006553D01*
X024065Y006694D01*
X023881Y006770D01*
X023682Y006770D01*
X023499Y006846D01*
X023358Y006987D01*
X023282Y007170D01*
X023282Y007369D01*
X023282Y007170D01*
X023206Y006987D01*
X023065Y006846D01*
X022881Y006770D01*
X022682Y006770D01*
X022499Y006846D01*
X022358Y006987D01*
X022282Y007170D01*
X022206Y006987D01*
X022065Y006846D01*
X021881Y006770D01*
X021682Y006770D01*
X021881Y006770D01*
X022065Y006694D01*
X022206Y006553D01*
X022282Y006369D01*
X022282Y006170D01*
X022358Y005987D01*
X022499Y005846D01*
X022682Y005770D01*
X022881Y005770D01*
X023065Y005846D01*
X023206Y005987D01*
X023282Y006170D01*
X023282Y006369D01*
X023282Y006170D01*
X023358Y005987D01*
X023499Y005846D01*
X023682Y005770D01*
X023881Y005770D01*
X024065Y005846D01*
X024206Y005987D01*
X024282Y006170D01*
X024358Y005987D01*
X024499Y005846D01*
X024682Y005770D01*
X024881Y005770D01*
X025065Y005846D01*
X025206Y005987D01*
X025282Y006170D01*
X025282Y006369D01*
X025358Y006553D01*
X025499Y006694D01*
X025682Y006770D01*
X025881Y006770D01*
X026065Y006846D01*
X026206Y006987D01*
X026282Y007170D01*
X026358Y006987D01*
X026499Y006846D01*
X026682Y006770D01*
X026499Y006694D01*
X026358Y006553D01*
X026282Y006369D01*
X026282Y006170D01*
X026282Y006369D01*
X026206Y006553D01*
X026065Y006694D01*
X025881Y006770D01*
X025682Y006770D01*
X025499Y006846D01*
X025358Y006987D01*
X025282Y007170D01*
X025282Y007369D01*
X025282Y007170D01*
X025206Y006987D01*
X025065Y006846D01*
X024881Y006770D01*
X024682Y006770D01*
X024881Y006770D01*
X025065Y006694D01*
X025206Y006553D01*
X025282Y006369D01*
X025282Y006170D01*
X025358Y005987D01*
X025499Y005846D01*
X025682Y005770D01*
X025881Y005770D01*
X026065Y005846D01*
X026206Y005987D01*
X026282Y006170D01*
X026358Y005987D01*
X026499Y005846D01*
X026682Y005770D01*
X026881Y005770D01*
X027065Y005846D01*
X027206Y005987D01*
X027282Y006170D01*
X027282Y006369D01*
X027358Y006553D01*
X027499Y006694D01*
X027682Y006770D01*
X027881Y006770D01*
X028065Y006694D01*
X028206Y006553D01*
X028282Y006369D01*
X028358Y006553D01*
X028499Y006694D01*
X028682Y006770D01*
X028881Y006770D01*
X028682Y006770D01*
X028499Y006846D01*
X028358Y006987D01*
X028282Y007170D01*
X028282Y007369D01*
X028358Y007553D01*
X028499Y007694D01*
X028682Y007770D01*
X028881Y007770D01*
X028682Y007770D01*
X028499Y007846D01*
X028358Y007987D01*
X028282Y008170D01*
X028282Y008369D01*
X028282Y008170D01*
X028206Y007987D01*
X028065Y007846D01*
X027881Y007770D01*
X027682Y007770D01*
X027499Y007694D01*
X027358Y007553D01*
X027282Y007369D01*
X027282Y007170D01*
X027282Y007369D01*
X027206Y007553D01*
X027065Y007694D01*
X026881Y007770D01*
X026682Y007770D01*
X026881Y007770D01*
X027065Y007846D01*
X027206Y007987D01*
X027282Y008170D01*
X027282Y008369D01*
X027282Y008170D01*
X027358Y007987D01*
X027499Y007846D01*
X027682Y007770D01*
X027881Y007770D01*
X028065Y007694D01*
X028206Y007553D01*
X028282Y007369D01*
X028282Y007170D01*
X028206Y006987D01*
X028065Y006846D01*
X027881Y006770D01*
X027682Y006770D01*
X027499Y006846D01*
X027358Y006987D01*
X027282Y007170D01*
X027206Y006987D01*
X027065Y006846D01*
X026881Y006770D01*
X026682Y006770D01*
X026881Y006770D01*
X027065Y006694D01*
X027206Y006553D01*
X027282Y006369D01*
X027282Y006170D01*
X027358Y005987D01*
X027499Y005846D01*
X027682Y005770D01*
X027881Y005770D01*
X028065Y005846D01*
X028206Y005987D01*
X028282Y006170D01*
X028282Y006369D01*
X028282Y006170D01*
X028358Y005987D01*
X028499Y005846D01*
X028682Y005770D01*
X028881Y005770D01*
X029065Y005846D01*
X029206Y005987D01*
X029282Y006170D01*
X029358Y005987D01*
X029499Y005846D01*
X029682Y005770D01*
X029881Y005770D01*
X030065Y005846D01*
X030222Y006026D02*
X030341Y006026D01*
X030282Y006185D02*
X030282Y006185D01*
X030282Y006343D02*
X030282Y006343D01*
X030227Y006502D02*
X030337Y006502D01*
X030465Y006660D02*
X030098Y006660D01*
X029999Y006819D02*
X030564Y006819D01*
X030367Y006977D02*
X030196Y006977D01*
X030267Y007136D02*
X030296Y007136D01*
X030282Y007295D02*
X030282Y007295D01*
X030247Y007453D02*
X030316Y007453D01*
X030416Y007612D02*
X030147Y007612D01*
X029882Y007770D02*
X030682Y007770D01*
X030416Y007929D02*
X030148Y007929D01*
X030247Y008087D02*
X030316Y008087D01*
X030282Y008246D02*
X030282Y008246D01*
X030267Y008404D02*
X030296Y008404D01*
X030368Y008563D02*
X030196Y008563D01*
X029998Y008721D02*
X030565Y008721D01*
X030465Y008880D02*
X030099Y008880D01*
X030227Y009039D02*
X030336Y009039D01*
X030282Y009197D02*
X030282Y009197D01*
X030282Y009356D02*
X030282Y009356D01*
X030222Y009514D02*
X030342Y009514D01*
X030477Y009673D02*
X030086Y009673D01*
X030029Y009831D02*
X030534Y009831D01*
X030357Y009990D02*
X030207Y009990D01*
X030273Y010148D02*
X030291Y010148D01*
X030282Y010307D02*
X030282Y010307D01*
X030242Y010465D02*
X030322Y010465D01*
X030429Y010624D02*
X030135Y010624D01*
X029912Y010783D02*
X030652Y010783D01*
X030403Y010941D02*
X030160Y010941D01*
X030252Y011100D02*
X030311Y011100D01*
X030282Y011258D02*
X030282Y011258D01*
X030262Y011417D02*
X030301Y011417D01*
X030380Y011575D02*
X030183Y011575D01*
X029968Y011734D02*
X030595Y011734D01*
X030452Y011892D02*
X030111Y011892D01*
X030232Y012051D02*
X030331Y012051D01*
X030282Y012209D02*
X030282Y012209D01*
X030282Y012368D02*
X030282Y012368D01*
X030217Y012526D02*
X030347Y012526D01*
X030490Y012685D02*
X030074Y012685D01*
X030059Y012844D02*
X030504Y012844D01*
X030351Y013002D02*
X030212Y013002D01*
X030278Y013161D02*
X030286Y013161D01*
X030282Y013319D02*
X030282Y013319D01*
X030237Y013478D02*
X030327Y013478D01*
X030441Y013636D02*
X030122Y013636D01*
X029941Y013795D02*
X030622Y013795D01*
X030391Y013953D02*
X030172Y013953D01*
X030257Y014112D02*
X030306Y014112D01*
X030282Y014270D02*
X030282Y014270D01*
X030257Y014429D02*
X030306Y014429D01*
X030392Y014588D02*
X030171Y014588D01*
X029939Y014746D02*
X030625Y014746D01*
X030440Y014905D02*
X006522Y014905D01*
X006542Y014858D02*
X006469Y015034D01*
X006334Y015169D01*
X006157Y015242D01*
X005966Y015242D01*
X005790Y015169D01*
X005672Y015051D01*
X005554Y015169D01*
X005377Y015242D01*
X005186Y015242D01*
X005010Y015169D01*
X004875Y015034D01*
X004802Y014858D01*
X004802Y014667D01*
X004875Y014490D01*
X005010Y014355D01*
X005186Y014282D01*
X005377Y014282D01*
X005554Y014355D01*
X005672Y014473D01*
X005790Y014355D01*
X005966Y014282D01*
X006157Y014282D01*
X006334Y014355D01*
X006469Y014490D01*
X006542Y014667D01*
X006542Y014858D01*
X006542Y014746D02*
X012625Y014746D01*
X012392Y014588D02*
X006509Y014588D01*
X006408Y014429D02*
X012306Y014429D01*
X012282Y014270D02*
X003342Y014270D01*
X003342Y014112D02*
X004965Y014112D01*
X005021Y014168D02*
X004892Y014038D01*
X004822Y013869D01*
X004822Y013788D01*
X005271Y013788D01*
X005271Y013768D01*
X004822Y013768D01*
X004822Y013686D01*
X004892Y013517D01*
X005021Y013388D01*
X005190Y013318D01*
X005272Y013318D01*
X005272Y013768D01*
X005292Y013768D01*
X005292Y013318D01*
X005373Y013318D01*
X005542Y013388D01*
X005658Y013503D01*
X005782Y013379D01*
X005782Y013306D01*
X005782Y013074D01*
X006002Y012854D01*
X006166Y012690D01*
X008866Y012690D01*
X009098Y012690D01*
X009178Y012770D01*
X009261Y012770D01*
X009408Y012831D01*
X009521Y012943D01*
X009582Y013090D01*
X009582Y013249D01*
X009521Y013396D01*
X009408Y013509D01*
X009261Y013570D01*
X009102Y013570D01*
X008955Y013509D01*
X008843Y013396D01*
X008782Y013250D01*
X006398Y013250D01*
X006342Y013306D01*
X006342Y013379D01*
X006469Y013506D01*
X006542Y013682D01*
X006542Y013873D01*
X006469Y014050D01*
X006334Y014185D01*
X006157Y014258D01*
X005966Y014258D01*
X005790Y014185D01*
X005658Y014052D01*
X005542Y014168D01*
X005373Y014238D01*
X005292Y014238D01*
X005292Y013788D01*
X005272Y013788D01*
X005272Y014238D01*
X005190Y014238D01*
X005021Y014168D01*
X005272Y014112D02*
X005292Y014112D01*
X005292Y013953D02*
X005272Y013953D01*
X005272Y013795D02*
X005292Y013795D01*
X005292Y013636D02*
X005272Y013636D01*
X005272Y013478D02*
X005292Y013478D01*
X005292Y013319D02*
X005272Y013319D01*
X005187Y013319D02*
X003342Y013319D01*
X003342Y013161D02*
X005782Y013161D01*
X005782Y013319D02*
X005377Y013319D01*
X005632Y013478D02*
X005683Y013478D01*
X006062Y013190D02*
X006062Y013778D01*
X006509Y013953D02*
X012391Y013953D01*
X012306Y014112D02*
X006406Y014112D01*
X006542Y013795D02*
X012622Y013795D01*
X012441Y013636D02*
X006523Y013636D01*
X006441Y013478D02*
X008924Y013478D01*
X008811Y013319D02*
X006342Y013319D01*
X006062Y013190D02*
X006282Y012970D01*
X008982Y012970D01*
X009182Y013170D01*
X009553Y013319D02*
X012282Y013319D01*
X012286Y013161D02*
X009582Y013161D01*
X009545Y013002D02*
X012351Y013002D01*
X012504Y012844D02*
X009421Y012844D01*
X009440Y013478D02*
X012327Y013478D01*
X012941Y013795D02*
X013622Y013795D01*
X013441Y013636D02*
X013122Y013636D01*
X013237Y013478D02*
X013327Y013478D01*
X013282Y013319D02*
X013282Y013319D01*
X013278Y013161D02*
X013286Y013161D01*
X013351Y013002D02*
X013212Y013002D01*
X013059Y012844D02*
X013504Y012844D01*
X013490Y012685D02*
X013074Y012685D01*
X013217Y012526D02*
X013347Y012526D01*
X013282Y012368D02*
X013282Y012368D01*
X013282Y012209D02*
X013282Y012209D01*
X013232Y012051D02*
X013331Y012051D01*
X013452Y011892D02*
X013111Y011892D01*
X012968Y011734D02*
X013595Y011734D01*
X013380Y011575D02*
X013183Y011575D01*
X013262Y011417D02*
X013301Y011417D01*
X013282Y011258D02*
X013282Y011258D01*
X013252Y011100D02*
X013311Y011100D01*
X013403Y010941D02*
X013160Y010941D01*
X012912Y010783D02*
X013652Y010783D01*
X013912Y010783D02*
X014652Y010783D01*
X014912Y010783D02*
X015652Y010783D01*
X015912Y010783D02*
X016652Y010783D01*
X016912Y010783D02*
X017652Y010783D01*
X017912Y010783D02*
X018652Y010783D01*
X018912Y010783D02*
X019652Y010783D01*
X019912Y010783D02*
X020652Y010783D01*
X020912Y010783D02*
X021652Y010783D01*
X021912Y010783D02*
X022652Y010783D01*
X022912Y010783D02*
X023652Y010783D01*
X023912Y010783D02*
X024652Y010783D01*
X024912Y010783D02*
X025652Y010783D01*
X025912Y010783D02*
X026652Y010783D01*
X026912Y010783D02*
X027652Y010783D01*
X027912Y010783D02*
X028652Y010783D01*
X028912Y010783D02*
X029652Y010783D01*
X029429Y010624D02*
X029135Y010624D01*
X029242Y010465D02*
X029322Y010465D01*
X029282Y010307D02*
X029282Y010307D01*
X029273Y010148D02*
X029291Y010148D01*
X029357Y009990D02*
X029207Y009990D01*
X029029Y009831D02*
X029534Y009831D01*
X029477Y009673D02*
X029086Y009673D01*
X029222Y009514D02*
X029342Y009514D01*
X029282Y009356D02*
X029282Y009356D01*
X029282Y009197D02*
X029282Y009197D01*
X029336Y009039D02*
X029227Y009039D01*
X029099Y008880D02*
X029465Y008880D01*
X029565Y008721D02*
X028998Y008721D01*
X029196Y008563D02*
X029368Y008563D01*
X029296Y008404D02*
X029267Y008404D01*
X029282Y008246D02*
X029282Y008246D01*
X029247Y008087D02*
X029316Y008087D01*
X029416Y007929D02*
X029148Y007929D01*
X028882Y007770D02*
X029682Y007770D01*
X029416Y007612D02*
X029147Y007612D01*
X029247Y007453D02*
X029316Y007453D01*
X029282Y007295D02*
X029282Y007295D01*
X029267Y007136D02*
X029296Y007136D01*
X029367Y006977D02*
X029196Y006977D01*
X028999Y006819D02*
X029564Y006819D01*
X029465Y006660D02*
X029098Y006660D01*
X029227Y006502D02*
X029337Y006502D01*
X029282Y006343D02*
X029282Y006343D01*
X029282Y006185D02*
X029282Y006185D01*
X029222Y006026D02*
X029341Y006026D01*
X029477Y005868D02*
X029087Y005868D01*
X028477Y005868D02*
X028087Y005868D01*
X028222Y006026D02*
X028341Y006026D01*
X028282Y006185D02*
X028282Y006185D01*
X028282Y006343D02*
X028282Y006343D01*
X028227Y006502D02*
X028337Y006502D01*
X028465Y006660D02*
X028098Y006660D01*
X027999Y006819D02*
X028564Y006819D01*
X028367Y006977D02*
X028196Y006977D01*
X028267Y007136D02*
X028296Y007136D01*
X028282Y007295D02*
X028282Y007295D01*
X028247Y007453D02*
X028316Y007453D01*
X028416Y007612D02*
X028147Y007612D01*
X027882Y007770D02*
X028682Y007770D01*
X028416Y007929D02*
X028148Y007929D01*
X028247Y008087D02*
X028316Y008087D01*
X028282Y008246D02*
X028282Y008246D01*
X028267Y008404D02*
X028296Y008404D01*
X028368Y008563D02*
X028196Y008563D01*
X027998Y008721D02*
X028565Y008721D01*
X028465Y008880D02*
X028099Y008880D01*
X028227Y009039D02*
X028336Y009039D01*
X028282Y009197D02*
X028282Y009197D01*
X028282Y009356D02*
X028282Y009356D01*
X028222Y009514D02*
X028342Y009514D01*
X028477Y009673D02*
X028086Y009673D01*
X028029Y009831D02*
X028534Y009831D01*
X028357Y009990D02*
X028207Y009990D01*
X028273Y010148D02*
X028291Y010148D01*
X028282Y010307D02*
X028282Y010307D01*
X028242Y010465D02*
X028322Y010465D01*
X028429Y010624D02*
X028135Y010624D01*
X028160Y010941D02*
X028403Y010941D01*
X028311Y011100D02*
X028252Y011100D01*
X028282Y011258D02*
X028282Y011258D01*
X028262Y011417D02*
X028301Y011417D01*
X028380Y011575D02*
X028183Y011575D01*
X027968Y011734D02*
X028595Y011734D01*
X028452Y011892D02*
X028111Y011892D01*
X028232Y012051D02*
X028331Y012051D01*
X028282Y012209D02*
X028282Y012209D01*
X028282Y012368D02*
X028282Y012368D01*
X028217Y012526D02*
X028347Y012526D01*
X028490Y012685D02*
X028074Y012685D01*
X028059Y012844D02*
X028504Y012844D01*
X028351Y013002D02*
X028212Y013002D01*
X028278Y013161D02*
X028286Y013161D01*
X028282Y013319D02*
X028282Y013319D01*
X028237Y013478D02*
X028327Y013478D01*
X028441Y013636D02*
X028122Y013636D01*
X027941Y013795D02*
X028622Y013795D01*
X028391Y013953D02*
X028172Y013953D01*
X028257Y014112D02*
X028306Y014112D01*
X028282Y014270D02*
X028282Y014270D01*
X028257Y014429D02*
X028306Y014429D01*
X028392Y014588D02*
X028171Y014588D01*
X027939Y014746D02*
X028625Y014746D01*
X028939Y014746D02*
X029625Y014746D01*
X029392Y014588D02*
X029171Y014588D01*
X029257Y014429D02*
X029306Y014429D01*
X029282Y014270D02*
X029282Y014270D01*
X029257Y014112D02*
X029306Y014112D01*
X029391Y013953D02*
X029172Y013953D01*
X028941Y013795D02*
X029622Y013795D01*
X029441Y013636D02*
X029122Y013636D01*
X029237Y013478D02*
X029327Y013478D01*
X029282Y013319D02*
X029282Y013319D01*
X029278Y013161D02*
X029286Y013161D01*
X029351Y013002D02*
X029212Y013002D01*
X029059Y012844D02*
X029504Y012844D01*
X029490Y012685D02*
X029074Y012685D01*
X029217Y012526D02*
X029347Y012526D01*
X029282Y012368D02*
X029282Y012368D01*
X029282Y012209D02*
X029282Y012209D01*
X029232Y012051D02*
X029331Y012051D01*
X029452Y011892D02*
X029111Y011892D01*
X028968Y011734D02*
X029595Y011734D01*
X029380Y011575D02*
X029183Y011575D01*
X029262Y011417D02*
X029301Y011417D01*
X029282Y011258D02*
X029282Y011258D01*
X029252Y011100D02*
X029311Y011100D01*
X029403Y010941D02*
X029160Y010941D01*
X027595Y011734D02*
X026968Y011734D01*
X027111Y011892D02*
X027452Y011892D01*
X027331Y012051D02*
X027232Y012051D01*
X027282Y012209D02*
X027282Y012209D01*
X027282Y012368D02*
X027282Y012368D01*
X027217Y012526D02*
X027347Y012526D01*
X027490Y012685D02*
X027074Y012685D01*
X027059Y012844D02*
X027504Y012844D01*
X027351Y013002D02*
X027212Y013002D01*
X027278Y013161D02*
X027286Y013161D01*
X027282Y013319D02*
X027282Y013319D01*
X027237Y013478D02*
X027327Y013478D01*
X027441Y013636D02*
X027122Y013636D01*
X026941Y013795D02*
X027622Y013795D01*
X027391Y013953D02*
X027172Y013953D01*
X027257Y014112D02*
X027306Y014112D01*
X027282Y014270D02*
X027282Y014270D01*
X027257Y014429D02*
X027306Y014429D01*
X027392Y014588D02*
X027171Y014588D01*
X026939Y014746D02*
X027625Y014746D01*
X026625Y014746D02*
X025939Y014746D01*
X026171Y014588D02*
X026392Y014588D01*
X026306Y014429D02*
X026257Y014429D01*
X026282Y014270D02*
X026282Y014270D01*
X026257Y014112D02*
X026306Y014112D01*
X026391Y013953D02*
X026172Y013953D01*
X025941Y013795D02*
X026622Y013795D01*
X026441Y013636D02*
X026122Y013636D01*
X026237Y013478D02*
X026327Y013478D01*
X026282Y013319D02*
X026282Y013319D01*
X026278Y013161D02*
X026286Y013161D01*
X026351Y013002D02*
X026212Y013002D01*
X026059Y012844D02*
X026504Y012844D01*
X026490Y012685D02*
X026074Y012685D01*
X026217Y012526D02*
X026347Y012526D01*
X026282Y012368D02*
X026282Y012368D01*
X026282Y012209D02*
X026282Y012209D01*
X026232Y012051D02*
X026331Y012051D01*
X026452Y011892D02*
X026111Y011892D01*
X025968Y011734D02*
X026595Y011734D01*
X026380Y011575D02*
X026183Y011575D01*
X026262Y011417D02*
X026301Y011417D01*
X026282Y011258D02*
X026282Y011258D01*
X026252Y011100D02*
X026311Y011100D01*
X026403Y010941D02*
X026160Y010941D01*
X026135Y010624D02*
X026429Y010624D01*
X026322Y010465D02*
X026242Y010465D01*
X026282Y010307D02*
X026282Y010307D01*
X026273Y010148D02*
X026291Y010148D01*
X026357Y009990D02*
X026207Y009990D01*
X026029Y009831D02*
X026534Y009831D01*
X026477Y009673D02*
X026086Y009673D01*
X026222Y009514D02*
X026342Y009514D01*
X026282Y009356D02*
X026282Y009356D01*
X026282Y009197D02*
X026282Y009197D01*
X026336Y009039D02*
X026227Y009039D01*
X026099Y008880D02*
X026465Y008880D01*
X026565Y008721D02*
X025998Y008721D01*
X026196Y008563D02*
X026368Y008563D01*
X026296Y008404D02*
X026267Y008404D01*
X026282Y008246D02*
X026282Y008246D01*
X026247Y008087D02*
X026316Y008087D01*
X026416Y007929D02*
X026148Y007929D01*
X025882Y007770D02*
X026682Y007770D01*
X026882Y007770D02*
X027682Y007770D01*
X027416Y007612D02*
X027147Y007612D01*
X027247Y007453D02*
X027316Y007453D01*
X027282Y007295D02*
X027282Y007295D01*
X027267Y007136D02*
X027296Y007136D01*
X027367Y006977D02*
X027196Y006977D01*
X026999Y006819D02*
X027564Y006819D01*
X027465Y006660D02*
X027098Y006660D01*
X027227Y006502D02*
X027337Y006502D01*
X027282Y006343D02*
X027282Y006343D01*
X027282Y006185D02*
X027282Y006185D01*
X027222Y006026D02*
X027341Y006026D01*
X027477Y005868D02*
X027087Y005868D01*
X026477Y005868D02*
X026087Y005868D01*
X026222Y006026D02*
X026341Y006026D01*
X026282Y006185D02*
X026282Y006185D01*
X026282Y006343D02*
X026282Y006343D01*
X026227Y006502D02*
X026337Y006502D01*
X026465Y006660D02*
X026098Y006660D01*
X025999Y006819D02*
X026564Y006819D01*
X026367Y006977D02*
X026196Y006977D01*
X026267Y007136D02*
X026296Y007136D01*
X026282Y007295D02*
X026282Y007295D01*
X026247Y007453D02*
X026316Y007453D01*
X026416Y007612D02*
X026147Y007612D01*
X025682Y007770D02*
X024882Y007770D01*
X024682Y007770D02*
X023882Y007770D01*
X023682Y007770D02*
X022882Y007770D01*
X022682Y007770D02*
X021882Y007770D01*
X021682Y007770D02*
X020882Y007770D01*
X020682Y007770D02*
X019882Y007770D01*
X019682Y007770D02*
X018882Y007770D01*
X018682Y007770D02*
X017882Y007770D01*
X017682Y007770D02*
X016882Y007770D01*
X016682Y007770D02*
X015882Y007770D01*
X015682Y007770D02*
X014882Y007770D01*
X014682Y007770D02*
X013882Y007770D01*
X013682Y007770D02*
X012882Y007770D01*
X012682Y007770D02*
X004873Y007770D01*
X004988Y007885D02*
X005114Y008191D01*
X005114Y008277D01*
X004362Y008277D01*
X004362Y008436D01*
X005114Y008436D01*
X005114Y008522D01*
X004988Y008828D01*
X004753Y009062D01*
X004447Y009189D01*
X004362Y009189D01*
X004362Y008437D01*
X004202Y008437D01*
X004202Y009189D01*
X004116Y009189D01*
X003810Y009062D01*
X003576Y008828D01*
X003449Y008522D01*
X003449Y008436D01*
X004202Y008436D01*
X004202Y008277D01*
X003449Y008277D01*
X003449Y008191D01*
X003576Y007885D01*
X003810Y007651D01*
X004116Y007524D01*
X004202Y007524D01*
X004202Y008276D01*
X004362Y008276D01*
X004362Y007524D01*
X004447Y007524D01*
X004753Y007651D01*
X004988Y007885D01*
X005006Y007929D02*
X012416Y007929D01*
X012316Y008087D02*
X005072Y008087D01*
X005114Y008246D02*
X012282Y008246D01*
X012296Y008404D02*
X004362Y008404D01*
X004362Y008246D02*
X004202Y008246D01*
X004202Y008404D02*
X003342Y008404D01*
X003342Y008246D02*
X003449Y008246D01*
X003492Y008087D02*
X003342Y008087D01*
X003342Y007929D02*
X003558Y007929D01*
X003690Y007770D02*
X003342Y007770D01*
X003342Y007612D02*
X003904Y007612D01*
X004202Y007612D02*
X004362Y007612D01*
X004362Y007770D02*
X004202Y007770D01*
X004202Y007929D02*
X004362Y007929D01*
X004362Y008087D02*
X004202Y008087D01*
X004659Y007612D02*
X005196Y007612D01*
X005252Y007635D02*
X005073Y007561D01*
X004936Y007424D01*
X004862Y007245D01*
X004862Y007051D01*
X004936Y006872D01*
X005073Y006735D01*
X005252Y006661D01*
X005446Y006661D01*
X005624Y006735D01*
X005761Y006872D01*
X005836Y007051D01*
X005836Y007245D01*
X005761Y007424D01*
X005624Y007561D01*
X005446Y007635D01*
X005252Y007635D01*
X005501Y007612D02*
X013416Y007612D01*
X013316Y007453D02*
X005732Y007453D01*
X005815Y007295D02*
X013282Y007295D01*
X013296Y007136D02*
X005836Y007136D01*
X005805Y006977D02*
X013367Y006977D01*
X013564Y006819D02*
X005708Y006819D01*
X005624Y006576D02*
X005446Y006651D01*
X005252Y006651D01*
X005073Y006576D01*
X004936Y006439D01*
X004862Y006260D01*
X004862Y006067D01*
X004936Y005888D01*
X005054Y005770D01*
X004936Y005652D01*
X004862Y005473D01*
X004862Y005279D01*
X004936Y005100D01*
X005073Y004963D01*
X005252Y004889D01*
X005446Y004889D01*
X005624Y004963D01*
X005761Y005100D01*
X005836Y005279D01*
X005836Y005473D01*
X005761Y005652D01*
X005644Y005770D01*
X005761Y005888D01*
X005836Y006067D01*
X005836Y006260D01*
X005761Y006439D01*
X005624Y006576D01*
X005699Y006502D02*
X016337Y006502D01*
X016282Y006343D02*
X005801Y006343D01*
X005836Y006185D02*
X016282Y006185D01*
X016341Y006026D02*
X005819Y006026D01*
X005741Y005868D02*
X016477Y005868D01*
X017087Y005868D02*
X017477Y005868D01*
X017341Y006026D02*
X017222Y006026D01*
X017282Y006185D02*
X017282Y006185D01*
X017282Y006343D02*
X017282Y006343D01*
X017227Y006502D02*
X017337Y006502D01*
X017465Y006660D02*
X017098Y006660D01*
X016999Y006819D02*
X017564Y006819D01*
X017367Y006977D02*
X017196Y006977D01*
X017267Y007136D02*
X017296Y007136D01*
X017282Y007295D02*
X017282Y007295D01*
X017247Y007453D02*
X017316Y007453D01*
X017416Y007612D02*
X017147Y007612D01*
X017148Y007929D02*
X017416Y007929D01*
X017316Y008087D02*
X017247Y008087D01*
X017282Y008246D02*
X017282Y008246D01*
X017267Y008404D02*
X017296Y008404D01*
X017368Y008563D02*
X017196Y008563D01*
X016998Y008721D02*
X017565Y008721D01*
X017465Y008880D02*
X017099Y008880D01*
X017227Y009039D02*
X017336Y009039D01*
X017282Y009197D02*
X017282Y009197D01*
X017282Y009356D02*
X017282Y009356D01*
X017222Y009514D02*
X017342Y009514D01*
X017477Y009673D02*
X017086Y009673D01*
X017029Y009831D02*
X017534Y009831D01*
X017357Y009990D02*
X017207Y009990D01*
X017273Y010148D02*
X017291Y010148D01*
X017282Y010307D02*
X017282Y010307D01*
X017242Y010465D02*
X017322Y010465D01*
X017429Y010624D02*
X017135Y010624D01*
X017160Y010941D02*
X017403Y010941D01*
X017311Y011100D02*
X017252Y011100D01*
X017282Y011258D02*
X017282Y011258D01*
X017262Y011417D02*
X017301Y011417D01*
X017380Y011575D02*
X017183Y011575D01*
X016968Y011734D02*
X017595Y011734D01*
X017452Y011892D02*
X017111Y011892D01*
X017232Y012051D02*
X017331Y012051D01*
X017282Y012209D02*
X017282Y012209D01*
X017282Y012368D02*
X017282Y012368D01*
X017217Y012526D02*
X017347Y012526D01*
X017490Y012685D02*
X017074Y012685D01*
X017059Y012844D02*
X017504Y012844D01*
X017351Y013002D02*
X017212Y013002D01*
X017278Y013161D02*
X017286Y013161D01*
X017282Y013319D02*
X017282Y013319D01*
X017237Y013478D02*
X017327Y013478D01*
X017441Y013636D02*
X017122Y013636D01*
X016941Y013795D02*
X017622Y013795D01*
X017391Y013953D02*
X017172Y013953D01*
X017257Y014112D02*
X017306Y014112D01*
X017282Y014270D02*
X017282Y014270D01*
X017257Y014429D02*
X017306Y014429D01*
X017392Y014588D02*
X017171Y014588D01*
X016939Y014746D02*
X017625Y014746D01*
X017939Y014746D02*
X018625Y014746D01*
X018392Y014588D02*
X018171Y014588D01*
X018257Y014429D02*
X018306Y014429D01*
X018282Y014270D02*
X018282Y014270D01*
X018257Y014112D02*
X018306Y014112D01*
X018391Y013953D02*
X018172Y013953D01*
X017941Y013795D02*
X018622Y013795D01*
X018441Y013636D02*
X018122Y013636D01*
X018237Y013478D02*
X018327Y013478D01*
X018282Y013319D02*
X018282Y013319D01*
X018278Y013161D02*
X018286Y013161D01*
X018351Y013002D02*
X018212Y013002D01*
X018059Y012844D02*
X018504Y012844D01*
X018490Y012685D02*
X018074Y012685D01*
X018217Y012526D02*
X018347Y012526D01*
X018282Y012368D02*
X018282Y012368D01*
X018282Y012209D02*
X018282Y012209D01*
X018232Y012051D02*
X018331Y012051D01*
X018452Y011892D02*
X018111Y011892D01*
X017968Y011734D02*
X018595Y011734D01*
X018380Y011575D02*
X018183Y011575D01*
X018262Y011417D02*
X018301Y011417D01*
X018282Y011258D02*
X018282Y011258D01*
X018252Y011100D02*
X018311Y011100D01*
X018403Y010941D02*
X018160Y010941D01*
X018135Y010624D02*
X018429Y010624D01*
X018322Y010465D02*
X018242Y010465D01*
X018282Y010307D02*
X018282Y010307D01*
X018273Y010148D02*
X018291Y010148D01*
X018357Y009990D02*
X018207Y009990D01*
X018029Y009831D02*
X018534Y009831D01*
X018477Y009673D02*
X018086Y009673D01*
X018222Y009514D02*
X018342Y009514D01*
X018282Y009356D02*
X018282Y009356D01*
X018282Y009197D02*
X018282Y009197D01*
X018336Y009039D02*
X018227Y009039D01*
X018099Y008880D02*
X018465Y008880D01*
X018565Y008721D02*
X017998Y008721D01*
X018196Y008563D02*
X018368Y008563D01*
X018296Y008404D02*
X018267Y008404D01*
X018282Y008246D02*
X018282Y008246D01*
X018247Y008087D02*
X018316Y008087D01*
X018416Y007929D02*
X018148Y007929D01*
X018147Y007612D02*
X018416Y007612D01*
X018316Y007453D02*
X018247Y007453D01*
X018282Y007295D02*
X018282Y007295D01*
X018267Y007136D02*
X018296Y007136D01*
X018367Y006977D02*
X018196Y006977D01*
X017999Y006819D02*
X018564Y006819D01*
X018465Y006660D02*
X018098Y006660D01*
X018227Y006502D02*
X018337Y006502D01*
X018282Y006343D02*
X018282Y006343D01*
X018282Y006185D02*
X018282Y006185D01*
X018222Y006026D02*
X018341Y006026D01*
X018477Y005868D02*
X018087Y005868D01*
X019087Y005868D02*
X019477Y005868D01*
X019341Y006026D02*
X019222Y006026D01*
X019282Y006185D02*
X019282Y006185D01*
X019282Y006343D02*
X019282Y006343D01*
X019227Y006502D02*
X019337Y006502D01*
X019465Y006660D02*
X019098Y006660D01*
X018999Y006819D02*
X019564Y006819D01*
X019367Y006977D02*
X019196Y006977D01*
X019267Y007136D02*
X019296Y007136D01*
X019282Y007295D02*
X019282Y007295D01*
X019247Y007453D02*
X019316Y007453D01*
X019416Y007612D02*
X019147Y007612D01*
X019148Y007929D02*
X019416Y007929D01*
X019316Y008087D02*
X019247Y008087D01*
X019282Y008246D02*
X019282Y008246D01*
X019267Y008404D02*
X019296Y008404D01*
X019368Y008563D02*
X019196Y008563D01*
X018998Y008721D02*
X019565Y008721D01*
X019465Y008880D02*
X019099Y008880D01*
X019227Y009039D02*
X019336Y009039D01*
X019282Y009197D02*
X019282Y009197D01*
X019282Y009356D02*
X019282Y009356D01*
X019222Y009514D02*
X019342Y009514D01*
X019477Y009673D02*
X019086Y009673D01*
X019029Y009831D02*
X019534Y009831D01*
X019357Y009990D02*
X019207Y009990D01*
X019273Y010148D02*
X019291Y010148D01*
X019282Y010307D02*
X019282Y010307D01*
X019242Y010465D02*
X019322Y010465D01*
X019429Y010624D02*
X019135Y010624D01*
X019160Y010941D02*
X019403Y010941D01*
X019311Y011100D02*
X019252Y011100D01*
X019282Y011258D02*
X019282Y011258D01*
X019262Y011417D02*
X019301Y011417D01*
X019380Y011575D02*
X019183Y011575D01*
X018968Y011734D02*
X019595Y011734D01*
X019452Y011892D02*
X019111Y011892D01*
X019232Y012051D02*
X019331Y012051D01*
X019282Y012209D02*
X019282Y012209D01*
X019282Y012368D02*
X019282Y012368D01*
X019217Y012526D02*
X019347Y012526D01*
X019490Y012685D02*
X019074Y012685D01*
X019059Y012844D02*
X019504Y012844D01*
X019351Y013002D02*
X019212Y013002D01*
X019278Y013161D02*
X019286Y013161D01*
X019282Y013319D02*
X019282Y013319D01*
X019237Y013478D02*
X019327Y013478D01*
X019441Y013636D02*
X019122Y013636D01*
X018941Y013795D02*
X019622Y013795D01*
X019391Y013953D02*
X019172Y013953D01*
X019257Y014112D02*
X019306Y014112D01*
X019282Y014270D02*
X019282Y014270D01*
X019257Y014429D02*
X019306Y014429D01*
X019392Y014588D02*
X019171Y014588D01*
X018939Y014746D02*
X019625Y014746D01*
X019939Y014746D02*
X020625Y014746D01*
X020392Y014588D02*
X020171Y014588D01*
X020257Y014429D02*
X020306Y014429D01*
X020282Y014270D02*
X020282Y014270D01*
X020257Y014112D02*
X020306Y014112D01*
X020391Y013953D02*
X020172Y013953D01*
X019941Y013795D02*
X020622Y013795D01*
X020441Y013636D02*
X020122Y013636D01*
X020237Y013478D02*
X020327Y013478D01*
X020282Y013319D02*
X020282Y013319D01*
X020278Y013161D02*
X020286Y013161D01*
X020351Y013002D02*
X020212Y013002D01*
X020059Y012844D02*
X020504Y012844D01*
X020490Y012685D02*
X020074Y012685D01*
X020217Y012526D02*
X020347Y012526D01*
X020282Y012368D02*
X020282Y012368D01*
X020282Y012209D02*
X020282Y012209D01*
X020232Y012051D02*
X020331Y012051D01*
X020452Y011892D02*
X020111Y011892D01*
X019968Y011734D02*
X020595Y011734D01*
X020380Y011575D02*
X020183Y011575D01*
X020262Y011417D02*
X020301Y011417D01*
X020282Y011258D02*
X020282Y011258D01*
X020252Y011100D02*
X020311Y011100D01*
X020403Y010941D02*
X020160Y010941D01*
X020135Y010624D02*
X020429Y010624D01*
X020322Y010465D02*
X020242Y010465D01*
X020282Y010307D02*
X020282Y010307D01*
X020273Y010148D02*
X020291Y010148D01*
X020357Y009990D02*
X020207Y009990D01*
X020029Y009831D02*
X020534Y009831D01*
X020477Y009673D02*
X020086Y009673D01*
X020222Y009514D02*
X020342Y009514D01*
X020282Y009356D02*
X020282Y009356D01*
X020282Y009197D02*
X020282Y009197D01*
X020336Y009039D02*
X020227Y009039D01*
X020099Y008880D02*
X020465Y008880D01*
X020565Y008721D02*
X019998Y008721D01*
X020196Y008563D02*
X020368Y008563D01*
X020296Y008404D02*
X020267Y008404D01*
X020282Y008246D02*
X020282Y008246D01*
X020247Y008087D02*
X020316Y008087D01*
X020416Y007929D02*
X020148Y007929D01*
X020147Y007612D02*
X020416Y007612D01*
X020316Y007453D02*
X020247Y007453D01*
X020282Y007295D02*
X020282Y007295D01*
X020267Y007136D02*
X020296Y007136D01*
X020367Y006977D02*
X020196Y006977D01*
X019999Y006819D02*
X020564Y006819D01*
X020465Y006660D02*
X020098Y006660D01*
X020227Y006502D02*
X020337Y006502D01*
X020282Y006343D02*
X020282Y006343D01*
X020282Y006185D02*
X020282Y006185D01*
X020222Y006026D02*
X020341Y006026D01*
X020477Y005868D02*
X020087Y005868D01*
X021087Y005868D02*
X021477Y005868D01*
X021341Y006026D02*
X021222Y006026D01*
X021282Y006185D02*
X021282Y006185D01*
X021282Y006343D02*
X021282Y006343D01*
X021227Y006502D02*
X021337Y006502D01*
X021465Y006660D02*
X021098Y006660D01*
X020999Y006819D02*
X021564Y006819D01*
X021367Y006977D02*
X021196Y006977D01*
X021267Y007136D02*
X021296Y007136D01*
X021282Y007295D02*
X021282Y007295D01*
X021247Y007453D02*
X021316Y007453D01*
X021416Y007612D02*
X021147Y007612D01*
X021148Y007929D02*
X021416Y007929D01*
X021316Y008087D02*
X021247Y008087D01*
X021282Y008246D02*
X021282Y008246D01*
X021267Y008404D02*
X021296Y008404D01*
X021368Y008563D02*
X021196Y008563D01*
X020998Y008721D02*
X021565Y008721D01*
X021465Y008880D02*
X021099Y008880D01*
X021227Y009039D02*
X021336Y009039D01*
X021282Y009197D02*
X021282Y009197D01*
X021282Y009356D02*
X021282Y009356D01*
X021222Y009514D02*
X021342Y009514D01*
X021477Y009673D02*
X021086Y009673D01*
X021029Y009831D02*
X021534Y009831D01*
X021357Y009990D02*
X021207Y009990D01*
X021273Y010148D02*
X021291Y010148D01*
X021282Y010307D02*
X021282Y010307D01*
X021242Y010465D02*
X021322Y010465D01*
X021429Y010624D02*
X021135Y010624D01*
X021160Y010941D02*
X021403Y010941D01*
X021311Y011100D02*
X021252Y011100D01*
X021282Y011258D02*
X021282Y011258D01*
X021262Y011417D02*
X021301Y011417D01*
X021380Y011575D02*
X021183Y011575D01*
X020968Y011734D02*
X021595Y011734D01*
X021452Y011892D02*
X021111Y011892D01*
X021232Y012051D02*
X021331Y012051D01*
X021282Y012209D02*
X021282Y012209D01*
X021282Y012368D02*
X021282Y012368D01*
X021217Y012526D02*
X021347Y012526D01*
X021490Y012685D02*
X021074Y012685D01*
X021059Y012844D02*
X021504Y012844D01*
X021351Y013002D02*
X021212Y013002D01*
X021278Y013161D02*
X021286Y013161D01*
X021282Y013319D02*
X021282Y013319D01*
X021237Y013478D02*
X021327Y013478D01*
X021441Y013636D02*
X021122Y013636D01*
X020941Y013795D02*
X021622Y013795D01*
X021391Y013953D02*
X021172Y013953D01*
X021257Y014112D02*
X021306Y014112D01*
X021282Y014270D02*
X021282Y014270D01*
X021257Y014429D02*
X021306Y014429D01*
X021392Y014588D02*
X021171Y014588D01*
X020939Y014746D02*
X021625Y014746D01*
X021939Y014746D02*
X022625Y014746D01*
X022392Y014588D02*
X022171Y014588D01*
X022257Y014429D02*
X022306Y014429D01*
X022282Y014270D02*
X022282Y014270D01*
X022257Y014112D02*
X022306Y014112D01*
X022391Y013953D02*
X022172Y013953D01*
X021941Y013795D02*
X022622Y013795D01*
X022441Y013636D02*
X022122Y013636D01*
X022237Y013478D02*
X022327Y013478D01*
X022282Y013319D02*
X022282Y013319D01*
X022278Y013161D02*
X022286Y013161D01*
X022351Y013002D02*
X022212Y013002D01*
X022059Y012844D02*
X022504Y012844D01*
X022490Y012685D02*
X022074Y012685D01*
X022217Y012526D02*
X022347Y012526D01*
X022282Y012368D02*
X022282Y012368D01*
X022282Y012209D02*
X022282Y012209D01*
X022232Y012051D02*
X022331Y012051D01*
X022452Y011892D02*
X022111Y011892D01*
X021968Y011734D02*
X022595Y011734D01*
X022380Y011575D02*
X022183Y011575D01*
X022262Y011417D02*
X022301Y011417D01*
X022282Y011258D02*
X022282Y011258D01*
X022252Y011100D02*
X022311Y011100D01*
X022403Y010941D02*
X022160Y010941D01*
X022135Y010624D02*
X022429Y010624D01*
X022322Y010465D02*
X022242Y010465D01*
X022282Y010307D02*
X022282Y010307D01*
X022273Y010148D02*
X022291Y010148D01*
X022357Y009990D02*
X022207Y009990D01*
X022029Y009831D02*
X022534Y009831D01*
X022477Y009673D02*
X022086Y009673D01*
X022222Y009514D02*
X022342Y009514D01*
X022282Y009356D02*
X022282Y009356D01*
X022282Y009197D02*
X022282Y009197D01*
X022336Y009039D02*
X022227Y009039D01*
X022099Y008880D02*
X022465Y008880D01*
X022565Y008721D02*
X021998Y008721D01*
X022196Y008563D02*
X022368Y008563D01*
X022296Y008404D02*
X022267Y008404D01*
X022282Y008246D02*
X022282Y008246D01*
X022247Y008087D02*
X022316Y008087D01*
X022416Y007929D02*
X022148Y007929D01*
X022147Y007612D02*
X022416Y007612D01*
X022316Y007453D02*
X022247Y007453D01*
X022282Y007295D02*
X022282Y007295D01*
X022267Y007136D02*
X022296Y007136D01*
X022367Y006977D02*
X022196Y006977D01*
X021999Y006819D02*
X022564Y006819D01*
X022465Y006660D02*
X022098Y006660D01*
X022227Y006502D02*
X022337Y006502D01*
X022282Y006343D02*
X022282Y006343D01*
X022282Y006185D02*
X022282Y006185D01*
X022222Y006026D02*
X022341Y006026D01*
X022477Y005868D02*
X022087Y005868D01*
X023087Y005868D02*
X023477Y005868D01*
X023341Y006026D02*
X023222Y006026D01*
X023282Y006185D02*
X023282Y006185D01*
X023282Y006343D02*
X023282Y006343D01*
X023227Y006502D02*
X023337Y006502D01*
X023465Y006660D02*
X023098Y006660D01*
X022999Y006819D02*
X023564Y006819D01*
X023367Y006977D02*
X023196Y006977D01*
X023267Y007136D02*
X023296Y007136D01*
X023282Y007295D02*
X023282Y007295D01*
X023247Y007453D02*
X023316Y007453D01*
X023416Y007612D02*
X023147Y007612D01*
X023148Y007929D02*
X023416Y007929D01*
X023316Y008087D02*
X023247Y008087D01*
X023282Y008246D02*
X023282Y008246D01*
X023267Y008404D02*
X023296Y008404D01*
X023368Y008563D02*
X023196Y008563D01*
X022998Y008721D02*
X023565Y008721D01*
X023465Y008880D02*
X023099Y008880D01*
X023227Y009039D02*
X023336Y009039D01*
X023282Y009197D02*
X023282Y009197D01*
X023282Y009356D02*
X023282Y009356D01*
X023222Y009514D02*
X023342Y009514D01*
X023477Y009673D02*
X023086Y009673D01*
X023029Y009831D02*
X023534Y009831D01*
X023357Y009990D02*
X023207Y009990D01*
X023273Y010148D02*
X023291Y010148D01*
X023282Y010307D02*
X023282Y010307D01*
X023242Y010465D02*
X023322Y010465D01*
X023429Y010624D02*
X023135Y010624D01*
X023160Y010941D02*
X023403Y010941D01*
X023311Y011100D02*
X023252Y011100D01*
X023282Y011258D02*
X023282Y011258D01*
X023262Y011417D02*
X023301Y011417D01*
X023380Y011575D02*
X023183Y011575D01*
X022968Y011734D02*
X023595Y011734D01*
X023452Y011892D02*
X023111Y011892D01*
X023232Y012051D02*
X023331Y012051D01*
X023282Y012209D02*
X023282Y012209D01*
X023282Y012368D02*
X023282Y012368D01*
X023217Y012526D02*
X023347Y012526D01*
X023490Y012685D02*
X023074Y012685D01*
X023059Y012844D02*
X023504Y012844D01*
X023351Y013002D02*
X023212Y013002D01*
X023278Y013161D02*
X023286Y013161D01*
X023282Y013319D02*
X023282Y013319D01*
X023237Y013478D02*
X023327Y013478D01*
X023441Y013636D02*
X023122Y013636D01*
X022941Y013795D02*
X023622Y013795D01*
X023391Y013953D02*
X023172Y013953D01*
X023257Y014112D02*
X023306Y014112D01*
X023282Y014270D02*
X023282Y014270D01*
X023257Y014429D02*
X023306Y014429D01*
X023392Y014588D02*
X023171Y014588D01*
X022939Y014746D02*
X023625Y014746D01*
X023939Y014746D02*
X024625Y014746D01*
X024392Y014588D02*
X024171Y014588D01*
X024257Y014429D02*
X024306Y014429D01*
X024282Y014270D02*
X024282Y014270D01*
X024257Y014112D02*
X024306Y014112D01*
X024391Y013953D02*
X024172Y013953D01*
X023941Y013795D02*
X024622Y013795D01*
X024441Y013636D02*
X024122Y013636D01*
X024237Y013478D02*
X024327Y013478D01*
X024282Y013319D02*
X024282Y013319D01*
X024278Y013161D02*
X024286Y013161D01*
X024351Y013002D02*
X024212Y013002D01*
X024059Y012844D02*
X024504Y012844D01*
X024490Y012685D02*
X024074Y012685D01*
X024217Y012526D02*
X024347Y012526D01*
X024282Y012368D02*
X024282Y012368D01*
X024282Y012209D02*
X024282Y012209D01*
X024232Y012051D02*
X024331Y012051D01*
X024452Y011892D02*
X024111Y011892D01*
X023968Y011734D02*
X024595Y011734D01*
X024380Y011575D02*
X024183Y011575D01*
X024262Y011417D02*
X024301Y011417D01*
X024282Y011258D02*
X024282Y011258D01*
X024252Y011100D02*
X024311Y011100D01*
X024403Y010941D02*
X024160Y010941D01*
X024135Y010624D02*
X024429Y010624D01*
X024322Y010465D02*
X024242Y010465D01*
X024282Y010307D02*
X024282Y010307D01*
X024273Y010148D02*
X024291Y010148D01*
X024357Y009990D02*
X024207Y009990D01*
X024029Y009831D02*
X024534Y009831D01*
X024477Y009673D02*
X024086Y009673D01*
X024222Y009514D02*
X024342Y009514D01*
X024282Y009356D02*
X024282Y009356D01*
X024282Y009197D02*
X024282Y009197D01*
X024336Y009039D02*
X024227Y009039D01*
X024099Y008880D02*
X024465Y008880D01*
X024565Y008721D02*
X023998Y008721D01*
X024196Y008563D02*
X024368Y008563D01*
X024296Y008404D02*
X024267Y008404D01*
X024282Y008246D02*
X024282Y008246D01*
X024247Y008087D02*
X024316Y008087D01*
X024416Y007929D02*
X024148Y007929D01*
X024147Y007612D02*
X024416Y007612D01*
X024316Y007453D02*
X024247Y007453D01*
X024282Y007295D02*
X024282Y007295D01*
X024267Y007136D02*
X024296Y007136D01*
X024367Y006977D02*
X024196Y006977D01*
X023999Y006819D02*
X024564Y006819D01*
X024465Y006660D02*
X024098Y006660D01*
X024227Y006502D02*
X024337Y006502D01*
X024282Y006343D02*
X024282Y006343D01*
X024282Y006185D02*
X024282Y006185D01*
X024222Y006026D02*
X024341Y006026D01*
X024477Y005868D02*
X024087Y005868D01*
X025087Y005868D02*
X025477Y005868D01*
X025341Y006026D02*
X025222Y006026D01*
X025282Y006185D02*
X025282Y006185D01*
X025282Y006343D02*
X025282Y006343D01*
X025227Y006502D02*
X025337Y006502D01*
X025465Y006660D02*
X025098Y006660D01*
X024999Y006819D02*
X025564Y006819D01*
X025367Y006977D02*
X025196Y006977D01*
X025267Y007136D02*
X025296Y007136D01*
X025282Y007295D02*
X025282Y007295D01*
X025247Y007453D02*
X025316Y007453D01*
X025416Y007612D02*
X025147Y007612D01*
X025148Y007929D02*
X025416Y007929D01*
X025316Y008087D02*
X025247Y008087D01*
X025282Y008246D02*
X025282Y008246D01*
X025267Y008404D02*
X025296Y008404D01*
X025368Y008563D02*
X025196Y008563D01*
X024998Y008721D02*
X025565Y008721D01*
X025465Y008880D02*
X025099Y008880D01*
X025227Y009039D02*
X025336Y009039D01*
X025282Y009197D02*
X025282Y009197D01*
X025282Y009356D02*
X025282Y009356D01*
X025222Y009514D02*
X025342Y009514D01*
X025477Y009673D02*
X025086Y009673D01*
X025029Y009831D02*
X025534Y009831D01*
X025357Y009990D02*
X025207Y009990D01*
X025273Y010148D02*
X025291Y010148D01*
X025282Y010307D02*
X025282Y010307D01*
X025242Y010465D02*
X025322Y010465D01*
X025429Y010624D02*
X025135Y010624D01*
X025160Y010941D02*
X025403Y010941D01*
X025311Y011100D02*
X025252Y011100D01*
X025282Y011258D02*
X025282Y011258D01*
X025262Y011417D02*
X025301Y011417D01*
X025380Y011575D02*
X025183Y011575D01*
X024968Y011734D02*
X025595Y011734D01*
X025452Y011892D02*
X025111Y011892D01*
X025232Y012051D02*
X025331Y012051D01*
X025282Y012209D02*
X025282Y012209D01*
X025282Y012368D02*
X025282Y012368D01*
X025217Y012526D02*
X025347Y012526D01*
X025490Y012685D02*
X025074Y012685D01*
X025059Y012844D02*
X025504Y012844D01*
X025351Y013002D02*
X025212Y013002D01*
X025278Y013161D02*
X025286Y013161D01*
X025282Y013319D02*
X025282Y013319D01*
X025237Y013478D02*
X025327Y013478D01*
X025441Y013636D02*
X025122Y013636D01*
X024941Y013795D02*
X025622Y013795D01*
X025391Y013953D02*
X025172Y013953D01*
X025257Y014112D02*
X025306Y014112D01*
X025282Y014270D02*
X025282Y014270D01*
X025257Y014429D02*
X025306Y014429D01*
X025392Y014588D02*
X025171Y014588D01*
X024939Y014746D02*
X025625Y014746D01*
X025682Y015770D02*
X025881Y015770D01*
X026065Y015846D01*
X026206Y015987D01*
X026282Y016170D01*
X026282Y016369D01*
X026206Y016553D01*
X026065Y016694D01*
X025881Y016770D01*
X025682Y016770D01*
X025499Y016694D01*
X025358Y016553D01*
X025282Y016369D01*
X025282Y016170D01*
X025358Y015987D01*
X025499Y015846D01*
X025682Y015770D01*
X025489Y015856D02*
X022036Y015856D01*
X022054Y015863D02*
X022189Y015998D01*
X022262Y016174D01*
X022262Y016250D01*
X021802Y016250D01*
X021802Y016290D01*
X022262Y016290D01*
X022262Y016365D01*
X022189Y016542D01*
X022054Y016677D01*
X021877Y016750D01*
X021802Y016750D01*
X021802Y016290D01*
X021762Y016290D01*
X021762Y016750D01*
X021686Y016750D01*
X021510Y016677D01*
X021375Y016542D01*
X021302Y016365D01*
X021302Y016290D01*
X021761Y016290D01*
X021761Y016250D01*
X021302Y016250D01*
X021302Y016174D01*
X021375Y015998D01*
X021510Y015863D01*
X021686Y015790D01*
X021762Y015790D01*
X021762Y016250D01*
X021802Y016250D01*
X021802Y015790D01*
X021877Y015790D01*
X022054Y015863D01*
X022195Y016014D02*
X025346Y016014D01*
X025282Y016173D02*
X022261Y016173D01*
X022262Y016332D02*
X025282Y016332D01*
X025332Y016490D02*
X022210Y016490D01*
X022082Y016649D02*
X025453Y016649D01*
X025499Y016846D02*
X025682Y016770D01*
X025881Y016770D01*
X026065Y016846D01*
X026206Y016987D01*
X026282Y017170D01*
X026358Y016987D01*
X026499Y016846D01*
X026682Y016770D01*
X026881Y016770D01*
X027065Y016846D01*
X027206Y016987D01*
X027282Y017170D01*
X027358Y016987D01*
X027499Y016846D01*
X027682Y016770D01*
X027881Y016770D01*
X028065Y016846D01*
X028206Y016987D01*
X028282Y017170D01*
X028358Y016987D01*
X028499Y016846D01*
X028682Y016770D01*
X028881Y016770D01*
X029065Y016846D01*
X029206Y016987D01*
X029282Y017170D01*
X029282Y017369D01*
X029206Y017553D01*
X029065Y017694D01*
X028881Y017770D01*
X028682Y017770D01*
X028499Y017694D01*
X028358Y017553D01*
X028282Y017369D01*
X028282Y017170D01*
X028282Y017369D01*
X028206Y017553D01*
X028065Y017694D01*
X027881Y017770D01*
X027682Y017770D01*
X027499Y017694D01*
X027358Y017553D01*
X027282Y017369D01*
X027282Y017170D01*
X027282Y017369D01*
X027206Y017553D01*
X027065Y017694D01*
X026881Y017770D01*
X026682Y017770D01*
X026499Y017694D01*
X026358Y017553D01*
X026282Y017369D01*
X026282Y017170D01*
X026282Y017369D01*
X026206Y017553D01*
X026065Y017694D01*
X025881Y017770D01*
X025682Y017770D01*
X025499Y017694D01*
X025358Y017553D01*
X025282Y017369D01*
X025282Y017170D01*
X025358Y016987D01*
X025499Y016846D01*
X025592Y016807D02*
X021971Y016807D01*
X021881Y016770D02*
X022065Y016846D01*
X022206Y016987D01*
X022282Y017170D01*
X022282Y017369D01*
X022206Y017553D01*
X022065Y017694D01*
X021881Y017770D01*
X021682Y017770D01*
X021499Y017694D01*
X021358Y017553D01*
X021282Y017369D01*
X021282Y017170D01*
X021358Y016987D01*
X021499Y016846D01*
X021682Y016770D01*
X021881Y016770D01*
X021802Y016649D02*
X021762Y016649D01*
X021762Y016490D02*
X021802Y016490D01*
X021802Y016332D02*
X021762Y016332D01*
X021762Y016173D02*
X021802Y016173D01*
X021802Y016014D02*
X021762Y016014D01*
X021762Y015856D02*
X021802Y015856D01*
X021527Y015856D02*
X021036Y015856D01*
X021054Y015863D02*
X021189Y015998D01*
X021262Y016174D01*
X021262Y016250D01*
X020802Y016250D01*
X020802Y016290D01*
X021262Y016290D01*
X021262Y016365D01*
X021189Y016542D01*
X021054Y016677D01*
X020877Y016750D01*
X020802Y016750D01*
X020802Y016290D01*
X020762Y016290D01*
X020762Y016750D01*
X020686Y016750D01*
X020510Y016677D01*
X020375Y016542D01*
X020302Y016365D01*
X020302Y016290D01*
X020761Y016290D01*
X020761Y016250D01*
X020302Y016250D01*
X020302Y016174D01*
X020375Y015998D01*
X020510Y015863D01*
X020686Y015790D01*
X020762Y015790D01*
X020762Y016250D01*
X020802Y016250D01*
X020802Y015790D01*
X020877Y015790D01*
X021054Y015863D01*
X021195Y016014D02*
X021368Y016014D01*
X021302Y016173D02*
X021261Y016173D01*
X021262Y016332D02*
X021302Y016332D01*
X021353Y016490D02*
X021210Y016490D01*
X021082Y016649D02*
X021482Y016649D01*
X021592Y016807D02*
X020971Y016807D01*
X020881Y016770D02*
X021065Y016846D01*
X021206Y016987D01*
X021282Y017170D01*
X021282Y017369D01*
X021206Y017553D01*
X021065Y017694D01*
X020881Y017770D01*
X020682Y017770D01*
X020499Y017694D01*
X020358Y017553D01*
X020282Y017369D01*
X020282Y017170D01*
X020358Y016987D01*
X020499Y016846D01*
X020682Y016770D01*
X020881Y016770D01*
X020802Y016649D02*
X020762Y016649D01*
X020762Y016490D02*
X020802Y016490D01*
X020802Y016332D02*
X020762Y016332D01*
X020762Y016173D02*
X020802Y016173D01*
X020802Y016014D02*
X020762Y016014D01*
X020762Y015856D02*
X020802Y015856D01*
X020527Y015856D02*
X020036Y015856D01*
X020054Y015863D02*
X020189Y015998D01*
X020262Y016174D01*
X020262Y016250D01*
X019802Y016250D01*
X019802Y016290D01*
X020262Y016290D01*
X020262Y016365D01*
X020189Y016542D01*
X020054Y016677D01*
X019877Y016750D01*
X019802Y016750D01*
X019802Y016290D01*
X019762Y016290D01*
X019762Y016750D01*
X019686Y016750D01*
X019510Y016677D01*
X019375Y016542D01*
X019302Y016365D01*
X019302Y016290D01*
X019761Y016290D01*
X019761Y016250D01*
X019302Y016250D01*
X019302Y016174D01*
X019375Y015998D01*
X019510Y015863D01*
X019686Y015790D01*
X019762Y015790D01*
X019762Y016250D01*
X019802Y016250D01*
X019802Y015790D01*
X019877Y015790D01*
X020054Y015863D01*
X020195Y016014D02*
X020368Y016014D01*
X020302Y016173D02*
X020261Y016173D01*
X020262Y016332D02*
X020302Y016332D01*
X020353Y016490D02*
X020210Y016490D01*
X020082Y016649D02*
X020482Y016649D01*
X020592Y016807D02*
X019971Y016807D01*
X019881Y016770D02*
X020065Y016846D01*
X020206Y016987D01*
X020282Y017170D01*
X020282Y017369D01*
X020206Y017553D01*
X020065Y017694D01*
X019881Y017770D01*
X019682Y017770D01*
X019499Y017694D01*
X019358Y017553D01*
X019282Y017369D01*
X019282Y017170D01*
X019358Y016987D01*
X019499Y016846D01*
X019682Y016770D01*
X019881Y016770D01*
X019802Y016649D02*
X019762Y016649D01*
X019762Y016490D02*
X019802Y016490D01*
X019802Y016332D02*
X019762Y016332D01*
X019762Y016173D02*
X019802Y016173D01*
X019802Y016014D02*
X019762Y016014D01*
X019762Y015856D02*
X019802Y015856D01*
X019527Y015856D02*
X019036Y015856D01*
X019054Y015863D02*
X019189Y015998D01*
X019262Y016174D01*
X019262Y016250D01*
X018802Y016250D01*
X018802Y016290D01*
X019262Y016290D01*
X019262Y016365D01*
X019189Y016542D01*
X019054Y016677D01*
X018877Y016750D01*
X018802Y016750D01*
X018802Y016290D01*
X018762Y016290D01*
X018762Y016750D01*
X018686Y016750D01*
X018510Y016677D01*
X018375Y016542D01*
X018302Y016365D01*
X018302Y016290D01*
X018761Y016290D01*
X018761Y016250D01*
X018302Y016250D01*
X018302Y016174D01*
X018375Y015998D01*
X018510Y015863D01*
X018686Y015790D01*
X018762Y015790D01*
X018762Y016250D01*
X018802Y016250D01*
X018802Y015790D01*
X018877Y015790D01*
X019054Y015863D01*
X019195Y016014D02*
X019368Y016014D01*
X019302Y016173D02*
X019261Y016173D01*
X019262Y016332D02*
X019302Y016332D01*
X019353Y016490D02*
X019210Y016490D01*
X019082Y016649D02*
X019482Y016649D01*
X019592Y016807D02*
X018971Y016807D01*
X018881Y016770D02*
X019065Y016846D01*
X019206Y016987D01*
X019282Y017170D01*
X019282Y017369D01*
X019206Y017553D01*
X019065Y017694D01*
X018881Y017770D01*
X018682Y017770D01*
X018499Y017694D01*
X018358Y017553D01*
X018282Y017369D01*
X018282Y017170D01*
X018358Y016987D01*
X018499Y016846D01*
X018682Y016770D01*
X018881Y016770D01*
X018802Y016649D02*
X018762Y016649D01*
X018762Y016490D02*
X018802Y016490D01*
X018802Y016332D02*
X018762Y016332D01*
X018762Y016173D02*
X018802Y016173D01*
X018802Y016014D02*
X018762Y016014D01*
X018762Y015856D02*
X018802Y015856D01*
X018527Y015856D02*
X018036Y015856D01*
X018054Y015863D02*
X018189Y015998D01*
X018262Y016174D01*
X018262Y016250D01*
X017802Y016250D01*
X017802Y016290D01*
X018262Y016290D01*
X018262Y016365D01*
X018189Y016542D01*
X018054Y016677D01*
X017877Y016750D01*
X017802Y016750D01*
X017802Y016290D01*
X017762Y016290D01*
X017762Y016750D01*
X017686Y016750D01*
X017510Y016677D01*
X017375Y016542D01*
X017302Y016365D01*
X017302Y016290D01*
X017761Y016290D01*
X017761Y016250D01*
X017302Y016250D01*
X017302Y016174D01*
X017375Y015998D01*
X017510Y015863D01*
X017686Y015790D01*
X017762Y015790D01*
X017762Y016250D01*
X017802Y016250D01*
X017802Y015790D01*
X017877Y015790D01*
X018054Y015863D01*
X018195Y016014D02*
X018368Y016014D01*
X018302Y016173D02*
X018261Y016173D01*
X018262Y016332D02*
X018302Y016332D01*
X018353Y016490D02*
X018210Y016490D01*
X018082Y016649D02*
X018482Y016649D01*
X018592Y016807D02*
X017971Y016807D01*
X017881Y016770D02*
X018065Y016846D01*
X018206Y016987D01*
X018282Y017170D01*
X018282Y017369D01*
X018206Y017553D01*
X018065Y017694D01*
X017881Y017770D01*
X017682Y017770D01*
X017499Y017694D01*
X017358Y017553D01*
X017282Y017369D01*
X017282Y017170D01*
X017358Y016987D01*
X017499Y016846D01*
X017682Y016770D01*
X017881Y016770D01*
X017802Y016649D02*
X017762Y016649D01*
X017762Y016490D02*
X017802Y016490D01*
X017802Y016332D02*
X017762Y016332D01*
X017762Y016173D02*
X017802Y016173D01*
X017802Y016014D02*
X017762Y016014D01*
X017762Y015856D02*
X017802Y015856D01*
X017527Y015856D02*
X017036Y015856D01*
X017054Y015863D02*
X017189Y015998D01*
X017262Y016174D01*
X017262Y016250D01*
X016802Y016250D01*
X016802Y016290D01*
X017262Y016290D01*
X017262Y016365D01*
X017189Y016542D01*
X017054Y016677D01*
X016877Y016750D01*
X016802Y016750D01*
X016802Y016290D01*
X016762Y016290D01*
X016762Y016750D01*
X016686Y016750D01*
X016510Y016677D01*
X016375Y016542D01*
X016302Y016365D01*
X016302Y016290D01*
X016761Y016290D01*
X016761Y016250D01*
X016302Y016250D01*
X016302Y016174D01*
X016375Y015998D01*
X016510Y015863D01*
X016686Y015790D01*
X016762Y015790D01*
X016762Y016250D01*
X016802Y016250D01*
X016802Y015790D01*
X016877Y015790D01*
X017054Y015863D01*
X017195Y016014D02*
X017368Y016014D01*
X017302Y016173D02*
X017261Y016173D01*
X017262Y016332D02*
X017302Y016332D01*
X017353Y016490D02*
X017210Y016490D01*
X017082Y016649D02*
X017482Y016649D01*
X017592Y016807D02*
X016971Y016807D01*
X016881Y016770D02*
X017065Y016846D01*
X017206Y016987D01*
X017282Y017170D01*
X017282Y017369D01*
X017206Y017553D01*
X017065Y017694D01*
X016881Y017770D01*
X016682Y017770D01*
X016499Y017694D01*
X016358Y017553D01*
X016282Y017369D01*
X016282Y017170D01*
X016358Y016987D01*
X016499Y016846D01*
X016682Y016770D01*
X016881Y016770D01*
X016802Y016649D02*
X016762Y016649D01*
X016762Y016490D02*
X016802Y016490D01*
X016802Y016332D02*
X016762Y016332D01*
X016762Y016173D02*
X016802Y016173D01*
X016802Y016014D02*
X016762Y016014D01*
X016762Y015856D02*
X016802Y015856D01*
X016527Y015856D02*
X016036Y015856D01*
X016054Y015863D02*
X016189Y015998D01*
X016262Y016174D01*
X016262Y016250D01*
X015802Y016250D01*
X015802Y016290D01*
X016262Y016290D01*
X016262Y016365D01*
X016189Y016542D01*
X016054Y016677D01*
X015877Y016750D01*
X015802Y016750D01*
X015802Y016290D01*
X015762Y016290D01*
X015762Y016750D01*
X015686Y016750D01*
X015510Y016677D01*
X015375Y016542D01*
X015302Y016365D01*
X015302Y016290D01*
X015761Y016290D01*
X015761Y016250D01*
X015302Y016250D01*
X015302Y016174D01*
X015375Y015998D01*
X015510Y015863D01*
X015686Y015790D01*
X015762Y015790D01*
X015762Y016250D01*
X015802Y016250D01*
X015802Y015790D01*
X015877Y015790D01*
X016054Y015863D01*
X016195Y016014D02*
X016368Y016014D01*
X016302Y016173D02*
X016261Y016173D01*
X016262Y016332D02*
X016302Y016332D01*
X016353Y016490D02*
X016210Y016490D01*
X016082Y016649D02*
X016482Y016649D01*
X016592Y016807D02*
X015971Y016807D01*
X015881Y016770D02*
X016065Y016846D01*
X016206Y016987D01*
X016282Y017170D01*
X016282Y017369D01*
X016206Y017553D01*
X016065Y017694D01*
X015881Y017770D01*
X015682Y017770D01*
X015499Y017694D01*
X015358Y017553D01*
X015282Y017369D01*
X015282Y017170D01*
X015358Y016987D01*
X015499Y016846D01*
X015682Y016770D01*
X015881Y016770D01*
X015802Y016649D02*
X015762Y016649D01*
X015762Y016490D02*
X015802Y016490D01*
X015802Y016332D02*
X015762Y016332D01*
X015762Y016173D02*
X015802Y016173D01*
X015802Y016014D02*
X015762Y016014D01*
X015762Y015856D02*
X015802Y015856D01*
X015527Y015856D02*
X015036Y015856D01*
X015054Y015863D02*
X015189Y015998D01*
X015262Y016174D01*
X015262Y016250D01*
X014802Y016250D01*
X014802Y016290D01*
X015262Y016290D01*
X015262Y016365D01*
X015189Y016542D01*
X015054Y016677D01*
X014877Y016750D01*
X014802Y016750D01*
X014802Y016290D01*
X014762Y016290D01*
X014762Y016750D01*
X014686Y016750D01*
X014510Y016677D01*
X014375Y016542D01*
X014302Y016365D01*
X014302Y016290D01*
X014761Y016290D01*
X014761Y016250D01*
X014302Y016250D01*
X014302Y016174D01*
X014375Y015998D01*
X014510Y015863D01*
X014686Y015790D01*
X014762Y015790D01*
X014762Y016250D01*
X014802Y016250D01*
X014802Y015790D01*
X014877Y015790D01*
X015054Y015863D01*
X015195Y016014D02*
X015368Y016014D01*
X015302Y016173D02*
X015261Y016173D01*
X015262Y016332D02*
X015302Y016332D01*
X015353Y016490D02*
X015210Y016490D01*
X015082Y016649D02*
X015482Y016649D01*
X015592Y016807D02*
X014971Y016807D01*
X014881Y016770D02*
X015065Y016846D01*
X015206Y016987D01*
X015282Y017170D01*
X015282Y017369D01*
X015206Y017553D01*
X015065Y017694D01*
X014881Y017770D01*
X014682Y017770D01*
X014499Y017694D01*
X014358Y017553D01*
X014282Y017369D01*
X014282Y017170D01*
X014282Y017369D01*
X014206Y017553D01*
X014065Y017694D01*
X013881Y017770D01*
X013682Y017770D01*
X013499Y017694D01*
X013358Y017553D01*
X013282Y017369D01*
X013282Y017170D01*
X013358Y016987D01*
X013499Y016846D01*
X013682Y016770D01*
X013881Y016770D01*
X014065Y016846D01*
X014206Y016987D01*
X014282Y017170D01*
X014358Y016987D01*
X014499Y016846D01*
X014682Y016770D01*
X014881Y016770D01*
X014802Y016649D02*
X014762Y016649D01*
X014762Y016490D02*
X014802Y016490D01*
X014802Y016332D02*
X014762Y016332D01*
X014762Y016173D02*
X014802Y016173D01*
X014802Y016014D02*
X014762Y016014D01*
X014762Y015856D02*
X014802Y015856D01*
X014527Y015856D02*
X014036Y015856D01*
X014054Y015863D02*
X014189Y015998D01*
X014262Y016174D01*
X014262Y016250D01*
X013802Y016250D01*
X013802Y016290D01*
X014262Y016290D01*
X014262Y016365D01*
X014189Y016542D01*
X014054Y016677D01*
X013877Y016750D01*
X013802Y016750D01*
X013802Y016290D01*
X013762Y016290D01*
X013762Y016750D01*
X013686Y016750D01*
X013510Y016677D01*
X013375Y016542D01*
X013302Y016365D01*
X013302Y016290D01*
X013761Y016290D01*
X013761Y016250D01*
X013302Y016250D01*
X013302Y016174D01*
X013375Y015998D01*
X013510Y015863D01*
X013686Y015790D01*
X013762Y015790D01*
X013762Y016250D01*
X013802Y016250D01*
X013802Y015790D01*
X013877Y015790D01*
X014054Y015863D01*
X014195Y016014D02*
X014368Y016014D01*
X014302Y016173D02*
X014261Y016173D01*
X014262Y016332D02*
X014302Y016332D01*
X014353Y016490D02*
X014210Y016490D01*
X014082Y016649D02*
X014482Y016649D01*
X014592Y016807D02*
X013971Y016807D01*
X013802Y016649D02*
X013762Y016649D01*
X013762Y016490D02*
X013802Y016490D01*
X013802Y016332D02*
X013762Y016332D01*
X013762Y016173D02*
X013802Y016173D01*
X013802Y016014D02*
X013762Y016014D01*
X013762Y015856D02*
X013802Y015856D01*
X013527Y015856D02*
X013036Y015856D01*
X013054Y015863D02*
X013189Y015998D01*
X013262Y016174D01*
X013262Y016250D01*
X012802Y016250D01*
X012802Y016290D01*
X013262Y016290D01*
X013262Y016365D01*
X013189Y016542D01*
X013054Y016677D01*
X012877Y016750D01*
X012802Y016750D01*
X012802Y016290D01*
X012762Y016290D01*
X012762Y016750D01*
X012686Y016750D01*
X012510Y016677D01*
X012375Y016542D01*
X012302Y016365D01*
X012302Y016290D01*
X012761Y016290D01*
X012761Y016250D01*
X012302Y016250D01*
X012302Y016174D01*
X012375Y015998D01*
X012510Y015863D01*
X012686Y015790D01*
X012762Y015790D01*
X012762Y016250D01*
X012802Y016250D01*
X012802Y015790D01*
X012877Y015790D01*
X013054Y015863D01*
X013195Y016014D02*
X013368Y016014D01*
X013302Y016173D02*
X013261Y016173D01*
X013262Y016332D02*
X013302Y016332D01*
X013353Y016490D02*
X013210Y016490D01*
X013082Y016649D02*
X013482Y016649D01*
X013592Y016807D02*
X012971Y016807D01*
X012881Y016770D02*
X012682Y016770D01*
X012499Y016846D01*
X012358Y016987D01*
X012282Y017170D01*
X012282Y017369D01*
X012358Y017553D01*
X012499Y017694D01*
X012682Y017770D01*
X012881Y017770D01*
X013065Y017694D01*
X013206Y017553D01*
X013282Y017369D01*
X013282Y017170D01*
X013206Y016987D01*
X013065Y016846D01*
X012881Y016770D01*
X012802Y016649D02*
X012762Y016649D01*
X012762Y016490D02*
X012802Y016490D01*
X012802Y016332D02*
X012762Y016332D01*
X012762Y016173D02*
X012802Y016173D01*
X012802Y016014D02*
X012762Y016014D01*
X012762Y015856D02*
X012802Y015856D01*
X012527Y015856D02*
X004488Y015856D01*
X004760Y016014D02*
X012368Y016014D01*
X012302Y016173D02*
X004917Y016173D01*
X004982Y016332D02*
X008754Y016332D01*
X008623Y016490D02*
X005042Y016490D01*
X003342Y015539D02*
X030352Y015539D01*
X030286Y015380D02*
X003342Y015380D01*
X003342Y015222D02*
X005137Y015222D01*
X004904Y015063D02*
X003342Y015063D01*
X003342Y014905D02*
X004821Y014905D01*
X004802Y014746D02*
X003342Y014746D01*
X003342Y014588D02*
X004834Y014588D01*
X004936Y014429D02*
X003342Y014429D01*
X003342Y013953D02*
X004857Y013953D01*
X004822Y013795D02*
X003342Y013795D01*
X003342Y013636D02*
X004842Y013636D01*
X004931Y013478D02*
X003342Y013478D01*
X003342Y013002D02*
X005854Y013002D01*
X006012Y012844D02*
X003342Y012844D01*
X003342Y012685D02*
X003938Y012685D01*
X004047Y012730D02*
X003742Y012604D01*
X003508Y012370D01*
X003382Y012065D01*
X003382Y011980D01*
X004132Y011980D01*
X004132Y012730D01*
X004047Y012730D01*
X004132Y012685D02*
X004292Y012685D01*
X004292Y012730D02*
X004292Y011980D01*
X005042Y011980D01*
X005042Y012065D01*
X004915Y012370D01*
X004682Y012604D01*
X004377Y012730D01*
X004292Y012730D01*
X004485Y012685D02*
X012490Y012685D01*
X012347Y012526D02*
X004759Y012526D01*
X004916Y012368D02*
X012282Y012368D01*
X012282Y012209D02*
X004982Y012209D01*
X005042Y012051D02*
X012331Y012051D01*
X012452Y011892D02*
X004292Y011892D01*
X004292Y011820D02*
X004292Y011980D01*
X004132Y011980D01*
X004132Y011820D01*
X004292Y011820D01*
X005042Y011820D01*
X005042Y011735D01*
X004915Y011430D01*
X004682Y011196D01*
X004377Y011070D01*
X004292Y011070D01*
X004292Y011820D01*
X004292Y011734D02*
X004132Y011734D01*
X004132Y011820D02*
X004132Y011070D01*
X004047Y011070D01*
X003742Y011196D01*
X003508Y011430D01*
X003382Y011735D01*
X003382Y011820D01*
X004132Y011820D01*
X004132Y011892D02*
X003342Y011892D01*
X003342Y011734D02*
X003382Y011734D01*
X003342Y011575D02*
X003448Y011575D01*
X003521Y011417D02*
X003342Y011417D01*
X003342Y011258D02*
X003680Y011258D01*
X003975Y011100D02*
X003342Y011100D01*
X003342Y010941D02*
X012403Y010941D01*
X012311Y011100D02*
X004448Y011100D01*
X004292Y011100D02*
X004132Y011100D01*
X004132Y011258D02*
X004292Y011258D01*
X004292Y011417D02*
X004132Y011417D01*
X004132Y011575D02*
X004292Y011575D01*
X004292Y012051D02*
X004132Y012051D01*
X004132Y012209D02*
X004292Y012209D01*
X004292Y012368D02*
X004132Y012368D01*
X004132Y012526D02*
X004292Y012526D01*
X003665Y012526D02*
X003342Y012526D01*
X003342Y012368D02*
X003507Y012368D01*
X003442Y012209D02*
X003342Y012209D01*
X003342Y012051D02*
X003382Y012051D01*
X004744Y011258D02*
X012282Y011258D01*
X012301Y011417D02*
X004902Y011417D01*
X004976Y011575D02*
X012380Y011575D01*
X012595Y011734D02*
X005041Y011734D01*
X003342Y010783D02*
X012652Y010783D01*
X012429Y010624D02*
X003342Y010624D01*
X003342Y010465D02*
X012322Y010465D01*
X012282Y010307D02*
X003342Y010307D01*
X003342Y010148D02*
X012291Y010148D01*
X012357Y009990D02*
X003342Y009990D01*
X003342Y009831D02*
X012534Y009831D01*
X012477Y009673D02*
X003342Y009673D01*
X003342Y009514D02*
X012342Y009514D01*
X012282Y009356D02*
X003342Y009356D01*
X003342Y009197D02*
X012282Y009197D01*
X012336Y009039D02*
X004777Y009039D01*
X004936Y008880D02*
X012465Y008880D01*
X012565Y008721D02*
X005032Y008721D01*
X005098Y008563D02*
X012368Y008563D01*
X012998Y008721D02*
X013565Y008721D01*
X013465Y008880D02*
X013099Y008880D01*
X013227Y009039D02*
X013336Y009039D01*
X013282Y009197D02*
X013282Y009197D01*
X013282Y009356D02*
X013282Y009356D01*
X013222Y009514D02*
X013342Y009514D01*
X013477Y009673D02*
X013086Y009673D01*
X013029Y009831D02*
X013534Y009831D01*
X013357Y009990D02*
X013207Y009990D01*
X013273Y010148D02*
X013291Y010148D01*
X013282Y010307D02*
X013282Y010307D01*
X013242Y010465D02*
X013322Y010465D01*
X013429Y010624D02*
X013135Y010624D01*
X014135Y010624D02*
X014429Y010624D01*
X014322Y010465D02*
X014242Y010465D01*
X014282Y010307D02*
X014282Y010307D01*
X014273Y010148D02*
X014291Y010148D01*
X014357Y009990D02*
X014207Y009990D01*
X014029Y009831D02*
X014534Y009831D01*
X014477Y009673D02*
X014086Y009673D01*
X014222Y009514D02*
X014342Y009514D01*
X014282Y009356D02*
X014282Y009356D01*
X014282Y009197D02*
X014282Y009197D01*
X014336Y009039D02*
X014227Y009039D01*
X014099Y008880D02*
X014465Y008880D01*
X014565Y008721D02*
X013998Y008721D01*
X014196Y008563D02*
X014368Y008563D01*
X014296Y008404D02*
X014267Y008404D01*
X014282Y008246D02*
X014282Y008246D01*
X014247Y008087D02*
X014316Y008087D01*
X014416Y007929D02*
X014148Y007929D01*
X014147Y007612D02*
X014416Y007612D01*
X014316Y007453D02*
X014247Y007453D01*
X014282Y007295D02*
X014282Y007295D01*
X014267Y007136D02*
X014296Y007136D01*
X014367Y006977D02*
X014196Y006977D01*
X013999Y006819D02*
X014564Y006819D01*
X014999Y006819D02*
X015564Y006819D01*
X015367Y006977D02*
X015196Y006977D01*
X015267Y007136D02*
X015296Y007136D01*
X015282Y007295D02*
X015282Y007295D01*
X015247Y007453D02*
X015316Y007453D01*
X015416Y007612D02*
X015147Y007612D01*
X015148Y007929D02*
X015416Y007929D01*
X015316Y008087D02*
X015247Y008087D01*
X015282Y008246D02*
X015282Y008246D01*
X015267Y008404D02*
X015296Y008404D01*
X015368Y008563D02*
X015196Y008563D01*
X014998Y008721D02*
X015565Y008721D01*
X015465Y008880D02*
X015099Y008880D01*
X015227Y009039D02*
X015336Y009039D01*
X015282Y009197D02*
X015282Y009197D01*
X015282Y009356D02*
X015282Y009356D01*
X015222Y009514D02*
X015342Y009514D01*
X015477Y009673D02*
X015086Y009673D01*
X015029Y009831D02*
X015534Y009831D01*
X015357Y009990D02*
X015207Y009990D01*
X015273Y010148D02*
X015291Y010148D01*
X015282Y010307D02*
X015282Y010307D01*
X015242Y010465D02*
X015322Y010465D01*
X015429Y010624D02*
X015135Y010624D01*
X015160Y010941D02*
X015403Y010941D01*
X015311Y011100D02*
X015252Y011100D01*
X015282Y011258D02*
X015282Y011258D01*
X015262Y011417D02*
X015301Y011417D01*
X015380Y011575D02*
X015183Y011575D01*
X014968Y011734D02*
X015595Y011734D01*
X015452Y011892D02*
X015111Y011892D01*
X015232Y012051D02*
X015331Y012051D01*
X015282Y012209D02*
X015282Y012209D01*
X015282Y012368D02*
X015282Y012368D01*
X015217Y012526D02*
X015347Y012526D01*
X015490Y012685D02*
X015074Y012685D01*
X015059Y012844D02*
X015504Y012844D01*
X015351Y013002D02*
X015212Y013002D01*
X015278Y013161D02*
X015286Y013161D01*
X015282Y013319D02*
X015282Y013319D01*
X015237Y013478D02*
X015327Y013478D01*
X015441Y013636D02*
X015122Y013636D01*
X014941Y013795D02*
X015622Y013795D01*
X015391Y013953D02*
X015172Y013953D01*
X015257Y014112D02*
X015306Y014112D01*
X015282Y014270D02*
X015282Y014270D01*
X015257Y014429D02*
X015306Y014429D01*
X015392Y014588D02*
X015171Y014588D01*
X014939Y014746D02*
X015625Y014746D01*
X015939Y014746D02*
X016625Y014746D01*
X016392Y014588D02*
X016171Y014588D01*
X016257Y014429D02*
X016306Y014429D01*
X016282Y014270D02*
X016282Y014270D01*
X016257Y014112D02*
X016306Y014112D01*
X016391Y013953D02*
X016172Y013953D01*
X015941Y013795D02*
X016622Y013795D01*
X016441Y013636D02*
X016122Y013636D01*
X016237Y013478D02*
X016327Y013478D01*
X016282Y013319D02*
X016282Y013319D01*
X016278Y013161D02*
X016286Y013161D01*
X016351Y013002D02*
X016212Y013002D01*
X016059Y012844D02*
X016504Y012844D01*
X016490Y012685D02*
X016074Y012685D01*
X016217Y012526D02*
X016347Y012526D01*
X016282Y012368D02*
X016282Y012368D01*
X016282Y012209D02*
X016282Y012209D01*
X016232Y012051D02*
X016331Y012051D01*
X016452Y011892D02*
X016111Y011892D01*
X015968Y011734D02*
X016595Y011734D01*
X016380Y011575D02*
X016183Y011575D01*
X016262Y011417D02*
X016301Y011417D01*
X016282Y011258D02*
X016282Y011258D01*
X016252Y011100D02*
X016311Y011100D01*
X016403Y010941D02*
X016160Y010941D01*
X016135Y010624D02*
X016429Y010624D01*
X016322Y010465D02*
X016242Y010465D01*
X016282Y010307D02*
X016282Y010307D01*
X016273Y010148D02*
X016291Y010148D01*
X016357Y009990D02*
X016207Y009990D01*
X016029Y009831D02*
X016534Y009831D01*
X016477Y009673D02*
X016086Y009673D01*
X016222Y009514D02*
X016342Y009514D01*
X016282Y009356D02*
X016282Y009356D01*
X016282Y009197D02*
X016282Y009197D01*
X016336Y009039D02*
X016227Y009039D01*
X016099Y008880D02*
X016465Y008880D01*
X016565Y008721D02*
X015998Y008721D01*
X016196Y008563D02*
X016368Y008563D01*
X016296Y008404D02*
X016267Y008404D01*
X016282Y008246D02*
X016282Y008246D01*
X016247Y008087D02*
X016316Y008087D01*
X016416Y007929D02*
X016148Y007929D01*
X016147Y007612D02*
X016416Y007612D01*
X016316Y007453D02*
X016247Y007453D01*
X016282Y007295D02*
X016282Y007295D01*
X016267Y007136D02*
X016296Y007136D01*
X016367Y006977D02*
X016196Y006977D01*
X015999Y006819D02*
X016564Y006819D01*
X016465Y006660D02*
X003342Y006660D01*
X003342Y006502D02*
X004998Y006502D01*
X004896Y006343D02*
X003342Y006343D01*
X003342Y006185D02*
X004862Y006185D01*
X004878Y006026D02*
X003342Y006026D01*
X003342Y005868D02*
X004956Y005868D01*
X004993Y005709D02*
X003342Y005709D01*
X003342Y005551D02*
X004894Y005551D01*
X004862Y005392D02*
X003342Y005392D01*
X003342Y005234D02*
X004881Y005234D01*
X004961Y005075D02*
X003342Y005075D01*
X003342Y004916D02*
X005186Y004916D01*
X005256Y004859D02*
X005084Y004788D01*
X004953Y004656D01*
X004882Y004485D01*
X004882Y004405D01*
X005335Y004405D01*
X005335Y004378D01*
X005362Y004378D01*
X005362Y003925D01*
X005442Y003925D01*
X005613Y003996D01*
X005745Y004127D01*
X005816Y004299D01*
X005816Y004378D01*
X005362Y004378D01*
X005362Y004405D01*
X005816Y004405D01*
X005816Y004485D01*
X005745Y004656D01*
X005613Y004788D01*
X005442Y004859D01*
X005362Y004859D01*
X005362Y004406D01*
X005335Y004406D01*
X005335Y004859D01*
X005256Y004859D01*
X005335Y004758D02*
X005362Y004758D01*
X005362Y004599D02*
X005335Y004599D01*
X005335Y004441D02*
X005362Y004441D01*
X005335Y004378D02*
X004882Y004378D01*
X004882Y004299D01*
X004953Y004127D01*
X005084Y003996D01*
X005256Y003925D01*
X005335Y003925D01*
X005335Y004378D01*
X005335Y004282D02*
X005362Y004282D01*
X005362Y004124D02*
X005335Y004124D01*
X005335Y003965D02*
X005362Y003965D01*
X005539Y003965D02*
X012379Y003965D01*
X012358Y003987D02*
X012499Y003846D01*
X012682Y003770D01*
X012881Y003770D01*
X013065Y003846D01*
X013206Y003987D01*
X013282Y004170D01*
X013358Y003987D01*
X013499Y003846D01*
X013682Y003770D01*
X013499Y003694D01*
X013358Y003553D01*
X013282Y003369D01*
X013282Y003170D01*
X013358Y002987D01*
X013499Y002846D01*
X013682Y002770D01*
X013881Y002770D01*
X014065Y002846D01*
X014206Y002987D01*
X014282Y003170D01*
X014282Y003369D01*
X014358Y003553D01*
X014499Y003694D01*
X014682Y003770D01*
X014881Y003770D01*
X015065Y003694D01*
X015206Y003553D01*
X015282Y003369D01*
X015358Y003553D01*
X015499Y003694D01*
X015682Y003770D01*
X015881Y003770D01*
X016065Y003694D01*
X016206Y003553D01*
X016282Y003369D01*
X016358Y003553D01*
X016499Y003694D01*
X016682Y003770D01*
X016881Y003770D01*
X017065Y003694D01*
X017206Y003553D01*
X017282Y003369D01*
X017282Y003170D01*
X017206Y002987D01*
X017065Y002846D01*
X016881Y002770D01*
X016682Y002770D01*
X016499Y002846D01*
X016358Y002987D01*
X016282Y003170D01*
X016282Y003369D01*
X016282Y003170D01*
X016206Y002987D01*
X016065Y002846D01*
X015881Y002770D01*
X015682Y002770D01*
X015499Y002846D01*
X015358Y002987D01*
X015282Y003170D01*
X015282Y003369D01*
X015282Y003170D01*
X015206Y002987D01*
X015065Y002846D01*
X014881Y002770D01*
X014682Y002770D01*
X014499Y002846D01*
X014358Y002987D01*
X014282Y003170D01*
X014282Y003369D01*
X014206Y003553D01*
X014065Y003694D01*
X013881Y003770D01*
X013682Y003770D01*
X013881Y003770D01*
X014065Y003846D01*
X014206Y003987D01*
X014282Y004170D01*
X014358Y003987D01*
X014499Y003846D01*
X014682Y003770D01*
X014881Y003770D01*
X015065Y003846D01*
X015206Y003987D01*
X015282Y004170D01*
X015358Y003987D01*
X015499Y003846D01*
X015682Y003770D01*
X015881Y003770D01*
X016065Y003846D01*
X016206Y003987D01*
X016282Y004170D01*
X016358Y003987D01*
X016499Y003846D01*
X016682Y003770D01*
X016881Y003770D01*
X017065Y003846D01*
X017206Y003987D01*
X017282Y004170D01*
X017358Y003987D01*
X017499Y003846D01*
X017682Y003770D01*
X017881Y003770D01*
X018065Y003846D01*
X018206Y003987D01*
X018282Y004170D01*
X018358Y003987D01*
X018499Y003846D01*
X018682Y003770D01*
X018499Y003694D01*
X018358Y003553D01*
X018282Y003369D01*
X018282Y003170D01*
X018358Y002987D01*
X018499Y002846D01*
X018682Y002770D01*
X018881Y002770D01*
X019065Y002846D01*
X019206Y002987D01*
X019282Y003170D01*
X019282Y003369D01*
X019206Y003553D01*
X019065Y003694D01*
X018881Y003770D01*
X018682Y003770D01*
X018881Y003770D01*
X019065Y003846D01*
X019206Y003987D01*
X019282Y004170D01*
X019358Y003987D01*
X019499Y003846D01*
X019682Y003770D01*
X019881Y003770D01*
X020065Y003846D01*
X020206Y003987D01*
X020282Y004170D01*
X020358Y003987D01*
X020499Y003846D01*
X020682Y003770D01*
X020881Y003770D01*
X021065Y003846D01*
X021206Y003987D01*
X021282Y004170D01*
X021358Y003987D01*
X021499Y003846D01*
X021682Y003770D01*
X021881Y003770D01*
X022065Y003846D01*
X022206Y003987D01*
X022282Y004170D01*
X022282Y004369D01*
X022206Y004553D01*
X022065Y004694D01*
X021881Y004770D01*
X021682Y004770D01*
X021499Y004694D01*
X021358Y004553D01*
X021282Y004369D01*
X021282Y004170D01*
X021282Y004369D01*
X021206Y004553D01*
X021065Y004694D01*
X020881Y004770D01*
X020682Y004770D01*
X020499Y004694D01*
X020358Y004553D01*
X020282Y004369D01*
X020282Y004170D01*
X020282Y004369D01*
X020206Y004553D01*
X020065Y004694D01*
X019881Y004770D01*
X019682Y004770D01*
X019499Y004694D01*
X019358Y004553D01*
X019282Y004369D01*
X019282Y004170D01*
X019282Y004369D01*
X019206Y004553D01*
X019065Y004694D01*
X018881Y004770D01*
X018682Y004770D01*
X018499Y004694D01*
X018358Y004553D01*
X018282Y004369D01*
X018282Y004170D01*
X018282Y004369D01*
X018206Y004553D01*
X018065Y004694D01*
X017881Y004770D01*
X017682Y004770D01*
X017499Y004694D01*
X017358Y004553D01*
X017282Y004369D01*
X017282Y004170D01*
X017282Y004369D01*
X017206Y004553D01*
X017065Y004694D01*
X016881Y004770D01*
X016682Y004770D01*
X016499Y004694D01*
X016358Y004553D01*
X016282Y004369D01*
X016282Y004170D01*
X016282Y004369D01*
X016206Y004553D01*
X016065Y004694D01*
X015881Y004770D01*
X015682Y004770D01*
X015499Y004694D01*
X015358Y004553D01*
X015282Y004369D01*
X015282Y004170D01*
X015282Y004369D01*
X015206Y004553D01*
X015065Y004694D01*
X014881Y004770D01*
X014682Y004770D01*
X014499Y004694D01*
X014358Y004553D01*
X014282Y004369D01*
X014282Y004170D01*
X014282Y004369D01*
X014206Y004553D01*
X014065Y004694D01*
X013881Y004770D01*
X013682Y004770D01*
X013499Y004694D01*
X013358Y004553D01*
X013282Y004369D01*
X013282Y004170D01*
X013282Y004369D01*
X013206Y004553D01*
X013065Y004694D01*
X012881Y004770D01*
X012682Y004770D01*
X012499Y004694D01*
X012358Y004553D01*
X012282Y004369D01*
X012282Y004170D01*
X012358Y003987D01*
X012301Y004124D02*
X005741Y004124D01*
X005809Y004282D02*
X012282Y004282D01*
X012311Y004441D02*
X005816Y004441D01*
X005768Y004599D02*
X012404Y004599D01*
X012653Y004758D02*
X005643Y004758D01*
X005511Y004916D02*
X032222Y004916D01*
X032222Y004758D02*
X031910Y004758D01*
X031653Y004758D02*
X030910Y004758D01*
X030653Y004758D02*
X029910Y004758D01*
X029881Y004770D02*
X029682Y004770D01*
X029499Y004694D01*
X029358Y004553D01*
X029282Y004369D01*
X029282Y004170D01*
X029358Y003987D01*
X029499Y003846D01*
X029682Y003770D01*
X029881Y003770D01*
X030065Y003846D01*
X030206Y003987D01*
X030282Y004170D01*
X030282Y004369D01*
X030206Y004553D01*
X030065Y004694D01*
X029881Y004770D01*
X029653Y004758D02*
X028910Y004758D01*
X028881Y004770D02*
X028682Y004770D01*
X028499Y004694D01*
X028358Y004553D01*
X028282Y004369D01*
X028282Y004170D01*
X028358Y003987D01*
X028499Y003846D01*
X028682Y003770D01*
X028881Y003770D01*
X029065Y003846D01*
X029206Y003987D01*
X029282Y004170D01*
X029282Y004369D01*
X029206Y004553D01*
X029065Y004694D01*
X028881Y004770D01*
X028653Y004758D02*
X027910Y004758D01*
X027881Y004770D02*
X027682Y004770D01*
X027499Y004694D01*
X027358Y004553D01*
X027282Y004369D01*
X027282Y004170D01*
X027358Y003987D01*
X027499Y003846D01*
X027682Y003770D01*
X027881Y003770D01*
X028065Y003846D01*
X028206Y003987D01*
X028282Y004170D01*
X028282Y004369D01*
X028206Y004553D01*
X028065Y004694D01*
X027881Y004770D01*
X027653Y004758D02*
X026910Y004758D01*
X026881Y004770D02*
X026682Y004770D01*
X026499Y004694D01*
X026358Y004553D01*
X026282Y004369D01*
X026282Y004170D01*
X026358Y003987D01*
X026499Y003846D01*
X026682Y003770D01*
X026881Y003770D01*
X027065Y003846D01*
X027206Y003987D01*
X027282Y004170D01*
X027282Y004369D01*
X027206Y004553D01*
X027065Y004694D01*
X026881Y004770D01*
X026653Y004758D02*
X025910Y004758D01*
X025881Y004770D02*
X025682Y004770D01*
X025499Y004694D01*
X025358Y004553D01*
X025282Y004369D01*
X025282Y004170D01*
X025282Y004369D01*
X025206Y004553D01*
X025065Y004694D01*
X024881Y004770D01*
X024682Y004770D01*
X024499Y004694D01*
X024358Y004553D01*
X024282Y004369D01*
X024282Y004170D01*
X024282Y004369D01*
X024206Y004553D01*
X024065Y004694D01*
X023881Y004770D01*
X023682Y004770D01*
X023499Y004694D01*
X023358Y004553D01*
X023282Y004369D01*
X023282Y004170D01*
X023358Y003987D01*
X023499Y003846D01*
X023682Y003770D01*
X023881Y003770D01*
X024065Y003846D01*
X024206Y003987D01*
X024282Y004170D01*
X024358Y003987D01*
X024499Y003846D01*
X024682Y003770D01*
X024881Y003770D01*
X025065Y003846D01*
X025206Y003987D01*
X025282Y004170D01*
X025358Y003987D01*
X025499Y003846D01*
X025682Y003770D01*
X025499Y003694D01*
X025358Y003553D01*
X025282Y003369D01*
X025282Y003170D01*
X025358Y002987D01*
X025499Y002846D01*
X025682Y002770D01*
X025881Y002770D01*
X026065Y002846D01*
X026206Y002987D01*
X026282Y003170D01*
X026282Y003369D01*
X026206Y003553D01*
X026065Y003694D01*
X025881Y003770D01*
X025682Y003770D01*
X025881Y003770D01*
X026065Y003846D01*
X026206Y003987D01*
X026282Y004170D01*
X026282Y004369D01*
X026206Y004553D01*
X026065Y004694D01*
X025881Y004770D01*
X025653Y004758D02*
X024910Y004758D01*
X024653Y004758D02*
X023910Y004758D01*
X023653Y004758D02*
X021910Y004758D01*
X021653Y004758D02*
X020910Y004758D01*
X020653Y004758D02*
X019910Y004758D01*
X019653Y004758D02*
X018910Y004758D01*
X018653Y004758D02*
X017910Y004758D01*
X017653Y004758D02*
X016910Y004758D01*
X016653Y004758D02*
X015910Y004758D01*
X015653Y004758D02*
X014910Y004758D01*
X014653Y004758D02*
X013910Y004758D01*
X013653Y004758D02*
X012910Y004758D01*
X013159Y004599D02*
X013404Y004599D01*
X013311Y004441D02*
X013252Y004441D01*
X013282Y004282D02*
X013282Y004282D01*
X013262Y004124D02*
X013301Y004124D01*
X013379Y003965D02*
X013184Y003965D01*
X012970Y003807D02*
X013594Y003807D01*
X013453Y003648D02*
X013082Y003648D01*
X013054Y003677D02*
X012877Y003750D01*
X012802Y003750D01*
X012802Y003290D01*
X013262Y003290D01*
X013262Y003365D01*
X013189Y003542D01*
X013054Y003677D01*
X013210Y003490D02*
X013332Y003490D01*
X013282Y003331D02*
X013262Y003331D01*
X013262Y003250D02*
X012802Y003250D01*
X012802Y003290D01*
X012762Y003290D01*
X012762Y003750D01*
X012686Y003750D01*
X012510Y003677D01*
X012375Y003542D01*
X012302Y003365D01*
X012302Y003290D01*
X012761Y003290D01*
X012761Y003250D01*
X012302Y003250D01*
X012302Y003174D01*
X012375Y002998D01*
X012510Y002863D01*
X012686Y002790D01*
X012762Y002790D01*
X012762Y003250D01*
X012802Y003250D01*
X012802Y002790D01*
X012877Y002790D01*
X013054Y002863D01*
X013189Y002998D01*
X013262Y003174D01*
X013262Y003250D01*
X013261Y003172D02*
X013282Y003172D01*
X013347Y003014D02*
X013195Y003014D01*
X013035Y002855D02*
X013489Y002855D01*
X014074Y002855D02*
X014489Y002855D01*
X014347Y003014D02*
X014217Y003014D01*
X014282Y003172D02*
X014282Y003172D01*
X014282Y003331D02*
X014282Y003331D01*
X014232Y003490D02*
X014332Y003490D01*
X014453Y003648D02*
X014111Y003648D01*
X013970Y003807D02*
X014594Y003807D01*
X014379Y003965D02*
X014184Y003965D01*
X014262Y004124D02*
X014301Y004124D01*
X014282Y004282D02*
X014282Y004282D01*
X014252Y004441D02*
X014311Y004441D01*
X014404Y004599D02*
X014159Y004599D01*
X015159Y004599D02*
X015404Y004599D01*
X015311Y004441D02*
X015252Y004441D01*
X015282Y004282D02*
X015282Y004282D01*
X015262Y004124D02*
X015301Y004124D01*
X015379Y003965D02*
X015184Y003965D01*
X014970Y003807D02*
X015594Y003807D01*
X015453Y003648D02*
X015111Y003648D01*
X015232Y003490D02*
X015332Y003490D01*
X015282Y003331D02*
X015282Y003331D01*
X015282Y003172D02*
X015282Y003172D01*
X015217Y003014D02*
X015347Y003014D01*
X015489Y002855D02*
X015074Y002855D01*
X016074Y002855D02*
X016489Y002855D01*
X016347Y003014D02*
X016217Y003014D01*
X016282Y003172D02*
X016282Y003172D01*
X016282Y003331D02*
X016282Y003331D01*
X016232Y003490D02*
X016332Y003490D01*
X016453Y003648D02*
X016111Y003648D01*
X015970Y003807D02*
X016594Y003807D01*
X016379Y003965D02*
X016184Y003965D01*
X016262Y004124D02*
X016301Y004124D01*
X016282Y004282D02*
X016282Y004282D01*
X016252Y004441D02*
X016311Y004441D01*
X016404Y004599D02*
X016159Y004599D01*
X017159Y004599D02*
X017404Y004599D01*
X017311Y004441D02*
X017252Y004441D01*
X017282Y004282D02*
X017282Y004282D01*
X017262Y004124D02*
X017301Y004124D01*
X017379Y003965D02*
X017184Y003965D01*
X016970Y003807D02*
X017594Y003807D01*
X017686Y003750D02*
X017510Y003677D01*
X017375Y003542D01*
X017302Y003365D01*
X017302Y003290D01*
X017761Y003290D01*
X017761Y003250D01*
X017302Y003250D01*
X017302Y003174D01*
X017375Y002998D01*
X017510Y002863D01*
X017686Y002790D01*
X017762Y002790D01*
X017762Y003250D01*
X017802Y003250D01*
X017802Y003290D01*
X018262Y003290D01*
X018262Y003365D01*
X018189Y003542D01*
X018054Y003677D01*
X017877Y003750D01*
X017802Y003750D01*
X017802Y003290D01*
X017762Y003290D01*
X017762Y003750D01*
X017686Y003750D01*
X017762Y003648D02*
X017802Y003648D01*
X017802Y003490D02*
X017762Y003490D01*
X017762Y003331D02*
X017802Y003331D01*
X017802Y003250D02*
X018262Y003250D01*
X018262Y003174D01*
X018189Y002998D01*
X018054Y002863D01*
X017877Y002790D01*
X017802Y002790D01*
X017802Y003250D01*
X017802Y003172D02*
X017762Y003172D01*
X017762Y003014D02*
X017802Y003014D01*
X017802Y002855D02*
X017762Y002855D01*
X017528Y002855D02*
X017074Y002855D01*
X017217Y003014D02*
X017368Y003014D01*
X017303Y003172D02*
X017282Y003172D01*
X017282Y003331D02*
X017302Y003331D01*
X017353Y003490D02*
X017232Y003490D01*
X017111Y003648D02*
X017481Y003648D01*
X017970Y003807D02*
X018594Y003807D01*
X018453Y003648D02*
X018082Y003648D01*
X018210Y003490D02*
X018332Y003490D01*
X018282Y003331D02*
X018262Y003331D01*
X018261Y003172D02*
X018282Y003172D01*
X018347Y003014D02*
X018195Y003014D01*
X018035Y002855D02*
X018489Y002855D01*
X019074Y002855D02*
X019528Y002855D01*
X019510Y002863D02*
X019686Y002790D01*
X019762Y002790D01*
X019762Y003250D01*
X019802Y003250D01*
X019802Y003290D01*
X020262Y003290D01*
X020262Y003365D01*
X020189Y003542D01*
X020054Y003677D01*
X019877Y003750D01*
X019802Y003750D01*
X019802Y003290D01*
X019762Y003290D01*
X019762Y003750D01*
X019686Y003750D01*
X019510Y003677D01*
X019375Y003542D01*
X019302Y003365D01*
X019302Y003290D01*
X019761Y003290D01*
X019761Y003250D01*
X019302Y003250D01*
X019302Y003174D01*
X019375Y002998D01*
X019510Y002863D01*
X019368Y003014D02*
X019217Y003014D01*
X019282Y003172D02*
X019303Y003172D01*
X019302Y003331D02*
X019282Y003331D01*
X019232Y003490D02*
X019353Y003490D01*
X019481Y003648D02*
X019111Y003648D01*
X018970Y003807D02*
X019594Y003807D01*
X019762Y003648D02*
X019802Y003648D01*
X019802Y003490D02*
X019762Y003490D01*
X019762Y003331D02*
X019802Y003331D01*
X019802Y003250D02*
X020262Y003250D01*
X020262Y003174D01*
X020189Y002998D01*
X020054Y002863D01*
X019877Y002790D01*
X019802Y002790D01*
X019802Y003250D01*
X019802Y003172D02*
X019762Y003172D01*
X019762Y003014D02*
X019802Y003014D01*
X019802Y002855D02*
X019762Y002855D01*
X020035Y002855D02*
X020528Y002855D01*
X020510Y002863D02*
X020686Y002790D01*
X020762Y002790D01*
X020762Y003250D01*
X020802Y003250D01*
X020802Y003290D01*
X021262Y003290D01*
X021262Y003365D01*
X021189Y003542D01*
X021054Y003677D01*
X020877Y003750D01*
X020802Y003750D01*
X020802Y003290D01*
X020762Y003290D01*
X020762Y003750D01*
X020686Y003750D01*
X020510Y003677D01*
X020375Y003542D01*
X020302Y003365D01*
X020302Y003290D01*
X020761Y003290D01*
X020761Y003250D01*
X020302Y003250D01*
X020302Y003174D01*
X020375Y002998D01*
X020510Y002863D01*
X020368Y003014D02*
X020195Y003014D01*
X020261Y003172D02*
X020303Y003172D01*
X020302Y003331D02*
X020262Y003331D01*
X020210Y003490D02*
X020353Y003490D01*
X020481Y003648D02*
X020082Y003648D01*
X019970Y003807D02*
X020594Y003807D01*
X020762Y003648D02*
X020802Y003648D01*
X020802Y003490D02*
X020762Y003490D01*
X020762Y003331D02*
X020802Y003331D01*
X020802Y003250D02*
X021262Y003250D01*
X021262Y003174D01*
X021189Y002998D01*
X021054Y002863D01*
X020877Y002790D01*
X020802Y002790D01*
X020802Y003250D01*
X020802Y003172D02*
X020762Y003172D01*
X020762Y003014D02*
X020802Y003014D01*
X020802Y002855D02*
X020762Y002855D01*
X021035Y002855D02*
X021528Y002855D01*
X021510Y002863D02*
X021686Y002790D01*
X021762Y002790D01*
X021762Y003250D01*
X021802Y003250D01*
X021802Y003290D01*
X022262Y003290D01*
X022262Y003365D01*
X022189Y003542D01*
X022054Y003677D01*
X021877Y003750D01*
X021802Y003750D01*
X021802Y003290D01*
X021762Y003290D01*
X021762Y003750D01*
X021686Y003750D01*
X021510Y003677D01*
X021375Y003542D01*
X021302Y003365D01*
X021302Y003290D01*
X021761Y003290D01*
X021761Y003250D01*
X021302Y003250D01*
X021302Y003174D01*
X021375Y002998D01*
X021510Y002863D01*
X021368Y003014D02*
X021195Y003014D01*
X021261Y003172D02*
X021303Y003172D01*
X021302Y003331D02*
X021262Y003331D01*
X021210Y003490D02*
X021353Y003490D01*
X021481Y003648D02*
X021082Y003648D01*
X020970Y003807D02*
X021594Y003807D01*
X021762Y003648D02*
X021802Y003648D01*
X021802Y003490D02*
X021762Y003490D01*
X021762Y003331D02*
X021802Y003331D01*
X021802Y003250D02*
X022262Y003250D01*
X022262Y003174D01*
X022189Y002998D01*
X022054Y002863D01*
X021877Y002790D01*
X021802Y002790D01*
X021802Y003250D01*
X021802Y003172D02*
X021762Y003172D01*
X021762Y003014D02*
X021802Y003014D01*
X021802Y002855D02*
X021762Y002855D01*
X022035Y002855D02*
X022489Y002855D01*
X022499Y002846D02*
X022682Y002770D01*
X022881Y002770D01*
X023065Y002846D01*
X023206Y002987D01*
X023282Y003170D01*
X023358Y002987D01*
X023499Y002846D01*
X023682Y002770D01*
X023881Y002770D01*
X024065Y002846D01*
X024206Y002987D01*
X024282Y003170D01*
X024358Y002987D01*
X024499Y002846D01*
X024682Y002770D01*
X024881Y002770D01*
X025065Y002846D01*
X025206Y002987D01*
X025282Y003170D01*
X025282Y003369D01*
X025206Y003553D01*
X025065Y003694D01*
X024881Y003770D01*
X024682Y003770D01*
X024499Y003694D01*
X024358Y003553D01*
X024282Y003369D01*
X024282Y003170D01*
X024282Y003369D01*
X024206Y003553D01*
X024065Y003694D01*
X023881Y003770D01*
X023682Y003770D01*
X023499Y003694D01*
X023358Y003553D01*
X023282Y003369D01*
X023282Y003170D01*
X023282Y003369D01*
X023206Y003553D01*
X023065Y003694D01*
X022881Y003770D01*
X022682Y003770D01*
X022499Y003694D01*
X022358Y003553D01*
X022282Y003369D01*
X022282Y003170D01*
X022358Y002987D01*
X022499Y002846D01*
X022347Y003014D02*
X022195Y003014D01*
X022261Y003172D02*
X022282Y003172D01*
X022282Y003331D02*
X022262Y003331D01*
X022210Y003490D02*
X022332Y003490D01*
X022453Y003648D02*
X022082Y003648D01*
X021970Y003807D02*
X022646Y003807D01*
X022686Y003790D02*
X022762Y003790D01*
X022762Y004250D01*
X022802Y004250D01*
X022802Y004290D01*
X023262Y004290D01*
X023262Y004365D01*
X023189Y004542D01*
X023054Y004677D01*
X022877Y004750D01*
X022802Y004750D01*
X022802Y004290D01*
X022762Y004290D01*
X022762Y004750D01*
X022686Y004750D01*
X022510Y004677D01*
X022375Y004542D01*
X022302Y004365D01*
X022302Y004290D01*
X022761Y004290D01*
X022761Y004250D01*
X022302Y004250D01*
X022302Y004174D01*
X022375Y003998D01*
X022510Y003863D01*
X022686Y003790D01*
X022762Y003807D02*
X022802Y003807D01*
X022802Y003790D02*
X022877Y003790D01*
X023054Y003863D01*
X023189Y003998D01*
X023262Y004174D01*
X023262Y004250D01*
X022802Y004250D01*
X022802Y003790D01*
X022917Y003807D02*
X023594Y003807D01*
X023453Y003648D02*
X023111Y003648D01*
X023232Y003490D02*
X023332Y003490D01*
X023282Y003331D02*
X023282Y003331D01*
X023282Y003172D02*
X023282Y003172D01*
X023217Y003014D02*
X023347Y003014D01*
X023489Y002855D02*
X023074Y002855D01*
X024074Y002855D02*
X024489Y002855D01*
X024347Y003014D02*
X024217Y003014D01*
X024282Y003172D02*
X024282Y003172D01*
X024282Y003331D02*
X024282Y003331D01*
X024232Y003490D02*
X024332Y003490D01*
X024453Y003648D02*
X024111Y003648D01*
X023970Y003807D02*
X024594Y003807D01*
X024379Y003965D02*
X024184Y003965D01*
X024262Y004124D02*
X024301Y004124D01*
X024282Y004282D02*
X024282Y004282D01*
X024252Y004441D02*
X024311Y004441D01*
X024404Y004599D02*
X024159Y004599D01*
X023404Y004599D02*
X023131Y004599D01*
X023230Y004441D02*
X023311Y004441D01*
X023282Y004282D02*
X022802Y004282D01*
X022761Y004282D02*
X022282Y004282D01*
X022262Y004124D02*
X022323Y004124D01*
X022408Y003965D02*
X022184Y003965D01*
X022252Y004441D02*
X022333Y004441D01*
X022432Y004599D02*
X022159Y004599D01*
X022762Y004599D02*
X022802Y004599D01*
X022802Y004441D02*
X022762Y004441D01*
X022762Y004124D02*
X022802Y004124D01*
X022802Y003965D02*
X022762Y003965D01*
X023156Y003965D02*
X023379Y003965D01*
X023301Y004124D02*
X023241Y004124D01*
X024970Y003807D02*
X025594Y003807D01*
X025453Y003648D02*
X025111Y003648D01*
X025232Y003490D02*
X025332Y003490D01*
X025282Y003331D02*
X025282Y003331D01*
X025282Y003172D02*
X025282Y003172D01*
X025217Y003014D02*
X025347Y003014D01*
X025489Y002855D02*
X025074Y002855D01*
X026074Y002855D02*
X026489Y002855D01*
X026347Y003014D02*
X026217Y003014D01*
X026282Y003172D02*
X026282Y003172D01*
X026282Y003331D02*
X026282Y003331D01*
X026232Y003490D02*
X026332Y003490D01*
X026453Y003648D02*
X026111Y003648D01*
X025970Y003807D02*
X026594Y003807D01*
X026379Y003965D02*
X026184Y003965D01*
X026262Y004124D02*
X026301Y004124D01*
X026282Y004282D02*
X026282Y004282D01*
X026252Y004441D02*
X026311Y004441D01*
X026404Y004599D02*
X026159Y004599D01*
X025404Y004599D02*
X025159Y004599D01*
X025252Y004441D02*
X025311Y004441D01*
X025282Y004282D02*
X025282Y004282D01*
X025262Y004124D02*
X025301Y004124D01*
X025379Y003965D02*
X025184Y003965D01*
X026970Y003807D02*
X027594Y003807D01*
X027453Y003648D02*
X027111Y003648D01*
X027232Y003490D02*
X027332Y003490D01*
X027282Y003331D02*
X027282Y003331D01*
X027282Y003172D02*
X027282Y003172D01*
X027217Y003014D02*
X027347Y003014D01*
X027489Y002855D02*
X027074Y002855D01*
X028074Y002855D02*
X028489Y002855D01*
X028347Y003014D02*
X028217Y003014D01*
X028282Y003172D02*
X028282Y003172D01*
X028282Y003331D02*
X028282Y003331D01*
X028232Y003490D02*
X028332Y003490D01*
X028453Y003648D02*
X028111Y003648D01*
X027970Y003807D02*
X028594Y003807D01*
X028379Y003965D02*
X028184Y003965D01*
X028262Y004124D02*
X028301Y004124D01*
X028282Y004282D02*
X028282Y004282D01*
X028252Y004441D02*
X028311Y004441D01*
X028404Y004599D02*
X028159Y004599D01*
X027404Y004599D02*
X027159Y004599D01*
X027252Y004441D02*
X027311Y004441D01*
X027282Y004282D02*
X027282Y004282D01*
X027262Y004124D02*
X027301Y004124D01*
X027379Y003965D02*
X027184Y003965D01*
X028970Y003807D02*
X029594Y003807D01*
X029453Y003648D02*
X029111Y003648D01*
X029232Y003490D02*
X029332Y003490D01*
X029282Y003331D02*
X029282Y003331D01*
X029282Y003172D02*
X029282Y003172D01*
X029217Y003014D02*
X029347Y003014D01*
X029489Y002855D02*
X029074Y002855D01*
X030074Y002855D02*
X030489Y002855D01*
X030347Y003014D02*
X030217Y003014D01*
X030282Y003172D02*
X030282Y003172D01*
X030282Y003331D02*
X030282Y003331D01*
X030232Y003490D02*
X030332Y003490D01*
X030453Y003648D02*
X030111Y003648D01*
X029970Y003807D02*
X030594Y003807D01*
X030379Y003965D02*
X030184Y003965D01*
X030262Y004124D02*
X030301Y004124D01*
X030282Y004282D02*
X030282Y004282D01*
X030252Y004441D02*
X030311Y004441D01*
X030404Y004599D02*
X030159Y004599D01*
X029404Y004599D02*
X029159Y004599D01*
X029252Y004441D02*
X029311Y004441D01*
X029282Y004282D02*
X029282Y004282D01*
X029262Y004124D02*
X029301Y004124D01*
X029379Y003965D02*
X029184Y003965D01*
X030970Y003807D02*
X031594Y003807D01*
X031481Y003648D02*
X031111Y003648D01*
X031232Y003490D02*
X031353Y003490D01*
X031302Y003331D02*
X031282Y003331D01*
X031282Y003172D02*
X031303Y003172D01*
X031368Y003014D02*
X031217Y003014D01*
X031074Y002855D02*
X031528Y002855D01*
X031762Y002855D02*
X031802Y002855D01*
X031802Y003014D02*
X031762Y003014D01*
X031762Y003172D02*
X031802Y003172D01*
X031802Y003331D02*
X031762Y003331D01*
X031762Y003490D02*
X031802Y003490D01*
X031802Y003648D02*
X031762Y003648D01*
X031970Y003807D02*
X032222Y003807D01*
X032222Y003965D02*
X032184Y003965D01*
X032222Y003648D02*
X032082Y003648D01*
X032210Y003490D02*
X032222Y003490D01*
X032195Y003014D02*
X032222Y003014D01*
X032222Y002855D02*
X032035Y002855D01*
X032222Y002697D02*
X010943Y002697D01*
X010987Y002590D02*
X010895Y002813D01*
X010724Y002983D01*
X010502Y003075D01*
X010402Y003075D01*
X010402Y002490D01*
X010987Y002490D01*
X010987Y002590D01*
X010987Y002538D02*
X032222Y002538D01*
X032222Y002380D02*
X010987Y002380D01*
X010987Y002350D02*
X010987Y002450D01*
X010402Y002450D01*
X010402Y002490D01*
X010362Y002490D01*
X010362Y003075D01*
X010261Y003075D01*
X010039Y002983D01*
X009869Y002813D01*
X009777Y002590D01*
X009777Y002490D01*
X010361Y002490D01*
X010361Y002450D01*
X009777Y002450D01*
X009777Y002350D01*
X009869Y002127D01*
X010039Y001957D01*
X010261Y001865D01*
X010362Y001865D01*
X010362Y002450D01*
X010402Y002450D01*
X010402Y001865D01*
X010502Y001865D01*
X010724Y001957D01*
X010895Y002127D01*
X010987Y002350D01*
X010934Y002221D02*
X032222Y002221D01*
X032222Y002063D02*
X010830Y002063D01*
X010597Y001904D02*
X032222Y001904D01*
X031379Y003965D02*
X031184Y003965D01*
X031262Y004124D02*
X031301Y004124D01*
X031282Y004282D02*
X031282Y004282D01*
X031252Y004441D02*
X031311Y004441D01*
X031404Y004599D02*
X031159Y004599D01*
X032159Y004599D02*
X032222Y004599D01*
X032222Y005075D02*
X005736Y005075D01*
X005817Y005234D02*
X032222Y005234D01*
X032222Y005392D02*
X005836Y005392D01*
X005804Y005551D02*
X032222Y005551D01*
X032222Y005709D02*
X005704Y005709D01*
X005054Y004758D02*
X003342Y004758D01*
X003342Y004599D02*
X004929Y004599D01*
X004882Y004441D02*
X003342Y004441D01*
X003342Y004282D02*
X004889Y004282D01*
X004956Y004124D02*
X003342Y004124D01*
X003342Y003965D02*
X005159Y003965D01*
X004825Y003648D02*
X012481Y003648D01*
X012594Y003807D02*
X004544Y003807D01*
X004447Y003847D02*
X004753Y003720D01*
X004988Y003486D01*
X005114Y003180D01*
X005114Y003094D01*
X004362Y003094D01*
X004362Y002934D01*
X005114Y002934D01*
X005114Y002848D01*
X004988Y002542D01*
X004753Y002308D01*
X004447Y002181D01*
X004362Y002181D01*
X004362Y002934D01*
X004202Y002934D01*
X004202Y002181D01*
X004116Y002181D01*
X003810Y002308D01*
X003576Y002542D01*
X003449Y002848D01*
X003449Y002934D01*
X004202Y002934D01*
X004202Y003094D01*
X004202Y003847D01*
X004116Y003847D01*
X003810Y003720D01*
X003576Y003486D01*
X003449Y003180D01*
X003449Y003094D01*
X004202Y003094D01*
X004362Y003094D01*
X004362Y003847D01*
X004447Y003847D01*
X004362Y003807D02*
X004202Y003807D01*
X004202Y003648D02*
X004362Y003648D01*
X004362Y003490D02*
X004202Y003490D01*
X004202Y003331D02*
X004362Y003331D01*
X004362Y003172D02*
X004202Y003172D01*
X004202Y003014D02*
X003342Y003014D01*
X003342Y003172D02*
X003449Y003172D01*
X003512Y003331D02*
X003342Y003331D01*
X003342Y003490D02*
X003580Y003490D01*
X003738Y003648D02*
X003342Y003648D01*
X003342Y003807D02*
X004019Y003807D01*
X004984Y003490D02*
X012353Y003490D01*
X012302Y003331D02*
X005052Y003331D01*
X005114Y003172D02*
X012303Y003172D01*
X012368Y003014D02*
X010649Y003014D01*
X010402Y003014D02*
X010362Y003014D01*
X010362Y002855D02*
X010402Y002855D01*
X010402Y002697D02*
X010362Y002697D01*
X010362Y002538D02*
X010402Y002538D01*
X010402Y002380D02*
X010362Y002380D01*
X010362Y002221D02*
X010402Y002221D01*
X010402Y002063D02*
X010362Y002063D01*
X010362Y001904D02*
X010402Y001904D01*
X010167Y001904D02*
X003342Y001904D01*
X003342Y002063D02*
X009933Y002063D01*
X009830Y002221D02*
X004544Y002221D01*
X004362Y002221D02*
X004202Y002221D01*
X004202Y002380D02*
X004362Y002380D01*
X004362Y002538D02*
X004202Y002538D01*
X004202Y002697D02*
X004362Y002697D01*
X004362Y002855D02*
X004202Y002855D01*
X004362Y003014D02*
X010114Y003014D01*
X009912Y002855D02*
X005114Y002855D01*
X005052Y002697D02*
X009821Y002697D01*
X009777Y002538D02*
X004984Y002538D01*
X004825Y002380D02*
X009777Y002380D01*
X010852Y002855D02*
X012528Y002855D01*
X012762Y002855D02*
X012802Y002855D01*
X012802Y003014D02*
X012762Y003014D01*
X012762Y003172D02*
X012802Y003172D01*
X012802Y003331D02*
X012762Y003331D01*
X012762Y003490D02*
X012802Y003490D01*
X012802Y003648D02*
X012762Y003648D01*
X018159Y004599D02*
X018404Y004599D01*
X018311Y004441D02*
X018252Y004441D01*
X018282Y004282D02*
X018282Y004282D01*
X018262Y004124D02*
X018301Y004124D01*
X018379Y003965D02*
X018184Y003965D01*
X019184Y003965D02*
X019379Y003965D01*
X019301Y004124D02*
X019262Y004124D01*
X019282Y004282D02*
X019282Y004282D01*
X019252Y004441D02*
X019311Y004441D01*
X019404Y004599D02*
X019159Y004599D01*
X020159Y004599D02*
X020404Y004599D01*
X020311Y004441D02*
X020252Y004441D01*
X020282Y004282D02*
X020282Y004282D01*
X020262Y004124D02*
X020301Y004124D01*
X020379Y003965D02*
X020184Y003965D01*
X021184Y003965D02*
X021379Y003965D01*
X021301Y004124D02*
X021262Y004124D01*
X021282Y004282D02*
X021282Y004282D01*
X021252Y004441D02*
X021311Y004441D01*
X021404Y004599D02*
X021159Y004599D01*
X027148Y007929D02*
X027416Y007929D01*
X027316Y008087D02*
X027247Y008087D01*
X027282Y008246D02*
X027282Y008246D01*
X027267Y008404D02*
X027296Y008404D01*
X027368Y008563D02*
X027196Y008563D01*
X026998Y008721D02*
X027565Y008721D01*
X027465Y008880D02*
X027099Y008880D01*
X027227Y009039D02*
X027336Y009039D01*
X027282Y009197D02*
X027282Y009197D01*
X027282Y009356D02*
X027282Y009356D01*
X027222Y009514D02*
X027342Y009514D01*
X027477Y009673D02*
X027086Y009673D01*
X027029Y009831D02*
X027534Y009831D01*
X027357Y009990D02*
X027207Y009990D01*
X027273Y010148D02*
X027291Y010148D01*
X027282Y010307D02*
X027282Y010307D01*
X027242Y010465D02*
X027322Y010465D01*
X027429Y010624D02*
X027135Y010624D01*
X027160Y010941D02*
X027403Y010941D01*
X027311Y011100D02*
X027252Y011100D01*
X027282Y011258D02*
X027282Y011258D01*
X027262Y011417D02*
X027301Y011417D01*
X027380Y011575D02*
X027183Y011575D01*
X031682Y012770D02*
X031881Y012770D01*
X032065Y012694D01*
X032206Y012553D01*
X032222Y012514D01*
X032222Y013026D01*
X032206Y012987D01*
X032065Y012846D01*
X031881Y012770D01*
X031682Y012770D01*
X032059Y012844D02*
X032222Y012844D01*
X032212Y013002D02*
X032222Y013002D01*
X032222Y012685D02*
X032074Y012685D01*
X032217Y012526D02*
X032222Y012526D01*
X030326Y015063D02*
X006439Y015063D01*
X006206Y015222D02*
X030282Y015222D01*
X029489Y015856D02*
X029075Y015856D01*
X029217Y016014D02*
X029346Y016014D01*
X029282Y016173D02*
X029282Y016173D01*
X029282Y016332D02*
X029282Y016332D01*
X029232Y016490D02*
X029332Y016490D01*
X029453Y016649D02*
X029110Y016649D01*
X028971Y016807D02*
X029592Y016807D01*
X029379Y016966D02*
X029185Y016966D01*
X029263Y017124D02*
X029301Y017124D01*
X029282Y017283D02*
X029282Y017283D01*
X029252Y017441D02*
X029312Y017441D01*
X029405Y017600D02*
X029159Y017600D01*
X028909Y017758D02*
X029655Y017758D01*
X028655Y017758D02*
X027909Y017758D01*
X027655Y017758D02*
X026909Y017758D01*
X026655Y017758D02*
X025909Y017758D01*
X025655Y017758D02*
X021909Y017758D01*
X021655Y017758D02*
X020909Y017758D01*
X020655Y017758D02*
X019909Y017758D01*
X019655Y017758D02*
X018909Y017758D01*
X018655Y017758D02*
X017909Y017758D01*
X017655Y017758D02*
X016909Y017758D01*
X016655Y017758D02*
X015909Y017758D01*
X015655Y017758D02*
X014909Y017758D01*
X014655Y017758D02*
X013909Y017758D01*
X013655Y017758D02*
X012909Y017758D01*
X012655Y017758D02*
X009259Y017758D01*
X009361Y017600D02*
X012405Y017600D01*
X012312Y017441D02*
X009382Y017441D01*
X009337Y017283D02*
X012282Y017283D01*
X012301Y017124D02*
X009262Y017124D01*
X009262Y016966D02*
X012379Y016966D01*
X012592Y016807D02*
X009358Y016807D01*
X009382Y016649D02*
X012482Y016649D01*
X012353Y016490D02*
X009340Y016490D01*
X009209Y016332D02*
X012302Y016332D01*
X013185Y016966D02*
X013379Y016966D01*
X013301Y017124D02*
X013263Y017124D01*
X013282Y017283D02*
X013282Y017283D01*
X013252Y017441D02*
X013312Y017441D01*
X013405Y017600D02*
X013159Y017600D01*
X014159Y017600D02*
X014405Y017600D01*
X014312Y017441D02*
X014252Y017441D01*
X014282Y017283D02*
X014282Y017283D01*
X014263Y017124D02*
X014301Y017124D01*
X014379Y016966D02*
X014185Y016966D01*
X015185Y016966D02*
X015379Y016966D01*
X015301Y017124D02*
X015263Y017124D01*
X015282Y017283D02*
X015282Y017283D01*
X015252Y017441D02*
X015312Y017441D01*
X015405Y017600D02*
X015159Y017600D01*
X016159Y017600D02*
X016405Y017600D01*
X016312Y017441D02*
X016252Y017441D01*
X016282Y017283D02*
X016282Y017283D01*
X016263Y017124D02*
X016301Y017124D01*
X016379Y016966D02*
X016185Y016966D01*
X017185Y016966D02*
X017379Y016966D01*
X017301Y017124D02*
X017263Y017124D01*
X017282Y017283D02*
X017282Y017283D01*
X017252Y017441D02*
X017312Y017441D01*
X017405Y017600D02*
X017159Y017600D01*
X018159Y017600D02*
X018405Y017600D01*
X018312Y017441D02*
X018252Y017441D01*
X018282Y017283D02*
X018282Y017283D01*
X018263Y017124D02*
X018301Y017124D01*
X018379Y016966D02*
X018185Y016966D01*
X019185Y016966D02*
X019379Y016966D01*
X019301Y017124D02*
X019263Y017124D01*
X019282Y017283D02*
X019282Y017283D01*
X019252Y017441D02*
X019312Y017441D01*
X019405Y017600D02*
X019159Y017600D01*
X020159Y017600D02*
X020405Y017600D01*
X020312Y017441D02*
X020252Y017441D01*
X020282Y017283D02*
X020282Y017283D01*
X020263Y017124D02*
X020301Y017124D01*
X020379Y016966D02*
X020185Y016966D01*
X021185Y016966D02*
X021379Y016966D01*
X021301Y017124D02*
X021263Y017124D01*
X021282Y017283D02*
X021282Y017283D01*
X021252Y017441D02*
X021312Y017441D01*
X021405Y017600D02*
X021159Y017600D01*
X022159Y017600D02*
X025405Y017600D01*
X025312Y017441D02*
X022252Y017441D01*
X022282Y017283D02*
X025282Y017283D01*
X025301Y017124D02*
X022263Y017124D01*
X022185Y016966D02*
X025379Y016966D01*
X025971Y016807D02*
X026592Y016807D01*
X026453Y016649D02*
X026110Y016649D01*
X026232Y016490D02*
X026332Y016490D01*
X026282Y016332D02*
X026282Y016332D01*
X026282Y016173D02*
X026282Y016173D01*
X026217Y016014D02*
X026346Y016014D01*
X026489Y015856D02*
X026075Y015856D01*
X027075Y015856D02*
X027489Y015856D01*
X027346Y016014D02*
X027217Y016014D01*
X027282Y016173D02*
X027282Y016173D01*
X027282Y016332D02*
X027282Y016332D01*
X027232Y016490D02*
X027332Y016490D01*
X027453Y016649D02*
X027110Y016649D01*
X026971Y016807D02*
X027592Y016807D01*
X027379Y016966D02*
X027185Y016966D01*
X027263Y017124D02*
X027301Y017124D01*
X027282Y017283D02*
X027282Y017283D01*
X027252Y017441D02*
X027312Y017441D01*
X027405Y017600D02*
X027159Y017600D01*
X026405Y017600D02*
X026159Y017600D01*
X026252Y017441D02*
X026312Y017441D01*
X026282Y017283D02*
X026282Y017283D01*
X026263Y017124D02*
X026301Y017124D01*
X026379Y016966D02*
X026185Y016966D01*
X027971Y016807D02*
X028592Y016807D01*
X028453Y016649D02*
X028110Y016649D01*
X028232Y016490D02*
X028332Y016490D01*
X028282Y016332D02*
X028282Y016332D01*
X028282Y016173D02*
X028282Y016173D01*
X028217Y016014D02*
X028346Y016014D01*
X028489Y015856D02*
X028075Y015856D01*
X028185Y016966D02*
X028379Y016966D01*
X028301Y017124D02*
X028263Y017124D01*
X028282Y017283D02*
X028282Y017283D01*
X028252Y017441D02*
X028312Y017441D01*
X028405Y017600D02*
X028159Y017600D01*
X014625Y014746D02*
X013939Y014746D01*
X014171Y014588D02*
X014392Y014588D01*
X014306Y014429D02*
X014257Y014429D01*
X014282Y014270D02*
X014282Y014270D01*
X014257Y014112D02*
X014306Y014112D01*
X014391Y013953D02*
X014172Y013953D01*
X013941Y013795D02*
X014622Y013795D01*
X014441Y013636D02*
X014122Y013636D01*
X014237Y013478D02*
X014327Y013478D01*
X014282Y013319D02*
X014282Y013319D01*
X014278Y013161D02*
X014286Y013161D01*
X014351Y013002D02*
X014212Y013002D01*
X014059Y012844D02*
X014504Y012844D01*
X014490Y012685D02*
X014074Y012685D01*
X014217Y012526D02*
X014347Y012526D01*
X014282Y012368D02*
X014282Y012368D01*
X014282Y012209D02*
X014282Y012209D01*
X014232Y012051D02*
X014331Y012051D01*
X014452Y011892D02*
X014111Y011892D01*
X013968Y011734D02*
X014595Y011734D01*
X014380Y011575D02*
X014183Y011575D01*
X014262Y011417D02*
X014301Y011417D01*
X014282Y011258D02*
X014282Y011258D01*
X014252Y011100D02*
X014311Y011100D01*
X014403Y010941D02*
X014160Y010941D01*
X013368Y008563D02*
X013196Y008563D01*
X013267Y008404D02*
X013296Y008404D01*
X013282Y008246D02*
X013282Y008246D01*
X013247Y008087D02*
X013316Y008087D01*
X013416Y007929D02*
X013148Y007929D01*
X004965Y007453D02*
X003342Y007453D01*
X003342Y007295D02*
X004882Y007295D01*
X004862Y007136D02*
X003342Y007136D01*
X003342Y006977D02*
X004892Y006977D01*
X004989Y006819D02*
X003342Y006819D01*
X003342Y008563D02*
X003466Y008563D01*
X003532Y008721D02*
X003342Y008721D01*
X003342Y008880D02*
X003628Y008880D01*
X003786Y009039D02*
X003342Y009039D01*
X004202Y009039D02*
X004362Y009039D01*
X004362Y008880D02*
X004202Y008880D01*
X004202Y008721D02*
X004362Y008721D01*
X004362Y008563D02*
X004202Y008563D01*
X013172Y013953D02*
X013391Y013953D01*
X013306Y014112D02*
X013257Y014112D01*
X013282Y014270D02*
X013282Y014270D01*
X013257Y014429D02*
X013306Y014429D01*
X013392Y014588D02*
X013171Y014588D01*
X012939Y014746D02*
X013625Y014746D01*
X008982Y016670D02*
X008982Y017470D01*
X005917Y015222D02*
X005426Y015222D01*
X005659Y015063D02*
X005684Y015063D01*
X005716Y014429D02*
X005628Y014429D01*
X005598Y014112D02*
X005717Y014112D01*
X003449Y002855D02*
X003342Y002855D01*
X003342Y002697D02*
X003512Y002697D01*
X003580Y002538D02*
X003342Y002538D01*
X003342Y002380D02*
X003738Y002380D01*
X004020Y002221D02*
X003342Y002221D01*
X031682Y008770D02*
X031881Y008770D01*
X032065Y008694D01*
X032206Y008553D01*
X032222Y008514D01*
X032222Y009026D01*
X032206Y008987D01*
X032065Y008846D01*
X031881Y008770D01*
X031682Y008770D01*
X031998Y008721D02*
X032222Y008721D01*
X032222Y008563D02*
X032196Y008563D01*
X032222Y008880D02*
X032099Y008880D01*
X032087Y005868D02*
X032222Y005868D01*
D18*
X030782Y015270D02*
X031782Y016270D01*
M02*
