G75*
G70*
%OFA0B0*%
%FSLAX24Y24*%
%IPPOS*%
%LPD*%
%AMOC8*
5,1,8,0,0,1.08239X$1,22.5*
%
%ADD10C,0.0080*%
%ADD11C,0.0050*%
D10*
X002782Y001270D02*
X002782Y019270D01*
X032782Y019270D01*
X032782Y001270D01*
X002782Y001270D01*
X000270Y002857D02*
X005900Y002857D01*
X005900Y008683D01*
X000270Y008683D01*
X000270Y002857D01*
X000849Y004270D02*
X003152Y003770D01*
X004439Y004131D02*
X004444Y004180D01*
X004446Y004229D01*
X004444Y004278D01*
X004439Y004327D01*
X004439Y004132D02*
X004614Y004132D01*
X004242Y004130D02*
X004242Y004327D01*
X004439Y004327D02*
X004437Y004354D01*
X004432Y004380D01*
X004423Y004405D01*
X004410Y004429D01*
X004395Y004451D01*
X004376Y004471D01*
X004356Y004488D01*
X004333Y004502D01*
X004308Y004513D01*
X004282Y004520D01*
X004255Y004524D01*
X004229Y004524D01*
X004202Y004520D01*
X004176Y004513D01*
X004151Y004502D01*
X004128Y004488D01*
X004108Y004471D01*
X004089Y004451D01*
X004074Y004429D01*
X004061Y004405D01*
X004052Y004380D01*
X004047Y004354D01*
X004045Y004327D01*
X004046Y004327D02*
X004242Y004327D01*
X004636Y004425D02*
X004634Y004464D01*
X004628Y004502D01*
X004619Y004539D01*
X004606Y004576D01*
X004589Y004611D01*
X004570Y004644D01*
X004547Y004675D01*
X004521Y004704D01*
X004492Y004730D01*
X004461Y004753D01*
X004428Y004772D01*
X004393Y004789D01*
X004356Y004802D01*
X004319Y004811D01*
X004281Y004817D01*
X004242Y004819D01*
X004203Y004817D01*
X004165Y004811D01*
X004128Y004802D01*
X004091Y004789D01*
X004056Y004772D01*
X004023Y004753D01*
X003992Y004730D01*
X003963Y004704D01*
X003937Y004675D01*
X003914Y004644D01*
X003895Y004611D01*
X003878Y004576D01*
X003865Y004539D01*
X003856Y004502D01*
X003850Y004464D01*
X003848Y004425D01*
X003898Y004130D02*
X004242Y004130D01*
X003898Y004131D02*
X003881Y004188D01*
X003867Y004247D01*
X003857Y004306D01*
X003851Y004366D01*
X003849Y004426D01*
X003849Y004918D02*
X004144Y005114D01*
X004292Y005262D02*
X004292Y005410D01*
X004439Y005410D01*
X004439Y005262D01*
X004437Y005246D01*
X004432Y005230D01*
X004423Y005216D01*
X004411Y005204D01*
X004397Y005195D01*
X004381Y005190D01*
X004365Y005188D01*
X004349Y005190D01*
X004333Y005195D01*
X004319Y005204D01*
X004307Y005216D01*
X004298Y005230D01*
X004293Y005246D01*
X004291Y005262D01*
X004144Y005114D02*
X004146Y005083D01*
X004152Y005053D01*
X004161Y005023D01*
X004174Y004995D01*
X004191Y004969D01*
X004211Y004946D01*
X004233Y004924D01*
X004258Y004906D01*
X004285Y004891D01*
X004314Y004880D01*
X004344Y004872D01*
X004375Y004868D01*
X004405Y004868D01*
X004436Y004872D01*
X004466Y004880D01*
X004495Y004891D01*
X004522Y004906D01*
X004547Y004924D01*
X004569Y004946D01*
X004589Y004969D01*
X004606Y004995D01*
X004619Y005023D01*
X004628Y005053D01*
X004634Y005083D01*
X004636Y005114D01*
X004636Y005656D01*
X003849Y005656D01*
X003849Y005410D01*
X004144Y005410D01*
X003849Y005213D01*
X003849Y004918D01*
X003152Y005270D02*
X000849Y004770D01*
X000849Y004270D01*
X004615Y004126D02*
X004626Y004200D01*
X004633Y004275D01*
X004637Y004350D01*
X004636Y004425D01*
X004636Y005754D02*
X004439Y005754D01*
X004439Y006197D01*
X004341Y006197D01*
X004341Y005754D01*
X004144Y005754D01*
X004144Y006197D01*
X004046Y006197D01*
X004046Y005754D01*
X003849Y005754D01*
X003849Y006443D01*
X004636Y006443D01*
X004636Y005754D01*
X003152Y006270D02*
X000849Y006770D01*
X000849Y007270D01*
X003152Y007770D01*
X003849Y007280D02*
X003849Y007034D01*
X003849Y006738D01*
X003851Y006711D01*
X003856Y006685D01*
X003865Y006660D01*
X003878Y006636D01*
X003893Y006614D01*
X003912Y006594D01*
X003932Y006577D01*
X003955Y006563D01*
X003980Y006552D01*
X004006Y006545D01*
X004033Y006541D01*
X004059Y006541D01*
X004086Y006545D01*
X004112Y006552D01*
X004137Y006563D01*
X004160Y006577D01*
X004180Y006594D01*
X004199Y006614D01*
X004214Y006636D01*
X004227Y006660D01*
X004236Y006685D01*
X004241Y006711D01*
X004243Y006738D01*
X004242Y006738D02*
X004244Y006711D01*
X004249Y006685D01*
X004258Y006660D01*
X004271Y006636D01*
X004286Y006614D01*
X004305Y006594D01*
X004325Y006577D01*
X004348Y006563D01*
X004373Y006552D01*
X004399Y006545D01*
X004426Y006541D01*
X004452Y006541D01*
X004479Y006545D01*
X004505Y006552D01*
X004530Y006563D01*
X004553Y006577D01*
X004573Y006594D01*
X004592Y006614D01*
X004607Y006636D01*
X004620Y006660D01*
X004629Y006685D01*
X004634Y006711D01*
X004636Y006738D01*
X004636Y007034D01*
X004439Y006738D01*
X004242Y007034D01*
X004046Y006738D01*
X003849Y007034D01*
X004242Y007034D01*
X004636Y007034D01*
X004636Y007280D01*
X003849Y007280D01*
X005772Y008889D02*
X005842Y008959D01*
X005842Y009029D01*
X005772Y009099D01*
X005421Y009099D01*
X005421Y009029D02*
X005421Y009169D01*
X005491Y009350D02*
X005421Y009420D01*
X005421Y009560D01*
X005491Y009630D01*
X005561Y009630D01*
X005632Y009560D01*
X005702Y009630D01*
X005772Y009630D01*
X005842Y009560D01*
X005842Y009420D01*
X005772Y009350D01*
X005632Y009490D02*
X005632Y009560D01*
X006572Y009660D02*
X006572Y009380D01*
X006642Y009310D01*
X006782Y009310D01*
X006852Y009380D01*
X007032Y009310D02*
X007312Y009310D01*
X007172Y009310D02*
X007172Y009730D01*
X007032Y009590D01*
X006852Y009660D02*
X006782Y009730D01*
X006642Y009730D01*
X006572Y009660D01*
X007492Y009520D02*
X007492Y009380D01*
X007562Y009310D01*
X007703Y009310D01*
X007773Y009380D01*
X007773Y009450D01*
X007703Y009520D01*
X007492Y009520D01*
X007633Y009660D01*
X007773Y009730D01*
X007092Y010260D02*
X006671Y010260D01*
X006671Y010470D01*
X006741Y010540D01*
X006882Y010540D01*
X006952Y010470D01*
X006952Y010260D01*
X006952Y010400D02*
X007092Y010540D01*
X007092Y010720D02*
X007092Y011001D01*
X007092Y010860D02*
X006671Y010860D01*
X006811Y010720D01*
X006741Y011181D02*
X006671Y011251D01*
X006671Y011391D01*
X006741Y011461D01*
X006811Y011461D01*
X007092Y011181D01*
X007092Y011461D01*
X006581Y011908D02*
X006581Y016632D01*
X005046Y016632D01*
X006000Y016971D02*
X006000Y017111D01*
X006000Y017041D02*
X006350Y017041D01*
X006420Y016971D01*
X006420Y016901D01*
X006350Y016831D01*
X006350Y017291D02*
X006420Y017361D01*
X006420Y017501D01*
X006350Y017571D01*
X006210Y017571D01*
X006140Y017501D01*
X006140Y017431D01*
X006210Y017291D01*
X006000Y017291D01*
X006000Y017571D01*
X008071Y016510D02*
X008071Y016370D01*
X008141Y016299D01*
X008422Y016299D01*
X008141Y016580D01*
X008422Y016580D01*
X008492Y016510D01*
X008492Y016370D01*
X008422Y016299D01*
X008492Y016119D02*
X008492Y015839D01*
X008492Y015979D02*
X008071Y015979D01*
X008211Y015839D01*
X008141Y015659D02*
X008282Y015659D01*
X008352Y015589D01*
X008352Y015379D01*
X008492Y015379D02*
X008071Y015379D01*
X008071Y015589D01*
X008141Y015659D01*
X008352Y015519D02*
X008492Y015659D01*
X008451Y015280D02*
X008661Y015280D01*
X008731Y015210D01*
X008731Y015070D01*
X008661Y015000D01*
X008451Y015000D01*
X008451Y014860D02*
X008451Y015280D01*
X008911Y015280D02*
X009192Y015280D01*
X009192Y015210D01*
X008911Y014930D01*
X008911Y014860D01*
X008809Y014742D02*
X009754Y014742D01*
X009754Y013797D01*
X008809Y013797D01*
X008809Y014742D01*
X008731Y014860D02*
X008591Y015000D01*
X010051Y014424D02*
X010051Y014074D01*
X010121Y014004D01*
X010261Y014004D01*
X010331Y014074D01*
X010331Y014424D01*
X010511Y014214D02*
X010792Y014214D01*
X010721Y014004D02*
X010721Y014424D01*
X010511Y014214D01*
X009796Y013697D02*
X009798Y013712D01*
X009804Y013726D01*
X009813Y013739D01*
X009825Y013748D01*
X009840Y013754D01*
X009855Y013756D01*
X009870Y013754D01*
X009884Y013748D01*
X009897Y013739D01*
X009906Y013727D01*
X009912Y013712D01*
X009914Y013697D01*
X009912Y013682D01*
X009906Y013668D01*
X009897Y013655D01*
X009885Y013646D01*
X009870Y013640D01*
X009855Y013638D01*
X009840Y013640D01*
X009826Y013646D01*
X009813Y013655D01*
X009804Y013667D01*
X009798Y013682D01*
X009796Y013697D01*
X008592Y013310D02*
X008521Y013380D01*
X008381Y013380D01*
X008311Y013310D01*
X008311Y013240D01*
X008381Y013170D01*
X008592Y013170D01*
X008592Y013030D02*
X008521Y012960D01*
X008381Y012960D01*
X008311Y013030D01*
X008131Y012960D02*
X007991Y013100D01*
X008061Y013100D02*
X007851Y013100D01*
X007851Y012960D02*
X007851Y013380D01*
X008061Y013380D01*
X008131Y013310D01*
X008131Y013170D01*
X008061Y013100D01*
X008592Y013030D02*
X008592Y013310D01*
X009091Y012580D02*
X009021Y012510D01*
X009021Y012370D01*
X009091Y012300D01*
X009161Y012300D01*
X009232Y012370D01*
X009232Y012580D01*
X009372Y012580D02*
X009091Y012580D01*
X009372Y012580D02*
X009442Y012510D01*
X009442Y012370D01*
X009372Y012300D01*
X009372Y012119D02*
X009442Y012049D01*
X009442Y011909D01*
X009372Y011839D01*
X009091Y011839D01*
X009021Y011909D01*
X009021Y012049D01*
X009091Y012119D01*
X010972Y012060D02*
X010972Y011780D01*
X011042Y011710D01*
X011182Y011710D01*
X011252Y011780D01*
X011432Y011710D02*
X011712Y011710D01*
X011572Y011710D02*
X011572Y012130D01*
X011432Y011990D01*
X011252Y012060D02*
X011182Y012130D01*
X011042Y012130D01*
X010972Y012060D01*
X011042Y012410D02*
X011182Y012410D01*
X011252Y012480D01*
X011432Y012410D02*
X011712Y012410D01*
X011572Y012410D02*
X011572Y012830D01*
X011432Y012690D01*
X011252Y012760D02*
X011182Y012830D01*
X011042Y012830D01*
X010972Y012760D01*
X010972Y012480D01*
X011042Y012410D01*
X011892Y012480D02*
X011892Y012760D01*
X011962Y012830D01*
X012103Y012830D01*
X012173Y012760D01*
X011892Y012480D01*
X011962Y012410D01*
X012103Y012410D01*
X012173Y012480D01*
X012173Y012760D01*
X012103Y012130D02*
X011962Y012130D01*
X011892Y012060D01*
X011892Y011990D01*
X011962Y011920D01*
X012103Y011920D01*
X012173Y011850D01*
X012173Y011780D01*
X012103Y011710D01*
X011962Y011710D01*
X011892Y011780D01*
X011892Y011850D01*
X011962Y011920D01*
X012103Y011920D02*
X012173Y011990D01*
X012173Y012060D01*
X012103Y012130D01*
X014422Y014910D02*
X014732Y014910D01*
X014835Y015013D01*
X014835Y015427D01*
X014732Y015530D01*
X014422Y015530D01*
X014422Y014910D01*
X015066Y015013D02*
X015170Y014910D01*
X015480Y014910D01*
X015480Y015324D01*
X015814Y015324D02*
X016021Y015324D01*
X016124Y015220D01*
X016124Y014910D01*
X015814Y014910D01*
X015711Y015013D01*
X015814Y015117D01*
X016124Y015117D01*
X016355Y014910D02*
X016562Y014910D01*
X016459Y014910D02*
X016459Y015530D01*
X016355Y015530D01*
X017430Y015530D02*
X017430Y015013D01*
X017533Y014910D01*
X017740Y014910D01*
X017843Y015013D01*
X017843Y015530D01*
X018074Y015427D02*
X018074Y015324D01*
X018177Y015220D01*
X018384Y015220D01*
X018488Y015117D01*
X018488Y015013D01*
X018384Y014910D01*
X018177Y014910D01*
X018074Y015013D01*
X018719Y014910D02*
X019029Y014910D01*
X019132Y015013D01*
X019132Y015117D01*
X019029Y015220D01*
X018719Y015220D01*
X019029Y015220D02*
X019132Y015324D01*
X019132Y015427D01*
X019029Y015530D01*
X018719Y015530D01*
X018719Y014910D01*
X018488Y015427D02*
X018384Y015530D01*
X018177Y015530D01*
X018074Y015427D01*
X020008Y015530D02*
X020008Y015117D01*
X020214Y014910D01*
X020421Y015117D01*
X020421Y015530D01*
X020652Y015324D02*
X020859Y015530D01*
X020859Y014910D01*
X020652Y014910D02*
X021066Y014910D01*
X021297Y014910D02*
X021400Y014910D01*
X021400Y015013D01*
X021297Y015013D01*
X021297Y014910D01*
X021619Y014910D02*
X022033Y014910D01*
X021826Y014910D02*
X021826Y015530D01*
X021619Y015324D01*
X023721Y016530D02*
X023791Y016460D01*
X024072Y016460D01*
X024142Y016530D01*
X024142Y016670D01*
X024072Y016740D01*
X024142Y016920D02*
X024142Y017201D01*
X024142Y017060D02*
X023721Y017060D01*
X023861Y016920D01*
X023791Y016740D02*
X023721Y016670D01*
X023721Y016530D01*
X015066Y015324D02*
X015066Y015013D01*
X011826Y016125D02*
X011826Y017414D01*
X011282Y018038D02*
X011282Y018286D01*
X011400Y018164D02*
X011152Y018164D01*
X010542Y017830D02*
X010542Y017690D01*
X010472Y017620D01*
X010332Y017620D02*
X010261Y017760D01*
X010261Y017830D01*
X010332Y017901D01*
X010472Y017901D01*
X010542Y017830D01*
X010332Y017620D02*
X010121Y017620D01*
X010121Y017901D01*
X010191Y017440D02*
X010121Y017370D01*
X010121Y017230D01*
X010191Y017160D01*
X010472Y017160D01*
X010542Y017230D01*
X010542Y017370D01*
X010472Y017440D01*
X010737Y017414D02*
X010737Y016125D01*
X010112Y016580D02*
X010042Y016510D01*
X009902Y016510D01*
X009832Y016580D01*
X009832Y016650D01*
X009902Y016720D01*
X010042Y016720D01*
X010112Y016650D01*
X010112Y016580D01*
X010042Y016720D02*
X010112Y016790D01*
X010112Y016860D01*
X010042Y016930D01*
X009902Y016930D01*
X009832Y016860D01*
X009832Y016790D01*
X009902Y016720D01*
X009652Y016580D02*
X009582Y016510D01*
X009442Y016510D01*
X009372Y016580D01*
X009372Y016860D01*
X009442Y016930D01*
X009582Y016930D01*
X009652Y016860D01*
X008141Y016580D02*
X008071Y016510D01*
X007192Y013961D02*
X007192Y013681D01*
X007192Y013821D02*
X006771Y013821D01*
X006911Y013681D01*
X007192Y013501D02*
X007192Y013220D01*
X007192Y013360D02*
X006771Y013360D01*
X006911Y013220D01*
X006841Y013040D02*
X006982Y013040D01*
X007052Y012970D01*
X007052Y012760D01*
X007192Y012760D02*
X006771Y012760D01*
X006771Y012970D01*
X006841Y013040D01*
X007052Y012900D02*
X007192Y013040D01*
X006581Y011908D02*
X005046Y011908D01*
X003392Y011908D02*
X001896Y011908D01*
X008272Y008260D02*
X008272Y007980D01*
X008342Y007910D01*
X008482Y007910D01*
X008552Y007980D01*
X008732Y007980D02*
X008732Y008120D01*
X008942Y008120D01*
X009012Y008050D01*
X009012Y007980D01*
X008942Y007910D01*
X008802Y007910D01*
X008732Y007980D01*
X008732Y008120D02*
X008872Y008260D01*
X009012Y008330D01*
X008552Y008260D02*
X008482Y008330D01*
X008342Y008330D01*
X008272Y008260D01*
X007622Y007280D02*
X007482Y007280D01*
X007411Y007210D01*
X007411Y007140D01*
X007482Y007000D01*
X007271Y007000D01*
X007271Y007280D01*
X007622Y007280D02*
X007692Y007210D01*
X007692Y007070D01*
X007622Y007000D01*
X007692Y006819D02*
X007552Y006679D01*
X007552Y006749D02*
X007552Y006539D01*
X007692Y006539D02*
X007271Y006539D01*
X007271Y006749D01*
X007341Y006819D01*
X007482Y006819D01*
X007552Y006749D01*
X007751Y006780D02*
X007961Y006780D01*
X008031Y006710D01*
X008031Y006570D01*
X007961Y006500D01*
X007751Y006500D01*
X007751Y006360D02*
X007751Y006780D01*
X008211Y006710D02*
X008281Y006780D01*
X008421Y006780D01*
X008492Y006710D01*
X008492Y006640D01*
X008421Y006570D01*
X008492Y006500D01*
X008492Y006430D01*
X008421Y006360D01*
X008281Y006360D01*
X008211Y006430D01*
X008031Y006360D02*
X007891Y006500D01*
X008009Y006142D02*
X008954Y006142D01*
X008954Y005197D01*
X008009Y005197D01*
X008009Y006142D01*
X008351Y006570D02*
X008421Y006570D01*
X009251Y005824D02*
X009251Y005474D01*
X009321Y005404D01*
X009461Y005404D01*
X009531Y005474D01*
X009531Y005824D01*
X009711Y005824D02*
X009711Y005614D01*
X009851Y005684D01*
X009921Y005684D01*
X009992Y005614D01*
X009992Y005474D01*
X009921Y005404D01*
X009781Y005404D01*
X009711Y005474D01*
X009711Y005824D02*
X009992Y005824D01*
X008996Y005097D02*
X008998Y005112D01*
X009004Y005126D01*
X009013Y005139D01*
X009025Y005148D01*
X009040Y005154D01*
X009055Y005156D01*
X009070Y005154D01*
X009084Y005148D01*
X009097Y005139D01*
X009106Y005127D01*
X009112Y005112D01*
X009114Y005097D01*
X009112Y005082D01*
X009106Y005068D01*
X009097Y005055D01*
X009085Y005046D01*
X009070Y005040D01*
X009055Y005038D01*
X009040Y005040D01*
X009026Y005046D01*
X009013Y005055D01*
X009004Y005067D01*
X008998Y005082D01*
X008996Y005097D01*
X007992Y004670D02*
X007711Y004670D01*
X007921Y004880D01*
X007921Y004460D01*
X007531Y004460D02*
X007391Y004600D01*
X007461Y004600D02*
X007251Y004600D01*
X007251Y004460D02*
X007251Y004880D01*
X007461Y004880D01*
X007531Y004810D01*
X007531Y004670D01*
X007461Y004600D01*
X007842Y003330D02*
X007772Y003260D01*
X007772Y002980D01*
X007842Y002910D01*
X007982Y002910D01*
X008052Y002980D01*
X008232Y002980D02*
X008232Y002910D01*
X008232Y002980D02*
X008512Y003260D01*
X008512Y003330D01*
X008232Y003330D01*
X008052Y003260D02*
X007982Y003330D01*
X007842Y003330D01*
X006992Y002430D02*
X006922Y002501D01*
X006852Y002501D01*
X006782Y002430D01*
X006782Y002220D01*
X006922Y002220D01*
X006992Y002290D01*
X006992Y002430D01*
X006782Y002220D02*
X006641Y002360D01*
X006571Y002501D01*
X006641Y002040D02*
X006782Y002040D01*
X006852Y001970D01*
X006852Y001760D01*
X006992Y001760D02*
X006571Y001760D01*
X006571Y001970D01*
X006641Y002040D01*
X006852Y001900D02*
X006992Y002040D01*
X009882Y002370D02*
X009932Y002370D01*
X009882Y002370D02*
X009882Y002570D01*
X009932Y002570D01*
X009992Y003010D02*
X009922Y003080D01*
X009922Y003360D01*
X009992Y003430D01*
X010132Y003430D01*
X010202Y003360D01*
X010202Y003220D02*
X010062Y003220D01*
X010202Y003220D02*
X010202Y003080D01*
X010132Y003010D01*
X009992Y003010D01*
X010382Y003010D02*
X010382Y003430D01*
X010662Y003010D01*
X010662Y003430D01*
X010842Y003430D02*
X011053Y003430D01*
X011123Y003360D01*
X011123Y003080D01*
X011053Y003010D01*
X010842Y003010D01*
X010842Y003430D01*
X010882Y002570D02*
X010832Y002570D01*
X010882Y002570D02*
X010882Y002370D01*
X010832Y002370D01*
X018722Y005317D02*
X018722Y005524D01*
X018929Y005730D01*
X019151Y005420D02*
X019151Y005213D01*
X019255Y005110D01*
X019565Y005110D01*
X019796Y005110D02*
X020003Y005317D01*
X020003Y005524D01*
X019796Y005730D01*
X019565Y005524D02*
X019255Y005524D01*
X019151Y005420D01*
X018929Y005110D02*
X018722Y005317D01*
X020870Y005420D02*
X021180Y005420D01*
X021284Y005317D01*
X021284Y005213D01*
X021180Y005110D01*
X020870Y005110D01*
X020870Y005730D01*
X021180Y005730D01*
X021284Y005627D01*
X021284Y005524D01*
X021180Y005420D01*
X021515Y005213D02*
X021618Y005317D01*
X021928Y005317D01*
X021928Y005420D02*
X021928Y005110D01*
X021618Y005110D01*
X021515Y005213D01*
X021618Y005524D02*
X021825Y005524D01*
X021928Y005420D01*
X022159Y005420D02*
X022263Y005317D01*
X022469Y005317D01*
X022573Y005213D01*
X022469Y005110D01*
X022159Y005110D01*
X022159Y005420D02*
X022263Y005524D01*
X022573Y005524D01*
X022804Y005420D02*
X022804Y005213D01*
X022907Y005110D01*
X023114Y005110D01*
X023217Y005317D02*
X022804Y005317D01*
X022804Y005420D02*
X022907Y005524D01*
X023114Y005524D01*
X023217Y005420D01*
X023217Y005317D01*
X023448Y005110D02*
X023862Y005524D01*
X023862Y005627D01*
X023759Y005730D01*
X023552Y005730D01*
X023448Y005627D01*
X024093Y005730D02*
X024403Y005730D01*
X024506Y005627D01*
X024506Y005213D01*
X024403Y005110D01*
X024093Y005110D01*
X024093Y005730D01*
X024737Y005420D02*
X024737Y005213D01*
X024841Y005110D01*
X025048Y005110D01*
X025151Y005317D02*
X024737Y005317D01*
X024737Y005420D02*
X024841Y005524D01*
X025048Y005524D01*
X025151Y005420D01*
X025151Y005317D01*
X025382Y005420D02*
X025485Y005524D01*
X025796Y005524D01*
X026026Y005524D02*
X026130Y005524D01*
X026130Y005110D01*
X026233Y005110D02*
X026026Y005110D01*
X025796Y005213D02*
X025692Y005317D01*
X025485Y005317D01*
X025382Y005420D01*
X025692Y005110D02*
X025796Y005213D01*
X025692Y005110D02*
X025382Y005110D01*
X026130Y005730D02*
X026130Y005834D01*
X026456Y005420D02*
X026456Y005213D01*
X026559Y005110D01*
X026870Y005110D01*
X026870Y005007D02*
X026870Y005524D01*
X026559Y005524D01*
X026456Y005420D01*
X026870Y005007D02*
X026766Y004903D01*
X026663Y004903D01*
X027101Y005110D02*
X027101Y005524D01*
X027411Y005524D01*
X027514Y005420D01*
X027514Y005110D01*
X027745Y005110D02*
X028055Y005110D01*
X028159Y005213D01*
X028055Y005317D01*
X027849Y005317D01*
X027745Y005420D01*
X027849Y005524D01*
X028159Y005524D01*
X029034Y005627D02*
X029138Y005730D01*
X029344Y005730D01*
X029448Y005627D01*
X029448Y005524D01*
X029034Y005110D01*
X029448Y005110D01*
X029679Y005213D02*
X030092Y005627D01*
X030092Y005213D01*
X029989Y005110D01*
X029782Y005110D01*
X029679Y005213D01*
X029679Y005627D01*
X029782Y005730D01*
X029989Y005730D01*
X030092Y005627D01*
X030323Y005627D02*
X030427Y005730D01*
X030633Y005730D01*
X030737Y005627D01*
X030323Y005213D01*
X030427Y005110D01*
X030633Y005110D01*
X030737Y005213D01*
X030737Y005627D01*
X030968Y005627D02*
X030968Y005524D01*
X031071Y005420D01*
X031278Y005420D01*
X031381Y005317D01*
X031381Y005213D01*
X031278Y005110D01*
X031071Y005110D01*
X030968Y005213D01*
X030968Y005317D01*
X031071Y005420D01*
X031278Y005420D02*
X031381Y005524D01*
X031381Y005627D01*
X031278Y005730D01*
X031071Y005730D01*
X030968Y005627D01*
X030323Y005627D02*
X030323Y005213D01*
X023862Y005110D02*
X023448Y005110D01*
X003392Y016632D02*
X001896Y016632D01*
D11*
X003522Y007221D02*
X003504Y007203D01*
X003504Y007166D01*
X003522Y007148D01*
X003540Y007148D01*
X003559Y007166D01*
X003559Y007203D01*
X003577Y007221D01*
X003595Y007221D01*
X003614Y007203D01*
X003614Y007166D01*
X003595Y007148D01*
X003595Y006926D02*
X003614Y006908D01*
X003614Y006871D01*
X003595Y006853D01*
X003522Y006853D01*
X003504Y006871D01*
X003504Y006908D01*
X003522Y006926D01*
X003504Y006644D02*
X003504Y006607D01*
X003504Y006626D02*
X003614Y006626D01*
X003614Y006644D02*
X003614Y006607D01*
X003614Y006386D02*
X003504Y006386D01*
X003504Y006313D02*
X003614Y006386D01*
X003614Y006313D02*
X003504Y006313D01*
X003522Y006091D02*
X003504Y006073D01*
X003504Y006036D01*
X003522Y006018D01*
X003595Y006018D01*
X003614Y006036D01*
X003614Y006073D01*
X003595Y006091D01*
X003522Y006091D01*
X003522Y005797D02*
X003559Y005797D01*
X003577Y005778D01*
X003577Y005723D01*
X003614Y005723D02*
X003504Y005723D01*
X003504Y005778D01*
X003522Y005797D01*
X003577Y005760D02*
X003614Y005797D01*
X003504Y005502D02*
X003504Y005429D01*
X003504Y005465D02*
X003614Y005465D01*
X003595Y005208D02*
X003614Y005189D01*
X003614Y005152D01*
X003595Y005134D01*
X003522Y005134D01*
X003504Y005152D01*
X003504Y005189D01*
X003522Y005208D01*
X003504Y004913D02*
X003504Y004839D01*
X003614Y004839D01*
X003614Y004913D01*
X003559Y004876D02*
X003559Y004839D01*
X003614Y004618D02*
X003614Y004545D01*
X003504Y004545D01*
X003504Y004324D02*
X003504Y004250D01*
X003614Y004250D01*
X003614Y004324D01*
X003559Y004287D02*
X003559Y004250D01*
M02*
