G75*
G70*
%OFA0B0*%
%FSLAX24Y24*%
%IPPOS*%
%LPD*%
%AMOC8*
5,1,8,0,0,1.08239X$1,22.5*
%
%ADD10C,0.0080*%
D10*
X002782Y001270D02*
X002782Y019270D01*
X032782Y019270D01*
X032782Y001270D01*
X002782Y001270D01*
X012251Y002280D02*
X012321Y002210D01*
X012461Y002210D01*
X012531Y002280D01*
X012251Y002560D01*
X012251Y002280D01*
X012251Y002560D02*
X012321Y002630D01*
X012461Y002630D01*
X012531Y002560D01*
X012531Y002280D01*
X012711Y002420D02*
X012992Y002420D01*
X012782Y002630D01*
X012782Y002210D01*
X012532Y002770D02*
X013032Y002770D01*
X013282Y003020D01*
X013532Y002770D01*
X014032Y002770D01*
X014282Y003020D01*
X014532Y002770D01*
X015032Y002770D01*
X015282Y003020D01*
X015532Y002770D01*
X016032Y002770D01*
X016282Y003020D01*
X016532Y002770D01*
X017032Y002770D01*
X017282Y003020D01*
X017532Y002770D01*
X018032Y002770D01*
X018282Y003020D01*
X018532Y002770D01*
X019032Y002770D01*
X019282Y003020D01*
X019532Y002770D01*
X020032Y002770D01*
X020282Y003020D01*
X020532Y002770D01*
X021032Y002770D01*
X021282Y003020D01*
X021532Y002770D01*
X022032Y002770D01*
X022282Y003020D01*
X022532Y002770D01*
X023032Y002770D01*
X023282Y003020D01*
X023532Y002770D01*
X024032Y002770D01*
X024282Y003020D01*
X024532Y002770D01*
X025032Y002770D01*
X025282Y003020D01*
X025532Y002770D01*
X026032Y002770D01*
X026282Y003020D01*
X026532Y002770D01*
X027032Y002770D01*
X027282Y003020D01*
X027532Y002770D01*
X028032Y002770D01*
X028282Y003020D01*
X028532Y002770D01*
X029032Y002770D01*
X029282Y003020D01*
X029532Y002770D01*
X030032Y002770D01*
X030282Y003020D01*
X030532Y002770D01*
X031032Y002770D01*
X031282Y003020D01*
X031532Y002770D01*
X032032Y002770D01*
X032282Y003020D01*
X032282Y004520D01*
X032032Y004770D01*
X031532Y004770D01*
X031282Y004520D01*
X031032Y004770D01*
X030532Y004770D01*
X030282Y004520D01*
X030032Y004770D01*
X029532Y004770D01*
X029282Y004520D01*
X029032Y004770D01*
X028532Y004770D01*
X028282Y004520D01*
X028032Y004770D01*
X027532Y004770D01*
X027282Y004520D01*
X027032Y004770D01*
X026532Y004770D01*
X026282Y004520D01*
X026032Y004770D01*
X025532Y004770D01*
X025282Y004520D01*
X025032Y004770D01*
X024532Y004770D01*
X024282Y004520D01*
X024032Y004770D01*
X023532Y004770D01*
X023282Y004520D01*
X023032Y004770D01*
X022532Y004770D01*
X022282Y004520D01*
X022032Y004770D01*
X021532Y004770D01*
X021282Y004520D01*
X021032Y004770D01*
X020532Y004770D01*
X020282Y004520D01*
X020032Y004770D01*
X019532Y004770D01*
X019282Y004520D01*
X019032Y004770D01*
X018532Y004770D01*
X018282Y004520D01*
X018032Y004770D01*
X017532Y004770D01*
X017282Y004520D01*
X017032Y004770D01*
X016532Y004770D01*
X016282Y004520D01*
X016032Y004770D01*
X015532Y004770D01*
X015282Y004520D01*
X015032Y004770D01*
X014532Y004770D01*
X014282Y004520D01*
X014032Y004770D01*
X013532Y004770D01*
X013282Y004520D01*
X013032Y004770D01*
X012532Y004770D01*
X012282Y004520D01*
X012282Y003020D01*
X012532Y002770D01*
X029001Y005030D02*
X029001Y005100D01*
X029071Y005170D01*
X029281Y005170D01*
X029281Y005030D01*
X029211Y004960D01*
X029071Y004960D01*
X029001Y005030D01*
X029141Y005310D02*
X029281Y005170D01*
X029141Y005310D02*
X029001Y005380D01*
X029461Y005380D02*
X029602Y005380D01*
X029532Y005380D02*
X029532Y005030D01*
X029602Y004960D01*
X029672Y004960D01*
X029742Y005030D01*
X031661Y004910D02*
X031942Y004910D01*
X031802Y004910D02*
X031802Y005330D01*
X031942Y005190D01*
X026192Y015210D02*
X025911Y015210D01*
X026052Y015210D02*
X026052Y015630D01*
X026192Y015490D01*
X026032Y015770D02*
X025532Y015770D01*
X025282Y016020D01*
X025282Y017520D01*
X025532Y017770D01*
X026032Y017770D01*
X026282Y017520D01*
X026532Y017770D01*
X027032Y017770D01*
X027282Y017520D01*
X027532Y017770D01*
X028032Y017770D01*
X028282Y017520D01*
X028532Y017770D01*
X029032Y017770D01*
X029282Y017520D01*
X029532Y017770D01*
X030032Y017770D01*
X030282Y017520D01*
X030532Y017770D01*
X031032Y017770D01*
X031282Y017520D01*
X031532Y017770D01*
X032032Y017770D01*
X032282Y017520D01*
X032282Y016020D01*
X032032Y015770D01*
X031532Y015770D01*
X031282Y016020D01*
X031032Y015770D01*
X030532Y015770D01*
X030282Y016020D01*
X030032Y015770D01*
X029532Y015770D01*
X029282Y016020D01*
X029032Y015770D01*
X028532Y015770D01*
X028282Y016020D01*
X028032Y015770D01*
X027532Y015770D01*
X027282Y016020D01*
X027032Y015770D01*
X026532Y015770D01*
X026282Y016020D01*
X026032Y015770D01*
X025731Y015420D02*
X025521Y015630D01*
X025521Y015210D01*
X025451Y015420D02*
X025731Y015420D01*
X022282Y016020D02*
X022282Y017520D01*
X022032Y017770D01*
X021532Y017770D01*
X021282Y017520D01*
X021032Y017770D01*
X020532Y017770D01*
X020282Y017520D01*
X020032Y017770D01*
X019532Y017770D01*
X019282Y017520D01*
X019032Y017770D01*
X018532Y017770D01*
X018282Y017520D01*
X018032Y017770D01*
X017532Y017770D01*
X017282Y017520D01*
X017032Y017770D01*
X016532Y017770D01*
X016282Y017520D01*
X016032Y017770D01*
X015532Y017770D01*
X015282Y017520D01*
X015032Y017770D01*
X014532Y017770D01*
X014282Y017520D01*
X014032Y017770D01*
X013532Y017770D01*
X013282Y017520D01*
X013032Y017770D01*
X012532Y017770D01*
X012282Y017520D01*
X012282Y016020D01*
X012532Y015770D01*
X013032Y015770D01*
X013282Y016020D01*
X013532Y015770D01*
X014032Y015770D01*
X014282Y016020D01*
X014532Y015770D01*
X015032Y015770D01*
X015282Y016020D01*
X015532Y015770D01*
X016032Y015770D01*
X016282Y016020D01*
X016532Y015770D01*
X017032Y015770D01*
X017282Y016020D01*
X017532Y015770D01*
X018032Y015770D01*
X018282Y016020D01*
X018532Y015770D01*
X019032Y015770D01*
X019282Y016020D01*
X019532Y015770D01*
X020032Y015770D01*
X020282Y016020D01*
X020532Y015770D01*
X021032Y015770D01*
X021282Y016020D01*
X021532Y015770D01*
X022032Y015770D01*
X022282Y016020D01*
X021942Y017910D02*
X021661Y017910D01*
X021802Y017910D02*
X021802Y018330D01*
X021942Y018190D01*
X018742Y018030D02*
X018672Y017960D01*
X018602Y017960D01*
X018532Y018030D01*
X018532Y018380D01*
X018602Y018380D02*
X018461Y018380D01*
X018281Y018170D02*
X018001Y018170D01*
X018071Y017960D02*
X018071Y018380D01*
X018281Y018170D01*
X012992Y015560D02*
X012922Y015630D01*
X012782Y015630D01*
X012711Y015560D01*
X012711Y015490D01*
X012992Y015210D01*
X012711Y015210D01*
X012531Y015280D02*
X012251Y015560D01*
X012251Y015280D01*
X012321Y015210D01*
X012461Y015210D01*
X012531Y015280D01*
X012531Y015560D01*
X012461Y015630D01*
X012321Y015630D01*
X012251Y015560D01*
X029001Y017960D02*
X029281Y017960D01*
X029001Y018240D01*
X029001Y018310D01*
X029071Y018380D01*
X029211Y018380D01*
X029281Y018310D01*
X029461Y018380D02*
X029602Y018380D01*
X029532Y018380D02*
X029532Y018030D01*
X029602Y017960D01*
X029672Y017960D01*
X029742Y018030D01*
X031661Y017910D02*
X031942Y017910D01*
X031802Y017910D02*
X031802Y018330D01*
X031942Y018190D01*
M02*
