%
M48
M72
T01C0.0240
T02C0.0360
T03C0.0374
T04C0.0400
T05C0.0900
T06C0.0906
%
T01
X6782Y3070
X9182Y3870
X8982Y6770
X7582Y7670
X8182Y8770
X10382Y11170
X8682Y11370
X6882Y12270
X9182Y13170
X9582Y15370
X11282Y15270
X8982Y16670
X8982Y17470
X7582Y16970
X24482Y17770
T02
X6062Y14762
X5282Y14762
X5282Y13778
X6062Y13778
T03
X5349Y7148
X5349Y6164
X5349Y5376
X5349Y4392
T04
X10382Y2470
X12782Y3270
X13782Y3270
X14782Y3270
X15782Y3270
X16782Y3270
X17782Y3270
X18782Y3270
X19782Y3270
X20782Y3270
X21782Y3270
X22782Y3270
X23782Y3270
X24782Y3270
X25782Y3270
X26782Y3270
X27782Y3270
X28782Y3270
X29782Y3270
X30782Y3270
X31782Y3270
X31782Y4270
X30782Y4270
X29782Y4270
X28782Y4270
X27782Y4270
X26782Y4270
X25782Y4270
X24782Y4270
X23782Y4270
X22782Y4270
X21782Y4270
X20782Y4270
X19782Y4270
X18782Y4270
X17782Y4270
X16782Y4270
X15782Y4270
X14782Y4270
X13782Y4270
X12782Y4270
X16782Y6270
X17782Y6270
X18782Y6270
X19782Y6270
X20782Y6270
X21782Y6270
X22782Y6270
X23782Y6270
X24782Y6270
X25782Y6270
X26782Y6270
X27782Y6270
X28782Y6270
X29782Y6270
X30782Y6270
X31782Y6270
X31782Y7270
X30782Y7270
X29782Y7270
X28782Y7270
X27782Y7270
X26782Y7270
X25782Y7270
X24782Y7270
X23782Y7270
X22782Y7270
X21782Y7270
X20782Y7270
X19782Y7270
X18782Y7270
X17782Y7270
X16782Y7270
X15782Y7270
X14782Y7270
X13782Y7270
X13782Y8270
X14782Y8270
X15782Y8270
X16782Y8270
X17782Y8270
X18782Y8270
X19782Y8270
X20782Y8270
X21782Y8270
X22782Y8270
X23782Y8270
X24782Y8270
X25782Y8270
X26782Y8270
X27782Y8270
X28782Y8270
X29782Y8270
X30782Y8270
X31782Y8270
X31782Y9270
X30782Y9270
X29782Y9270
X28782Y9270
X27782Y9270
X26782Y9270
X25782Y9270
X24782Y9270
X23782Y9270
X22782Y9270
X21782Y9270
X20782Y9270
X19782Y9270
X18782Y9270
X17782Y9270
X16782Y9270
X15782Y9270
X14782Y9270
X13782Y9270
X12782Y9270
X12782Y10270
X13782Y10270
X14782Y10270
X15782Y10270
X16782Y10270
X17782Y10270
X18782Y10270
X19782Y10270
X20782Y10270
X21782Y10270
X22782Y10270
X23782Y10270
X24782Y10270
X25782Y10270
X26782Y10270
X27782Y10270
X28782Y10270
X29782Y10270
X30782Y10270
X31782Y10270
X31782Y11270
X30782Y11270
X29782Y11270
X28782Y11270
X27782Y11270
X26782Y11270
X25782Y11270
X24782Y11270
X23782Y11270
X22782Y11270
X21782Y11270
X20782Y11270
X19782Y11270
X18782Y11270
X17782Y11270
X16782Y11270
X15782Y11270
X14782Y11270
X13782Y11270
X12782Y11270
X12782Y12270
X13782Y12270
X14782Y12270
X15782Y12270
X16782Y12270
X17782Y12270
X18782Y12270
X19782Y12270
X20782Y12270
X21782Y12270
X22782Y12270
X23782Y12270
X24782Y12270
X25782Y12270
X26782Y12270
X27782Y12270
X28782Y12270
X29782Y12270
X30782Y12270
X31782Y12270
X31782Y13270
X30782Y13270
X29782Y13270
X28782Y13270
X27782Y13270
X26782Y13270
X25782Y13270
X24782Y13270
X23782Y13270
X22782Y13270
X21782Y13270
X20782Y13270
X19782Y13270
X18782Y13270
X17782Y13270
X16782Y13270
X15782Y13270
X14782Y13270
X13782Y13270
X12782Y13270
X12782Y14270
X13782Y14270
X14782Y14270
X15782Y14270
X16782Y14270
X17782Y14270
X18782Y14270
X19782Y14270
X20782Y14270
X21782Y14270
X22782Y14270
X23782Y14270
X24782Y14270
X25782Y14270
X26782Y14270
X27782Y14270
X28782Y14270
X29782Y14270
X30782Y14270
X31782Y14270
X30782Y15270
X30782Y16270
X31782Y16270
X31782Y17270
X30782Y17270
X29782Y17270
X28782Y17270
X27782Y17270
X26782Y17270
X25782Y17270
X25782Y16270
X26782Y16270
X27782Y16270
X28782Y16270
X29782Y16270
X21782Y16270
X20782Y16270
X19782Y16270
X18782Y16270
X17782Y16270
X16782Y16270
X15782Y16270
X14782Y16270
X13782Y16270
X12782Y16270
X12782Y17270
X13782Y17270
X14782Y17270
X15782Y17270
X16782Y17270
X17782Y17270
X18782Y17270
X19782Y17270
X20782Y17270
X21782Y17270
X12782Y8270
T05
X4212Y11900
X4212Y16640
T06
X4282Y3014
X4282Y8357
M30
