G75*
G70*
%OFA0B0*%
%FSLAX24Y24*%
%IPPOS*%
%LPD*%
%AMOC8*
5,1,8,0,0,1.08239X$1,22.5*
%
%ADD10C,0.0600*%
%ADD11R,0.0866X0.0787*%
%ADD12R,0.0157X0.0100*%
%ADD13R,0.0472X0.0472*%
%ADD14R,0.0100X0.0157*%
%ADD15R,0.0394X0.0433*%
%ADD16C,0.0574*%
%ADD17C,0.1306*%
%ADD18R,0.0433X0.0394*%
%ADD19C,0.0560*%
%ADD20C,0.1300*%
%ADD21C,0.0850*%
%ADD22C,0.0480*%
%ADD23C,0.0080*%
%ADD24C,0.0160*%
%ADD25C,0.0400*%
%ADD26C,0.0400*%
%ADD27C,0.0320*%
D10*
X012782Y003270D03*
X013782Y003270D03*
X014782Y003270D03*
X015782Y003270D03*
X016782Y003270D03*
X017782Y003270D03*
X018782Y003270D03*
X019782Y003270D03*
X020782Y003270D03*
X021782Y003270D03*
X022782Y003270D03*
X023782Y003270D03*
X024782Y003270D03*
X025782Y003270D03*
X026782Y003270D03*
X027782Y003270D03*
X028782Y003270D03*
X029782Y003270D03*
X030782Y003270D03*
X031782Y003270D03*
X031782Y004270D03*
X030782Y004270D03*
X029782Y004270D03*
X028782Y004270D03*
X027782Y004270D03*
X026782Y004270D03*
X025782Y004270D03*
X024782Y004270D03*
X023782Y004270D03*
X022782Y004270D03*
X021782Y004270D03*
X020782Y004270D03*
X019782Y004270D03*
X018782Y004270D03*
X017782Y004270D03*
X016782Y004270D03*
X015782Y004270D03*
X014782Y004270D03*
X013782Y004270D03*
X012782Y004270D03*
X016782Y006270D03*
X017782Y006270D03*
X018782Y006270D03*
X019782Y006270D03*
X020782Y006270D03*
X021782Y006270D03*
X022782Y006270D03*
X023782Y006270D03*
X024782Y006270D03*
X025782Y006270D03*
X026782Y006270D03*
X027782Y006270D03*
X028782Y006270D03*
X029782Y006270D03*
X030782Y006270D03*
X031782Y006270D03*
X031782Y007270D03*
X030782Y007270D03*
X029782Y007270D03*
X028782Y007270D03*
X027782Y007270D03*
X026782Y007270D03*
X025782Y007270D03*
X024782Y007270D03*
X023782Y007270D03*
X022782Y007270D03*
X021782Y007270D03*
X020782Y007270D03*
X019782Y007270D03*
X018782Y007270D03*
X017782Y007270D03*
X016782Y007270D03*
X015782Y007270D03*
X014782Y007270D03*
X013782Y007270D03*
X013782Y008270D03*
X014782Y008270D03*
X015782Y008270D03*
X016782Y008270D03*
X017782Y008270D03*
X018782Y008270D03*
X019782Y008270D03*
X020782Y008270D03*
X021782Y008270D03*
X022782Y008270D03*
X023782Y008270D03*
X024782Y008270D03*
X025782Y008270D03*
X026782Y008270D03*
X027782Y008270D03*
X028782Y008270D03*
X029782Y008270D03*
X030782Y008270D03*
X031782Y008270D03*
X031782Y009270D03*
X030782Y009270D03*
X029782Y009270D03*
X028782Y009270D03*
X027782Y009270D03*
X026782Y009270D03*
X025782Y009270D03*
X024782Y009270D03*
X023782Y009270D03*
X022782Y009270D03*
X021782Y009270D03*
X020782Y009270D03*
X019782Y009270D03*
X018782Y009270D03*
X017782Y009270D03*
X016782Y009270D03*
X015782Y009270D03*
X014782Y009270D03*
X013782Y009270D03*
X012782Y009270D03*
X012782Y010270D03*
X013782Y010270D03*
X014782Y010270D03*
X015782Y010270D03*
X016782Y010270D03*
X017782Y010270D03*
X018782Y010270D03*
X019782Y010270D03*
X020782Y010270D03*
X021782Y010270D03*
X022782Y010270D03*
X023782Y010270D03*
X024782Y010270D03*
X025782Y010270D03*
X026782Y010270D03*
X027782Y010270D03*
X028782Y010270D03*
X029782Y010270D03*
X030782Y010270D03*
X031782Y010270D03*
X031782Y011270D03*
X030782Y011270D03*
X029782Y011270D03*
X028782Y011270D03*
X027782Y011270D03*
X026782Y011270D03*
X025782Y011270D03*
X024782Y011270D03*
X023782Y011270D03*
X022782Y011270D03*
X021782Y011270D03*
X020782Y011270D03*
X019782Y011270D03*
X018782Y011270D03*
X017782Y011270D03*
X016782Y011270D03*
X015782Y011270D03*
X014782Y011270D03*
X013782Y011270D03*
X012782Y011270D03*
X012782Y012270D03*
X013782Y012270D03*
X014782Y012270D03*
X015782Y012270D03*
X016782Y012270D03*
X017782Y012270D03*
X018782Y012270D03*
X019782Y012270D03*
X020782Y012270D03*
X021782Y012270D03*
X022782Y012270D03*
X023782Y012270D03*
X024782Y012270D03*
X025782Y012270D03*
X026782Y012270D03*
X027782Y012270D03*
X028782Y012270D03*
X029782Y012270D03*
X030782Y012270D03*
X031782Y012270D03*
X031782Y013270D03*
X030782Y013270D03*
X029782Y013270D03*
X028782Y013270D03*
X027782Y013270D03*
X026782Y013270D03*
X025782Y013270D03*
X024782Y013270D03*
X023782Y013270D03*
X022782Y013270D03*
X021782Y013270D03*
X020782Y013270D03*
X019782Y013270D03*
X018782Y013270D03*
X017782Y013270D03*
X016782Y013270D03*
X015782Y013270D03*
X014782Y013270D03*
X013782Y013270D03*
X012782Y013270D03*
X012782Y014270D03*
X013782Y014270D03*
X014782Y014270D03*
X015782Y014270D03*
X016782Y014270D03*
X017782Y014270D03*
X018782Y014270D03*
X019782Y014270D03*
X020782Y014270D03*
X021782Y014270D03*
X022782Y014270D03*
X023782Y014270D03*
X024782Y014270D03*
X025782Y014270D03*
X026782Y014270D03*
X027782Y014270D03*
X028782Y014270D03*
X029782Y014270D03*
X030782Y014270D03*
X031782Y014270D03*
X030782Y015270D03*
X030782Y016270D03*
X031782Y016270D03*
X031782Y017270D03*
X030782Y017270D03*
X029782Y017270D03*
X028782Y017270D03*
X027782Y017270D03*
X026782Y017270D03*
X025782Y017270D03*
X025782Y016270D03*
X026782Y016270D03*
X027782Y016270D03*
X028782Y016270D03*
X029782Y016270D03*
X021782Y016270D03*
X020782Y016270D03*
X019782Y016270D03*
X018782Y016270D03*
X017782Y016270D03*
X016782Y016270D03*
X015782Y016270D03*
X014782Y016270D03*
X013782Y016270D03*
X012782Y016270D03*
X012782Y017270D03*
X013782Y017270D03*
X014782Y017270D03*
X015782Y017270D03*
X016782Y017270D03*
X017782Y017270D03*
X018782Y017270D03*
X019782Y017270D03*
X020782Y017270D03*
X021782Y017270D03*
X012782Y008270D03*
D11*
X011282Y016179D03*
X011282Y017360D03*
D12*
X009744Y014467D03*
X009744Y014270D03*
X009744Y014073D03*
X008828Y014073D03*
X008828Y014270D03*
X008828Y014467D03*
X008944Y005867D03*
X008944Y005670D03*
X008944Y005473D03*
X008028Y005473D03*
X008028Y005670D03*
X008028Y005867D03*
D13*
X008482Y005670D03*
X009282Y014270D03*
D14*
X009380Y014727D03*
X009183Y014727D03*
X008986Y014727D03*
X009577Y014727D03*
X009577Y013816D03*
X009380Y013816D03*
X009183Y013816D03*
X008986Y013816D03*
X008777Y006127D03*
X008580Y006127D03*
X008383Y006127D03*
X008186Y006127D03*
X008186Y005216D03*
X008383Y005216D03*
X008580Y005216D03*
X008777Y005216D03*
D15*
X007316Y005270D03*
X006647Y005270D03*
X006647Y006170D03*
X007316Y006170D03*
X008682Y012035D03*
X008682Y012705D03*
X008116Y013770D03*
X007447Y013770D03*
X007447Y014770D03*
X008116Y014770D03*
X024482Y016435D03*
X024482Y017105D03*
D16*
X005349Y007148D03*
X005349Y006164D03*
X005349Y005376D03*
X005349Y004392D03*
D17*
X004282Y003014D03*
X004282Y008357D03*
D18*
X006747Y008770D03*
X007416Y008770D03*
X006782Y007705D03*
X006782Y007035D03*
X008347Y007470D03*
X009016Y007470D03*
X006782Y004405D03*
X007847Y003870D03*
X008516Y003870D03*
X006782Y003735D03*
X007582Y010835D03*
X007582Y011505D03*
X007582Y012235D03*
X007582Y012905D03*
X009747Y012670D03*
X010416Y012670D03*
X010416Y011870D03*
X009747Y011870D03*
X007582Y015635D03*
X007582Y016305D03*
X008947Y016070D03*
X009616Y016070D03*
D19*
X006062Y014762D03*
X005282Y014762D03*
X005282Y013778D03*
X006062Y013778D03*
D20*
X004212Y011900D03*
X004212Y016640D03*
D21*
X010382Y002470D03*
D22*
X012782Y017270D02*
X013782Y017270D01*
X014782Y017270D01*
X018782Y017270D02*
X019782Y017270D01*
D23*
X012282Y013270D02*
X010182Y015370D01*
X010182Y016770D01*
X009882Y017070D01*
X008482Y017070D01*
X008282Y016870D01*
X008282Y015470D01*
X008682Y015070D01*
X008782Y015070D01*
X008986Y014865D01*
X008986Y014727D01*
X009183Y014727D02*
X009183Y014968D01*
X008982Y015170D01*
X008982Y015970D01*
X008882Y016070D01*
X008947Y016070D01*
X009582Y015970D02*
X009682Y016070D01*
X009616Y016070D01*
X009582Y015970D02*
X009582Y015370D01*
X009380Y015168D01*
X009380Y014727D01*
X009380Y014368D01*
X009282Y014270D01*
X009682Y014470D02*
X010482Y014470D01*
X011682Y013270D01*
X011682Y007370D01*
X013082Y005970D01*
X014982Y005970D01*
X016282Y004670D01*
X016282Y003770D01*
X016782Y003270D01*
X015282Y003770D02*
X015282Y004870D01*
X014782Y005370D01*
X012582Y005370D01*
X011182Y006770D01*
X011182Y013170D01*
X010782Y013570D01*
X009682Y013570D01*
X009577Y013675D01*
X009577Y013816D01*
X009380Y013816D02*
X009380Y013868D01*
X009382Y013870D01*
X009382Y013570D01*
X009582Y013370D01*
X010682Y013370D01*
X010882Y013170D01*
X010882Y011170D01*
X010547Y010835D01*
X007582Y010835D01*
X007582Y011505D02*
X007716Y011505D01*
X008182Y011970D01*
X008182Y012770D01*
X008082Y012870D01*
X007582Y012870D01*
X007582Y012905D01*
X007582Y013270D01*
X007447Y013405D01*
X007447Y013770D01*
X006782Y013770D01*
X006282Y014270D01*
X005782Y014270D01*
X005282Y014770D01*
X005282Y014762D01*
X006062Y014762D02*
X006082Y014762D01*
X006082Y014770D01*
X007447Y014770D01*
X007482Y014770D01*
X007482Y015270D01*
X007582Y015370D01*
X007582Y015635D01*
X008116Y014770D02*
X008282Y014770D01*
X008582Y014470D01*
X008882Y014470D01*
X008879Y014467D01*
X008828Y014467D01*
X008828Y014270D02*
X008582Y014270D01*
X008116Y013805D01*
X008116Y013770D01*
X008682Y013470D02*
X008682Y012705D01*
X008682Y012670D01*
X009182Y013170D02*
X009183Y013171D01*
X009183Y013816D01*
X008986Y013816D02*
X008986Y013675D01*
X008882Y013570D01*
X008782Y013570D01*
X008682Y013470D01*
X009744Y014073D02*
X009779Y014073D01*
X009782Y014070D01*
X010582Y014070D01*
X011382Y013270D01*
X011382Y007170D01*
X012882Y005670D01*
X014882Y005670D01*
X015782Y004770D01*
X015782Y004270D01*
X015282Y003770D02*
X014782Y003270D01*
X014782Y004270D02*
X014882Y004270D01*
X014082Y005070D01*
X011982Y005070D01*
X010782Y006270D01*
X008782Y006270D01*
X008777Y006265D01*
X008777Y006127D01*
X008580Y006127D02*
X008580Y006368D01*
X008982Y006770D01*
X008982Y007470D01*
X009016Y007470D01*
X008383Y007468D02*
X008382Y007470D01*
X008347Y007470D01*
X008383Y007468D02*
X008383Y006127D01*
X008580Y006127D02*
X008580Y005768D01*
X008482Y005670D01*
X008028Y005670D02*
X007882Y005670D01*
X007482Y005270D01*
X007316Y005270D01*
X006647Y005270D02*
X006647Y005305D01*
X006647Y005270D02*
X006582Y005270D01*
X006475Y005376D01*
X005349Y005376D01*
X005349Y006164D02*
X006675Y006164D01*
X006682Y006170D01*
X006682Y006570D01*
X006782Y006670D01*
X006782Y007035D01*
X006682Y006170D02*
X006647Y006170D01*
X007316Y006170D02*
X007582Y006170D01*
X007885Y005867D01*
X008028Y005867D01*
X008182Y005270D02*
X008182Y004870D01*
X007847Y004535D01*
X007847Y003870D01*
X006782Y004405D02*
X006782Y004670D01*
X006582Y004870D01*
X006582Y005370D01*
X008182Y005270D02*
X008186Y005265D01*
X008186Y005216D01*
X008944Y005473D02*
X010579Y005473D01*
X011782Y004270D01*
X012782Y004270D01*
X013282Y004770D02*
X011782Y004770D01*
X010685Y005867D01*
X008944Y005867D01*
X011982Y007570D02*
X011982Y013270D01*
X010482Y014770D01*
X010182Y014770D01*
X009982Y014970D01*
X009682Y014970D01*
X009577Y014865D01*
X009577Y014727D01*
X009682Y014470D02*
X009685Y014467D01*
X009744Y014467D01*
X009779Y014467D01*
X009782Y014470D01*
X008882Y014270D02*
X008828Y014270D01*
X012282Y013270D02*
X012282Y007670D01*
X013382Y006570D01*
X015082Y006570D01*
X016682Y004970D01*
X017882Y004970D01*
X018282Y004570D01*
X018282Y003770D01*
X018782Y003270D01*
X016782Y004270D02*
X016782Y004570D01*
X015082Y006270D01*
X013282Y006270D01*
X011982Y007570D01*
X013282Y004770D02*
X013782Y004270D01*
D24*
X003342Y001830D02*
X003342Y018710D01*
X006656Y018710D01*
X005616Y017670D01*
X005382Y017436D01*
X005382Y016036D01*
X005216Y015870D01*
X004616Y015870D01*
X004382Y015636D01*
X004316Y015570D01*
X004082Y015336D01*
X004082Y013436D01*
X004082Y013104D01*
X004475Y012711D01*
X004381Y012750D01*
X004043Y012750D01*
X003730Y012620D01*
X003491Y012381D01*
X003362Y012069D01*
X003362Y011731D01*
X003491Y011418D01*
X003730Y011179D01*
X004043Y011050D01*
X004381Y011050D01*
X004693Y011179D01*
X004932Y011418D01*
X004982Y011538D01*
X004982Y008936D01*
X004982Y008862D01*
X004765Y009079D01*
X004451Y009209D01*
X004112Y009209D01*
X003799Y009079D01*
X003559Y008840D01*
X003429Y008526D01*
X003429Y008187D01*
X003559Y007873D01*
X003799Y007634D01*
X004112Y007504D01*
X004451Y007504D01*
X004765Y007634D01*
X004982Y007851D01*
X004982Y007470D01*
X004936Y007424D01*
X004862Y007245D01*
X004862Y007051D01*
X004936Y006872D01*
X005073Y006735D01*
X005252Y006661D01*
X005446Y006661D01*
X005624Y006735D01*
X005761Y006872D01*
X005836Y007051D01*
X005836Y007245D01*
X005782Y007375D01*
X005782Y008370D01*
X006913Y008370D01*
X006916Y008373D01*
X007046Y008373D01*
X007082Y008408D01*
X007117Y008373D01*
X007716Y008373D01*
X007833Y008490D01*
X007896Y008490D01*
X007955Y008431D01*
X008102Y008370D01*
X008261Y008370D01*
X008408Y008431D01*
X008521Y008543D01*
X008582Y008690D01*
X008582Y008849D01*
X008521Y008996D01*
X008408Y009109D01*
X008261Y009170D01*
X008102Y009170D01*
X007955Y009109D01*
X007896Y009050D01*
X007833Y009050D01*
X007716Y009167D01*
X007117Y009167D01*
X007082Y009131D01*
X007046Y009167D01*
X006916Y009167D01*
X006913Y009170D01*
X005782Y009170D01*
X005782Y012204D01*
X005782Y012536D01*
X004882Y013436D01*
X004882Y013499D01*
X005010Y013371D01*
X005186Y013298D01*
X005377Y013298D01*
X005554Y013371D01*
X005672Y013489D01*
X005790Y013371D01*
X005966Y013298D01*
X006157Y013298D01*
X006334Y013371D01*
X006469Y013506D01*
X006538Y013674D01*
X006682Y013530D01*
X006881Y013530D01*
X007050Y013530D01*
X007050Y013471D01*
X007167Y013353D01*
X007207Y013353D01*
X007207Y013305D01*
X007247Y013266D01*
X007165Y013184D01*
X007165Y012625D01*
X007220Y012570D01*
X007184Y012534D01*
X007108Y012609D01*
X006961Y012670D01*
X006802Y012670D01*
X006655Y012609D01*
X006543Y012496D01*
X006482Y012349D01*
X006482Y012190D01*
X006543Y012043D01*
X006655Y011931D01*
X006802Y011870D01*
X006961Y011870D01*
X007108Y011931D01*
X007133Y011955D01*
X007166Y011955D01*
X007251Y011870D01*
X007165Y011784D01*
X007165Y011225D01*
X007220Y011170D01*
X007165Y011115D01*
X007165Y010556D01*
X007282Y010438D01*
X007881Y010438D01*
X007998Y010556D01*
X007998Y010595D01*
X010448Y010595D01*
X010646Y010595D01*
X010942Y010891D01*
X010942Y006671D01*
X011082Y006530D01*
X012302Y005310D01*
X012081Y005310D01*
X010881Y006510D01*
X010682Y006510D01*
X009287Y006510D01*
X009321Y006543D01*
X009382Y006690D01*
X009382Y006849D01*
X009321Y006996D01*
X009244Y007073D01*
X009316Y007073D01*
X009433Y007190D01*
X009433Y007750D01*
X009316Y007867D01*
X008717Y007867D01*
X008668Y007817D01*
X008638Y007847D01*
X008366Y007847D01*
X008366Y007489D01*
X008329Y007489D01*
X008329Y007847D01*
X008056Y007847D01*
X007975Y007766D01*
X007921Y007896D01*
X007808Y008009D01*
X007661Y008070D01*
X007502Y008070D01*
X007355Y008009D01*
X007331Y007985D01*
X007198Y007985D01*
X007081Y008101D01*
X006482Y008101D01*
X006365Y007984D01*
X006365Y007425D01*
X006420Y007370D01*
X006365Y007315D01*
X006365Y006756D01*
X006447Y006674D01*
X006442Y006669D01*
X006442Y006586D01*
X006367Y006586D01*
X006250Y006469D01*
X006250Y006404D01*
X005776Y006404D01*
X005761Y006439D01*
X005624Y006576D01*
X005446Y006651D01*
X005252Y006651D01*
X005073Y006576D01*
X004936Y006439D01*
X004862Y006260D01*
X004862Y006067D01*
X004936Y005888D01*
X005054Y005770D01*
X004936Y005652D01*
X004862Y005473D01*
X004862Y005279D01*
X004936Y005100D01*
X005073Y004963D01*
X005252Y004889D01*
X005446Y004889D01*
X005624Y004963D01*
X005761Y005100D01*
X005776Y005136D01*
X006250Y005136D01*
X006250Y004971D01*
X006342Y004879D01*
X006342Y004771D01*
X006397Y004716D01*
X006365Y004684D01*
X006365Y004125D01*
X006420Y004070D01*
X006365Y004015D01*
X006365Y003456D01*
X006482Y003338D01*
X006485Y003338D01*
X006443Y003296D01*
X006382Y003149D01*
X006382Y002990D01*
X006443Y002843D01*
X006555Y002731D01*
X006702Y002670D01*
X006861Y002670D01*
X007008Y002731D01*
X007121Y002843D01*
X007182Y002990D01*
X007182Y003149D01*
X007121Y003296D01*
X007079Y003338D01*
X007081Y003338D01*
X007198Y003456D01*
X007198Y004015D01*
X007143Y004070D01*
X007198Y004125D01*
X007198Y004684D01*
X007081Y004801D01*
X006990Y004801D01*
X006932Y004859D01*
X006982Y004908D01*
X007037Y004853D01*
X007596Y004853D01*
X007713Y004971D01*
X007713Y005162D01*
X007820Y005269D01*
X007866Y005223D01*
X007956Y005223D01*
X007956Y005216D01*
X007956Y005063D01*
X008062Y004957D01*
X008186Y004957D01*
X008186Y005030D01*
X008187Y005030D01*
X008187Y004957D01*
X008259Y004957D01*
X008383Y004957D01*
X008383Y005002D01*
X008383Y005001D01*
X008383Y004957D01*
X008427Y004957D01*
X008447Y004937D01*
X008644Y004937D01*
X008910Y004937D01*
X009027Y005055D01*
X009027Y005223D01*
X009106Y005223D01*
X009116Y005233D01*
X010479Y005233D01*
X011542Y004171D01*
X011682Y004030D01*
X012340Y004030D01*
X012358Y003987D01*
X012499Y003846D01*
X012682Y003770D01*
X012499Y003694D01*
X012358Y003553D01*
X012282Y003369D01*
X012282Y003170D01*
X012358Y002987D01*
X012499Y002846D01*
X012682Y002770D01*
X012881Y002770D01*
X013065Y002846D01*
X013206Y002987D01*
X013282Y003170D01*
X013282Y003369D01*
X013358Y003553D01*
X013499Y003694D01*
X013682Y003770D01*
X013881Y003770D01*
X014065Y003694D01*
X014206Y003553D01*
X014282Y003369D01*
X014282Y003170D01*
X014282Y003369D01*
X014358Y003553D01*
X014499Y003694D01*
X014682Y003770D01*
X014881Y003770D01*
X014924Y003752D01*
X014986Y003813D01*
X014881Y003770D01*
X014682Y003770D01*
X014499Y003846D01*
X014358Y003987D01*
X014282Y004170D01*
X014282Y004369D01*
X014329Y004483D01*
X013982Y004830D01*
X013561Y004830D01*
X013639Y004752D01*
X013682Y004770D01*
X013881Y004770D01*
X014065Y004694D01*
X014206Y004553D01*
X014282Y004369D01*
X014282Y004170D01*
X014206Y003987D01*
X014065Y003846D01*
X013881Y003770D01*
X013682Y003770D01*
X013499Y003846D01*
X013358Y003987D01*
X013282Y004170D01*
X013282Y004369D01*
X013300Y004413D01*
X013238Y004474D01*
X013282Y004369D01*
X013282Y004170D01*
X013206Y003987D01*
X013065Y003846D01*
X012881Y003770D01*
X012682Y003770D01*
X012881Y003770D01*
X013065Y003694D01*
X013206Y003553D01*
X013282Y003369D01*
X013282Y003170D01*
X013358Y002987D01*
X013499Y002846D01*
X013682Y002770D01*
X013881Y002770D01*
X014065Y002846D01*
X014206Y002987D01*
X014282Y003170D01*
X014358Y002987D01*
X014499Y002846D01*
X014682Y002770D01*
X014881Y002770D01*
X015065Y002846D01*
X015206Y002987D01*
X015282Y003170D01*
X015358Y002987D01*
X015499Y002846D01*
X015682Y002770D01*
X015881Y002770D01*
X016065Y002846D01*
X016206Y002987D01*
X016282Y003170D01*
X016358Y002987D01*
X016499Y002846D01*
X016682Y002770D01*
X016881Y002770D01*
X017065Y002846D01*
X017206Y002987D01*
X017282Y003170D01*
X017282Y003369D01*
X017282Y003170D01*
X017358Y002987D01*
X017499Y002846D01*
X017682Y002770D01*
X017881Y002770D01*
X018065Y002846D01*
X018206Y002987D01*
X018282Y003170D01*
X018358Y002987D01*
X018499Y002846D01*
X018682Y002770D01*
X018881Y002770D01*
X019065Y002846D01*
X019206Y002987D01*
X019282Y003170D01*
X019358Y002987D01*
X019499Y002846D01*
X019682Y002770D01*
X019881Y002770D01*
X020065Y002846D01*
X020206Y002987D01*
X020282Y003170D01*
X020282Y003369D01*
X020358Y003553D01*
X020499Y003694D01*
X020682Y003770D01*
X020881Y003770D01*
X021065Y003846D01*
X021206Y003987D01*
X021282Y004170D01*
X021282Y004369D01*
X021358Y004553D01*
X021499Y004694D01*
X021682Y004770D01*
X021881Y004770D01*
X022065Y004694D01*
X022206Y004553D01*
X022282Y004369D01*
X022358Y004553D01*
X022499Y004694D01*
X022682Y004770D01*
X022881Y004770D01*
X023065Y004694D01*
X023206Y004553D01*
X023282Y004369D01*
X023358Y004553D01*
X023499Y004694D01*
X023682Y004770D01*
X023881Y004770D01*
X024065Y004694D01*
X024206Y004553D01*
X024282Y004369D01*
X024358Y004553D01*
X024499Y004694D01*
X024682Y004770D01*
X024881Y004770D01*
X025065Y004694D01*
X025206Y004553D01*
X025282Y004369D01*
X025358Y004553D01*
X025499Y004694D01*
X025682Y004770D01*
X025881Y004770D01*
X026065Y004694D01*
X026206Y004553D01*
X026282Y004369D01*
X026358Y004553D01*
X026499Y004694D01*
X026682Y004770D01*
X026881Y004770D01*
X027065Y004694D01*
X027206Y004553D01*
X027282Y004369D01*
X027358Y004553D01*
X027499Y004694D01*
X027682Y004770D01*
X027881Y004770D01*
X028065Y004694D01*
X028206Y004553D01*
X028282Y004369D01*
X028358Y004553D01*
X028499Y004694D01*
X028682Y004770D01*
X028881Y004770D01*
X029065Y004694D01*
X029206Y004553D01*
X029282Y004369D01*
X029358Y004553D01*
X029499Y004694D01*
X029682Y004770D01*
X029881Y004770D01*
X030065Y004694D01*
X030206Y004553D01*
X030282Y004369D01*
X030358Y004553D01*
X030499Y004694D01*
X030682Y004770D01*
X030881Y004770D01*
X031065Y004694D01*
X031206Y004553D01*
X031282Y004369D01*
X031282Y004170D01*
X031282Y004369D01*
X031358Y004553D01*
X031499Y004694D01*
X031682Y004770D01*
X031881Y004770D01*
X032065Y004694D01*
X032206Y004553D01*
X032222Y004514D01*
X032222Y006026D01*
X032206Y005987D01*
X032065Y005846D01*
X031881Y005770D01*
X031682Y005770D01*
X031499Y005846D01*
X031358Y005987D01*
X031282Y006170D01*
X031282Y006369D01*
X031282Y006170D01*
X031206Y005987D01*
X031065Y005846D01*
X030881Y005770D01*
X030682Y005770D01*
X030499Y005846D01*
X030358Y005987D01*
X030282Y006170D01*
X030282Y006369D01*
X030358Y006553D01*
X030499Y006694D01*
X030682Y006770D01*
X030881Y006770D01*
X031065Y006694D01*
X031206Y006553D01*
X031282Y006369D01*
X031358Y006553D01*
X031499Y006694D01*
X031682Y006770D01*
X031881Y006770D01*
X032065Y006694D01*
X032206Y006553D01*
X032222Y006514D01*
X032222Y007026D01*
X032206Y006987D01*
X032065Y006846D01*
X031881Y006770D01*
X031682Y006770D01*
X031499Y006846D01*
X031358Y006987D01*
X031282Y007170D01*
X031282Y007369D01*
X031282Y007170D01*
X031206Y006987D01*
X031065Y006846D01*
X030881Y006770D01*
X030682Y006770D01*
X030499Y006846D01*
X030358Y006987D01*
X030282Y007170D01*
X030282Y007369D01*
X030358Y007553D01*
X030499Y007694D01*
X030682Y007770D01*
X030881Y007770D01*
X031065Y007694D01*
X031206Y007553D01*
X031282Y007369D01*
X031358Y007553D01*
X031499Y007694D01*
X031682Y007770D01*
X031881Y007770D01*
X032065Y007694D01*
X032206Y007553D01*
X032222Y007514D01*
X032222Y008026D01*
X032206Y007987D01*
X032065Y007846D01*
X031881Y007770D01*
X031682Y007770D01*
X031499Y007846D01*
X031358Y007987D01*
X031282Y008170D01*
X031282Y008369D01*
X031282Y008170D01*
X031206Y007987D01*
X031065Y007846D01*
X030881Y007770D01*
X030682Y007770D01*
X030499Y007846D01*
X030358Y007987D01*
X030282Y008170D01*
X030282Y008369D01*
X030358Y008553D01*
X030499Y008694D01*
X030682Y008770D01*
X030881Y008770D01*
X031065Y008694D01*
X031206Y008553D01*
X031282Y008369D01*
X031358Y008553D01*
X031499Y008694D01*
X031682Y008770D01*
X031881Y008770D01*
X032065Y008694D01*
X032206Y008553D01*
X032222Y008514D01*
X032222Y009026D01*
X032206Y008987D01*
X032065Y008846D01*
X031881Y008770D01*
X031682Y008770D01*
X031499Y008846D01*
X031358Y008987D01*
X031282Y009170D01*
X031282Y009369D01*
X031282Y009170D01*
X031206Y008987D01*
X031065Y008846D01*
X030881Y008770D01*
X030682Y008770D01*
X030499Y008846D01*
X030358Y008987D01*
X030282Y009170D01*
X030282Y009369D01*
X030358Y009553D01*
X030499Y009694D01*
X030682Y009770D01*
X030881Y009770D01*
X031065Y009694D01*
X031206Y009553D01*
X031282Y009369D01*
X031358Y009553D01*
X031499Y009694D01*
X031682Y009770D01*
X031881Y009770D01*
X032065Y009694D01*
X032206Y009553D01*
X032222Y009514D01*
X032222Y010026D01*
X032206Y009987D01*
X032065Y009846D01*
X031881Y009770D01*
X031682Y009770D01*
X031499Y009846D01*
X031358Y009987D01*
X031282Y010170D01*
X031282Y010369D01*
X031282Y010170D01*
X031206Y009987D01*
X031065Y009846D01*
X030881Y009770D01*
X030682Y009770D01*
X030499Y009846D01*
X030358Y009987D01*
X030282Y010170D01*
X030282Y010369D01*
X030358Y010553D01*
X030499Y010694D01*
X030682Y010770D01*
X030881Y010770D01*
X031065Y010694D01*
X031206Y010553D01*
X031282Y010369D01*
X031358Y010553D01*
X031499Y010694D01*
X031682Y010770D01*
X031881Y010770D01*
X032065Y010694D01*
X032206Y010553D01*
X032222Y010514D01*
X032222Y011026D01*
X032206Y010987D01*
X032065Y010846D01*
X031881Y010770D01*
X031682Y010770D01*
X031499Y010846D01*
X031358Y010987D01*
X031282Y011170D01*
X031282Y011369D01*
X031282Y011170D01*
X031206Y010987D01*
X031065Y010846D01*
X030881Y010770D01*
X030682Y010770D01*
X030499Y010846D01*
X030358Y010987D01*
X030282Y011170D01*
X030282Y011369D01*
X030358Y011553D01*
X030499Y011694D01*
X030682Y011770D01*
X030881Y011770D01*
X031065Y011694D01*
X031206Y011553D01*
X031282Y011369D01*
X031358Y011553D01*
X031499Y011694D01*
X031682Y011770D01*
X031881Y011770D01*
X032065Y011694D01*
X032206Y011553D01*
X032222Y011514D01*
X032222Y012026D01*
X032206Y011987D01*
X032065Y011846D01*
X031881Y011770D01*
X031682Y011770D01*
X031499Y011846D01*
X031358Y011987D01*
X031282Y012170D01*
X031282Y012369D01*
X031282Y012170D01*
X031206Y011987D01*
X031065Y011846D01*
X030881Y011770D01*
X030682Y011770D01*
X030499Y011846D01*
X030358Y011987D01*
X030282Y012170D01*
X030282Y012369D01*
X030358Y012553D01*
X030499Y012694D01*
X030682Y012770D01*
X030881Y012770D01*
X031065Y012694D01*
X031206Y012553D01*
X031282Y012369D01*
X031358Y012553D01*
X031499Y012694D01*
X031682Y012770D01*
X031881Y012770D01*
X032065Y012694D01*
X032206Y012553D01*
X032222Y012514D01*
X032222Y013026D01*
X032206Y012987D01*
X032065Y012846D01*
X031881Y012770D01*
X031682Y012770D01*
X031499Y012846D01*
X031358Y012987D01*
X031282Y013170D01*
X031282Y013369D01*
X031282Y013170D01*
X031206Y012987D01*
X031065Y012846D01*
X030881Y012770D01*
X030682Y012770D01*
X030499Y012846D01*
X030358Y012987D01*
X030282Y013170D01*
X030282Y013369D01*
X030358Y013553D01*
X030499Y013694D01*
X030682Y013770D01*
X030881Y013770D01*
X031065Y013694D01*
X031206Y013553D01*
X031282Y013369D01*
X031358Y013553D01*
X031499Y013694D01*
X031682Y013770D01*
X031881Y013770D01*
X032065Y013694D01*
X032206Y013553D01*
X032222Y013514D01*
X032222Y014026D01*
X032206Y013987D01*
X032065Y013846D01*
X031881Y013770D01*
X031682Y013770D01*
X031499Y013846D01*
X031358Y013987D01*
X031282Y014170D01*
X031282Y014369D01*
X031282Y014170D01*
X031206Y013987D01*
X031065Y013846D01*
X030881Y013770D01*
X030682Y013770D01*
X030499Y013846D01*
X030358Y013987D01*
X030282Y014170D01*
X030282Y014369D01*
X030358Y014553D01*
X030499Y014694D01*
X030682Y014770D01*
X030881Y014770D01*
X031065Y014694D01*
X031206Y014553D01*
X031282Y014369D01*
X031358Y014553D01*
X031499Y014694D01*
X031682Y014770D01*
X031881Y014770D01*
X032065Y014694D01*
X032206Y014553D01*
X032222Y014514D01*
X032222Y016026D01*
X032206Y015987D01*
X032065Y015846D01*
X031881Y015770D01*
X031682Y015770D01*
X031499Y015846D01*
X031358Y015987D01*
X031282Y016170D01*
X031282Y016369D01*
X031282Y016170D01*
X031206Y015987D01*
X031065Y015846D01*
X030881Y015770D01*
X030682Y015770D01*
X030499Y015846D01*
X030358Y015987D01*
X030282Y016170D01*
X030282Y016369D01*
X030358Y016553D01*
X030499Y016694D01*
X030682Y016770D01*
X030881Y016770D01*
X031065Y016694D01*
X031206Y016553D01*
X031282Y016369D01*
X031358Y016553D01*
X031499Y016694D01*
X031682Y016770D01*
X031881Y016770D01*
X032065Y016694D01*
X032206Y016553D01*
X032222Y016514D01*
X032222Y017026D01*
X032206Y016987D01*
X032065Y016846D01*
X031881Y016770D01*
X031682Y016770D01*
X031499Y016846D01*
X031358Y016987D01*
X031282Y017170D01*
X031282Y017369D01*
X031282Y017170D01*
X031206Y016987D01*
X031065Y016846D01*
X030881Y016770D01*
X030682Y016770D01*
X030499Y016846D01*
X030358Y016987D01*
X030282Y017170D01*
X030282Y017369D01*
X030358Y017553D01*
X030499Y017694D01*
X030682Y017770D01*
X030881Y017770D01*
X031065Y017694D01*
X031206Y017553D01*
X031282Y017369D01*
X031358Y017553D01*
X031499Y017694D01*
X031682Y017770D01*
X031881Y017770D01*
X032065Y017694D01*
X032206Y017553D01*
X032222Y017514D01*
X032222Y018710D01*
X023907Y018710D01*
X024082Y018536D01*
X024082Y016836D01*
X024082Y016835D01*
X024085Y016835D01*
X024085Y017404D01*
X024183Y017503D01*
X024143Y017543D01*
X024082Y017690D01*
X024082Y017849D01*
X024143Y017996D01*
X024255Y018109D01*
X024402Y018170D01*
X024561Y018170D01*
X024708Y018109D01*
X024821Y017996D01*
X024882Y017849D01*
X024882Y017690D01*
X024821Y017543D01*
X024780Y017503D01*
X024879Y017404D01*
X024879Y016805D01*
X024843Y016770D01*
X024879Y016735D01*
X024879Y016604D01*
X024882Y016601D01*
X024882Y016270D01*
X024882Y015936D01*
X025147Y015670D01*
X030475Y015670D01*
X030499Y015694D01*
X030682Y015770D01*
X030881Y015770D01*
X031065Y015694D01*
X031206Y015553D01*
X031282Y015369D01*
X031282Y015170D01*
X031206Y014987D01*
X031065Y014846D01*
X030881Y014770D01*
X030682Y014770D01*
X030499Y014846D01*
X030475Y014870D01*
X025147Y014870D01*
X024816Y014870D01*
X024316Y015370D01*
X024082Y015604D01*
X024082Y016035D01*
X023751Y016035D01*
X023282Y016504D01*
X023282Y016836D01*
X023282Y018170D01*
X007247Y018170D01*
X006182Y017104D01*
X006182Y015704D01*
X005947Y015470D01*
X005600Y015123D01*
X005672Y015051D01*
X005790Y015169D01*
X005966Y015242D01*
X006157Y015242D01*
X006334Y015169D01*
X006469Y015034D01*
X006479Y015010D01*
X007050Y015010D01*
X007050Y015069D01*
X007167Y015186D01*
X007242Y015186D01*
X007242Y015279D01*
X007165Y015356D01*
X007165Y015915D01*
X007220Y015970D01*
X007165Y016025D01*
X007165Y016584D01*
X007282Y016701D01*
X007285Y016701D01*
X007243Y016743D01*
X007182Y016890D01*
X007182Y017049D01*
X007243Y017196D01*
X007355Y017309D01*
X007502Y017370D01*
X007661Y017370D01*
X007808Y017309D01*
X007921Y017196D01*
X007982Y017049D01*
X007982Y016890D01*
X007921Y016743D01*
X007879Y016701D01*
X007881Y016701D01*
X007998Y016584D01*
X007998Y016025D01*
X007943Y015970D01*
X007998Y015915D01*
X007998Y015356D01*
X007881Y015238D01*
X007790Y015238D01*
X007732Y015181D01*
X007782Y015131D01*
X007837Y015186D01*
X008226Y015186D01*
X008042Y015371D01*
X008042Y015569D01*
X008042Y016969D01*
X008182Y017110D01*
X008382Y017310D01*
X008581Y017310D01*
X009981Y017310D01*
X010122Y017169D01*
X010422Y016869D01*
X010422Y016671D01*
X010422Y015469D01*
X012352Y013539D01*
X012358Y013553D01*
X012499Y013694D01*
X012682Y013770D01*
X012881Y013770D01*
X013065Y013846D01*
X013206Y013987D01*
X013282Y014170D01*
X013282Y014369D01*
X013358Y014553D01*
X013499Y014694D01*
X013682Y014770D01*
X013881Y014770D01*
X014065Y014694D01*
X014206Y014553D01*
X014282Y014369D01*
X014358Y014553D01*
X014499Y014694D01*
X014682Y014770D01*
X014881Y014770D01*
X015065Y014694D01*
X015206Y014553D01*
X015282Y014369D01*
X015358Y014553D01*
X015499Y014694D01*
X015682Y014770D01*
X015881Y014770D01*
X016065Y014694D01*
X016206Y014553D01*
X016282Y014369D01*
X016358Y014553D01*
X016499Y014694D01*
X016682Y014770D01*
X016881Y014770D01*
X017065Y014694D01*
X017206Y014553D01*
X017282Y014369D01*
X017358Y014553D01*
X017499Y014694D01*
X017682Y014770D01*
X017881Y014770D01*
X018065Y014694D01*
X018206Y014553D01*
X018282Y014369D01*
X018358Y014553D01*
X018499Y014694D01*
X018682Y014770D01*
X018881Y014770D01*
X019065Y014694D01*
X019206Y014553D01*
X019282Y014369D01*
X019358Y014553D01*
X019499Y014694D01*
X019682Y014770D01*
X019881Y014770D01*
X020065Y014694D01*
X020206Y014553D01*
X020282Y014369D01*
X020358Y014553D01*
X020499Y014694D01*
X020682Y014770D01*
X020881Y014770D01*
X021065Y014694D01*
X021206Y014553D01*
X021282Y014369D01*
X021358Y014553D01*
X021499Y014694D01*
X021682Y014770D01*
X021881Y014770D01*
X022065Y014694D01*
X022206Y014553D01*
X022282Y014369D01*
X022358Y014553D01*
X022499Y014694D01*
X022682Y014770D01*
X022881Y014770D01*
X023065Y014694D01*
X023206Y014553D01*
X023282Y014369D01*
X023358Y014553D01*
X023499Y014694D01*
X023682Y014770D01*
X023881Y014770D01*
X024065Y014694D01*
X024206Y014553D01*
X024282Y014369D01*
X024358Y014553D01*
X024499Y014694D01*
X024682Y014770D01*
X024881Y014770D01*
X025065Y014694D01*
X025206Y014553D01*
X025282Y014369D01*
X025358Y014553D01*
X025499Y014694D01*
X025682Y014770D01*
X025881Y014770D01*
X026065Y014694D01*
X026206Y014553D01*
X026282Y014369D01*
X026358Y014553D01*
X026499Y014694D01*
X026682Y014770D01*
X026881Y014770D01*
X027065Y014694D01*
X027206Y014553D01*
X027282Y014369D01*
X027358Y014553D01*
X027499Y014694D01*
X027682Y014770D01*
X027881Y014770D01*
X028065Y014694D01*
X028206Y014553D01*
X028282Y014369D01*
X028358Y014553D01*
X028499Y014694D01*
X028682Y014770D01*
X028881Y014770D01*
X029065Y014694D01*
X029206Y014553D01*
X029282Y014369D01*
X029358Y014553D01*
X029499Y014694D01*
X029682Y014770D01*
X029881Y014770D01*
X030065Y014694D01*
X030206Y014553D01*
X030282Y014369D01*
X030282Y014170D01*
X030206Y013987D01*
X030065Y013846D01*
X029881Y013770D01*
X029682Y013770D01*
X029499Y013846D01*
X029358Y013987D01*
X029282Y014170D01*
X029282Y014369D01*
X029282Y014170D01*
X029206Y013987D01*
X029065Y013846D01*
X028881Y013770D01*
X028682Y013770D01*
X028499Y013694D01*
X028358Y013553D01*
X028282Y013369D01*
X028282Y013170D01*
X028358Y012987D01*
X028499Y012846D01*
X028682Y012770D01*
X028499Y012694D01*
X028358Y012553D01*
X028282Y012369D01*
X028282Y012170D01*
X028358Y011987D01*
X028499Y011846D01*
X028682Y011770D01*
X028499Y011694D01*
X028358Y011553D01*
X028282Y011369D01*
X028282Y011170D01*
X028358Y010987D01*
X028499Y010846D01*
X028682Y010770D01*
X028499Y010694D01*
X028358Y010553D01*
X028282Y010369D01*
X028282Y010170D01*
X028358Y009987D01*
X028499Y009846D01*
X028682Y009770D01*
X028499Y009694D01*
X028358Y009553D01*
X028282Y009369D01*
X028282Y009170D01*
X028358Y008987D01*
X028499Y008846D01*
X028682Y008770D01*
X028499Y008694D01*
X028358Y008553D01*
X028282Y008369D01*
X028282Y008170D01*
X028358Y007987D01*
X028499Y007846D01*
X028682Y007770D01*
X028499Y007694D01*
X028358Y007553D01*
X028282Y007369D01*
X028282Y007170D01*
X028358Y006987D01*
X028499Y006846D01*
X028682Y006770D01*
X028499Y006694D01*
X028358Y006553D01*
X028282Y006369D01*
X028282Y006170D01*
X028358Y005987D01*
X028499Y005846D01*
X028682Y005770D01*
X028881Y005770D01*
X029065Y005846D01*
X029206Y005987D01*
X029282Y006170D01*
X029358Y005987D01*
X029499Y005846D01*
X029682Y005770D01*
X029881Y005770D01*
X030065Y005846D01*
X030206Y005987D01*
X030282Y006170D01*
X030282Y006369D01*
X030206Y006553D01*
X030065Y006694D01*
X029881Y006770D01*
X030065Y006846D01*
X030206Y006987D01*
X030282Y007170D01*
X030282Y007369D01*
X030206Y007553D01*
X030065Y007694D01*
X029881Y007770D01*
X030065Y007846D01*
X030206Y007987D01*
X030282Y008170D01*
X030282Y008369D01*
X030206Y008553D01*
X030065Y008694D01*
X029881Y008770D01*
X030065Y008846D01*
X030206Y008987D01*
X030282Y009170D01*
X030282Y009369D01*
X030206Y009553D01*
X030065Y009694D01*
X029881Y009770D01*
X030065Y009846D01*
X030206Y009987D01*
X030282Y010170D01*
X030282Y010369D01*
X030206Y010553D01*
X030065Y010694D01*
X029881Y010770D01*
X030065Y010846D01*
X030206Y010987D01*
X030282Y011170D01*
X030282Y011369D01*
X030206Y011553D01*
X030065Y011694D01*
X029881Y011770D01*
X030065Y011846D01*
X030206Y011987D01*
X030282Y012170D01*
X030282Y012369D01*
X030206Y012553D01*
X030065Y012694D01*
X029881Y012770D01*
X030065Y012846D01*
X030206Y012987D01*
X030282Y013170D01*
X030282Y013369D01*
X030206Y013553D01*
X030065Y013694D01*
X029881Y013770D01*
X029682Y013770D01*
X029499Y013694D01*
X029358Y013553D01*
X029282Y013369D01*
X029282Y013170D01*
X029358Y012987D01*
X029499Y012846D01*
X029682Y012770D01*
X029881Y012770D01*
X029682Y012770D01*
X029499Y012694D01*
X029358Y012553D01*
X029282Y012369D01*
X029282Y012170D01*
X029358Y011987D01*
X029499Y011846D01*
X029682Y011770D01*
X029881Y011770D01*
X029682Y011770D01*
X029499Y011694D01*
X029358Y011553D01*
X029282Y011369D01*
X029282Y011170D01*
X029358Y010987D01*
X029499Y010846D01*
X029682Y010770D01*
X029881Y010770D01*
X029682Y010770D01*
X029499Y010694D01*
X029358Y010553D01*
X029282Y010369D01*
X029282Y010170D01*
X029358Y009987D01*
X029499Y009846D01*
X029682Y009770D01*
X029881Y009770D01*
X029682Y009770D01*
X029499Y009694D01*
X029358Y009553D01*
X029282Y009369D01*
X029282Y009170D01*
X029358Y008987D01*
X029499Y008846D01*
X029682Y008770D01*
X029881Y008770D01*
X029682Y008770D01*
X029499Y008694D01*
X029358Y008553D01*
X029282Y008369D01*
X029282Y008170D01*
X029358Y007987D01*
X029499Y007846D01*
X029682Y007770D01*
X029881Y007770D01*
X029682Y007770D01*
X029499Y007694D01*
X029358Y007553D01*
X029282Y007369D01*
X029282Y007170D01*
X029358Y006987D01*
X029499Y006846D01*
X029682Y006770D01*
X029881Y006770D01*
X029682Y006770D01*
X029499Y006694D01*
X029358Y006553D01*
X029282Y006369D01*
X029282Y006170D01*
X029282Y006369D01*
X029206Y006553D01*
X029065Y006694D01*
X028881Y006770D01*
X028682Y006770D01*
X028881Y006770D01*
X029065Y006846D01*
X029206Y006987D01*
X029282Y007170D01*
X029282Y007369D01*
X029206Y007553D01*
X029065Y007694D01*
X028881Y007770D01*
X028682Y007770D01*
X028881Y007770D01*
X029065Y007846D01*
X029206Y007987D01*
X029282Y008170D01*
X029282Y008369D01*
X029206Y008553D01*
X029065Y008694D01*
X028881Y008770D01*
X028682Y008770D01*
X028881Y008770D01*
X029065Y008846D01*
X029206Y008987D01*
X029282Y009170D01*
X029282Y009369D01*
X029206Y009553D01*
X029065Y009694D01*
X028881Y009770D01*
X028682Y009770D01*
X028881Y009770D01*
X029065Y009846D01*
X029206Y009987D01*
X029282Y010170D01*
X029282Y010369D01*
X029206Y010553D01*
X029065Y010694D01*
X028881Y010770D01*
X028682Y010770D01*
X028881Y010770D01*
X029065Y010846D01*
X029206Y010987D01*
X029282Y011170D01*
X029282Y011369D01*
X029206Y011553D01*
X029065Y011694D01*
X028881Y011770D01*
X028682Y011770D01*
X028881Y011770D01*
X029065Y011846D01*
X029206Y011987D01*
X029282Y012170D01*
X029282Y012369D01*
X029206Y012553D01*
X029065Y012694D01*
X028881Y012770D01*
X028682Y012770D01*
X028881Y012770D01*
X029065Y012846D01*
X029206Y012987D01*
X029282Y013170D01*
X029282Y013369D01*
X029206Y013553D01*
X029065Y013694D01*
X028881Y013770D01*
X028682Y013770D01*
X028499Y013846D01*
X028358Y013987D01*
X028282Y014170D01*
X028282Y014369D01*
X028282Y014170D01*
X028206Y013987D01*
X028065Y013846D01*
X027881Y013770D01*
X027682Y013770D01*
X027499Y013846D01*
X027358Y013987D01*
X027282Y014170D01*
X027282Y014369D01*
X027282Y014170D01*
X027206Y013987D01*
X027065Y013846D01*
X026881Y013770D01*
X026682Y013770D01*
X026499Y013846D01*
X026358Y013987D01*
X026282Y014170D01*
X026282Y014369D01*
X026282Y014170D01*
X026206Y013987D01*
X026065Y013846D01*
X025881Y013770D01*
X025682Y013770D01*
X025499Y013694D01*
X025358Y013553D01*
X025282Y013369D01*
X025282Y013170D01*
X025358Y012987D01*
X025499Y012846D01*
X025682Y012770D01*
X025499Y012694D01*
X025358Y012553D01*
X025282Y012369D01*
X025282Y012170D01*
X025358Y011987D01*
X025499Y011846D01*
X025682Y011770D01*
X025499Y011694D01*
X025358Y011553D01*
X025282Y011369D01*
X025282Y011170D01*
X025358Y010987D01*
X025499Y010846D01*
X025682Y010770D01*
X025499Y010694D01*
X025358Y010553D01*
X025282Y010369D01*
X025282Y010170D01*
X025358Y009987D01*
X025499Y009846D01*
X025682Y009770D01*
X025499Y009694D01*
X025358Y009553D01*
X025282Y009369D01*
X025282Y009170D01*
X025358Y008987D01*
X025499Y008846D01*
X025682Y008770D01*
X025499Y008694D01*
X025358Y008553D01*
X025282Y008369D01*
X025282Y008170D01*
X025358Y007987D01*
X025499Y007846D01*
X025682Y007770D01*
X025499Y007694D01*
X025358Y007553D01*
X025282Y007369D01*
X025282Y007170D01*
X025358Y006987D01*
X025499Y006846D01*
X025682Y006770D01*
X025499Y006694D01*
X025358Y006553D01*
X025282Y006369D01*
X025282Y006170D01*
X025358Y005987D01*
X025499Y005846D01*
X025682Y005770D01*
X025881Y005770D01*
X026065Y005846D01*
X026206Y005987D01*
X026282Y006170D01*
X026358Y005987D01*
X026499Y005846D01*
X026682Y005770D01*
X026881Y005770D01*
X027065Y005846D01*
X027206Y005987D01*
X027282Y006170D01*
X027358Y005987D01*
X027499Y005846D01*
X027682Y005770D01*
X027881Y005770D01*
X028065Y005846D01*
X028206Y005987D01*
X028282Y006170D01*
X028282Y006369D01*
X028206Y006553D01*
X028065Y006694D01*
X027881Y006770D01*
X028065Y006846D01*
X028206Y006987D01*
X028282Y007170D01*
X028282Y007369D01*
X028206Y007553D01*
X028065Y007694D01*
X027881Y007770D01*
X028065Y007846D01*
X028206Y007987D01*
X028282Y008170D01*
X028282Y008369D01*
X028206Y008553D01*
X028065Y008694D01*
X027881Y008770D01*
X028065Y008846D01*
X028206Y008987D01*
X028282Y009170D01*
X028282Y009369D01*
X028206Y009553D01*
X028065Y009694D01*
X027881Y009770D01*
X028065Y009846D01*
X028206Y009987D01*
X028282Y010170D01*
X028282Y010369D01*
X028206Y010553D01*
X028065Y010694D01*
X027881Y010770D01*
X028065Y010846D01*
X028206Y010987D01*
X028282Y011170D01*
X028282Y011369D01*
X028206Y011553D01*
X028065Y011694D01*
X027881Y011770D01*
X028065Y011846D01*
X028206Y011987D01*
X028282Y012170D01*
X028282Y012369D01*
X028206Y012553D01*
X028065Y012694D01*
X027881Y012770D01*
X028065Y012846D01*
X028206Y012987D01*
X028282Y013170D01*
X028282Y013369D01*
X028206Y013553D01*
X028065Y013694D01*
X027881Y013770D01*
X027682Y013770D01*
X027499Y013694D01*
X027358Y013553D01*
X027282Y013369D01*
X027282Y013170D01*
X027358Y012987D01*
X027499Y012846D01*
X027682Y012770D01*
X027881Y012770D01*
X027682Y012770D01*
X027499Y012694D01*
X027358Y012553D01*
X027282Y012369D01*
X027282Y012170D01*
X027358Y011987D01*
X027499Y011846D01*
X027682Y011770D01*
X027881Y011770D01*
X027682Y011770D01*
X027499Y011694D01*
X027358Y011553D01*
X027282Y011369D01*
X027282Y011170D01*
X027358Y010987D01*
X027499Y010846D01*
X027682Y010770D01*
X027881Y010770D01*
X027682Y010770D01*
X027499Y010694D01*
X027358Y010553D01*
X027282Y010369D01*
X027282Y010170D01*
X027358Y009987D01*
X027499Y009846D01*
X027682Y009770D01*
X027881Y009770D01*
X027682Y009770D01*
X027499Y009694D01*
X027358Y009553D01*
X027282Y009369D01*
X027282Y009170D01*
X027358Y008987D01*
X027499Y008846D01*
X027682Y008770D01*
X027881Y008770D01*
X027682Y008770D01*
X027499Y008694D01*
X027358Y008553D01*
X027282Y008369D01*
X027282Y008170D01*
X027358Y007987D01*
X027499Y007846D01*
X027682Y007770D01*
X027881Y007770D01*
X027682Y007770D01*
X027499Y007694D01*
X027358Y007553D01*
X027282Y007369D01*
X027282Y007170D01*
X027358Y006987D01*
X027499Y006846D01*
X027682Y006770D01*
X027881Y006770D01*
X027682Y006770D01*
X027499Y006694D01*
X027358Y006553D01*
X027282Y006369D01*
X027282Y006170D01*
X027282Y006369D01*
X027206Y006553D01*
X027065Y006694D01*
X026881Y006770D01*
X027065Y006846D01*
X027206Y006987D01*
X027282Y007170D01*
X027282Y007369D01*
X027206Y007553D01*
X027065Y007694D01*
X026881Y007770D01*
X027065Y007846D01*
X027206Y007987D01*
X027282Y008170D01*
X027282Y008369D01*
X027206Y008553D01*
X027065Y008694D01*
X026881Y008770D01*
X027065Y008846D01*
X027206Y008987D01*
X027282Y009170D01*
X027282Y009369D01*
X027206Y009553D01*
X027065Y009694D01*
X026881Y009770D01*
X027065Y009846D01*
X027206Y009987D01*
X027282Y010170D01*
X027282Y010369D01*
X027206Y010553D01*
X027065Y010694D01*
X026881Y010770D01*
X027065Y010846D01*
X027206Y010987D01*
X027282Y011170D01*
X027282Y011369D01*
X027206Y011553D01*
X027065Y011694D01*
X026881Y011770D01*
X027065Y011846D01*
X027206Y011987D01*
X027282Y012170D01*
X027282Y012369D01*
X027206Y012553D01*
X027065Y012694D01*
X026881Y012770D01*
X027065Y012846D01*
X027206Y012987D01*
X027282Y013170D01*
X027282Y013369D01*
X027206Y013553D01*
X027065Y013694D01*
X026881Y013770D01*
X026682Y013770D01*
X026499Y013694D01*
X026358Y013553D01*
X026282Y013369D01*
X026282Y013170D01*
X026358Y012987D01*
X026499Y012846D01*
X026682Y012770D01*
X026881Y012770D01*
X026682Y012770D01*
X026499Y012694D01*
X026358Y012553D01*
X026282Y012369D01*
X026282Y012170D01*
X026358Y011987D01*
X026499Y011846D01*
X026682Y011770D01*
X026881Y011770D01*
X026682Y011770D01*
X026499Y011694D01*
X026358Y011553D01*
X026282Y011369D01*
X026282Y011170D01*
X026358Y010987D01*
X026499Y010846D01*
X026682Y010770D01*
X026881Y010770D01*
X026682Y010770D01*
X026499Y010694D01*
X026358Y010553D01*
X026282Y010369D01*
X026282Y010170D01*
X026358Y009987D01*
X026499Y009846D01*
X026682Y009770D01*
X026881Y009770D01*
X026682Y009770D01*
X026499Y009694D01*
X026358Y009553D01*
X026282Y009369D01*
X026282Y009170D01*
X026358Y008987D01*
X026499Y008846D01*
X026682Y008770D01*
X026881Y008770D01*
X026682Y008770D01*
X026499Y008694D01*
X026358Y008553D01*
X026282Y008369D01*
X026282Y008170D01*
X026358Y007987D01*
X026499Y007846D01*
X026682Y007770D01*
X026881Y007770D01*
X026682Y007770D01*
X026499Y007694D01*
X026358Y007553D01*
X026282Y007369D01*
X026282Y007170D01*
X026358Y006987D01*
X026499Y006846D01*
X026682Y006770D01*
X026881Y006770D01*
X026682Y006770D01*
X026499Y006694D01*
X026358Y006553D01*
X026282Y006369D01*
X026282Y006170D01*
X026282Y006369D01*
X026206Y006553D01*
X026065Y006694D01*
X025881Y006770D01*
X025682Y006770D01*
X025881Y006770D01*
X026065Y006846D01*
X026206Y006987D01*
X026282Y007170D01*
X026282Y007369D01*
X026206Y007553D01*
X026065Y007694D01*
X025881Y007770D01*
X025682Y007770D01*
X025881Y007770D01*
X026065Y007846D01*
X026206Y007987D01*
X026282Y008170D01*
X026282Y008369D01*
X026206Y008553D01*
X026065Y008694D01*
X025881Y008770D01*
X025682Y008770D01*
X025881Y008770D01*
X026065Y008846D01*
X026206Y008987D01*
X026282Y009170D01*
X026282Y009369D01*
X026206Y009553D01*
X026065Y009694D01*
X025881Y009770D01*
X025682Y009770D01*
X025881Y009770D01*
X026065Y009846D01*
X026206Y009987D01*
X026282Y010170D01*
X026282Y010369D01*
X026206Y010553D01*
X026065Y010694D01*
X025881Y010770D01*
X025682Y010770D01*
X025881Y010770D01*
X026065Y010846D01*
X026206Y010987D01*
X026282Y011170D01*
X026282Y011369D01*
X026206Y011553D01*
X026065Y011694D01*
X025881Y011770D01*
X025682Y011770D01*
X025881Y011770D01*
X026065Y011846D01*
X026206Y011987D01*
X026282Y012170D01*
X026282Y012369D01*
X026206Y012553D01*
X026065Y012694D01*
X025881Y012770D01*
X025682Y012770D01*
X025881Y012770D01*
X026065Y012846D01*
X026206Y012987D01*
X026282Y013170D01*
X026282Y013369D01*
X026206Y013553D01*
X026065Y013694D01*
X025881Y013770D01*
X025682Y013770D01*
X025499Y013846D01*
X025358Y013987D01*
X025282Y014170D01*
X025282Y014369D01*
X025282Y014170D01*
X025206Y013987D01*
X025065Y013846D01*
X024881Y013770D01*
X024682Y013770D01*
X024499Y013846D01*
X024358Y013987D01*
X024282Y014170D01*
X024282Y014369D01*
X024282Y014170D01*
X024206Y013987D01*
X024065Y013846D01*
X023881Y013770D01*
X023682Y013770D01*
X023499Y013694D01*
X023358Y013553D01*
X023282Y013369D01*
X023282Y013170D01*
X023358Y012987D01*
X023499Y012846D01*
X023682Y012770D01*
X023499Y012694D01*
X023358Y012553D01*
X023282Y012369D01*
X023282Y012170D01*
X023358Y011987D01*
X023499Y011846D01*
X023682Y011770D01*
X023499Y011694D01*
X023358Y011553D01*
X023282Y011369D01*
X023282Y011170D01*
X023358Y010987D01*
X023499Y010846D01*
X023682Y010770D01*
X023499Y010694D01*
X023358Y010553D01*
X023282Y010369D01*
X023282Y010170D01*
X023358Y009987D01*
X023499Y009846D01*
X023682Y009770D01*
X023499Y009694D01*
X023358Y009553D01*
X023282Y009369D01*
X023282Y009170D01*
X023358Y008987D01*
X023499Y008846D01*
X023682Y008770D01*
X023499Y008694D01*
X023358Y008553D01*
X023282Y008369D01*
X023282Y008170D01*
X023358Y007987D01*
X023499Y007846D01*
X023682Y007770D01*
X023499Y007694D01*
X023358Y007553D01*
X023282Y007369D01*
X023282Y007170D01*
X023358Y006987D01*
X023499Y006846D01*
X023682Y006770D01*
X023499Y006694D01*
X023358Y006553D01*
X023282Y006369D01*
X023282Y006170D01*
X023358Y005987D01*
X023499Y005846D01*
X023682Y005770D01*
X023881Y005770D01*
X024065Y005846D01*
X024206Y005987D01*
X024282Y006170D01*
X024358Y005987D01*
X024499Y005846D01*
X024682Y005770D01*
X024881Y005770D01*
X025065Y005846D01*
X025206Y005987D01*
X025282Y006170D01*
X025282Y006369D01*
X025206Y006553D01*
X025065Y006694D01*
X024881Y006770D01*
X025065Y006846D01*
X025206Y006987D01*
X025282Y007170D01*
X025282Y007369D01*
X025206Y007553D01*
X025065Y007694D01*
X024881Y007770D01*
X025065Y007846D01*
X025206Y007987D01*
X025282Y008170D01*
X025282Y008369D01*
X025206Y008553D01*
X025065Y008694D01*
X024881Y008770D01*
X025065Y008846D01*
X025206Y008987D01*
X025282Y009170D01*
X025282Y009369D01*
X025206Y009553D01*
X025065Y009694D01*
X024881Y009770D01*
X025065Y009846D01*
X025206Y009987D01*
X025282Y010170D01*
X025282Y010369D01*
X025206Y010553D01*
X025065Y010694D01*
X024881Y010770D01*
X025065Y010846D01*
X025206Y010987D01*
X025282Y011170D01*
X025282Y011369D01*
X025206Y011553D01*
X025065Y011694D01*
X024881Y011770D01*
X025065Y011846D01*
X025206Y011987D01*
X025282Y012170D01*
X025282Y012369D01*
X025206Y012553D01*
X025065Y012694D01*
X024881Y012770D01*
X025065Y012846D01*
X025206Y012987D01*
X025282Y013170D01*
X025282Y013369D01*
X025206Y013553D01*
X025065Y013694D01*
X024881Y013770D01*
X024682Y013770D01*
X024499Y013694D01*
X024358Y013553D01*
X024282Y013369D01*
X024282Y013170D01*
X024358Y012987D01*
X024499Y012846D01*
X024682Y012770D01*
X024881Y012770D01*
X024682Y012770D01*
X024499Y012694D01*
X024358Y012553D01*
X024282Y012369D01*
X024282Y012170D01*
X024358Y011987D01*
X024499Y011846D01*
X024682Y011770D01*
X024881Y011770D01*
X024682Y011770D01*
X024499Y011694D01*
X024358Y011553D01*
X024282Y011369D01*
X024282Y011170D01*
X024358Y010987D01*
X024499Y010846D01*
X024682Y010770D01*
X024881Y010770D01*
X024682Y010770D01*
X024499Y010694D01*
X024358Y010553D01*
X024282Y010369D01*
X024282Y010170D01*
X024358Y009987D01*
X024499Y009846D01*
X024682Y009770D01*
X024881Y009770D01*
X024682Y009770D01*
X024499Y009694D01*
X024358Y009553D01*
X024282Y009369D01*
X024282Y009170D01*
X024358Y008987D01*
X024499Y008846D01*
X024682Y008770D01*
X024881Y008770D01*
X024682Y008770D01*
X024499Y008694D01*
X024358Y008553D01*
X024282Y008369D01*
X024282Y008170D01*
X024358Y007987D01*
X024499Y007846D01*
X024682Y007770D01*
X024881Y007770D01*
X024682Y007770D01*
X024499Y007694D01*
X024358Y007553D01*
X024282Y007369D01*
X024282Y007170D01*
X024358Y006987D01*
X024499Y006846D01*
X024682Y006770D01*
X024881Y006770D01*
X024682Y006770D01*
X024499Y006694D01*
X024358Y006553D01*
X024282Y006369D01*
X024282Y006170D01*
X024282Y006369D01*
X024206Y006553D01*
X024065Y006694D01*
X023881Y006770D01*
X023682Y006770D01*
X023881Y006770D01*
X024065Y006846D01*
X024206Y006987D01*
X024282Y007170D01*
X024282Y007369D01*
X024206Y007553D01*
X024065Y007694D01*
X023881Y007770D01*
X023682Y007770D01*
X023881Y007770D01*
X024065Y007846D01*
X024206Y007987D01*
X024282Y008170D01*
X024282Y008369D01*
X024206Y008553D01*
X024065Y008694D01*
X023881Y008770D01*
X023682Y008770D01*
X023881Y008770D01*
X024065Y008846D01*
X024206Y008987D01*
X024282Y009170D01*
X024282Y009369D01*
X024206Y009553D01*
X024065Y009694D01*
X023881Y009770D01*
X023682Y009770D01*
X023881Y009770D01*
X024065Y009846D01*
X024206Y009987D01*
X024282Y010170D01*
X024282Y010369D01*
X024206Y010553D01*
X024065Y010694D01*
X023881Y010770D01*
X023682Y010770D01*
X023881Y010770D01*
X024065Y010846D01*
X024206Y010987D01*
X024282Y011170D01*
X024282Y011369D01*
X024206Y011553D01*
X024065Y011694D01*
X023881Y011770D01*
X023682Y011770D01*
X023881Y011770D01*
X024065Y011846D01*
X024206Y011987D01*
X024282Y012170D01*
X024282Y012369D01*
X024206Y012553D01*
X024065Y012694D01*
X023881Y012770D01*
X023682Y012770D01*
X023881Y012770D01*
X024065Y012846D01*
X024206Y012987D01*
X024282Y013170D01*
X024282Y013369D01*
X024206Y013553D01*
X024065Y013694D01*
X023881Y013770D01*
X023682Y013770D01*
X023499Y013846D01*
X023358Y013987D01*
X023282Y014170D01*
X023282Y014369D01*
X023282Y014170D01*
X023206Y013987D01*
X023065Y013846D01*
X022881Y013770D01*
X022682Y013770D01*
X022499Y013846D01*
X022358Y013987D01*
X022282Y014170D01*
X022282Y014369D01*
X022282Y014170D01*
X022206Y013987D01*
X022065Y013846D01*
X021881Y013770D01*
X021682Y013770D01*
X021499Y013846D01*
X021358Y013987D01*
X021282Y014170D01*
X021282Y014369D01*
X021282Y014170D01*
X021206Y013987D01*
X021065Y013846D01*
X020881Y013770D01*
X020682Y013770D01*
X020499Y013694D01*
X020358Y013553D01*
X020282Y013369D01*
X020282Y013170D01*
X020358Y012987D01*
X020499Y012846D01*
X020682Y012770D01*
X020499Y012694D01*
X020358Y012553D01*
X020282Y012369D01*
X020282Y012170D01*
X020358Y011987D01*
X020499Y011846D01*
X020682Y011770D01*
X020499Y011694D01*
X020358Y011553D01*
X020282Y011369D01*
X020282Y011170D01*
X020358Y010987D01*
X020499Y010846D01*
X020682Y010770D01*
X020499Y010694D01*
X020358Y010553D01*
X020282Y010369D01*
X020282Y010170D01*
X020358Y009987D01*
X020499Y009846D01*
X020682Y009770D01*
X020499Y009694D01*
X020358Y009553D01*
X020282Y009369D01*
X020282Y009170D01*
X020358Y008987D01*
X020499Y008846D01*
X020682Y008770D01*
X020499Y008694D01*
X020358Y008553D01*
X020282Y008369D01*
X020282Y008170D01*
X020358Y007987D01*
X020499Y007846D01*
X020682Y007770D01*
X020499Y007694D01*
X020358Y007553D01*
X020282Y007369D01*
X020282Y007170D01*
X020358Y006987D01*
X020499Y006846D01*
X020682Y006770D01*
X020499Y006694D01*
X020358Y006553D01*
X020282Y006369D01*
X020282Y006170D01*
X020358Y005987D01*
X020499Y005846D01*
X020682Y005770D01*
X020881Y005770D01*
X021065Y005846D01*
X021206Y005987D01*
X021282Y006170D01*
X021358Y005987D01*
X021499Y005846D01*
X021682Y005770D01*
X021881Y005770D01*
X022065Y005846D01*
X022206Y005987D01*
X022282Y006170D01*
X022358Y005987D01*
X022499Y005846D01*
X022682Y005770D01*
X022881Y005770D01*
X023065Y005846D01*
X023206Y005987D01*
X023282Y006170D01*
X023282Y006369D01*
X023206Y006553D01*
X023065Y006694D01*
X022881Y006770D01*
X023065Y006846D01*
X023206Y006987D01*
X023282Y007170D01*
X023282Y007369D01*
X023206Y007553D01*
X023065Y007694D01*
X022881Y007770D01*
X023065Y007846D01*
X023206Y007987D01*
X023282Y008170D01*
X023282Y008369D01*
X023206Y008553D01*
X023065Y008694D01*
X022881Y008770D01*
X023065Y008846D01*
X023206Y008987D01*
X023282Y009170D01*
X023282Y009369D01*
X023206Y009553D01*
X023065Y009694D01*
X022881Y009770D01*
X023065Y009846D01*
X023206Y009987D01*
X023282Y010170D01*
X023282Y010369D01*
X023206Y010553D01*
X023065Y010694D01*
X022881Y010770D01*
X023065Y010846D01*
X023206Y010987D01*
X023282Y011170D01*
X023282Y011369D01*
X023206Y011553D01*
X023065Y011694D01*
X022881Y011770D01*
X023065Y011846D01*
X023206Y011987D01*
X023282Y012170D01*
X023282Y012369D01*
X023206Y012553D01*
X023065Y012694D01*
X022881Y012770D01*
X023065Y012846D01*
X023206Y012987D01*
X023282Y013170D01*
X023282Y013369D01*
X023206Y013553D01*
X023065Y013694D01*
X022881Y013770D01*
X022682Y013770D01*
X022499Y013694D01*
X022358Y013553D01*
X022282Y013369D01*
X022282Y013170D01*
X022358Y012987D01*
X022499Y012846D01*
X022682Y012770D01*
X022881Y012770D01*
X022682Y012770D01*
X022499Y012694D01*
X022358Y012553D01*
X022282Y012369D01*
X022282Y012170D01*
X022358Y011987D01*
X022499Y011846D01*
X022682Y011770D01*
X022881Y011770D01*
X022682Y011770D01*
X022499Y011694D01*
X022358Y011553D01*
X022282Y011369D01*
X022282Y011170D01*
X022358Y010987D01*
X022499Y010846D01*
X022682Y010770D01*
X022881Y010770D01*
X022682Y010770D01*
X022499Y010694D01*
X022358Y010553D01*
X022282Y010369D01*
X022282Y010170D01*
X022358Y009987D01*
X022499Y009846D01*
X022682Y009770D01*
X022881Y009770D01*
X022682Y009770D01*
X022499Y009694D01*
X022358Y009553D01*
X022282Y009369D01*
X022282Y009170D01*
X022358Y008987D01*
X022499Y008846D01*
X022682Y008770D01*
X022881Y008770D01*
X022682Y008770D01*
X022499Y008694D01*
X022358Y008553D01*
X022282Y008369D01*
X022282Y008170D01*
X022358Y007987D01*
X022499Y007846D01*
X022682Y007770D01*
X022881Y007770D01*
X022682Y007770D01*
X022499Y007694D01*
X022358Y007553D01*
X022282Y007369D01*
X022282Y007170D01*
X022358Y006987D01*
X022499Y006846D01*
X022682Y006770D01*
X022881Y006770D01*
X022682Y006770D01*
X022499Y006694D01*
X022358Y006553D01*
X022282Y006369D01*
X022282Y006170D01*
X022282Y006369D01*
X022206Y006553D01*
X022065Y006694D01*
X021881Y006770D01*
X022065Y006846D01*
X022206Y006987D01*
X022282Y007170D01*
X022282Y007369D01*
X022206Y007553D01*
X022065Y007694D01*
X021881Y007770D01*
X022065Y007846D01*
X022206Y007987D01*
X022282Y008170D01*
X022282Y008369D01*
X022206Y008553D01*
X022065Y008694D01*
X021881Y008770D01*
X022065Y008846D01*
X022206Y008987D01*
X022282Y009170D01*
X022282Y009369D01*
X022206Y009553D01*
X022065Y009694D01*
X021881Y009770D01*
X022065Y009846D01*
X022206Y009987D01*
X022282Y010170D01*
X022282Y010369D01*
X022206Y010553D01*
X022065Y010694D01*
X021881Y010770D01*
X022065Y010846D01*
X022206Y010987D01*
X022282Y011170D01*
X022282Y011369D01*
X022206Y011553D01*
X022065Y011694D01*
X021881Y011770D01*
X022065Y011846D01*
X022206Y011987D01*
X022282Y012170D01*
X022282Y012369D01*
X022206Y012553D01*
X022065Y012694D01*
X021881Y012770D01*
X022065Y012846D01*
X022206Y012987D01*
X022282Y013170D01*
X022282Y013369D01*
X022206Y013553D01*
X022065Y013694D01*
X021881Y013770D01*
X021682Y013770D01*
X021499Y013694D01*
X021358Y013553D01*
X021282Y013369D01*
X021282Y013170D01*
X021358Y012987D01*
X021499Y012846D01*
X021682Y012770D01*
X021881Y012770D01*
X021682Y012770D01*
X021499Y012694D01*
X021358Y012553D01*
X021282Y012369D01*
X021282Y012170D01*
X021358Y011987D01*
X021499Y011846D01*
X021682Y011770D01*
X021881Y011770D01*
X021682Y011770D01*
X021499Y011694D01*
X021358Y011553D01*
X021282Y011369D01*
X021282Y011170D01*
X021358Y010987D01*
X021499Y010846D01*
X021682Y010770D01*
X021881Y010770D01*
X021682Y010770D01*
X021499Y010694D01*
X021358Y010553D01*
X021282Y010369D01*
X021282Y010170D01*
X021358Y009987D01*
X021499Y009846D01*
X021682Y009770D01*
X021881Y009770D01*
X021682Y009770D01*
X021499Y009694D01*
X021358Y009553D01*
X021282Y009369D01*
X021282Y009170D01*
X021358Y008987D01*
X021499Y008846D01*
X021682Y008770D01*
X021881Y008770D01*
X021682Y008770D01*
X021499Y008694D01*
X021358Y008553D01*
X021282Y008369D01*
X021282Y008170D01*
X021358Y007987D01*
X021499Y007846D01*
X021682Y007770D01*
X021881Y007770D01*
X021682Y007770D01*
X021499Y007694D01*
X021358Y007553D01*
X021282Y007369D01*
X021282Y007170D01*
X021358Y006987D01*
X021499Y006846D01*
X021682Y006770D01*
X021881Y006770D01*
X021682Y006770D01*
X021499Y006694D01*
X021358Y006553D01*
X021282Y006369D01*
X021282Y006170D01*
X021282Y006369D01*
X021206Y006553D01*
X021065Y006694D01*
X020881Y006770D01*
X020682Y006770D01*
X020881Y006770D01*
X021065Y006846D01*
X021206Y006987D01*
X021282Y007170D01*
X021282Y007369D01*
X021206Y007553D01*
X021065Y007694D01*
X020881Y007770D01*
X020682Y007770D01*
X020881Y007770D01*
X021065Y007846D01*
X021206Y007987D01*
X021282Y008170D01*
X021282Y008369D01*
X021206Y008553D01*
X021065Y008694D01*
X020881Y008770D01*
X020682Y008770D01*
X020881Y008770D01*
X021065Y008846D01*
X021206Y008987D01*
X021282Y009170D01*
X021282Y009369D01*
X021206Y009553D01*
X021065Y009694D01*
X020881Y009770D01*
X020682Y009770D01*
X020881Y009770D01*
X021065Y009846D01*
X021206Y009987D01*
X021282Y010170D01*
X021282Y010369D01*
X021206Y010553D01*
X021065Y010694D01*
X020881Y010770D01*
X020682Y010770D01*
X020881Y010770D01*
X021065Y010846D01*
X021206Y010987D01*
X021282Y011170D01*
X021282Y011369D01*
X021206Y011553D01*
X021065Y011694D01*
X020881Y011770D01*
X020682Y011770D01*
X020881Y011770D01*
X021065Y011846D01*
X021206Y011987D01*
X021282Y012170D01*
X021282Y012369D01*
X021206Y012553D01*
X021065Y012694D01*
X020881Y012770D01*
X020682Y012770D01*
X020881Y012770D01*
X021065Y012846D01*
X021206Y012987D01*
X021282Y013170D01*
X021282Y013369D01*
X021206Y013553D01*
X021065Y013694D01*
X020881Y013770D01*
X020682Y013770D01*
X020499Y013846D01*
X020358Y013987D01*
X020282Y014170D01*
X020282Y014369D01*
X020282Y014170D01*
X020206Y013987D01*
X020065Y013846D01*
X019881Y013770D01*
X019682Y013770D01*
X019499Y013846D01*
X019358Y013987D01*
X019282Y014170D01*
X019282Y014369D01*
X019282Y014170D01*
X019206Y013987D01*
X019065Y013846D01*
X018881Y013770D01*
X018682Y013770D01*
X018499Y013694D01*
X018358Y013553D01*
X018282Y013369D01*
X018282Y013170D01*
X018358Y012987D01*
X018499Y012846D01*
X018682Y012770D01*
X018499Y012694D01*
X018358Y012553D01*
X018282Y012369D01*
X018282Y012170D01*
X018358Y011987D01*
X018499Y011846D01*
X018682Y011770D01*
X018499Y011694D01*
X018358Y011553D01*
X018282Y011369D01*
X018282Y011170D01*
X018358Y010987D01*
X018499Y010846D01*
X018682Y010770D01*
X018499Y010694D01*
X018358Y010553D01*
X018282Y010369D01*
X018282Y010170D01*
X018358Y009987D01*
X018499Y009846D01*
X018682Y009770D01*
X018499Y009694D01*
X018358Y009553D01*
X018282Y009369D01*
X018282Y009170D01*
X018358Y008987D01*
X018499Y008846D01*
X018682Y008770D01*
X018499Y008694D01*
X018358Y008553D01*
X018282Y008369D01*
X018282Y008170D01*
X018358Y007987D01*
X018499Y007846D01*
X018682Y007770D01*
X018499Y007694D01*
X018358Y007553D01*
X018282Y007369D01*
X018282Y007170D01*
X018358Y006987D01*
X018499Y006846D01*
X018682Y006770D01*
X018499Y006694D01*
X018358Y006553D01*
X018282Y006369D01*
X018282Y006170D01*
X018358Y005987D01*
X018499Y005846D01*
X018682Y005770D01*
X018881Y005770D01*
X019065Y005846D01*
X019206Y005987D01*
X019282Y006170D01*
X019358Y005987D01*
X019499Y005846D01*
X019682Y005770D01*
X019881Y005770D01*
X020065Y005846D01*
X020206Y005987D01*
X020282Y006170D01*
X020282Y006369D01*
X020206Y006553D01*
X020065Y006694D01*
X019881Y006770D01*
X020065Y006846D01*
X020206Y006987D01*
X020282Y007170D01*
X020282Y007369D01*
X020206Y007553D01*
X020065Y007694D01*
X019881Y007770D01*
X020065Y007846D01*
X020206Y007987D01*
X020282Y008170D01*
X020282Y008369D01*
X020206Y008553D01*
X020065Y008694D01*
X019881Y008770D01*
X020065Y008846D01*
X020206Y008987D01*
X020282Y009170D01*
X020282Y009369D01*
X020206Y009553D01*
X020065Y009694D01*
X019881Y009770D01*
X020065Y009846D01*
X020206Y009987D01*
X020282Y010170D01*
X020282Y010369D01*
X020206Y010553D01*
X020065Y010694D01*
X019881Y010770D01*
X020065Y010846D01*
X020206Y010987D01*
X020282Y011170D01*
X020282Y011369D01*
X020206Y011553D01*
X020065Y011694D01*
X019881Y011770D01*
X020065Y011846D01*
X020206Y011987D01*
X020282Y012170D01*
X020282Y012369D01*
X020206Y012553D01*
X020065Y012694D01*
X019881Y012770D01*
X020065Y012846D01*
X020206Y012987D01*
X020282Y013170D01*
X020282Y013369D01*
X020206Y013553D01*
X020065Y013694D01*
X019881Y013770D01*
X019682Y013770D01*
X019499Y013694D01*
X019358Y013553D01*
X019282Y013369D01*
X019282Y013170D01*
X019358Y012987D01*
X019499Y012846D01*
X019682Y012770D01*
X019881Y012770D01*
X019682Y012770D01*
X019499Y012694D01*
X019358Y012553D01*
X019282Y012369D01*
X019282Y012170D01*
X019358Y011987D01*
X019499Y011846D01*
X019682Y011770D01*
X019881Y011770D01*
X019682Y011770D01*
X019499Y011694D01*
X019358Y011553D01*
X019282Y011369D01*
X019282Y011170D01*
X019358Y010987D01*
X019499Y010846D01*
X019682Y010770D01*
X019881Y010770D01*
X019682Y010770D01*
X019499Y010694D01*
X019358Y010553D01*
X019282Y010369D01*
X019282Y010170D01*
X019358Y009987D01*
X019499Y009846D01*
X019682Y009770D01*
X019881Y009770D01*
X019682Y009770D01*
X019499Y009694D01*
X019358Y009553D01*
X019282Y009369D01*
X019282Y009170D01*
X019358Y008987D01*
X019499Y008846D01*
X019682Y008770D01*
X019881Y008770D01*
X019682Y008770D01*
X019499Y008694D01*
X019358Y008553D01*
X019282Y008369D01*
X019282Y008170D01*
X019358Y007987D01*
X019499Y007846D01*
X019682Y007770D01*
X019881Y007770D01*
X019682Y007770D01*
X019499Y007694D01*
X019358Y007553D01*
X019282Y007369D01*
X019282Y007170D01*
X019358Y006987D01*
X019499Y006846D01*
X019682Y006770D01*
X019881Y006770D01*
X019682Y006770D01*
X019499Y006694D01*
X019358Y006553D01*
X019282Y006369D01*
X019282Y006170D01*
X019282Y006369D01*
X019206Y006553D01*
X019065Y006694D01*
X018881Y006770D01*
X018682Y006770D01*
X018881Y006770D01*
X019065Y006846D01*
X019206Y006987D01*
X019282Y007170D01*
X019282Y007369D01*
X019206Y007553D01*
X019065Y007694D01*
X018881Y007770D01*
X018682Y007770D01*
X018881Y007770D01*
X019065Y007846D01*
X019206Y007987D01*
X019282Y008170D01*
X019282Y008369D01*
X019206Y008553D01*
X019065Y008694D01*
X018881Y008770D01*
X018682Y008770D01*
X018881Y008770D01*
X019065Y008846D01*
X019206Y008987D01*
X019282Y009170D01*
X019282Y009369D01*
X019206Y009553D01*
X019065Y009694D01*
X018881Y009770D01*
X018682Y009770D01*
X018881Y009770D01*
X019065Y009846D01*
X019206Y009987D01*
X019282Y010170D01*
X019282Y010369D01*
X019206Y010553D01*
X019065Y010694D01*
X018881Y010770D01*
X018682Y010770D01*
X018881Y010770D01*
X019065Y010846D01*
X019206Y010987D01*
X019282Y011170D01*
X019282Y011369D01*
X019206Y011553D01*
X019065Y011694D01*
X018881Y011770D01*
X018682Y011770D01*
X018881Y011770D01*
X019065Y011846D01*
X019206Y011987D01*
X019282Y012170D01*
X019282Y012369D01*
X019206Y012553D01*
X019065Y012694D01*
X018881Y012770D01*
X018682Y012770D01*
X018881Y012770D01*
X019065Y012846D01*
X019206Y012987D01*
X019282Y013170D01*
X019282Y013369D01*
X019206Y013553D01*
X019065Y013694D01*
X018881Y013770D01*
X018682Y013770D01*
X018499Y013846D01*
X018358Y013987D01*
X018282Y014170D01*
X018282Y014369D01*
X018282Y014170D01*
X018206Y013987D01*
X018065Y013846D01*
X017881Y013770D01*
X017682Y013770D01*
X017499Y013846D01*
X017358Y013987D01*
X017282Y014170D01*
X017282Y014369D01*
X017282Y014170D01*
X017206Y013987D01*
X017065Y013846D01*
X016881Y013770D01*
X016682Y013770D01*
X016499Y013846D01*
X016358Y013987D01*
X016282Y014170D01*
X016282Y014369D01*
X016282Y014170D01*
X016206Y013987D01*
X016065Y013846D01*
X015881Y013770D01*
X015682Y013770D01*
X015499Y013694D01*
X015358Y013553D01*
X015282Y013369D01*
X015282Y013170D01*
X015358Y012987D01*
X015499Y012846D01*
X015682Y012770D01*
X015499Y012694D01*
X015358Y012553D01*
X015282Y012369D01*
X015282Y012170D01*
X015358Y011987D01*
X015499Y011846D01*
X015682Y011770D01*
X015499Y011694D01*
X015358Y011553D01*
X015282Y011369D01*
X015282Y011170D01*
X015358Y010987D01*
X015499Y010846D01*
X015682Y010770D01*
X015499Y010694D01*
X015358Y010553D01*
X015282Y010369D01*
X015282Y010170D01*
X015358Y009987D01*
X015499Y009846D01*
X015682Y009770D01*
X015499Y009694D01*
X015358Y009553D01*
X015282Y009369D01*
X015282Y009170D01*
X015358Y008987D01*
X015499Y008846D01*
X015682Y008770D01*
X015499Y008694D01*
X015358Y008553D01*
X015282Y008369D01*
X015282Y008170D01*
X015358Y007987D01*
X015499Y007846D01*
X015682Y007770D01*
X015499Y007694D01*
X015358Y007553D01*
X015282Y007369D01*
X015282Y007170D01*
X015358Y006987D01*
X015499Y006846D01*
X015682Y006770D01*
X015881Y006770D01*
X016065Y006846D01*
X016206Y006987D01*
X016282Y007170D01*
X016358Y006987D01*
X016499Y006846D01*
X016682Y006770D01*
X016499Y006694D01*
X016358Y006553D01*
X016282Y006369D01*
X016282Y006170D01*
X016358Y005987D01*
X016499Y005846D01*
X016682Y005770D01*
X016881Y005770D01*
X017065Y005846D01*
X017206Y005987D01*
X017282Y006170D01*
X017282Y006369D01*
X017358Y006553D01*
X017499Y006694D01*
X017682Y006770D01*
X017881Y006770D01*
X018065Y006846D01*
X018206Y006987D01*
X018282Y007170D01*
X018282Y007369D01*
X018206Y007553D01*
X018065Y007694D01*
X017881Y007770D01*
X018065Y007846D01*
X018206Y007987D01*
X018282Y008170D01*
X018282Y008369D01*
X018206Y008553D01*
X018065Y008694D01*
X017881Y008770D01*
X018065Y008846D01*
X018206Y008987D01*
X018282Y009170D01*
X018282Y009369D01*
X018206Y009553D01*
X018065Y009694D01*
X017881Y009770D01*
X018065Y009846D01*
X018206Y009987D01*
X018282Y010170D01*
X018282Y010369D01*
X018206Y010553D01*
X018065Y010694D01*
X017881Y010770D01*
X018065Y010846D01*
X018206Y010987D01*
X018282Y011170D01*
X018282Y011369D01*
X018206Y011553D01*
X018065Y011694D01*
X017881Y011770D01*
X018065Y011846D01*
X018206Y011987D01*
X018282Y012170D01*
X018282Y012369D01*
X018206Y012553D01*
X018065Y012694D01*
X017881Y012770D01*
X018065Y012846D01*
X018206Y012987D01*
X018282Y013170D01*
X018282Y013369D01*
X018206Y013553D01*
X018065Y013694D01*
X017881Y013770D01*
X017682Y013770D01*
X017499Y013694D01*
X017358Y013553D01*
X017282Y013369D01*
X017282Y013170D01*
X017358Y012987D01*
X017499Y012846D01*
X017682Y012770D01*
X017881Y012770D01*
X017682Y012770D01*
X017499Y012694D01*
X017358Y012553D01*
X017282Y012369D01*
X017282Y012170D01*
X017358Y011987D01*
X017499Y011846D01*
X017682Y011770D01*
X017881Y011770D01*
X017682Y011770D01*
X017499Y011694D01*
X017358Y011553D01*
X017282Y011369D01*
X017282Y011170D01*
X017358Y010987D01*
X017499Y010846D01*
X017682Y010770D01*
X017881Y010770D01*
X017682Y010770D01*
X017499Y010694D01*
X017358Y010553D01*
X017282Y010369D01*
X017282Y010170D01*
X017358Y009987D01*
X017499Y009846D01*
X017682Y009770D01*
X017881Y009770D01*
X017682Y009770D01*
X017499Y009694D01*
X017358Y009553D01*
X017282Y009369D01*
X017282Y009170D01*
X017358Y008987D01*
X017499Y008846D01*
X017682Y008770D01*
X017881Y008770D01*
X017682Y008770D01*
X017499Y008694D01*
X017358Y008553D01*
X017282Y008369D01*
X017282Y008170D01*
X017358Y007987D01*
X017499Y007846D01*
X017682Y007770D01*
X017881Y007770D01*
X017682Y007770D01*
X017499Y007694D01*
X017358Y007553D01*
X017282Y007369D01*
X017282Y007170D01*
X017358Y006987D01*
X017499Y006846D01*
X017682Y006770D01*
X017881Y006770D01*
X018065Y006694D01*
X018206Y006553D01*
X018282Y006369D01*
X018282Y006170D01*
X018206Y005987D01*
X018065Y005846D01*
X017881Y005770D01*
X017682Y005770D01*
X017499Y005846D01*
X017358Y005987D01*
X017282Y006170D01*
X017282Y006369D01*
X017206Y006553D01*
X017065Y006694D01*
X016881Y006770D01*
X016682Y006770D01*
X016881Y006770D01*
X017065Y006846D01*
X017206Y006987D01*
X017282Y007170D01*
X017282Y007369D01*
X017206Y007553D01*
X017065Y007694D01*
X016881Y007770D01*
X017065Y007846D01*
X017206Y007987D01*
X017282Y008170D01*
X017282Y008369D01*
X017206Y008553D01*
X017065Y008694D01*
X016881Y008770D01*
X017065Y008846D01*
X017206Y008987D01*
X017282Y009170D01*
X017282Y009369D01*
X017206Y009553D01*
X017065Y009694D01*
X016881Y009770D01*
X017065Y009846D01*
X017206Y009987D01*
X017282Y010170D01*
X017282Y010369D01*
X017206Y010553D01*
X017065Y010694D01*
X016881Y010770D01*
X017065Y010846D01*
X017206Y010987D01*
X017282Y011170D01*
X017282Y011369D01*
X017206Y011553D01*
X017065Y011694D01*
X016881Y011770D01*
X017065Y011846D01*
X017206Y011987D01*
X017282Y012170D01*
X017282Y012369D01*
X017206Y012553D01*
X017065Y012694D01*
X016881Y012770D01*
X017065Y012846D01*
X017206Y012987D01*
X017282Y013170D01*
X017282Y013369D01*
X017206Y013553D01*
X017065Y013694D01*
X016881Y013770D01*
X016682Y013770D01*
X016499Y013694D01*
X016358Y013553D01*
X016282Y013369D01*
X016282Y013170D01*
X016358Y012987D01*
X016499Y012846D01*
X016682Y012770D01*
X016881Y012770D01*
X016682Y012770D01*
X016499Y012694D01*
X016358Y012553D01*
X016282Y012369D01*
X016282Y012170D01*
X016358Y011987D01*
X016499Y011846D01*
X016682Y011770D01*
X016881Y011770D01*
X016682Y011770D01*
X016499Y011694D01*
X016358Y011553D01*
X016282Y011369D01*
X016282Y011170D01*
X016358Y010987D01*
X016499Y010846D01*
X016682Y010770D01*
X016881Y010770D01*
X016682Y010770D01*
X016499Y010694D01*
X016358Y010553D01*
X016282Y010369D01*
X016282Y010170D01*
X016358Y009987D01*
X016499Y009846D01*
X016682Y009770D01*
X016881Y009770D01*
X016682Y009770D01*
X016499Y009694D01*
X016358Y009553D01*
X016282Y009369D01*
X016282Y009170D01*
X016358Y008987D01*
X016499Y008846D01*
X016682Y008770D01*
X016881Y008770D01*
X016682Y008770D01*
X016499Y008694D01*
X016358Y008553D01*
X016282Y008369D01*
X016282Y008170D01*
X016358Y007987D01*
X016499Y007846D01*
X016682Y007770D01*
X016881Y007770D01*
X016682Y007770D01*
X016499Y007694D01*
X016358Y007553D01*
X016282Y007369D01*
X016282Y007170D01*
X016282Y007369D01*
X016206Y007553D01*
X016065Y007694D01*
X015881Y007770D01*
X015682Y007770D01*
X015881Y007770D01*
X016065Y007846D01*
X016206Y007987D01*
X016282Y008170D01*
X016282Y008369D01*
X016206Y008553D01*
X016065Y008694D01*
X015881Y008770D01*
X015682Y008770D01*
X015881Y008770D01*
X016065Y008846D01*
X016206Y008987D01*
X016282Y009170D01*
X016282Y009369D01*
X016206Y009553D01*
X016065Y009694D01*
X015881Y009770D01*
X015682Y009770D01*
X015881Y009770D01*
X016065Y009846D01*
X016206Y009987D01*
X016282Y010170D01*
X016282Y010369D01*
X016206Y010553D01*
X016065Y010694D01*
X015881Y010770D01*
X015682Y010770D01*
X015881Y010770D01*
X016065Y010846D01*
X016206Y010987D01*
X016282Y011170D01*
X016282Y011369D01*
X016206Y011553D01*
X016065Y011694D01*
X015881Y011770D01*
X015682Y011770D01*
X015881Y011770D01*
X016065Y011846D01*
X016206Y011987D01*
X016282Y012170D01*
X016282Y012369D01*
X016206Y012553D01*
X016065Y012694D01*
X015881Y012770D01*
X015682Y012770D01*
X015881Y012770D01*
X016065Y012846D01*
X016206Y012987D01*
X016282Y013170D01*
X016282Y013369D01*
X016206Y013553D01*
X016065Y013694D01*
X015881Y013770D01*
X015682Y013770D01*
X015499Y013846D01*
X015358Y013987D01*
X015282Y014170D01*
X015282Y014369D01*
X015282Y014170D01*
X015206Y013987D01*
X015065Y013846D01*
X014881Y013770D01*
X014682Y013770D01*
X014499Y013846D01*
X014358Y013987D01*
X014282Y014170D01*
X014282Y014369D01*
X014282Y014170D01*
X014206Y013987D01*
X014065Y013846D01*
X013881Y013770D01*
X013682Y013770D01*
X013499Y013694D01*
X013358Y013553D01*
X013282Y013369D01*
X013282Y013170D01*
X013358Y012987D01*
X013499Y012846D01*
X013682Y012770D01*
X013499Y012694D01*
X013358Y012553D01*
X013282Y012369D01*
X013282Y012170D01*
X013358Y011987D01*
X013499Y011846D01*
X013682Y011770D01*
X013499Y011694D01*
X013358Y011553D01*
X013282Y011369D01*
X013282Y011170D01*
X013358Y010987D01*
X013499Y010846D01*
X013682Y010770D01*
X013499Y010694D01*
X013358Y010553D01*
X013282Y010369D01*
X013282Y010170D01*
X013358Y009987D01*
X013499Y009846D01*
X013682Y009770D01*
X013499Y009694D01*
X013358Y009553D01*
X013282Y009369D01*
X013282Y009170D01*
X013358Y008987D01*
X013499Y008846D01*
X013682Y008770D01*
X013499Y008694D01*
X013358Y008553D01*
X013282Y008369D01*
X013282Y008170D01*
X013358Y007987D01*
X013499Y007846D01*
X013682Y007770D01*
X013881Y007770D01*
X014065Y007846D01*
X014206Y007987D01*
X014282Y008170D01*
X014358Y007987D01*
X014499Y007846D01*
X014682Y007770D01*
X014881Y007770D01*
X015065Y007846D01*
X015206Y007987D01*
X015282Y008170D01*
X015282Y008369D01*
X015206Y008553D01*
X015065Y008694D01*
X014881Y008770D01*
X015065Y008846D01*
X015206Y008987D01*
X015282Y009170D01*
X015282Y009369D01*
X015206Y009553D01*
X015065Y009694D01*
X014881Y009770D01*
X015065Y009846D01*
X015206Y009987D01*
X015282Y010170D01*
X015282Y010369D01*
X015206Y010553D01*
X015065Y010694D01*
X014881Y010770D01*
X015065Y010846D01*
X015206Y010987D01*
X015282Y011170D01*
X015282Y011369D01*
X015206Y011553D01*
X015065Y011694D01*
X014881Y011770D01*
X015065Y011846D01*
X015206Y011987D01*
X015282Y012170D01*
X015282Y012369D01*
X015206Y012553D01*
X015065Y012694D01*
X014881Y012770D01*
X015065Y012846D01*
X015206Y012987D01*
X015282Y013170D01*
X015282Y013369D01*
X015206Y013553D01*
X015065Y013694D01*
X014881Y013770D01*
X014682Y013770D01*
X014499Y013694D01*
X014358Y013553D01*
X014282Y013369D01*
X014282Y013170D01*
X014358Y012987D01*
X014499Y012846D01*
X014682Y012770D01*
X014881Y012770D01*
X014682Y012770D01*
X014499Y012694D01*
X014358Y012553D01*
X014282Y012369D01*
X014282Y012170D01*
X014358Y011987D01*
X014499Y011846D01*
X014682Y011770D01*
X014881Y011770D01*
X014682Y011770D01*
X014499Y011694D01*
X014358Y011553D01*
X014282Y011369D01*
X014282Y011170D01*
X014358Y010987D01*
X014499Y010846D01*
X014682Y010770D01*
X014881Y010770D01*
X014682Y010770D01*
X014499Y010694D01*
X014358Y010553D01*
X014282Y010369D01*
X014282Y010170D01*
X014358Y009987D01*
X014499Y009846D01*
X014682Y009770D01*
X014881Y009770D01*
X014682Y009770D01*
X014499Y009694D01*
X014358Y009553D01*
X014282Y009369D01*
X014282Y009170D01*
X014358Y008987D01*
X014499Y008846D01*
X014682Y008770D01*
X014881Y008770D01*
X014682Y008770D01*
X014499Y008694D01*
X014358Y008553D01*
X014282Y008369D01*
X014282Y008170D01*
X014282Y008369D01*
X014206Y008553D01*
X014065Y008694D01*
X013881Y008770D01*
X013682Y008770D01*
X013881Y008770D01*
X014065Y008846D01*
X014206Y008987D01*
X014282Y009170D01*
X014282Y009369D01*
X014206Y009553D01*
X014065Y009694D01*
X013881Y009770D01*
X013682Y009770D01*
X013881Y009770D01*
X014065Y009846D01*
X014206Y009987D01*
X014282Y010170D01*
X014282Y010369D01*
X014206Y010553D01*
X014065Y010694D01*
X013881Y010770D01*
X013682Y010770D01*
X013881Y010770D01*
X014065Y010846D01*
X014206Y010987D01*
X014282Y011170D01*
X014282Y011369D01*
X014206Y011553D01*
X014065Y011694D01*
X013881Y011770D01*
X013682Y011770D01*
X013881Y011770D01*
X014065Y011846D01*
X014206Y011987D01*
X014282Y012170D01*
X014282Y012369D01*
X014206Y012553D01*
X014065Y012694D01*
X013881Y012770D01*
X013682Y012770D01*
X013881Y012770D01*
X014065Y012846D01*
X014206Y012987D01*
X014282Y013170D01*
X014282Y013369D01*
X014206Y013553D01*
X014065Y013694D01*
X013881Y013770D01*
X013682Y013770D01*
X013499Y013846D01*
X013358Y013987D01*
X013282Y014170D01*
X013282Y014369D01*
X013206Y014553D01*
X013065Y014694D01*
X012881Y014770D01*
X012682Y014770D01*
X012499Y014694D01*
X012358Y014553D01*
X012282Y014369D01*
X012282Y014170D01*
X012358Y013987D01*
X012499Y013846D01*
X012682Y013770D01*
X012881Y013770D01*
X013065Y013694D01*
X013206Y013553D01*
X013282Y013369D01*
X013282Y013170D01*
X013206Y012987D01*
X013065Y012846D01*
X012881Y012770D01*
X012682Y012770D01*
X012522Y012836D01*
X012522Y012703D01*
X012682Y012770D01*
X012881Y012770D01*
X013065Y012694D01*
X013206Y012553D01*
X013282Y012369D01*
X013282Y012170D01*
X013206Y011987D01*
X013065Y011846D01*
X012881Y011770D01*
X012682Y011770D01*
X012522Y011836D01*
X012522Y011703D01*
X012682Y011770D01*
X012881Y011770D01*
X013065Y011694D01*
X013206Y011553D01*
X013282Y011369D01*
X013282Y011170D01*
X013206Y010987D01*
X013065Y010846D01*
X012881Y010770D01*
X012682Y010770D01*
X012522Y010836D01*
X012522Y010703D01*
X012682Y010770D01*
X012881Y010770D01*
X013065Y010694D01*
X013206Y010553D01*
X013282Y010369D01*
X013282Y010170D01*
X013206Y009987D01*
X013065Y009846D01*
X012881Y009770D01*
X012682Y009770D01*
X012522Y009836D01*
X012522Y009703D01*
X012682Y009770D01*
X012881Y009770D01*
X013065Y009694D01*
X013206Y009553D01*
X013282Y009369D01*
X013282Y009170D01*
X013206Y008987D01*
X013065Y008846D01*
X012881Y008770D01*
X012682Y008770D01*
X012522Y008836D01*
X012522Y008703D01*
X012682Y008770D01*
X012881Y008770D01*
X013065Y008694D01*
X013206Y008553D01*
X013282Y008369D01*
X013282Y008170D01*
X013206Y007987D01*
X013065Y007846D01*
X012881Y007770D01*
X012682Y007770D01*
X012522Y007836D01*
X012522Y007769D01*
X013481Y006810D01*
X013586Y006810D01*
X013499Y006846D01*
X013358Y006987D01*
X013282Y007170D01*
X013282Y007369D01*
X013358Y007553D01*
X013499Y007694D01*
X013682Y007770D01*
X013881Y007770D01*
X014065Y007694D01*
X014206Y007553D01*
X014282Y007369D01*
X014282Y007170D01*
X014282Y007369D01*
X014358Y007553D01*
X014499Y007694D01*
X014682Y007770D01*
X014881Y007770D01*
X015065Y007694D01*
X015206Y007553D01*
X015282Y007369D01*
X015282Y007170D01*
X015206Y006987D01*
X015065Y006846D01*
X014978Y006810D01*
X015181Y006810D01*
X015322Y006669D01*
X016781Y005210D01*
X017981Y005210D01*
X018122Y005069D01*
X018498Y004693D01*
X018499Y004694D01*
X018682Y004770D01*
X018881Y004770D01*
X019065Y004694D01*
X019206Y004553D01*
X019282Y004369D01*
X019358Y004553D01*
X019499Y004694D01*
X019682Y004770D01*
X019881Y004770D01*
X020065Y004694D01*
X020206Y004553D01*
X020282Y004369D01*
X020358Y004553D01*
X020499Y004694D01*
X020682Y004770D01*
X020881Y004770D01*
X021065Y004694D01*
X021206Y004553D01*
X021282Y004369D01*
X021282Y004170D01*
X021358Y003987D01*
X021499Y003846D01*
X021682Y003770D01*
X021881Y003770D01*
X022065Y003846D01*
X022206Y003987D01*
X022282Y004170D01*
X022282Y004369D01*
X022282Y004170D01*
X022358Y003987D01*
X022499Y003846D01*
X022682Y003770D01*
X022881Y003770D01*
X023065Y003846D01*
X023206Y003987D01*
X023282Y004170D01*
X023282Y004369D01*
X023282Y004170D01*
X023358Y003987D01*
X023499Y003846D01*
X023682Y003770D01*
X023881Y003770D01*
X024065Y003846D01*
X024206Y003987D01*
X024282Y004170D01*
X024282Y004369D01*
X024282Y004170D01*
X024358Y003987D01*
X024499Y003846D01*
X024682Y003770D01*
X024881Y003770D01*
X025065Y003846D01*
X025206Y003987D01*
X025282Y004170D01*
X025282Y004369D01*
X025282Y004170D01*
X025358Y003987D01*
X025499Y003846D01*
X025682Y003770D01*
X025881Y003770D01*
X026065Y003846D01*
X026206Y003987D01*
X026282Y004170D01*
X026282Y004369D01*
X026282Y004170D01*
X026358Y003987D01*
X026499Y003846D01*
X026682Y003770D01*
X026881Y003770D01*
X027065Y003846D01*
X027206Y003987D01*
X027282Y004170D01*
X027282Y004369D01*
X027282Y004170D01*
X027358Y003987D01*
X027499Y003846D01*
X027682Y003770D01*
X027881Y003770D01*
X028065Y003846D01*
X028206Y003987D01*
X028282Y004170D01*
X028282Y004369D01*
X028282Y004170D01*
X028358Y003987D01*
X028499Y003846D01*
X028682Y003770D01*
X028881Y003770D01*
X029065Y003846D01*
X029206Y003987D01*
X029282Y004170D01*
X029282Y004369D01*
X029282Y004170D01*
X029358Y003987D01*
X029499Y003846D01*
X029682Y003770D01*
X029881Y003770D01*
X030065Y003846D01*
X030206Y003987D01*
X030282Y004170D01*
X030282Y004369D01*
X030282Y004170D01*
X030358Y003987D01*
X030499Y003846D01*
X030682Y003770D01*
X030881Y003770D01*
X031065Y003846D01*
X031206Y003987D01*
X031282Y004170D01*
X031358Y003987D01*
X031499Y003846D01*
X031682Y003770D01*
X031499Y003694D01*
X031358Y003553D01*
X031282Y003369D01*
X031282Y003170D01*
X031282Y003369D01*
X031206Y003553D01*
X031065Y003694D01*
X030881Y003770D01*
X030682Y003770D01*
X030499Y003694D01*
X030358Y003553D01*
X030282Y003369D01*
X030282Y003170D01*
X030358Y002987D01*
X030499Y002846D01*
X030682Y002770D01*
X030881Y002770D01*
X031065Y002846D01*
X031206Y002987D01*
X031282Y003170D01*
X031358Y002987D01*
X031499Y002846D01*
X031682Y002770D01*
X031881Y002770D01*
X032065Y002846D01*
X032206Y002987D01*
X032222Y003026D01*
X032222Y001830D01*
X003342Y001830D01*
X003342Y001904D02*
X010115Y001904D01*
X010028Y001940D02*
X010257Y001845D01*
X010506Y001845D01*
X010736Y001940D01*
X010912Y002116D01*
X011007Y002346D01*
X011007Y002594D01*
X010912Y002824D01*
X010736Y003000D01*
X010506Y003095D01*
X010257Y003095D01*
X010028Y003000D01*
X009852Y002824D01*
X009757Y002594D01*
X009757Y002346D01*
X009852Y002116D01*
X010028Y001940D01*
X009905Y002063D02*
X003342Y002063D01*
X003342Y002221D02*
X003967Y002221D01*
X004112Y002161D02*
X003799Y002291D01*
X003559Y002531D01*
X003429Y002844D01*
X003429Y003184D01*
X003559Y003497D01*
X003799Y003737D01*
X004112Y003867D01*
X004451Y003867D01*
X004765Y003737D01*
X005005Y003497D01*
X005134Y003184D01*
X005134Y002844D01*
X005005Y002531D01*
X004765Y002291D01*
X004451Y002161D01*
X004112Y002161D01*
X003710Y002380D02*
X003342Y002380D01*
X003342Y002538D02*
X003556Y002538D01*
X003490Y002697D02*
X003342Y002697D01*
X003342Y002855D02*
X003429Y002855D01*
X003429Y003014D02*
X003342Y003014D01*
X003342Y003172D02*
X003429Y003172D01*
X003490Y003331D02*
X003342Y003331D01*
X003342Y003490D02*
X003556Y003490D01*
X003710Y003648D02*
X003342Y003648D01*
X003342Y003807D02*
X003967Y003807D01*
X004597Y003807D02*
X006365Y003807D01*
X006365Y003965D02*
X005591Y003965D01*
X005624Y003979D02*
X005761Y004116D01*
X005836Y004295D01*
X005836Y004489D01*
X005761Y004668D01*
X005624Y004805D01*
X005446Y004879D01*
X005252Y004879D01*
X005073Y004805D01*
X004936Y004668D01*
X004862Y004489D01*
X004862Y004295D01*
X004936Y004116D01*
X005073Y003979D01*
X005252Y003905D01*
X005446Y003905D01*
X005624Y003979D01*
X005765Y004124D02*
X006366Y004124D01*
X006365Y004282D02*
X005830Y004282D01*
X005836Y004441D02*
X006365Y004441D01*
X006365Y004599D02*
X005790Y004599D01*
X005671Y004758D02*
X006354Y004758D01*
X006304Y004916D02*
X005511Y004916D01*
X005736Y005075D02*
X006250Y005075D01*
X007125Y004758D02*
X010954Y004758D01*
X010796Y004916D02*
X007659Y004916D01*
X007713Y005075D02*
X007956Y005075D01*
X007956Y005216D02*
X008153Y005216D01*
X008186Y005216D01*
X008186Y005216D01*
X008153Y005216D01*
X007956Y005216D01*
X007856Y005234D02*
X007785Y005234D01*
X007198Y004599D02*
X011113Y004599D01*
X011271Y004441D02*
X007198Y004441D01*
X007198Y004282D02*
X011430Y004282D01*
X011589Y004124D02*
X009494Y004124D01*
X009521Y004096D02*
X009408Y004209D01*
X009261Y004270D01*
X009102Y004270D01*
X008955Y004209D01*
X008914Y004168D01*
X008816Y004267D01*
X008217Y004267D01*
X008168Y004217D01*
X008138Y004247D01*
X007866Y004247D01*
X007866Y003889D01*
X007829Y003889D01*
X007829Y004247D01*
X007556Y004247D01*
X007451Y004141D01*
X007451Y003888D01*
X007828Y003888D01*
X007828Y003851D01*
X007451Y003851D01*
X007451Y003599D01*
X007556Y003493D01*
X007829Y003493D01*
X007829Y003851D01*
X007866Y003851D01*
X007866Y003493D01*
X008138Y003493D01*
X008168Y003523D01*
X008217Y003473D01*
X008816Y003473D01*
X008914Y003572D01*
X008955Y003531D01*
X009102Y003470D01*
X009261Y003470D01*
X009408Y003531D01*
X009521Y003643D01*
X009582Y003790D01*
X009582Y003949D01*
X009521Y004096D01*
X009575Y003965D02*
X012379Y003965D01*
X012594Y003807D02*
X009582Y003807D01*
X009523Y003648D02*
X012453Y003648D01*
X012332Y003490D02*
X009309Y003490D01*
X009055Y003490D02*
X008832Y003490D01*
X008516Y003870D02*
X009182Y003870D01*
X008201Y003490D02*
X007198Y003490D01*
X007198Y003648D02*
X007451Y003648D01*
X007451Y003807D02*
X007198Y003807D01*
X007198Y003965D02*
X007451Y003965D01*
X007451Y004124D02*
X007197Y004124D01*
X006782Y003735D02*
X006782Y003070D01*
X007086Y003331D02*
X012282Y003331D01*
X012282Y003172D02*
X007172Y003172D01*
X007182Y003014D02*
X010062Y003014D01*
X009883Y002855D02*
X007126Y002855D01*
X006926Y002697D02*
X009799Y002697D01*
X009757Y002538D02*
X005008Y002538D01*
X005073Y002697D02*
X006637Y002697D01*
X006438Y002855D02*
X005134Y002855D01*
X005134Y003014D02*
X006382Y003014D01*
X006391Y003172D02*
X005134Y003172D01*
X005073Y003331D02*
X006477Y003331D01*
X006365Y003490D02*
X005008Y003490D01*
X004854Y003648D02*
X006365Y003648D01*
X005106Y003965D02*
X003342Y003965D01*
X003342Y004124D02*
X004933Y004124D01*
X004867Y004282D02*
X003342Y004282D01*
X003342Y004441D02*
X004862Y004441D01*
X004907Y004599D02*
X003342Y004599D01*
X003342Y004758D02*
X005026Y004758D01*
X005186Y004916D02*
X003342Y004916D01*
X003342Y005075D02*
X004961Y005075D01*
X004881Y005234D02*
X003342Y005234D01*
X003342Y005392D02*
X004862Y005392D01*
X004894Y005551D02*
X003342Y005551D01*
X003342Y005709D02*
X004993Y005709D01*
X004956Y005868D02*
X003342Y005868D01*
X003342Y006026D02*
X004878Y006026D01*
X004862Y006185D02*
X003342Y006185D01*
X003342Y006343D02*
X004896Y006343D01*
X004998Y006502D02*
X003342Y006502D01*
X003342Y006660D02*
X006442Y006660D01*
X006365Y006819D02*
X005708Y006819D01*
X005805Y006977D02*
X006365Y006977D01*
X006365Y007136D02*
X005836Y007136D01*
X005815Y007295D02*
X006365Y007295D01*
X006365Y007453D02*
X005782Y007453D01*
X005782Y007612D02*
X006365Y007612D01*
X006365Y007770D02*
X005782Y007770D01*
X005782Y007929D02*
X006365Y007929D01*
X006468Y008087D02*
X005782Y008087D01*
X005782Y008246D02*
X010942Y008246D01*
X010942Y008404D02*
X008344Y008404D01*
X008529Y008563D02*
X010942Y008563D01*
X010942Y008721D02*
X008582Y008721D01*
X008569Y008880D02*
X010942Y008880D01*
X010942Y009039D02*
X008479Y009039D01*
X008182Y008770D02*
X007416Y008770D01*
X007086Y008404D02*
X007078Y008404D01*
X007095Y008087D02*
X010942Y008087D01*
X010942Y007929D02*
X007889Y007929D01*
X007973Y007770D02*
X007979Y007770D01*
X007951Y007515D02*
X007951Y007488D01*
X008328Y007488D01*
X008328Y007451D01*
X007951Y007451D01*
X007951Y007199D01*
X008056Y007093D01*
X008329Y007093D01*
X008329Y007451D01*
X008366Y007451D01*
X008600Y007451D01*
X008600Y007488D01*
X008366Y007488D01*
X008366Y007451D01*
X008366Y007093D01*
X008638Y007093D01*
X008668Y007123D01*
X008717Y007073D01*
X008719Y007073D01*
X008643Y006996D01*
X008582Y006849D01*
X008582Y006709D01*
X008340Y006468D01*
X008340Y006385D01*
X008339Y006385D01*
X008319Y006405D01*
X008054Y006405D01*
X007936Y006288D01*
X007936Y006154D01*
X007822Y006269D01*
X007713Y006378D01*
X007713Y006469D01*
X007596Y006586D01*
X007037Y006586D01*
X007022Y006571D01*
X007022Y006638D01*
X007081Y006638D01*
X007198Y006756D01*
X007198Y007315D01*
X007143Y007370D01*
X007198Y007425D01*
X007261Y007425D01*
X007355Y007331D01*
X007502Y007270D01*
X007661Y007270D01*
X007808Y007331D01*
X007921Y007443D01*
X007951Y007515D01*
X007925Y007453D02*
X008328Y007453D01*
X008366Y007453D02*
X008600Y007453D01*
X008366Y007295D02*
X008329Y007295D01*
X008329Y007136D02*
X008366Y007136D01*
X008635Y006977D02*
X007198Y006977D01*
X007198Y006819D02*
X008582Y006819D01*
X008533Y006660D02*
X007103Y006660D01*
X007681Y006502D02*
X008374Y006502D01*
X007992Y006343D02*
X007748Y006343D01*
X007906Y006185D02*
X007936Y006185D01*
X009369Y006660D02*
X010952Y006660D01*
X010942Y006819D02*
X009382Y006819D01*
X009329Y006977D02*
X010942Y006977D01*
X010942Y007136D02*
X009379Y007136D01*
X009433Y007295D02*
X010942Y007295D01*
X010942Y007453D02*
X009433Y007453D01*
X009433Y007612D02*
X010942Y007612D01*
X010942Y007770D02*
X009412Y007770D01*
X008366Y007770D02*
X008329Y007770D01*
X008329Y007612D02*
X008366Y007612D01*
X007951Y007295D02*
X007721Y007295D01*
X007443Y007295D02*
X007198Y007295D01*
X007198Y007136D02*
X008013Y007136D01*
X007582Y007670D02*
X007547Y007705D01*
X006782Y007705D01*
X007747Y008404D02*
X008019Y008404D01*
X005782Y009197D02*
X010942Y009197D01*
X010942Y009356D02*
X005782Y009356D01*
X005782Y009514D02*
X010942Y009514D01*
X010942Y009673D02*
X005782Y009673D01*
X005782Y009831D02*
X010942Y009831D01*
X010942Y009990D02*
X005782Y009990D01*
X005782Y010148D02*
X010942Y010148D01*
X010942Y010307D02*
X005782Y010307D01*
X005782Y010465D02*
X007255Y010465D01*
X007165Y010624D02*
X005782Y010624D01*
X005782Y010783D02*
X007165Y010783D01*
X007165Y010941D02*
X005782Y010941D01*
X005782Y011100D02*
X007165Y011100D01*
X007165Y011258D02*
X005782Y011258D01*
X005782Y011417D02*
X007165Y011417D01*
X007165Y011575D02*
X005782Y011575D01*
X005782Y011734D02*
X007165Y011734D01*
X007228Y011892D02*
X007015Y011892D01*
X006748Y011892D02*
X005782Y011892D01*
X005782Y012051D02*
X006539Y012051D01*
X006482Y012209D02*
X005782Y012209D01*
X005782Y012368D02*
X006489Y012368D01*
X006573Y012526D02*
X005782Y012526D01*
X005632Y012685D02*
X007165Y012685D01*
X007165Y012844D02*
X005474Y012844D01*
X005315Y013002D02*
X007165Y013002D01*
X007165Y013161D02*
X005157Y013161D01*
X005134Y013319D02*
X004998Y013319D01*
X004903Y013478D02*
X004882Y013478D01*
X005429Y013319D02*
X005914Y013319D01*
X005683Y013478D02*
X005661Y013478D01*
X006209Y013319D02*
X007207Y013319D01*
X007050Y013478D02*
X006441Y013478D01*
X006523Y013636D02*
X006576Y013636D01*
X006882Y012270D02*
X006916Y012235D01*
X007582Y012235D01*
X008682Y012035D02*
X008682Y011370D01*
X009747Y011870D02*
X009747Y012605D01*
X009682Y012670D01*
X009747Y012670D01*
X009782Y012670D01*
X009682Y012670D02*
X009282Y012670D01*
X009182Y012770D01*
X009182Y013170D01*
X010416Y012670D02*
X010416Y011905D01*
X010382Y011870D01*
X010382Y011170D01*
X010834Y010783D02*
X010942Y010783D01*
X010942Y010624D02*
X010675Y010624D01*
X010942Y010465D02*
X007908Y010465D01*
X010382Y011870D02*
X010416Y011870D01*
X012522Y011734D02*
X012595Y011734D01*
X012968Y011734D02*
X013595Y011734D01*
X013452Y011892D02*
X013111Y011892D01*
X013232Y012051D02*
X013331Y012051D01*
X013282Y012209D02*
X013282Y012209D01*
X013282Y012368D02*
X013282Y012368D01*
X013217Y012526D02*
X013347Y012526D01*
X013490Y012685D02*
X013074Y012685D01*
X013059Y012844D02*
X013504Y012844D01*
X013351Y013002D02*
X013212Y013002D01*
X013278Y013161D02*
X013286Y013161D01*
X013282Y013319D02*
X013282Y013319D01*
X013237Y013478D02*
X013327Y013478D01*
X013441Y013636D02*
X013122Y013636D01*
X012941Y013795D02*
X013622Y013795D01*
X013391Y013953D02*
X013172Y013953D01*
X013257Y014112D02*
X013306Y014112D01*
X013282Y014270D02*
X013282Y014270D01*
X013257Y014429D02*
X013306Y014429D01*
X013392Y014588D02*
X013171Y014588D01*
X012939Y014746D02*
X013625Y014746D01*
X013939Y014746D02*
X014625Y014746D01*
X014392Y014588D02*
X014171Y014588D01*
X014257Y014429D02*
X014306Y014429D01*
X014282Y014270D02*
X014282Y014270D01*
X014257Y014112D02*
X014306Y014112D01*
X014391Y013953D02*
X014172Y013953D01*
X013941Y013795D02*
X014622Y013795D01*
X014441Y013636D02*
X014122Y013636D01*
X014237Y013478D02*
X014327Y013478D01*
X014282Y013319D02*
X014282Y013319D01*
X014278Y013161D02*
X014286Y013161D01*
X014351Y013002D02*
X014212Y013002D01*
X014059Y012844D02*
X014504Y012844D01*
X014490Y012685D02*
X014074Y012685D01*
X014217Y012526D02*
X014347Y012526D01*
X014282Y012368D02*
X014282Y012368D01*
X014282Y012209D02*
X014282Y012209D01*
X014232Y012051D02*
X014331Y012051D01*
X014452Y011892D02*
X014111Y011892D01*
X013968Y011734D02*
X014595Y011734D01*
X014380Y011575D02*
X014183Y011575D01*
X014262Y011417D02*
X014301Y011417D01*
X014282Y011258D02*
X014282Y011258D01*
X014252Y011100D02*
X014311Y011100D01*
X014403Y010941D02*
X014160Y010941D01*
X013912Y010783D02*
X014652Y010783D01*
X014912Y010783D02*
X015652Y010783D01*
X015912Y010783D02*
X016652Y010783D01*
X016912Y010783D02*
X017652Y010783D01*
X017912Y010783D02*
X018652Y010783D01*
X018912Y010783D02*
X019652Y010783D01*
X019912Y010783D02*
X020652Y010783D01*
X020912Y010783D02*
X021652Y010783D01*
X021912Y010783D02*
X022652Y010783D01*
X022912Y010783D02*
X023652Y010783D01*
X023912Y010783D02*
X024652Y010783D01*
X024912Y010783D02*
X025652Y010783D01*
X025912Y010783D02*
X026652Y010783D01*
X026912Y010783D02*
X027652Y010783D01*
X027912Y010783D02*
X028652Y010783D01*
X028912Y010783D02*
X029652Y010783D01*
X029912Y010783D02*
X030652Y010783D01*
X030912Y010783D02*
X031652Y010783D01*
X031912Y010783D02*
X032222Y010783D01*
X032222Y010941D02*
X032160Y010941D01*
X032135Y010624D02*
X032222Y010624D01*
X031429Y010624D02*
X031135Y010624D01*
X031242Y010465D02*
X031322Y010465D01*
X031282Y010307D02*
X031282Y010307D01*
X031273Y010148D02*
X031291Y010148D01*
X031357Y009990D02*
X031207Y009990D01*
X031029Y009831D02*
X031534Y009831D01*
X031477Y009673D02*
X031086Y009673D01*
X031222Y009514D02*
X031342Y009514D01*
X031282Y009356D02*
X031282Y009356D01*
X031282Y009197D02*
X031282Y009197D01*
X031336Y009039D02*
X031227Y009039D01*
X031099Y008880D02*
X031465Y008880D01*
X031565Y008721D02*
X030998Y008721D01*
X031196Y008563D02*
X031368Y008563D01*
X031296Y008404D02*
X031267Y008404D01*
X031282Y008246D02*
X031282Y008246D01*
X031247Y008087D02*
X031316Y008087D01*
X031416Y007929D02*
X031148Y007929D01*
X030882Y007770D02*
X031682Y007770D01*
X031882Y007770D02*
X032222Y007770D01*
X032222Y007612D02*
X032147Y007612D01*
X032148Y007929D02*
X032222Y007929D01*
X031416Y007612D02*
X031147Y007612D01*
X031247Y007453D02*
X031316Y007453D01*
X031282Y007295D02*
X031282Y007295D01*
X031267Y007136D02*
X031296Y007136D01*
X031367Y006977D02*
X031196Y006977D01*
X030999Y006819D02*
X031564Y006819D01*
X031465Y006660D02*
X031098Y006660D01*
X031227Y006502D02*
X031337Y006502D01*
X031282Y006343D02*
X031282Y006343D01*
X031282Y006185D02*
X031282Y006185D01*
X031222Y006026D02*
X031341Y006026D01*
X031477Y005868D02*
X031087Y005868D01*
X030477Y005868D02*
X030087Y005868D01*
X030222Y006026D02*
X030341Y006026D01*
X030282Y006185D02*
X030282Y006185D01*
X030282Y006343D02*
X030282Y006343D01*
X030227Y006502D02*
X030337Y006502D01*
X030465Y006660D02*
X030098Y006660D01*
X029999Y006819D02*
X030564Y006819D01*
X030367Y006977D02*
X030196Y006977D01*
X030267Y007136D02*
X030296Y007136D01*
X030282Y007295D02*
X030282Y007295D01*
X030247Y007453D02*
X030316Y007453D01*
X030416Y007612D02*
X030147Y007612D01*
X029882Y007770D02*
X030682Y007770D01*
X030416Y007929D02*
X030148Y007929D01*
X030247Y008087D02*
X030316Y008087D01*
X030282Y008246D02*
X030282Y008246D01*
X030267Y008404D02*
X030296Y008404D01*
X030368Y008563D02*
X030196Y008563D01*
X029998Y008721D02*
X030565Y008721D01*
X030465Y008880D02*
X030099Y008880D01*
X030227Y009039D02*
X030336Y009039D01*
X030282Y009197D02*
X030282Y009197D01*
X030282Y009356D02*
X030282Y009356D01*
X030222Y009514D02*
X030342Y009514D01*
X030477Y009673D02*
X030086Y009673D01*
X030029Y009831D02*
X030534Y009831D01*
X030357Y009990D02*
X030207Y009990D01*
X030273Y010148D02*
X030291Y010148D01*
X030282Y010307D02*
X030282Y010307D01*
X030242Y010465D02*
X030322Y010465D01*
X030429Y010624D02*
X030135Y010624D01*
X030160Y010941D02*
X030403Y010941D01*
X030311Y011100D02*
X030252Y011100D01*
X030282Y011258D02*
X030282Y011258D01*
X030262Y011417D02*
X030301Y011417D01*
X030380Y011575D02*
X030183Y011575D01*
X029968Y011734D02*
X030595Y011734D01*
X030452Y011892D02*
X030111Y011892D01*
X030232Y012051D02*
X030331Y012051D01*
X030282Y012209D02*
X030282Y012209D01*
X030282Y012368D02*
X030282Y012368D01*
X030217Y012526D02*
X030347Y012526D01*
X030490Y012685D02*
X030074Y012685D01*
X030059Y012844D02*
X030504Y012844D01*
X030351Y013002D02*
X030212Y013002D01*
X030278Y013161D02*
X030286Y013161D01*
X030282Y013319D02*
X030282Y013319D01*
X030237Y013478D02*
X030327Y013478D01*
X030441Y013636D02*
X030122Y013636D01*
X029941Y013795D02*
X030622Y013795D01*
X030391Y013953D02*
X030172Y013953D01*
X030257Y014112D02*
X030306Y014112D01*
X030282Y014270D02*
X030282Y014270D01*
X030257Y014429D02*
X030306Y014429D01*
X030392Y014588D02*
X030171Y014588D01*
X029939Y014746D02*
X030625Y014746D01*
X030939Y014746D02*
X031625Y014746D01*
X031392Y014588D02*
X031171Y014588D01*
X031257Y014429D02*
X031306Y014429D01*
X031282Y014270D02*
X031282Y014270D01*
X031257Y014112D02*
X031306Y014112D01*
X031391Y013953D02*
X031172Y013953D01*
X030941Y013795D02*
X031622Y013795D01*
X031441Y013636D02*
X031122Y013636D01*
X031237Y013478D02*
X031327Y013478D01*
X031282Y013319D02*
X031282Y013319D01*
X031278Y013161D02*
X031286Y013161D01*
X031351Y013002D02*
X031212Y013002D01*
X031059Y012844D02*
X031504Y012844D01*
X031490Y012685D02*
X031074Y012685D01*
X031217Y012526D02*
X031347Y012526D01*
X031282Y012368D02*
X031282Y012368D01*
X031282Y012209D02*
X031282Y012209D01*
X031232Y012051D02*
X031331Y012051D01*
X031452Y011892D02*
X031111Y011892D01*
X030968Y011734D02*
X031595Y011734D01*
X031380Y011575D02*
X031183Y011575D01*
X031262Y011417D02*
X031301Y011417D01*
X031282Y011258D02*
X031282Y011258D01*
X031252Y011100D02*
X031311Y011100D01*
X031403Y010941D02*
X031160Y010941D01*
X032183Y011575D02*
X032222Y011575D01*
X032222Y011734D02*
X031968Y011734D01*
X032111Y011892D02*
X032222Y011892D01*
X032217Y012526D02*
X032222Y012526D01*
X032222Y012685D02*
X032074Y012685D01*
X032059Y012844D02*
X032222Y012844D01*
X032212Y013002D02*
X032222Y013002D01*
X032222Y013636D02*
X032122Y013636D01*
X032222Y013795D02*
X031941Y013795D01*
X032172Y013953D02*
X032222Y013953D01*
X032222Y014588D02*
X032171Y014588D01*
X032222Y014746D02*
X031939Y014746D01*
X032222Y014905D02*
X031124Y014905D01*
X031237Y015063D02*
X032222Y015063D01*
X032222Y015222D02*
X031282Y015222D01*
X031277Y015380D02*
X032222Y015380D01*
X032222Y015539D02*
X031212Y015539D01*
X031056Y015697D02*
X032222Y015697D01*
X032222Y015856D02*
X032075Y015856D01*
X032217Y016014D02*
X032222Y016014D01*
X031489Y015856D02*
X031075Y015856D01*
X031217Y016014D02*
X031346Y016014D01*
X031282Y016173D02*
X031282Y016173D01*
X031282Y016332D02*
X031282Y016332D01*
X031232Y016490D02*
X031332Y016490D01*
X031453Y016649D02*
X031110Y016649D01*
X030971Y016807D02*
X031592Y016807D01*
X031379Y016966D02*
X031185Y016966D01*
X031263Y017124D02*
X031301Y017124D01*
X031282Y017283D02*
X031282Y017283D01*
X031252Y017441D02*
X031312Y017441D01*
X031405Y017600D02*
X031159Y017600D01*
X030909Y017758D02*
X031655Y017758D01*
X031909Y017758D02*
X032222Y017758D01*
X032222Y017600D02*
X032159Y017600D01*
X032222Y017917D02*
X024854Y017917D01*
X024882Y017758D02*
X025655Y017758D01*
X025682Y017770D02*
X025499Y017694D01*
X025358Y017553D01*
X025282Y017369D01*
X025282Y017170D01*
X025358Y016987D01*
X025499Y016846D01*
X025682Y016770D01*
X025499Y016694D01*
X025358Y016553D01*
X025282Y016369D01*
X025282Y016170D01*
X025358Y015987D01*
X025499Y015846D01*
X025682Y015770D01*
X025881Y015770D01*
X026065Y015846D01*
X026206Y015987D01*
X026282Y016170D01*
X026358Y015987D01*
X026499Y015846D01*
X026682Y015770D01*
X026881Y015770D01*
X027065Y015846D01*
X027206Y015987D01*
X027282Y016170D01*
X027282Y016369D01*
X027358Y016553D01*
X027499Y016694D01*
X027682Y016770D01*
X027881Y016770D01*
X028065Y016694D01*
X028206Y016553D01*
X028282Y016369D01*
X028358Y016553D01*
X028499Y016694D01*
X028682Y016770D01*
X028881Y016770D01*
X029065Y016694D01*
X029206Y016553D01*
X029282Y016369D01*
X029358Y016553D01*
X029499Y016694D01*
X029682Y016770D01*
X029881Y016770D01*
X030065Y016694D01*
X030206Y016553D01*
X030282Y016369D01*
X030282Y016170D01*
X030206Y015987D01*
X030065Y015846D01*
X029881Y015770D01*
X029682Y015770D01*
X029499Y015846D01*
X029358Y015987D01*
X029282Y016170D01*
X029282Y016369D01*
X029282Y016170D01*
X029206Y015987D01*
X029065Y015846D01*
X028881Y015770D01*
X028682Y015770D01*
X028499Y015846D01*
X028358Y015987D01*
X028282Y016170D01*
X028282Y016369D01*
X028282Y016170D01*
X028206Y015987D01*
X028065Y015846D01*
X027881Y015770D01*
X027682Y015770D01*
X027499Y015846D01*
X027358Y015987D01*
X027282Y016170D01*
X027282Y016369D01*
X027206Y016553D01*
X027065Y016694D01*
X026881Y016770D01*
X026682Y016770D01*
X026499Y016694D01*
X026358Y016553D01*
X026282Y016369D01*
X026282Y016170D01*
X026282Y016369D01*
X026206Y016553D01*
X026065Y016694D01*
X025881Y016770D01*
X025682Y016770D01*
X025881Y016770D01*
X026065Y016846D01*
X026206Y016987D01*
X026282Y017170D01*
X026358Y016987D01*
X026499Y016846D01*
X026682Y016770D01*
X026881Y016770D01*
X027065Y016846D01*
X027206Y016987D01*
X027282Y017170D01*
X027358Y016987D01*
X027499Y016846D01*
X027682Y016770D01*
X027881Y016770D01*
X028065Y016846D01*
X028206Y016987D01*
X028282Y017170D01*
X028358Y016987D01*
X028499Y016846D01*
X028682Y016770D01*
X028881Y016770D01*
X029065Y016846D01*
X029206Y016987D01*
X029282Y017170D01*
X029358Y016987D01*
X029499Y016846D01*
X029682Y016770D01*
X029881Y016770D01*
X030065Y016846D01*
X030206Y016987D01*
X030282Y017170D01*
X030282Y017369D01*
X030206Y017553D01*
X030065Y017694D01*
X029881Y017770D01*
X029682Y017770D01*
X029499Y017694D01*
X029358Y017553D01*
X029282Y017369D01*
X029282Y017170D01*
X029282Y017369D01*
X029206Y017553D01*
X029065Y017694D01*
X028881Y017770D01*
X028682Y017770D01*
X028499Y017694D01*
X028358Y017553D01*
X028282Y017369D01*
X028282Y017170D01*
X028282Y017369D01*
X028206Y017553D01*
X028065Y017694D01*
X027881Y017770D01*
X027682Y017770D01*
X027499Y017694D01*
X027358Y017553D01*
X027282Y017369D01*
X027282Y017170D01*
X027282Y017369D01*
X027206Y017553D01*
X027065Y017694D01*
X026881Y017770D01*
X026682Y017770D01*
X026499Y017694D01*
X026358Y017553D01*
X026282Y017369D01*
X026282Y017170D01*
X026282Y017369D01*
X026206Y017553D01*
X026065Y017694D01*
X025881Y017770D01*
X025682Y017770D01*
X025909Y017758D02*
X026655Y017758D01*
X026909Y017758D02*
X027655Y017758D01*
X027909Y017758D02*
X028655Y017758D01*
X028909Y017758D02*
X029655Y017758D01*
X029909Y017758D02*
X030655Y017758D01*
X030405Y017600D02*
X030159Y017600D01*
X030252Y017441D02*
X030312Y017441D01*
X030282Y017283D02*
X030282Y017283D01*
X030263Y017124D02*
X030301Y017124D01*
X030379Y016966D02*
X030185Y016966D01*
X029971Y016807D02*
X030592Y016807D01*
X030453Y016649D02*
X030110Y016649D01*
X030232Y016490D02*
X030332Y016490D01*
X030282Y016332D02*
X030282Y016332D01*
X030282Y016173D02*
X030282Y016173D01*
X030217Y016014D02*
X030346Y016014D01*
X030489Y015856D02*
X030075Y015856D01*
X030507Y015697D02*
X025120Y015697D01*
X024961Y015856D02*
X025489Y015856D01*
X025346Y016014D02*
X024882Y016014D01*
X024882Y016173D02*
X025282Y016173D01*
X025282Y016332D02*
X024882Y016332D01*
X024882Y016490D02*
X025332Y016490D01*
X025453Y016649D02*
X024879Y016649D01*
X024879Y016807D02*
X025592Y016807D01*
X025379Y016966D02*
X024879Y016966D01*
X024879Y017124D02*
X025301Y017124D01*
X025282Y017283D02*
X024879Y017283D01*
X024841Y017441D02*
X025312Y017441D01*
X025405Y017600D02*
X024844Y017600D01*
X024482Y017770D02*
X024482Y017105D01*
X024085Y017124D02*
X024082Y017124D01*
X024082Y016966D02*
X024085Y016966D01*
X024082Y017283D02*
X024085Y017283D01*
X024082Y017441D02*
X024122Y017441D01*
X024119Y017600D02*
X024082Y017600D01*
X024082Y017758D02*
X024082Y017758D01*
X024082Y017917D02*
X024110Y017917D01*
X024082Y018076D02*
X024222Y018076D01*
X024082Y018234D02*
X032222Y018234D01*
X032222Y018076D02*
X024742Y018076D01*
X024082Y018393D02*
X032222Y018393D01*
X032222Y018551D02*
X024066Y018551D01*
X023908Y018710D02*
X032222Y018710D01*
X029405Y017600D02*
X029159Y017600D01*
X029252Y017441D02*
X029312Y017441D01*
X029282Y017283D02*
X029282Y017283D01*
X029263Y017124D02*
X029301Y017124D01*
X029379Y016966D02*
X029185Y016966D01*
X028971Y016807D02*
X029592Y016807D01*
X029453Y016649D02*
X029110Y016649D01*
X029232Y016490D02*
X029332Y016490D01*
X029282Y016332D02*
X029282Y016332D01*
X029282Y016173D02*
X029282Y016173D01*
X029217Y016014D02*
X029346Y016014D01*
X029489Y015856D02*
X029075Y015856D01*
X028489Y015856D02*
X028075Y015856D01*
X028217Y016014D02*
X028346Y016014D01*
X028282Y016173D02*
X028282Y016173D01*
X028282Y016332D02*
X028282Y016332D01*
X028232Y016490D02*
X028332Y016490D01*
X028453Y016649D02*
X028110Y016649D01*
X027971Y016807D02*
X028592Y016807D01*
X028379Y016966D02*
X028185Y016966D01*
X028263Y017124D02*
X028301Y017124D01*
X028282Y017283D02*
X028282Y017283D01*
X028252Y017441D02*
X028312Y017441D01*
X028405Y017600D02*
X028159Y017600D01*
X027405Y017600D02*
X027159Y017600D01*
X027252Y017441D02*
X027312Y017441D01*
X027282Y017283D02*
X027282Y017283D01*
X027263Y017124D02*
X027301Y017124D01*
X027379Y016966D02*
X027185Y016966D01*
X026971Y016807D02*
X027592Y016807D01*
X027453Y016649D02*
X027110Y016649D01*
X027232Y016490D02*
X027332Y016490D01*
X027282Y016332D02*
X027282Y016332D01*
X027282Y016173D02*
X027282Y016173D01*
X027217Y016014D02*
X027346Y016014D01*
X027489Y015856D02*
X027075Y015856D01*
X026489Y015856D02*
X026075Y015856D01*
X026217Y016014D02*
X026346Y016014D01*
X026282Y016173D02*
X026282Y016173D01*
X026282Y016332D02*
X026282Y016332D01*
X026232Y016490D02*
X026332Y016490D01*
X026453Y016649D02*
X026110Y016649D01*
X025971Y016807D02*
X026592Y016807D01*
X026379Y016966D02*
X026185Y016966D01*
X026263Y017124D02*
X026301Y017124D01*
X026282Y017283D02*
X026282Y017283D01*
X026252Y017441D02*
X026312Y017441D01*
X026405Y017600D02*
X026159Y017600D01*
X023613Y016173D02*
X022282Y016173D01*
X022282Y016170D02*
X022282Y016369D01*
X022206Y016553D01*
X022065Y016694D01*
X021881Y016770D01*
X021682Y016770D01*
X021499Y016694D01*
X021358Y016553D01*
X021282Y016369D01*
X021282Y016170D01*
X021358Y015987D01*
X021499Y015846D01*
X021682Y015770D01*
X021881Y015770D01*
X022065Y015846D01*
X022206Y015987D01*
X022282Y016170D01*
X022282Y016332D02*
X023454Y016332D01*
X023296Y016490D02*
X022232Y016490D01*
X022110Y016649D02*
X023282Y016649D01*
X023282Y016807D02*
X021971Y016807D01*
X021881Y016770D02*
X022065Y016846D01*
X022206Y016987D01*
X022282Y017170D01*
X022282Y017369D01*
X022206Y017553D01*
X022065Y017694D01*
X021881Y017770D01*
X021682Y017770D01*
X021499Y017694D01*
X021358Y017553D01*
X021282Y017369D01*
X021282Y017170D01*
X021358Y016987D01*
X021499Y016846D01*
X021682Y016770D01*
X021881Y016770D01*
X021592Y016807D02*
X020971Y016807D01*
X020881Y016770D02*
X021065Y016846D01*
X021206Y016987D01*
X021282Y017170D01*
X021282Y017369D01*
X021206Y017553D01*
X021065Y017694D01*
X020881Y017770D01*
X020682Y017770D01*
X020499Y017694D01*
X020358Y017553D01*
X020282Y017369D01*
X020282Y017170D01*
X020358Y016987D01*
X020499Y016846D01*
X020682Y016770D01*
X020499Y016694D01*
X020358Y016553D01*
X020282Y016369D01*
X020282Y016170D01*
X020358Y015987D01*
X020499Y015846D01*
X020682Y015770D01*
X020881Y015770D01*
X021065Y015846D01*
X021206Y015987D01*
X021282Y016170D01*
X021282Y016369D01*
X021206Y016553D01*
X021065Y016694D01*
X020881Y016770D01*
X020682Y016770D01*
X020881Y016770D01*
X021110Y016649D02*
X021453Y016649D01*
X021332Y016490D02*
X021232Y016490D01*
X021282Y016332D02*
X021282Y016332D01*
X021282Y016173D02*
X021282Y016173D01*
X021217Y016014D02*
X021346Y016014D01*
X021489Y015856D02*
X021075Y015856D01*
X020489Y015856D02*
X020075Y015856D01*
X020065Y015846D02*
X020206Y015987D01*
X020282Y016170D01*
X020282Y016369D01*
X020206Y016553D01*
X020065Y016694D01*
X019881Y016770D01*
X019682Y016770D01*
X019499Y016694D01*
X019358Y016553D01*
X019282Y016369D01*
X019282Y016170D01*
X019358Y015987D01*
X019499Y015846D01*
X019682Y015770D01*
X019881Y015770D01*
X020065Y015846D01*
X020217Y016014D02*
X020346Y016014D01*
X020282Y016173D02*
X020282Y016173D01*
X020282Y016332D02*
X020282Y016332D01*
X020232Y016490D02*
X020332Y016490D01*
X020453Y016649D02*
X020110Y016649D01*
X020054Y016863D02*
X020189Y016998D01*
X020262Y017174D01*
X020262Y017250D01*
X019802Y017250D01*
X019802Y017290D01*
X020262Y017290D01*
X020262Y017365D01*
X020189Y017542D01*
X020054Y017677D01*
X019877Y017750D01*
X019802Y017750D01*
X019802Y017290D01*
X019762Y017290D01*
X019762Y017750D01*
X019686Y017750D01*
X019510Y017677D01*
X019375Y017542D01*
X019302Y017365D01*
X019302Y017290D01*
X019761Y017290D01*
X019761Y017250D01*
X019302Y017250D01*
X019302Y017174D01*
X019375Y016998D01*
X019510Y016863D01*
X019686Y016790D01*
X019762Y016790D01*
X019762Y017250D01*
X019802Y017250D01*
X019802Y016790D01*
X019877Y016790D01*
X020054Y016863D01*
X020156Y016966D02*
X020379Y016966D01*
X020301Y017124D02*
X020241Y017124D01*
X020282Y017283D02*
X019802Y017283D01*
X019761Y017283D02*
X018802Y017283D01*
X018802Y017290D02*
X019262Y017290D01*
X019262Y017365D01*
X019189Y017542D01*
X019054Y017677D01*
X018877Y017750D01*
X018802Y017750D01*
X018802Y017290D01*
X018802Y017250D01*
X019262Y017250D01*
X019262Y017174D01*
X019189Y016998D01*
X019054Y016863D01*
X018877Y016790D01*
X018802Y016790D01*
X018802Y017250D01*
X018762Y017250D01*
X018762Y016790D01*
X018686Y016790D01*
X018510Y016863D01*
X018375Y016998D01*
X018302Y017174D01*
X018302Y017250D01*
X018761Y017250D01*
X018761Y017290D01*
X018302Y017290D01*
X018302Y017365D01*
X018375Y017542D01*
X018510Y017677D01*
X018686Y017750D01*
X018762Y017750D01*
X018762Y017290D01*
X018802Y017290D01*
X018761Y017283D02*
X018282Y017283D01*
X018282Y017369D02*
X018206Y017553D01*
X018065Y017694D01*
X017881Y017770D01*
X017682Y017770D01*
X017499Y017694D01*
X017358Y017553D01*
X017282Y017369D01*
X017282Y017170D01*
X017358Y016987D01*
X017499Y016846D01*
X017682Y016770D01*
X017499Y016694D01*
X017358Y016553D01*
X017282Y016369D01*
X017282Y016170D01*
X017358Y015987D01*
X017499Y015846D01*
X017682Y015770D01*
X017881Y015770D01*
X018065Y015846D01*
X018206Y015987D01*
X018282Y016170D01*
X018358Y015987D01*
X018499Y015846D01*
X018682Y015770D01*
X018881Y015770D01*
X019065Y015846D01*
X019206Y015987D01*
X019282Y016170D01*
X019282Y016369D01*
X019206Y016553D01*
X019065Y016694D01*
X018881Y016770D01*
X018682Y016770D01*
X018499Y016694D01*
X018358Y016553D01*
X018282Y016369D01*
X018282Y016170D01*
X018282Y016369D01*
X018206Y016553D01*
X018065Y016694D01*
X017881Y016770D01*
X017682Y016770D01*
X017881Y016770D01*
X018065Y016846D01*
X018206Y016987D01*
X018282Y017170D01*
X018282Y017369D01*
X018252Y017441D02*
X018333Y017441D01*
X018433Y017600D02*
X018159Y017600D01*
X017909Y017758D02*
X020655Y017758D01*
X020909Y017758D02*
X021655Y017758D01*
X021909Y017758D02*
X023282Y017758D01*
X023282Y017600D02*
X022159Y017600D01*
X022252Y017441D02*
X023282Y017441D01*
X023282Y017283D02*
X022282Y017283D01*
X022263Y017124D02*
X023282Y017124D01*
X023282Y016966D02*
X022185Y016966D01*
X021379Y016966D02*
X021185Y016966D01*
X021263Y017124D02*
X021301Y017124D01*
X021282Y017283D02*
X021282Y017283D01*
X021252Y017441D02*
X021312Y017441D01*
X021405Y017600D02*
X021159Y017600D01*
X020405Y017600D02*
X020131Y017600D01*
X020230Y017441D02*
X020312Y017441D01*
X019802Y017441D02*
X019762Y017441D01*
X019762Y017600D02*
X019802Y017600D01*
X019433Y017600D02*
X019131Y017600D01*
X019230Y017441D02*
X019333Y017441D01*
X019322Y017124D02*
X019241Y017124D01*
X019156Y016966D02*
X019407Y016966D01*
X019645Y016807D02*
X018919Y016807D01*
X018802Y016807D02*
X018762Y016807D01*
X018645Y016807D02*
X017971Y016807D01*
X018110Y016649D02*
X018453Y016649D01*
X018332Y016490D02*
X018232Y016490D01*
X018282Y016332D02*
X018282Y016332D01*
X018282Y016173D02*
X018282Y016173D01*
X018217Y016014D02*
X018346Y016014D01*
X018489Y015856D02*
X018075Y015856D01*
X017489Y015856D02*
X017075Y015856D01*
X017065Y015846D02*
X017206Y015987D01*
X017282Y016170D01*
X017282Y016369D01*
X017206Y016553D01*
X017065Y016694D01*
X016881Y016770D01*
X016682Y016770D01*
X016499Y016694D01*
X016358Y016553D01*
X016282Y016369D01*
X016282Y016170D01*
X016358Y015987D01*
X016499Y015846D01*
X016682Y015770D01*
X016881Y015770D01*
X017065Y015846D01*
X017217Y016014D02*
X017346Y016014D01*
X017282Y016173D02*
X017282Y016173D01*
X017282Y016332D02*
X017282Y016332D01*
X017232Y016490D02*
X017332Y016490D01*
X017453Y016649D02*
X017110Y016649D01*
X017065Y016846D02*
X016881Y016770D01*
X016682Y016770D01*
X016499Y016846D01*
X016358Y016987D01*
X016282Y017170D01*
X016282Y017369D01*
X016358Y017553D01*
X016499Y017694D01*
X016682Y017770D01*
X016881Y017770D01*
X017065Y017694D01*
X017206Y017553D01*
X017282Y017369D01*
X017282Y017170D01*
X017206Y016987D01*
X017065Y016846D01*
X016971Y016807D02*
X017592Y016807D01*
X017379Y016966D02*
X017185Y016966D01*
X017263Y017124D02*
X017301Y017124D01*
X017282Y017283D02*
X017282Y017283D01*
X017252Y017441D02*
X017312Y017441D01*
X017405Y017600D02*
X017159Y017600D01*
X016909Y017758D02*
X017655Y017758D01*
X018263Y017124D02*
X018322Y017124D01*
X018407Y016966D02*
X018185Y016966D01*
X018762Y016966D02*
X018802Y016966D01*
X018802Y017124D02*
X018762Y017124D01*
X018762Y017441D02*
X018802Y017441D01*
X018802Y017600D02*
X018762Y017600D01*
X019762Y017124D02*
X019802Y017124D01*
X019802Y016966D02*
X019762Y016966D01*
X019762Y016807D02*
X019802Y016807D01*
X019919Y016807D02*
X020592Y016807D01*
X019453Y016649D02*
X019110Y016649D01*
X019232Y016490D02*
X019332Y016490D01*
X019282Y016332D02*
X019282Y016332D01*
X019282Y016173D02*
X019282Y016173D01*
X019217Y016014D02*
X019346Y016014D01*
X019489Y015856D02*
X019075Y015856D01*
X018939Y014746D02*
X019625Y014746D01*
X019392Y014588D02*
X019171Y014588D01*
X019257Y014429D02*
X019306Y014429D01*
X019282Y014270D02*
X019282Y014270D01*
X019257Y014112D02*
X019306Y014112D01*
X019391Y013953D02*
X019172Y013953D01*
X018941Y013795D02*
X019622Y013795D01*
X019441Y013636D02*
X019122Y013636D01*
X019237Y013478D02*
X019327Y013478D01*
X019282Y013319D02*
X019282Y013319D01*
X019278Y013161D02*
X019286Y013161D01*
X019351Y013002D02*
X019212Y013002D01*
X019059Y012844D02*
X019504Y012844D01*
X019490Y012685D02*
X019074Y012685D01*
X019217Y012526D02*
X019347Y012526D01*
X019282Y012368D02*
X019282Y012368D01*
X019282Y012209D02*
X019282Y012209D01*
X019232Y012051D02*
X019331Y012051D01*
X019452Y011892D02*
X019111Y011892D01*
X018968Y011734D02*
X019595Y011734D01*
X019380Y011575D02*
X019183Y011575D01*
X019262Y011417D02*
X019301Y011417D01*
X019282Y011258D02*
X019282Y011258D01*
X019252Y011100D02*
X019311Y011100D01*
X019403Y010941D02*
X019160Y010941D01*
X019135Y010624D02*
X019429Y010624D01*
X019322Y010465D02*
X019242Y010465D01*
X019282Y010307D02*
X019282Y010307D01*
X019273Y010148D02*
X019291Y010148D01*
X019357Y009990D02*
X019207Y009990D01*
X019029Y009831D02*
X019534Y009831D01*
X019477Y009673D02*
X019086Y009673D01*
X019222Y009514D02*
X019342Y009514D01*
X019282Y009356D02*
X019282Y009356D01*
X019282Y009197D02*
X019282Y009197D01*
X019336Y009039D02*
X019227Y009039D01*
X019099Y008880D02*
X019465Y008880D01*
X019565Y008721D02*
X018998Y008721D01*
X019196Y008563D02*
X019368Y008563D01*
X019296Y008404D02*
X019267Y008404D01*
X019282Y008246D02*
X019282Y008246D01*
X019247Y008087D02*
X019316Y008087D01*
X019416Y007929D02*
X019148Y007929D01*
X018882Y007770D02*
X019682Y007770D01*
X019882Y007770D02*
X020682Y007770D01*
X020882Y007770D02*
X021682Y007770D01*
X021882Y007770D02*
X022682Y007770D01*
X022882Y007770D02*
X023682Y007770D01*
X023882Y007770D02*
X024682Y007770D01*
X024882Y007770D02*
X025682Y007770D01*
X025882Y007770D02*
X026682Y007770D01*
X026882Y007770D02*
X027682Y007770D01*
X027882Y007770D02*
X028682Y007770D01*
X028882Y007770D02*
X029682Y007770D01*
X029416Y007612D02*
X029147Y007612D01*
X029247Y007453D02*
X029316Y007453D01*
X029282Y007295D02*
X029282Y007295D01*
X029267Y007136D02*
X029296Y007136D01*
X029367Y006977D02*
X029196Y006977D01*
X028999Y006819D02*
X029564Y006819D01*
X029465Y006660D02*
X029098Y006660D01*
X029227Y006502D02*
X029337Y006502D01*
X029282Y006343D02*
X029282Y006343D01*
X029282Y006185D02*
X029282Y006185D01*
X029222Y006026D02*
X029341Y006026D01*
X029477Y005868D02*
X029087Y005868D01*
X028477Y005868D02*
X028087Y005868D01*
X028222Y006026D02*
X028341Y006026D01*
X028282Y006185D02*
X028282Y006185D01*
X028282Y006343D02*
X028282Y006343D01*
X028227Y006502D02*
X028337Y006502D01*
X028465Y006660D02*
X028098Y006660D01*
X027999Y006819D02*
X028564Y006819D01*
X028367Y006977D02*
X028196Y006977D01*
X028267Y007136D02*
X028296Y007136D01*
X028282Y007295D02*
X028282Y007295D01*
X028247Y007453D02*
X028316Y007453D01*
X028416Y007612D02*
X028147Y007612D01*
X028148Y007929D02*
X028416Y007929D01*
X028316Y008087D02*
X028247Y008087D01*
X028282Y008246D02*
X028282Y008246D01*
X028267Y008404D02*
X028296Y008404D01*
X028368Y008563D02*
X028196Y008563D01*
X027998Y008721D02*
X028565Y008721D01*
X028465Y008880D02*
X028099Y008880D01*
X028227Y009039D02*
X028336Y009039D01*
X028282Y009197D02*
X028282Y009197D01*
X028282Y009356D02*
X028282Y009356D01*
X028222Y009514D02*
X028342Y009514D01*
X028477Y009673D02*
X028086Y009673D01*
X028029Y009831D02*
X028534Y009831D01*
X028357Y009990D02*
X028207Y009990D01*
X028273Y010148D02*
X028291Y010148D01*
X028282Y010307D02*
X028282Y010307D01*
X028242Y010465D02*
X028322Y010465D01*
X028429Y010624D02*
X028135Y010624D01*
X028160Y010941D02*
X028403Y010941D01*
X028311Y011100D02*
X028252Y011100D01*
X028282Y011258D02*
X028282Y011258D01*
X028262Y011417D02*
X028301Y011417D01*
X028380Y011575D02*
X028183Y011575D01*
X027968Y011734D02*
X028595Y011734D01*
X028452Y011892D02*
X028111Y011892D01*
X028232Y012051D02*
X028331Y012051D01*
X028282Y012209D02*
X028282Y012209D01*
X028282Y012368D02*
X028282Y012368D01*
X028217Y012526D02*
X028347Y012526D01*
X028490Y012685D02*
X028074Y012685D01*
X028059Y012844D02*
X028504Y012844D01*
X028351Y013002D02*
X028212Y013002D01*
X028278Y013161D02*
X028286Y013161D01*
X028282Y013319D02*
X028282Y013319D01*
X028237Y013478D02*
X028327Y013478D01*
X028441Y013636D02*
X028122Y013636D01*
X027941Y013795D02*
X028622Y013795D01*
X028391Y013953D02*
X028172Y013953D01*
X028257Y014112D02*
X028306Y014112D01*
X028282Y014270D02*
X028282Y014270D01*
X028257Y014429D02*
X028306Y014429D01*
X028392Y014588D02*
X028171Y014588D01*
X027939Y014746D02*
X028625Y014746D01*
X028939Y014746D02*
X029625Y014746D01*
X029392Y014588D02*
X029171Y014588D01*
X029257Y014429D02*
X029306Y014429D01*
X029282Y014270D02*
X029282Y014270D01*
X029257Y014112D02*
X029306Y014112D01*
X029391Y013953D02*
X029172Y013953D01*
X028941Y013795D02*
X029622Y013795D01*
X029441Y013636D02*
X029122Y013636D01*
X029237Y013478D02*
X029327Y013478D01*
X029282Y013319D02*
X029282Y013319D01*
X029278Y013161D02*
X029286Y013161D01*
X029351Y013002D02*
X029212Y013002D01*
X029059Y012844D02*
X029504Y012844D01*
X029490Y012685D02*
X029074Y012685D01*
X029217Y012526D02*
X029347Y012526D01*
X029282Y012368D02*
X029282Y012368D01*
X029282Y012209D02*
X029282Y012209D01*
X029232Y012051D02*
X029331Y012051D01*
X029452Y011892D02*
X029111Y011892D01*
X028968Y011734D02*
X029595Y011734D01*
X029380Y011575D02*
X029183Y011575D01*
X029262Y011417D02*
X029301Y011417D01*
X029282Y011258D02*
X029282Y011258D01*
X029252Y011100D02*
X029311Y011100D01*
X029403Y010941D02*
X029160Y010941D01*
X029135Y010624D02*
X029429Y010624D01*
X029322Y010465D02*
X029242Y010465D01*
X029282Y010307D02*
X029282Y010307D01*
X029273Y010148D02*
X029291Y010148D01*
X029357Y009990D02*
X029207Y009990D01*
X029029Y009831D02*
X029534Y009831D01*
X029477Y009673D02*
X029086Y009673D01*
X029222Y009514D02*
X029342Y009514D01*
X029282Y009356D02*
X029282Y009356D01*
X029282Y009197D02*
X029282Y009197D01*
X029336Y009039D02*
X029227Y009039D01*
X029099Y008880D02*
X029465Y008880D01*
X029565Y008721D02*
X028998Y008721D01*
X029196Y008563D02*
X029368Y008563D01*
X029296Y008404D02*
X029267Y008404D01*
X029282Y008246D02*
X029282Y008246D01*
X029247Y008087D02*
X029316Y008087D01*
X029416Y007929D02*
X029148Y007929D01*
X027565Y008721D02*
X026998Y008721D01*
X027099Y008880D02*
X027465Y008880D01*
X027336Y009039D02*
X027227Y009039D01*
X027282Y009197D02*
X027282Y009197D01*
X027282Y009356D02*
X027282Y009356D01*
X027222Y009514D02*
X027342Y009514D01*
X027477Y009673D02*
X027086Y009673D01*
X027029Y009831D02*
X027534Y009831D01*
X027357Y009990D02*
X027207Y009990D01*
X027273Y010148D02*
X027291Y010148D01*
X027282Y010307D02*
X027282Y010307D01*
X027242Y010465D02*
X027322Y010465D01*
X027429Y010624D02*
X027135Y010624D01*
X027160Y010941D02*
X027403Y010941D01*
X027311Y011100D02*
X027252Y011100D01*
X027282Y011258D02*
X027282Y011258D01*
X027262Y011417D02*
X027301Y011417D01*
X027380Y011575D02*
X027183Y011575D01*
X026968Y011734D02*
X027595Y011734D01*
X027452Y011892D02*
X027111Y011892D01*
X027232Y012051D02*
X027331Y012051D01*
X027282Y012209D02*
X027282Y012209D01*
X027282Y012368D02*
X027282Y012368D01*
X027217Y012526D02*
X027347Y012526D01*
X027490Y012685D02*
X027074Y012685D01*
X027059Y012844D02*
X027504Y012844D01*
X027351Y013002D02*
X027212Y013002D01*
X027278Y013161D02*
X027286Y013161D01*
X027282Y013319D02*
X027282Y013319D01*
X027237Y013478D02*
X027327Y013478D01*
X027441Y013636D02*
X027122Y013636D01*
X026941Y013795D02*
X027622Y013795D01*
X027391Y013953D02*
X027172Y013953D01*
X027257Y014112D02*
X027306Y014112D01*
X027282Y014270D02*
X027282Y014270D01*
X027257Y014429D02*
X027306Y014429D01*
X027392Y014588D02*
X027171Y014588D01*
X026939Y014746D02*
X027625Y014746D01*
X026625Y014746D02*
X025939Y014746D01*
X026171Y014588D02*
X026392Y014588D01*
X026306Y014429D02*
X026257Y014429D01*
X026282Y014270D02*
X026282Y014270D01*
X026257Y014112D02*
X026306Y014112D01*
X026391Y013953D02*
X026172Y013953D01*
X025941Y013795D02*
X026622Y013795D01*
X026441Y013636D02*
X026122Y013636D01*
X026237Y013478D02*
X026327Y013478D01*
X026282Y013319D02*
X026282Y013319D01*
X026278Y013161D02*
X026286Y013161D01*
X026351Y013002D02*
X026212Y013002D01*
X026059Y012844D02*
X026504Y012844D01*
X026490Y012685D02*
X026074Y012685D01*
X026217Y012526D02*
X026347Y012526D01*
X026282Y012368D02*
X026282Y012368D01*
X026282Y012209D02*
X026282Y012209D01*
X026232Y012051D02*
X026331Y012051D01*
X026452Y011892D02*
X026111Y011892D01*
X025968Y011734D02*
X026595Y011734D01*
X026380Y011575D02*
X026183Y011575D01*
X026262Y011417D02*
X026301Y011417D01*
X026282Y011258D02*
X026282Y011258D01*
X026252Y011100D02*
X026311Y011100D01*
X026403Y010941D02*
X026160Y010941D01*
X026135Y010624D02*
X026429Y010624D01*
X026322Y010465D02*
X026242Y010465D01*
X026282Y010307D02*
X026282Y010307D01*
X026273Y010148D02*
X026291Y010148D01*
X026357Y009990D02*
X026207Y009990D01*
X026029Y009831D02*
X026534Y009831D01*
X026477Y009673D02*
X026086Y009673D01*
X026222Y009514D02*
X026342Y009514D01*
X026282Y009356D02*
X026282Y009356D01*
X026282Y009197D02*
X026282Y009197D01*
X026336Y009039D02*
X026227Y009039D01*
X026099Y008880D02*
X026465Y008880D01*
X026565Y008721D02*
X025998Y008721D01*
X026196Y008563D02*
X026368Y008563D01*
X026296Y008404D02*
X026267Y008404D01*
X026282Y008246D02*
X026282Y008246D01*
X026247Y008087D02*
X026316Y008087D01*
X026416Y007929D02*
X026148Y007929D01*
X026147Y007612D02*
X026416Y007612D01*
X026316Y007453D02*
X026247Y007453D01*
X026282Y007295D02*
X026282Y007295D01*
X026267Y007136D02*
X026296Y007136D01*
X026367Y006977D02*
X026196Y006977D01*
X025999Y006819D02*
X026564Y006819D01*
X026465Y006660D02*
X026098Y006660D01*
X026227Y006502D02*
X026337Y006502D01*
X026282Y006343D02*
X026282Y006343D01*
X026282Y006185D02*
X026282Y006185D01*
X026222Y006026D02*
X026341Y006026D01*
X026477Y005868D02*
X026087Y005868D01*
X025477Y005868D02*
X025087Y005868D01*
X025222Y006026D02*
X025341Y006026D01*
X025282Y006185D02*
X025282Y006185D01*
X025282Y006343D02*
X025282Y006343D01*
X025227Y006502D02*
X025337Y006502D01*
X025465Y006660D02*
X025098Y006660D01*
X024999Y006819D02*
X025564Y006819D01*
X025367Y006977D02*
X025196Y006977D01*
X025267Y007136D02*
X025296Y007136D01*
X025282Y007295D02*
X025282Y007295D01*
X025247Y007453D02*
X025316Y007453D01*
X025416Y007612D02*
X025147Y007612D01*
X025148Y007929D02*
X025416Y007929D01*
X025316Y008087D02*
X025247Y008087D01*
X025282Y008246D02*
X025282Y008246D01*
X025267Y008404D02*
X025296Y008404D01*
X025368Y008563D02*
X025196Y008563D01*
X024998Y008721D02*
X025565Y008721D01*
X025465Y008880D02*
X025099Y008880D01*
X025227Y009039D02*
X025336Y009039D01*
X025282Y009197D02*
X025282Y009197D01*
X025282Y009356D02*
X025282Y009356D01*
X025222Y009514D02*
X025342Y009514D01*
X025477Y009673D02*
X025086Y009673D01*
X025029Y009831D02*
X025534Y009831D01*
X025357Y009990D02*
X025207Y009990D01*
X025273Y010148D02*
X025291Y010148D01*
X025282Y010307D02*
X025282Y010307D01*
X025242Y010465D02*
X025322Y010465D01*
X025429Y010624D02*
X025135Y010624D01*
X025160Y010941D02*
X025403Y010941D01*
X025311Y011100D02*
X025252Y011100D01*
X025282Y011258D02*
X025282Y011258D01*
X025262Y011417D02*
X025301Y011417D01*
X025380Y011575D02*
X025183Y011575D01*
X024968Y011734D02*
X025595Y011734D01*
X025452Y011892D02*
X025111Y011892D01*
X025232Y012051D02*
X025331Y012051D01*
X025282Y012209D02*
X025282Y012209D01*
X025282Y012368D02*
X025282Y012368D01*
X025217Y012526D02*
X025347Y012526D01*
X025490Y012685D02*
X025074Y012685D01*
X025059Y012844D02*
X025504Y012844D01*
X025351Y013002D02*
X025212Y013002D01*
X025278Y013161D02*
X025286Y013161D01*
X025282Y013319D02*
X025282Y013319D01*
X025237Y013478D02*
X025327Y013478D01*
X025441Y013636D02*
X025122Y013636D01*
X024941Y013795D02*
X025622Y013795D01*
X025391Y013953D02*
X025172Y013953D01*
X025257Y014112D02*
X025306Y014112D01*
X025282Y014270D02*
X025282Y014270D01*
X025257Y014429D02*
X025306Y014429D01*
X025392Y014588D02*
X025171Y014588D01*
X024939Y014746D02*
X025625Y014746D01*
X024781Y014905D02*
X011445Y014905D01*
X011508Y014931D02*
X011621Y015043D01*
X011682Y015190D01*
X011682Y015349D01*
X011621Y015496D01*
X011562Y015556D01*
X011562Y015586D01*
X011798Y015586D01*
X011915Y015703D01*
X011915Y016656D01*
X011798Y016773D01*
X010766Y016773D01*
X010649Y016656D01*
X010649Y015703D01*
X010766Y015586D01*
X011002Y015586D01*
X011002Y015556D01*
X010943Y015496D01*
X010882Y015349D01*
X010882Y015190D01*
X010943Y015043D01*
X011055Y014931D01*
X011202Y014870D01*
X011361Y014870D01*
X011508Y014931D01*
X011629Y015063D02*
X024623Y015063D01*
X024464Y015222D02*
X011682Y015222D01*
X011669Y015380D02*
X024306Y015380D01*
X024147Y015539D02*
X011578Y015539D01*
X011909Y015697D02*
X024082Y015697D01*
X024082Y015856D02*
X022075Y015856D01*
X022217Y016014D02*
X024082Y016014D01*
X023939Y014746D02*
X024625Y014746D01*
X024392Y014588D02*
X024171Y014588D01*
X024257Y014429D02*
X024306Y014429D01*
X024282Y014270D02*
X024282Y014270D01*
X024257Y014112D02*
X024306Y014112D01*
X024391Y013953D02*
X024172Y013953D01*
X023941Y013795D02*
X024622Y013795D01*
X024441Y013636D02*
X024122Y013636D01*
X024237Y013478D02*
X024327Y013478D01*
X024282Y013319D02*
X024282Y013319D01*
X024278Y013161D02*
X024286Y013161D01*
X024351Y013002D02*
X024212Y013002D01*
X024059Y012844D02*
X024504Y012844D01*
X024490Y012685D02*
X024074Y012685D01*
X024217Y012526D02*
X024347Y012526D01*
X024282Y012368D02*
X024282Y012368D01*
X024282Y012209D02*
X024282Y012209D01*
X024232Y012051D02*
X024331Y012051D01*
X024452Y011892D02*
X024111Y011892D01*
X023968Y011734D02*
X024595Y011734D01*
X024380Y011575D02*
X024183Y011575D01*
X024262Y011417D02*
X024301Y011417D01*
X024282Y011258D02*
X024282Y011258D01*
X024252Y011100D02*
X024311Y011100D01*
X024403Y010941D02*
X024160Y010941D01*
X024135Y010624D02*
X024429Y010624D01*
X024322Y010465D02*
X024242Y010465D01*
X024282Y010307D02*
X024282Y010307D01*
X024273Y010148D02*
X024291Y010148D01*
X024357Y009990D02*
X024207Y009990D01*
X024029Y009831D02*
X024534Y009831D01*
X024477Y009673D02*
X024086Y009673D01*
X024222Y009514D02*
X024342Y009514D01*
X024282Y009356D02*
X024282Y009356D01*
X024282Y009197D02*
X024282Y009197D01*
X024336Y009039D02*
X024227Y009039D01*
X024099Y008880D02*
X024465Y008880D01*
X024565Y008721D02*
X023998Y008721D01*
X024196Y008563D02*
X024368Y008563D01*
X024296Y008404D02*
X024267Y008404D01*
X024282Y008246D02*
X024282Y008246D01*
X024247Y008087D02*
X024316Y008087D01*
X024416Y007929D02*
X024148Y007929D01*
X024147Y007612D02*
X024416Y007612D01*
X024316Y007453D02*
X024247Y007453D01*
X024282Y007295D02*
X024282Y007295D01*
X024267Y007136D02*
X024296Y007136D01*
X024367Y006977D02*
X024196Y006977D01*
X023999Y006819D02*
X024564Y006819D01*
X024465Y006660D02*
X024098Y006660D01*
X024227Y006502D02*
X024337Y006502D01*
X024282Y006343D02*
X024282Y006343D01*
X024282Y006185D02*
X024282Y006185D01*
X024222Y006026D02*
X024341Y006026D01*
X024477Y005868D02*
X024087Y005868D01*
X023477Y005868D02*
X023087Y005868D01*
X023222Y006026D02*
X023341Y006026D01*
X023282Y006185D02*
X023282Y006185D01*
X023282Y006343D02*
X023282Y006343D01*
X023227Y006502D02*
X023337Y006502D01*
X023465Y006660D02*
X023098Y006660D01*
X022999Y006819D02*
X023564Y006819D01*
X023367Y006977D02*
X023196Y006977D01*
X023267Y007136D02*
X023296Y007136D01*
X023282Y007295D02*
X023282Y007295D01*
X023247Y007453D02*
X023316Y007453D01*
X023416Y007612D02*
X023147Y007612D01*
X023148Y007929D02*
X023416Y007929D01*
X023316Y008087D02*
X023247Y008087D01*
X023282Y008246D02*
X023282Y008246D01*
X023267Y008404D02*
X023296Y008404D01*
X023368Y008563D02*
X023196Y008563D01*
X022998Y008721D02*
X023565Y008721D01*
X023465Y008880D02*
X023099Y008880D01*
X023227Y009039D02*
X023336Y009039D01*
X023282Y009197D02*
X023282Y009197D01*
X023282Y009356D02*
X023282Y009356D01*
X023222Y009514D02*
X023342Y009514D01*
X023477Y009673D02*
X023086Y009673D01*
X023029Y009831D02*
X023534Y009831D01*
X023357Y009990D02*
X023207Y009990D01*
X023273Y010148D02*
X023291Y010148D01*
X023282Y010307D02*
X023282Y010307D01*
X023242Y010465D02*
X023322Y010465D01*
X023429Y010624D02*
X023135Y010624D01*
X023160Y010941D02*
X023403Y010941D01*
X023311Y011100D02*
X023252Y011100D01*
X023282Y011258D02*
X023282Y011258D01*
X023262Y011417D02*
X023301Y011417D01*
X023380Y011575D02*
X023183Y011575D01*
X022968Y011734D02*
X023595Y011734D01*
X023452Y011892D02*
X023111Y011892D01*
X023232Y012051D02*
X023331Y012051D01*
X023282Y012209D02*
X023282Y012209D01*
X023282Y012368D02*
X023282Y012368D01*
X023217Y012526D02*
X023347Y012526D01*
X023490Y012685D02*
X023074Y012685D01*
X023059Y012844D02*
X023504Y012844D01*
X023351Y013002D02*
X023212Y013002D01*
X023278Y013161D02*
X023286Y013161D01*
X023282Y013319D02*
X023282Y013319D01*
X023237Y013478D02*
X023327Y013478D01*
X023441Y013636D02*
X023122Y013636D01*
X022941Y013795D02*
X023622Y013795D01*
X023391Y013953D02*
X023172Y013953D01*
X023257Y014112D02*
X023306Y014112D01*
X023282Y014270D02*
X023282Y014270D01*
X023257Y014429D02*
X023306Y014429D01*
X023392Y014588D02*
X023171Y014588D01*
X022939Y014746D02*
X023625Y014746D01*
X022625Y014746D02*
X021939Y014746D01*
X022171Y014588D02*
X022392Y014588D01*
X022306Y014429D02*
X022257Y014429D01*
X022282Y014270D02*
X022282Y014270D01*
X022257Y014112D02*
X022306Y014112D01*
X022391Y013953D02*
X022172Y013953D01*
X021941Y013795D02*
X022622Y013795D01*
X022441Y013636D02*
X022122Y013636D01*
X022237Y013478D02*
X022327Y013478D01*
X022282Y013319D02*
X022282Y013319D01*
X022278Y013161D02*
X022286Y013161D01*
X022351Y013002D02*
X022212Y013002D01*
X022059Y012844D02*
X022504Y012844D01*
X022490Y012685D02*
X022074Y012685D01*
X022217Y012526D02*
X022347Y012526D01*
X022282Y012368D02*
X022282Y012368D01*
X022282Y012209D02*
X022282Y012209D01*
X022232Y012051D02*
X022331Y012051D01*
X022452Y011892D02*
X022111Y011892D01*
X021968Y011734D02*
X022595Y011734D01*
X022380Y011575D02*
X022183Y011575D01*
X022262Y011417D02*
X022301Y011417D01*
X022282Y011258D02*
X022282Y011258D01*
X022252Y011100D02*
X022311Y011100D01*
X022403Y010941D02*
X022160Y010941D01*
X022135Y010624D02*
X022429Y010624D01*
X022322Y010465D02*
X022242Y010465D01*
X022282Y010307D02*
X022282Y010307D01*
X022273Y010148D02*
X022291Y010148D01*
X022357Y009990D02*
X022207Y009990D01*
X022029Y009831D02*
X022534Y009831D01*
X022477Y009673D02*
X022086Y009673D01*
X022222Y009514D02*
X022342Y009514D01*
X022282Y009356D02*
X022282Y009356D01*
X022282Y009197D02*
X022282Y009197D01*
X022336Y009039D02*
X022227Y009039D01*
X022099Y008880D02*
X022465Y008880D01*
X022565Y008721D02*
X021998Y008721D01*
X022196Y008563D02*
X022368Y008563D01*
X022296Y008404D02*
X022267Y008404D01*
X022282Y008246D02*
X022282Y008246D01*
X022247Y008087D02*
X022316Y008087D01*
X022416Y007929D02*
X022148Y007929D01*
X022147Y007612D02*
X022416Y007612D01*
X022316Y007453D02*
X022247Y007453D01*
X022282Y007295D02*
X022282Y007295D01*
X022267Y007136D02*
X022296Y007136D01*
X022367Y006977D02*
X022196Y006977D01*
X021999Y006819D02*
X022564Y006819D01*
X022465Y006660D02*
X022098Y006660D01*
X022227Y006502D02*
X022337Y006502D01*
X022282Y006343D02*
X022282Y006343D01*
X022282Y006185D02*
X022282Y006185D01*
X022222Y006026D02*
X022341Y006026D01*
X022477Y005868D02*
X022087Y005868D01*
X021477Y005868D02*
X021087Y005868D01*
X021222Y006026D02*
X021341Y006026D01*
X021282Y006185D02*
X021282Y006185D01*
X021282Y006343D02*
X021282Y006343D01*
X021227Y006502D02*
X021337Y006502D01*
X021465Y006660D02*
X021098Y006660D01*
X020999Y006819D02*
X021564Y006819D01*
X021367Y006977D02*
X021196Y006977D01*
X021267Y007136D02*
X021296Y007136D01*
X021282Y007295D02*
X021282Y007295D01*
X021247Y007453D02*
X021316Y007453D01*
X021416Y007612D02*
X021147Y007612D01*
X021148Y007929D02*
X021416Y007929D01*
X021316Y008087D02*
X021247Y008087D01*
X021282Y008246D02*
X021282Y008246D01*
X021267Y008404D02*
X021296Y008404D01*
X021368Y008563D02*
X021196Y008563D01*
X020998Y008721D02*
X021565Y008721D01*
X021465Y008880D02*
X021099Y008880D01*
X021227Y009039D02*
X021336Y009039D01*
X021282Y009197D02*
X021282Y009197D01*
X021282Y009356D02*
X021282Y009356D01*
X021222Y009514D02*
X021342Y009514D01*
X021477Y009673D02*
X021086Y009673D01*
X021029Y009831D02*
X021534Y009831D01*
X021357Y009990D02*
X021207Y009990D01*
X021273Y010148D02*
X021291Y010148D01*
X021282Y010307D02*
X021282Y010307D01*
X021242Y010465D02*
X021322Y010465D01*
X021429Y010624D02*
X021135Y010624D01*
X021160Y010941D02*
X021403Y010941D01*
X021311Y011100D02*
X021252Y011100D01*
X021282Y011258D02*
X021282Y011258D01*
X021262Y011417D02*
X021301Y011417D01*
X021380Y011575D02*
X021183Y011575D01*
X020968Y011734D02*
X021595Y011734D01*
X021452Y011892D02*
X021111Y011892D01*
X021232Y012051D02*
X021331Y012051D01*
X021282Y012209D02*
X021282Y012209D01*
X021282Y012368D02*
X021282Y012368D01*
X021217Y012526D02*
X021347Y012526D01*
X021490Y012685D02*
X021074Y012685D01*
X021059Y012844D02*
X021504Y012844D01*
X021351Y013002D02*
X021212Y013002D01*
X021278Y013161D02*
X021286Y013161D01*
X021282Y013319D02*
X021282Y013319D01*
X021237Y013478D02*
X021327Y013478D01*
X021441Y013636D02*
X021122Y013636D01*
X020941Y013795D02*
X021622Y013795D01*
X021391Y013953D02*
X021172Y013953D01*
X021257Y014112D02*
X021306Y014112D01*
X021282Y014270D02*
X021282Y014270D01*
X021257Y014429D02*
X021306Y014429D01*
X021392Y014588D02*
X021171Y014588D01*
X020939Y014746D02*
X021625Y014746D01*
X020625Y014746D02*
X019939Y014746D01*
X020171Y014588D02*
X020392Y014588D01*
X020306Y014429D02*
X020257Y014429D01*
X020282Y014270D02*
X020282Y014270D01*
X020257Y014112D02*
X020306Y014112D01*
X020391Y013953D02*
X020172Y013953D01*
X019941Y013795D02*
X020622Y013795D01*
X020441Y013636D02*
X020122Y013636D01*
X020237Y013478D02*
X020327Y013478D01*
X020282Y013319D02*
X020282Y013319D01*
X020278Y013161D02*
X020286Y013161D01*
X020351Y013002D02*
X020212Y013002D01*
X020059Y012844D02*
X020504Y012844D01*
X020490Y012685D02*
X020074Y012685D01*
X020217Y012526D02*
X020347Y012526D01*
X020282Y012368D02*
X020282Y012368D01*
X020282Y012209D02*
X020282Y012209D01*
X020232Y012051D02*
X020331Y012051D01*
X020452Y011892D02*
X020111Y011892D01*
X019968Y011734D02*
X020595Y011734D01*
X020380Y011575D02*
X020183Y011575D01*
X020262Y011417D02*
X020301Y011417D01*
X020282Y011258D02*
X020282Y011258D01*
X020252Y011100D02*
X020311Y011100D01*
X020403Y010941D02*
X020160Y010941D01*
X020135Y010624D02*
X020429Y010624D01*
X020322Y010465D02*
X020242Y010465D01*
X020282Y010307D02*
X020282Y010307D01*
X020273Y010148D02*
X020291Y010148D01*
X020357Y009990D02*
X020207Y009990D01*
X020029Y009831D02*
X020534Y009831D01*
X020477Y009673D02*
X020086Y009673D01*
X020222Y009514D02*
X020342Y009514D01*
X020282Y009356D02*
X020282Y009356D01*
X020282Y009197D02*
X020282Y009197D01*
X020336Y009039D02*
X020227Y009039D01*
X020099Y008880D02*
X020465Y008880D01*
X020565Y008721D02*
X019998Y008721D01*
X020196Y008563D02*
X020368Y008563D01*
X020296Y008404D02*
X020267Y008404D01*
X020282Y008246D02*
X020282Y008246D01*
X020247Y008087D02*
X020316Y008087D01*
X020416Y007929D02*
X020148Y007929D01*
X020147Y007612D02*
X020416Y007612D01*
X020316Y007453D02*
X020247Y007453D01*
X020282Y007295D02*
X020282Y007295D01*
X020267Y007136D02*
X020296Y007136D01*
X020367Y006977D02*
X020196Y006977D01*
X019999Y006819D02*
X020564Y006819D01*
X020465Y006660D02*
X020098Y006660D01*
X020227Y006502D02*
X020337Y006502D01*
X020282Y006343D02*
X020282Y006343D01*
X020282Y006185D02*
X020282Y006185D01*
X020222Y006026D02*
X020341Y006026D01*
X020477Y005868D02*
X020087Y005868D01*
X019477Y005868D02*
X019087Y005868D01*
X019222Y006026D02*
X019341Y006026D01*
X019282Y006185D02*
X019282Y006185D01*
X019282Y006343D02*
X019282Y006343D01*
X019227Y006502D02*
X019337Y006502D01*
X019465Y006660D02*
X019098Y006660D01*
X018999Y006819D02*
X019564Y006819D01*
X019367Y006977D02*
X019196Y006977D01*
X019267Y007136D02*
X019296Y007136D01*
X019282Y007295D02*
X019282Y007295D01*
X019247Y007453D02*
X019316Y007453D01*
X019416Y007612D02*
X019147Y007612D01*
X018682Y007770D02*
X017882Y007770D01*
X017682Y007770D02*
X016882Y007770D01*
X016682Y007770D02*
X015882Y007770D01*
X015682Y007770D02*
X014882Y007770D01*
X014682Y007770D02*
X013882Y007770D01*
X013682Y007770D02*
X012882Y007770D01*
X012682Y007770D02*
X012522Y007770D01*
X012679Y007612D02*
X013416Y007612D01*
X013316Y007453D02*
X012838Y007453D01*
X012996Y007295D02*
X013282Y007295D01*
X013296Y007136D02*
X013155Y007136D01*
X013314Y006977D02*
X013367Y006977D01*
X013472Y006819D02*
X013564Y006819D01*
X013978Y006810D02*
X014065Y006846D01*
X014206Y006987D01*
X014282Y007170D01*
X014358Y006987D01*
X014499Y006846D01*
X014586Y006810D01*
X013978Y006810D01*
X013999Y006819D02*
X014564Y006819D01*
X014367Y006977D02*
X014196Y006977D01*
X014267Y007136D02*
X014296Y007136D01*
X014282Y007295D02*
X014282Y007295D01*
X014247Y007453D02*
X014316Y007453D01*
X014416Y007612D02*
X014147Y007612D01*
X014148Y007929D02*
X014416Y007929D01*
X014316Y008087D02*
X014247Y008087D01*
X014282Y008246D02*
X014282Y008246D01*
X014267Y008404D02*
X014296Y008404D01*
X014368Y008563D02*
X014196Y008563D01*
X013998Y008721D02*
X014565Y008721D01*
X014465Y008880D02*
X014099Y008880D01*
X014227Y009039D02*
X014336Y009039D01*
X014282Y009197D02*
X014282Y009197D01*
X014282Y009356D02*
X014282Y009356D01*
X014222Y009514D02*
X014342Y009514D01*
X014477Y009673D02*
X014086Y009673D01*
X014029Y009831D02*
X014534Y009831D01*
X014357Y009990D02*
X014207Y009990D01*
X014273Y010148D02*
X014291Y010148D01*
X014282Y010307D02*
X014282Y010307D01*
X014242Y010465D02*
X014322Y010465D01*
X014429Y010624D02*
X014135Y010624D01*
X013652Y010783D02*
X012912Y010783D01*
X012652Y010783D02*
X012522Y010783D01*
X013135Y010624D02*
X013429Y010624D01*
X013322Y010465D02*
X013242Y010465D01*
X013282Y010307D02*
X013282Y010307D01*
X013273Y010148D02*
X013291Y010148D01*
X013357Y009990D02*
X013207Y009990D01*
X013029Y009831D02*
X013534Y009831D01*
X013477Y009673D02*
X013086Y009673D01*
X013222Y009514D02*
X013342Y009514D01*
X013282Y009356D02*
X013282Y009356D01*
X013282Y009197D02*
X013282Y009197D01*
X013336Y009039D02*
X013227Y009039D01*
X013099Y008880D02*
X013465Y008880D01*
X013565Y008721D02*
X012998Y008721D01*
X013196Y008563D02*
X013368Y008563D01*
X013296Y008404D02*
X013267Y008404D01*
X013282Y008246D02*
X013282Y008246D01*
X013247Y008087D02*
X013316Y008087D01*
X013416Y007929D02*
X013148Y007929D01*
X012565Y008721D02*
X012522Y008721D01*
X012522Y009831D02*
X012534Y009831D01*
X013160Y010941D02*
X013403Y010941D01*
X013311Y011100D02*
X013252Y011100D01*
X013282Y011258D02*
X013282Y011258D01*
X013262Y011417D02*
X013301Y011417D01*
X013380Y011575D02*
X013183Y011575D01*
X014968Y011734D02*
X015595Y011734D01*
X015452Y011892D02*
X015111Y011892D01*
X015232Y012051D02*
X015331Y012051D01*
X015282Y012209D02*
X015282Y012209D01*
X015282Y012368D02*
X015282Y012368D01*
X015217Y012526D02*
X015347Y012526D01*
X015490Y012685D02*
X015074Y012685D01*
X015059Y012844D02*
X015504Y012844D01*
X015351Y013002D02*
X015212Y013002D01*
X015278Y013161D02*
X015286Y013161D01*
X015282Y013319D02*
X015282Y013319D01*
X015237Y013478D02*
X015327Y013478D01*
X015441Y013636D02*
X015122Y013636D01*
X014941Y013795D02*
X015622Y013795D01*
X015391Y013953D02*
X015172Y013953D01*
X015257Y014112D02*
X015306Y014112D01*
X015282Y014270D02*
X015282Y014270D01*
X015257Y014429D02*
X015306Y014429D01*
X015392Y014588D02*
X015171Y014588D01*
X014939Y014746D02*
X015625Y014746D01*
X015939Y014746D02*
X016625Y014746D01*
X016392Y014588D02*
X016171Y014588D01*
X016257Y014429D02*
X016306Y014429D01*
X016282Y014270D02*
X016282Y014270D01*
X016257Y014112D02*
X016306Y014112D01*
X016391Y013953D02*
X016172Y013953D01*
X015941Y013795D02*
X016622Y013795D01*
X016441Y013636D02*
X016122Y013636D01*
X016237Y013478D02*
X016327Y013478D01*
X016282Y013319D02*
X016282Y013319D01*
X016278Y013161D02*
X016286Y013161D01*
X016351Y013002D02*
X016212Y013002D01*
X016059Y012844D02*
X016504Y012844D01*
X016490Y012685D02*
X016074Y012685D01*
X016217Y012526D02*
X016347Y012526D01*
X016282Y012368D02*
X016282Y012368D01*
X016282Y012209D02*
X016282Y012209D01*
X016232Y012051D02*
X016331Y012051D01*
X016452Y011892D02*
X016111Y011892D01*
X015968Y011734D02*
X016595Y011734D01*
X016380Y011575D02*
X016183Y011575D01*
X016262Y011417D02*
X016301Y011417D01*
X016282Y011258D02*
X016282Y011258D01*
X016252Y011100D02*
X016311Y011100D01*
X016403Y010941D02*
X016160Y010941D01*
X016135Y010624D02*
X016429Y010624D01*
X016322Y010465D02*
X016242Y010465D01*
X016282Y010307D02*
X016282Y010307D01*
X016273Y010148D02*
X016291Y010148D01*
X016357Y009990D02*
X016207Y009990D01*
X016029Y009831D02*
X016534Y009831D01*
X016477Y009673D02*
X016086Y009673D01*
X016222Y009514D02*
X016342Y009514D01*
X016282Y009356D02*
X016282Y009356D01*
X016282Y009197D02*
X016282Y009197D01*
X016336Y009039D02*
X016227Y009039D01*
X016099Y008880D02*
X016465Y008880D01*
X016565Y008721D02*
X015998Y008721D01*
X016196Y008563D02*
X016368Y008563D01*
X016296Y008404D02*
X016267Y008404D01*
X016282Y008246D02*
X016282Y008246D01*
X016247Y008087D02*
X016316Y008087D01*
X016416Y007929D02*
X016148Y007929D01*
X016147Y007612D02*
X016416Y007612D01*
X016316Y007453D02*
X016247Y007453D01*
X016282Y007295D02*
X016282Y007295D01*
X016267Y007136D02*
X016296Y007136D01*
X016367Y006977D02*
X016196Y006977D01*
X015999Y006819D02*
X016564Y006819D01*
X016465Y006660D02*
X015331Y006660D01*
X015489Y006502D02*
X016337Y006502D01*
X016282Y006343D02*
X015648Y006343D01*
X015806Y006185D02*
X016282Y006185D01*
X016341Y006026D02*
X015965Y006026D01*
X016123Y005868D02*
X016477Y005868D01*
X016282Y005709D02*
X032222Y005709D01*
X032222Y005551D02*
X016440Y005551D01*
X016599Y005392D02*
X032222Y005392D01*
X032222Y005234D02*
X016757Y005234D01*
X016978Y004730D02*
X017586Y004730D01*
X017499Y004694D01*
X017358Y004553D01*
X017282Y004369D01*
X017282Y004170D01*
X017282Y004369D01*
X017206Y004553D01*
X017065Y004694D01*
X016978Y004730D01*
X017159Y004599D02*
X017404Y004599D01*
X017311Y004441D02*
X017252Y004441D01*
X017282Y004282D02*
X017282Y004282D01*
X017282Y004170D02*
X017206Y003987D01*
X017065Y003846D01*
X016881Y003770D01*
X016682Y003770D01*
X016578Y003813D01*
X016639Y003752D01*
X016682Y003770D01*
X016881Y003770D01*
X017065Y003694D01*
X017206Y003553D01*
X017282Y003369D01*
X017358Y003553D01*
X017499Y003694D01*
X017682Y003770D01*
X017881Y003770D01*
X018042Y003703D01*
X018042Y003836D01*
X017881Y003770D01*
X017682Y003770D01*
X017499Y003846D01*
X017358Y003987D01*
X017282Y004170D01*
X017301Y004124D02*
X017262Y004124D01*
X017184Y003965D02*
X017379Y003965D01*
X017594Y003807D02*
X016970Y003807D01*
X017111Y003648D02*
X017453Y003648D01*
X017332Y003490D02*
X017232Y003490D01*
X017282Y003331D02*
X017282Y003331D01*
X017282Y003172D02*
X017282Y003172D01*
X017217Y003014D02*
X017347Y003014D01*
X017489Y002855D02*
X017074Y002855D01*
X016489Y002855D02*
X016074Y002855D01*
X016217Y003014D02*
X016347Y003014D01*
X016282Y003170D02*
X016282Y003369D01*
X016300Y003413D01*
X016238Y003474D01*
X016282Y003369D01*
X016282Y003170D01*
X016282Y003172D02*
X016282Y003172D01*
X016282Y003331D02*
X016282Y003331D01*
X015489Y002855D02*
X015074Y002855D01*
X015217Y003014D02*
X015347Y003014D01*
X015282Y003170D02*
X015282Y003369D01*
X015325Y003474D01*
X015264Y003413D01*
X015282Y003369D01*
X015282Y003170D01*
X015282Y003172D02*
X015282Y003172D01*
X015282Y003331D02*
X015282Y003331D01*
X014453Y003648D02*
X014111Y003648D01*
X014232Y003490D02*
X014332Y003490D01*
X014282Y003331D02*
X014282Y003331D01*
X014282Y003172D02*
X014282Y003172D01*
X014217Y003014D02*
X014347Y003014D01*
X014489Y002855D02*
X014074Y002855D01*
X013489Y002855D02*
X013074Y002855D01*
X013217Y003014D02*
X013347Y003014D01*
X013282Y003172D02*
X013282Y003172D01*
X013282Y003331D02*
X013282Y003331D01*
X013232Y003490D02*
X013332Y003490D01*
X013453Y003648D02*
X013111Y003648D01*
X012970Y003807D02*
X013594Y003807D01*
X013379Y003965D02*
X013184Y003965D01*
X013262Y004124D02*
X013301Y004124D01*
X013282Y004282D02*
X013282Y004282D01*
X013271Y004441D02*
X013252Y004441D01*
X013633Y004758D02*
X013653Y004758D01*
X013910Y004758D02*
X014054Y004758D01*
X014159Y004599D02*
X014213Y004599D01*
X014252Y004441D02*
X014311Y004441D01*
X014282Y004282D02*
X014282Y004282D01*
X014262Y004124D02*
X014301Y004124D01*
X014379Y003965D02*
X014184Y003965D01*
X013970Y003807D02*
X014594Y003807D01*
X014970Y003807D02*
X014979Y003807D01*
X016584Y003807D02*
X016594Y003807D01*
X017970Y003807D02*
X018042Y003807D01*
X018238Y003474D02*
X018300Y003413D01*
X018282Y003369D01*
X018282Y003170D01*
X018282Y003369D01*
X018238Y003474D01*
X018282Y003331D02*
X018282Y003331D01*
X018282Y003172D02*
X018282Y003172D01*
X018217Y003014D02*
X018347Y003014D01*
X018489Y002855D02*
X018074Y002855D01*
X019074Y002855D02*
X019489Y002855D01*
X019347Y003014D02*
X019217Y003014D01*
X019282Y003170D02*
X019282Y003369D01*
X019358Y003553D01*
X019499Y003694D01*
X019682Y003770D01*
X019881Y003770D01*
X020065Y003846D01*
X020206Y003987D01*
X020282Y004170D01*
X020282Y004369D01*
X020282Y004170D01*
X020358Y003987D01*
X020499Y003846D01*
X020682Y003770D01*
X020881Y003770D01*
X021065Y003694D01*
X021206Y003553D01*
X021282Y003369D01*
X021358Y003553D01*
X021499Y003694D01*
X021682Y003770D01*
X021881Y003770D01*
X022065Y003694D01*
X022206Y003553D01*
X022282Y003369D01*
X022358Y003553D01*
X022499Y003694D01*
X022682Y003770D01*
X022881Y003770D01*
X023065Y003694D01*
X023206Y003553D01*
X023282Y003369D01*
X023358Y003553D01*
X023499Y003694D01*
X023682Y003770D01*
X023881Y003770D01*
X024065Y003694D01*
X024206Y003553D01*
X024282Y003369D01*
X024358Y003553D01*
X024499Y003694D01*
X024682Y003770D01*
X024881Y003770D01*
X025065Y003694D01*
X025206Y003553D01*
X025282Y003369D01*
X025358Y003553D01*
X025499Y003694D01*
X025682Y003770D01*
X025881Y003770D01*
X026065Y003694D01*
X026206Y003553D01*
X026282Y003369D01*
X026358Y003553D01*
X026499Y003694D01*
X026682Y003770D01*
X026881Y003770D01*
X027065Y003694D01*
X027206Y003553D01*
X027282Y003369D01*
X027358Y003553D01*
X027499Y003694D01*
X027682Y003770D01*
X027881Y003770D01*
X028065Y003694D01*
X028206Y003553D01*
X028282Y003369D01*
X028358Y003553D01*
X028499Y003694D01*
X028682Y003770D01*
X028881Y003770D01*
X029065Y003694D01*
X029206Y003553D01*
X029282Y003369D01*
X029358Y003553D01*
X029499Y003694D01*
X029682Y003770D01*
X029881Y003770D01*
X030065Y003694D01*
X030206Y003553D01*
X030282Y003369D01*
X030282Y003170D01*
X030206Y002987D01*
X030065Y002846D01*
X029881Y002770D01*
X029682Y002770D01*
X029499Y002846D01*
X029358Y002987D01*
X029282Y003170D01*
X029282Y003369D01*
X029282Y003170D01*
X029206Y002987D01*
X029065Y002846D01*
X028881Y002770D01*
X028682Y002770D01*
X028499Y002846D01*
X028358Y002987D01*
X028282Y003170D01*
X028282Y003369D01*
X028282Y003170D01*
X028206Y002987D01*
X028065Y002846D01*
X027881Y002770D01*
X027682Y002770D01*
X027499Y002846D01*
X027358Y002987D01*
X027282Y003170D01*
X027282Y003369D01*
X027282Y003170D01*
X027206Y002987D01*
X027065Y002846D01*
X026881Y002770D01*
X026682Y002770D01*
X026499Y002846D01*
X026358Y002987D01*
X026282Y003170D01*
X026282Y003369D01*
X026282Y003170D01*
X026206Y002987D01*
X026065Y002846D01*
X025881Y002770D01*
X025682Y002770D01*
X025499Y002846D01*
X025358Y002987D01*
X025282Y003170D01*
X025282Y003369D01*
X025282Y003170D01*
X025206Y002987D01*
X025065Y002846D01*
X024881Y002770D01*
X024682Y002770D01*
X024499Y002846D01*
X024358Y002987D01*
X024282Y003170D01*
X024282Y003369D01*
X024282Y003170D01*
X024206Y002987D01*
X024065Y002846D01*
X023881Y002770D01*
X023682Y002770D01*
X023499Y002846D01*
X023358Y002987D01*
X023282Y003170D01*
X023282Y003369D01*
X023282Y003170D01*
X023206Y002987D01*
X023065Y002846D01*
X022881Y002770D01*
X022682Y002770D01*
X022499Y002846D01*
X022358Y002987D01*
X022282Y003170D01*
X022282Y003369D01*
X022282Y003170D01*
X022206Y002987D01*
X022065Y002846D01*
X021881Y002770D01*
X021682Y002770D01*
X021499Y002846D01*
X021358Y002987D01*
X021282Y003170D01*
X021282Y003369D01*
X021282Y003170D01*
X021206Y002987D01*
X021065Y002846D01*
X020881Y002770D01*
X020682Y002770D01*
X020499Y002846D01*
X020358Y002987D01*
X020282Y003170D01*
X020282Y003369D01*
X020206Y003553D01*
X020065Y003694D01*
X019881Y003770D01*
X019682Y003770D01*
X019499Y003846D01*
X019358Y003987D01*
X019282Y004170D01*
X019282Y004369D01*
X019282Y004170D01*
X019206Y003987D01*
X019065Y003846D01*
X018881Y003770D01*
X018682Y003770D01*
X018578Y003813D01*
X018639Y003752D01*
X018682Y003770D01*
X018881Y003770D01*
X019065Y003694D01*
X019206Y003553D01*
X019282Y003369D01*
X019282Y003170D01*
X019282Y003172D02*
X019282Y003172D01*
X019282Y003331D02*
X019282Y003331D01*
X019232Y003490D02*
X019332Y003490D01*
X019453Y003648D02*
X019111Y003648D01*
X018970Y003807D02*
X019594Y003807D01*
X019379Y003965D02*
X019184Y003965D01*
X019262Y004124D02*
X019301Y004124D01*
X019282Y004282D02*
X019282Y004282D01*
X019252Y004441D02*
X019311Y004441D01*
X019404Y004599D02*
X019159Y004599D01*
X018910Y004758D02*
X019653Y004758D01*
X019910Y004758D02*
X020653Y004758D01*
X020910Y004758D02*
X021653Y004758D01*
X021910Y004758D02*
X022653Y004758D01*
X022910Y004758D02*
X023653Y004758D01*
X023910Y004758D02*
X024653Y004758D01*
X024910Y004758D02*
X025653Y004758D01*
X025910Y004758D02*
X026653Y004758D01*
X026910Y004758D02*
X027653Y004758D01*
X027910Y004758D02*
X028653Y004758D01*
X028910Y004758D02*
X029653Y004758D01*
X029910Y004758D02*
X030653Y004758D01*
X030910Y004758D02*
X031653Y004758D01*
X031910Y004758D02*
X032222Y004758D01*
X032222Y004916D02*
X018275Y004916D01*
X018433Y004758D02*
X018653Y004758D01*
X018116Y005075D02*
X032222Y005075D01*
X032222Y004599D02*
X032159Y004599D01*
X031404Y004599D02*
X031159Y004599D01*
X031252Y004441D02*
X031311Y004441D01*
X031282Y004282D02*
X031282Y004282D01*
X031262Y004124D02*
X031301Y004124D01*
X031379Y003965D02*
X031184Y003965D01*
X030970Y003807D02*
X031594Y003807D01*
X031682Y003770D02*
X031881Y003770D01*
X031682Y003770D01*
X031881Y003770D02*
X032065Y003694D01*
X032206Y003553D01*
X032222Y003514D01*
X032222Y004026D01*
X032206Y003987D01*
X032065Y003846D01*
X031881Y003770D01*
X031970Y003807D02*
X032222Y003807D01*
X032222Y003965D02*
X032184Y003965D01*
X032222Y003648D02*
X032111Y003648D01*
X031453Y003648D02*
X031111Y003648D01*
X031232Y003490D02*
X031332Y003490D01*
X031282Y003331D02*
X031282Y003331D01*
X031282Y003172D02*
X031282Y003172D01*
X031217Y003014D02*
X031347Y003014D01*
X031489Y002855D02*
X031074Y002855D01*
X030489Y002855D02*
X030074Y002855D01*
X030217Y003014D02*
X030347Y003014D01*
X030282Y003172D02*
X030282Y003172D01*
X030282Y003331D02*
X030282Y003331D01*
X030232Y003490D02*
X030332Y003490D01*
X030453Y003648D02*
X030111Y003648D01*
X029970Y003807D02*
X030594Y003807D01*
X030379Y003965D02*
X030184Y003965D01*
X030262Y004124D02*
X030301Y004124D01*
X030282Y004282D02*
X030282Y004282D01*
X030252Y004441D02*
X030311Y004441D01*
X030404Y004599D02*
X030159Y004599D01*
X029404Y004599D02*
X029159Y004599D01*
X029252Y004441D02*
X029311Y004441D01*
X029282Y004282D02*
X029282Y004282D01*
X029262Y004124D02*
X029301Y004124D01*
X029379Y003965D02*
X029184Y003965D01*
X028970Y003807D02*
X029594Y003807D01*
X029453Y003648D02*
X029111Y003648D01*
X029232Y003490D02*
X029332Y003490D01*
X029282Y003331D02*
X029282Y003331D01*
X029282Y003172D02*
X029282Y003172D01*
X029217Y003014D02*
X029347Y003014D01*
X029489Y002855D02*
X029074Y002855D01*
X028489Y002855D02*
X028074Y002855D01*
X028217Y003014D02*
X028347Y003014D01*
X028282Y003172D02*
X028282Y003172D01*
X028282Y003331D02*
X028282Y003331D01*
X028232Y003490D02*
X028332Y003490D01*
X028453Y003648D02*
X028111Y003648D01*
X027970Y003807D02*
X028594Y003807D01*
X028379Y003965D02*
X028184Y003965D01*
X028262Y004124D02*
X028301Y004124D01*
X028282Y004282D02*
X028282Y004282D01*
X028252Y004441D02*
X028311Y004441D01*
X028404Y004599D02*
X028159Y004599D01*
X027404Y004599D02*
X027159Y004599D01*
X027252Y004441D02*
X027311Y004441D01*
X027282Y004282D02*
X027282Y004282D01*
X027262Y004124D02*
X027301Y004124D01*
X027379Y003965D02*
X027184Y003965D01*
X026970Y003807D02*
X027594Y003807D01*
X027453Y003648D02*
X027111Y003648D01*
X027232Y003490D02*
X027332Y003490D01*
X027282Y003331D02*
X027282Y003331D01*
X027282Y003172D02*
X027282Y003172D01*
X027217Y003014D02*
X027347Y003014D01*
X027489Y002855D02*
X027074Y002855D01*
X026489Y002855D02*
X026074Y002855D01*
X026217Y003014D02*
X026347Y003014D01*
X026282Y003172D02*
X026282Y003172D01*
X026282Y003331D02*
X026282Y003331D01*
X026232Y003490D02*
X026332Y003490D01*
X026453Y003648D02*
X026111Y003648D01*
X025970Y003807D02*
X026594Y003807D01*
X026379Y003965D02*
X026184Y003965D01*
X026262Y004124D02*
X026301Y004124D01*
X026282Y004282D02*
X026282Y004282D01*
X026252Y004441D02*
X026311Y004441D01*
X026404Y004599D02*
X026159Y004599D01*
X025404Y004599D02*
X025159Y004599D01*
X025252Y004441D02*
X025311Y004441D01*
X025282Y004282D02*
X025282Y004282D01*
X025262Y004124D02*
X025301Y004124D01*
X025379Y003965D02*
X025184Y003965D01*
X024970Y003807D02*
X025594Y003807D01*
X025453Y003648D02*
X025111Y003648D01*
X025232Y003490D02*
X025332Y003490D01*
X025282Y003331D02*
X025282Y003331D01*
X025282Y003172D02*
X025282Y003172D01*
X025217Y003014D02*
X025347Y003014D01*
X025489Y002855D02*
X025074Y002855D01*
X024489Y002855D02*
X024074Y002855D01*
X024217Y003014D02*
X024347Y003014D01*
X024282Y003172D02*
X024282Y003172D01*
X024282Y003331D02*
X024282Y003331D01*
X024232Y003490D02*
X024332Y003490D01*
X024453Y003648D02*
X024111Y003648D01*
X023970Y003807D02*
X024594Y003807D01*
X024379Y003965D02*
X024184Y003965D01*
X024262Y004124D02*
X024301Y004124D01*
X024282Y004282D02*
X024282Y004282D01*
X024252Y004441D02*
X024311Y004441D01*
X024404Y004599D02*
X024159Y004599D01*
X023404Y004599D02*
X023159Y004599D01*
X023252Y004441D02*
X023311Y004441D01*
X023282Y004282D02*
X023282Y004282D01*
X023262Y004124D02*
X023301Y004124D01*
X023379Y003965D02*
X023184Y003965D01*
X022970Y003807D02*
X023594Y003807D01*
X023453Y003648D02*
X023111Y003648D01*
X023232Y003490D02*
X023332Y003490D01*
X023282Y003331D02*
X023282Y003331D01*
X023282Y003172D02*
X023282Y003172D01*
X023217Y003014D02*
X023347Y003014D01*
X023489Y002855D02*
X023074Y002855D01*
X022489Y002855D02*
X022074Y002855D01*
X022217Y003014D02*
X022347Y003014D01*
X022282Y003172D02*
X022282Y003172D01*
X022282Y003331D02*
X022282Y003331D01*
X022232Y003490D02*
X022332Y003490D01*
X022453Y003648D02*
X022111Y003648D01*
X021970Y003807D02*
X022594Y003807D01*
X022379Y003965D02*
X022184Y003965D01*
X022262Y004124D02*
X022301Y004124D01*
X022282Y004282D02*
X022282Y004282D01*
X022252Y004441D02*
X022311Y004441D01*
X022404Y004599D02*
X022159Y004599D01*
X021404Y004599D02*
X021159Y004599D01*
X021252Y004441D02*
X021311Y004441D01*
X021282Y004282D02*
X021282Y004282D01*
X021262Y004124D02*
X021301Y004124D01*
X021379Y003965D02*
X021184Y003965D01*
X020970Y003807D02*
X021594Y003807D01*
X021453Y003648D02*
X021111Y003648D01*
X021232Y003490D02*
X021332Y003490D01*
X021282Y003331D02*
X021282Y003331D01*
X021282Y003172D02*
X021282Y003172D01*
X021217Y003014D02*
X021347Y003014D01*
X021489Y002855D02*
X021074Y002855D01*
X020489Y002855D02*
X020074Y002855D01*
X020217Y003014D02*
X020347Y003014D01*
X020282Y003172D02*
X020282Y003172D01*
X020282Y003331D02*
X020282Y003331D01*
X020232Y003490D02*
X020332Y003490D01*
X020453Y003648D02*
X020111Y003648D01*
X019970Y003807D02*
X020594Y003807D01*
X020379Y003965D02*
X020184Y003965D01*
X020262Y004124D02*
X020301Y004124D01*
X020282Y004282D02*
X020282Y004282D01*
X020252Y004441D02*
X020311Y004441D01*
X020404Y004599D02*
X020159Y004599D01*
X018594Y003807D02*
X018584Y003807D01*
X018477Y005868D02*
X018087Y005868D01*
X018222Y006026D02*
X018341Y006026D01*
X018282Y006185D02*
X018282Y006185D01*
X018282Y006343D02*
X018282Y006343D01*
X018227Y006502D02*
X018337Y006502D01*
X018465Y006660D02*
X018098Y006660D01*
X017999Y006819D02*
X018564Y006819D01*
X018367Y006977D02*
X018196Y006977D01*
X018267Y007136D02*
X018296Y007136D01*
X018282Y007295D02*
X018282Y007295D01*
X018247Y007453D02*
X018316Y007453D01*
X018416Y007612D02*
X018147Y007612D01*
X018148Y007929D02*
X018416Y007929D01*
X018316Y008087D02*
X018247Y008087D01*
X018282Y008246D02*
X018282Y008246D01*
X018267Y008404D02*
X018296Y008404D01*
X018368Y008563D02*
X018196Y008563D01*
X017998Y008721D02*
X018565Y008721D01*
X018465Y008880D02*
X018099Y008880D01*
X018227Y009039D02*
X018336Y009039D01*
X018282Y009197D02*
X018282Y009197D01*
X018282Y009356D02*
X018282Y009356D01*
X018222Y009514D02*
X018342Y009514D01*
X018477Y009673D02*
X018086Y009673D01*
X018029Y009831D02*
X018534Y009831D01*
X018357Y009990D02*
X018207Y009990D01*
X018273Y010148D02*
X018291Y010148D01*
X018282Y010307D02*
X018282Y010307D01*
X018242Y010465D02*
X018322Y010465D01*
X018429Y010624D02*
X018135Y010624D01*
X018160Y010941D02*
X018403Y010941D01*
X018311Y011100D02*
X018252Y011100D01*
X018282Y011258D02*
X018282Y011258D01*
X018262Y011417D02*
X018301Y011417D01*
X018380Y011575D02*
X018183Y011575D01*
X017968Y011734D02*
X018595Y011734D01*
X018452Y011892D02*
X018111Y011892D01*
X018232Y012051D02*
X018331Y012051D01*
X018282Y012209D02*
X018282Y012209D01*
X018282Y012368D02*
X018282Y012368D01*
X018217Y012526D02*
X018347Y012526D01*
X018490Y012685D02*
X018074Y012685D01*
X018059Y012844D02*
X018504Y012844D01*
X018351Y013002D02*
X018212Y013002D01*
X018278Y013161D02*
X018286Y013161D01*
X018282Y013319D02*
X018282Y013319D01*
X018237Y013478D02*
X018327Y013478D01*
X018441Y013636D02*
X018122Y013636D01*
X017941Y013795D02*
X018622Y013795D01*
X018391Y013953D02*
X018172Y013953D01*
X018257Y014112D02*
X018306Y014112D01*
X018282Y014270D02*
X018282Y014270D01*
X018257Y014429D02*
X018306Y014429D01*
X018392Y014588D02*
X018171Y014588D01*
X017939Y014746D02*
X018625Y014746D01*
X017625Y014746D02*
X016939Y014746D01*
X017171Y014588D02*
X017392Y014588D01*
X017306Y014429D02*
X017257Y014429D01*
X017282Y014270D02*
X017282Y014270D01*
X017257Y014112D02*
X017306Y014112D01*
X017391Y013953D02*
X017172Y013953D01*
X016941Y013795D02*
X017622Y013795D01*
X017441Y013636D02*
X017122Y013636D01*
X017237Y013478D02*
X017327Y013478D01*
X017282Y013319D02*
X017282Y013319D01*
X017278Y013161D02*
X017286Y013161D01*
X017351Y013002D02*
X017212Y013002D01*
X017059Y012844D02*
X017504Y012844D01*
X017490Y012685D02*
X017074Y012685D01*
X017217Y012526D02*
X017347Y012526D01*
X017282Y012368D02*
X017282Y012368D01*
X017282Y012209D02*
X017282Y012209D01*
X017232Y012051D02*
X017331Y012051D01*
X017452Y011892D02*
X017111Y011892D01*
X016968Y011734D02*
X017595Y011734D01*
X017380Y011575D02*
X017183Y011575D01*
X017262Y011417D02*
X017301Y011417D01*
X017282Y011258D02*
X017282Y011258D01*
X017252Y011100D02*
X017311Y011100D01*
X017403Y010941D02*
X017160Y010941D01*
X017135Y010624D02*
X017429Y010624D01*
X017322Y010465D02*
X017242Y010465D01*
X017282Y010307D02*
X017282Y010307D01*
X017273Y010148D02*
X017291Y010148D01*
X017357Y009990D02*
X017207Y009990D01*
X017029Y009831D02*
X017534Y009831D01*
X017477Y009673D02*
X017086Y009673D01*
X017222Y009514D02*
X017342Y009514D01*
X017282Y009356D02*
X017282Y009356D01*
X017282Y009197D02*
X017282Y009197D01*
X017336Y009039D02*
X017227Y009039D01*
X017099Y008880D02*
X017465Y008880D01*
X017565Y008721D02*
X016998Y008721D01*
X017196Y008563D02*
X017368Y008563D01*
X017296Y008404D02*
X017267Y008404D01*
X017282Y008246D02*
X017282Y008246D01*
X017247Y008087D02*
X017316Y008087D01*
X017416Y007929D02*
X017148Y007929D01*
X017147Y007612D02*
X017416Y007612D01*
X017316Y007453D02*
X017247Y007453D01*
X017282Y007295D02*
X017282Y007295D01*
X017267Y007136D02*
X017296Y007136D01*
X017367Y006977D02*
X017196Y006977D01*
X016999Y006819D02*
X017564Y006819D01*
X017465Y006660D02*
X017098Y006660D01*
X017227Y006502D02*
X017337Y006502D01*
X017282Y006343D02*
X017282Y006343D01*
X017282Y006185D02*
X017282Y006185D01*
X017222Y006026D02*
X017341Y006026D01*
X017477Y005868D02*
X017087Y005868D01*
X015564Y006819D02*
X014999Y006819D01*
X015196Y006977D02*
X015367Y006977D01*
X015296Y007136D02*
X015267Y007136D01*
X015282Y007295D02*
X015282Y007295D01*
X015247Y007453D02*
X015316Y007453D01*
X015416Y007612D02*
X015147Y007612D01*
X015148Y007929D02*
X015416Y007929D01*
X015316Y008087D02*
X015247Y008087D01*
X015282Y008246D02*
X015282Y008246D01*
X015267Y008404D02*
X015296Y008404D01*
X015368Y008563D02*
X015196Y008563D01*
X014998Y008721D02*
X015565Y008721D01*
X015465Y008880D02*
X015099Y008880D01*
X015227Y009039D02*
X015336Y009039D01*
X015282Y009197D02*
X015282Y009197D01*
X015282Y009356D02*
X015282Y009356D01*
X015222Y009514D02*
X015342Y009514D01*
X015477Y009673D02*
X015086Y009673D01*
X015029Y009831D02*
X015534Y009831D01*
X015357Y009990D02*
X015207Y009990D01*
X015273Y010148D02*
X015291Y010148D01*
X015282Y010307D02*
X015282Y010307D01*
X015242Y010465D02*
X015322Y010465D01*
X015429Y010624D02*
X015135Y010624D01*
X015160Y010941D02*
X015403Y010941D01*
X015311Y011100D02*
X015252Y011100D01*
X015282Y011258D02*
X015282Y011258D01*
X015262Y011417D02*
X015301Y011417D01*
X015380Y011575D02*
X015183Y011575D01*
X012441Y013636D02*
X012255Y013636D01*
X012096Y013795D02*
X012622Y013795D01*
X012391Y013953D02*
X011938Y013953D01*
X011779Y014112D02*
X012306Y014112D01*
X012282Y014270D02*
X011621Y014270D01*
X011462Y014429D02*
X012306Y014429D01*
X012392Y014588D02*
X011303Y014588D01*
X011145Y014746D02*
X012625Y014746D01*
X011282Y015270D02*
X011282Y016179D01*
X010649Y016173D02*
X010422Y016173D01*
X010422Y016014D02*
X010649Y016014D01*
X010649Y015856D02*
X010422Y015856D01*
X010422Y015697D02*
X010654Y015697D01*
X010422Y015539D02*
X010985Y015539D01*
X010894Y015380D02*
X010511Y015380D01*
X010669Y015222D02*
X010882Y015222D01*
X010828Y015063D02*
X010934Y015063D01*
X010986Y014905D02*
X011118Y014905D01*
X012499Y015846D02*
X012682Y015770D01*
X012881Y015770D01*
X013065Y015846D01*
X013206Y015987D01*
X013282Y016170D01*
X013358Y015987D01*
X013499Y015846D01*
X013682Y015770D01*
X013881Y015770D01*
X014065Y015846D01*
X014206Y015987D01*
X014282Y016170D01*
X014282Y016369D01*
X014358Y016553D01*
X014499Y016694D01*
X014682Y016770D01*
X014881Y016770D01*
X015065Y016694D01*
X015206Y016553D01*
X015282Y016369D01*
X015358Y016553D01*
X015499Y016694D01*
X015682Y016770D01*
X015881Y016770D01*
X016065Y016694D01*
X016206Y016553D01*
X016282Y016369D01*
X016282Y016170D01*
X016206Y015987D01*
X016065Y015846D01*
X015881Y015770D01*
X015682Y015770D01*
X015499Y015846D01*
X015358Y015987D01*
X015282Y016170D01*
X015282Y016369D01*
X015282Y016170D01*
X015206Y015987D01*
X015065Y015846D01*
X014881Y015770D01*
X014682Y015770D01*
X014499Y015846D01*
X014358Y015987D01*
X014282Y016170D01*
X014282Y016369D01*
X014206Y016553D01*
X014065Y016694D01*
X013881Y016770D01*
X013682Y016770D01*
X013499Y016694D01*
X013358Y016553D01*
X013282Y016369D01*
X013282Y016170D01*
X013282Y016369D01*
X013206Y016553D01*
X013065Y016694D01*
X012881Y016770D01*
X012682Y016770D01*
X012499Y016694D01*
X012358Y016553D01*
X012282Y016369D01*
X012282Y016170D01*
X012358Y015987D01*
X012499Y015846D01*
X012489Y015856D02*
X011915Y015856D01*
X011915Y016014D02*
X012346Y016014D01*
X012282Y016173D02*
X011915Y016173D01*
X011915Y016332D02*
X012282Y016332D01*
X012332Y016490D02*
X011915Y016490D01*
X011915Y016649D02*
X012453Y016649D01*
X012510Y016863D02*
X012686Y016790D01*
X012762Y016790D01*
X012762Y017250D01*
X012802Y017250D01*
X012802Y017290D01*
X013262Y017290D01*
X013262Y017365D01*
X013189Y017542D01*
X013054Y017677D01*
X012877Y017750D01*
X012802Y017750D01*
X012802Y017290D01*
X012762Y017290D01*
X012762Y017750D01*
X012686Y017750D01*
X012510Y017677D01*
X012375Y017542D01*
X012302Y017365D01*
X012302Y017290D01*
X012761Y017290D01*
X012761Y017250D01*
X012302Y017250D01*
X012302Y017174D01*
X012375Y016998D01*
X012510Y016863D01*
X012407Y016966D02*
X011895Y016966D01*
X011895Y016892D02*
X011895Y017281D01*
X011362Y017281D01*
X011362Y017440D01*
X011895Y017440D01*
X011895Y017829D01*
X011789Y017934D01*
X011362Y017934D01*
X011362Y017441D01*
X011202Y017441D01*
X011202Y017934D01*
X010774Y017934D01*
X010669Y017829D01*
X010669Y017440D01*
X011202Y017440D01*
X011202Y017281D01*
X010669Y017281D01*
X010669Y016892D01*
X010774Y016787D01*
X011202Y016787D01*
X011202Y017280D01*
X011362Y017280D01*
X011362Y016787D01*
X011789Y016787D01*
X011895Y016892D01*
X011810Y016807D02*
X012645Y016807D01*
X012762Y016807D02*
X012802Y016807D01*
X012802Y016790D02*
X012877Y016790D01*
X013054Y016863D01*
X013189Y016998D01*
X013262Y017174D01*
X013262Y017250D01*
X012802Y017250D01*
X012802Y016790D01*
X012919Y016807D02*
X013645Y016807D01*
X013686Y016790D02*
X013510Y016863D01*
X013375Y016998D01*
X013302Y017174D01*
X013302Y017250D01*
X013761Y017250D01*
X013761Y017290D01*
X013302Y017290D01*
X013302Y017365D01*
X013375Y017542D01*
X013510Y017677D01*
X013686Y017750D01*
X013762Y017750D01*
X013762Y017290D01*
X013802Y017290D01*
X014262Y017290D01*
X014262Y017365D01*
X014189Y017542D01*
X014054Y017677D01*
X013877Y017750D01*
X013802Y017750D01*
X013802Y017290D01*
X013802Y017250D01*
X014262Y017250D01*
X014262Y017174D01*
X014189Y016998D01*
X014054Y016863D01*
X013877Y016790D01*
X013802Y016790D01*
X013802Y017250D01*
X013762Y017250D01*
X013762Y016790D01*
X013686Y016790D01*
X013762Y016807D02*
X013802Y016807D01*
X013919Y016807D02*
X014645Y016807D01*
X014686Y016790D02*
X014510Y016863D01*
X014375Y016998D01*
X014302Y017174D01*
X014302Y017250D01*
X014761Y017250D01*
X014761Y017290D01*
X014302Y017290D01*
X014302Y017365D01*
X014375Y017542D01*
X014510Y017677D01*
X014686Y017750D01*
X014762Y017750D01*
X014762Y017290D01*
X014802Y017290D01*
X015262Y017290D01*
X015262Y017365D01*
X015189Y017542D01*
X015054Y017677D01*
X014877Y017750D01*
X014802Y017750D01*
X014802Y017290D01*
X014802Y017250D01*
X015262Y017250D01*
X015262Y017174D01*
X015189Y016998D01*
X015054Y016863D01*
X014877Y016790D01*
X014802Y016790D01*
X014802Y017250D01*
X014762Y017250D01*
X014762Y016790D01*
X014686Y016790D01*
X014762Y016807D02*
X014802Y016807D01*
X014919Y016807D02*
X015592Y016807D01*
X015682Y016770D02*
X015499Y016846D01*
X015358Y016987D01*
X015282Y017170D01*
X015282Y017369D01*
X015358Y017553D01*
X015499Y017694D01*
X015682Y017770D01*
X015881Y017770D01*
X016065Y017694D01*
X016206Y017553D01*
X016282Y017369D01*
X016282Y017170D01*
X016206Y016987D01*
X016065Y016846D01*
X015881Y016770D01*
X015682Y016770D01*
X015453Y016649D02*
X015110Y016649D01*
X015232Y016490D02*
X015332Y016490D01*
X015282Y016332D02*
X015282Y016332D01*
X015282Y016173D02*
X015282Y016173D01*
X015217Y016014D02*
X015346Y016014D01*
X015489Y015856D02*
X015075Y015856D01*
X014489Y015856D02*
X014075Y015856D01*
X014217Y016014D02*
X014346Y016014D01*
X014282Y016173D02*
X014282Y016173D01*
X014282Y016332D02*
X014282Y016332D01*
X014232Y016490D02*
X014332Y016490D01*
X014453Y016649D02*
X014110Y016649D01*
X014156Y016966D02*
X014407Y016966D01*
X014322Y017124D02*
X014241Y017124D01*
X013802Y017124D02*
X013762Y017124D01*
X013762Y016966D02*
X013802Y016966D01*
X013407Y016966D02*
X013156Y016966D01*
X013241Y017124D02*
X013322Y017124D01*
X013761Y017283D02*
X012802Y017283D01*
X012761Y017283D02*
X011362Y017283D01*
X011362Y017441D02*
X011202Y017441D01*
X011202Y017283D02*
X010008Y017283D01*
X010167Y017124D02*
X010669Y017124D01*
X010669Y016966D02*
X010325Y016966D01*
X010422Y016807D02*
X010754Y016807D01*
X010649Y016649D02*
X010422Y016649D01*
X010422Y016490D02*
X010649Y016490D01*
X010649Y016332D02*
X010422Y016332D01*
X009942Y016441D02*
X009942Y016671D01*
X009782Y016830D01*
X008581Y016830D01*
X008522Y016771D01*
X008522Y015569D01*
X008781Y015310D01*
X008881Y015310D01*
X009140Y015051D01*
X009140Y015069D01*
X009140Y015268D01*
X009182Y015309D01*
X009182Y015449D01*
X009243Y015596D01*
X009319Y015673D01*
X009317Y015673D01*
X009268Y015723D01*
X009238Y015693D01*
X008966Y015693D01*
X008966Y016051D01*
X008929Y016051D01*
X008929Y015693D01*
X008656Y015693D01*
X008551Y015799D01*
X008551Y016051D01*
X008928Y016051D01*
X008928Y016088D01*
X008551Y016088D01*
X008551Y016341D01*
X008656Y016447D01*
X008929Y016447D01*
X008929Y016089D01*
X008966Y016089D01*
X008966Y016447D01*
X009238Y016447D01*
X009268Y016417D01*
X009317Y016467D01*
X009916Y016467D01*
X009942Y016441D01*
X009942Y016490D02*
X008522Y016490D01*
X008522Y016332D02*
X008551Y016332D01*
X008551Y016173D02*
X008522Y016173D01*
X008522Y016014D02*
X008551Y016014D01*
X008551Y015856D02*
X008522Y015856D01*
X008522Y015697D02*
X008652Y015697D01*
X008552Y015539D02*
X009219Y015539D01*
X009242Y015697D02*
X009293Y015697D01*
X008966Y015697D02*
X008929Y015697D01*
X008929Y015856D02*
X008966Y015856D01*
X008966Y016014D02*
X008929Y016014D01*
X008947Y016070D02*
X008947Y016735D01*
X008982Y016670D01*
X008966Y016332D02*
X008929Y016332D01*
X008929Y016173D02*
X008966Y016173D01*
X008522Y016649D02*
X009942Y016649D01*
X009805Y016807D02*
X008558Y016807D01*
X008197Y017124D02*
X007951Y017124D01*
X007982Y016966D02*
X008042Y016966D01*
X008042Y016807D02*
X007947Y016807D01*
X007934Y016649D02*
X008042Y016649D01*
X008042Y016490D02*
X007998Y016490D01*
X007998Y016332D02*
X008042Y016332D01*
X008042Y016173D02*
X007998Y016173D01*
X007988Y016014D02*
X008042Y016014D01*
X008042Y015856D02*
X007998Y015856D01*
X007998Y015697D02*
X008042Y015697D01*
X008042Y015539D02*
X007998Y015539D01*
X007998Y015380D02*
X008042Y015380D01*
X008191Y015222D02*
X007773Y015222D01*
X007242Y015222D02*
X006206Y015222D01*
X006439Y015063D02*
X007050Y015063D01*
X007165Y015380D02*
X005858Y015380D01*
X005917Y015222D02*
X005699Y015222D01*
X005684Y015063D02*
X005659Y015063D01*
X006016Y015539D02*
X007165Y015539D01*
X007165Y015697D02*
X006175Y015697D01*
X006182Y015856D02*
X007165Y015856D01*
X007176Y016014D02*
X006182Y016014D01*
X006182Y016173D02*
X007165Y016173D01*
X007165Y016332D02*
X006182Y016332D01*
X006182Y016490D02*
X007165Y016490D01*
X007230Y016649D02*
X006182Y016649D01*
X006182Y016807D02*
X007216Y016807D01*
X007182Y016966D02*
X006182Y016966D01*
X006202Y017124D02*
X007213Y017124D01*
X007329Y017283D02*
X006360Y017283D01*
X006519Y017441D02*
X010669Y017441D01*
X010669Y017600D02*
X006677Y017600D01*
X006836Y017758D02*
X010669Y017758D01*
X010757Y017917D02*
X006994Y017917D01*
X007153Y018076D02*
X023282Y018076D01*
X023282Y017917D02*
X011806Y017917D01*
X011895Y017758D02*
X015655Y017758D01*
X015909Y017758D02*
X016655Y017758D01*
X016405Y017600D02*
X016159Y017600D01*
X016252Y017441D02*
X016312Y017441D01*
X016282Y017283D02*
X016282Y017283D01*
X016263Y017124D02*
X016301Y017124D01*
X016379Y016966D02*
X016185Y016966D01*
X015971Y016807D02*
X016592Y016807D01*
X016453Y016649D02*
X016110Y016649D01*
X016232Y016490D02*
X016332Y016490D01*
X016282Y016332D02*
X016282Y016332D01*
X016282Y016173D02*
X016282Y016173D01*
X016217Y016014D02*
X016346Y016014D01*
X016489Y015856D02*
X016075Y015856D01*
X015379Y016966D02*
X015156Y016966D01*
X015241Y017124D02*
X015301Y017124D01*
X015282Y017283D02*
X014802Y017283D01*
X014761Y017283D02*
X013802Y017283D01*
X013802Y017441D02*
X013762Y017441D01*
X013762Y017600D02*
X013802Y017600D01*
X014131Y017600D02*
X014433Y017600D01*
X014333Y017441D02*
X014230Y017441D01*
X014762Y017441D02*
X014802Y017441D01*
X014802Y017600D02*
X014762Y017600D01*
X015131Y017600D02*
X015405Y017600D01*
X015312Y017441D02*
X015230Y017441D01*
X014802Y017124D02*
X014762Y017124D01*
X014762Y016966D02*
X014802Y016966D01*
X013453Y016649D02*
X013110Y016649D01*
X013232Y016490D02*
X013332Y016490D01*
X013282Y016332D02*
X013282Y016332D01*
X013282Y016173D02*
X013282Y016173D01*
X013217Y016014D02*
X013346Y016014D01*
X013489Y015856D02*
X013075Y015856D01*
X012802Y016966D02*
X012762Y016966D01*
X012762Y017124D02*
X012802Y017124D01*
X012802Y017441D02*
X012762Y017441D01*
X012762Y017600D02*
X012802Y017600D01*
X013131Y017600D02*
X013433Y017600D01*
X013333Y017441D02*
X013230Y017441D01*
X012433Y017600D02*
X011895Y017600D01*
X011895Y017441D02*
X012333Y017441D01*
X012322Y017124D02*
X011895Y017124D01*
X011362Y017124D02*
X011202Y017124D01*
X011202Y016966D02*
X011362Y016966D01*
X011362Y016807D02*
X011202Y016807D01*
X011202Y017600D02*
X011362Y017600D01*
X011362Y017758D02*
X011202Y017758D01*
X011202Y017917D02*
X011362Y017917D01*
X008355Y017283D02*
X007834Y017283D01*
X007582Y016970D02*
X007582Y016305D01*
X008711Y015380D02*
X009182Y015380D01*
X009140Y015222D02*
X008969Y015222D01*
X009128Y015063D02*
X009140Y015063D01*
X005361Y016014D02*
X004788Y016014D01*
X004693Y015919D02*
X004932Y016158D01*
X005062Y016471D01*
X005062Y016809D01*
X004932Y017121D01*
X004693Y017360D01*
X004381Y017490D01*
X004043Y017490D01*
X003730Y017360D01*
X003491Y017121D01*
X003362Y016809D01*
X003362Y016471D01*
X003491Y016158D01*
X003730Y015919D01*
X004043Y015790D01*
X004381Y015790D01*
X004693Y015919D01*
X004602Y015856D02*
X004540Y015856D01*
X004444Y015697D02*
X003342Y015697D01*
X003342Y015539D02*
X004285Y015539D01*
X004316Y015570D02*
X004316Y015570D01*
X004126Y015380D02*
X003342Y015380D01*
X003342Y015222D02*
X004082Y015222D01*
X004082Y015063D02*
X003342Y015063D01*
X003342Y014905D02*
X004082Y014905D01*
X004082Y014746D02*
X003342Y014746D01*
X003342Y014588D02*
X004082Y014588D01*
X004082Y014429D02*
X003342Y014429D01*
X003342Y014270D02*
X004082Y014270D01*
X004082Y014112D02*
X003342Y014112D01*
X003342Y013953D02*
X004082Y013953D01*
X004082Y013795D02*
X003342Y013795D01*
X003342Y013636D02*
X004082Y013636D01*
X004082Y013478D02*
X003342Y013478D01*
X003342Y013319D02*
X004082Y013319D01*
X004082Y013161D02*
X003342Y013161D01*
X003342Y013002D02*
X004184Y013002D01*
X004342Y012844D02*
X003342Y012844D01*
X003342Y012685D02*
X003886Y012685D01*
X003636Y012526D02*
X003342Y012526D01*
X003342Y012368D02*
X003486Y012368D01*
X003420Y012209D02*
X003342Y012209D01*
X003342Y012051D02*
X003362Y012051D01*
X003362Y011892D02*
X003342Y011892D01*
X003342Y011734D02*
X003362Y011734D01*
X003342Y011575D02*
X003426Y011575D01*
X003493Y011417D02*
X003342Y011417D01*
X003342Y011258D02*
X003651Y011258D01*
X003923Y011100D02*
X003342Y011100D01*
X003342Y010941D02*
X004982Y010941D01*
X004982Y010783D02*
X003342Y010783D01*
X003342Y010624D02*
X004982Y010624D01*
X004982Y010465D02*
X003342Y010465D01*
X003342Y010307D02*
X004982Y010307D01*
X004982Y010148D02*
X003342Y010148D01*
X003342Y009990D02*
X004982Y009990D01*
X004982Y009831D02*
X003342Y009831D01*
X003342Y009673D02*
X004982Y009673D01*
X004982Y009514D02*
X003342Y009514D01*
X003342Y009356D02*
X004982Y009356D01*
X004982Y009197D02*
X004481Y009197D01*
X004806Y009039D02*
X004982Y009039D01*
X004982Y008880D02*
X004964Y008880D01*
X004083Y009197D02*
X003342Y009197D01*
X003342Y009039D02*
X003758Y009039D01*
X003599Y008880D02*
X003342Y008880D01*
X003342Y008721D02*
X003510Y008721D01*
X003444Y008563D02*
X003342Y008563D01*
X003342Y008404D02*
X003429Y008404D01*
X003429Y008246D02*
X003342Y008246D01*
X003342Y008087D02*
X003470Y008087D01*
X003536Y007929D02*
X003342Y007929D01*
X003342Y007770D02*
X003662Y007770D01*
X003852Y007612D02*
X003342Y007612D01*
X003342Y007453D02*
X004965Y007453D01*
X004982Y007612D02*
X004712Y007612D01*
X004901Y007770D02*
X004982Y007770D01*
X004882Y007295D02*
X003342Y007295D01*
X003342Y007136D02*
X004862Y007136D01*
X004892Y006977D02*
X003342Y006977D01*
X003342Y006819D02*
X004989Y006819D01*
X005699Y006502D02*
X006283Y006502D01*
X009027Y005075D02*
X010637Y005075D01*
X011682Y005709D02*
X011903Y005709D01*
X011840Y005551D02*
X012062Y005551D01*
X011999Y005392D02*
X012220Y005392D01*
X011745Y005868D02*
X011523Y005868D01*
X011586Y006026D02*
X011365Y006026D01*
X011427Y006185D02*
X011206Y006185D01*
X011269Y006343D02*
X011048Y006343D01*
X011110Y006502D02*
X010889Y006502D01*
X007866Y004124D02*
X007829Y004124D01*
X007829Y003965D02*
X007866Y003965D01*
X007866Y003807D02*
X007829Y003807D01*
X007829Y003648D02*
X007866Y003648D01*
X009757Y002380D02*
X004853Y002380D01*
X004596Y002221D02*
X009808Y002221D01*
X010649Y001904D02*
X032222Y001904D01*
X032222Y002063D02*
X010858Y002063D01*
X010955Y002221D02*
X032222Y002221D01*
X032222Y002380D02*
X011007Y002380D01*
X011007Y002538D02*
X032222Y002538D01*
X032222Y002697D02*
X010964Y002697D01*
X010880Y002855D02*
X012489Y002855D01*
X012347Y003014D02*
X010702Y003014D01*
X004982Y011100D02*
X004501Y011100D01*
X004772Y011258D02*
X004982Y011258D01*
X004982Y011417D02*
X004931Y011417D01*
X003883Y015856D02*
X003342Y015856D01*
X003342Y016014D02*
X003635Y016014D01*
X003485Y016173D02*
X003342Y016173D01*
X003342Y016332D02*
X003419Y016332D01*
X003362Y016490D02*
X003342Y016490D01*
X003342Y016649D02*
X003362Y016649D01*
X003362Y016807D02*
X003342Y016807D01*
X003342Y016966D02*
X003427Y016966D01*
X003494Y017124D02*
X003342Y017124D01*
X003342Y017283D02*
X003653Y017283D01*
X003925Y017441D02*
X003342Y017441D01*
X003342Y017600D02*
X005546Y017600D01*
X005616Y017670D02*
X005616Y017670D01*
X005705Y017758D02*
X003342Y017758D01*
X003342Y017917D02*
X005863Y017917D01*
X006022Y018076D02*
X003342Y018076D01*
X003342Y018234D02*
X006180Y018234D01*
X006339Y018393D02*
X003342Y018393D01*
X003342Y018551D02*
X006497Y018551D01*
X006656Y018710D02*
X003342Y018710D01*
X004498Y017441D02*
X005388Y017441D01*
X005382Y017283D02*
X004771Y017283D01*
X004929Y017124D02*
X005382Y017124D01*
X005382Y016966D02*
X004997Y016966D01*
X005062Y016807D02*
X005382Y016807D01*
X005382Y016649D02*
X005062Y016649D01*
X005062Y016490D02*
X005382Y016490D01*
X005382Y016332D02*
X005004Y016332D01*
X004938Y016173D02*
X005382Y016173D01*
X026999Y006819D02*
X027564Y006819D01*
X027465Y006660D02*
X027098Y006660D01*
X027227Y006502D02*
X027337Y006502D01*
X027282Y006343D02*
X027282Y006343D01*
X027282Y006185D02*
X027282Y006185D01*
X027222Y006026D02*
X027341Y006026D01*
X027477Y005868D02*
X027087Y005868D01*
X027196Y006977D02*
X027367Y006977D01*
X027296Y007136D02*
X027267Y007136D01*
X027282Y007295D02*
X027282Y007295D01*
X027247Y007453D02*
X027316Y007453D01*
X027416Y007612D02*
X027147Y007612D01*
X027148Y007929D02*
X027416Y007929D01*
X027316Y008087D02*
X027247Y008087D01*
X027282Y008246D02*
X027282Y008246D01*
X027267Y008404D02*
X027296Y008404D01*
X027368Y008563D02*
X027196Y008563D01*
X031998Y008721D02*
X032222Y008721D01*
X032222Y008563D02*
X032196Y008563D01*
X032222Y008880D02*
X032099Y008880D01*
X032222Y009514D02*
X032222Y009514D01*
X032222Y009673D02*
X032086Y009673D01*
X032029Y009831D02*
X032222Y009831D01*
X032207Y009990D02*
X032222Y009990D01*
X032196Y006977D02*
X032222Y006977D01*
X032222Y006819D02*
X031999Y006819D01*
X032098Y006660D02*
X032222Y006660D01*
X032222Y005868D02*
X032087Y005868D01*
X032217Y003014D02*
X032222Y003014D01*
X032222Y002855D02*
X032074Y002855D01*
X032110Y016649D02*
X032222Y016649D01*
X032222Y016807D02*
X031971Y016807D01*
X032185Y016966D02*
X032222Y016966D01*
D25*
X024482Y017770D03*
X011282Y015270D03*
X009582Y015370D03*
X008982Y016670D03*
X008982Y017470D03*
X007582Y016970D03*
X009182Y013170D03*
X006882Y012270D03*
X008682Y011370D03*
X010382Y011170D03*
X008182Y008770D03*
X007582Y007670D03*
X008982Y006770D03*
X009182Y003870D03*
X006782Y003070D03*
D26*
X005382Y007170D02*
X005382Y008770D01*
X006747Y008770D01*
X005382Y008770D02*
X005382Y012370D01*
X004482Y013270D01*
X004482Y015170D01*
X004782Y015470D01*
X005382Y015470D01*
X005782Y015870D01*
X005782Y017270D01*
X007082Y018570D01*
X023482Y018570D01*
X023682Y018370D02*
X023682Y016670D01*
X023916Y016435D01*
X024482Y016435D01*
X024482Y015770D01*
X024982Y015270D01*
X030782Y015270D01*
D27*
X024482Y016435D02*
X024482Y016470D01*
X023682Y018370D02*
X023482Y018570D01*
X005382Y007170D02*
X005360Y007148D01*
X005349Y007148D01*
M02*
